<?xml version="1.0" encoding="utf-8" standalone="no"?>
<!DOCTYPE svg PUBLIC "-//W3C//DTD SVG 1.1//EN"
  "http://www.w3.org/Graphics/SVG/1.1/DTD/svg11.dtd">
<!-- Created with matplotlib (http://matplotlib.org/) -->
<svg height="720pt" version="1.1" viewBox="0 0 720 720" width="720pt" xmlns="http://www.w3.org/2000/svg" xmlns:xlink="http://www.w3.org/1999/xlink">
 <defs>
  <style type="text/css">
*{stroke-linecap:butt;stroke-linejoin:round;stroke-miterlimit:100000;}
  </style>
 </defs>
 <g id="figure_1">
  <g id="patch_1">
   <path d="M 0 720 
L 720 720 
L 720 0 
L 0 0 
z
" style="fill:#ffffff;"/>
  </g>
  <g id="axes_1">
   <g id="patch_2">
    <path d="M 90 648 
L 648 648 
L 648 72 
L 90 72 
z
" style="fill:#ffffff;"/>
   </g>
   <g id="patch_3">
    <path d="M 90 72 
L 648 72 
" style="fill:none;"/>
   </g>
   <g id="patch_4">
    <path d="M 648 648 
L 648 72 
" style="fill:none;"/>
   </g>
   <g id="patch_5">
    <path d="M 90 658 
L 648 658 
" style="fill:none;stroke:#000000;stroke-linecap:square;stroke-linejoin:miter;stroke-width:0.75;"/>
   </g>
   <g id="patch_6">
    <path d="M 80 648 
L 80 72 
" style="fill:none;stroke:#000000;stroke-linecap:square;stroke-linejoin:miter;stroke-width:0.75;"/>
   </g>
   <g id="matplotlib.axis_1">
    <g id="xtick_1">
     <g id="line2d_1">
      <defs>
       <path d="M 0 0 
L 0 -4 
" id="m43e1c6e59c" style="stroke:#000000;stroke-width:0.75;"/>
      </defs>
      <g>
       <use style="stroke:#000000;stroke-width:0.75;" x="90.0" xlink:href="#m43e1c6e59c" y="658.0"/>
      </g>
     </g>
     <g id="text_1">
      <text style="font-family:Arial;font-size:9.0px;font-style:normal;font-weight:400;text-anchor:middle;" transform="rotate(-0.000000, 90.000000, 668.442031)" x="90.0" y="668.44203125">−2</text>
     </g>
    </g>
    <g id="xtick_2">
     <g id="line2d_2">
      <g>
       <use style="stroke:#000000;stroke-width:0.75;" x="191.454545455" xlink:href="#m43e1c6e59c" y="658.0"/>
      </g>
     </g>
     <g id="text_2">
      <text style="font-family:Arial;font-size:9.0px;font-style:normal;font-weight:400;text-anchor:middle;" transform="rotate(-0.000000, 191.454545, 668.442031)" x="191.454545455" y="668.44203125">−1</text>
     </g>
    </g>
    <g id="xtick_3">
     <g id="line2d_3">
      <g>
       <use style="stroke:#000000;stroke-width:0.75;" x="292.909090909" xlink:href="#m43e1c6e59c" y="658.0"/>
      </g>
     </g>
     <g id="text_3">
      <text style="font-family:Arial;font-size:9.0px;font-style:normal;font-weight:400;text-anchor:middle;" transform="rotate(-0.000000, 292.909091, 668.442031)" x="292.909090909" y="668.44203125">0</text>
     </g>
    </g>
    <g id="xtick_4">
     <g id="line2d_4">
      <g>
       <use style="stroke:#000000;stroke-width:0.75;" x="394.363636364" xlink:href="#m43e1c6e59c" y="658.0"/>
      </g>
     </g>
     <g id="text_4">
      <text style="font-family:Arial;font-size:9.0px;font-style:normal;font-weight:400;text-anchor:middle;" transform="rotate(-0.000000, 394.363636, 668.442031)" x="394.363636364" y="668.44203125">1</text>
     </g>
    </g>
    <g id="xtick_5">
     <g id="line2d_5">
      <g>
       <use style="stroke:#000000;stroke-width:0.75;" x="495.818181818" xlink:href="#m43e1c6e59c" y="658.0"/>
      </g>
     </g>
     <g id="text_5">
      <text style="font-family:Arial;font-size:9.0px;font-style:normal;font-weight:400;text-anchor:middle;" transform="rotate(-0.000000, 495.818182, 668.442031)" x="495.818181818" y="668.44203125">2</text>
     </g>
    </g>
    <g id="xtick_6">
     <g id="line2d_6">
      <g>
       <use style="stroke:#000000;stroke-width:0.75;" x="597.272727273" xlink:href="#m43e1c6e59c" y="658.0"/>
      </g>
     </g>
     <g id="text_6">
      <text style="font-family:Arial;font-size:9.0px;font-style:normal;font-weight:400;text-anchor:middle;" transform="rotate(-0.000000, 597.272727, 668.442031)" x="597.272727273" y="668.44203125">3</text>
     </g>
    </g>
    <g id="text_7">
     <text style="font-family:Arial;font-size:9.0px;font-style:normal;font-weight:400;text-anchor:middle;" transform="rotate(-0.000000, 369.000000, 681.782500)" x="369.0" y="681.7825">windspeed along trajectory, m/s</text>
    </g>
   </g>
   <g id="matplotlib.axis_2">
    <g id="ytick_1">
     <g id="line2d_7">
      <defs>
       <path d="M 0 0 
L 4 0 
" id="m796eed9043" style="stroke:#000000;stroke-width:0.75;"/>
      </defs>
      <g>
       <use style="stroke:#000000;stroke-width:0.75;" x="80.0" xlink:href="#m796eed9043" y="595.636363636"/>
      </g>
     </g>
     <g id="text_8">
      <text style="font-family:Arial;font-size:9.0px;font-style:normal;font-weight:400;text-anchor:end;" transform="rotate(-0.000000, 76.000000, 597.963004)" x="76.0" y="597.963004261">0</text>
     </g>
    </g>
    <g id="ytick_2">
     <g id="line2d_8">
      <g>
       <use style="stroke:#000000;stroke-width:0.75;" x="80.0" xlink:href="#m796eed9043" y="490.909090909"/>
      </g>
     </g>
     <g id="text_9">
      <text style="font-family:Arial;font-size:9.0px;font-style:normal;font-weight:400;text-anchor:end;" transform="rotate(-0.000000, 76.000000, 493.235732)" x="76.0" y="493.235731534">1</text>
     </g>
    </g>
    <g id="ytick_3">
     <g id="line2d_9">
      <g>
       <use style="stroke:#000000;stroke-width:0.75;" x="80.0" xlink:href="#m796eed9043" y="386.181818182"/>
      </g>
     </g>
     <g id="text_10">
      <text style="font-family:Arial;font-size:9.0px;font-style:normal;font-weight:400;text-anchor:end;" transform="rotate(-0.000000, 76.000000, 388.508459)" x="76.0" y="388.508458807">2</text>
     </g>
    </g>
    <g id="ytick_4">
     <g id="line2d_10">
      <g>
       <use style="stroke:#000000;stroke-width:0.75;" x="80.0" xlink:href="#m796eed9043" y="281.454545455"/>
      </g>
     </g>
     <g id="text_11">
      <text style="font-family:Arial;font-size:9.0px;font-style:normal;font-weight:400;text-anchor:end;" transform="rotate(-0.000000, 76.000000, 283.781186)" x="76.0" y="283.78118608">3</text>
     </g>
    </g>
    <g id="ytick_5">
     <g id="line2d_11">
      <g>
       <use style="stroke:#000000;stroke-width:0.75;" x="80.0" xlink:href="#m796eed9043" y="176.727272727"/>
      </g>
     </g>
     <g id="text_12">
      <text style="font-family:Arial;font-size:9.0px;font-style:normal;font-weight:400;text-anchor:end;" transform="rotate(-0.000000, 76.000000, 179.053913)" x="76.0" y="179.053913352">4</text>
     </g>
    </g>
    <g id="ytick_6">
     <g id="line2d_12">
      <g>
       <use style="stroke:#000000;stroke-width:0.75;" x="80.0" xlink:href="#m796eed9043" y="72.0"/>
      </g>
     </g>
     <g id="text_13">
      <text style="font-family:Arial;font-size:9.0px;font-style:normal;font-weight:400;text-anchor:end;" transform="rotate(-0.000000, 76.000000, 74.326641)" x="76.0" y="74.326640625">5</text>
     </g>
    </g>
    <g id="text_14">
     <text style="font-family:Arial;font-size:9.0px;font-style:normal;font-weight:400;text-anchor:middle;" transform="rotate(-90.000000, 64.100937, 360.000000)" x="64.1009375" y="360.0">groundspeed along trajectory, m/s</text>
    </g>
   </g>
   <g id="LineCollection_1">
    <path clip-path="url(#pac710ffa92)" d="M 272.618182 564.891787 
L 277.690909 565.574946 
L 282.763636 565.57742 
L 287.836364 565.958634 
L 303.054545 567.433997 
L 308.127273 567.457472 
L 313.2 566.787307 
L 318.272727 565.890542 
L 323.345455 566.011471 
L 328.418182 565.927542 
L 333.490909 565.07143 
L 343.636364 564.589582 
L 348.709091 564.104971 
L 353.781818 564.405431 
L 363.927273 566.46232 
L 369 567.227568 
L 374.072727 567.875144 
L 379.145455 568.266572 
L 384.218182 568.356304 
L 399.436364 568.192469 
L 404.509091 567.8758 
L 409.581818 567.223106 
L 414.654545 566.842083 
L 419.727273 566.757667 
L 424.8 566.31561 
L 434.945455 564.008681 
L 440.018182 563.672969 
L 445.090909 562.976919 
L 450.163636 561.827349 
L 455.236364 561.562945 
L 460.309091 561.620116 
L 465.381818 561.219807 
L 470.454545 560.57157 
L 477.411632 558.981818 
L 480.6 557.767709 
L 485.672727 556.324385 
L 490.745455 554.741795 
L 494.601689 553.745455 
L 490.745455 552.719344 
L 485.672727 551.207754 
L 475.527273 549.05019 
L 473.447753 548.509091 
L 470.454545 547.955169 
L 465.381818 547.356066 
L 460.309091 547.257621 
L 455.236364 547.64427 
L 450.163636 547.701992 
L 445.090909 546.68723 
L 440.018182 545.877185 
L 434.945455 545.600615 
L 429.872727 545.46967 
L 414.654545 544.414842 
L 409.581818 544.297212 
L 399.436364 543.565829 
L 394.363636 543.090732 
L 389.290909 542.538589 
L 384.218182 542.318849 
L 379.145455 541.956317 
L 374.072727 541.158021 
L 369 540.144691 
L 364.611112 538.036364 
L 368.060247 532.8 
L 369 531.908573 
L 378.031703 522.327273 
L 379.145455 521.021204 
L 382.788225 517.090909 
L 384.218182 515.35985 
L 407.284223 490.909091 
L 409.581818 488.119576 
L 411.83614 485.672727 
L 414.654545 482.349963 
L 416.457218 480.436364 
L 421.172384 475.2 
L 426.119831 469.963636 
L 435.581879 459.490909 
L 440.868022 454.254545 
L 445.090909 448.944326 
L 450.163636 442.916979 
L 454.131422 438.545455 
L 455.236364 437.16223 
L 458.654058 433.309091 
L 460.309091 431.261209 
L 463.071173 428.072727 
L 465.381818 424.49776 
L 466.700333 422.836364 
L 470.537103 417.6 
L 475.527273 411.979758 
L 478.709919 407.127273 
L 480.689336 401.890909 
L 480.870221 396.654545 
L 480.320334 391.418182 
L 481.099385 386.181818 
L 482.48689 380.945455 
L 483.503526 375.709091 
L 484.043868 370.472727 
L 484.904581 365.236364 
L 485.672727 358.5524 
L 486.046403 354.763636 
L 487.142655 349.527273 
L 488.887584 344.290909 
L 491.327642 339.054545 
L 493.83722 333.818182 
L 495.818182 327.617925 
L 497.580045 323.345455 
L 499.43374 318.109091 
L 500.890909 312.299107 
L 502.630557 307.636364 
L 504.712448 302.4 
L 505.963636 298.779643 
L 511.046761 286.690909 
L 514.22077 281.454545 
L 518.007289 270.981818 
L 518.486112 265.745455 
L 516.109091 260.428395 
L 515.857448 260.509091 
L 511.036364 261.288624 
L 505.963636 263.453489 
L 502.940048 265.745455 
L 500.890909 266.779592 
L 495.818182 271.030158 
L 490.226944 276.218182 
L 480.6 287.368847 
L 475.527273 292.360198 
L 469.926781 297.163636 
L 465.381818 300.28587 
L 463.207801 302.4 
L 458.243862 307.636364 
L 455.236364 311.500509 
L 453.942267 312.872727 
L 445.090909 322.845949 
L 444.573941 323.345455 
L 440.018182 326.550403 
L 437.879584 328.581818 
L 434.945455 330.976025 
L 432.134028 333.818182 
L 427.309112 339.054545 
L 424.8 341.578295 
L 421.943217 344.290909 
L 419.727273 345.831251 
L 414.654545 350.842089 
L 411.102257 354.763636 
L 409.581818 357.046732 
L 406.906676 360 
L 401.461052 365.236364 
L 399.436364 366.743534 
L 394.363636 371.644277 
L 390.517323 375.709091 
L 389.290909 377.347424 
L 386.116083 380.945455 
L 384.218182 383.599813 
L 381.832253 386.181818 
L 379.145455 389.637944 
L 377.534625 391.418182 
L 373.859536 396.654545 
L 369.948666 401.890909 
L 369 403.639751 
L 365.95164 407.127273 
L 363.927273 408.820211 
L 358.854545 412.634499 
L 353.781818 415.597891 
L 351.490306 417.6 
L 348.709091 419.112343 
L 344.390551 422.836364 
L 343.636364 423.260488 
L 338.435576 428.072727 
L 327.777459 438.545455 
L 323.345455 443.970687 
L 314.090463 454.254545 
L 313.2 455.433038 
L 309.55179 459.490909 
L 308.127273 461.659859 
L 305.52532 464.727273 
L 303.054545 469.399055 
L 302.584444 469.963636 
L 297.981818 476.145938 
L 294.243936 480.436364 
L 292.909091 482.271341 
L 289.863948 485.672727 
L 287.836364 488.142841 
L 285.198434 490.909091 
L 279.821329 496.145455 
L 277.690909 497.991504 
L 274.085879 501.381818 
L 272.618182 502.515751 
L 267.545455 506.789377 
L 262.472727 510.575959 
L 261.152783 511.854545 
L 257.4 515.052252 
L 255.349272 517.090909 
L 252.327273 519.817784 
L 249.783984 522.327273 
L 247.254545 524.456091 
L 244.15351 527.563636 
L 242.181818 530.220163 
L 240.043349 532.8 
L 238.118887 538.036364 
L 238.344733 543.272727 
L 242.181818 548.214391 
L 242.866433 548.509091 
L 247.254545 551.028444 
L 252.327273 551.148544 
L 257.4 549.341346 
L 258.447029 548.509091 
L 262.472727 547.565908 
L 267.545455 545.135602 
L 269.941067 543.272727 
L 272.618182 541.887367 
L 277.690909 537.872772 
L 287.836364 531.270606 
L 292.909091 527.016742 
L 297.981818 522.213272 
L 303.923482 517.090909 
L 313.2 506.557716 
L 318.272727 502.595682 
L 320.961124 501.381818 
L 323.345455 500.09456 
L 325.614762 501.381818 
L 326.0292 506.618182 
L 322.805323 511.854545 
L 318.272727 515.826311 
L 317.253025 517.090909 
L 317.078138 522.327273 
L 318.272727 523.590088 
L 323.345455 525.622516 
L 323.933383 527.563636 
L 324.583364 532.8 
L 326.515262 538.036364 
L 327.469387 543.272727 
L 325.419304 548.509091 
L 323.345455 551.312753 
L 319.799565 553.745455 
L 318.272727 554.394532 
L 311.952238 553.745455 
L 308.127273 553.205145 
L 292.909091 553.290912 
L 282.763636 554.367962 
L 277.690909 554.496932 
L 272.618182 555.69663 
L 267.545455 557.696545 
L 264.63243 558.981818 
L 267.545455 561.581083 
L 270.293028 564.218182 
L 272.618182 564.891787 
L 272.618182 564.891787 
" style="fill:none;stroke:#808080;"/>
   </g>
   <g id="LineCollection_2">
    <path clip-path="url(#pac710ffa92)" d="M 358.854545 559.594965 
L 363.927273 560.849442 
L 369 561.833503 
L 374.072727 562.650466 
L 379.145455 563.166302 
L 389.290909 563.852183 
L 394.363636 564.015561 
L 399.436364 563.997062 
L 404.509091 563.562473 
L 409.581818 562.848513 
L 414.654545 562.548914 
L 419.727273 562.55298 
L 424.8 562.121401 
L 429.872727 561.010637 
L 434.945455 560.203182 
L 440.018182 559.694916 
L 442.627411 558.981818 
L 445.090909 557.042025 
L 448.577778 553.745455 
L 445.090909 552.150641 
L 440.018182 550.443045 
L 434.945455 549.993612 
L 429.872727 549.78747 
L 419.727273 548.274674 
L 414.654545 547.934271 
L 409.581818 547.796206 
L 404.509091 547.250532 
L 399.436364 546.576464 
L 394.363636 546.05929 
L 389.290909 545.746958 
L 384.218182 545.767674 
L 379.145455 545.628771 
L 374.072727 544.92349 
L 363.927273 543.163788 
L 361.077537 538.036364 
L 364.858977 532.8 
L 370.250452 527.563636 
L 375.03335 522.327273 
L 384.218182 511.580734 
L 404.509091 489.944038 
L 408.267277 485.672727 
L 409.581818 483.959106 
L 422.125888 469.963636 
L 427.031619 464.727273 
L 429.872727 461.321233 
L 431.559779 459.490909 
L 440.018182 450.753139 
L 441.519006 449.018182 
L 445.090909 443.69282 
L 449.002529 438.545455 
L 450.163636 436.813771 
L 452.779539 433.309091 
L 456.458754 428.072727 
L 455.236364 424.391352 
L 450.163636 426.740592 
L 445.090909 429.323783 
L 440.018182 430.901968 
L 437.509049 433.309091 
L 434.945455 435.390065 
L 432.809977 438.545455 
L 424.297011 449.018182 
L 419.009172 454.254545 
L 414.654545 457.953217 
L 412.220362 459.490909 
L 409.581818 461.289567 
L 404.509091 465.419896 
L 399.436364 470.487966 
L 394.363636 476.131033 
L 389.290909 480.528372 
L 388.883871 480.436364 
L 387.374345 475.2 
L 389.290909 471.482366 
L 390.401335 469.963636 
L 393.399923 464.727273 
L 394.363636 460.979384 
L 395.398232 459.490909 
L 397.058238 454.254545 
L 398.226009 449.018182 
L 399.436364 445.421998 
L 404.509091 449.54065 
L 404.786056 449.018182 
L 408.403463 443.781818 
L 409.581818 442.478793 
L 410.403719 438.545455 
L 412.215203 433.309091 
L 415.268278 428.072727 
L 417.667742 422.836364 
L 419.727273 417.142549 
L 422.02809 412.363636 
L 426.837825 401.890909 
L 429.872727 396.127118 
L 434.194153 391.418182 
L 434.945455 390.136015 
L 440.018182 390.898807 
L 445.090909 393.36951 
L 446.199623 391.418182 
L 450.163636 387.086176 
L 450.676101 386.181818 
L 453.26743 380.945455 
L 455.431393 375.709091 
L 458.040949 370.472727 
L 460.309091 366.335198 
L 461.297545 365.236364 
L 463.784713 360 
L 465.104147 354.763636 
L 465.381818 352.771512 
L 466.30372 349.527273 
L 468.856835 344.290909 
L 470.454545 342.377285 
L 475.527273 340.532945 
L 480.6 338.849575 
L 483.660527 333.818182 
L 485.68231 328.581818 
L 486.515407 323.345455 
L 490.817404 318.109091 
L 498.842217 302.4 
L 501.312088 297.163636 
L 506.987387 286.690909 
L 510.016289 281.454545 
L 511.036364 278.90665 
L 512.340761 276.218182 
L 513.036862 270.981818 
L 511.036364 267.526887 
L 505.963636 267.841594 
L 500.890909 270.392538 
L 500.188889 270.981818 
L 495.818182 274.156932 
L 490.745455 279.063485 
L 488.57476 281.454545 
L 485.672727 285.415697 
L 479.88608 291.927273 
L 473.919592 297.163636 
L 470.454545 299.417886 
L 466.937551 302.4 
L 465.381818 303.553581 
L 461.416526 307.636364 
L 460.309091 309.003591 
L 452.270047 318.109091 
L 450.163636 320.835307 
L 447.833761 323.345455 
L 441.746809 328.581818 
L 440.018182 329.74763 
L 434.945455 334.38636 
L 425.521049 344.290909 
L 424.8 344.834901 
L 419.006561 349.527273 
L 413.98654 354.763636 
L 409.581818 360.643699 
L 404.509091 365.635023 
L 398.726151 370.472727 
L 393.254543 375.709091 
L 389.290909 380.976939 
L 380.455793 391.418182 
L 379.145455 393.382136 
L 376.428683 396.654545 
L 374.072727 400.510827 
L 373.013779 401.890909 
L 369.992195 407.127273 
L 369 408.556569 
L 363.927273 412.768419 
L 358.854545 415.438898 
L 355.922179 417.6 
L 353.781818 418.61284 
L 348.709091 421.960315 
L 347.693186 422.836364 
L 343.636364 425.117759 
L 340.495218 428.072727 
L 338.563636 429.70777 
L 328.418182 440.024368 
L 325.007212 443.781818 
L 323.345455 446.128709 
L 320.739951 449.018182 
L 318.272727 452.189809 
L 316.381618 454.254545 
L 313.2 458.465293 
L 312.277925 459.490909 
L 304.552069 469.963636 
L 303.054545 472.617236 
L 300.967627 475.2 
L 297.981818 479.592728 
L 297.24683 480.436364 
L 292.909091 486.057655 
L 287.836364 491.74088 
L 282.763636 496.767794 
L 277.690909 501.547496 
L 271.378298 506.618182 
L 267.545455 509.164531 
L 264.508571 511.854545 
L 262.472727 513.473933 
L 247.254545 527.829648 
L 242.950037 532.8 
L 242.181818 535.056124 
L 240.626643 538.036364 
L 241.53995 543.272727 
L 242.181818 544.09937 
L 247.254545 547.444679 
L 252.327273 547.548633 
L 257.4 546.445289 
L 262.472727 543.863295 
L 263.365218 543.272727 
L 267.545455 541.301655 
L 272.618182 537.456851 
L 278.400564 532.8 
L 282.763636 529.849293 
L 287.836364 525.972418 
L 297.981818 516.830245 
L 303.054545 511.764024 
L 308.127273 506.218114 
L 317.778968 496.145455 
L 318.272727 495.562701 
L 323.345455 489.906872 
L 327.104541 485.672727 
L 328.418182 483.925869 
L 331.785638 480.436364 
L 333.490909 478.202289 
L 336.8511 475.2 
L 338.563636 473.047638 
L 343.636364 469.806727 
L 343.817379 469.963636 
L 344.317399 475.2 
L 344.320677 480.436364 
L 343.183511 490.909091 
L 343.879724 501.381818 
L 348.709091 504.633998 
L 352.563453 501.381818 
L 353.781818 500.620456 
L 356.708401 496.145455 
L 358.854545 492.452879 
L 359.960557 490.909091 
L 363.130147 485.672727 
L 363.927273 483.545437 
L 366.209222 480.436364 
L 369 475.0565 
L 369.198207 475.2 
L 371.616551 480.436364 
L 372.61016 485.672727 
L 372.43706 490.909091 
L 370.627246 496.145455 
L 367.879791 501.381818 
L 364.478931 506.618182 
L 358.854545 512.809531 
L 348.709091 522.641625 
L 341.890904 527.563636 
L 338.563636 531.452422 
L 337.801011 532.8 
L 336.035996 538.036364 
L 335.853725 543.272727 
L 336.869675 548.509091 
L 338.563636 551.489754 
L 340.92082 553.745455 
L 343.636364 555.395997 
L 348.709091 556.929237 
L 356.887136 558.981818 
L 358.854545 559.594965 
L 358.854545 559.594965 
" style="fill:none;stroke:#808080;"/>
   </g>
   <g id="LineCollection_3">
    <path clip-path="url(#pac710ffa92)" d="M 379.145455 559.114726 
L 384.218182 559.901311 
L 389.290909 560.556736 
L 394.363636 560.871217 
L 399.436364 560.905426 
L 404.509091 560.352924 
L 409.581818 559.466829 
L 414.654545 559.172476 
L 419.727273 559.217546 
L 421.824541 558.981818 
L 424.8 557.330889 
L 428.455336 553.745455 
L 424.8 552.910838 
L 419.727273 551.96945 
L 414.654545 551.741829 
L 409.581818 551.554111 
L 404.509091 550.703176 
L 399.436364 549.782693 
L 394.363636 549.081451 
L 389.290909 548.634947 
L 384.218182 548.980237 
L 379.145455 549.063931 
L 377.48114 548.509091 
L 374.072727 547.979993 
L 369 547.117179 
L 363.927273 546.535364 
L 358.854545 545.323346 
L 357.660395 543.272727 
L 358.350371 538.036364 
L 358.854545 537.310367 
L 362.460014 532.8 
L 363.927273 531.466607 
L 367.908155 527.563636 
L 369 526.483005 
L 372.870848 522.327273 
L 374.072727 520.906615 
L 377.49262 517.090909 
L 379.145455 515.007325 
L 381.913462 511.854545 
L 384.218182 509.124466 
L 386.568708 506.618182 
L 389.290909 503.688605 
L 391.467181 501.381818 
L 394.363636 498.047084 
L 396.128122 496.145455 
L 399.436364 492.617978 
L 401.084272 490.909091 
L 404.509091 487.046884 
L 405.718166 485.672727 
L 409.581818 480.636114 
L 409.759994 480.436364 
L 413.970835 475.2 
L 414.654545 474.280006 
L 418.236719 469.963636 
L 419.727273 468.264095 
L 423.041483 464.727273 
L 424.8 462.630822 
L 427.249273 459.490909 
L 429.872727 456.232341 
L 431.831225 454.254545 
L 434.945455 451.503863 
L 437.256662 449.018182 
L 440.018182 444.757432 
L 440.601364 443.781818 
L 440.018182 441.506622 
L 434.945455 442.748993 
L 434.062122 443.781818 
L 429.872727 448.565263 
L 429.482852 449.018182 
L 424.8 453.921944 
L 424.473031 454.254545 
L 419.727273 458.510705 
L 418.660696 459.490909 
L 414.654545 463.319744 
L 412.944459 464.727273 
L 409.581818 467.456741 
L 406.76072 469.963636 
L 404.509091 471.774841 
L 400.783353 475.2 
L 399.436364 476.223737 
L 395.22365 480.436364 
L 394.363636 481.267974 
L 389.605668 485.672727 
L 389.290909 485.958363 
L 384.218182 489.355036 
L 382.374679 490.909091 
L 379.145455 493.493039 
L 376.817385 496.145455 
L 374.072727 499.187961 
L 372.390014 501.381818 
L 369 505.019304 
L 367.756564 506.618182 
L 363.927273 510.895001 
L 363.069362 511.854545 
L 358.854545 516.128091 
L 357.87401 517.090909 
L 353.781818 521.621603 
L 353.031526 522.327273 
L 348.709091 526.276629 
L 347.253409 527.563636 
L 343.636364 530.707959 
L 341.664626 532.8 
L 339.337502 538.036364 
L 339.202159 543.272727 
L 341.605554 548.509091 
L 343.636364 550.55097 
L 348.709091 552.302012 
L 353.781818 553.291499 
L 354.83472 553.745455 
L 358.854545 554.992516 
L 363.927273 556.21357 
L 369 557.164157 
L 374.072727 558.151348 
L 378.154235 558.981818 
L 379.145455 559.114726 
" style="fill:none;stroke:#808080;"/>
    <path clip-path="url(#pac710ffa92)" d="M 247.254545 545.477088 
L 252.327273 545.864742 
L 257.4 544.235052 
L 259.131051 543.272727 
L 262.472727 541.86111 
L 268.37559 538.036364 
L 272.618182 534.752359 
L 274.914901 532.8 
L 287.951879 522.327273 
L 297.981818 514.006358 
L 300.138924 511.854545 
L 308.127273 503.417275 
L 313.2 498.072776 
L 315.022915 496.145455 
L 319.564871 490.909091 
L 323.682277 485.672727 
L 328.418182 479.937741 
L 332.590561 475.2 
L 333.490909 473.997941 
L 337.15177 469.963636 
L 338.563636 468.150562 
L 341.798969 464.727273 
L 343.636364 462.195552 
L 346.089015 459.490909 
L 348.709091 455.49309 
L 349.891974 454.254545 
L 353.781818 448.680682 
L 358.854545 444.085299 
L 362.137993 449.018182 
L 362.115874 454.254545 
L 362.348004 459.490909 
L 363.927273 463.526041 
L 367.47519 459.490909 
L 369 458.3685 
L 370.874012 454.254545 
L 374.072727 448.971091 
L 379.145455 444.345782 
L 384.218182 444.398339 
L 389.290909 445.757216 
L 389.96833 443.781818 
L 393.655611 438.545455 
L 394.363636 437.944623 
L 399.436364 430.262882 
L 401.675832 428.072727 
L 405.515587 422.836364 
L 408.021418 417.6 
L 409.581818 414.790307 
L 411.210709 412.363636 
L 414.654545 406.599369 
L 417.887325 401.890909 
L 419.727273 399.731148 
L 421.97168 396.654545 
L 424.8 393.751436 
L 426.502979 391.418182 
L 429.255329 386.181818 
L 429.872727 384.665967 
L 431.764576 380.945455 
L 434.253144 375.709091 
L 434.945455 374.569455 
L 438.392403 370.472727 
L 440.018182 367.532477 
L 441.953678 365.236364 
L 445.090909 360.997694 
L 447.75761 360 
L 455.236364 357.884833 
L 457.268129 354.763636 
L 459.073982 349.527273 
L 460.435561 344.290909 
L 464.190069 339.054545 
L 465.381818 338.032512 
L 469.136632 333.818182 
L 472.419591 328.581818 
L 475.527273 322.380401 
L 478.929403 318.109091 
L 480.6 315.361976 
L 485.672727 311.358035 
L 490.745455 307.410694 
L 495.818182 300.214029 
L 500.890909 291.634077 
L 503.906956 286.690909 
L 506.90757 281.454545 
L 508.664191 276.218182 
L 505.963636 271.783864 
L 500.890909 273.412566 
L 495.818182 277.128508 
L 490.745455 282.14966 
L 487.232187 286.690909 
L 485.672727 288.98102 
L 483.067675 291.927273 
L 480.6 294.447996 
L 477.529654 297.163636 
L 475.527273 298.550298 
L 469.824405 302.4 
L 465.381818 305.694194 
L 463.495538 307.636364 
L 459.173039 312.872727 
L 454.746491 318.109091 
L 450.163636 323.952791 
L 444.810506 328.581818 
L 440.018182 331.813832 
L 434.945455 336.343792 
L 432.395199 339.054545 
L 429.872727 342.038589 
L 427.660641 344.290909 
L 424.8 346.449107 
L 421.18102 349.527273 
L 419.727273 350.605271 
L 415.701438 354.763636 
L 414.654545 356.160421 
L 411.531024 360 
L 409.581818 362.667167 
L 407.02806 365.236364 
L 404.509091 367.214471 
L 399.436364 371.550838 
L 394.363636 376.60696 
L 390.615788 380.945455 
L 389.290909 382.943235 
L 386.573702 386.181818 
L 384.218182 389.368563 
L 382.417082 391.418182 
L 375.374803 401.890909 
L 374.072727 404.680065 
L 372.584206 407.127273 
L 368.914426 412.363636 
L 363.927273 415.617057 
L 360.111853 417.6 
L 358.854545 418.068411 
L 353.781818 420.41352 
L 350.432588 422.836364 
L 348.709091 423.60356 
L 343.636364 426.975029 
L 342.469505 428.072727 
L 338.563636 431.378961 
L 336.659376 433.309091 
L 333.490909 436.277092 
L 331.265153 438.545455 
L 326.535237 443.781818 
L 323.345455 448.286732 
L 322.685889 449.018182 
L 318.272727 454.473163 
L 313.2 460.488166 
L 309.697401 464.727273 
L 308.127273 467.426866 
L 306.188359 469.963636 
L 303.054545 475.394725 
L 292.909091 488.244474 
L 287.836364 493.898092 
L 285.591528 496.145455 
L 277.690909 503.482384 
L 274.075388 506.618182 
L 262.472727 515.606839 
L 260.910543 517.090909 
L 257.4 520.123163 
L 255.134357 522.327273 
L 252.327273 524.77137 
L 249.359209 527.563636 
L 247.254545 529.719129 
L 244.586397 532.8 
L 242.738311 538.036364 
L 244.293723 543.272727 
L 247.254545 545.477088 
L 247.254545 545.477088 
" style="fill:none;stroke:#808080;"/>
   </g>
   <g id="LineCollection_4">
    <path clip-path="url(#pac710ffa92)" d="M 389.290909 554.984945 
L 394.363636 555.476048 
L 399.436364 554.960157 
L 401.647997 553.745455 
L 399.436364 553.339574 
L 394.363636 552.977802 
L 389.290909 553.033319 
L 385.881179 553.745455 
L 389.290909 554.984945 
" style="fill:none;stroke:#808080;"/>
    <path clip-path="url(#pac710ffa92)" d="M 348.709091 548.683569 
L 349.573744 548.509091 
L 353.781818 545.881764 
L 354.51485 543.272727 
L 356.552399 538.036364 
L 358.854545 534.721342 
L 360.390416 532.8 
L 363.927273 529.585828 
L 365.989832 527.563636 
L 369 524.584383 
L 371.102381 522.327273 
L 374.072727 518.816233 
L 375.619079 517.090909 
L 379.145455 512.645516 
L 379.839894 511.854545 
L 384.218182 506.668198 
L 384.26509 506.618182 
L 389.060755 501.381818 
L 389.290909 501.101784 
L 393.385742 496.145455 
L 394.363636 494.851604 
L 397.985672 490.909091 
L 399.436364 489.41117 
L 402.631886 485.672727 
L 404.509091 482.829337 
L 406.132648 480.436364 
L 404.509091 476.851471 
L 399.436364 479.780208 
L 398.780194 480.436364 
L 394.363636 484.707059 
L 393.320531 485.672727 
L 389.290909 489.329509 
L 387.290662 490.909091 
L 384.218182 493.243587 
L 380.954845 496.145455 
L 379.145455 497.869912 
L 375.905773 501.381818 
L 374.072727 503.053625 
L 370.711626 506.618182 
L 369 508.121644 
L 365.569814 511.854545 
L 363.927273 513.40958 
L 360.320324 517.090909 
L 358.854545 518.689487 
L 355.477891 522.327273 
L 353.781818 524.349192 
L 350.401665 527.563636 
L 348.709091 528.952421 
L 344.590656 532.8 
L 343.636364 534.074362 
L 341.215401 538.036364 
L 341.297628 543.272727 
L 343.636364 546.879342 
L 348.266417 548.509091 
L 348.709091 548.683569 
" style="fill:none;stroke:#808080;"/>
    <path clip-path="url(#pac710ffa92)" d="M 247.254545 543.509497 
L 252.327273 544.18085 
L 254.805494 543.272727 
L 257.4 542.525498 
L 262.472727 540.181612 
L 267.545455 536.622476 
L 277.690909 528.06061 
L 287.836364 520.040978 
L 291.197177 517.090909 
L 292.909091 515.824121 
L 297.981818 511.363285 
L 303.054545 506.032324 
L 313.2 495.504581 
L 318.272727 489.788414 
L 326.312141 480.436364 
L 328.418182 477.799772 
L 330.707719 475.2 
L 333.490909 471.484152 
L 334.870675 469.963636 
L 339.030494 464.727273 
L 343.636364 459.055345 
L 347.731789 454.254545 
L 348.709091 452.792064 
L 351.935097 449.018182 
L 353.781818 446.095649 
L 356.208926 443.781818 
L 358.854545 439.216803 
L 359.72817 438.545455 
L 363.345064 433.309091 
L 363.927273 431.743363 
L 369 427.901815 
L 369.116028 428.072727 
L 371.387824 433.309091 
L 374.072727 438.0715 
L 379.145455 435.314317 
L 384.218182 431.870028 
L 390.084996 428.072727 
L 394.363636 423.483104 
L 394.814434 422.836364 
L 399.436364 419.021517 
L 400.454804 417.6 
L 404.509091 413.467319 
L 405.241565 412.363636 
L 408.310697 407.127273 
L 409.581818 404.702982 
L 414.358011 396.654545 
L 414.654545 396.246877 
L 419.727273 391.098754 
L 424.8 385.056933 
L 429.515405 375.709091 
L 429.872727 375.129197 
L 440.344885 360 
L 445.090909 354.277466 
L 449.785284 349.527273 
L 450.163636 348.689508 
L 453.077475 344.290909 
L 455.236364 341.483345 
L 457.353155 339.054545 
L 460.309091 337.322862 
L 465.381818 333.012216 
L 468.693484 328.581818 
L 472.055165 323.345455 
L 475.527273 317.520567 
L 478.834894 312.872727 
L 480.6 309.883329 
L 483.291007 307.636364 
L 485.672727 305.159817 
L 490.745455 301.047155 
L 493.53243 297.163636 
L 495.818182 294.87372 
L 501.15556 286.690909 
L 503.506715 281.454545 
L 500.890909 276.448027 
L 495.818182 279.799857 
L 494.119792 281.454545 
L 490.745455 285.163288 
L 489.563634 286.690909 
L 485.672727 292.798301 
L 480.6 297.824095 
L 473.345411 302.4 
L 470.454545 303.908676 
L 465.381818 307.830262 
L 456.790224 318.109091 
L 455.236364 320.161245 
L 452.671279 323.345455 
L 450.163636 326.753711 
L 448.042855 328.581818 
L 445.090909 330.406184 
L 440.018182 333.871 
L 434.236735 339.054545 
L 429.800232 344.290909 
L 424.8 348.063312 
L 423.078831 349.527273 
L 419.727273 352.012557 
L 417.063872 354.763636 
L 409.581818 364.690634 
L 409.039368 365.236364 
L 404.509091 368.793919 
L 402.606653 370.472727 
L 399.436364 372.948681 
L 396.630024 375.709091 
L 394.363636 378.116464 
L 391.919787 380.945455 
L 389.290909 384.909531 
L 388.223446 386.181818 
L 380.543444 396.654545 
L 379.145455 399.260078 
L 377.364175 401.890909 
L 374.072727 409.787829 
L 372.571325 412.363636 
L 369 416.778737 
L 363.927273 419.050979 
L 358.854545 420.110407 
L 353.781818 422.214201 
L 352.921768 422.836364 
L 348.709091 424.711591 
L 343.636364 428.427678 
L 333.490909 437.821567 
L 332.780619 438.545455 
L 328.063263 443.781818 
L 323.345455 449.737414 
L 319.3914 454.254545 
L 318.272727 455.725237 
L 315.005336 459.490909 
L 313.2 461.995131 
L 310.942544 464.727273 
L 307.824648 469.963636 
L 303.054545 477.177338 
L 300.466521 480.436364 
L 297.981818 483.886321 
L 296.487289 485.672727 
L 292.483474 490.909091 
L 287.746314 496.145455 
L 276.306281 506.618182 
L 267.545455 513.224422 
L 257.4 522.062444 
L 257.127778 522.327273 
L 251.204133 527.563636 
L 246.222757 532.8 
L 244.203328 538.036364 
L 246.936524 543.272727 
L 247.254545 543.509497 
L 247.254545 543.509497 
" style="fill:none;stroke:#808080;"/>
    <path clip-path="url(#pac710ffa92)" d="M 409.581818 475.321267 
L 409.677485 475.2 
L 409.581818 474.964179 
L 409.081875 475.2 
L 409.581818 475.321267 
" style="fill:none;stroke:#808080;"/>
   </g>
   <g id="LineCollection_5">
    <path clip-path="url(#pac710ffa92)" d="M 343.636364 543.647873 
L 348.709091 545.870927 
L 351.499044 543.272727 
L 353.781818 540.202109 
L 354.754427 538.036364 
L 358.086605 532.8 
L 358.854545 531.987393 
L 363.927273 527.70505 
L 364.071509 527.563636 
L 369 522.685762 
L 369.333914 522.327273 
L 373.597584 517.090909 
L 374.072727 516.433081 
L 377.351404 511.854545 
L 379.145455 509.174157 
L 381.138971 506.618182 
L 384.218182 503.061158 
L 385.749606 501.381818 
L 384.218182 497.116905 
L 379.145455 501.346298 
L 379.112688 501.381818 
L 374.072727 505.978451 
L 373.469511 506.618182 
L 369 510.544122 
L 367.795844 511.854545 
L 363.927273 515.517019 
L 362.385183 517.090909 
L 358.854545 520.941422 
L 357.568175 522.327273 
L 353.781818 526.841058 
L 353.021989 527.563636 
L 348.709091 531.102442 
L 346.89203 532.8 
L 343.636364 537.147619 
L 343.0933 538.036364 
L 343.393098 543.272727 
L 343.636364 543.647873 
" style="fill:none;stroke:#808080;"/>
    <path clip-path="url(#pac710ffa92)" d="M 247.254545 540.925455 
L 252.327273 542.61507 
L 257.4 541.202044 
L 262.472727 538.502115 
L 263.162403 538.036364 
L 267.545455 534.767969 
L 269.846619 532.8 
L 272.618182 530.236432 
L 275.78254 527.563636 
L 277.690909 525.843496 
L 282.097838 522.327273 
L 282.763636 521.751267 
L 287.836364 517.684766 
L 288.512905 517.090909 
L 292.909091 513.837803 
L 295.173796 511.854545 
L 297.981818 509.299131 
L 300.519617 506.618182 
L 303.054545 504.062016 
L 305.674722 501.381818 
L 308.127273 499.025777 
L 310.854641 496.145455 
L 313.2 493.611742 
L 315.616598 490.909091 
L 318.272727 487.820081 
L 320.122031 485.672727 
L 323.345455 481.899235 
L 324.604387 480.436364 
L 328.418182 475.661804 
L 328.824878 475.2 
L 333.040333 469.963636 
L 333.490909 469.428909 
L 337.584142 464.727273 
L 338.563636 463.590588 
L 342.109647 459.490909 
L 343.636364 457.558476 
L 346.454853 454.254545 
L 348.709091 450.881195 
L 350.30164 449.018182 
L 353.687679 443.781818 
L 353.781818 443.61371 
L 357.773597 438.545455 
L 358.854545 435.811101 
L 360.827582 433.309091 
L 362.82081 428.072727 
L 361.988692 422.836364 
L 358.854545 422.152403 
L 357.137302 422.836364 
L 353.781818 423.708742 
L 348.709091 425.819623 
L 345.712626 428.072727 
L 343.636364 429.295587 
L 339.347406 433.309091 
L 338.563636 433.983821 
L 333.922518 438.545455 
L 333.490909 438.948831 
L 328.964125 443.781818 
L 328.418182 444.505339 
L 324.6519 449.018182 
L 323.345455 450.825421 
L 320.343783 454.254545 
L 318.272727 456.977311 
L 316.091734 459.490909 
L 313.2 463.502097 
L 312.187687 464.727273 
L 308.872352 469.963636 
L 308.127273 471.320127 
L 305.464101 475.2 
L 303.054545 478.959952 
L 301.882112 480.436364 
L 298.098857 485.672727 
L 297.981818 485.840779 
L 294.032199 490.909091 
L 292.909091 492.324623 
L 289.420863 496.145455 
L 287.836364 497.765401 
L 283.992718 501.381818 
L 282.763636 502.61185 
L 278.428948 506.618182 
L 277.690909 507.358564 
L 272.618182 511.146852 
L 271.696544 511.854545 
L 267.545455 514.803647 
L 264.87627 517.090909 
L 262.472727 519.05899 
L 258.845898 522.327273 
L 257.4 523.56841 
L 252.953198 527.563636 
L 252.327273 528.142595 
L 247.787487 532.8 
L 247.254545 534.132228 
L 245.668346 538.036364 
L 247.254545 540.925455 
" style="fill:none;stroke:#808080;"/>
    <path clip-path="url(#pac710ffa92)" d="M 389.290909 497.073023 
L 390.05725 496.145455 
L 389.290909 494.562629 
L 385.810634 496.145455 
L 389.290909 497.073023 
" style="fill:none;stroke:#808080;"/>
    <path clip-path="url(#pac710ffa92)" d="M 379.145455 425.908293 
L 384.218182 423.631124 
L 384.890413 422.836364 
L 387.646475 417.6 
L 389.290909 415.936982 
L 392.936804 412.363636 
L 394.363636 411.405397 
L 399.436364 409.540134 
L 402.32144 407.127273 
L 404.509091 404.921671 
L 406.045796 401.890909 
L 409.516094 396.654545 
L 409.581818 396.583008 
L 413.546989 391.418182 
L 414.654545 390.109448 
L 418.268464 386.181818 
L 419.727273 384.623442 
L 422.770616 380.945455 
L 424.8 378.050916 
L 426.203129 375.709091 
L 429.531747 370.472727 
L 429.872727 370.030939 
L 433.602908 365.236364 
L 434.945455 363.349531 
L 437.470093 360 
L 440.018182 356.431622 
L 441.462545 354.763636 
L 445.013074 349.527273 
L 445.090909 349.397419 
L 448.51322 344.290909 
L 450.163636 340.814226 
L 451.626061 339.054545 
L 455.236364 334.938473 
L 457.458928 333.818182 
L 460.309091 332.841781 
L 465.381818 328.950844 
L 465.65766 328.581818 
L 469.276035 323.345455 
L 470.454545 321.855956 
L 472.974452 318.109091 
L 475.527273 313.523718 
L 475.990549 312.872727 
L 478.539795 307.636364 
L 475.527273 304.203847 
L 470.454545 305.838618 
L 468.120169 307.636364 
L 465.381818 309.921854 
L 462.916872 312.872727 
L 460.309091 316.257299 
L 458.727253 318.109091 
L 455.236364 322.719443 
L 454.732072 323.345455 
L 451.638169 328.581818 
L 450.163636 330.295238 
L 445.090909 332.414346 
L 443.039916 333.818182 
L 440.018182 335.635447 
L 436.16777 339.054545 
L 434.945455 340.267947 
L 431.503298 344.290909 
L 429.872727 345.905935 
L 425.008974 349.527273 
L 424.8 349.642251 
L 419.727273 353.419842 
L 418.426306 354.763636 
L 414.654545 359.795995 
L 414.488587 360 
L 410.582628 365.236364 
L 409.581818 366.309443 
L 404.509091 370.373367 
L 404.396495 370.472727 
L 399.436364 374.346524 
L 398.051125 375.709091 
L 394.363636 379.625968 
L 393.223786 380.945455 
L 389.691766 386.181818 
L 389.290909 386.796019 
L 385.686164 391.418182 
L 384.218182 393.765803 
L 382.119909 396.654545 
L 379.370821 401.890909 
L 379.145455 402.679421 
L 377.660603 407.127273 
L 376.752768 412.363636 
L 375.694419 417.6 
L 376.866149 422.836364 
L 379.145455 425.908293 
" style="fill:none;stroke:#808080;"/>
    <path clip-path="url(#pac710ffa92)" d="M 490.745455 292.970389 
L 491.833442 291.927273 
L 490.745455 291.078521 
L 490.353617 291.927273 
L 490.745455 292.970389 
" style="fill:none;stroke:#808080;"/>
    <path clip-path="url(#pac710ffa92)" d="M 495.818182 289.484482 
L 497.37315 286.690909 
L 495.818182 284.009172 
L 493.547727 286.690909 
L 495.818182 289.484482 
" style="fill:none;stroke:#808080;"/>
   </g>
   <g id="LineCollection_6">
    <path clip-path="url(#pac710ffa92)" d="M 247.254545 538.257084 
L 252.327273 541.187553 
L 257.4 539.87859 
L 260.739131 538.036364 
L 262.472727 536.864709 
L 267.545455 532.913461 
L 267.678125 532.8 
L 272.618182 528.230675 
L 273.407897 527.563636 
L 277.690909 523.703072 
L 279.415217 522.327273 
L 282.763636 519.430435 
L 285.675676 517.090909 
L 287.836364 515.537401 
L 292.904687 511.854545 
L 292.909091 511.851255 
L 297.981818 507.234977 
L 298.565679 506.618182 
L 303.054545 502.091708 
L 303.748538 501.381818 
L 308.127273 497.175388 
L 309.102514 496.145455 
L 313.2 491.718902 
L 313.9241 490.909091 
L 318.272727 485.851749 
L 318.426901 485.672727 
L 323.003897 480.436364 
L 323.345455 480.079116 
L 327.508815 475.2 
L 328.418182 474.130176 
L 331.900008 469.963636 
L 333.490909 468.075615 
L 336.405967 464.727273 
L 338.563636 462.223339 
L 340.927047 459.490909 
L 343.636364 456.061608 
L 345.177918 454.254545 
L 348.690722 449.018182 
L 348.709091 448.989507 
L 352.790368 443.781818 
L 353.781818 442.011341 
L 356.511565 438.545455 
L 358.601343 433.309091 
L 358.854545 431.988316 
L 360.404044 428.072727 
L 358.854545 425.502467 
L 353.781818 425.041667 
L 348.709091 426.927654 
L 347.186227 428.072727 
L 343.636364 430.163495 
L 340.274881 433.309091 
L 338.563636 434.782264 
L 334.734873 438.545455 
L 333.490909 439.708049 
L 329.675241 443.781818 
L 328.418182 445.447759 
L 325.438415 449.018182 
L 323.345455 451.913428 
L 321.296166 454.254545 
L 318.272727 458.229386 
L 317.178131 459.490909 
L 313.359029 464.727273 
L 313.2 464.976988 
L 309.786498 469.963636 
L 308.127273 472.984422 
L 306.606485 475.2 
L 303.263962 480.436364 
L 303.054545 480.733185 
L 299.383207 485.672727 
L 297.981818 487.684922 
L 295.469297 490.909091 
L 292.909091 494.1359 
L 291.074469 496.145455 
L 287.836364 499.455999 
L 285.789541 501.381818 
L 282.763636 504.410061 
L 280.37454 506.618182 
L 277.690909 509.310335 
L 274.190241 511.854545 
L 272.618182 513.007745 
L 267.545455 516.382873 
L 266.719192 517.090909 
L 262.472727 520.568021 
L 260.520476 522.327273 
L 257.4 525.005843 
L 254.553103 527.563636 
L 252.327273 529.62245 
L 249.229969 532.8 
L 247.254545 537.738096 
L 247.133363 538.036364 
L 247.254545 538.257084 
" style="fill:none;stroke:#808080;"/>
    <path clip-path="url(#pac710ffa92)" d="M 348.709091 542.996422 
L 352.311222 538.036364 
L 353.781818 535.379352 
L 355.108822 532.8 
L 353.781818 530.780802 
L 350.336229 532.8 
L 348.709091 533.625529 
L 345.601107 538.036364 
L 348.709091 542.996422 
" style="fill:none;stroke:#808080;"/>
    <path clip-path="url(#pac710ffa92)" d="M 358.854545 528.836409 
L 360.396623 527.563636 
L 363.927273 524.945622 
L 366.629811 522.327273 
L 369 519.497403 
L 370.876836 517.090909 
L 369 513.946833 
L 365.289188 517.090909 
L 363.927273 518.216202 
L 360.344359 522.327273 
L 358.854545 524.881261 
L 357.015133 527.563636 
L 358.854545 528.836409 
" style="fill:none;stroke:#808080;"/>
    <path clip-path="url(#pac710ffa92)" d="M 374.072727 512.666253 
L 374.653989 511.854545 
L 374.072727 510.722507 
L 372.452208 511.854545 
L 374.072727 512.666253 
" style="fill:none;stroke:#808080;"/>
    <path clip-path="url(#pac710ffa92)" d="M 384.218182 412.025109 
L 389.290909 410.331316 
L 393.668498 407.127273 
L 394.363636 406.746035 
L 399.436364 403.023619 
L 400.548685 401.890909 
L 404.509091 396.921683 
L 404.689869 396.654545 
L 409.526642 391.418182 
L 409.581818 391.361308 
L 414.131727 386.181818 
L 414.654545 385.631906 
L 419.091242 380.945455 
L 419.727273 380.25277 
L 423.327284 375.709091 
L 424.8 373.602125 
L 426.982429 370.472727 
L 429.872727 366.727935 
L 431.03317 365.236364 
L 434.802088 360 
L 434.945455 359.752751 
L 438.610173 354.763636 
L 440.018182 352.874356 
L 442.511182 349.527273 
L 445.090909 345.223469 
L 445.715898 344.290909 
L 447.935133 339.054545 
L 445.090909 335.135633 
L 440.018182 337.399893 
L 438.154798 339.054545 
L 434.945455 342.240483 
L 433.191054 344.290909 
L 429.872727 347.577602 
L 427.25416 349.527273 
L 424.8 350.877563 
L 419.798996 354.763636 
L 419.727273 354.829671 
L 415.673357 360 
L 414.654545 361.62594 
L 411.953038 365.236364 
L 409.581818 367.778813 
L 406.224902 370.472727 
L 404.509091 371.670522 
L 399.476559 375.709091 
L 399.436364 375.74101 
L 394.514215 380.945455 
L 394.363636 381.148933 
L 390.827491 386.181818 
L 389.290909 388.536199 
L 387.0433 391.418182 
L 384.218182 395.93616 
L 383.696373 396.654545 
L 381.525335 401.890909 
L 380.942245 407.127273 
L 384.218182 412.025109 
" style="fill:none;stroke:#808080;"/>
    <path clip-path="url(#pac710ffa92)" d="M 460.309091 329.047105 
L 460.911945 328.581818 
L 465.381818 325.173407 
L 466.658208 323.345455 
L 470.454545 318.547334 
L 470.74928 318.109091 
L 473.298143 312.872727 
L 470.454545 307.951996 
L 465.381818 312.013446 
L 464.664037 312.872727 
L 460.943156 318.109091 
L 460.309091 319.019667 
L 457.592103 323.345455 
L 458.047922 328.581818 
L 460.309091 329.047105 
" style="fill:none;stroke:#808080;"/>
   </g>
   <g id="LineCollection_7">
    <path clip-path="url(#pac710ffa92)" d="M 252.327273 539.760036 
L 257.4 538.555137 
L 258.340303 538.036364 
L 262.472727 535.243455 
L 265.598417 532.8 
L 267.545455 530.763662 
L 271.038098 527.563636 
L 272.618182 525.839564 
L 276.635466 522.327273 
L 277.690909 520.999649 
L 282.763636 517.109603 
L 282.786906 517.090909 
L 287.836364 513.460409 
L 290.046344 511.854545 
L 292.909091 509.715617 
L 296.328617 506.618182 
L 297.981818 505.006748 
L 301.590852 501.381818 
L 303.054545 500.115789 
L 307.209052 496.145455 
L 308.127273 495.345173 
L 312.242084 490.909091 
L 313.2 489.924039 
L 316.907789 485.672727 
L 318.272727 484.331657 
L 321.704281 480.436364 
L 323.345455 478.7198 
L 326.348907 475.2 
L 328.418182 472.765602 
L 330.759683 469.963636 
L 333.490909 466.722321 
L 335.227793 464.727273 
L 338.563636 460.85609 
L 339.744447 459.490909 
L 343.636364 454.56474 
L 343.900982 454.254545 
L 347.957257 449.018182 
L 348.709091 447.844543 
L 351.893057 443.781818 
L 353.781818 440.408972 
L 355.249532 438.545455 
L 357.430552 433.309091 
L 357.7397 428.072727 
L 353.781818 426.374591 
L 348.709091 428.035685 
L 348.659828 428.072727 
L 343.636364 431.031404 
L 341.202356 433.309091 
L 338.563636 435.580707 
L 335.547229 438.545455 
L 333.490909 440.467266 
L 330.386357 443.781818 
L 328.418182 446.390179 
L 326.22493 449.018182 
L 323.345455 453.001435 
L 322.248549 454.254545 
L 318.272727 459.48146 
L 318.264528 459.490909 
L 314.20949 464.727273 
L 313.2 466.312428 
L 310.700645 469.963636 
L 308.127273 474.648717 
L 307.748868 475.2 
L 304.483121 480.436364 
L 303.054545 482.461192 
L 300.667556 485.672727 
L 297.981818 489.529066 
L 296.906396 490.909091 
L 292.909091 495.947178 
L 292.728074 496.145455 
L 287.836364 501.146597 
L 287.586363 501.381818 
L 282.763636 506.208273 
L 282.320131 506.618182 
L 277.690909 511.262105 
L 276.87575 511.854545 
L 272.618182 514.977727 
L 269.268239 517.090909 
L 267.545455 518.319062 
L 262.472727 522.077051 
L 262.195055 522.327273 
L 257.4 526.443277 
L 256.153007 527.563636 
L 252.327273 531.102305 
L 250.672451 532.8 
L 249.444514 538.036364 
L 252.327273 539.760036 
" style="fill:none;stroke:#808080;"/>
    <path clip-path="url(#pac710ffa92)" d="M 348.709091 538.585204 
L 349.107674 538.036364 
L 348.709091 537.548296 
L 348.365186 538.036364 
L 348.709091 538.585204 
" style="fill:none;stroke:#808080;"/>
    <path clip-path="url(#pac710ffa92)" d="M 384.218182 404.495058 
L 389.290909 406.410915 
L 394.363636 403.695413 
L 396.513349 401.890909 
L 399.436364 398.888248 
L 401.38089 396.654545 
L 404.509091 393.272686 
L 406.242534 391.418182 
L 409.581818 387.976151 
L 411.158045 386.181818 
L 414.654545 382.50412 
L 416.130145 380.945455 
L 419.727273 377.027915 
L 420.772193 375.709091 
L 424.475104 370.472727 
L 424.8 370.129848 
L 428.803704 365.236364 
L 429.872727 363.830626 
L 432.825949 360 
L 434.945455 356.344712 
L 436.106822 354.763636 
L 440.001243 349.527273 
L 440.018182 349.509328 
L 442.914415 344.290909 
L 440.018182 339.351948 
L 434.945455 344.213019 
L 434.87881 344.290909 
L 429.872727 349.249269 
L 429.499345 349.527273 
L 424.8 352.112874 
L 421.388723 354.763636 
L 419.727273 356.293314 
L 416.82096 360 
L 414.654545 363.457421 
L 413.323448 365.236364 
L 409.581818 369.248182 
L 408.055899 370.472727 
L 404.509091 372.948726 
L 401.069352 375.709091 
L 399.436364 377.005819 
L 395.71042 380.945455 
L 394.363636 382.765374 
L 391.963215 386.181818 
L 389.290909 390.276379 
L 388.400437 391.418182 
L 385.446708 396.654545 
L 384.218182 400.467005 
L 383.679848 401.890909 
L 384.218182 404.495058 
" style="fill:none;stroke:#808080;"/>
    <path clip-path="url(#pac710ffa92)" d="M 465.381818 319.974844 
L 466.631701 318.109091 
L 465.381818 316.4074 
L 464.401015 318.109091 
L 465.381818 319.974844 
" style="fill:none;stroke:#808080;"/>
    <path clip-path="url(#pac710ffa92)" d="M 470.454545 313.252708 
L 470.635299 312.872727 
L 470.454545 312.559941 
L 469.930484 312.872727 
L 470.454545 313.252708 
" style="fill:none;stroke:#808080;"/>
   </g>
   <g id="LineCollection_8">
    <path clip-path="url(#pac710ffa92)" d="M 252.327273 538.332519 
L 253.617803 538.036364 
L 257.4 536.573014 
L 262.472727 533.622201 
L 263.524495 532.8 
L 267.545455 528.594619 
L 268.670713 527.563636 
L 272.618182 523.256446 
L 273.68095 522.327273 
L 277.690909 517.283214 
L 277.942407 517.090909 
L 277.690909 516.728771 
L 272.618182 516.947709 
L 272.391172 517.090909 
L 267.545455 520.545364 
L 265.06153 522.327273 
L 262.472727 524.301871 
L 258.099988 527.563636 
L 257.4 528.209547 
L 252.327273 532.58216 
L 252.114934 532.8 
L 251.831967 538.036364 
L 252.327273 538.332519 
" style="fill:none;stroke:#808080;"/>
    <path clip-path="url(#pac710ffa92)" d="M 282.763636 512.955826 
L 285.492929 511.854545 
L 287.836364 510.73937 
L 292.909091 507.579978 
L 293.970901 506.618182 
L 297.981818 502.708599 
L 299.302781 501.381818 
L 303.054545 498.136711 
L 305.13817 496.145455 
L 308.127273 493.540282 
L 310.567908 490.909091 
L 313.2 488.202434 
L 315.406289 485.672727 
L 318.272727 482.856411 
L 320.404665 480.436364 
L 323.345455 477.360483 
L 325.189 475.2 
L 328.418182 471.401029 
L 329.619359 469.963636 
L 333.490909 465.369027 
L 334.049618 464.727273 
L 338.56233 459.490909 
L 338.563636 459.489596 
L 343.046815 454.254545 
L 343.636364 453.524187 
L 347.223792 449.018182 
L 348.709091 446.699578 
L 350.995746 443.781818 
L 353.781818 438.806603 
L 353.9875 438.545455 
L 356.259761 433.309091 
L 354.633025 428.072727 
L 353.781818 427.707516 
L 352.661447 428.072727 
L 348.709091 428.946496 
L 343.636364 431.899313 
L 342.12983 433.309091 
L 338.563636 436.379149 
L 336.359584 438.545455 
L 333.490909 441.226484 
L 331.097473 443.781818 
L 328.418182 447.3326 
L 327.011446 449.018182 
L 323.345455 454.089442 
L 323.200931 454.254545 
L 319.065645 459.490909 
L 318.272727 460.580362 
L 315.059951 464.727273 
L 313.2 467.647868 
L 311.614791 469.963636 
L 308.856768 475.2 
L 308.127273 476.517566 
L 305.702281 480.436364 
L 303.054545 484.189199 
L 301.951906 485.672727 
L 298.51833 490.909091 
L 297.981818 491.780965 
L 295.009861 496.145455 
L 292.909091 498.704079 
L 290.272106 501.381818 
L 287.836364 504.034819 
L 285.195695 506.618182 
L 282.763636 510.519561 
L 281.368612 511.854545 
L 282.763636 512.955826 
" style="fill:none;stroke:#808080;"/>
    <path clip-path="url(#pac710ffa92)" d="M 389.290909 403.047851 
L 391.609985 401.890909 
L 394.363636 400.730839 
L 398.32718 396.654545 
L 399.436364 395.611654 
L 403.361579 391.418182 
L 404.509091 390.317584 
L 408.519597 386.181818 
L 409.581818 384.86236 
L 413.312842 380.945455 
L 414.654545 379.403085 
L 418.054684 375.709091 
L 419.727273 373.882266 
L 422.217574 370.472727 
L 424.8 367.747364 
L 426.854426 365.236364 
L 429.872727 361.267376 
L 430.849811 360 
L 433.365508 354.763636 
L 429.872727 351.689722 
L 424.8 353.348186 
L 422.978451 354.763636 
L 419.727273 357.756956 
L 417.968563 360 
L 414.716423 365.236364 
L 414.654545 365.33158 
L 410.074504 370.472727 
L 409.581818 370.872619 
L 404.509091 374.226931 
L 402.662145 375.709091 
L 399.436364 378.270629 
L 396.906624 380.945455 
L 394.363636 384.381816 
L 393.09894 386.181818 
L 389.964708 391.418182 
L 389.290909 392.670981 
L 387.283068 396.654545 
L 387.695982 401.890909 
L 389.290909 403.047851 
" style="fill:none;stroke:#808080;"/>
    <path clip-path="url(#pac710ffa92)" d="M 434.945455 350.059486 
L 435.234554 349.527273 
L 434.945455 349.216269 
L 434.601449 349.527273 
L 434.945455 350.059486 
" style="fill:none;stroke:#808080;"/>
    <path clip-path="url(#pac710ffa92)" d="M 440.018182 344.459473 
L 440.111735 344.290909 
L 440.018182 344.131372 
L 439.847814 344.290909 
L 440.018182 344.459473 
" style="fill:none;stroke:#808080;"/>
   </g>
   <g id="LineCollection_9">
    <path clip-path="url(#pac710ffa92)" d="M 257.4 534.166252 
L 260.115282 532.8 
L 257.4 531.137744 
L 255.372749 532.8 
L 257.4 534.166252 
" style="fill:none;stroke:#808080;"/>
    <path clip-path="url(#pac710ffa92)" d="M 262.472727 529.836348 
L 264.596798 527.563636 
L 262.472727 526.668975 
L 261.273339 527.563636 
L 262.472727 529.836348 
" style="fill:none;stroke:#808080;"/>
    <path clip-path="url(#pac710ffa92)" d="M 297.981818 498.138966 
L 303.054545 496.157633 
L 303.067288 496.145455 
L 308.127273 491.735392 
L 308.893731 490.909091 
L 313.2 486.48083 
L 313.904788 485.672727 
L 318.272727 481.381165 
L 319.105049 480.436364 
L 323.345455 476.001166 
L 324.029092 475.2 
L 328.418182 470.036455 
L 328.479034 469.963636 
L 332.971894 464.727273 
L 333.490909 464.217049 
L 337.698415 459.490909 
L 338.563636 458.621221 
L 342.303158 454.254545 
L 343.636364 452.602915 
L 346.490327 449.018182 
L 348.709091 445.554614 
L 350.098435 443.781818 
L 353.083589 438.545455 
L 353.781818 436.301801 
L 355.08897 433.309091 
L 353.781818 430.136058 
L 348.709091 429.850485 
L 343.636364 432.767222 
L 343.057305 433.309091 
L 338.563636 437.177592 
L 337.171939 438.545455 
L 333.490909 441.985702 
L 331.808589 443.781818 
L 328.418182 448.27502 
L 327.797961 449.018182 
L 323.96015 454.254545 
L 323.345455 455.107898 
L 319.864593 459.490909 
L 318.272727 461.6781 
L 315.910412 464.727273 
L 313.2 468.983308 
L 312.528938 469.963636 
L 309.947589 475.2 
L 308.127273 478.487733 
L 306.92144 480.436364 
L 303.406104 485.672727 
L 303.054545 486.256359 
L 300.650126 490.909091 
L 297.981818 495.2453 
L 297.368866 496.145455 
L 297.981818 498.138966 
" style="fill:none;stroke:#808080;"/>
    <path clip-path="url(#pac710ffa92)" d="M 389.290909 397.307065 
L 394.363636 397.890869 
L 395.565764 396.654545 
L 399.436364 393.01528 
L 400.931295 391.418182 
L 404.509091 387.986659 
L 406.259269 386.181818 
L 409.581818 382.054649 
L 410.638375 380.945455 
L 414.654545 376.328622 
L 415.224793 375.709091 
L 419.727273 370.791419 
L 419.960043 370.472727 
L 424.8 365.36488 
L 424.905148 365.236364 
L 428.740908 360 
L 429.872727 356.166991 
L 430.418255 354.763636 
L 429.872727 354.28353 
L 424.8 354.583497 
L 424.568178 354.763636 
L 419.727273 359.220599 
L 419.116165 360 
L 416.873466 365.236364 
L 414.654545 368.650818 
L 413.031479 370.472727 
L 409.581818 373.27267 
L 404.509091 375.505135 
L 404.254938 375.709091 
L 399.436364 379.535439 
L 398.102829 380.945455 
L 394.363636 385.998257 
L 394.234665 386.181818 
L 391.924225 391.418182 
L 389.290909 396.314327 
L 389.119428 396.654545 
L 389.290909 397.307065 
" style="fill:none;stroke:#808080;"/>
   </g>
   <g id="LineCollection_10">
    <path clip-path="url(#pac710ffa92)" d="M 303.054545 491.50607 
L 304.022685 490.909091 
L 303.054545 490.381543 
L 302.781922 490.909091 
L 303.054545 491.50607 
" style="fill:none;stroke:#808080;"/>
    <path clip-path="url(#pac710ffa92)" d="M 308.127273 488.940454 
L 311.318501 485.672727 
L 313.2 484.428377 
L 317.388089 480.436364 
L 318.272727 479.864149 
L 322.722094 475.2 
L 323.345455 474.655047 
L 327.346665 469.963636 
L 328.418182 468.876528 
L 331.984769 464.727273 
L 333.490909 463.246645 
L 336.8345 459.490909 
L 338.563636 457.752847 
L 341.559502 454.254545 
L 343.636364 451.681643 
L 345.756861 449.018182 
L 348.709091 444.40965 
L 349.201124 443.781818 
L 352.249408 438.545455 
L 353.781818 433.621287 
L 353.918179 433.309091 
L 353.781818 432.978084 
L 348.709091 430.754474 
L 344.231575 433.309091 
L 343.636364 433.626386 
L 338.563636 437.976035 
L 337.984295 438.545455 
L 333.490909 442.744919 
L 332.519705 443.781818 
L 328.553609 449.018182 
L 328.418182 449.224609 
L 324.684812 454.254545 
L 323.345455 456.113912 
L 320.66354 459.490909 
L 318.272727 462.775838 
L 316.760873 464.727273 
L 313.507472 469.963636 
L 313.2 470.58317 
L 311.038409 475.2 
L 308.15964 480.436364 
L 308.127273 480.499202 
L 305.890964 485.672727 
L 308.127273 488.940454 
" style="fill:none;stroke:#808080;"/>
    <path clip-path="url(#pac710ffa92)" d="M 394.363636 393.002233 
L 396.336287 391.418182 
L 399.436364 390.250779 
L 403.778537 386.181818 
L 404.509091 385.211934 
L 407.661197 380.945455 
L 404.509091 378.109626 
L 399.436364 380.800248 
L 399.299033 380.945455 
L 396.381972 386.181818 
L 394.363636 390.284658 
L 393.883742 391.418182 
L 394.363636 393.002233 
" style="fill:none;stroke:#808080;"/>
    <path clip-path="url(#pac710ffa92)" d="M 409.581818 375.837059 
L 409.676299 375.709091 
L 409.581818 375.67272 
L 409.49197 375.709091 
L 409.581818 375.837059 
" style="fill:none;stroke:#808080;"/>
    <path clip-path="url(#pac710ffa92)" d="M 419.727273 366.622892 
L 421.018434 365.236364 
L 419.727273 363.096684 
L 419.030509 365.236364 
L 419.727273 366.622892 
" style="fill:none;stroke:#808080;"/>
    <path clip-path="url(#pac710ffa92)" d="M 424.8 362.333191 
L 426.50216 360 
L 424.8 357.534025 
L 421.658729 360 
L 424.8 362.333191 
" style="fill:none;stroke:#808080;"/>
   </g>
   <g id="LineCollection_11">
    <path clip-path="url(#pac710ffa92)" d="M 313.2 482.083249 
L 314.927775 480.436364 
L 318.272727 478.272735 
L 321.203963 475.2 
L 323.345455 473.327872 
L 326.214744 469.963636 
L 328.418182 467.728137 
L 330.997644 464.727273 
L 333.490909 462.27624 
L 335.970585 459.490909 
L 338.563636 456.884473 
L 340.815846 454.254545 
L 343.636364 450.760371 
L 345.023396 449.018182 
L 348.363568 443.781818 
L 348.709091 443.141877 
L 351.415228 438.545455 
L 352.127652 433.309091 
L 348.709091 431.658463 
L 345.81601 433.309091 
L 343.636364 434.471018 
L 338.848339 438.545455 
L 338.563636 438.755308 
L 333.490909 443.504137 
L 333.230821 443.781818 
L 329.194133 449.018182 
L 328.418182 450.20094 
L 325.409474 454.254545 
L 323.345455 457.119926 
L 321.462488 459.490909 
L 318.272727 463.873576 
L 317.611334 464.727273 
L 314.663757 469.963636 
L 313.2 472.912997 
L 312.12923 475.2 
L 311.120625 480.436364 
L 313.2 482.083249 
" style="fill:none;stroke:#808080;"/>
    <path clip-path="url(#pac710ffa92)" d="M 399.436364 387.21757 
L 400.541661 386.181818 
L 399.436364 384.724156 
L 398.65887 386.181818 
L 399.436364 387.21757 
" style="fill:none;stroke:#808080;"/>
   </g>
   <g id="LineCollection_12">
    <path clip-path="url(#pac710ffa92)" d="M 318.272727 476.68132 
L 319.685833 475.2 
L 323.345455 472.000697 
L 325.082823 469.963636 
L 328.418182 466.579747 
L 330.010518 464.727273 
L 333.490909 461.305835 
L 335.10667 459.490909 
L 338.563636 456.016098 
L 340.07219 454.254545 
L 343.636364 449.839099 
L 344.289931 449.018182 
L 347.598557 443.781818 
L 348.709091 441.725006 
L 350.581047 438.545455 
L 350.25543 433.309091 
L 348.709091 432.562452 
L 347.400446 433.309091 
L 343.636364 435.31565 
L 339.840898 438.545455 
L 338.563636 439.486922 
L 333.985535 443.781818 
L 333.490909 444.30546 
L 329.834657 449.018182 
L 328.418182 451.177271 
L 326.134136 454.254545 
L 323.345455 458.12594 
L 322.261435 459.490909 
L 318.582236 464.727273 
L 318.272727 465.224014 
L 315.820041 469.963636 
L 313.298231 475.2 
L 318.272727 476.68132 
" style="fill:none;stroke:#808080;"/>
   </g>
   <g id="LineCollection_13">
    <path clip-path="url(#pac710ffa92)" d="M 318.272727 474.895677 
L 323.345455 470.673522 
L 323.950902 469.963636 
L 328.418182 465.431356 
L 329.023393 464.727273 
L 333.490909 460.33543 
L 334.242755 459.490909 
L 338.563636 455.147724 
L 339.328534 454.254545 
L 343.548949 449.018182 
L 343.636364 448.885165 
L 346.833547 443.781818 
L 348.709091 440.308134 
L 349.746866 438.545455 
L 348.709091 433.951807 
L 343.636364 436.160282 
L 340.833457 438.545455 
L 338.563636 440.218535 
L 334.765391 443.781818 
L 333.490909 445.131063 
L 330.475182 449.018182 
L 328.418182 452.153602 
L 326.858798 454.254545 
L 323.345455 459.131954 
L 323.060383 459.490909 
L 319.974458 464.727273 
L 318.272727 467.458443 
L 316.976326 469.963636 
L 318.272727 474.895677 
" style="fill:none;stroke:#808080;"/>
   </g>
   <g id="LineCollection_14">
    <path clip-path="url(#pac710ffa92)" d="M 318.272727 470.496698 
L 319.321188 469.963636 
L 318.272727 469.692871 
L 318.13261 469.963636 
L 318.272727 470.496698 
" style="fill:none;stroke:#808080;"/>
    <path clip-path="url(#pac710ffa92)" d="M 323.345455 468.672561 
L 327.332785 464.727273 
L 328.418182 464.052732 
L 333.251292 459.490909 
L 333.490909 459.335766 
L 338.563636 454.279349 
L 338.584878 454.254545 
L 342.746476 449.018182 
L 343.636364 447.664054 
L 346.068537 443.781818 
L 348.709091 438.891263 
L 348.912685 438.545455 
L 348.709091 437.644256 
L 343.636364 437.004914 
L 341.826016 438.545455 
L 338.563636 440.950148 
L 335.545246 443.781818 
L 333.490909 445.956666 
L 331.115706 449.018182 
L 328.418182 453.129933 
L 327.58346 454.254545 
L 324.346381 459.490909 
L 323.345455 461.12229 
L 321.366681 464.727273 
L 323.345455 468.672561 
" style="fill:none;stroke:#808080;"/>
   </g>
   <g id="LineCollection_15">
    <path clip-path="url(#pac710ffa92)" d="M 323.345455 465.896742 
L 324.527386 464.727273 
L 323.345455 463.658678 
L 322.758903 464.727273 
L 323.345455 465.896742 
" style="fill:none;stroke:#808080;"/>
    <path clip-path="url(#pac710ffa92)" d="M 328.418182 462.309262 
L 331.404139 459.490909 
L 333.490909 458.139802 
L 337.395926 454.254545 
L 338.563636 453.273273 
L 341.944003 449.018182 
L 343.636364 446.442944 
L 345.303526 443.781818 
L 346.281873 438.545455 
L 343.636364 437.849546 
L 342.818575 438.545455 
L 338.563636 441.681761 
L 336.325102 443.781818 
L 333.490909 446.782269 
L 331.75623 449.018182 
L 328.418182 454.106264 
L 328.308123 454.254545 
L 325.902571 459.490909 
L 328.418182 462.309262 
" style="fill:none;stroke:#808080;"/>
   </g>
   <g id="LineCollection_16">
    <path clip-path="url(#pac710ffa92)" d="M 328.418182 460.565791 
L 329.556986 459.490909 
L 328.418182 457.286741 
L 327.458761 459.490909 
L 328.418182 460.565791 
" style="fill:none;stroke:#808080;"/>
    <path clip-path="url(#pac710ffa92)" d="M 333.490909 456.943839 
L 336.19388 454.254545 
L 338.563636 452.263147 
L 341.14153 449.018182 
L 343.636364 445.221834 
L 344.538516 443.781818 
L 343.636364 439.225738 
L 338.563636 442.413374 
L 337.104957 443.781818 
L 333.490909 447.607872 
L 332.396754 449.018182 
L 329.807469 454.254545 
L 333.490909 456.943839 
" style="fill:none;stroke:#808080;"/>
   </g>
   <g id="LineCollection_17">
    <path clip-path="url(#pac710ffa92)" d="M 333.490909 455.747876 
L 334.991835 454.254545 
L 338.563636 451.253021 
L 340.339057 449.018182 
L 343.636364 444.000724 
L 343.773506 443.781818 
L 343.636364 443.08922 
L 338.563636 443.144987 
L 337.884813 443.781818 
L 333.490909 448.433475 
L 333.037278 449.018182 
L 331.445541 454.254545 
L 333.490909 455.747876 
" style="fill:none;stroke:#808080;"/>
   </g>
   <g id="LineCollection_18">
    <path clip-path="url(#pac710ffa92)" d="M 333.490909 454.551913 
L 333.789789 454.254545 
L 333.490909 451.845358 
L 333.083614 454.254545 
L 333.490909 454.551913 
" style="fill:none;stroke:#808080;"/>
    <path clip-path="url(#pac710ffa92)" d="M 338.563636 450.242896 
L 339.536584 449.018182 
L 338.563636 444.287322 
L 334.474895 449.018182 
L 338.563636 450.242896 
" style="fill:none;stroke:#808080;"/>
   </g>
   <g id="LineCollection_19">
    <path clip-path="url(#pac710ffa92)" d="M 338.563636 449.23277 
L 338.734111 449.018182 
L 338.563636 448.189265 
L 337.847228 449.018182 
L 338.563636 449.23277 
" style="fill:none;stroke:#808080;"/>
   </g>
   <g id="PathCollection_1">
    <defs>
     <path d="M 0 2.236068 
C 0.593012 2.236068 1.161816 2.000462 1.581139 1.581139 
C 2.000462 1.161816 2.236068 0.593012 2.236068 0 
C 2.236068 -0.593012 2.000462 -1.161816 1.581139 -1.581139 
C 1.161816 -2.000462 0.593012 -2.236068 0 -2.236068 
C -0.593012 -2.236068 -1.161816 -2.000462 -1.581139 -1.581139 
C -2.000462 -1.161816 -2.236068 -0.593012 -2.236068 0 
C -2.236068 0.593012 -2.000462 1.161816 -1.581139 1.581139 
C -1.161816 2.000462 -0.593012 2.236068 0 2.236068 
z
" id="ma677c4208e" style="stroke:#000000;"/>
    </defs>
    <g clip-path="url(#pac710ffa92)">
     <use style="stroke:#000000;" x="449.045383031" xlink:href="#ma677c4208e" y="321.481199429"/>
    </g>
   </g>
   <g id="PathCollection_2">
    <g clip-path="url(#pac710ffa92)">
     <use style="stroke:#000000;" x="401.345462024" xlink:href="#ma677c4208e" y="531.817184644"/>
    </g>
   </g>
   <g id="PathCollection_3">
    <g clip-path="url(#pac710ffa92)">
     <use style="stroke:#000000;" x="477.280223981" xlink:href="#ma677c4208e" y="412.866254165"/>
    </g>
   </g>
   <g id="PathCollection_4">
    <g clip-path="url(#pac710ffa92)">
     <use style="stroke:#000000;" x="454.785794381" xlink:href="#ma677c4208e" y="498.756370364"/>
    </g>
   </g>
   <g id="PathCollection_5">
    <g clip-path="url(#pac710ffa92)">
     <use style="stroke:#000000;" x="354.933036281" xlink:href="#ma677c4208e" y="394.237762238"/>
    </g>
   </g>
   <g id="PathCollection_6">
    <g clip-path="url(#pac710ffa92)">
     <use style="stroke:#000000;" x="504.550471032" xlink:href="#ma677c4208e" y="373.756548536"/>
    </g>
   </g>
   <g id="PathCollection_7">
    <g clip-path="url(#pac710ffa92)">
     <use style="stroke:#000000;" x="462.292697846" xlink:href="#ma677c4208e" y="371.86013986"/>
    </g>
   </g>
   <g id="PathCollection_8">
    <g clip-path="url(#pac710ffa92)">
     <use style="stroke:#000000;" x="272.506051018" xlink:href="#ma677c4208e" y="571.910203073"/>
    </g>
   </g>
   <g id="PathCollection_9">
    <g clip-path="url(#pac710ffa92)">
     <use style="stroke:#000000;" x="442.838957567" xlink:href="#ma677c4208e" y="330.504027618"/>
    </g>
   </g>
   <g id="PathCollection_10">
    <g clip-path="url(#pac710ffa92)">
     <use style="stroke:#000000;" x="254.657264159" xlink:href="#ma677c4208e" y="566.865134865"/>
    </g>
   </g>
   <g id="PathCollection_11">
    <g clip-path="url(#pac710ffa92)">
     <use style="stroke:#000000;" x="451.455034539" xlink:href="#ma677c4208e" y="471.551917277"/>
    </g>
   </g>
   <g id="PathCollection_12">
    <g clip-path="url(#pac710ffa92)">
     <use style="stroke:#000000;" x="382.309186779" xlink:href="#ma677c4208e" y="503.931221143"/>
    </g>
   </g>
   <g id="PathCollection_13">
    <g clip-path="url(#pac710ffa92)">
     <use style="stroke:#000000;" x="303.185889172" xlink:href="#ma677c4208e" y="473.291418862"/>
    </g>
   </g>
   <g id="PathCollection_14">
    <g clip-path="url(#pac710ffa92)">
     <use style="stroke:#000000;" x="329.613174372" xlink:href="#ma677c4208e" y="487.447032307"/>
    </g>
   </g>
   <g id="PathCollection_15">
    <g clip-path="url(#pac710ffa92)">
     <use style="stroke:#000000;" x="274.013996008" xlink:href="#ma677c4208e" y="440.254653359"/>
    </g>
   </g>
   <g id="PathCollection_16">
    <g clip-path="url(#pac710ffa92)">
     <use style="stroke:#000000;" x="306.540018409" xlink:href="#ma677c4208e" y="417.225336844"/>
    </g>
   </g>
   <g id="PathCollection_17">
    <g clip-path="url(#pac710ffa92)">
     <use style="stroke:#000000;" x="282.632292646" xlink:href="#ma677c4208e" y="470.812439051"/>
    </g>
   </g>
   <g id="PathCollection_18">
    <g clip-path="url(#pac710ffa92)">
     <use style="stroke:#000000;" x="342.020747215" xlink:href="#ma677c4208e" y="471.551917277"/>
    </g>
   </g>
   <g id="PathCollection_19">
    <g clip-path="url(#pac710ffa92)">
     <use style="stroke:#000000;" x="335.669336593" xlink:href="#ma677c4208e" y="443.637419185"/>
    </g>
   </g>
   <g id="PathCollection_20">
    <g clip-path="url(#pac710ffa92)">
     <use style="stroke:#000000;" x="250.148845225" xlink:href="#ma677c4208e" y="482.905176632"/>
    </g>
   </g>
   <g id="PathCollection_21">
    <g clip-path="url(#pac710ffa92)">
     <use style="stroke:#000000;" x="256.205007446" xlink:href="#ma677c4208e" y="487.447032307"/>
    </g>
   </g>
   <g id="PathCollection_22">
    <g clip-path="url(#pac710ffa92)">
     <use style="stroke:#000000;" x="231.052767604" xlink:href="#ma677c4208e" y="349.797695262"/>
    </g>
   </g>
   <g id="PathCollection_23">
    <g clip-path="url(#pac710ffa92)">
     <use style="stroke:#000000;" x="190.865685697" xlink:href="#ma677c4208e" y="498.666666667"/>
    </g>
   </g>
   <g id="PathCollection_24">
    <g clip-path="url(#pac710ffa92)">
     <use style="stroke:#000000;" x="213.122372476" xlink:href="#ma677c4208e" y="503.770334928"/>
    </g>
   </g>
   <g id="PathCollection_25">
    <g clip-path="url(#pac710ffa92)">
     <use style="stroke:#000000;" x="228.219755017" xlink:href="#ma677c4208e" y="498.666666667"/>
    </g>
   </g>
   <g id="PathCollection_26">
    <g clip-path="url(#pac710ffa92)">
     <use style="stroke:#000000;" x="419.276817378" xlink:href="#ma677c4208e" y="403.122994652"/>
    </g>
   </g>
   <g id="PathCollection_27">
    <g clip-path="url(#pac710ffa92)">
     <use style="stroke:#000000;" x="357.871426252" xlink:href="#ma677c4208e" y="438.151742994"/>
    </g>
   </g>
   <g id="PathCollection_28">
    <g clip-path="url(#pac710ffa92)">
     <use style="stroke:#000000;" x="276.193565552" xlink:href="#ma677c4208e" y="523.009960913"/>
    </g>
   </g>
   <g id="PathCollection_29">
    <g clip-path="url(#pac710ffa92)">
     <use style="stroke:#000000;" x="407.562902753" xlink:href="#ma677c4208e" y="435.747397641"/>
    </g>
   </g>
   <g id="PathCollection_30">
    <g clip-path="url(#pac710ffa92)">
     <use style="stroke:#000000;" x="223.698869379" xlink:href="#ma677c4208e" y="327.791676354"/>
    </g>
   </g>
   <g id="text_15">
    <text style="font-family:Arial;font-size:9.0px;font-style:normal;font-weight:400;text-anchor:start;" transform="rotate(-0.000000, 452.089019, 318.339381)" x="452.089019394" y="318.339381247">7E-04</text>
   </g>
   <g id="text_16">
    <text style="font-family:Arial;font-size:9.0px;font-style:normal;font-weight:400;text-anchor:start;" transform="rotate(-0.000000, 404.389098, 528.675366)" x="404.389098388" y="528.675366462">3E-06</text>
   </g>
   <g id="text_17">
    <text style="font-family:Arial;font-size:9.0px;font-style:normal;font-weight:400;text-anchor:start;" transform="rotate(-0.000000, 480.323860, 409.724436)" x="480.323860344" y="409.724435983">2E-04</text>
   </g>
   <g id="text_18">
    <text style="font-family:Arial;font-size:9.0px;font-style:normal;font-weight:400;text-anchor:start;" transform="rotate(-0.000000, 457.829431, 495.614552)" x="457.829430744" y="495.614552182">3E-22</text>
   </g>
   <g id="text_19">
    <text style="font-family:Arial;font-size:9.0px;font-style:normal;font-weight:400;text-anchor:start;" transform="rotate(-0.000000, 357.976673, 391.095944)" x="357.976672644" y="391.095944056">3E-08</text>
   </g>
   <g id="text_20">
    <text style="font-family:Arial;font-size:9.0px;font-style:normal;font-weight:400;text-anchor:start;" transform="rotate(-0.000000, 507.594107, 370.614730)" x="507.594107396" y="370.614730354">8E-06</text>
   </g>
   <g id="text_21">
    <text style="font-family:Arial;font-size:9.0px;font-style:normal;font-weight:400;text-anchor:start;" transform="rotate(-0.000000, 465.336334, 368.718322)" x="465.336334209" y="368.718321678">4E-04</text>
   </g>
   <g id="text_22">
    <text style="font-family:Arial;font-size:9.0px;font-style:normal;font-weight:400;text-anchor:start;" transform="rotate(-0.000000, 275.549687, 568.768385)" x="275.549687381" y="568.768384891">1E-04</text>
   </g>
   <g id="text_23">
    <text style="font-family:Arial;font-size:9.0px;font-style:normal;font-weight:400;text-anchor:start;" transform="rotate(-0.000000, 445.882594, 327.362209)" x="445.882593931" y="327.362209436">8E-04</text>
   </g>
   <g id="text_24">
    <text style="font-family:Arial;font-size:9.0px;font-style:normal;font-weight:400;text-anchor:start;" transform="rotate(-0.000000, 257.700901, 563.723317)" x="257.700900522" y="563.723316683">6E-05</text>
   </g>
   <g id="text_25">
    <text style="font-family:Arial;font-size:9.0px;font-style:normal;font-weight:400;text-anchor:start;" transform="rotate(-0.000000, 454.498671, 468.410099)" x="454.498670902" y="468.410099095">3E-09</text>
   </g>
   <g id="text_26">
    <text style="font-family:Arial;font-size:9.0px;font-style:normal;font-weight:400;text-anchor:start;" transform="rotate(-0.000000, 385.352823, 500.789403)" x="385.352823142" y="500.789402961">1E-03</text>
   </g>
   <g id="text_27">
    <text style="font-family:Arial;font-size:9.0px;font-style:normal;font-weight:400;text-anchor:start;" transform="rotate(-0.000000, 306.229526, 470.149601)" x="306.229525535" y="470.14960068">7E-04</text>
   </g>
   <g id="text_28">
    <text style="font-family:Arial;font-size:9.0px;font-style:normal;font-weight:400;text-anchor:start;" transform="rotate(-0.000000, 332.656811, 484.305214)" x="332.656810736" y="484.305214125">4E-04</text>
   </g>
   <g id="text_29">
    <text style="font-family:Arial;font-size:9.0px;font-style:normal;font-weight:400;text-anchor:start;" transform="rotate(-0.000000, 277.057632, 437.112835)" x="277.057632372" y="437.112835177">4E-26</text>
   </g>
   <g id="text_30">
    <text style="font-family:Arial;font-size:9.0px;font-style:normal;font-weight:400;text-anchor:start;" transform="rotate(-0.000000, 309.583655, 414.083519)" x="309.583654772" y="414.083518662">1E-16</text>
   </g>
   <g id="text_31">
    <text style="font-family:Arial;font-size:9.0px;font-style:normal;font-weight:400;text-anchor:start;" transform="rotate(-0.000000, 285.675929, 467.670621)" x="285.67592901" y="467.670620869">9E-09</text>
   </g>
   <g id="text_32">
    <text style="font-family:Arial;font-size:9.0px;font-style:normal;font-weight:400;text-anchor:start;" transform="rotate(-0.000000, 345.064384, 468.410099)" x="345.064383579" y="468.410099095">5E-04</text>
   </g>
   <g id="text_33">
    <text style="font-family:Arial;font-size:9.0px;font-style:normal;font-weight:400;text-anchor:start;" transform="rotate(-0.000000, 338.712973, 440.495601)" x="338.712972957" y="440.495601003">3E-03</text>
   </g>
   <g id="text_34">
    <text style="font-family:Arial;font-size:9.0px;font-style:normal;font-weight:400;text-anchor:start;" transform="rotate(-0.000000, 253.192482, 479.763358)" x="253.192481588" y="479.76335845">8E-16</text>
   </g>
   <g id="text_35">
    <text style="font-family:Arial;font-size:9.0px;font-style:normal;font-weight:400;text-anchor:start;" transform="rotate(-0.000000, 259.248644, 484.305214)" x="259.24864381" y="484.305214125">9E-12</text>
   </g>
   <g id="text_36">
    <text style="font-family:Arial;font-size:9.0px;font-style:normal;font-weight:400;text-anchor:start;" transform="rotate(-0.000000, 234.096404, 346.655877)" x="234.096403968" y="346.655877081">4E-169</text>
   </g>
   <g id="text_37">
    <text style="font-family:Arial;font-size:9.0px;font-style:normal;font-weight:400;text-anchor:start;" transform="rotate(-0.000000, 193.909322, 495.524848)" x="193.909322061" y="495.524848485">5E-44</text>
   </g>
   <g id="text_38">
    <text style="font-family:Arial;font-size:9.0px;font-style:normal;font-weight:400;text-anchor:start;" transform="rotate(-0.000000, 216.166009, 500.628517)" x="216.16600884" y="500.628516746">3E-25</text>
   </g>
   <g id="text_39">
    <text style="font-family:Arial;font-size:9.0px;font-style:normal;font-weight:400;text-anchor:start;" transform="rotate(-0.000000, 231.263391, 495.524848)" x="231.263391381" y="495.524848485">1E-19</text>
   </g>
   <g id="text_40">
    <text style="font-family:Arial;font-size:9.0px;font-style:normal;font-weight:400;text-anchor:start;" transform="rotate(-0.000000, 422.320454, 399.981176)" x="422.320453742" y="399.981176471">7E-04</text>
   </g>
   <g id="text_41">
    <text style="font-family:Arial;font-size:9.0px;font-style:normal;font-weight:400;text-anchor:start;" transform="rotate(-0.000000, 360.915063, 435.009925)" x="360.915062616" y="435.009924812">1E-03</text>
   </g>
   <g id="text_42">
    <text style="font-family:Arial;font-size:9.0px;font-style:normal;font-weight:400;text-anchor:start;" transform="rotate(-0.000000, 279.237202, 519.868143)" x="279.237201916" y="519.868142731">2E-03</text>
   </g>
   <g id="text_43">
    <text style="font-family:Arial;font-size:9.0px;font-style:normal;font-weight:400;text-anchor:start;" transform="rotate(-0.000000, 410.606539, 432.605579)" x="410.606539116" y="432.605579459">6E-04</text>
   </g>
   <g id="text_44">
    <text style="font-family:Arial;font-size:9.0px;font-style:normal;font-weight:400;text-anchor:start;" transform="rotate(-0.000000, 226.742506, 324.649858)" x="226.742505743" y="324.649858173">1E-223</text>
   </g>
  </g>
 </g>
 <defs>
  <clipPath id="pac710ffa92">
   <rect height="576.0" width="558.0" x="90.0" y="72.0"/>
  </clipPath>
 </defs>
</svg>
