<?xml version="1.0" encoding="utf-8" standalone="no"?>
<!DOCTYPE svg PUBLIC "-//W3C//DTD SVG 1.1//EN"
  "http://www.w3.org/Graphics/SVG/1.1/DTD/svg11.dtd">
<!-- Created with matplotlib (http://matplotlib.org/) -->
<svg height="720pt" version="1.1" viewBox="0 0 720 720" width="720pt" xmlns="http://www.w3.org/2000/svg" xmlns:xlink="http://www.w3.org/1999/xlink">
 <defs>
  <style type="text/css">
*{stroke-linecap:butt;stroke-linejoin:round;stroke-miterlimit:100000;}
  </style>
 </defs>
 <g id="figure_1">
  <g id="patch_1">
   <path d="M 0 720 
L 720 720 
L 720 0 
L 0 0 
z
" style="fill:#ffffff;"/>
  </g>
  <g id="axes_1">
   <g id="patch_2">
    <path d="M 90 648 
L 648 648 
L 648 72 
L 90 72 
z
" style="fill:#ffffff;"/>
   </g>
   <g id="patch_3">
    <path d="M 90 72 
L 648 72 
" style="fill:none;"/>
   </g>
   <g id="patch_4">
    <path d="M 648 648 
L 648 72 
" style="fill:none;"/>
   </g>
   <g id="patch_5">
    <path d="M 90 658 
L 648 658 
" style="fill:none;stroke:#000000;stroke-linecap:square;stroke-linejoin:miter;stroke-width:0.75;"/>
   </g>
   <g id="patch_6">
    <path d="M 80 648 
L 80 72 
" style="fill:none;stroke:#000000;stroke-linecap:square;stroke-linejoin:miter;stroke-width:0.75;"/>
   </g>
   <g id="matplotlib.axis_1">
    <g id="xtick_1">
     <g id="line2d_1">
      <defs>
       <path d="M 0 0 
L 0 -4 
" id="meb64190d05" style="stroke:#000000;stroke-width:0.75;"/>
      </defs>
      <g>
       <use style="stroke:#000000;stroke-width:0.75;" x="90.0" xlink:href="#meb64190d05" y="658.0"/>
      </g>
     </g>
     <g id="text_1">
      <text style="font-family:Arial;font-size:9.0px;font-style:normal;font-weight:400;text-anchor:middle;" transform="rotate(-0.000000, 90.000000, 668.442031)" x="90.0" y="668.44203125">−2</text>
     </g>
    </g>
    <g id="xtick_2">
     <g id="line2d_2">
      <g>
       <use style="stroke:#000000;stroke-width:0.75;" x="191.454545455" xlink:href="#meb64190d05" y="658.0"/>
      </g>
     </g>
     <g id="text_2">
      <text style="font-family:Arial;font-size:9.0px;font-style:normal;font-weight:400;text-anchor:middle;" transform="rotate(-0.000000, 191.454545, 668.442031)" x="191.454545455" y="668.44203125">−1</text>
     </g>
    </g>
    <g id="xtick_3">
     <g id="line2d_3">
      <g>
       <use style="stroke:#000000;stroke-width:0.75;" x="292.909090909" xlink:href="#meb64190d05" y="658.0"/>
      </g>
     </g>
     <g id="text_3">
      <text style="font-family:Arial;font-size:9.0px;font-style:normal;font-weight:400;text-anchor:middle;" transform="rotate(-0.000000, 292.909091, 668.442031)" x="292.909090909" y="668.44203125">0</text>
     </g>
    </g>
    <g id="xtick_4">
     <g id="line2d_4">
      <g>
       <use style="stroke:#000000;stroke-width:0.75;" x="394.363636364" xlink:href="#meb64190d05" y="658.0"/>
      </g>
     </g>
     <g id="text_4">
      <text style="font-family:Arial;font-size:9.0px;font-style:normal;font-weight:400;text-anchor:middle;" transform="rotate(-0.000000, 394.363636, 668.442031)" x="394.363636364" y="668.44203125">1</text>
     </g>
    </g>
    <g id="xtick_5">
     <g id="line2d_5">
      <g>
       <use style="stroke:#000000;stroke-width:0.75;" x="495.818181818" xlink:href="#meb64190d05" y="658.0"/>
      </g>
     </g>
     <g id="text_5">
      <text style="font-family:Arial;font-size:9.0px;font-style:normal;font-weight:400;text-anchor:middle;" transform="rotate(-0.000000, 495.818182, 668.442031)" x="495.818181818" y="668.44203125">2</text>
     </g>
    </g>
    <g id="xtick_6">
     <g id="line2d_6">
      <g>
       <use style="stroke:#000000;stroke-width:0.75;" x="597.272727273" xlink:href="#meb64190d05" y="658.0"/>
      </g>
     </g>
     <g id="text_6">
      <text style="font-family:Arial;font-size:9.0px;font-style:normal;font-weight:400;text-anchor:middle;" transform="rotate(-0.000000, 597.272727, 668.442031)" x="597.272727273" y="668.44203125">3</text>
     </g>
    </g>
    <g id="text_7">
     <text style="font-family:Arial;font-size:9.0px;font-style:normal;font-weight:400;text-anchor:middle;" transform="rotate(-0.000000, 369.000000, 681.782500)" x="369.0" y="681.7825">windspeed along trajectory, m/s</text>
    </g>
   </g>
   <g id="matplotlib.axis_2">
    <g id="ytick_1">
     <g id="line2d_7">
      <defs>
       <path d="M 0 0 
L 4 0 
" id="m3e67396715" style="stroke:#000000;stroke-width:0.75;"/>
      </defs>
      <g>
       <use style="stroke:#000000;stroke-width:0.75;" x="80.0" xlink:href="#m3e67396715" y="595.636363636"/>
      </g>
     </g>
     <g id="text_8">
      <text style="font-family:Arial;font-size:9.0px;font-style:normal;font-weight:400;text-anchor:end;" transform="rotate(-0.000000, 76.000000, 597.963004)" x="76.0" y="597.963004261">0</text>
     </g>
    </g>
    <g id="ytick_2">
     <g id="line2d_8">
      <g>
       <use style="stroke:#000000;stroke-width:0.75;" x="80.0" xlink:href="#m3e67396715" y="490.909090909"/>
      </g>
     </g>
     <g id="text_9">
      <text style="font-family:Arial;font-size:9.0px;font-style:normal;font-weight:400;text-anchor:end;" transform="rotate(-0.000000, 76.000000, 493.235732)" x="76.0" y="493.235731534">1</text>
     </g>
    </g>
    <g id="ytick_3">
     <g id="line2d_9">
      <g>
       <use style="stroke:#000000;stroke-width:0.75;" x="80.0" xlink:href="#m3e67396715" y="386.181818182"/>
      </g>
     </g>
     <g id="text_10">
      <text style="font-family:Arial;font-size:9.0px;font-style:normal;font-weight:400;text-anchor:end;" transform="rotate(-0.000000, 76.000000, 388.508459)" x="76.0" y="388.508458807">2</text>
     </g>
    </g>
    <g id="ytick_4">
     <g id="line2d_10">
      <g>
       <use style="stroke:#000000;stroke-width:0.75;" x="80.0" xlink:href="#m3e67396715" y="281.454545455"/>
      </g>
     </g>
     <g id="text_11">
      <text style="font-family:Arial;font-size:9.0px;font-style:normal;font-weight:400;text-anchor:end;" transform="rotate(-0.000000, 76.000000, 283.781186)" x="76.0" y="283.78118608">3</text>
     </g>
    </g>
    <g id="ytick_5">
     <g id="line2d_11">
      <g>
       <use style="stroke:#000000;stroke-width:0.75;" x="80.0" xlink:href="#m3e67396715" y="176.727272727"/>
      </g>
     </g>
     <g id="text_12">
      <text style="font-family:Arial;font-size:9.0px;font-style:normal;font-weight:400;text-anchor:end;" transform="rotate(-0.000000, 76.000000, 179.053913)" x="76.0" y="179.053913352">4</text>
     </g>
    </g>
    <g id="ytick_6">
     <g id="line2d_12">
      <g>
       <use style="stroke:#000000;stroke-width:0.75;" x="80.0" xlink:href="#m3e67396715" y="72.0"/>
      </g>
     </g>
     <g id="text_13">
      <text style="font-family:Arial;font-size:9.0px;font-style:normal;font-weight:400;text-anchor:end;" transform="rotate(-0.000000, 76.000000, 74.326641)" x="76.0" y="74.326640625">5</text>
     </g>
    </g>
    <g id="text_14">
     <text style="font-family:Arial;font-size:9.0px;font-style:normal;font-weight:400;text-anchor:middle;" transform="rotate(-90.000000, 64.100937, 360.000000)" x="64.1009375" y="360.0">groundspeed along trajectory, m/s</text>
    </g>
   </g>
   <g id="LineCollection_1">
    <path clip-path="url(#p349934cdfe)" d="M 313.2 591.623551 
L 318.272727 593.891309 
L 323.345455 594.62673 
L 328.418182 594.46137 
L 333.490909 593.867976 
L 338.563636 592.997782 
L 343.636364 591.58302 
L 346.409444 590.4 
L 348.709091 589.923185 
L 353.781818 588.626159 
L 358.854545 586.390051 
L 363.927273 582.930675 
L 367.102495 579.927273 
L 369 577.695385 
L 374.072727 574.193645 
L 379.145455 573.846634 
L 384.218182 574.323646 
L 389.290909 573.670142 
L 394.363636 571.158316 
L 399.436364 567.848926 
L 404.509091 565.213701 
L 406.176442 564.218182 
L 409.581818 562.322847 
L 414.654545 558.520923 
L 419.727273 557.226366 
L 424.8 555.494825 
L 427.075361 553.745455 
L 429.872727 551.182922 
L 434.945455 545.233796 
L 440.018182 539.744495 
L 442.200261 538.036364 
L 445.090909 535.034628 
L 450.163636 531.935959 
L 455.236364 529.830902 
L 459.280384 527.563636 
L 460.309091 527.133718 
L 465.546411 522.327273 
L 470.454545 516.417797 
L 473.431646 511.854545 
L 476.100959 506.618182 
L 478.283442 501.381818 
L 480.6 493.982428 
L 482.127634 490.909091 
L 484.459924 485.672727 
L 485.672727 481.707059 
L 486.356639 480.436364 
L 488.646833 475.2 
L 490.745455 469.663125 
L 493.862 464.727273 
L 495.818182 459.123309 
L 498.332212 454.254545 
L 500.890909 448.248399 
L 504.048584 443.781818 
L 505.963636 440.657061 
L 507.523602 438.545455 
L 510.454601 433.309091 
L 511.036364 431.897585 
L 513.107344 428.072727 
L 514.945297 422.836364 
L 516.109091 418.205342 
L 518.743752 412.363636 
L 520.062881 407.127273 
L 520.669201 401.890909 
L 520.629114 396.654545 
L 519.719858 391.418182 
L 517.200465 386.181818 
L 516.109091 384.653403 
L 511.036364 381.811555 
L 505.963636 382.771262 
L 495.818182 388.157615 
L 490.745455 392.214839 
L 485.672727 397.060735 
L 480.6 402.080768 
L 475.3271 407.127273 
L 470.454545 411.051898 
L 469.261803 412.363636 
L 465.232565 417.6 
L 461.54851 422.836364 
L 460.309091 424.852143 
L 455.236364 431.290188 
L 452.700056 433.309091 
L 450.163636 435.516351 
L 447.351778 438.545455 
L 444.174121 443.781818 
L 440.018182 448.788886 
L 439.632396 449.018182 
L 434.945455 451.438951 
L 429.872727 454.371766 
L 424.8 455.547618 
L 419.727273 459.009491 
L 414.654545 464.375618 
L 414.082604 464.727273 
L 409.581818 467.805625 
L 404.509091 472.092854 
L 399.436364 475.36621 
L 394.363636 476.931188 
L 389.290909 479.712494 
L 388.428223 480.436364 
L 384.218182 483.064296 
L 381.660935 485.672727 
L 379.145455 489.595557 
L 378.474699 490.909091 
L 375.620192 496.145455 
L 374.072727 498.605845 
L 371.055806 501.381818 
L 369 503.681171 
L 363.927273 504.359608 
L 358.854545 503.037102 
L 353.781818 502.483759 
L 348.709091 502.655804 
L 343.636364 502.32689 
L 338.563636 503.435229 
L 333.490909 505.464053 
L 331.908842 506.618182 
L 328.418182 509.370218 
L 327.131958 511.854545 
L 323.109026 517.090909 
L 317.482561 522.327273 
L 313.547504 527.563636 
L 311.023874 532.8 
L 307.83969 538.036364 
L 304.48118 543.272727 
L 303.054545 546.111295 
L 297.981818 551.459431 
L 296.360834 553.745455 
L 292.909091 559.992812 
L 290.019109 564.218182 
L 288.56482 569.454545 
L 289.003521 574.690909 
L 292.150342 579.927273 
L 298.988626 585.163636 
L 303.054545 587.279079 
L 310.779502 590.4 
L 313.2 591.623551 
L 313.2 591.623551 
" style="fill:none;stroke:#808080;"/>
   </g>
   <g id="LineCollection_2">
    <path clip-path="url(#p349934cdfe)" d="M 318.272727 590.655307 
L 323.345455 592.152188 
L 328.418182 591.946156 
L 333.490909 590.901524 
L 335.304579 590.4 
L 338.563636 589.973054 
L 343.636364 589.048793 
L 348.709091 587.459101 
L 353.781818 585.084856 
L 358.854545 582.876856 
L 362.355318 579.927273 
L 367.054143 574.690909 
L 369 571.70395 
L 372.04811 569.454545 
L 374.072727 567.814979 
L 379.145455 567.717048 
L 384.218182 568.819215 
L 389.290909 568.3057 
L 394.363636 565.386046 
L 395.932436 564.218182 
L 399.436364 561.751562 
L 411.464718 553.745455 
L 414.654545 551.328006 
L 419.727273 549.427263 
L 421.588277 548.509091 
L 424.8 547.184877 
L 434.354138 538.036364 
L 434.945455 537.342957 
L 438.54719 532.8 
L 440.018182 530.20647 
L 442.079084 527.563636 
L 445.090909 523.030861 
L 446.044112 522.327273 
L 450.163636 519.8401 
L 455.236364 518.039862 
L 457.315748 517.090909 
L 460.309091 515.917005 
L 465.381818 512.468759 
L 465.929615 511.854545 
L 470.454545 506.581068 
L 473.464203 501.381818 
L 478.498528 490.909091 
L 480.6 485.520934 
L 483.182685 480.436364 
L 485.672727 472.665247 
L 487.116887 469.963636 
L 489.766202 464.727273 
L 490.745455 462.458486 
L 492.428963 459.490909 
L 494.598796 454.254545 
L 495.818182 450.913721 
L 496.907689 449.018182 
L 500.890909 441.682474 
L 503.232098 438.545455 
L 509.575905 428.072727 
L 511.036364 424.03946 
L 511.629864 422.836364 
L 513.853632 417.6 
L 516.109091 410.148513 
L 517.298876 407.127273 
L 518.284384 401.890909 
L 518.034838 396.654545 
L 516.092439 391.418182 
L 511.036364 387.194321 
L 505.963636 388.225322 
L 500.85934 391.418182 
L 495.818182 395.254211 
L 494.341519 396.654545 
L 489.235729 401.890909 
L 485.672727 405.2112 
L 478.596696 412.363636 
L 473.387666 417.6 
L 465.381818 429.511465 
L 462.248175 433.309091 
L 460.309091 436.081347 
L 458.167673 438.545455 
L 455.236364 442.117699 
L 453.699886 443.781818 
L 445.090909 456.355768 
L 440.018182 461.291673 
L 434.945455 464.347025 
L 433.9278 464.727273 
L 429.872727 465.898948 
L 424.8 467.809085 
L 422.302376 469.963636 
L 419.727273 471.847218 
L 416.598301 475.2 
L 414.654545 477.605759 
L 409.581818 482.942154 
L 404.509091 485.885785 
L 399.436364 488.3259 
L 393.45955 490.909091 
L 389.290909 492.436284 
L 384.218182 497.231758 
L 381.409086 501.381818 
L 379.145455 507.462312 
L 376.9712 511.854545 
L 373.901996 517.090909 
L 369 519.503932 
L 363.927273 516.671566 
L 358.854545 513.204185 
L 353.781818 512.512594 
L 343.636364 515.708249 
L 338.563636 517.970745 
L 332.334589 522.327273 
L 328.418182 524.302109 
L 324.793484 527.563636 
L 323.345455 529.052872 
L 316.582632 538.036364 
L 313.19479 543.272727 
L 310.305486 548.509091 
L 308.127273 554.328803 
L 305.344541 558.981818 
L 302.800124 564.218182 
L 300.900235 569.454545 
L 300.99209 574.690909 
L 303.184142 579.927273 
L 308.479983 585.163636 
L 313.2 588.247963 
L 318.272727 590.655307 
L 318.272727 590.655307 
" style="fill:none;stroke:#808080;"/>
   </g>
   <g id="LineCollection_3">
    <path clip-path="url(#p349934cdfe)" d="M 313.2 585.470492 
L 318.272727 588.815424 
L 323.345455 590.028786 
L 328.418182 589.952041 
L 333.490909 589.380714 
L 338.563636 588.567703 
L 343.636364 587.286327 
L 348.709091 585.068768 
L 353.781818 583.202934 
L 358.909478 579.927273 
L 363.927273 574.374896 
L 367.588899 569.454545 
L 369 566.473101 
L 371.701188 564.218182 
L 374.072727 561.9359 
L 379.145455 562.614146 
L 384.218182 564.514899 
L 389.290909 564.167624 
L 394.363636 561.520437 
L 397.540608 558.981818 
L 399.436364 557.281814 
L 414.654545 545.443113 
L 419.727273 543.825887 
L 420.857541 543.272727 
L 424.8 541.809889 
L 429.872727 537.52205 
L 434.060699 532.8 
L 437.653 527.563636 
L 440.018182 523.196891 
L 445.090909 516.399385 
L 450.163636 513.173142 
L 460.309091 508.595919 
L 463.180519 506.618182 
L 465.381818 505.36247 
L 470.454545 499.901543 
L 475.688822 490.909091 
L 478.536901 485.672727 
L 480.6 480.126781 
L 482.753485 475.2 
L 485.672727 467.466001 
L 487.276242 464.727273 
L 489.844174 459.490909 
L 490.745455 457.290082 
L 492.291072 454.254545 
L 495.818182 446.160261 
L 497.277746 443.781818 
L 500.890909 437.481774 
L 503.969335 433.309091 
L 507.142287 428.072727 
L 509.618469 422.836364 
L 511.036364 418.591553 
L 511.489708 417.6 
L 513.588171 412.363636 
L 515.086682 407.127273 
L 515.930032 401.890909 
L 515.383916 396.654545 
L 511.036364 391.105215 
L 509.653571 391.418182 
L 505.963636 392.060358 
L 500.890909 395.059307 
L 499.046775 396.654545 
L 495.818182 399.735009 
L 493.725667 401.890909 
L 485.672727 409.5811 
L 478.00198 417.6 
L 473.980389 422.836364 
L 470.454545 428.643283 
L 466.781468 433.309091 
L 465.381818 435.326519 
L 462.885896 438.545455 
L 460.309091 442.616804 
L 459.314985 443.781818 
L 455.236364 449.139205 
L 451.872971 454.254545 
L 450.163636 457.135976 
L 444.577026 464.727273 
L 440.018182 468.601718 
L 437.403786 469.963636 
L 434.945455 470.958857 
L 429.872727 472.253788 
L 424.8 474.436382 
L 419.727273 478.397103 
L 417.970981 480.436364 
L 414.654545 485.100914 
L 414.104834 485.672727 
L 409.581818 490.194217 
L 408.331299 490.909091 
L 404.509091 492.866198 
L 399.436364 495.832006 
L 398.587206 496.145455 
L 394.363636 497.361256 
L 389.290909 499.631854 
L 387.586208 501.381818 
L 384.05084 506.618182 
L 381.602805 511.854545 
L 379.145455 517.536333 
L 376.282498 522.327273 
L 374.072727 527.807163 
L 369 529.561974 
L 367.184326 527.563636 
L 363.927273 524.456716 
L 358.854545 520.344779 
L 353.781818 519.445202 
L 348.709091 520.712352 
L 343.554335 522.327273 
L 338.563636 524.843337 
L 333.490909 528.1355 
L 328.418182 531.264819 
L 326.927225 532.8 
L 322.327127 538.036364 
L 318.047418 543.272727 
L 314.782305 548.509091 
L 312.863591 553.745455 
L 310.69633 558.981818 
L 308.683305 564.218182 
L 308.127273 566.200449 
L 306.710919 569.454545 
L 306.267569 574.690909 
L 308.159042 579.927273 
L 312.730412 585.163636 
L 313.2 585.470492 
L 313.2 585.470492 
" style="fill:none;stroke:#808080;"/>
   </g>
   <g id="LineCollection_4">
    <path clip-path="url(#p349934cdfe)" d="M 318.272727 587.095123 
L 323.345455 588.75713 
L 328.418182 588.789352 
L 333.490909 588.15404 
L 338.563636 587.162352 
L 344.450933 585.163636 
L 348.709091 583.68244 
L 353.781818 581.321011 
L 355.960128 579.927273 
L 358.854545 577.835592 
L 361.76848 574.690909 
L 363.927273 571.085061 
L 365.14067 569.454545 
L 367.880623 564.218182 
L 369 560.817882 
L 370.909378 558.981818 
L 374.072727 555.528913 
L 379.145455 557.788467 
L 380.762266 558.981818 
L 384.218182 560.902817 
L 389.290909 561.126124 
L 394.363636 558.207883 
L 399.436364 553.416405 
L 405.054079 548.509091 
L 411.514103 543.272727 
L 414.654545 541.102644 
L 419.727273 540.009145 
L 424.8 537.811822 
L 429.872727 533.441608 
L 430.441768 532.8 
L 434.945455 526.749859 
L 437.863616 522.327273 
L 440.018182 518.210557 
L 445.090909 511.617798 
L 450.163636 508.243504 
L 453.170961 506.618182 
L 460.309091 503.275569 
L 463.225099 501.381818 
L 465.381818 500.186228 
L 470.454545 495.106934 
L 475.527273 487.486662 
L 476.529867 485.672727 
L 478.927434 480.436364 
L 480.649087 475.2 
L 482.982727 469.963636 
L 485.672727 463.564689 
L 487.988116 459.490909 
L 490.745455 453.113904 
L 492.829745 449.018182 
L 495.818182 442.586939 
L 498.421545 438.545455 
L 500.890909 434.341517 
L 501.652588 433.309091 
L 505.080777 428.072727 
L 507.891411 422.836364 
L 509.819142 417.6 
L 511.036364 413.887412 
L 511.672002 412.363636 
L 513.291543 407.127273 
L 513.891965 401.890909 
L 512.569825 396.654545 
L 511.036364 394.706689 
L 505.963636 395.067613 
L 500.890909 398.264974 
L 486.309531 412.363636 
L 485.672727 412.958589 
L 480.6 418.501283 
L 476.988607 422.836364 
L 475.527273 425.340079 
L 470.194402 433.309091 
L 466.287892 438.545455 
L 465.381818 440.050082 
L 462.768331 443.781818 
L 460.309091 447.795201 
L 459.323512 449.018182 
L 452.202363 459.490909 
L 450.163636 462.746469 
L 448.635699 464.727273 
L 444.77425 469.963636 
L 440.018182 473.814037 
L 436.582303 475.2 
L 434.945455 475.738035 
L 429.872727 476.680667 
L 424.8 478.772219 
L 422.829293 480.436364 
L 419.727273 483.230034 
L 417.808231 485.672727 
L 414.377681 490.909091 
L 409.581818 495.483625 
L 408.434614 496.145455 
L 399.436364 500.837705 
L 394.363636 502.506259 
L 389.290909 505.631874 
L 388.535087 506.618182 
L 384.218182 513.410216 
L 382.263318 517.090909 
L 379.977594 522.327273 
L 379.145455 524.589196 
L 377.564883 527.563636 
L 375.423749 532.8 
L 374.072727 536.788249 
L 369 536.933847 
L 365.768253 532.8 
L 363.927273 530.811557 
L 358.854545 526.184853 
L 353.781818 525.069675 
L 348.709091 526.05004 
L 343.588436 527.563636 
L 338.563636 529.773962 
L 333.490909 532.8939 
L 328.418182 536.615287 
L 322.263828 543.272727 
L 318.270856 548.509091 
L 315.677727 553.745455 
L 313.2 561.397648 
L 311.841918 564.218182 
L 309.878392 569.454545 
L 309.414801 574.690909 
L 310.792795 579.927273 
L 315.442377 585.163636 
L 318.272727 587.095123 
L 318.272727 587.095123 
" style="fill:none;stroke:#808080;"/>
   </g>
   <g id="LineCollection_5">
    <path clip-path="url(#p349934cdfe)" d="M 318.272727 585.374822 
L 323.345455 587.485474 
L 328.418182 587.626664 
L 333.490909 586.927367 
L 338.563636 585.757001 
L 340.322333 585.163636 
L 343.636364 584.306135 
L 348.709091 582.296113 
L 353.11321 579.927273 
L 353.781818 579.548346 
L 358.854545 575.710026 
L 359.798882 574.690909 
L 363.242574 569.454545 
L 363.927273 567.689749 
L 365.89618 564.218182 
L 367.68302 558.981818 
L 368.932018 553.745455 
L 369 552.924595 
L 370.693509 548.509091 
L 369 545.821591 
L 368.513395 543.272727 
L 365.719113 538.036364 
L 363.927273 535.881326 
L 361.138002 532.8 
L 358.854545 530.615355 
L 353.781818 529.27313 
L 348.709091 530.112235 
L 343.636364 531.57042 
L 341.048612 532.8 
L 338.563636 533.662666 
L 333.490909 536.508076 
L 331.612441 538.036364 
L 328.418182 540.795372 
L 326.057208 543.272727 
L 323.345455 545.938117 
L 321.229391 548.509091 
L 318.335236 553.745455 
L 318.272727 553.895495 
L 316.095952 558.981818 
L 314.144022 564.218182 
L 313.2 567.46715 
L 312.341227 569.454545 
L 311.653577 574.690909 
L 313.2 579.34741 
L 313.336592 579.927273 
L 317.963261 585.163636 
L 318.272727 585.374822 
" style="fill:none;stroke:#808080;"/>
    <path clip-path="url(#p349934cdfe)" d="M 384.218182 557.588846 
L 389.290909 558.242145 
L 394.363636 555.351687 
L 396.084826 553.745455 
L 399.436364 549.954696 
L 401.041457 548.509091 
L 404.509091 545.310082 
L 406.917985 543.272727 
L 409.581818 541.194508 
L 413.923146 538.036364 
L 414.654545 537.528614 
L 419.727273 536.689905 
L 424.8 534.629546 
L 426.857167 532.8 
L 429.872727 530.062108 
L 431.838829 527.563636 
L 434.945455 522.968231 
L 435.368379 522.327273 
L 438.515247 517.090909 
L 440.018182 514.078912 
L 441.786423 511.854545 
L 445.090909 507.390246 
L 446.203854 506.618182 
L 450.163636 504.101773 
L 455.236364 501.652968 
L 455.753247 501.381818 
L 460.309091 499.467298 
L 465.381818 496.173943 
L 465.409504 496.145455 
L 470.454545 491.573151 
L 470.901995 490.909091 
L 474.598944 485.672727 
L 475.527273 484.09793 
L 477.35592 480.436364 
L 479.296381 475.2 
L 480.6 471.501174 
L 481.288026 469.963636 
L 483.71197 464.727273 
L 485.672727 460.299072 
L 486.132058 459.490909 
L 488.747384 454.254545 
L 490.745455 449.659946 
L 491.072045 449.018182 
L 493.803017 443.781818 
L 495.818182 439.72342 
L 496.57698 438.545455 
L 499.853023 433.309091 
L 500.890909 431.650023 
L 503.368747 428.072727 
L 505.963636 423.209281 
L 506.164353 422.836364 
L 508.313097 417.6 
L 509.92589 412.363636 
L 511.036364 408.578711 
L 511.496404 407.127273 
L 511.853897 401.890909 
L 511.036364 399.437687 
L 505.963636 398.096403 
L 500.890909 401.122079 
L 500.103894 401.890909 
L 495.818182 406.085892 
L 494.754721 407.127273 
L 490.745455 410.709622 
L 489.02563 412.363636 
L 485.672727 415.496185 
L 483.704853 417.6 
L 480.6 421.426921 
L 479.425846 422.836364 
L 476.179109 428.072727 
L 475.527273 429.19439 
L 472.592803 433.309091 
L 470.454545 436.505554 
L 468.909203 438.545455 
L 465.68687 443.781818 
L 465.381818 444.304221 
L 462.182671 449.018182 
L 460.309091 452.143269 
L 458.779181 454.254545 
L 455.279245 459.490909 
L 455.236364 459.552383 
L 451.558943 464.727273 
L 450.163636 467.193048 
L 448.05759 469.963636 
L 445.090909 474.186244 
L 443.869894 475.2 
L 440.018182 478.584962 
L 434.945455 479.740073 
L 429.872727 480.347185 
L 429.673496 480.436364 
L 424.8 482.376344 
L 421.271762 485.672727 
L 419.727273 487.260394 
L 417.102561 490.909091 
L 414.654545 495.063186 
L 413.533475 496.145455 
L 409.581818 500.014078 
L 407.061656 501.381818 
L 404.509091 502.592051 
L 399.436364 504.960457 
L 395.243348 506.618182 
L 394.363636 506.980273 
L 389.290909 510.857371 
L 388.619107 511.854545 
L 385.17025 517.090909 
L 384.218182 518.637886 
L 382.333907 522.327273 
L 380.152261 527.563636 
L 379.145455 530.988338 
L 378.323781 532.8 
L 376.585124 538.036364 
L 375.617481 543.272727 
L 375.816405 548.509091 
L 379.145455 552.83473 
L 379.664771 553.745455 
L 384.218182 557.588846 
" style="fill:none;stroke:#808080;"/>
   </g>
   <g id="LineCollection_6">
    <path clip-path="url(#p349934cdfe)" d="M 323.345455 586.213818 
L 328.418182 586.463975 
L 333.490909 585.700693 
L 335.677718 585.163636 
L 338.563636 584.619926 
L 343.636364 583.228347 
L 348.709091 580.909785 
L 350.535766 579.927273 
L 353.781818 578.087605 
L 357.926683 574.690909 
L 358.854545 573.700788 
L 361.885063 569.454545 
L 363.918584 564.218182 
L 363.927273 564.176816 
L 365.789217 558.981818 
L 366.90801 553.745455 
L 367.134324 548.509091 
L 365.673626 543.272727 
L 363.927273 540.489836 
L 362.416845 538.036364 
L 358.854545 534.194411 
L 354.020312 532.8 
L 353.781818 532.721057 
L 353.374461 532.8 
L 348.709091 533.441968 
L 343.636364 534.661875 
L 338.563636 536.604555 
L 336.242905 538.036364 
L 333.490909 539.634714 
L 329.495842 543.272727 
L 328.418182 544.254551 
L 324.138864 548.509091 
L 323.345455 549.377602 
L 320.395573 553.745455 
L 318.272727 558.840999 
L 318.212461 558.981818 
L 315.800087 564.218182 
L 314.082404 569.454545 
L 313.602797 574.690909 
L 314.92456 579.927273 
L 318.272727 583.625121 
L 320.885641 585.163636 
L 323.345455 586.213818 
" style="fill:none;stroke:#808080;"/>
    <path clip-path="url(#p349934cdfe)" d="M 384.218182 554.564061 
L 389.290909 555.734642 
L 392.560126 553.745455 
L 394.363636 552.548832 
L 398.002086 548.509091 
L 399.436364 546.727376 
L 403.120962 543.272727 
L 404.509091 541.992269 
L 409.452244 538.036364 
L 409.581818 537.928111 
L 414.654545 534.407253 
L 419.727273 533.749766 
L 421.91766 532.8 
L 424.8 531.715519 
L 429.242339 527.563636 
L 429.872727 526.988444 
L 433.386228 522.327273 
L 434.945455 519.688283 
L 436.551028 517.090909 
L 439.256227 511.854545 
L 440.018182 510.094789 
L 442.617905 506.618182 
L 445.090909 502.86661 
L 447.732748 501.381818 
L 450.163636 500.342491 
L 455.236364 498.632721 
L 460.309091 496.260991 
L 460.486743 496.145455 
L 465.381818 493.220115 
L 467.874191 490.909091 
L 470.454545 488.831037 
L 472.743992 485.672727 
L 475.527273 480.951231 
L 475.784406 480.436364 
L 477.961628 475.2 
L 479.882153 469.963636 
L 480.6 468.182324 
L 482.265991 464.727273 
L 484.633877 459.490909 
L 485.672727 457.301163 
L 487.245349 454.254545 
L 489.628658 449.018182 
L 490.745455 446.848055 
L 492.381159 443.781818 
L 495.047654 438.545455 
L 495.818182 437.143187 
L 498.306774 433.309091 
L 500.890909 429.178335 
L 501.656716 428.072727 
L 504.55074 422.836364 
L 505.963636 419.631075 
L 506.807052 417.6 
L 508.264193 412.363636 
L 509.209601 407.127273 
L 507.427587 401.890909 
L 505.963636 401.149252 
L 504.698174 401.890909 
L 500.890909 403.872399 
L 497.575233 407.127273 
L 495.818182 408.694303 
L 491.747662 412.363636 
L 490.745455 413.170954 
L 486.069902 417.6 
L 485.672727 417.973394 
L 481.557871 422.836364 
L 480.6 424.2937 
L 478.065265 428.072727 
L 475.527273 432.440038 
L 474.907493 433.309091 
L 471.293008 438.545455 
L 470.454545 439.855324 
L 467.824427 443.781818 
L 465.381818 447.964793 
L 464.666932 449.018182 
L 461.310046 454.254545 
L 460.309091 455.774666 
L 457.566488 459.490909 
L 455.236364 462.831308 
L 453.889038 464.727273 
L 450.833087 469.963636 
L 450.163636 471.323532 
L 447.389075 475.2 
L 445.090909 478.945576 
L 443.386152 480.436364 
L 440.018182 483.774691 
L 434.945455 483.85991 
L 429.872727 483.633708 
L 424.8 485.637004 
L 424.761764 485.672727 
L 419.727273 490.847964 
L 419.683301 490.909091 
L 416.153134 496.145455 
L 414.654545 498.988499 
L 412.229607 501.381818 
L 409.581818 504.183083 
L 404.509091 506.471751 
L 404.20314 506.618182 
L 399.436364 509.060661 
L 394.363636 511.169623 
L 393.506834 511.854545 
L 389.290909 515.209214 
L 388.009658 517.090909 
L 384.690571 522.327273 
L 384.218182 523.096714 
L 382.032026 527.563636 
L 380.298703 532.8 
L 379.350836 538.036364 
L 379.145455 542.605231 
L 379.079949 543.272727 
L 379.145455 543.572363 
L 379.87314 548.509091 
L 383.248348 553.745455 
L 384.218182 554.564061 
" style="fill:none;stroke:#808080;"/>
   </g>
   <g id="LineCollection_7">
    <path clip-path="url(#p349934cdfe)" d="M 328.418182 585.301286 
L 329.300606 585.163636 
L 333.490909 584.649745 
L 338.563636 583.678897 
L 343.636364 582.15056 
L 348.08142 579.927273 
L 348.709091 579.57357 
L 353.781818 576.626863 
L 356.144193 574.690909 
L 358.854545 571.798696 
L 360.527552 569.454545 
L 362.808736 564.218182 
L 363.909201 558.981818 
L 363.927273 558.80186 
L 364.884002 553.745455 
L 364.857237 548.509091 
L 363.927273 545.813813 
L 363.183413 543.272727 
L 359.630944 538.036364 
L 358.854545 537.199016 
L 353.781818 535.119487 
L 348.709091 535.890185 
L 343.636364 537.342235 
L 341.935307 538.036364 
L 338.563636 539.143257 
L 333.490909 542.404142 
L 332.537077 543.272727 
L 328.418182 547.025329 
L 326.925779 548.509091 
L 323.345455 552.428318 
L 322.45591 553.745455 
L 319.797165 558.981818 
L 318.272727 562.455286 
L 317.456153 564.218182 
L 315.437225 569.454545 
L 314.90527 574.690909 
L 316.512528 579.927273 
L 318.272727 581.871306 
L 323.345455 584.956043 
L 326.36536 585.163636 
L 328.418182 585.301286 
" style="fill:none;stroke:#808080;"/>
    <path clip-path="url(#p349934cdfe)" d="M 384.218182 551.344228 
L 389.290909 553.216733 
L 394.363636 549.814522 
L 395.539391 548.509091 
L 399.436364 543.66812 
L 399.858074 543.272727 
L 404.509091 538.982467 
L 405.691307 538.036364 
L 409.581818 534.786041 
L 412.451928 532.8 
L 414.654545 531.169401 
L 419.727273 531.003736 
L 424.8 529.164293 
L 426.512635 527.563636 
L 429.872727 524.497748 
L 431.50879 522.327273 
L 434.662124 517.090909 
L 434.945455 516.509059 
L 437.504325 511.854545 
L 439.778272 506.618182 
L 440.018182 505.723243 
L 442.566223 501.381818 
L 445.090909 497.558684 
L 450.163636 496.850918 
L 453.02192 496.145455 
L 455.236364 495.646335 
L 460.309091 493.487168 
L 464.431163 490.909091 
L 465.381818 490.393617 
L 470.454545 486.272117 
L 470.889041 485.672727 
L 474.178498 480.436364 
L 475.527273 477.798384 
L 476.626875 475.2 
L 478.673685 469.963636 
L 480.6 465.18355 
L 480.820013 464.727273 
L 483.253389 459.490909 
L 485.672727 454.391292 
L 485.743314 454.254545 
L 488.256999 449.018182 
L 490.745455 444.182689 
L 490.959302 443.781818 
L 493.738635 438.545455 
L 495.818182 434.760931 
L 496.760526 433.309091 
L 499.981573 428.072727 
L 500.890909 426.50152 
L 502.952046 422.836364 
L 505.083748 417.6 
L 505.963636 414.80551 
L 506.602495 412.363636 
L 506.753383 407.127273 
L 505.963636 405.566304 
L 500.890909 406.583406 
L 500.336883 407.127273 
L 495.818182 411.157286 
L 494.479935 412.363636 
L 490.745455 415.371911 
L 488.393357 417.6 
L 485.672727 420.157729 
L 483.406171 422.836364 
L 480.6 427.105763 
L 479.951421 428.072727 
L 476.785275 433.309091 
L 475.527273 435.433196 
L 473.335699 438.545455 
L 470.454545 443.046474 
L 469.961984 443.781818 
L 466.683177 449.018182 
L 465.381818 451.20242 
L 463.350795 454.254545 
L 460.309091 458.873893 
L 459.85373 459.490909 
L 456.05637 464.727273 
L 455.236364 466.130756 
L 452.879361 469.963636 
L 450.312328 475.2 
L 450.163636 475.563611 
L 447.292024 480.436364 
L 445.090909 485.075346 
L 444.482712 485.672727 
L 440.018182 489.58948 
L 434.945455 487.766585 
L 429.872727 486.681368 
L 424.8 488.271912 
L 422.23741 490.909091 
L 419.727273 493.803095 
L 418.14364 496.145455 
L 415.253314 501.381818 
L 414.654545 502.831503 
L 411.073408 506.618182 
L 409.581818 508.343973 
L 404.509091 510.532414 
L 401.981795 511.854545 
L 399.436364 513.227083 
L 394.363636 515.075889 
L 391.887621 517.090909 
L 389.290909 519.00702 
L 387.048634 522.327273 
L 384.218182 526.937594 
L 383.911791 527.563636 
L 381.907886 532.8 
L 380.93687 538.036364 
L 380.908284 543.272727 
L 382.20772 548.509091 
L 384.218182 551.344228 
" style="fill:none;stroke:#808080;"/>
   </g>
   <g id="LineCollection_8">
    <path clip-path="url(#p349934cdfe)" d="M 318.272727 580.117491 
L 323.345455 583.764089 
L 328.418182 584.310892 
L 333.490909 583.735648 
L 338.563636 582.737867 
L 343.636364 581.072773 
L 345.926582 579.927273 
L 348.709091 578.359285 
L 353.781818 575.166122 
L 354.361703 574.690909 
L 358.854545 569.896604 
L 359.17004 569.454545 
L 361.698888 564.218182 
L 362.834994 558.981818 
L 363.293787 553.745455 
L 363.052333 548.509091 
L 361.251496 543.272727 
L 358.854545 539.961444 
L 355.00324 538.036364 
L 353.781818 537.493324 
L 350.486345 538.036364 
L 348.709091 538.281517 
L 343.636364 539.518586 
L 338.563636 541.29967 
L 335.665184 543.272727 
L 333.490909 544.818841 
L 329.538766 548.509091 
L 328.418182 549.510362 
L 324.483497 553.745455 
L 323.345455 555.371826 
L 321.366282 558.981818 
L 318.916518 564.218182 
L 318.272727 565.87738 
L 316.792046 569.454545 
L 316.207743 574.690909 
L 318.100497 579.927273 
L 318.272727 580.117491 
" style="fill:none;stroke:#808080;"/>
    <path clip-path="url(#p349934cdfe)" d="M 389.290909 550.658886 
L 392.418817 548.509091 
L 394.363636 547.010188 
L 397.404367 543.272727 
L 399.436364 540.389574 
L 402.01822 538.036364 
L 404.509091 535.614201 
L 407.979185 532.8 
L 409.581818 531.225321 
L 414.654545 527.807892 
L 419.727273 528.350329 
L 421.97512 527.563636 
L 424.8 526.750239 
L 429.570034 522.327273 
L 429.872727 522.023341 
L 433.110386 517.090909 
L 434.945455 513.3224 
L 435.752424 511.854545 
L 438.073687 506.618182 
L 439.399235 501.381818 
L 439.39255 496.145455 
L 434.945455 491.429021 
L 433.877411 490.909091 
L 429.872727 489.351226 
L 424.8 490.899889 
L 424.791058 490.909091 
L 420.12311 496.145455 
L 419.727273 496.696952 
L 416.888293 501.381818 
L 414.721579 506.618182 
L 414.654545 506.854483 
L 410.44959 511.854545 
L 409.581818 512.90981 
L 404.509091 514.941831 
L 400.162174 517.090909 
L 399.436364 517.421415 
L 394.363636 518.76055 
L 389.524235 522.327273 
L 389.290909 522.488843 
L 386.002712 527.563636 
L 384.218182 531.007389 
L 383.517069 532.8 
L 382.522904 538.036364 
L 382.705107 543.272727 
L 384.218182 547.767965 
L 384.93733 548.509091 
L 389.290909 550.658886 
" style="fill:none;stroke:#808080;"/>
    <path clip-path="url(#p349934cdfe)" d="M 450.163636 491.989552 
L 455.236364 492.457798 
L 459.70938 490.909091 
L 460.309091 490.721079 
L 465.381818 488.002816 
L 468.222541 485.672727 
L 470.454545 483.74028 
L 472.565861 480.436364 
L 475.246692 475.2 
L 475.527273 474.681677 
L 477.465216 469.963636 
L 479.541778 464.727273 
L 480.6 462.218883 
L 481.872901 459.490909 
L 484.219176 454.254545 
L 485.672727 451.538086 
L 486.885341 449.018182 
L 489.499062 443.781818 
L 490.745455 441.699219 
L 492.429616 438.545455 
L 495.216071 433.309091 
L 495.818182 432.244509 
L 498.336283 428.072727 
L 500.890909 423.658688 
L 501.353351 422.836364 
L 503.083908 417.6 
L 503.534951 412.363636 
L 500.890909 409.975766 
L 498.010917 412.363636 
L 495.818182 413.858145 
L 490.745455 417.572867 
L 490.716811 417.6 
L 485.672727 422.342064 
L 485.25447 422.836364 
L 481.733585 428.072727 
L 480.6 429.903617 
L 478.503293 433.309091 
L 475.527273 438.334026 
L 475.37839 438.545455 
L 472.038788 443.781818 
L 470.454545 445.97949 
L 468.510328 449.018182 
L 465.390191 454.254545 
L 465.381818 454.26753 
L 461.803674 459.490909 
L 460.309091 461.600172 
L 458.000562 464.727273 
L 455.236364 469.458339 
L 454.925635 469.963636 
L 452.517727 475.2 
L 450.433487 480.436364 
L 450.163636 481.532452 
L 448.713943 485.672727 
L 448.632801 490.909091 
L 450.163636 491.989552 
" style="fill:none;stroke:#808080;"/>
   </g>
   <g id="LineCollection_9">
    <path clip-path="url(#p349934cdfe)" d="M 323.345455 582.572134 
L 328.418182 583.343635 
L 333.490909 582.821551 
L 338.563636 581.796838 
L 343.636364 579.994986 
L 343.771744 579.927273 
L 348.709091 577.144999 
L 352.512218 574.690909 
L 353.781818 573.717655 
L 357.80863 569.454545 
L 358.854545 567.729789 
L 360.58904 564.218182 
L 361.760787 558.981818 
L 362.092431 553.745455 
L 361.573394 548.509091 
L 359.319578 543.272727 
L 358.854545 542.630304 
L 353.781818 539.612458 
L 348.709091 540.268645 
L 343.636364 541.518803 
L 339.012047 543.272727 
L 338.563636 543.43159 
L 333.490909 547.071448 
L 331.951238 548.509091 
L 328.418182 551.665968 
L 326.486199 553.745455 
L 323.345455 558.233881 
L 322.935399 558.981818 
L 320.186524 564.218182 
L 318.272727 569.150479 
L 318.146866 569.454545 
L 317.510216 574.690909 
L 318.272727 576.766466 
L 319.726702 579.927273 
L 323.345455 582.572134 
" style="fill:none;stroke:#808080;"/>
    <path clip-path="url(#p349934cdfe)" d="M 389.290909 547.987147 
L 394.363636 544.141882 
L 395.070764 543.272727 
L 398.642397 538.036364 
L 399.436364 536.405455 
L 403.285225 532.8 
L 404.509091 531.441527 
L 408.571043 527.563636 
L 409.581818 525.470043 
L 414.654545 522.496252 
L 419.727273 525.5339 
L 424.8 524.567169 
L 427.215659 522.327273 
L 429.872727 519.659336 
L 431.558648 517.090909 
L 434.142777 511.854545 
L 434.945455 509.799809 
L 436.369102 506.618182 
L 437.4482 501.381818 
L 436.242298 496.145455 
L 434.945455 494.770068 
L 429.872727 491.830085 
L 424.8 493.072804 
L 422.059622 496.145455 
L 419.727273 499.394984 
L 418.523272 501.381818 
L 416.266205 506.618182 
L 414.794585 511.854545 
L 414.654545 512.976567 
L 411.88492 517.090909 
L 409.581818 519.890565 
L 404.509091 520.095832 
L 399.436364 521.63427 
L 394.363636 522.262711 
L 394.276038 522.327273 
L 389.290909 525.779299 
L 388.134753 527.563636 
L 385.418164 532.8 
L 384.218182 537.466744 
L 384.108938 538.036364 
L 384.218182 539.62667 
L 384.719207 543.272727 
L 389.290909 547.987147 
" style="fill:none;stroke:#808080;"/>
    <path clip-path="url(#p349934cdfe)" d="M 455.236364 488.154652 
L 460.309091 487.833942 
L 465.215379 485.672727 
L 465.381818 485.603448 
L 470.454545 481.216728 
L 470.953225 480.436364 
L 473.65407 475.2 
L 475.527273 471.739586 
L 476.256747 469.963636 
L 478.293648 464.727273 
L 480.474195 459.490909 
L 480.6 459.209623 
L 482.693949 454.254545 
L 485.420528 449.018182 
L 485.672727 448.666034 
L 488.032027 443.781818 
L 490.745455 439.247948 
L 491.120598 438.545455 
L 493.674413 433.309091 
L 495.818182 429.51873 
L 496.690994 428.072727 
L 498.968516 422.836364 
L 500.890909 418.226472 
L 501.084068 417.6 
L 500.890909 416.414058 
L 495.818182 416.787361 
L 494.705774 417.6 
L 490.745455 419.932562 
L 487.631939 422.836364 
L 485.672727 424.809057 
L 483.461249 428.072727 
L 480.6 432.694024 
L 480.221311 433.309091 
L 477.289997 438.545455 
L 475.527273 441.539057 
L 474.097401 443.781818 
L 470.454545 448.835213 
L 470.337478 449.018182 
L 467.146797 454.254545 
L 465.381818 456.991663 
L 463.669773 459.490909 
L 460.309091 464.233746 
L 459.944753 464.727273 
L 456.923192 469.963636 
L 455.236364 474.072575 
L 454.723127 475.2 
L 453.230355 480.436364 
L 453.097306 485.672727 
L 455.236364 488.154652 
" style="fill:none;stroke:#808080;"/>
   </g>
   <g id="LineCollection_10">
    <path clip-path="url(#p349934cdfe)" d="M 323.345455 581.380179 
L 328.418182 582.376379 
L 333.490909 581.907454 
L 338.563636 580.855809 
L 341.165324 579.927273 
L 343.636364 578.952473 
L 348.709091 575.930714 
L 350.630429 574.690909 
L 353.781818 572.275107 
L 356.44604 569.454545 
L 358.854545 565.482822 
L 359.479192 564.218182 
L 360.686581 558.981818 
L 360.891076 553.745455 
L 360.094455 548.509091 
L 358.854545 545.761303 
L 356.370224 543.272727 
L 353.781818 541.656044 
L 348.709091 542.255774 
L 344.620163 543.272727 
L 343.636364 543.491261 
L 338.563636 545.299953 
L 334.37349 548.509091 
L 333.490909 549.175083 
L 328.48932 553.745455 
L 328.418182 553.819328 
L 324.514074 558.981818 
L 323.345455 560.719438 
L 321.456531 564.218182 
L 319.298884 569.454545 
L 318.771962 574.690909 
L 321.357558 579.927273 
L 323.345455 581.380179 
" style="fill:none;stroke:#808080;"/>
    <path clip-path="url(#p349934cdfe)" d="M 389.290909 544.715381 
L 391.256573 543.272727 
L 394.363636 540.367006 
L 395.89791 538.036364 
L 397.844269 532.8 
L 397.202645 527.563636 
L 394.363636 526.623198 
L 392.743034 527.563636 
L 389.290909 529.437715 
L 387.544641 532.8 
L 386.416792 538.036364 
L 387.891929 543.272727 
L 389.290909 544.715381 
" style="fill:none;stroke:#808080;"/>
    <path clip-path="url(#p349934cdfe)" d="M 419.727273 522.648768 
L 424.8 522.384098 
L 424.861285 522.327273 
L 429.872727 517.295331 
L 430.00691 517.090909 
L 432.654614 511.854545 
L 434.678604 506.618182 
L 434.945455 504.690042 
L 435.497166 501.381818 
L 434.945455 499.682006 
L 433.007318 496.145455 
L 429.872727 494.041361 
L 424.8 495.244119 
L 423.996134 496.145455 
L 420.187429 501.381818 
L 419.727273 502.299379 
L 417.810831 506.618182 
L 416.50847 511.854545 
L 416.309959 517.090909 
L 419.204127 522.327273 
L 419.727273 522.648768 
" style="fill:none;stroke:#808080;"/>
    <path clip-path="url(#p349934cdfe)" d="M 460.309091 484.599341 
L 465.381818 482.875312 
L 468.243445 480.436364 
L 470.454545 478.308319 
L 472.061448 475.2 
L 474.809318 469.963636 
L 475.527273 468.676721 
L 477.045517 464.727273 
L 478.859951 459.490909 
L 480.6 455.600356 
L 481.168722 454.254545 
L 483.245472 449.018182 
L 485.672727 445.628982 
L 486.564992 443.781818 
L 489.257494 438.545455 
L 490.745455 436.229875 
L 492.132755 433.309091 
L 494.49016 428.072727 
L 495.818182 424.196373 
L 496.26373 422.836364 
L 495.818182 421.864241 
L 490.745455 422.294239 
L 490.164177 422.836364 
L 485.672727 427.358722 
L 485.188914 428.072727 
L 482.274336 433.309091 
L 480.6 435.993849 
L 479.191298 438.545455 
L 476.457793 443.781818 
L 475.527273 444.892525 
L 472.74769 449.018182 
L 470.454545 451.712501 
L 468.903404 454.254545 
L 465.5547 459.490909 
L 465.381818 459.742906 
L 461.994697 464.727273 
L 460.309091 467.535803 
L 458.912026 469.963636 
L 457.16098 475.2 
L 456.376662 480.436364 
L 460.309091 484.599341 
" style="fill:none;stroke:#808080;"/>
   </g>
   <g id="LineCollection_11">
    <path clip-path="url(#p349934cdfe)" d="M 323.345455 580.188225 
L 328.418182 581.409122 
L 333.490909 580.993357 
L 338.506541 579.927273 
L 338.563636 579.914212 
L 343.636364 577.912325 
L 348.709091 574.716429 
L 348.748639 574.690909 
L 353.781818 570.832559 
L 355.08345 569.454545 
L 358.317906 564.218182 
L 358.854545 562.214755 
L 359.612374 558.981818 
L 359.68972 553.745455 
L 358.854545 549.496834 
L 358.497249 548.509091 
L 353.781818 543.739811 
L 348.709091 544.214056 
L 343.636364 545.266051 
L 338.563636 547.168315 
L 336.812996 548.509091 
L 333.490909 551.015924 
L 330.503846 553.745455 
L 328.418182 555.911315 
L 326.096129 558.981818 
L 323.345455 563.071796 
L 322.726537 564.218182 
L 320.430133 569.454545 
L 319.976197 574.690909 
L 322.988415 579.927273 
L 323.345455 580.188225 
" style="fill:none;stroke:#808080;"/>
    <path clip-path="url(#p349934cdfe)" d="M 389.290909 539.501521 
L 390.964968 538.036364 
L 389.290909 535.164275 
L 388.778042 538.036364 
L 389.290909 539.501521 
" style="fill:none;stroke:#808080;"/>
    <path clip-path="url(#p349934cdfe)" d="M 419.727273 518.840375 
L 424.8 520.008374 
L 427.706162 517.090909 
L 429.872727 514.407843 
L 431.166452 511.854545 
L 433.059492 506.618182 
L 433.470762 501.381818 
L 429.872727 496.286586 
L 424.8 497.520597 
L 421.933099 501.381818 
L 419.727273 505.780276 
L 419.355457 506.618182 
L 418.222354 511.854545 
L 418.673545 517.090909 
L 419.727273 518.840375 
" style="fill:none;stroke:#808080;"/>
    <path clip-path="url(#p349934cdfe)" d="M 460.309091 479.971422 
L 465.381818 479.930594 
L 470.454545 475.227624 
L 470.468826 475.2 
L 472.997969 469.963636 
L 475.527273 465.429927 
L 475.797387 464.727273 
L 477.245707 459.490909 
L 478.669038 454.254545 
L 480.6 450.360967 
L 481.070415 449.018182 
L 483.027617 443.781818 
L 485.672727 441.934466 
L 487.17181 438.545455 
L 490.0012 433.309091 
L 490.745455 432.072646 
L 491.661625 428.072727 
L 490.745455 426.522886 
L 489.171428 428.072727 
L 485.672727 430.967661 
L 484.422081 433.309091 
L 481.944062 438.545455 
L 480.6 440.738362 
L 479.504484 443.781818 
L 475.527273 448.529179 
L 475.197816 449.018182 
L 470.976243 454.254545 
L 470.454545 454.674997 
L 467.648872 459.490909 
L 465.381818 462.795418 
L 464.069029 464.727273 
L 461.222897 469.963636 
L 460.309091 472.783168 
L 459.669337 475.2 
L 460.309091 479.971422 
" style="fill:none;stroke:#808080;"/>
   </g>
   <g id="LineCollection_12">
    <path clip-path="url(#p349934cdfe)" d="M 328.418182 580.441865 
L 333.490909 580.079261 
L 334.20597 579.927273 
L 338.563636 578.930445 
L 343.636364 576.872177 
L 347.094649 574.690909 
L 348.709091 573.290258 
L 353.69856 569.454545 
L 353.781818 569.369053 
L 357.0904 564.218182 
L 358.483547 558.981818 
L 358.387801 553.745455 
L 356.286565 548.509091 
L 353.781818 545.97574 
L 348.709091 546.142101 
L 343.636364 547.040841 
L 339.854511 548.509091 
L 338.563636 548.981986 
L 333.490909 552.856766 
L 332.518372 553.745455 
L 328.418182 558.003303 
L 327.678184 558.981818 
L 324.066173 564.218182 
L 323.345455 565.502787 
L 321.561381 569.454545 
L 321.180431 574.690909 
L 323.345455 578.341343 
L 326.362903 579.927273 
L 328.418182 580.441865 
" style="fill:none;stroke:#808080;"/>
    <path clip-path="url(#p349934cdfe)" d="M 424.8 517.627501 
L 425.334513 517.090909 
L 429.479305 511.854545 
L 429.872727 511.231941 
L 431.44038 506.618182 
L 431.414642 501.381818 
L 429.872727 499.198288 
L 424.8 499.871712 
L 423.678768 501.381818 
L 421.261942 506.618182 
L 420.096319 511.854545 
L 423.333437 517.090909 
L 424.8 517.627501 
" style="fill:none;stroke:#808080;"/>
    <path clip-path="url(#p349934cdfe)" d="M 465.381818 475.076774 
L 470.454545 471.480508 
L 471.18662 469.963636 
L 473.287827 464.727273 
L 475.527273 459.889406 
L 475.631463 459.490909 
L 475.589961 454.254545 
L 475.527273 454.134204 
L 475.436465 454.254545 
L 470.454545 458.269625 
L 469.743045 459.490909 
L 466.752696 464.727273 
L 465.381818 467.392392 
L 464.294036 469.963636 
L 465.381818 475.076774 
" style="fill:none;stroke:#808080;"/>
   </g>
   <g id="LineCollection_13">
    <path clip-path="url(#p349934cdfe)" d="M 323.345455 576.310891 
L 328.418182 579.281454 
L 333.490909 579.013854 
L 338.563636 577.946678 
L 343.636364 575.832029 
L 345.445549 574.690909 
L 348.709091 571.859539 
L 351.83749 569.454545 
L 353.781818 567.458046 
L 355.862895 564.218182 
L 357.223888 558.981818 
L 356.85652 553.745455 
L 354.075882 548.509091 
L 353.781818 548.211669 
L 348.709091 548.070146 
L 345.824661 548.509091 
L 343.636364 548.798653 
L 338.563636 550.656664 
L 334.601917 553.745455 
L 333.490909 554.685437 
L 329.35037 558.981818 
L 328.418182 560.042372 
L 325.472 564.218182 
L 323.345455 568.008525 
L 322.69263 569.454545 
L 322.384665 574.690909 
L 323.345455 576.310891 
" style="fill:none;stroke:#808080;"/>
    <path clip-path="url(#p349934cdfe)" d="M 424.8 514.037976 
L 426.468177 511.854545 
L 429.666623 506.618182 
L 424.8 503.072055 
L 423.283146 506.618182 
L 423.123133 511.854545 
L 424.8 514.037976 
" style="fill:none;stroke:#808080;"/>
   </g>
   <g id="LineCollection_14">
    <path clip-path="url(#p349934cdfe)" d="M 328.418182 577.901463 
L 333.490909 577.918273 
L 338.563636 576.962911 
L 343.636364 574.791881 
L 343.796449 574.690909 
L 348.709091 570.42882 
L 349.976421 569.454545 
L 353.781818 565.547039 
L 354.635389 564.218182 
L 355.964229 558.981818 
L 355.325239 553.745455 
L 353.781818 550.930449 
L 348.709091 550.043463 
L 343.636364 550.475147 
L 338.563636 552.331343 
L 336.74988 553.745455 
L 333.490909 556.502747 
L 331.101761 558.981818 
L 328.418182 562.034939 
L 326.877826 564.218182 
L 323.969602 569.454545 
L 323.751001 574.690909 
L 328.418182 577.901463 
" style="fill:none;stroke:#808080;"/>
   </g>
   <g id="LineCollection_15">
    <path clip-path="url(#p349934cdfe)" d="M 328.418182 576.521472 
L 333.490909 576.822691 
L 338.563636 575.979144 
L 341.566096 574.690909 
L 343.636364 573.375824 
L 348.171671 569.454545 
L 348.709091 568.729564 
L 353.106978 564.218182 
L 353.781818 562.680197 
L 354.70457 558.981818 
L 353.793958 553.745455 
L 353.781818 553.723312 
L 348.709091 552.030126 
L 343.636364 552.15164 
L 339.277091 553.745455 
L 338.563636 554.025262 
L 333.490909 558.320058 
L 332.853153 558.981818 
L 328.418182 564.027505 
L 328.283652 564.218182 
L 325.445419 569.454545 
L 325.757093 574.690909 
L 328.418182 576.521472 
" style="fill:none;stroke:#808080;"/>
   </g>
   <g id="LineCollection_16">
    <path clip-path="url(#p349934cdfe)" d="M 328.418182 575.141481 
L 333.490909 575.727109 
L 338.563636 574.995377 
L 339.273252 574.690909 
L 343.636364 571.919353 
L 346.487133 569.454545 
L 348.709091 566.457115 
L 350.891699 564.218182 
L 352.965559 558.981818 
L 348.709091 554.212499 
L 343.636364 553.852648 
L 338.563636 555.823601 
L 334.839351 558.981818 
L 333.490909 560.263867 
L 330.019039 564.218182 
L 328.418182 566.686243 
L 326.921237 569.454545 
L 327.763185 574.690909 
L 328.418182 575.141481 
" style="fill:none;stroke:#808080;"/>
   </g>
   <g id="LineCollection_17">
    <path clip-path="url(#p349934cdfe)" d="M 328.418182 569.563531 
L 333.490909 574.55324 
L 338.563636 573.570922 
L 343.636364 570.462882 
L 344.802595 569.454545 
L 348.674142 564.218182 
L 348.709091 564.029566 
L 349.913661 558.981818 
L 348.709091 557.632113 
L 343.636364 556.026216 
L 338.563636 557.62194 
L 336.960018 558.981818 
L 333.490909 562.28012 
L 331.789299 564.218182 
L 328.418182 569.415475 
L 328.397055 569.454545 
L 328.418182 569.563531 
" style="fill:none;stroke:#808080;"/>
   </g>
   <g id="LineCollection_18">
    <path clip-path="url(#p349934cdfe)" d="M 333.490909 572.013263 
L 338.563636 571.948947 
L 342.790659 569.454545 
L 343.636364 568.330715 
L 346.304469 564.218182 
L 345.527499 558.981818 
L 343.636364 558.199785 
L 340.612657 558.981818 
L 338.563636 559.620814 
L 333.600628 564.218182 
L 333.490909 564.412288 
L 330.926938 569.454545 
L 333.490909 572.013263 
" style="fill:none;stroke:#808080;"/>
   </g>
   <g id="LineCollection_19">
    <path clip-path="url(#p349934cdfe)" d="M 333.490909 569.473286 
L 338.563636 570.326972 
L 340.042054 569.454545 
L 343.636364 564.678177 
L 343.934797 564.218182 
L 343.636364 563.357433 
L 338.563636 562.241647 
L 336.429903 564.218182 
L 333.490909 569.417615 
L 333.47213 569.454545 
L 333.490909 569.473286 
" style="fill:none;stroke:#808080;"/>
   </g>
   <g id="PathCollection_1">
    <defs>
     <path d="M 0 2.236068 
C 0.593012 2.236068 1.161816 2.000462 1.581139 1.581139 
C 2.000462 1.161816 2.236068 0.593012 2.236068 0 
C 2.236068 -0.593012 2.000462 -1.161816 1.581139 -1.581139 
C 1.161816 -2.000462 0.593012 -2.236068 0 -2.236068 
C -0.593012 -2.236068 -1.161816 -2.000462 -1.581139 -1.581139 
C -2.000462 -1.161816 -2.236068 -0.593012 -2.236068 0 
C -2.236068 0.593012 -2.000462 1.161816 -1.581139 1.581139 
C -1.161816 2.000462 -0.593012 2.236068 0 2.236068 
z
" id="m43b7ec0465" style="stroke:#000000;"/>
    </defs>
    <g clip-path="url(#p349934cdfe)">
     <use style="stroke:#000000;" x="449.045383031" xlink:href="#m43b7ec0465" y="321.481199429"/>
    </g>
   </g>
   <g id="PathCollection_2">
    <g clip-path="url(#p349934cdfe)">
     <use style="stroke:#000000;" x="401.345462024" xlink:href="#m43b7ec0465" y="531.817184644"/>
    </g>
   </g>
   <g id="PathCollection_3">
    <g clip-path="url(#p349934cdfe)">
     <use style="stroke:#000000;" x="477.280223981" xlink:href="#m43b7ec0465" y="412.866254165"/>
    </g>
   </g>
   <g id="PathCollection_4">
    <g clip-path="url(#p349934cdfe)">
     <use style="stroke:#000000;" x="454.785794381" xlink:href="#m43b7ec0465" y="498.756370364"/>
    </g>
   </g>
   <g id="PathCollection_5">
    <g clip-path="url(#p349934cdfe)">
     <use style="stroke:#000000;" x="354.933036281" xlink:href="#m43b7ec0465" y="394.237762238"/>
    </g>
   </g>
   <g id="PathCollection_6">
    <g clip-path="url(#p349934cdfe)">
     <use style="stroke:#000000;" x="504.550471032" xlink:href="#m43b7ec0465" y="373.756548536"/>
    </g>
   </g>
   <g id="PathCollection_7">
    <g clip-path="url(#p349934cdfe)">
     <use style="stroke:#000000;" x="462.292697846" xlink:href="#m43b7ec0465" y="371.86013986"/>
    </g>
   </g>
   <g id="PathCollection_8">
    <g clip-path="url(#p349934cdfe)">
     <use style="stroke:#000000;" x="272.506051018" xlink:href="#m43b7ec0465" y="571.910203073"/>
    </g>
   </g>
   <g id="PathCollection_9">
    <g clip-path="url(#p349934cdfe)">
     <use style="stroke:#000000;" x="442.838957567" xlink:href="#m43b7ec0465" y="330.504027618"/>
    </g>
   </g>
   <g id="PathCollection_10">
    <g clip-path="url(#p349934cdfe)">
     <use style="stroke:#000000;" x="254.657264159" xlink:href="#m43b7ec0465" y="566.865134865"/>
    </g>
   </g>
   <g id="PathCollection_11">
    <g clip-path="url(#p349934cdfe)">
     <use style="stroke:#000000;" x="451.455034539" xlink:href="#m43b7ec0465" y="471.551917277"/>
    </g>
   </g>
   <g id="PathCollection_12">
    <g clip-path="url(#p349934cdfe)">
     <use style="stroke:#000000;" x="382.309186779" xlink:href="#m43b7ec0465" y="503.931221143"/>
    </g>
   </g>
   <g id="PathCollection_13">
    <g clip-path="url(#p349934cdfe)">
     <use style="stroke:#000000;" x="303.185889172" xlink:href="#m43b7ec0465" y="473.291418862"/>
    </g>
   </g>
   <g id="PathCollection_14">
    <g clip-path="url(#p349934cdfe)">
     <use style="stroke:#000000;" x="329.613174372" xlink:href="#m43b7ec0465" y="487.447032307"/>
    </g>
   </g>
   <g id="PathCollection_15">
    <g clip-path="url(#p349934cdfe)">
     <use style="stroke:#000000;" x="274.013996008" xlink:href="#m43b7ec0465" y="440.254653359"/>
    </g>
   </g>
   <g id="PathCollection_16">
    <g clip-path="url(#p349934cdfe)">
     <use style="stroke:#000000;" x="306.540018409" xlink:href="#m43b7ec0465" y="417.225336844"/>
    </g>
   </g>
   <g id="PathCollection_17">
    <g clip-path="url(#p349934cdfe)">
     <use style="stroke:#000000;" x="282.632292646" xlink:href="#m43b7ec0465" y="470.812439051"/>
    </g>
   </g>
   <g id="PathCollection_18">
    <g clip-path="url(#p349934cdfe)">
     <use style="stroke:#000000;" x="342.020747215" xlink:href="#m43b7ec0465" y="471.551917277"/>
    </g>
   </g>
   <g id="PathCollection_19">
    <g clip-path="url(#p349934cdfe)">
     <use style="stroke:#000000;" x="335.669336593" xlink:href="#m43b7ec0465" y="443.637419185"/>
    </g>
   </g>
   <g id="PathCollection_20">
    <g clip-path="url(#p349934cdfe)">
     <use style="stroke:#000000;" x="250.148845225" xlink:href="#m43b7ec0465" y="482.905176632"/>
    </g>
   </g>
   <g id="PathCollection_21">
    <g clip-path="url(#p349934cdfe)">
     <use style="stroke:#000000;" x="256.205007446" xlink:href="#m43b7ec0465" y="487.447032307"/>
    </g>
   </g>
   <g id="PathCollection_22">
    <g clip-path="url(#p349934cdfe)">
     <use style="stroke:#000000;" x="231.052767604" xlink:href="#m43b7ec0465" y="349.797695262"/>
    </g>
   </g>
   <g id="PathCollection_23">
    <g clip-path="url(#p349934cdfe)">
     <use style="stroke:#000000;" x="190.865685697" xlink:href="#m43b7ec0465" y="498.666666667"/>
    </g>
   </g>
   <g id="PathCollection_24">
    <g clip-path="url(#p349934cdfe)">
     <use style="stroke:#000000;" x="213.122372476" xlink:href="#m43b7ec0465" y="503.770334928"/>
    </g>
   </g>
   <g id="PathCollection_25">
    <g clip-path="url(#p349934cdfe)">
     <use style="stroke:#000000;" x="228.219755017" xlink:href="#m43b7ec0465" y="498.666666667"/>
    </g>
   </g>
   <g id="PathCollection_26">
    <g clip-path="url(#p349934cdfe)">
     <use style="stroke:#000000;" x="419.276817378" xlink:href="#m43b7ec0465" y="403.122994652"/>
    </g>
   </g>
   <g id="PathCollection_27">
    <g clip-path="url(#p349934cdfe)">
     <use style="stroke:#000000;" x="357.871426252" xlink:href="#m43b7ec0465" y="438.151742994"/>
    </g>
   </g>
   <g id="PathCollection_28">
    <g clip-path="url(#p349934cdfe)">
     <use style="stroke:#000000;" x="276.193565552" xlink:href="#m43b7ec0465" y="523.009960913"/>
    </g>
   </g>
   <g id="PathCollection_29">
    <g clip-path="url(#p349934cdfe)">
     <use style="stroke:#000000;" x="407.562902753" xlink:href="#m43b7ec0465" y="435.747397641"/>
    </g>
   </g>
   <g id="PathCollection_30">
    <g clip-path="url(#p349934cdfe)">
     <use style="stroke:#000000;" x="223.698869379" xlink:href="#m43b7ec0465" y="327.791676354"/>
    </g>
   </g>
   <g id="text_15">
    <text style="font-family:Arial;font-size:9.0px;font-style:normal;font-weight:400;text-anchor:start;" transform="rotate(-0.000000, 452.089019, 318.339381)" x="452.089019394" y="318.339381247">3E-15</text>
   </g>
   <g id="text_16">
    <text style="font-family:Arial;font-size:9.0px;font-style:normal;font-weight:400;text-anchor:start;" transform="rotate(-0.000000, 404.389098, 528.675366)" x="404.389098388" y="528.675366462">2E-03</text>
   </g>
   <g id="text_17">
    <text style="font-family:Arial;font-size:9.0px;font-style:normal;font-weight:400;text-anchor:start;" transform="rotate(-0.000000, 480.323860, 409.724436)" x="480.323860344" y="409.724435983">4E-04</text>
   </g>
   <g id="text_18">
    <text style="font-family:Arial;font-size:9.0px;font-style:normal;font-weight:400;text-anchor:start;" transform="rotate(-0.000000, 457.829431, 495.614552)" x="457.829430744" y="495.614552182">2E-03</text>
   </g>
   <g id="text_19">
    <text style="font-family:Arial;font-size:9.0px;font-style:normal;font-weight:400;text-anchor:start;" transform="rotate(-0.000000, 357.976673, 391.095944)" x="357.976672644" y="391.095944056">7E-13</text>
   </g>
   <g id="text_20">
    <text style="font-family:Arial;font-size:9.0px;font-style:normal;font-weight:400;text-anchor:start;" transform="rotate(-0.000000, 507.594107, 370.614730)" x="507.594107396" y="370.614730354">9E-05</text>
   </g>
   <g id="text_21">
    <text style="font-family:Arial;font-size:9.0px;font-style:normal;font-weight:400;text-anchor:start;" transform="rotate(-0.000000, 465.336334, 368.718322)" x="465.336334209" y="368.718321678">8E-06</text>
   </g>
   <g id="text_22">
    <text style="font-family:Arial;font-size:9.0px;font-style:normal;font-weight:400;text-anchor:start;" transform="rotate(-0.000000, 275.549687, 568.768385)" x="275.549687381" y="568.768384891">1E-04</text>
   </g>
   <g id="text_23">
    <text style="font-family:Arial;font-size:9.0px;font-style:normal;font-weight:400;text-anchor:start;" transform="rotate(-0.000000, 445.882594, 327.362209)" x="445.882593931" y="327.362209436">2E-12</text>
   </g>
   <g id="text_24">
    <text style="font-family:Arial;font-size:9.0px;font-style:normal;font-weight:400;text-anchor:start;" transform="rotate(-0.000000, 257.700901, 563.723317)" x="257.700900522" y="563.723316683">7E-05</text>
   </g>
   <g id="text_25">
    <text style="font-family:Arial;font-size:9.0px;font-style:normal;font-weight:400;text-anchor:start;" transform="rotate(-0.000000, 454.498671, 468.410099)" x="454.498670902" y="468.410099095">1E-03</text>
   </g>
   <g id="text_26">
    <text style="font-family:Arial;font-size:9.0px;font-style:normal;font-weight:400;text-anchor:start;" transform="rotate(-0.000000, 385.352823, 500.789403)" x="385.352823142" y="500.789402961">6E-04</text>
   </g>
   <g id="text_27">
    <text style="font-family:Arial;font-size:9.0px;font-style:normal;font-weight:400;text-anchor:start;" transform="rotate(-0.000000, 306.229526, 470.149601)" x="306.229525535" y="470.14960068">2E-05</text>
   </g>
   <g id="text_28">
    <text style="font-family:Arial;font-size:9.0px;font-style:normal;font-weight:400;text-anchor:start;" transform="rotate(-0.000000, 332.656811, 484.305214)" x="332.656810736" y="484.305214125">6E-05</text>
   </g>
   <g id="text_29">
    <text style="font-family:Arial;font-size:9.0px;font-style:normal;font-weight:400;text-anchor:start;" transform="rotate(-0.000000, 277.057632, 437.112835)" x="277.057632372" y="437.112835177">2E-16</text>
   </g>
   <g id="text_30">
    <text style="font-family:Arial;font-size:9.0px;font-style:normal;font-weight:400;text-anchor:start;" transform="rotate(-0.000000, 309.583655, 414.083519)" x="309.583654772" y="414.083518662">7E-17</text>
   </g>
   <g id="text_31">
    <text style="font-family:Arial;font-size:9.0px;font-style:normal;font-weight:400;text-anchor:start;" transform="rotate(-0.000000, 285.675929, 467.670621)" x="285.67592901" y="467.670620869">7E-06</text>
   </g>
   <g id="text_32">
    <text style="font-family:Arial;font-size:9.0px;font-style:normal;font-weight:400;text-anchor:start;" transform="rotate(-0.000000, 345.064384, 468.410099)" x="345.064383579" y="468.410099095">3E-05</text>
   </g>
   <g id="text_33">
    <text style="font-family:Arial;font-size:9.0px;font-style:normal;font-weight:400;text-anchor:start;" transform="rotate(-0.000000, 338.712973, 440.495601)" x="338.712972957" y="440.495601003">8E-06</text>
   </g>
   <g id="text_34">
    <text style="font-family:Arial;font-size:9.0px;font-style:normal;font-weight:400;text-anchor:start;" transform="rotate(-0.000000, 253.192482, 479.763358)" x="253.192481588" y="479.76335845">5E-06</text>
   </g>
   <g id="text_35">
    <text style="font-family:Arial;font-size:9.0px;font-style:normal;font-weight:400;text-anchor:start;" transform="rotate(-0.000000, 259.248644, 484.305214)" x="259.24864381" y="484.305214125">9E-06</text>
   </g>
   <g id="text_36">
    <text style="font-family:Arial;font-size:9.0px;font-style:normal;font-weight:400;text-anchor:start;" transform="rotate(-0.000000, 234.096404, 346.655877)" x="234.096403968" y="346.655877081">3E-147</text>
   </g>
   <g id="text_37">
    <text style="font-family:Arial;font-size:9.0px;font-style:normal;font-weight:400;text-anchor:start;" transform="rotate(-0.000000, 193.909322, 495.524848)" x="193.909322061" y="495.524848485">6E-25</text>
   </g>
   <g id="text_38">
    <text style="font-family:Arial;font-size:9.0px;font-style:normal;font-weight:400;text-anchor:start;" transform="rotate(-0.000000, 216.166009, 500.628517)" x="216.16600884" y="500.628516746">7E-14</text>
   </g>
   <g id="text_39">
    <text style="font-family:Arial;font-size:9.0px;font-style:normal;font-weight:400;text-anchor:start;" transform="rotate(-0.000000, 231.263391, 495.524848)" x="231.263391381" y="495.524848485">7E-09</text>
   </g>
   <g id="text_40">
    <text style="font-family:Arial;font-size:9.0px;font-style:normal;font-weight:400;text-anchor:start;" transform="rotate(-0.000000, 422.320454, 399.981176)" x="422.320453742" y="399.981176471">3E-05</text>
   </g>
   <g id="text_41">
    <text style="font-family:Arial;font-size:9.0px;font-style:normal;font-weight:400;text-anchor:start;" transform="rotate(-0.000000, 360.915063, 435.009925)" x="360.915062616" y="435.009924812">1E-05</text>
   </g>
   <g id="text_42">
    <text style="font-family:Arial;font-size:9.0px;font-style:normal;font-weight:400;text-anchor:start;" transform="rotate(-0.000000, 279.237202, 519.868143)" x="279.237201916" y="519.868142731">5E-05</text>
   </g>
   <g id="text_43">
    <text style="font-family:Arial;font-size:9.0px;font-style:normal;font-weight:400;text-anchor:start;" transform="rotate(-0.000000, 410.606539, 432.605579)" x="410.606539116" y="432.605579459">6E-05</text>
   </g>
   <g id="text_44">
    <text style="font-family:Arial;font-size:9.0px;font-style:normal;font-weight:400;text-anchor:start;" transform="rotate(-0.000000, 226.742506, 324.649858)" x="226.742505743" y="324.649858173">7E-199</text>
   </g>
  </g>
 </g>
 <defs>
  <clipPath id="p349934cdfe">
   <rect height="576.0" width="558.0" x="90.0" y="72.0"/>
  </clipPath>
 </defs>
</svg>
