<?xml version="1.0" encoding="utf-8" standalone="no"?>
<!DOCTYPE svg PUBLIC "-//W3C//DTD SVG 1.1//EN"
  "http://www.w3.org/Graphics/SVG/1.1/DTD/svg11.dtd">
<!-- Created with matplotlib (http://matplotlib.org/) -->
<svg height="720pt" version="1.1" viewBox="0 0 720 720" width="720pt" xmlns="http://www.w3.org/2000/svg" xmlns:xlink="http://www.w3.org/1999/xlink">
 <defs>
  <style type="text/css">
*{stroke-linecap:butt;stroke-linejoin:round;stroke-miterlimit:100000;}
  </style>
 </defs>
 <g id="figure_1">
  <g id="patch_1">
   <path d="M 0 720 
L 720 720 
L 720 0 
L 0 0 
z
" style="fill:#ffffff;"/>
  </g>
  <g id="axes_1">
   <g id="patch_2">
    <path d="M 90 648 
L 648 648 
L 648 72 
L 90 72 
z
" style="fill:#ffffff;"/>
   </g>
   <g id="patch_3">
    <path d="M 90 72 
L 648 72 
" style="fill:none;"/>
   </g>
   <g id="patch_4">
    <path d="M 648 648 
L 648 72 
" style="fill:none;"/>
   </g>
   <g id="patch_5">
    <path d="M 90 658 
L 648 658 
" style="fill:none;stroke:#000000;stroke-linecap:square;stroke-linejoin:miter;stroke-width:0.75;"/>
   </g>
   <g id="patch_6">
    <path d="M 80 648 
L 80 72 
" style="fill:none;stroke:#000000;stroke-linecap:square;stroke-linejoin:miter;stroke-width:0.75;"/>
   </g>
   <g id="matplotlib.axis_1">
    <g id="xtick_1">
     <g id="line2d_1">
      <defs>
       <path d="M 0 0 
L 0 -4 
" id="m34c36e3eed" style="stroke:#000000;stroke-width:0.75;"/>
      </defs>
      <g>
       <use style="stroke:#000000;stroke-width:0.75;" x="90.0" xlink:href="#m34c36e3eed" y="658.0"/>
      </g>
     </g>
     <g id="text_1">
      <text style="font-family:Arial;font-size:9.0px;font-style:normal;font-weight:400;text-anchor:middle;" transform="rotate(-0.000000, 90.000000, 668.442031)" x="90.0" y="668.44203125">−2</text>
     </g>
    </g>
    <g id="xtick_2">
     <g id="line2d_2">
      <g>
       <use style="stroke:#000000;stroke-width:0.75;" x="191.454545455" xlink:href="#m34c36e3eed" y="658.0"/>
      </g>
     </g>
     <g id="text_2">
      <text style="font-family:Arial;font-size:9.0px;font-style:normal;font-weight:400;text-anchor:middle;" transform="rotate(-0.000000, 191.454545, 668.442031)" x="191.454545455" y="668.44203125">−1</text>
     </g>
    </g>
    <g id="xtick_3">
     <g id="line2d_3">
      <g>
       <use style="stroke:#000000;stroke-width:0.75;" x="292.909090909" xlink:href="#m34c36e3eed" y="658.0"/>
      </g>
     </g>
     <g id="text_3">
      <text style="font-family:Arial;font-size:9.0px;font-style:normal;font-weight:400;text-anchor:middle;" transform="rotate(-0.000000, 292.909091, 668.442031)" x="292.909090909" y="668.44203125">0</text>
     </g>
    </g>
    <g id="xtick_4">
     <g id="line2d_4">
      <g>
       <use style="stroke:#000000;stroke-width:0.75;" x="394.363636364" xlink:href="#m34c36e3eed" y="658.0"/>
      </g>
     </g>
     <g id="text_4">
      <text style="font-family:Arial;font-size:9.0px;font-style:normal;font-weight:400;text-anchor:middle;" transform="rotate(-0.000000, 394.363636, 668.442031)" x="394.363636364" y="668.44203125">1</text>
     </g>
    </g>
    <g id="xtick_5">
     <g id="line2d_5">
      <g>
       <use style="stroke:#000000;stroke-width:0.75;" x="495.818181818" xlink:href="#m34c36e3eed" y="658.0"/>
      </g>
     </g>
     <g id="text_5">
      <text style="font-family:Arial;font-size:9.0px;font-style:normal;font-weight:400;text-anchor:middle;" transform="rotate(-0.000000, 495.818182, 668.442031)" x="495.818181818" y="668.44203125">2</text>
     </g>
    </g>
    <g id="xtick_6">
     <g id="line2d_6">
      <g>
       <use style="stroke:#000000;stroke-width:0.75;" x="597.272727273" xlink:href="#m34c36e3eed" y="658.0"/>
      </g>
     </g>
     <g id="text_6">
      <text style="font-family:Arial;font-size:9.0px;font-style:normal;font-weight:400;text-anchor:middle;" transform="rotate(-0.000000, 597.272727, 668.442031)" x="597.272727273" y="668.44203125">3</text>
     </g>
    </g>
    <g id="text_7">
     <text style="font-family:Arial;font-size:9.0px;font-style:normal;font-weight:400;text-anchor:middle;" transform="rotate(-0.000000, 369.000000, 681.782500)" x="369.0" y="681.7825">windspeed along trajectory, m/s</text>
    </g>
   </g>
   <g id="matplotlib.axis_2">
    <g id="ytick_1">
     <g id="line2d_7">
      <defs>
       <path d="M 0 0 
L 4 0 
" id="m6287007742" style="stroke:#000000;stroke-width:0.75;"/>
      </defs>
      <g>
       <use style="stroke:#000000;stroke-width:0.75;" x="80.0" xlink:href="#m6287007742" y="595.636363636"/>
      </g>
     </g>
     <g id="text_8">
      <text style="font-family:Arial;font-size:9.0px;font-style:normal;font-weight:400;text-anchor:end;" transform="rotate(-0.000000, 76.000000, 597.963004)" x="76.0" y="597.963004261">0</text>
     </g>
    </g>
    <g id="ytick_2">
     <g id="line2d_8">
      <g>
       <use style="stroke:#000000;stroke-width:0.75;" x="80.0" xlink:href="#m6287007742" y="490.909090909"/>
      </g>
     </g>
     <g id="text_9">
      <text style="font-family:Arial;font-size:9.0px;font-style:normal;font-weight:400;text-anchor:end;" transform="rotate(-0.000000, 76.000000, 493.235732)" x="76.0" y="493.235731534">1</text>
     </g>
    </g>
    <g id="ytick_3">
     <g id="line2d_9">
      <g>
       <use style="stroke:#000000;stroke-width:0.75;" x="80.0" xlink:href="#m6287007742" y="386.181818182"/>
      </g>
     </g>
     <g id="text_10">
      <text style="font-family:Arial;font-size:9.0px;font-style:normal;font-weight:400;text-anchor:end;" transform="rotate(-0.000000, 76.000000, 388.508459)" x="76.0" y="388.508458807">2</text>
     </g>
    </g>
    <g id="ytick_4">
     <g id="line2d_10">
      <g>
       <use style="stroke:#000000;stroke-width:0.75;" x="80.0" xlink:href="#m6287007742" y="281.454545455"/>
      </g>
     </g>
     <g id="text_11">
      <text style="font-family:Arial;font-size:9.0px;font-style:normal;font-weight:400;text-anchor:end;" transform="rotate(-0.000000, 76.000000, 283.781186)" x="76.0" y="283.78118608">3</text>
     </g>
    </g>
    <g id="ytick_5">
     <g id="line2d_11">
      <g>
       <use style="stroke:#000000;stroke-width:0.75;" x="80.0" xlink:href="#m6287007742" y="176.727272727"/>
      </g>
     </g>
     <g id="text_12">
      <text style="font-family:Arial;font-size:9.0px;font-style:normal;font-weight:400;text-anchor:end;" transform="rotate(-0.000000, 76.000000, 179.053913)" x="76.0" y="179.053913352">4</text>
     </g>
    </g>
    <g id="ytick_6">
     <g id="line2d_12">
      <g>
       <use style="stroke:#000000;stroke-width:0.75;" x="80.0" xlink:href="#m6287007742" y="72.0"/>
      </g>
     </g>
     <g id="text_13">
      <text style="font-family:Arial;font-size:9.0px;font-style:normal;font-weight:400;text-anchor:end;" transform="rotate(-0.000000, 76.000000, 74.326641)" x="76.0" y="74.326640625">5</text>
     </g>
    </g>
    <g id="text_14">
     <text style="font-family:Arial;font-size:9.0px;font-style:normal;font-weight:400;text-anchor:middle;" transform="rotate(-90.000000, 64.100937, 360.000000)" x="64.1009375" y="360.0">groundspeed along trajectory, m/s</text>
    </g>
   </g>
   <g id="LineCollection_1">
    <path clip-path="url(#pf6a3219674)" d="M 313.2 590.437809 
L 318.272727 591.610067 
L 333.490909 592.617772 
L 338.563636 592.650179 
L 343.636364 591.824917 
L 347.022093 590.4 
L 348.709091 590.065486 
L 353.781818 588.247091 
L 358.854545 584.696053 
L 363.927273 582.257342 
L 369 580.94061 
L 374.072727 579.857724 
L 379.145455 579.396521 
L 384.218182 579.446096 
L 389.290909 579.361882 
L 394.363636 578.269408 
L 400.119366 574.690909 
L 404.509091 571.649179 
L 408.486018 569.454545 
L 409.581818 569.003469 
L 414.654545 568.342118 
L 419.727273 568.243058 
L 424.8 566.831149 
L 429.872727 563.344036 
L 434.945455 558.603775 
L 440.018182 554.895329 
L 445.090909 552.71382 
L 450.163636 551.048312 
L 455.236364 550.108811 
L 460.309091 547.767596 
L 470.454545 541.748017 
L 474.141471 538.036364 
L 475.527273 536.377994 
L 478.967473 532.8 
L 480.6 531.616452 
L 485.672727 527.437719 
L 490.745455 521.440302 
L 495.818182 516.798684 
L 500.890909 514.898967 
L 505.963636 513.571989 
L 507.438554 511.854545 
L 510.09952 506.618182 
L 512.526258 496.145455 
L 514.135326 490.909091 
L 514.98996 485.672727 
L 514.500323 480.436364 
L 514.135296 475.2 
L 514.612207 469.963636 
L 515.282311 464.727273 
L 515.666746 454.254545 
L 516.317761 449.018182 
L 518.529188 438.545455 
L 519.030714 433.309091 
L 519.137425 428.072727 
L 518.728429 412.363636 
L 518.90247 407.127273 
L 519.687453 401.890909 
L 520.320445 396.654545 
L 519.775301 391.418182 
L 517.444591 386.181818 
L 516.109091 384.662697 
L 511.036364 383.231691 
L 505.963636 384.679645 
L 503.761936 386.181818 
L 500.890909 387.756607 
L 495.818182 392.359768 
L 490.563933 396.654545 
L 485.672727 400.165361 
L 480.6 404.426893 
L 477.655141 407.127273 
L 472.542145 412.363636 
L 470.454545 415.033771 
L 467.957916 417.6 
L 465.381818 421.332673 
L 462.941674 422.836364 
L 460.309091 424.258515 
L 454.906745 428.072727 
L 450.158406 433.309091 
L 446.80837 438.545455 
L 445.090909 440.33248 
L 434.945455 441.565639 
L 429.872727 444.544091 
L 416.46119 454.254545 
L 414.654545 455.159149 
L 409.581818 457.975703 
L 404.509091 459.935915 
L 399.436364 461.31117 
L 394.363636 463.165604 
L 390.877567 464.727273 
L 389.290909 465.230323 
L 384.218182 467.439256 
L 381.000129 469.963636 
L 379.145455 471.655963 
L 374.072727 475.472594 
L 369 476.981858 
L 358.854545 480.513389 
L 348.709091 484.671756 
L 343.636364 485.327266 
L 338.563636 485.814605 
L 333.490909 487.315069 
L 328.418182 489.5703 
L 324.68177 490.909091 
L 323.345455 493.800405 
L 322.938725 496.145455 
L 318.176184 501.381818 
L 313.2 503.438702 
L 309.736068 506.618182 
L 308.127273 509.013118 
L 306.598926 511.854545 
L 303.054545 515.106589 
L 297.981818 517.493256 
L 292.909091 519.515624 
L 288.898559 522.327273 
L 287.836364 523.54387 
L 285.059228 527.563636 
L 282.763636 532.256194 
L 282.285378 532.8 
L 277.690909 535.953773 
L 274.441421 538.036364 
L 272.618182 539.063781 
L 267.545455 542.095211 
L 264.493153 543.272727 
L 262.472727 543.862666 
L 257.4 544.208172 
L 252.327273 547.260783 
L 251.871825 548.509091 
L 251.365886 553.745455 
L 247.214255 558.981818 
L 244.988071 564.218182 
L 245.669896 569.454545 
L 247.254545 572.643443 
L 248.781569 574.690909 
L 252.327273 576.808604 
L 257.4 577.551316 
L 262.472727 577.851855 
L 267.545455 578.951628 
L 270.06316 579.927273 
L 272.618182 580.74218 
L 282.763636 583.428209 
L 292.909091 585.921957 
L 303.054545 587.950183 
L 313.2 590.437809 
L 313.2 590.437809 
" style="fill:none;stroke:#808080;"/>
   </g>
   <g id="LineCollection_2">
    <path clip-path="url(#pf6a3219674)" d="M 308.127273 585.276963 
L 313.2 587.567708 
L 318.272727 588.682804 
L 328.418182 589.399161 
L 333.490909 589.697104 
L 338.563636 589.734689 
L 343.636364 589.224095 
L 348.709091 587.777693 
L 353.781818 584.701502 
L 358.854545 580.845937 
L 363.927273 577.563817 
L 369 576.20415 
L 374.072727 575.26123 
L 379.145455 574.877983 
L 384.218182 575.302762 
L 389.290909 575.173649 
L 394.363636 573.419731 
L 404.509091 565.550259 
L 407.683911 564.218182 
L 409.581818 563.584544 
L 419.727273 562.62143 
L 424.8 560.559499 
L 426.977492 558.981818 
L 429.872727 556.631491 
L 434.945455 551.651885 
L 445.090909 544.271888 
L 450.163636 541.801172 
L 455.236364 540.023861 
L 460.309091 537.251518 
L 465.381818 535.333447 
L 468.682286 532.8 
L 470.454545 531.634359 
L 475.527273 527.384491 
L 480.98437 522.327273 
L 484.882812 517.090909 
L 485.672727 515.653952 
L 488.278741 511.854545 
L 490.745455 507.732198 
L 491.617391 506.618182 
L 495.818182 500.102961 
L 499.189126 496.145455 
L 500.890909 494.321281 
L 503.496995 490.909091 
L 505.608283 485.672727 
L 506.169723 480.436364 
L 505.300567 469.963636 
L 505.279834 464.727273 
L 505.705953 459.490909 
L 505.963636 458.516987 
L 507.225998 454.254545 
L 509.044873 449.018182 
L 511.864406 438.545455 
L 512.859096 433.309091 
L 513.27288 428.072727 
L 513.213122 417.6 
L 513.33925 412.363636 
L 512.933897 407.127273 
L 512.642787 401.890909 
L 512.160093 396.654545 
L 511.036364 394.799338 
L 505.963636 393.711962 
L 500.635285 396.654545 
L 494.543425 401.890909 
L 487.761103 407.127273 
L 485.672727 408.853156 
L 480.6 414.159651 
L 475.527273 419.382711 
L 472.954946 422.836364 
L 470.454545 427.379718 
L 469.907554 428.072727 
L 465.381818 432.897647 
L 464.806781 433.309091 
L 460.309091 436.9052 
L 458.586849 438.545455 
L 454.949544 443.781818 
L 451.382161 449.018182 
L 450.163636 450.291351 
L 445.090909 453.753356 
L 443.497685 454.254545 
L 434.945455 456.314831 
L 429.872727 458.662123 
L 428.699008 459.490909 
L 418.226275 464.727273 
L 414.654545 466.730351 
L 409.581818 470.324095 
L 404.509091 473.006584 
L 399.436364 474.672247 
L 394.363636 474.836388 
L 389.290909 476.002854 
L 384.218182 480.621692 
L 379.145455 484.679454 
L 376.967661 485.672727 
L 374.072727 487.465299 
L 370.930758 490.909091 
L 369.281312 496.145455 
L 369 496.574775 
L 363.927273 499.714391 
L 358.854545 499.501268 
L 353.781818 497.985986 
L 348.709091 496.644635 
L 343.636364 495.862563 
L 342.25478 496.145455 
L 338.563636 496.705792 
L 333.490909 499.585424 
L 331.578898 501.381818 
L 327.29721 506.618182 
L 323.345455 512.137306 
L 318.272727 515.810079 
L 313.2 520.267194 
L 311.396448 522.327273 
L 308.127273 525.829628 
L 303.054545 530.025969 
L 297.936992 532.8 
L 294.034612 538.036364 
L 292.909091 540.378501 
L 291.254742 543.272727 
L 287.836364 547.604371 
L 286.495053 548.509091 
L 280.878982 553.745455 
L 278.745947 558.981818 
L 279.888488 564.218182 
L 282.763636 568.488431 
L 283.17496 569.454545 
L 286.761481 574.690909 
L 287.836364 575.464832 
L 294.481026 579.927273 
L 297.981818 581.31439 
L 303.054545 583.197947 
L 308.127273 585.276963 
L 308.127273 585.276963 
" style="fill:none;stroke:#808080;"/>
   </g>
   <g id="LineCollection_3">
    <path clip-path="url(#pf6a3219674)" d="M 318.272727 586.452819 
L 323.345455 587.130957 
L 328.418182 587.707349 
L 333.490909 588.185973 
L 338.563636 588.259851 
L 343.636364 587.559802 
L 349.240686 585.163636 
L 353.781818 582.583989 
L 356.938735 579.927273 
L 358.854545 577.631136 
L 363.927273 573.766594 
L 369 572.141927 
L 374.072727 571.070024 
L 379.145455 571.056021 
L 384.218182 571.839831 
L 389.290909 571.68035 
L 394.363636 569.285206 
L 399.858821 564.218182 
L 404.509091 560.864034 
L 409.581818 559.191882 
L 414.654545 558.855081 
L 419.727273 558.054687 
L 424.8 555.229081 
L 426.545802 553.745455 
L 432.058766 548.509091 
L 434.945455 546.257353 
L 438.430641 543.272727 
L 440.018182 541.378828 
L 443.447708 538.036364 
L 445.090909 536.14489 
L 451.515594 532.8 
L 455.236364 530.520913 
L 460.524549 527.563636 
L 465.381818 526.414671 
L 470.454545 524.162297 
L 475.527273 520.163124 
L 478.0837 517.090909 
L 481.34721 511.854545 
L 485.672727 501.979465 
L 486.072738 501.381818 
L 490.745455 494.180108 
L 493.198485 490.909091 
L 496.5399 485.672727 
L 497.452311 480.436364 
L 497.321076 475.2 
L 497.511044 469.963636 
L 498.231261 464.727273 
L 499.311555 459.490909 
L 500.890909 453.697125 
L 502.624994 449.018182 
L 504.293858 443.781818 
L 505.963636 436.959476 
L 506.959547 433.309091 
L 507.886186 428.072727 
L 507.867977 417.6 
L 507.957775 412.363636 
L 506.35633 407.127273 
L 505.963636 406.269079 
L 500.890909 406.13387 
L 499.396901 407.127273 
L 490.745455 411.254112 
L 489.456175 412.363636 
L 485.672727 415.45713 
L 483.543728 417.6 
L 480.6 420.27271 
L 478.151844 422.836364 
L 475.527273 425.973071 
L 474.147014 428.072727 
L 470.454545 434.081991 
L 465.381818 439.730632 
L 460.309091 445.633404 
L 457.776865 449.018182 
L 452.869668 454.254545 
L 450.163636 456.668721 
L 445.89155 459.490909 
L 445.090909 460.184768 
L 434.945455 465.933423 
L 429.872727 467.160553 
L 424.8 468.569517 
L 419.727273 470.853312 
L 414.654545 474.227134 
L 413.418388 475.2 
L 409.581818 478.639471 
L 404.509091 482.103016 
L 399.436364 483.944783 
L 394.363636 484.586918 
L 389.290909 486.633654 
L 383.519917 490.909091 
L 379.145455 494.48104 
L 377.852766 496.145455 
L 375.131382 501.381818 
L 374.072727 503.136815 
L 369 506.676919 
L 363.927273 508.516884 
L 358.854545 508.693452 
L 353.781818 506.186144 
L 348.709091 504.003145 
L 343.636364 503.073499 
L 338.563636 503.745226 
L 333.490909 507.342837 
L 330.098856 511.854545 
L 323.345455 519.420153 
L 318.272727 523.741795 
L 313.2 528.28318 
L 308.127273 533.793299 
L 303.73372 538.036364 
L 299.702958 543.272727 
L 297.14235 548.509091 
L 293.228593 558.981818 
L 292.909091 560.075853 
L 291.378409 564.218182 
L 293.099702 569.454545 
L 297.981818 574.053339 
L 298.426288 574.690909 
L 303.054545 578.579301 
L 304.36666 579.927273 
L 308.127273 582.07384 
L 313.2 584.807499 
L 318.272727 586.452819 
L 318.272727 586.452819 
" style="fill:none;stroke:#808080;"/>
   </g>
   <g id="LineCollection_4">
    <path clip-path="url(#pf6a3219674)" d="M 323.345455 585.194848 
L 328.418182 586.015537 
L 333.490909 586.674842 
L 338.563636 586.785014 
L 343.636364 585.89551 
L 345.356096 585.163636 
L 348.709091 584.03105 
L 354.422542 579.927273 
L 358.854545 574.611073 
L 363.927273 570.224227 
L 366.001137 569.454545 
L 369 567.75229 
L 374.072727 566.367043 
L 379.145455 567.073264 
L 384.218182 568.427201 
L 389.290909 568.185176 
L 394.363636 565.157674 
L 395.360135 564.218182 
L 404.509091 556.46928 
L 409.581818 554.683066 
L 414.654545 554.763875 
L 419.886116 553.745455 
L 424.8 549.945898 
L 426.303709 548.509091 
L 434.945455 541.633304 
L 438.104998 538.036364 
L 440.018182 534.655808 
L 441.652639 532.8 
L 445.308169 527.563636 
L 450.163636 524.538366 
L 455.236364 521.635043 
L 460.309091 519.022959 
L 465.381818 518.102943 
L 470.454545 516.733591 
L 475.527273 512.360426 
L 475.871443 511.854545 
L 478.212338 506.618182 
L 480.6 501.002429 
L 483.152927 496.145455 
L 489.389132 485.672727 
L 490.530667 480.436364 
L 491.05342 475.2 
L 491.377211 469.963636 
L 492.141022 464.727273 
L 493.658805 459.490909 
L 496.14396 449.018182 
L 498.14536 443.781818 
L 499.660376 438.545455 
L 500.700542 433.309091 
L 501.059098 428.072727 
L 500.890909 427.316098 
L 499.339968 422.836364 
L 495.818182 417.935735 
L 492.748636 417.6 
L 490.641368 417.6 
L 485.672727 421.416898 
L 484.080183 422.836364 
L 480.6 425.548814 
L 478.449655 428.072727 
L 475.527273 431.919234 
L 474.644954 433.309091 
L 471.756407 438.545455 
L 470.454545 440.672944 
L 460.309091 452.907155 
L 459.076734 454.254545 
L 453.47203 459.490909 
L 450.163636 463.141675 
L 448.312728 464.727273 
L 445.090909 470.398756 
L 440.018182 474.20584 
L 434.945455 473.464407 
L 429.872727 473.020183 
L 424.8 474.847544 
L 419.727273 477.527218 
L 414.654545 481.284734 
L 409.581818 486.362592 
L 404.509091 489.878059 
L 399.436364 491.118809 
L 394.363636 491.629367 
L 389.290909 493.602494 
L 384.218182 496.91427 
L 380.594733 501.381818 
L 377.3167 506.618182 
L 374.072727 511.014794 
L 372.463934 511.854545 
L 369 513.904185 
L 363.927273 515.750067 
L 358.854545 515.121319 
L 353.781818 511.845383 
L 348.709091 509.493077 
L 343.636364 508.944315 
L 338.563636 509.878242 
L 336.034615 511.854545 
L 333.490909 513.383698 
L 325.446415 522.327273 
L 323.345455 524.924963 
L 320.397486 527.563636 
L 318.272727 529.695555 
L 313.2 534.55385 
L 310.251607 538.036364 
L 308.127273 541.144549 
L 306.40275 543.272727 
L 303.054545 549.077719 
L 301.100507 553.745455 
L 299.87751 558.981818 
L 299.560568 564.218182 
L 301.332633 569.454545 
L 303.054545 571.857748 
L 304.265 574.690909 
L 309.252928 579.927273 
L 313.2 582.527184 
L 318.272727 584.441217 
L 323.345455 585.194848 
L 323.345455 585.194848 
" style="fill:none;stroke:#808080;"/>
   </g>
   <g id="LineCollection_5">
    <path clip-path="url(#pf6a3219674)" d="M 333.490909 585.163712 
L 338.563636 585.310176 
L 339.327764 585.163636 
L 343.636364 584.592294 
L 348.709091 582.710079 
L 352.456078 579.927273 
L 357.08107 574.690909 
L 358.854545 571.421252 
L 361.089717 569.454545 
L 363.927273 565.656028 
L 366.261132 564.218182 
L 369 562.031237 
L 374.072727 561.31268 
L 379.145455 562.89339 
L 382.374575 564.218182 
L 384.218182 564.846608 
L 389.290909 564.515244 
L 389.772097 564.218182 
L 394.363636 561.846076 
L 397.669962 558.981818 
L 403.13809 553.745455 
L 404.509091 551.948366 
L 409.581818 550.06535 
L 414.654545 550.682321 
L 419.727273 549.601399 
L 421.050764 548.509091 
L 424.8 545.164692 
L 427.224947 543.272727 
L 429.872727 541.631397 
L 434.163133 538.036364 
L 434.945455 537.140962 
L 437.711693 532.8 
L 440.018182 526.96664 
L 442.965703 522.327273 
L 445.090909 518.68685 
L 447.41425 517.090909 
L 450.163636 514.283408 
L 455.236364 513.214295 
L 465.381818 510.295616 
L 470.454545 507.850907 
L 471.429174 506.618182 
L 474.506307 501.381818 
L 475.527273 500.034372 
L 477.542432 496.145455 
L 480.739626 490.909091 
L 483.025075 485.672727 
L 484.160722 480.436364 
L 484.700431 475.2 
L 484.898891 469.963636 
L 485.909633 464.727273 
L 487.513743 459.490909 
L 488.226833 454.254545 
L 489.40842 449.018182 
L 490.745455 446.716018 
L 492.216136 443.781818 
L 494.347756 438.545455 
L 494.403942 433.309091 
L 490.745455 428.260081 
L 485.672727 428.691829 
L 480.6 431.491947 
L 479.253395 433.309091 
L 473.25523 443.781818 
L 465.381818 454.668992 
L 461.271166 459.490909 
L 460.309091 460.898919 
L 456.984752 464.727273 
L 455.236364 467.352305 
L 453.840181 469.963636 
L 451.334684 475.2 
L 450.163636 477.006276 
L 446.0838 480.436364 
L 445.090909 480.990076 
L 440.018182 481.44515 
L 438.180287 480.436364 
L 434.945455 479.062195 
L 429.872727 477.833543 
L 424.8 479.969597 
L 424.026181 480.436364 
L 419.727273 482.698254 
L 415.985563 485.672727 
L 414.654545 486.983246 
L 409.581818 492.57542 
L 404.509091 495.561444 
L 399.436364 496.287285 
L 394.363636 496.664684 
L 389.290909 498.693665 
L 385.7718 501.381818 
L 384.218182 502.72331 
L 377.827942 511.854545 
L 374.072727 517.567539 
L 369 521.274643 
L 363.927273 521.800321 
L 358.854545 520.150374 
L 353.781818 516.869294 
L 348.709091 514.10666 
L 343.636364 513.548632 
L 338.563636 514.290786 
L 333.490909 517.58441 
L 329.277098 522.327273 
L 328.418182 523.468019 
L 325.006721 527.563636 
L 323.345455 529.979062 
L 315.437866 538.036364 
L 313.2 540.664744 
L 311.295813 543.272727 
L 308.567105 548.509091 
L 308.127273 549.703203 
L 306.168276 553.745455 
L 304.945658 558.981818 
L 304.786291 564.218182 
L 305.544895 569.454545 
L 308.127273 574.782392 
L 312.714802 579.927273 
L 313.2 580.24687 
L 318.272727 582.728867 
L 323.345455 583.798444 
L 328.418182 584.595501 
L 333.490909 585.163712 
L 333.490909 585.163712 
" style="fill:none;stroke:#808080;"/>
   </g>
   <g id="LineCollection_6">
    <path clip-path="url(#pf6a3219674)" d="M 318.272727 581.016516 
L 323.345455 582.410884 
L 328.418182 583.451121 
L 333.490909 584.184571 
L 338.563636 584.324579 
L 343.636364 583.572495 
L 348.709091 581.389108 
L 350.67742 579.927273 
L 353.781818 576.481393 
L 355.350897 574.690909 
L 358.262351 569.454545 
L 358.854545 567.959321 
L 361.780836 564.218182 
L 363.927273 559.295657 
L 364.333656 558.981818 
L 369 555.897109 
L 374.072727 556.043218 
L 379.145455 558.515063 
L 379.849174 558.981818 
L 384.218182 561.129605 
L 389.290909 561.252295 
L 393.920367 558.981818 
L 394.363636 558.782564 
L 399.436364 553.811553 
L 399.505935 553.745455 
L 403.548223 548.509091 
L 404.509091 547.206076 
L 409.581818 545.474635 
L 414.654545 546.549284 
L 419.727273 545.308111 
L 421.987801 543.272727 
L 424.8 540.9777 
L 429.785758 538.036364 
L 429.872727 537.982601 
L 434.480911 532.8 
L 434.945455 531.929281 
L 436.842631 527.563636 
L 438.674619 522.327273 
L 440.018182 518.604389 
L 440.936681 517.090909 
L 442.87211 511.854545 
L 443.731311 506.618182 
L 443.415567 501.381818 
L 442.246564 496.145455 
L 440.93754 490.909091 
L 440.018182 490.266457 
L 436.257885 485.672727 
L 434.945455 484.867647 
L 429.872727 482.500149 
L 424.8 484.271146 
L 422.239905 485.672727 
L 419.727273 487.329193 
L 416.103433 490.909091 
L 414.654545 492.529484 
L 411.471655 496.145455 
L 409.581818 498.426224 
L 404.509091 501.210233 
L 399.436364 500.881925 
L 394.363636 500.894725 
L 393.27855 501.381818 
L 389.290909 503.141614 
L 385.423792 506.618182 
L 384.218182 507.705498 
L 381.226052 511.854545 
L 379.145455 515.493191 
L 378.028639 517.090909 
L 374.889084 522.327273 
L 374.072727 523.86996 
L 369.432632 527.563636 
L 369 528.197007 
L 366.665846 527.563636 
L 363.927273 527.218187 
L 358.854545 524.555951 
L 355.821536 522.327273 
L 353.781818 520.922881 
L 348.709091 518.161377 
L 343.636364 517.365493 
L 338.563636 517.860235 
L 333.490909 521.117833 
L 332.416379 522.327273 
L 328.462224 527.563636 
L 328.418182 527.630162 
L 324.578489 532.8 
L 323.345455 534.725352 
L 320.149307 538.036364 
L 318.272727 539.987341 
L 315.380538 543.272727 
L 313.2 547.024636 
L 312.352629 548.509091 
L 310.125154 553.745455 
L 309.027132 558.981818 
L 308.534161 564.218182 
L 308.752757 569.454545 
L 310.713362 574.690909 
L 313.2 577.424142 
L 316.115702 579.927273 
L 318.272727 581.016516 
" style="fill:none;stroke:#808080;"/>
    <path clip-path="url(#pf6a3219674)" d="M 460.309091 498.71817 
L 465.381818 498.370146 
L 468.826779 496.145455 
L 470.454545 495.171873 
L 473.478303 490.909091 
L 475.527273 485.952865 
L 475.631374 485.672727 
L 477.603897 480.436364 
L 478.631923 475.2 
L 478.433435 469.963636 
L 480.067016 464.727273 
L 480.6 463.9749 
L 482.143128 459.490909 
L 482.430318 454.254545 
L 482.087001 449.018182 
L 480.618249 443.781818 
L 480.6 443.766635 
L 480.592956 443.781818 
L 475.527273 448.269839 
L 475.009396 449.018182 
L 471.931211 454.254545 
L 470.454545 457.411033 
L 469.305079 459.490909 
L 466.701454 464.727273 
L 465.381818 466.662313 
L 463.650902 469.963636 
L 460.787862 475.2 
L 460.309091 476.289982 
L 457.725865 480.436364 
L 455.712471 485.672727 
L 455.236364 488.135914 
L 454.50923 490.909091 
L 455.236364 494.805865 
L 455.679792 496.145455 
L 460.309091 498.71817 
" style="fill:none;stroke:#808080;"/>
   </g>
   <g id="LineCollection_7">
    <path clip-path="url(#pf6a3219674)" d="M 323.345455 581.023323 
L 328.418182 582.30674 
L 333.490909 583.205456 
L 338.563636 583.392956 
L 343.636364 582.552696 
L 348.709091 580.068137 
L 348.898762 579.927273 
L 353.666213 574.690909 
L 353.781818 574.446429 
L 356.717938 569.454545 
L 358.798063 564.218182 
L 358.854545 563.999803 
L 361.361186 558.981818 
L 363.205568 553.745455 
L 363.927273 551.127972 
L 367.904197 548.509091 
L 368.372152 543.272727 
L 365.055006 538.036364 
L 363.927273 536.594293 
L 362.462362 532.8 
L 358.854545 529.170651 
L 357.455941 527.563636 
L 353.781818 524.70645 
L 349.828089 522.327273 
L 348.709091 521.680246 
L 343.636364 520.424379 
L 338.563636 520.863556 
L 336.404596 522.327273 
L 333.490909 524.381021 
L 330.952615 527.563636 
L 328.418182 531.391869 
L 327.372348 532.8 
L 323.886969 538.036364 
L 323.345455 538.906401 
L 319.140386 543.272727 
L 318.272727 544.383329 
L 315.511427 548.509091 
L 313.363349 553.745455 
L 313.2 554.482733 
L 311.998313 558.981818 
L 311.264215 564.218182 
L 311.303588 569.454545 
L 313.2 574.293166 
L 313.356054 574.690909 
L 318.272727 579.094951 
L 319.87258 579.927273 
L 323.345455 581.023323 
" style="fill:none;stroke:#808080;"/>
    <path clip-path="url(#pf6a3219674)" d="M 384.218182 557.116783 
L 389.290909 557.97707 
L 394.363636 555.824786 
L 396.481491 553.745455 
L 399.436364 549.351277 
L 400.087029 548.509091 
L 403.946024 543.272727 
L 404.509091 542.363511 
L 409.581818 540.020033 
L 414.654545 542.059159 
L 419.727273 540.829695 
L 423.325895 538.036364 
L 424.8 536.970266 
L 429.872727 533.888254 
L 430.840363 532.8 
L 433.693074 527.563636 
L 434.945455 524.455815 
L 435.683426 522.327273 
L 437.452546 517.090909 
L 438.557491 511.854545 
L 438.860851 506.618182 
L 438.085666 501.381818 
L 436.397197 496.145455 
L 434.945455 493.009128 
L 433.300938 490.909091 
L 429.872727 488.078603 
L 424.8 489.606193 
L 422.630977 490.909091 
L 419.727273 493.011541 
L 416.974223 496.145455 
L 414.654545 498.317248 
L 412.098163 501.381818 
L 409.581818 505.343893 
L 407.522404 506.618182 
L 404.509091 508.345154 
L 401.400919 506.618182 
L 399.436364 505.847693 
L 394.363636 504.98913 
L 390.766997 506.618182 
L 389.290909 507.22409 
L 384.240208 511.854545 
L 384.218182 511.878218 
L 381.004707 517.090909 
L 379.145455 520.835868 
L 378.22137 522.327273 
L 375.358688 527.563636 
L 374.263627 532.8 
L 374.091178 538.036364 
L 374.072727 538.255413 
L 370.40663 543.272727 
L 374.072727 548.090782 
L 374.148595 548.509091 
L 379.145455 553.360329 
L 379.490633 553.745455 
L 384.218182 557.116783 
" style="fill:none;stroke:#808080;"/>
   </g>
   <g id="LineCollection_8">
    <path clip-path="url(#pf6a3219674)" d="M 328.418182 581.162359 
L 333.490909 582.226342 
L 338.563636 582.461332 
L 343.636364 581.532896 
L 346.872734 579.927273 
L 348.709091 578.723417 
L 352.424593 574.690909 
L 353.781818 571.820673 
L 355.173524 569.454545 
L 357.406985 564.218182 
L 358.767917 558.981818 
L 358.854545 558.337326 
L 360.260335 553.745455 
L 361.238982 548.509091 
L 361.414249 543.272727 
L 360.231339 538.036364 
L 358.854545 535.399613 
L 357.706311 532.8 
L 353.781818 528.419259 
L 352.780188 527.563636 
L 348.709091 524.827182 
L 343.636364 523.2584 
L 338.563636 523.570692 
L 333.490909 527.503574 
L 333.443006 527.563636 
L 329.610938 532.8 
L 328.418182 534.794563 
L 326.133583 538.036364 
L 323.345455 542.515977 
L 322.616653 543.272727 
L 318.483791 548.509091 
L 318.272727 548.867031 
L 315.827951 553.745455 
L 314.549302 558.981818 
L 313.867052 564.218182 
L 313.81199 569.454545 
L 315.909588 574.690909 
L 318.272727 576.807658 
L 323.345455 579.554079 
L 324.17201 579.927273 
L 328.418182 581.162359 
" style="fill:none;stroke:#808080;"/>
    <path clip-path="url(#pf6a3219674)" d="M 389.290909 554.587632 
L 391.60164 553.745455 
L 394.363636 552.404475 
L 396.976821 548.509091 
L 399.436364 544.67634 
L 400.470025 543.272727 
L 403.836995 538.036364 
L 404.509091 536.076319 
L 408.470006 532.8 
L 409.581818 531.801665 
L 410.672503 532.8 
L 414.654545 535.883366 
L 419.727273 535.784377 
L 424.501111 532.8 
L 424.8 532.602991 
L 429.872727 528.184944 
L 430.216376 527.563636 
L 432.237333 522.327273 
L 434.130903 517.090909 
L 434.945455 512.972646 
L 435.132593 511.854545 
L 434.957105 506.618182 
L 434.945455 506.56366 
L 432.43969 501.381818 
L 429.872727 497.835888 
L 424.8 499.329839 
L 419.727273 499.992907 
L 418.215745 501.381818 
L 414.654545 504.456053 
L 413.203753 506.618182 
L 410.138665 511.854545 
L 409.581818 512.825216 
L 404.509091 514.969276 
L 400.088069 511.854545 
L 399.436364 511.430646 
L 394.363636 509.132809 
L 389.290909 510.918719 
L 388.27015 511.854545 
L 384.218182 516.209379 
L 383.674744 517.090909 
L 380.981943 522.327273 
L 379.145455 526.35256 
L 378.46914 527.563636 
L 377.36099 532.8 
L 377.498038 538.036364 
L 378.02729 543.272727 
L 379.145455 545.681809 
L 380.592941 548.509091 
L 384.218182 552.493424 
L 386.649809 553.745455 
L 389.290909 554.587632 
" style="fill:none;stroke:#808080;"/>
   </g>
   <g id="LineCollection_9">
    <path clip-path="url(#pf6a3219674)" d="M 328.418182 580.017978 
L 333.490909 581.247227 
L 338.563636 581.529709 
L 343.636364 580.513097 
L 344.817179 579.927273 
L 348.709091 577.375863 
L 351.182974 574.690909 
L 353.673369 569.454545 
L 353.781818 569.150856 
L 356.015908 564.218182 
L 357.47482 558.981818 
L 358.146001 553.745455 
L 358.351559 548.509091 
L 358.271612 543.272727 
L 357.250182 538.036364 
L 354.218918 532.8 
L 353.781818 532.312085 
L 348.709091 527.866152 
L 348.075592 527.563636 
L 343.636364 525.722266 
L 338.563636 525.996242 
L 336.548841 527.563636 
L 333.490909 530.111046 
L 331.517314 532.8 
L 328.418182 537.982463 
L 328.380196 538.036364 
L 324.953189 543.272727 
L 323.345455 546.094178 
L 321.383733 548.509091 
L 318.292744 553.745455 
L 318.272727 553.81011 
L 316.814933 558.981818 
L 316.159837 564.218182 
L 316.19744 569.454545 
L 318.272727 574.277553 
L 318.481432 574.690909 
L 323.345455 577.777712 
L 328.10634 579.927273 
L 328.418182 580.017978 
" style="fill:none;stroke:#808080;"/>
    <path clip-path="url(#pf6a3219674)" d="M 389.290909 550.027005 
L 392.795551 548.509091 
L 394.363636 547.839428 
L 397.261304 543.272727 
L 399.436364 540.213059 
L 400.902969 538.036364 
L 402.857276 532.8 
L 403.735227 527.563636 
L 403.831125 522.327273 
L 399.901867 517.090909 
L 399.436364 516.741167 
L 394.363636 513.278618 
L 389.290909 514.65177 
L 387.00922 517.090909 
L 384.218182 520.988736 
L 383.523136 522.327273 
L 381.216327 527.563636 
L 380.292738 532.8 
L 380.607027 538.036364 
L 381.823634 543.272727 
L 384.218182 547.001323 
L 386.60214 548.509091 
L 389.290909 550.027005 
" style="fill:none;stroke:#808080;"/>
    <path clip-path="url(#pf6a3219674)" d="M 414.654545 527.787549 
L 419.727273 529.6906 
L 423.135224 527.563636 
L 424.8 526.099966 
L 427.56102 522.327273 
L 429.872727 517.782621 
L 430.08357 517.090909 
L 430.107456 511.854545 
L 429.872727 511.129743 
L 424.8 508.414474 
L 419.727273 506.68933 
L 414.654545 511.529087 
L 414.463641 511.854545 
L 411.969756 517.090909 
L 410.903543 522.327273 
L 414.413367 527.563636 
L 414.654545 527.787549 
" style="fill:none;stroke:#808080;"/>
   </g>
   <g id="LineCollection_10">
    <path clip-path="url(#pf6a3219674)" d="M 333.490909 580.268113 
L 338.563636 580.598085 
L 341.752022 579.927273 
L 343.636364 579.468569 
L 348.709091 576.028309 
L 349.941354 574.690909 
L 352.576559 569.454545 
L 353.781818 566.079479 
L 354.624831 564.218182 
L 356.181723 558.981818 
L 356.790428 553.745455 
L 356.829616 548.509091 
L 356.475929 543.272727 
L 354.841385 538.036364 
L 353.781818 536.284158 
L 351.032909 532.8 
L 348.709091 530.702667 
L 343.636364 528.11633 
L 338.563636 528.30315 
L 333.490909 532.708417 
L 333.42369 532.8 
L 329.999219 538.036364 
L 328.418182 541.088819 
L 326.987396 543.272727 
L 323.959933 548.509091 
L 323.345455 549.760245 
L 320.781127 553.745455 
L 319.050669 558.981818 
L 318.437401 564.218182 
L 318.570782 569.454545 
L 321.280538 574.690909 
L 323.345455 576.001346 
L 328.418182 578.6838 
L 332.099199 579.927273 
L 333.490909 580.268113 
" style="fill:none;stroke:#808080;"/>
    <path clip-path="url(#pf6a3219674)" d="M 389.290909 545.138139 
L 393.63891 543.272727 
L 394.363636 543.001064 
L 397.915946 538.036364 
L 399.436364 534.670805 
L 400.180528 532.8 
L 400.615721 527.563636 
L 399.436364 522.601656 
L 399.351828 522.327273 
L 394.363636 517.343993 
L 389.290909 518.53349 
L 386.459832 522.327273 
L 384.218182 526.74626 
L 383.862583 527.563636 
L 382.999385 532.8 
L 383.437112 538.036364 
L 384.218182 540.431649 
L 386.553844 543.272727 
L 389.290909 545.138139 
" style="fill:none;stroke:#808080;"/>
    <path clip-path="url(#pf6a3219674)" d="M 419.727273 518.314377 
L 420.086547 517.090909 
L 419.727273 516.640242 
L 419.465535 517.090909 
L 419.727273 518.314377 
" style="fill:none;stroke:#808080;"/>
   </g>
   <g id="LineCollection_11">
    <path clip-path="url(#pf6a3219674)" d="M 328.418182 577.333283 
L 333.490909 579.224533 
L 338.563636 579.649199 
L 343.636364 578.39066 
L 348.697979 574.690909 
L 348.709091 574.675335 
L 351.47975 569.454545 
L 353.363218 564.218182 
L 353.781818 562.567635 
L 354.888626 558.981818 
L 355.434855 553.745455 
L 355.307673 548.509091 
L 354.680245 543.272727 
L 353.781818 540.80219 
L 352.538704 538.036364 
L 348.709091 533.487042 
L 347.765946 532.8 
L 343.636364 530.303915 
L 338.563636 530.393363 
L 335.803564 532.8 
L 333.490909 535.165174 
L 331.607448 538.036364 
L 328.874221 543.272727 
L 328.418182 544.217579 
L 325.859221 548.509091 
L 323.345455 553.62743 
L 323.269511 553.745455 
L 321.232457 558.981818 
L 320.536194 564.218182 
L 320.863118 569.454545 
L 323.345455 573.66988 
L 323.945108 574.690909 
L 328.418182 577.333283 
" style="fill:none;stroke:#808080;"/>
    <path clip-path="url(#pf6a3219674)" d="M 389.290909 539.869252 
L 394.363636 538.752377 
L 394.875954 538.036364 
L 397.255307 532.8 
L 397.45148 527.563636 
L 395.308158 522.327273 
L 394.363636 521.383681 
L 390.614781 522.327273 
L 389.290909 522.890765 
L 387.051751 527.563636 
L 386.298955 532.8 
L 387.696269 538.036364 
L 389.290909 539.869252 
" style="fill:none;stroke:#808080;"/>
   </g>
   <g id="LineCollection_12">
    <path clip-path="url(#pf6a3219674)" d="M 328.418182 575.982766 
L 333.490909 578.146528 
L 338.563636 578.655911 
L 343.636364 577.312751 
L 347.223296 574.690909 
L 348.709091 572.608604 
L 350.382941 569.454545 
L 352.300741 564.218182 
L 353.623597 558.981818 
L 353.781818 556.906519 
L 354.079281 553.745455 
L 353.78573 548.509091 
L 353.781818 548.482293 
L 352.941588 543.272727 
L 350.319358 538.036364 
L 348.709091 536.123475 
L 344.146751 532.8 
L 343.636364 532.491501 
L 338.563636 532.483577 
L 338.200744 532.8 
L 333.490909 537.616793 
L 333.215676 538.036364 
L 330.411584 543.272727 
L 328.418182 547.402786 
L 327.75851 548.509091 
L 325.133598 553.745455 
L 323.400754 558.981818 
L 323.345455 559.427984 
L 322.634988 564.218182 
L 323.155454 569.454545 
L 323.345455 569.777191 
L 326.231295 574.690909 
L 328.418182 575.982766 
" style="fill:none;stroke:#808080;"/>
   </g>
   <g id="LineCollection_13">
    <path clip-path="url(#pf6a3219674)" d="M 333.490909 577.068523 
L 338.563636 577.662624 
L 343.636364 576.234842 
L 345.748613 574.690909 
L 348.709091 570.541872 
L 349.286132 569.454545 
L 351.238265 564.218182 
L 352.52533 558.981818 
L 352.842386 553.745455 
L 352.407897 548.509091 
L 351.260034 543.272727 
L 348.709091 538.838544 
L 347.882239 538.036364 
L 343.636364 534.783012 
L 338.563636 534.731989 
L 335.334788 538.036364 
L 333.490909 540.405666 
L 331.948947 543.272727 
L 329.410185 548.509091 
L 328.418182 550.893243 
L 326.978033 553.745455 
L 325.154652 558.981818 
L 324.427847 564.218182 
L 324.954274 569.454545 
L 328.418182 574.578206 
L 328.516151 574.690909 
L 333.490909 577.068523 
" style="fill:none;stroke:#808080;"/>
   </g>
   <g id="LineCollection_14">
    <path clip-path="url(#pf6a3219674)" d="M 333.490909 575.990517 
L 338.563636 576.669337 
L 343.636364 575.156933 
L 344.27393 574.690909 
L 348.086856 569.454545 
L 348.709091 568.116355 
L 350.175788 564.218182 
L 351.427063 558.981818 
L 351.638854 553.745455 
L 351.030435 548.509091 
L 349.57848 543.272727 
L 348.709091 541.76151 
L 344.869374 538.036364 
L 343.636364 537.091584 
L 338.563636 537.008623 
L 337.559386 538.036364 
L 333.490909 543.264175 
L 333.48631 543.272727 
L 330.93009 548.509091 
L 328.755577 553.745455 
L 328.418182 554.808281 
L 326.90855 558.981818 
L 326.064148 564.218182 
L 326.708492 569.454545 
L 328.418182 571.983443 
L 330.771696 574.690909 
L 333.490909 575.990517 
" style="fill:none;stroke:#808080;"/>
   </g>
   <g id="LineCollection_15">
    <path clip-path="url(#pf6a3219674)" d="M 333.490909 574.912512 
L 338.563636 575.676049 
L 341.789837 574.690909 
L 343.636364 573.685723 
L 346.773822 569.454545 
L 348.709091 565.292516 
L 349.113312 564.218182 
L 350.328797 558.981818 
L 350.435321 553.745455 
L 349.652973 548.509091 
L 348.709091 545.437635 
L 347.329928 543.272727 
L 343.636364 539.678078 
L 338.563636 539.656376 
L 335.767465 543.272727 
L 333.490909 546.376844 
L 332.449995 548.509091 
L 330.294846 553.745455 
L 328.635571 558.981818 
L 328.418182 560.243743 
L 327.700448 564.218182 
L 328.418182 569.168094 
L 328.461332 569.454545 
L 333.027241 574.690909 
L 333.490909 574.912512 
" style="fill:none;stroke:#808080;"/>
   </g>
   <g id="LineCollection_16">
    <path clip-path="url(#pf6a3219674)" d="M 333.490909 573.179917 
L 338.563636 574.677088 
L 343.636364 571.914965 
L 345.460788 569.454545 
L 347.822597 564.218182 
L 348.709091 561.253651 
L 349.23053 558.981818 
L 349.231789 553.745455 
L 348.709091 550.709463 
L 347.919968 548.509091 
L 344.47443 543.272727 
L 343.636364 542.457104 
L 338.563636 542.609532 
L 338.050853 543.272727 
L 334.284357 548.509091 
L 333.490909 549.695021 
L 331.834115 553.745455 
L 330.196492 558.981818 
L 329.289789 564.218182 
L 330.161271 569.454545 
L 333.490909 573.179917 
" style="fill:none;stroke:#808080;"/>
   </g>
   <g id="LineCollection_17">
    <path clip-path="url(#pf6a3219674)" d="M 333.490909 571.277938 
L 338.563636 572.992017 
L 343.636364 570.144207 
L 344.147754 569.454545 
L 346.391725 564.218182 
L 347.778074 558.981818 
L 347.494638 553.745455 
L 345.412961 548.509091 
L 343.636364 545.88694 
L 338.563636 546.025381 
L 336.802074 548.509091 
L 333.490909 553.458136 
L 333.373384 553.745455 
L 331.757413 558.981818 
L 330.842438 564.218182 
L 331.861209 569.454545 
L 333.490909 571.277938 
" style="fill:none;stroke:#808080;"/>
   </g>
   <g id="LineCollection_18">
    <path clip-path="url(#pf6a3219674)" d="M 338.563636 571.306946 
L 341.825048 569.454545 
L 343.636364 567.373445 
L 344.960853 564.218182 
L 346.00544 558.981818 
L 345.347809 553.745455 
L 343.636364 549.910595 
L 338.563636 549.744651 
L 335.961934 553.745455 
L 333.490909 558.422035 
L 333.318334 558.981818 
L 332.395087 564.218182 
L 333.490909 569.164948 
L 333.674665 569.454545 
L 338.563636 571.306946 
" style="fill:none;stroke:#808080;"/>
   </g>
   <g id="LineCollection_19">
    <path clip-path="url(#pf6a3219674)" d="M 338.563636 569.621875 
L 338.858243 569.454545 
L 343.339888 564.218182 
L 343.636364 563.270537 
L 344.232806 558.981818 
L 343.636364 555.71467 
L 338.563636 553.899832 
L 336.004673 558.981818 
L 334.491275 564.218182 
L 338.12201 569.454545 
L 338.563636 569.621875 
" style="fill:none;stroke:#808080;"/>
   </g>
   <g id="LineCollection_20">
    <path clip-path="url(#pf6a3219674)" d="M 338.563636 565.160863 
L 339.352198 564.218182 
L 338.563636 560.675834 
L 337.891287 564.218182 
L 338.563636 565.160863 
" style="fill:none;stroke:#808080;"/>
   </g>
   <g id="PathCollection_1">
    <defs>
     <path d="M 0 2.236068 
C 0.593012 2.236068 1.161816 2.000462 1.581139 1.581139 
C 2.000462 1.161816 2.236068 0.593012 2.236068 0 
C 2.236068 -0.593012 2.000462 -1.161816 1.581139 -1.581139 
C 1.161816 -2.000462 0.593012 -2.236068 0 -2.236068 
C -0.593012 -2.236068 -1.161816 -2.000462 -1.581139 -1.581139 
C -2.000462 -1.161816 -2.236068 -0.593012 -2.236068 0 
C -2.236068 0.593012 -2.000462 1.161816 -1.581139 1.581139 
C -1.161816 2.000462 -0.593012 2.236068 0 2.236068 
z
" id="m321a661a66" style="stroke:#000000;"/>
    </defs>
    <g clip-path="url(#pf6a3219674)">
     <use style="stroke:#000000;" x="449.045383031" xlink:href="#m321a661a66" y="321.481199429"/>
    </g>
   </g>
   <g id="PathCollection_2">
    <g clip-path="url(#pf6a3219674)">
     <use style="stroke:#000000;" x="401.345462024" xlink:href="#m321a661a66" y="531.817184644"/>
    </g>
   </g>
   <g id="PathCollection_3">
    <g clip-path="url(#pf6a3219674)">
     <use style="stroke:#000000;" x="477.280223981" xlink:href="#m321a661a66" y="412.866254165"/>
    </g>
   </g>
   <g id="PathCollection_4">
    <g clip-path="url(#pf6a3219674)">
     <use style="stroke:#000000;" x="454.785794381" xlink:href="#m321a661a66" y="498.756370364"/>
    </g>
   </g>
   <g id="PathCollection_5">
    <g clip-path="url(#pf6a3219674)">
     <use style="stroke:#000000;" x="354.933036281" xlink:href="#m321a661a66" y="394.237762238"/>
    </g>
   </g>
   <g id="PathCollection_6">
    <g clip-path="url(#pf6a3219674)">
     <use style="stroke:#000000;" x="504.550471032" xlink:href="#m321a661a66" y="373.756548536"/>
    </g>
   </g>
   <g id="PathCollection_7">
    <g clip-path="url(#pf6a3219674)">
     <use style="stroke:#000000;" x="462.292697846" xlink:href="#m321a661a66" y="371.86013986"/>
    </g>
   </g>
   <g id="PathCollection_8">
    <g clip-path="url(#pf6a3219674)">
     <use style="stroke:#000000;" x="272.506051018" xlink:href="#m321a661a66" y="571.910203073"/>
    </g>
   </g>
   <g id="PathCollection_9">
    <g clip-path="url(#pf6a3219674)">
     <use style="stroke:#000000;" x="442.838957567" xlink:href="#m321a661a66" y="330.504027618"/>
    </g>
   </g>
   <g id="PathCollection_10">
    <g clip-path="url(#pf6a3219674)">
     <use style="stroke:#000000;" x="254.657264159" xlink:href="#m321a661a66" y="566.865134865"/>
    </g>
   </g>
   <g id="PathCollection_11">
    <g clip-path="url(#pf6a3219674)">
     <use style="stroke:#000000;" x="451.455034539" xlink:href="#m321a661a66" y="471.551917277"/>
    </g>
   </g>
   <g id="PathCollection_12">
    <g clip-path="url(#pf6a3219674)">
     <use style="stroke:#000000;" x="382.309186779" xlink:href="#m321a661a66" y="503.931221143"/>
    </g>
   </g>
   <g id="PathCollection_13">
    <g clip-path="url(#pf6a3219674)">
     <use style="stroke:#000000;" x="303.185889172" xlink:href="#m321a661a66" y="473.291418862"/>
    </g>
   </g>
   <g id="PathCollection_14">
    <g clip-path="url(#pf6a3219674)">
     <use style="stroke:#000000;" x="329.613174372" xlink:href="#m321a661a66" y="487.447032307"/>
    </g>
   </g>
   <g id="PathCollection_15">
    <g clip-path="url(#pf6a3219674)">
     <use style="stroke:#000000;" x="274.013996008" xlink:href="#m321a661a66" y="440.254653359"/>
    </g>
   </g>
   <g id="PathCollection_16">
    <g clip-path="url(#pf6a3219674)">
     <use style="stroke:#000000;" x="306.540018409" xlink:href="#m321a661a66" y="417.225336844"/>
    </g>
   </g>
   <g id="PathCollection_17">
    <g clip-path="url(#pf6a3219674)">
     <use style="stroke:#000000;" x="282.632292646" xlink:href="#m321a661a66" y="470.812439051"/>
    </g>
   </g>
   <g id="PathCollection_18">
    <g clip-path="url(#pf6a3219674)">
     <use style="stroke:#000000;" x="342.020747215" xlink:href="#m321a661a66" y="471.551917277"/>
    </g>
   </g>
   <g id="PathCollection_19">
    <g clip-path="url(#pf6a3219674)">
     <use style="stroke:#000000;" x="335.669336593" xlink:href="#m321a661a66" y="443.637419185"/>
    </g>
   </g>
   <g id="PathCollection_20">
    <g clip-path="url(#pf6a3219674)">
     <use style="stroke:#000000;" x="250.148845225" xlink:href="#m321a661a66" y="482.905176632"/>
    </g>
   </g>
   <g id="PathCollection_21">
    <g clip-path="url(#pf6a3219674)">
     <use style="stroke:#000000;" x="256.205007446" xlink:href="#m321a661a66" y="487.447032307"/>
    </g>
   </g>
   <g id="PathCollection_22">
    <g clip-path="url(#pf6a3219674)">
     <use style="stroke:#000000;" x="231.052767604" xlink:href="#m321a661a66" y="349.797695262"/>
    </g>
   </g>
   <g id="PathCollection_23">
    <g clip-path="url(#pf6a3219674)">
     <use style="stroke:#000000;" x="190.865685697" xlink:href="#m321a661a66" y="498.666666667"/>
    </g>
   </g>
   <g id="PathCollection_24">
    <g clip-path="url(#pf6a3219674)">
     <use style="stroke:#000000;" x="213.122372476" xlink:href="#m321a661a66" y="503.770334928"/>
    </g>
   </g>
   <g id="PathCollection_25">
    <g clip-path="url(#pf6a3219674)">
     <use style="stroke:#000000;" x="228.219755017" xlink:href="#m321a661a66" y="498.666666667"/>
    </g>
   </g>
   <g id="PathCollection_26">
    <g clip-path="url(#pf6a3219674)">
     <use style="stroke:#000000;" x="419.276817378" xlink:href="#m321a661a66" y="403.122994652"/>
    </g>
   </g>
   <g id="PathCollection_27">
    <g clip-path="url(#pf6a3219674)">
     <use style="stroke:#000000;" x="357.871426252" xlink:href="#m321a661a66" y="438.151742994"/>
    </g>
   </g>
   <g id="PathCollection_28">
    <g clip-path="url(#pf6a3219674)">
     <use style="stroke:#000000;" x="276.193565552" xlink:href="#m321a661a66" y="523.009960913"/>
    </g>
   </g>
   <g id="PathCollection_29">
    <g clip-path="url(#pf6a3219674)">
     <use style="stroke:#000000;" x="407.562902753" xlink:href="#m321a661a66" y="435.747397641"/>
    </g>
   </g>
   <g id="PathCollection_30">
    <g clip-path="url(#pf6a3219674)">
     <use style="stroke:#000000;" x="223.698869379" xlink:href="#m321a661a66" y="327.791676354"/>
    </g>
   </g>
   <g id="text_15">
    <text style="font-family:Arial;font-size:9.0px;font-style:normal;font-weight:400;text-anchor:start;" transform="rotate(-0.000000, 452.089019, 318.339381)" x="452.089019394" y="318.339381247">2E-16</text>
   </g>
   <g id="text_16">
    <text style="font-family:Arial;font-size:9.0px;font-style:normal;font-weight:400;text-anchor:start;" transform="rotate(-0.000000, 404.389098, 528.675366)" x="404.389098388" y="528.675366462">2E-03</text>
   </g>
   <g id="text_17">
    <text style="font-family:Arial;font-size:9.0px;font-style:normal;font-weight:400;text-anchor:start;" transform="rotate(-0.000000, 480.323860, 409.724436)" x="480.323860344" y="409.724435983">2E-04</text>
   </g>
   <g id="text_18">
    <text style="font-family:Arial;font-size:9.0px;font-style:normal;font-weight:400;text-anchor:start;" transform="rotate(-0.000000, 457.829431, 495.614552)" x="457.829430744" y="495.614552182">1E-03</text>
   </g>
   <g id="text_19">
    <text style="font-family:Arial;font-size:9.0px;font-style:normal;font-weight:400;text-anchor:start;" transform="rotate(-0.000000, 357.976673, 391.095944)" x="357.976672644" y="391.095944056">4E-12</text>
   </g>
   <g id="text_20">
    <text style="font-family:Arial;font-size:9.0px;font-style:normal;font-weight:400;text-anchor:start;" transform="rotate(-0.000000, 507.594107, 370.614730)" x="507.594107396" y="370.614730354">1E-04</text>
   </g>
   <g id="text_21">
    <text style="font-family:Arial;font-size:9.0px;font-style:normal;font-weight:400;text-anchor:start;" transform="rotate(-0.000000, 465.336334, 368.718322)" x="465.336334209" y="368.718321678">2E-05</text>
   </g>
   <g id="text_22">
    <text style="font-family:Arial;font-size:9.0px;font-style:normal;font-weight:400;text-anchor:start;" transform="rotate(-0.000000, 275.549687, 568.768385)" x="275.549687381" y="568.768384891">3E-04</text>
   </g>
   <g id="text_23">
    <text style="font-family:Arial;font-size:9.0px;font-style:normal;font-weight:400;text-anchor:start;" transform="rotate(-0.000000, 445.882594, 327.362209)" x="445.882593931" y="327.362209436">2E-15</text>
   </g>
   <g id="text_24">
    <text style="font-family:Arial;font-size:9.0px;font-style:normal;font-weight:400;text-anchor:start;" transform="rotate(-0.000000, 257.700901, 563.723317)" x="257.700900522" y="563.723316683">3E-04</text>
   </g>
   <g id="text_25">
    <text style="font-family:Arial;font-size:9.0px;font-style:normal;font-weight:400;text-anchor:start;" transform="rotate(-0.000000, 454.498671, 468.410099)" x="454.498670902" y="468.410099095">9E-04</text>
   </g>
   <g id="text_26">
    <text style="font-family:Arial;font-size:9.0px;font-style:normal;font-weight:400;text-anchor:start;" transform="rotate(-0.000000, 385.352823, 500.789403)" x="385.352823142" y="500.789402961">9E-04</text>
   </g>
   <g id="text_27">
    <text style="font-family:Arial;font-size:9.0px;font-style:normal;font-weight:400;text-anchor:start;" transform="rotate(-0.000000, 306.229526, 470.149601)" x="306.229525535" y="470.14960068">5E-05</text>
   </g>
   <g id="text_28">
    <text style="font-family:Arial;font-size:9.0px;font-style:normal;font-weight:400;text-anchor:start;" transform="rotate(-0.000000, 332.656811, 484.305214)" x="332.656810736" y="484.305214125">2E-04</text>
   </g>
   <g id="text_29">
    <text style="font-family:Arial;font-size:9.0px;font-style:normal;font-weight:400;text-anchor:start;" transform="rotate(-0.000000, 277.057632, 437.112835)" x="277.057632372" y="437.112835177">2E-16</text>
   </g>
   <g id="text_30">
    <text style="font-family:Arial;font-size:9.0px;font-style:normal;font-weight:400;text-anchor:start;" transform="rotate(-0.000000, 309.583655, 414.083519)" x="309.583654772" y="414.083518662">1E-16</text>
   </g>
   <g id="text_31">
    <text style="font-family:Arial;font-size:9.0px;font-style:normal;font-weight:400;text-anchor:start;" transform="rotate(-0.000000, 285.675929, 467.670621)" x="285.67592901" y="467.670620869">3E-06</text>
   </g>
   <g id="text_32">
    <text style="font-family:Arial;font-size:9.0px;font-style:normal;font-weight:400;text-anchor:start;" transform="rotate(-0.000000, 345.064384, 468.410099)" x="345.064383579" y="468.410099095">6E-05</text>
   </g>
   <g id="text_33">
    <text style="font-family:Arial;font-size:9.0px;font-style:normal;font-weight:400;text-anchor:start;" transform="rotate(-0.000000, 338.712973, 440.495601)" x="338.712972957" y="440.495601003">2E-06</text>
   </g>
   <g id="text_34">
    <text style="font-family:Arial;font-size:9.0px;font-style:normal;font-weight:400;text-anchor:start;" transform="rotate(-0.000000, 253.192482, 479.763358)" x="253.192481588" y="479.76335845">8E-06</text>
   </g>
   <g id="text_35">
    <text style="font-family:Arial;font-size:9.0px;font-style:normal;font-weight:400;text-anchor:start;" transform="rotate(-0.000000, 259.248644, 484.305214)" x="259.24864381" y="484.305214125">2E-05</text>
   </g>
   <g id="text_36">
    <text style="font-family:Arial;font-size:9.0px;font-style:normal;font-weight:400;text-anchor:start;" transform="rotate(-0.000000, 234.096404, 346.655877)" x="234.096403968" y="346.655877081">9E-139</text>
   </g>
   <g id="text_37">
    <text style="font-family:Arial;font-size:9.0px;font-style:normal;font-weight:400;text-anchor:start;" transform="rotate(-0.000000, 193.909322, 495.524848)" x="193.909322061" y="495.524848485">5E-18</text>
   </g>
   <g id="text_38">
    <text style="font-family:Arial;font-size:9.0px;font-style:normal;font-weight:400;text-anchor:start;" transform="rotate(-0.000000, 216.166009, 500.628517)" x="216.16600884" y="500.628516746">1E-08</text>
   </g>
   <g id="text_39">
    <text style="font-family:Arial;font-size:9.0px;font-style:normal;font-weight:400;text-anchor:start;" transform="rotate(-0.000000, 231.263391, 495.524848)" x="231.263391381" y="495.524848485">4E-06</text>
   </g>
   <g id="text_40">
    <text style="font-family:Arial;font-size:9.0px;font-style:normal;font-weight:400;text-anchor:start;" transform="rotate(-0.000000, 422.320454, 399.981176)" x="422.320453742" y="399.981176471">7E-06</text>
   </g>
   <g id="text_41">
    <text style="font-family:Arial;font-size:9.0px;font-style:normal;font-weight:400;text-anchor:start;" transform="rotate(-0.000000, 360.915063, 435.009925)" x="360.915062616" y="435.009924812">1E-05</text>
   </g>
   <g id="text_42">
    <text style="font-family:Arial;font-size:9.0px;font-style:normal;font-weight:400;text-anchor:start;" transform="rotate(-0.000000, 279.237202, 519.868143)" x="279.237201916" y="519.868142731">1E-04</text>
   </g>
   <g id="text_43">
    <text style="font-family:Arial;font-size:9.0px;font-style:normal;font-weight:400;text-anchor:start;" transform="rotate(-0.000000, 410.606539, 432.605579)" x="410.606539116" y="432.605579459">8E-05</text>
   </g>
   <g id="text_44">
    <text style="font-family:Arial;font-size:9.0px;font-style:normal;font-weight:400;text-anchor:start;" transform="rotate(-0.000000, 226.742506, 324.649858)" x="226.742505743" y="324.649858173">1E-190</text>
   </g>
  </g>
 </g>
 <defs>
  <clipPath id="pf6a3219674">
   <rect height="576.0" width="558.0" x="90.0" y="72.0"/>
  </clipPath>
 </defs>
</svg>
