<?xml version="1.0" encoding="utf-8" standalone="no"?>
<!DOCTYPE svg PUBLIC "-//W3C//DTD SVG 1.1//EN"
  "http://www.w3.org/Graphics/SVG/1.1/DTD/svg11.dtd">
<!-- Created with matplotlib (http://matplotlib.org/) -->
<svg height="276pt" version="1.1" viewBox="0 0 852 276" width="852pt" xmlns="http://www.w3.org/2000/svg" xmlns:xlink="http://www.w3.org/1999/xlink">
 <defs>
  <style type="text/css">
*{stroke-linecap:butt;stroke-linejoin:round;stroke-miterlimit:100000;}
  </style>
 </defs>
 <g id="figure_1">
  <g id="patch_1">
   <path d="M 0 276.3075 
L 852.31875 276.3075 
L 852.31875 0 
L 0 0 
z
" style="fill:#ffffff;"/>
  </g>
  <g id="axes_1">
   <g id="patch_2">
    <path d="M 62.35375 232.88 
L 837.48375 232.88 
L 837.48375 7.2 
L 62.35375 7.2 
z
" style="fill:#ffffff;"/>
   </g>
   <g id="patch_3">
    <path clip-path="url(#pdaf9144dc2)" d="M 62.35375 232.88 
L 77.85635 232.88 
L 77.85635 -715.179369 
L 62.35375 -715.179369 
z
" style="opacity:0.3;stroke:#000000;stroke-linejoin:miter;"/>
   </g>
   <g id="patch_4">
    <path clip-path="url(#pdaf9144dc2)" d="M 77.85635 232.88 
L 93.35895 232.88 
L 93.35895 164.890884 
L 77.85635 164.890884 
z
" style="opacity:0.3;stroke:#000000;stroke-linejoin:miter;"/>
   </g>
   <g id="patch_5">
    <path clip-path="url(#pdaf9144dc2)" d="M 93.35895 232.88 
L 108.86155 232.88 
L 108.86155 203.371528 
L 93.35895 203.371528 
z
" style="opacity:0.3;stroke:#000000;stroke-linejoin:miter;"/>
   </g>
   <g id="patch_6">
    <path clip-path="url(#pdaf9144dc2)" d="M 108.86155 232.88 
L 124.36415 232.88 
L 124.36415 216.33133 
L 108.86155 216.33133 
z
" style="opacity:0.3;stroke:#000000;stroke-linejoin:miter;"/>
   </g>
   <g id="patch_7">
    <path clip-path="url(#pdaf9144dc2)" d="M 124.36415 232.88 
L 139.86675 232.88 
L 139.86675 214.935659 
L 124.36415 214.935659 
z
" style="opacity:0.3;stroke:#000000;stroke-linejoin:miter;"/>
   </g>
   <g id="patch_8">
    <path clip-path="url(#pdaf9144dc2)" d="M 139.86675 232.88 
L 155.36935 232.88 
L 155.36935 213.340606 
L 139.86675 213.340606 
z
" style="opacity:0.3;stroke:#000000;stroke-linejoin:miter;"/>
   </g>
   <g id="patch_9">
    <path clip-path="url(#pdaf9144dc2)" d="M 155.36935 232.88 
L 170.87195 232.88 
L 170.87195 209.751738 
L 155.36935 209.751738 
z
" style="opacity:0.3;stroke:#000000;stroke-linejoin:miter;"/>
   </g>
   <g id="patch_10">
    <path clip-path="url(#pdaf9144dc2)" d="M 170.87195 232.88 
L 186.37455 232.88 
L 186.37455 207.159777 
L 170.87195 207.159777 
z
" style="opacity:0.3;stroke:#000000;stroke-linejoin:miter;"/>
   </g>
   <g id="patch_11">
    <path clip-path="url(#pdaf9144dc2)" d="M 186.37455 232.88 
L 201.87715 232.88 
L 201.87715 202.773383 
L 186.37455 202.773383 
z
" style="opacity:0.3;stroke:#000000;stroke-linejoin:miter;"/>
   </g>
   <g id="patch_12">
    <path clip-path="url(#pdaf9144dc2)" d="M 201.87715 232.88 
L 217.37975 232.88 
L 217.37975 181.838318 
L 201.87715 181.838318 
z
" style="opacity:0.3;stroke:#000000;stroke-linejoin:miter;"/>
   </g>
   <g id="patch_13">
    <path clip-path="url(#pdaf9144dc2)" d="M 217.37975 232.88 
L 232.88235 232.88 
L 232.88235 146.149017 
L 217.37975 146.149017 
z
" style="opacity:0.3;stroke:#000000;stroke-linejoin:miter;"/>
   </g>
   <g id="patch_14">
    <path clip-path="url(#pdaf9144dc2)" d="M 232.88235 232.88 
L 248.38495 232.88 
L 248.38495 109.861571 
L 232.88235 109.861571 
z
" style="opacity:0.3;stroke:#000000;stroke-linejoin:miter;"/>
   </g>
   <g id="patch_15">
    <path clip-path="url(#pdaf9144dc2)" d="M 248.38495 232.88 
L 263.88755 232.88 
L 263.88755 64.203191 
L 248.38495 64.203191 
z
" style="opacity:0.3;stroke:#000000;stroke-linejoin:miter;"/>
   </g>
   <g id="patch_16">
    <path clip-path="url(#pdaf9144dc2)" d="M 263.88755 232.88 
L 279.39015 232.88 
L 279.39015 31.504613 
L 263.88755 31.504613 
z
" style="opacity:0.3;stroke:#000000;stroke-linejoin:miter;"/>
   </g>
   <g id="patch_17">
    <path clip-path="url(#pdaf9144dc2)" d="M 279.39015 232.88 
L 294.89275 232.88 
L 294.89275 27.716364 
L 279.39015 27.716364 
z
" style="opacity:0.3;stroke:#000000;stroke-linejoin:miter;"/>
   </g>
   <g id="patch_18">
    <path clip-path="url(#pdaf9144dc2)" d="M 294.89275 232.88 
L 310.39535 232.88 
L 310.39535 29.710179 
L 294.89275 29.710179 
z
" style="opacity:0.3;stroke:#000000;stroke-linejoin:miter;"/>
   </g>
   <g id="patch_19">
    <path clip-path="url(#pdaf9144dc2)" d="M 310.39535 232.88 
L 325.89795 232.88 
L 325.89795 64.601954 
L 310.39535 64.601954 
z
" style="opacity:0.3;stroke:#000000;stroke-linejoin:miter;"/>
   </g>
   <g id="patch_20">
    <path clip-path="url(#pdaf9144dc2)" d="M 325.89795 232.88 
L 341.40055 232.88 
L 341.40055 74.371651 
L 325.89795 74.371651 
z
" style="opacity:0.3;stroke:#000000;stroke-linejoin:miter;"/>
   </g>
   <g id="patch_21">
    <path clip-path="url(#pdaf9144dc2)" d="M 341.40055 232.88 
L 356.90315 232.88 
L 356.90315 116.241781 
L 341.40055 116.241781 
z
" style="opacity:0.3;stroke:#000000;stroke-linejoin:miter;"/>
   </g>
   <g id="patch_22">
    <path clip-path="url(#pdaf9144dc2)" d="M 356.90315 232.88 
L 372.40575 232.88 
L 372.40575 146.747161 
L 356.90315 146.747161 
z
" style="opacity:0.3;stroke:#000000;stroke-linejoin:miter;"/>
   </g>
   <g id="patch_23">
    <path clip-path="url(#pdaf9144dc2)" d="M 372.40575 232.88 
L 387.90835 232.88 
L 387.90835 162.697687 
L 372.40575 162.697687 
z
" style="opacity:0.3;stroke:#000000;stroke-linejoin:miter;"/>
   </g>
   <g id="patch_24">
    <path clip-path="url(#pdaf9144dc2)" d="M 387.90835 232.88 
L 403.41095 232.88 
L 403.41095 185.427186 
L 387.90835 185.427186 
z
" style="opacity:0.3;stroke:#000000;stroke-linejoin:miter;"/>
   </g>
   <g id="patch_25">
    <path clip-path="url(#pdaf9144dc2)" d="M 403.41095 232.88 
L 418.91355 232.88 
L 418.91355 201.377712 
L 403.41095 201.377712 
z
" style="opacity:0.3;stroke:#000000;stroke-linejoin:miter;"/>
   </g>
   <g id="patch_26">
    <path clip-path="url(#pdaf9144dc2)" d="M 418.91355 232.88 
L 434.41615 232.88 
L 434.41615 206.960396 
L 418.91355 206.960396 
z
" style="opacity:0.3;stroke:#000000;stroke-linejoin:miter;"/>
   </g>
   <g id="patch_27">
    <path clip-path="url(#pdaf9144dc2)" d="M 434.41615 232.88 
L 449.91875 232.88 
L 449.91875 213.539988 
L 434.41615 213.539988 
z
" style="opacity:0.3;stroke:#000000;stroke-linejoin:miter;"/>
   </g>
   <g id="patch_28">
    <path clip-path="url(#pdaf9144dc2)" d="M 449.91875 232.88 
L 465.42135 232.88 
L 465.42135 210.948027 
L 449.91875 210.948027 
z
" style="opacity:0.3;stroke:#000000;stroke-linejoin:miter;"/>
   </g>
   <g id="patch_29">
    <path clip-path="url(#pdaf9144dc2)" d="M 465.42135 232.88 
L 480.92395 232.88 
L 480.92395 208.555448 
L 465.42135 208.555448 
z
" style="opacity:0.3;stroke:#000000;stroke-linejoin:miter;"/>
   </g>
   <g id="patch_30">
    <path clip-path="url(#pdaf9144dc2)" d="M 480.92395 232.88 
L 496.42655 232.88 
L 496.42655 206.561633 
L 480.92395 206.561633 
z
" style="opacity:0.3;stroke:#000000;stroke-linejoin:miter;"/>
   </g>
   <g id="patch_31">
    <path clip-path="url(#pdaf9144dc2)" d="M 496.42655 232.88 
L 511.92915 232.88 
L 511.92915 204.567817 
L 496.42655 204.567817 
z
" style="opacity:0.3;stroke:#000000;stroke-linejoin:miter;"/>
   </g>
   <g id="patch_32">
    <path clip-path="url(#pdaf9144dc2)" d="M 511.92915 232.88 
L 527.43175 232.88 
L 527.43175 203.770291 
L 511.92915 203.770291 
z
" style="opacity:0.3;stroke:#000000;stroke-linejoin:miter;"/>
   </g>
   <g id="patch_33">
    <path clip-path="url(#pdaf9144dc2)" d="M 527.43175 232.88 
L 542.93435 232.88 
L 542.93435 199.982041 
L 527.43175 199.982041 
z
" style="opacity:0.3;stroke:#000000;stroke-linejoin:miter;"/>
   </g>
   <g id="patch_34">
    <path clip-path="url(#pdaf9144dc2)" d="M 542.93435 232.88 
L 558.43695 232.88 
L 558.43695 198.386988 
L 542.93435 198.386988 
z
" style="opacity:0.3;stroke:#000000;stroke-linejoin:miter;"/>
   </g>
   <g id="patch_35">
    <path clip-path="url(#pdaf9144dc2)" d="M 558.43695 232.88 
L 573.93955 232.88 
L 573.93955 191.209252 
L 558.43695 191.209252 
z
" style="opacity:0.3;stroke:#000000;stroke-linejoin:miter;"/>
   </g>
   <g id="patch_36">
    <path clip-path="url(#pdaf9144dc2)" d="M 573.93955 232.88 
L 589.44215 232.88 
L 589.44215 197.190699 
L 573.93955 197.190699 
z
" style="opacity:0.3;stroke:#000000;stroke-linejoin:miter;"/>
   </g>
   <g id="patch_37">
    <path clip-path="url(#pdaf9144dc2)" d="M 589.44215 232.88 
L 604.94475 232.88 
L 604.94475 196.193791 
L 589.44215 196.193791 
z
" style="opacity:0.3;stroke:#000000;stroke-linejoin:miter;"/>
   </g>
   <g id="patch_38">
    <path clip-path="url(#pdaf9144dc2)" d="M 604.94475 232.88 
L 620.44735 232.88 
L 620.44735 194.199975 
L 604.94475 194.199975 
z
" style="opacity:0.3;stroke:#000000;stroke-linejoin:miter;"/>
   </g>
   <g id="patch_39">
    <path clip-path="url(#pdaf9144dc2)" d="M 620.44735 232.88 
L 635.94995 232.88 
L 635.94995 195.994409 
L 620.44735 195.994409 
z
" style="opacity:0.3;stroke:#000000;stroke-linejoin:miter;"/>
   </g>
   <g id="patch_40">
    <path clip-path="url(#pdaf9144dc2)" d="M 635.94995 232.88 
L 651.45255 232.88 
L 651.45255 200.978949 
L 635.94995 200.978949 
z
" style="opacity:0.3;stroke:#000000;stroke-linejoin:miter;"/>
   </g>
   <g id="patch_41">
    <path clip-path="url(#pdaf9144dc2)" d="M 651.45255 232.88 
L 666.95515 232.88 
L 666.95515 200.978949 
L 651.45255 200.978949 
z
" style="opacity:0.3;stroke:#000000;stroke-linejoin:miter;"/>
   </g>
   <g id="patch_42">
    <path clip-path="url(#pdaf9144dc2)" d="M 666.95515 232.88 
L 682.45775 232.88 
L 682.45775 206.561633 
L 666.95515 206.561633 
z
" style="opacity:0.3;stroke:#000000;stroke-linejoin:miter;"/>
   </g>
   <g id="patch_43">
    <path clip-path="url(#pdaf9144dc2)" d="M 682.45775 232.88 
L 697.96035 232.88 
L 697.96035 203.172146 
L 682.45775 203.172146 
z
" style="opacity:0.3;stroke:#000000;stroke-linejoin:miter;"/>
   </g>
   <g id="patch_44">
    <path clip-path="url(#pdaf9144dc2)" d="M 697.96035 232.88 
L 713.46295 232.88 
L 713.46295 214.736277 
L 697.96035 214.736277 
z
" style="opacity:0.3;stroke:#000000;stroke-linejoin:miter;"/>
   </g>
   <g id="patch_45">
    <path clip-path="url(#pdaf9144dc2)" d="M 713.46295 232.88 
L 728.96555 232.88 
L 728.96555 211.745553 
L 713.46295 211.745553 
z
" style="opacity:0.3;stroke:#000000;stroke-linejoin:miter;"/>
   </g>
   <g id="patch_46">
    <path clip-path="url(#pdaf9144dc2)" d="M 728.96555 232.88 
L 744.46815 232.88 
L 744.46815 216.33133 
L 728.96555 216.33133 
z
" style="opacity:0.3;stroke:#000000;stroke-linejoin:miter;"/>
   </g>
   <g id="patch_47">
    <path clip-path="url(#pdaf9144dc2)" d="M 744.46815 232.88 
L 759.97075 232.88 
L 759.97075 216.530711 
L 744.46815 216.530711 
z
" style="opacity:0.3;stroke:#000000;stroke-linejoin:miter;"/>
   </g>
   <g id="patch_48">
    <path clip-path="url(#pdaf9144dc2)" d="M 759.97075 232.88 
L 775.47335 232.88 
L 775.47335 217.727001 
L 759.97075 217.727001 
z
" style="opacity:0.3;stroke:#000000;stroke-linejoin:miter;"/>
   </g>
   <g id="patch_49">
    <path clip-path="url(#pdaf9144dc2)" d="M 775.47335 232.88 
L 790.97595 232.88 
L 790.97595 218.325145 
L 775.47335 218.325145 
z
" style="opacity:0.3;stroke:#000000;stroke-linejoin:miter;"/>
   </g>
   <g id="patch_50">
    <path clip-path="url(#pdaf9144dc2)" d="M 790.97595 232.88 
L 806.47855 232.88 
L 806.47855 217.527619 
L 790.97595 217.527619 
z
" style="opacity:0.3;stroke:#000000;stroke-linejoin:miter;"/>
   </g>
   <g id="patch_51">
    <path clip-path="url(#pdaf9144dc2)" d="M 806.47855 232.88 
L 821.98115 232.88 
L 821.98115 221.51525 
L 806.47855 221.51525 
z
" style="opacity:0.3;stroke:#000000;stroke-linejoin:miter;"/>
   </g>
   <g id="patch_52">
    <path clip-path="url(#pdaf9144dc2)" d="M 821.98115 232.88 
L 837.48375 232.88 
L 837.48375 218.92329 
L 821.98115 218.92329 
z
" style="opacity:0.3;stroke:#000000;stroke-linejoin:miter;"/>
   </g>
   <g id="patch_53">
    <path clip-path="url(#pdaf9144dc2)" d="M 837.48375 232.88 
L 852.98635 232.88 
L 852.98635 216.730093 
L 837.48375 216.730093 
z
" style="opacity:0.3;stroke:#000000;stroke-linejoin:miter;"/>
   </g>
   <g id="patch_54">
    <path clip-path="url(#pdaf9144dc2)" d="M 852.98635 232.88 
L 868.48895 232.88 
L 868.48895 218.92329 
L 852.98635 218.92329 
z
" style="opacity:0.3;stroke:#000000;stroke-linejoin:miter;"/>
   </g>
   <g id="patch_55">
    <path clip-path="url(#pdaf9144dc2)" d="M 868.48895 232.88 
L 883.99155 232.88 
L 883.99155 217.727001 
L 868.48895 217.727001 
z
" style="opacity:0.3;stroke:#000000;stroke-linejoin:miter;"/>
   </g>
   <g id="patch_56">
    <path clip-path="url(#pdaf9144dc2)" d="M 883.99155 232.88 
L 899.49415 232.88 
L 899.49415 219.720816 
L 883.99155 219.720816 
z
" style="opacity:0.3;stroke:#000000;stroke-linejoin:miter;"/>
   </g>
   <g id="patch_57">
    <path clip-path="url(#pdaf9144dc2)" d="M 899.49415 232.88 
L 914.99675 232.88 
L 914.99675 221.315869 
L 899.49415 221.315869 
z
" style="opacity:0.3;stroke:#000000;stroke-linejoin:miter;"/>
   </g>
   <g id="patch_58">
    <path clip-path="url(#pdaf9144dc2)" d="M 914.99675 232.88 
L 930.49935 232.88 
L 930.49935 220.119579 
L 914.99675 220.119579 
z
" style="opacity:0.3;stroke:#000000;stroke-linejoin:miter;"/>
   </g>
   <g id="patch_59">
    <path clip-path="url(#pdaf9144dc2)" d="M 930.49935 232.88 
L 946.00195 232.88 
L 946.00195 219.521435 
L 930.49935 219.521435 
z
" style="opacity:0.3;stroke:#000000;stroke-linejoin:miter;"/>
   </g>
   <g id="patch_60">
    <path clip-path="url(#pdaf9144dc2)" d="M 946.00195 232.88 
L 961.50455 232.88 
L 961.50455 220.518343 
L 946.00195 220.518343 
z
" style="opacity:0.3;stroke:#000000;stroke-linejoin:miter;"/>
   </g>
   <g id="patch_61">
    <path clip-path="url(#pdaf9144dc2)" d="M 961.50455 232.88 
L 977.00715 232.88 
L 977.00715 217.527619 
L 961.50455 217.527619 
z
" style="opacity:0.3;stroke:#000000;stroke-linejoin:miter;"/>
   </g>
   <g id="patch_62">
    <path clip-path="url(#pdaf9144dc2)" d="M 977.00715 232.88 
L 992.50975 232.88 
L 992.50975 223.708448 
L 977.00715 223.708448 
z
" style="opacity:0.3;stroke:#000000;stroke-linejoin:miter;"/>
   </g>
   <g id="patch_63">
    <path clip-path="url(#pdaf9144dc2)" d="M 992.50975 232.88 
L 1008.01235 232.88 
L 1008.01235 222.910921 
L 992.50975 222.910921 
z
" style="opacity:0.3;stroke:#000000;stroke-linejoin:miter;"/>
   </g>
   <g id="patch_64">
    <path clip-path="url(#pdaf9144dc2)" d="M 1008.01235 232.88 
L 1023.51495 232.88 
L 1023.51495 222.113395 
L 1008.01235 222.113395 
z
" style="opacity:0.3;stroke:#000000;stroke-linejoin:miter;"/>
   </g>
   <g id="patch_65">
    <path clip-path="url(#pdaf9144dc2)" d="M 1023.51495 232.88 
L 1039.01755 232.88 
L 1039.01755 220.917106 
L 1023.51495 220.917106 
z
" style="opacity:0.3;stroke:#000000;stroke-linejoin:miter;"/>
   </g>
   <g id="patch_66">
    <path clip-path="url(#pdaf9144dc2)" d="M 1039.01755 232.88 
L 1054.52015 232.88 
L 1054.52015 225.3035 
L 1039.01755 225.3035 
z
" style="opacity:0.3;stroke:#000000;stroke-linejoin:miter;"/>
   </g>
   <g id="patch_67">
    <path clip-path="url(#pdaf9144dc2)" d="M 1054.52015 232.88 
L 1070.02275 232.88 
L 1070.02275 223.708448 
L 1054.52015 223.708448 
z
" style="opacity:0.3;stroke:#000000;stroke-linejoin:miter;"/>
   </g>
   <g id="patch_68">
    <path clip-path="url(#pdaf9144dc2)" d="M 1070.02275 232.88 
L 1085.52535 232.88 
L 1085.52535 224.306592 
L 1070.02275 224.306592 
z
" style="opacity:0.3;stroke:#000000;stroke-linejoin:miter;"/>
   </g>
   <g id="patch_69">
    <path clip-path="url(#pdaf9144dc2)" d="M 1085.52535 232.88 
L 1101.02795 232.88 
L 1101.02795 223.509066 
L 1085.52535 223.509066 
z
" style="opacity:0.3;stroke:#000000;stroke-linejoin:miter;"/>
   </g>
   <g id="patch_70">
    <path clip-path="url(#pdaf9144dc2)" d="M 1101.02795 232.88 
L 1116.53055 232.88 
L 1116.53055 223.907829 
L 1101.02795 223.907829 
z
" style="opacity:0.3;stroke:#000000;stroke-linejoin:miter;"/>
   </g>
   <g id="patch_71">
    <path clip-path="url(#pdaf9144dc2)" d="M 1116.53055 232.88 
L 1132.03315 232.88 
L 1132.03315 224.904737 
L 1116.53055 224.904737 
z
" style="opacity:0.3;stroke:#000000;stroke-linejoin:miter;"/>
   </g>
   <g id="patch_72">
    <path clip-path="url(#pdaf9144dc2)" d="M 1132.03315 232.88 
L 1147.53575 232.88 
L 1147.53575 226.699171 
L 1132.03315 226.699171 
z
" style="opacity:0.3;stroke:#000000;stroke-linejoin:miter;"/>
   </g>
   <g id="patch_73">
    <path clip-path="url(#pdaf9144dc2)" d="M 1147.53575 232.88 
L 1163.03835 232.88 
L 1163.03835 226.898553 
L 1147.53575 226.898553 
z
" style="opacity:0.3;stroke:#000000;stroke-linejoin:miter;"/>
   </g>
   <g id="patch_74">
    <path clip-path="url(#pdaf9144dc2)" d="M 1163.03835 232.88 
L 1178.54095 232.88 
L 1178.54095 223.907829 
L 1163.03835 223.907829 
z
" style="opacity:0.3;stroke:#000000;stroke-linejoin:miter;"/>
   </g>
   <g id="patch_75">
    <path clip-path="url(#pdaf9144dc2)" d="M 1178.54095 232.88 
L 1194.04355 232.88 
L 1194.04355 225.3035 
L 1178.54095 225.3035 
z
" style="opacity:0.3;stroke:#000000;stroke-linejoin:miter;"/>
   </g>
   <g id="patch_76">
    <path clip-path="url(#pdaf9144dc2)" d="M 1194.04355 232.88 
L 1209.54615 232.88 
L 1209.54615 224.705356 
L 1194.04355 224.705356 
z
" style="opacity:0.3;stroke:#000000;stroke-linejoin:miter;"/>
   </g>
   <g id="patch_77">
    <path clip-path="url(#pdaf9144dc2)" d="M 1209.54615 232.88 
L 1225.04875 232.88 
L 1225.04875 226.49979 
L 1209.54615 226.49979 
z
" style="opacity:0.3;stroke:#000000;stroke-linejoin:miter;"/>
   </g>
   <g id="patch_78">
    <path clip-path="url(#pdaf9144dc2)" d="M 1225.04875 232.88 
L 1240.55135 232.88 
L 1240.55135 223.708448 
L 1225.04875 223.708448 
z
" style="opacity:0.3;stroke:#000000;stroke-linejoin:miter;"/>
   </g>
   <g id="patch_79">
    <path clip-path="url(#pdaf9144dc2)" d="M 1240.55135 232.88 
L 1256.05395 232.88 
L 1256.05395 226.49979 
L 1240.55135 226.49979 
z
" style="opacity:0.3;stroke:#000000;stroke-linejoin:miter;"/>
   </g>
   <g id="patch_80">
    <path clip-path="url(#pdaf9144dc2)" d="M 1256.05395 232.88 
L 1271.55655 232.88 
L 1271.55655 225.702263 
L 1256.05395 225.702263 
z
" style="opacity:0.3;stroke:#000000;stroke-linejoin:miter;"/>
   </g>
   <g id="patch_81">
    <path clip-path="url(#pdaf9144dc2)" d="M 1271.55655 232.88 
L 1287.05915 232.88 
L 1287.05915 228.493605 
L 1271.55655 228.493605 
z
" style="opacity:0.3;stroke:#000000;stroke-linejoin:miter;"/>
   </g>
   <g id="patch_82">
    <path clip-path="url(#pdaf9144dc2)" d="M 1287.05915 232.88 
L 1302.56175 232.88 
L 1302.56175 229.291132 
L 1287.05915 229.291132 
z
" style="opacity:0.3;stroke:#000000;stroke-linejoin:miter;"/>
   </g>
   <g id="patch_83">
    <path clip-path="url(#pdaf9144dc2)" d="M 1302.56175 232.88 
L 1318.06435 232.88 
L 1318.06435 227.895461 
L 1302.56175 227.895461 
z
" style="opacity:0.3;stroke:#000000;stroke-linejoin:miter;"/>
   </g>
   <g id="patch_84">
    <path clip-path="url(#pdaf9144dc2)" d="M 1318.06435 232.88 
L 1333.56695 232.88 
L 1333.56695 225.104119 
L 1318.06435 225.104119 
z
" style="opacity:0.3;stroke:#000000;stroke-linejoin:miter;"/>
   </g>
   <g id="patch_85">
    <path clip-path="url(#pdaf9144dc2)" d="M 1333.56695 232.88 
L 1349.06955 232.88 
L 1349.06955 229.689895 
L 1333.56695 229.689895 
z
" style="opacity:0.3;stroke:#000000;stroke-linejoin:miter;"/>
   </g>
   <g id="patch_86">
    <path clip-path="url(#pdaf9144dc2)" d="M 1349.06955 232.88 
L 1364.57215 232.88 
L 1364.57215 228.493605 
L 1349.06955 228.493605 
z
" style="opacity:0.3;stroke:#000000;stroke-linejoin:miter;"/>
   </g>
   <g id="patch_87">
    <path clip-path="url(#pdaf9144dc2)" d="M 1364.57215 232.88 
L 1380.07475 232.88 
L 1380.07475 226.49979 
L 1364.57215 226.49979 
z
" style="opacity:0.3;stroke:#000000;stroke-linejoin:miter;"/>
   </g>
   <g id="patch_88">
    <path clip-path="url(#pdaf9144dc2)" d="M 1380.07475 232.88 
L 1395.57735 232.88 
L 1395.57735 228.692987 
L 1380.07475 228.692987 
z
" style="opacity:0.3;stroke:#000000;stroke-linejoin:miter;"/>
   </g>
   <g id="patch_89">
    <path clip-path="url(#pdaf9144dc2)" d="M 1395.57735 232.88 
L 1411.07995 232.88 
L 1411.07995 228.892369 
L 1395.57735 228.892369 
z
" style="opacity:0.3;stroke:#000000;stroke-linejoin:miter;"/>
   </g>
   <g id="patch_90">
    <path clip-path="url(#pdaf9144dc2)" d="M 1411.07995 232.88 
L 1426.58255 232.88 
L 1426.58255 228.294224 
L 1411.07995 228.294224 
z
" style="opacity:0.3;stroke:#000000;stroke-linejoin:miter;"/>
   </g>
   <g id="patch_91">
    <path clip-path="url(#pdaf9144dc2)" d="M 1426.58255 232.88 
L 1442.08515 232.88 
L 1442.08515 230.28804 
L 1426.58255 230.28804 
z
" style="opacity:0.3;stroke:#000000;stroke-linejoin:miter;"/>
   </g>
   <g id="patch_92">
    <path clip-path="url(#pdaf9144dc2)" d="M 1442.08515 232.88 
L 1457.58775 232.88 
L 1457.58775 227.496698 
L 1442.08515 227.496698 
z
" style="opacity:0.3;stroke:#000000;stroke-linejoin:miter;"/>
   </g>
   <g id="patch_93">
    <path clip-path="url(#pdaf9144dc2)" d="M 1457.58775 232.88 
L 1473.09035 232.88 
L 1473.09035 229.09175 
L 1457.58775 229.09175 
z
" style="opacity:0.3;stroke:#000000;stroke-linejoin:miter;"/>
   </g>
   <g id="patch_94">
    <path clip-path="url(#pdaf9144dc2)" d="M 1473.09035 232.88 
L 1488.59295 232.88 
L 1488.59295 228.493605 
L 1473.09035 228.493605 
z
" style="opacity:0.3;stroke:#000000;stroke-linejoin:miter;"/>
   </g>
   <g id="patch_95">
    <path clip-path="url(#pdaf9144dc2)" d="M 1488.59295 232.88 
L 1504.09555 232.88 
L 1504.09555 229.09175 
L 1488.59295 229.09175 
z
" style="opacity:0.3;stroke:#000000;stroke-linejoin:miter;"/>
   </g>
   <g id="patch_96">
    <path clip-path="url(#pdaf9144dc2)" d="M 1504.09555 232.88 
L 1519.59815 232.88 
L 1519.59815 228.892369 
L 1504.09555 228.892369 
z
" style="opacity:0.3;stroke:#000000;stroke-linejoin:miter;"/>
   </g>
   <g id="patch_97">
    <path clip-path="url(#pdaf9144dc2)" d="M 1519.59815 232.88 
L 1535.10075 232.88 
L 1535.10075 227.496698 
L 1519.59815 227.496698 
z
" style="opacity:0.3;stroke:#000000;stroke-linejoin:miter;"/>
   </g>
   <g id="patch_98">
    <path clip-path="url(#pdaf9144dc2)" d="M 1535.10075 232.88 
L 1550.60335 232.88 
L 1550.60335 229.490513 
L 1535.10075 229.490513 
z
" style="opacity:0.3;stroke:#000000;stroke-linejoin:miter;"/>
   </g>
   <g id="patch_99">
    <path clip-path="url(#pdaf9144dc2)" d="M 1550.60335 232.88 
L 1566.10595 232.88 
L 1566.10595 229.689895 
L 1550.60335 229.689895 
z
" style="opacity:0.3;stroke:#000000;stroke-linejoin:miter;"/>
   </g>
   <g id="patch_100">
    <path clip-path="url(#pdaf9144dc2)" d="M 1566.10595 232.88 
L 1581.60855 232.88 
L 1581.60855 229.689895 
L 1566.10595 229.689895 
z
" style="opacity:0.3;stroke:#000000;stroke-linejoin:miter;"/>
   </g>
   <g id="patch_101">
    <path clip-path="url(#pdaf9144dc2)" d="M 1581.60855 232.88 
L 1597.11115 232.88 
L 1597.11115 230.487421 
L 1581.60855 230.487421 
z
" style="opacity:0.3;stroke:#000000;stroke-linejoin:miter;"/>
   </g>
   <g id="patch_102">
    <path clip-path="url(#pdaf9144dc2)" d="M 1597.11115 232.88 
L 1612.61375 232.88 
L 1612.61375 229.490513 
L 1597.11115 229.490513 
z
" style="opacity:0.3;stroke:#000000;stroke-linejoin:miter;"/>
   </g>
   <g id="patch_103">
    <path clip-path="url(#pdaf9144dc2)" d="M 1612.61375 232.88 
L 1628.11635 232.88 
L 1628.11635 228.692987 
L 1612.61375 228.692987 
z
" style="opacity:0.3;stroke:#000000;stroke-linejoin:miter;"/>
   </g>
   <g id="patch_104">
    <path clip-path="url(#pdaf9144dc2)" d="M 1628.11635 232.88 
L 1643.61895 232.88 
L 1643.61895 229.689895 
L 1628.11635 229.689895 
z
" style="opacity:0.3;stroke:#000000;stroke-linejoin:miter;"/>
   </g>
   <g id="patch_105">
    <path clip-path="url(#pdaf9144dc2)" d="M 1643.61895 232.88 
L 1659.12155 232.88 
L 1659.12155 230.088658 
L 1643.61895 230.088658 
z
" style="opacity:0.3;stroke:#000000;stroke-linejoin:miter;"/>
   </g>
   <g id="patch_106">
    <path clip-path="url(#pdaf9144dc2)" d="M 1659.12155 232.88 
L 1674.62415 232.88 
L 1674.62415 230.686803 
L 1659.12155 230.686803 
z
" style="opacity:0.3;stroke:#000000;stroke-linejoin:miter;"/>
   </g>
   <g id="patch_107">
    <path clip-path="url(#pdaf9144dc2)" d="M 1674.62415 232.88 
L 1690.12675 232.88 
L 1690.12675 229.889276 
L 1674.62415 229.889276 
z
" style="opacity:0.3;stroke:#000000;stroke-linejoin:miter;"/>
   </g>
   <g id="patch_108">
    <path clip-path="url(#pdaf9144dc2)" d="M 1690.12675 232.88 
L 1705.62935 232.88 
L 1705.62935 230.28804 
L 1690.12675 230.28804 
z
" style="opacity:0.3;stroke:#000000;stroke-linejoin:miter;"/>
   </g>
   <g id="patch_109">
    <path clip-path="url(#pdaf9144dc2)" d="M 1705.62935 232.88 
L 1721.13195 232.88 
L 1721.13195 230.088658 
L 1705.62935 230.088658 
z
" style="opacity:0.3;stroke:#000000;stroke-linejoin:miter;"/>
   </g>
   <g id="patch_110">
    <path clip-path="url(#pdaf9144dc2)" d="M 1721.13195 232.88 
L 1736.63455 232.88 
L 1736.63455 230.28804 
L 1721.13195 230.28804 
z
" style="opacity:0.3;stroke:#000000;stroke-linejoin:miter;"/>
   </g>
   <g id="patch_111">
    <path clip-path="url(#pdaf9144dc2)" d="M 1736.63455 232.88 
L 1752.13715 232.88 
L 1752.13715 231.683711 
L 1736.63455 231.683711 
z
" style="opacity:0.3;stroke:#000000;stroke-linejoin:miter;"/>
   </g>
   <g id="patch_112">
    <path clip-path="url(#pdaf9144dc2)" d="M 1752.13715 232.88 
L 1767.63975 232.88 
L 1767.63975 230.686803 
L 1752.13715 230.686803 
z
" style="opacity:0.3;stroke:#000000;stroke-linejoin:miter;"/>
   </g>
   <g id="patch_113">
    <path clip-path="url(#pdaf9144dc2)" d="M 1767.63975 232.88 
L 1783.14235 232.88 
L 1783.14235 230.28804 
L 1767.63975 230.28804 
z
" style="opacity:0.3;stroke:#000000;stroke-linejoin:miter;"/>
   </g>
   <g id="patch_114">
    <path clip-path="url(#pdaf9144dc2)" d="M 1783.14235 232.88 
L 1798.64495 232.88 
L 1798.64495 231.683711 
L 1783.14235 231.683711 
z
" style="opacity:0.3;stroke:#000000;stroke-linejoin:miter;"/>
   </g>
   <g id="patch_115">
    <path clip-path="url(#pdaf9144dc2)" d="M 1798.64495 232.88 
L 1814.14755 232.88 
L 1814.14755 231.883092 
L 1798.64495 231.883092 
z
" style="opacity:0.3;stroke:#000000;stroke-linejoin:miter;"/>
   </g>
   <g id="patch_116">
    <path clip-path="url(#pdaf9144dc2)" d="M 1814.14755 232.88 
L 1829.65015 232.88 
L 1829.65015 230.088658 
L 1814.14755 230.088658 
z
" style="opacity:0.3;stroke:#000000;stroke-linejoin:miter;"/>
   </g>
   <g id="patch_117">
    <path clip-path="url(#pdaf9144dc2)" d="M 1829.65015 232.88 
L 1845.15275 232.88 
L 1845.15275 230.886184 
L 1829.65015 230.886184 
z
" style="opacity:0.3;stroke:#000000;stroke-linejoin:miter;"/>
   </g>
   <g id="patch_118">
    <path clip-path="url(#pdaf9144dc2)" d="M 1845.15275 232.88 
L 1860.65535 232.88 
L 1860.65535 231.883092 
L 1845.15275 231.883092 
z
" style="opacity:0.3;stroke:#000000;stroke-linejoin:miter;"/>
   </g>
   <g id="patch_119">
    <path clip-path="url(#pdaf9144dc2)" d="M 1860.65535 232.88 
L 1876.15795 232.88 
L 1876.15795 230.686803 
L 1860.65535 230.686803 
z
" style="opacity:0.3;stroke:#000000;stroke-linejoin:miter;"/>
   </g>
   <g id="patch_120">
    <path clip-path="url(#pdaf9144dc2)" d="M 1876.15795 232.88 
L 1891.66055 232.88 
L 1891.66055 231.284947 
L 1876.15795 231.284947 
z
" style="opacity:0.3;stroke:#000000;stroke-linejoin:miter;"/>
   </g>
   <g id="patch_121">
    <path clip-path="url(#pdaf9144dc2)" d="M 1891.66055 232.88 
L 1907.16315 232.88 
L 1907.16315 229.889276 
L 1891.66055 229.889276 
z
" style="opacity:0.3;stroke:#000000;stroke-linejoin:miter;"/>
   </g>
   <g id="patch_122">
    <path clip-path="url(#pdaf9144dc2)" d="M 1907.16315 232.88 
L 1922.66575 232.88 
L 1922.66575 231.085566 
L 1907.16315 231.085566 
z
" style="opacity:0.3;stroke:#000000;stroke-linejoin:miter;"/>
   </g>
   <g id="patch_123">
    <path clip-path="url(#pdaf9144dc2)" d="M 1922.66575 232.88 
L 1938.16835 232.88 
L 1938.16835 231.883092 
L 1922.66575 231.883092 
z
" style="opacity:0.3;stroke:#000000;stroke-linejoin:miter;"/>
   </g>
   <g id="patch_124">
    <path clip-path="url(#pdaf9144dc2)" d="M 1938.16835 232.88 
L 1953.67095 232.88 
L 1953.67095 231.683711 
L 1938.16835 231.683711 
z
" style="opacity:0.3;stroke:#000000;stroke-linejoin:miter;"/>
   </g>
   <g id="patch_125">
    <path clip-path="url(#pdaf9144dc2)" d="M 1953.67095 232.88 
L 1969.17355 232.88 
L 1969.17355 231.284947 
L 1953.67095 231.284947 
z
" style="opacity:0.3;stroke:#000000;stroke-linejoin:miter;"/>
   </g>
   <g id="patch_126">
    <path clip-path="url(#pdaf9144dc2)" d="M 1969.17355 232.88 
L 1984.67615 232.88 
L 1984.67615 231.284947 
L 1969.17355 231.284947 
z
" style="opacity:0.3;stroke:#000000;stroke-linejoin:miter;"/>
   </g>
   <g id="patch_127">
    <path clip-path="url(#pdaf9144dc2)" d="M 1984.67615 232.88 
L 2000.17875 232.88 
L 2000.17875 231.883092 
L 1984.67615 231.883092 
z
" style="opacity:0.3;stroke:#000000;stroke-linejoin:miter;"/>
   </g>
   <g id="patch_128">
    <path clip-path="url(#pdaf9144dc2)" d="M 2000.17875 232.88 
L 2015.68135 232.88 
L 2015.68135 229.889276 
L 2000.17875 229.889276 
z
" style="opacity:0.3;stroke:#000000;stroke-linejoin:miter;"/>
   </g>
   <g id="patch_129">
    <path clip-path="url(#pdaf9144dc2)" d="M 2015.68135 232.88 
L 2031.18395 232.88 
L 2031.18395 231.484329 
L 2015.68135 231.484329 
z
" style="opacity:0.3;stroke:#000000;stroke-linejoin:miter;"/>
   </g>
   <g id="patch_130">
    <path clip-path="url(#pdaf9144dc2)" d="M 2031.18395 232.88 
L 2046.68655 232.88 
L 2046.68655 231.085566 
L 2031.18395 231.085566 
z
" style="opacity:0.3;stroke:#000000;stroke-linejoin:miter;"/>
   </g>
   <g id="patch_131">
    <path clip-path="url(#pdaf9144dc2)" d="M 2046.68655 232.88 
L 2062.18915 232.88 
L 2062.18915 230.686803 
L 2046.68655 230.686803 
z
" style="opacity:0.3;stroke:#000000;stroke-linejoin:miter;"/>
   </g>
   <g id="patch_132">
    <path clip-path="url(#pdaf9144dc2)" d="M 2062.18915 232.88 
L 2077.69175 232.88 
L 2077.69175 231.085566 
L 2062.18915 231.085566 
z
" style="opacity:0.3;stroke:#000000;stroke-linejoin:miter;"/>
   </g>
   <g id="patch_133">
    <path clip-path="url(#pdaf9144dc2)" d="M 2077.69175 232.88 
L 2093.19435 232.88 
L 2093.19435 231.883092 
L 2077.69175 231.883092 
z
" style="opacity:0.3;stroke:#000000;stroke-linejoin:miter;"/>
   </g>
   <g id="patch_134">
    <path clip-path="url(#pdaf9144dc2)" d="M 2093.19435 232.88 
L 2108.69695 232.88 
L 2108.69695 231.484329 
L 2093.19435 231.484329 
z
" style="opacity:0.3;stroke:#000000;stroke-linejoin:miter;"/>
   </g>
   <g id="patch_135">
    <path clip-path="url(#pdaf9144dc2)" d="M 2108.69695 232.88 
L 2124.19955 232.88 
L 2124.19955 231.085566 
L 2108.69695 231.085566 
z
" style="opacity:0.3;stroke:#000000;stroke-linejoin:miter;"/>
   </g>
   <g id="patch_136">
    <path clip-path="url(#pdaf9144dc2)" d="M 2124.19955 232.88 
L 2139.70215 232.88 
L 2139.70215 231.883092 
L 2124.19955 231.883092 
z
" style="opacity:0.3;stroke:#000000;stroke-linejoin:miter;"/>
   </g>
   <g id="patch_137">
    <path clip-path="url(#pdaf9144dc2)" d="M 2139.70215 232.88 
L 2155.20475 232.88 
L 2155.20475 231.484329 
L 2139.70215 231.484329 
z
" style="opacity:0.3;stroke:#000000;stroke-linejoin:miter;"/>
   </g>
   <g id="patch_138">
    <path clip-path="url(#pdaf9144dc2)" d="M 2155.20475 232.88 
L 2170.70735 232.88 
L 2170.70735 232.082474 
L 2155.20475 232.082474 
z
" style="opacity:0.3;stroke:#000000;stroke-linejoin:miter;"/>
   </g>
   <g id="patch_139">
    <path clip-path="url(#pdaf9144dc2)" d="M 2170.70735 232.88 
L 2186.20995 232.88 
L 2186.20995 231.683711 
L 2170.70735 231.683711 
z
" style="opacity:0.3;stroke:#000000;stroke-linejoin:miter;"/>
   </g>
   <g id="patch_140">
    <path clip-path="url(#pdaf9144dc2)" d="M 2186.20995 232.88 
L 2201.71255 232.88 
L 2201.71255 232.481237 
L 2186.20995 232.481237 
z
" style="opacity:0.3;stroke:#000000;stroke-linejoin:miter;"/>
   </g>
   <g id="patch_141">
    <path clip-path="url(#pdaf9144dc2)" d="M 2201.71255 232.88 
L 2217.21515 232.88 
L 2217.21515 232.082474 
L 2201.71255 232.082474 
z
" style="opacity:0.3;stroke:#000000;stroke-linejoin:miter;"/>
   </g>
   <g id="patch_142">
    <path clip-path="url(#pdaf9144dc2)" d="M 2217.21515 232.88 
L 2232.71775 232.88 
L 2232.71775 231.284947 
L 2217.21515 231.284947 
z
" style="opacity:0.3;stroke:#000000;stroke-linejoin:miter;"/>
   </g>
   <g id="patch_143">
    <path clip-path="url(#pdaf9144dc2)" d="M 2232.71775 232.88 
L 2248.22035 232.88 
L 2248.22035 231.284947 
L 2232.71775 231.284947 
z
" style="opacity:0.3;stroke:#000000;stroke-linejoin:miter;"/>
   </g>
   <g id="patch_144">
    <path clip-path="url(#pdaf9144dc2)" d="M 2248.22035 232.88 
L 2263.72295 232.88 
L 2263.72295 231.484329 
L 2248.22035 231.484329 
z
" style="opacity:0.3;stroke:#000000;stroke-linejoin:miter;"/>
   </g>
   <g id="patch_145">
    <path clip-path="url(#pdaf9144dc2)" d="M 2263.72295 232.88 
L 2279.22555 232.88 
L 2279.22555 231.085566 
L 2263.72295 231.085566 
z
" style="opacity:0.3;stroke:#000000;stroke-linejoin:miter;"/>
   </g>
   <g id="patch_146">
    <path clip-path="url(#pdaf9144dc2)" d="M 2279.22555 232.88 
L 2294.72815 232.88 
L 2294.72815 231.484329 
L 2279.22555 231.484329 
z
" style="opacity:0.3;stroke:#000000;stroke-linejoin:miter;"/>
   </g>
   <g id="patch_147">
    <path clip-path="url(#pdaf9144dc2)" d="M 2294.72815 232.88 
L 2310.23075 232.88 
L 2310.23075 232.281855 
L 2294.72815 232.281855 
z
" style="opacity:0.3;stroke:#000000;stroke-linejoin:miter;"/>
   </g>
   <g id="patch_148">
    <path clip-path="url(#pdaf9144dc2)" d="M 2310.23075 232.88 
L 2325.73335 232.88 
L 2325.73335 231.683711 
L 2310.23075 231.683711 
z
" style="opacity:0.3;stroke:#000000;stroke-linejoin:miter;"/>
   </g>
   <g id="patch_149">
    <path clip-path="url(#pdaf9144dc2)" d="M 2325.73335 232.88 
L 2341.23595 232.88 
L 2341.23595 231.085566 
L 2325.73335 231.085566 
z
" style="opacity:0.3;stroke:#000000;stroke-linejoin:miter;"/>
   </g>
   <g id="patch_150">
    <path clip-path="url(#pdaf9144dc2)" d="M 2341.23595 232.88 
L 2356.73855 232.88 
L 2356.73855 230.487421 
L 2341.23595 230.487421 
z
" style="opacity:0.3;stroke:#000000;stroke-linejoin:miter;"/>
   </g>
   <g id="patch_151">
    <path clip-path="url(#pdaf9144dc2)" d="M 2356.73855 232.88 
L 2372.24115 232.88 
L 2372.24115 231.683711 
L 2356.73855 231.683711 
z
" style="opacity:0.3;stroke:#000000;stroke-linejoin:miter;"/>
   </g>
   <g id="patch_152">
    <path clip-path="url(#pdaf9144dc2)" d="M 2372.24115 232.88 
L 2387.74375 232.88 
L 2387.74375 231.484329 
L 2372.24115 231.484329 
z
" style="opacity:0.3;stroke:#000000;stroke-linejoin:miter;"/>
   </g>
   <g id="patch_153">
    <path clip-path="url(#pdaf9144dc2)" d="M 2387.74375 232.88 
L 2403.24635 232.88 
L 2403.24635 231.683711 
L 2387.74375 231.683711 
z
" style="opacity:0.3;stroke:#000000;stroke-linejoin:miter;"/>
   </g>
   <g id="patch_154">
    <path clip-path="url(#pdaf9144dc2)" d="M 2403.24635 232.88 
L 2418.74895 232.88 
L 2418.74895 231.683711 
L 2403.24635 231.683711 
z
" style="opacity:0.3;stroke:#000000;stroke-linejoin:miter;"/>
   </g>
   <g id="patch_155">
    <path clip-path="url(#pdaf9144dc2)" d="M 2418.74895 232.88 
L 2434.25155 232.88 
L 2434.25155 232.082474 
L 2418.74895 232.082474 
z
" style="opacity:0.3;stroke:#000000;stroke-linejoin:miter;"/>
   </g>
   <g id="patch_156">
    <path clip-path="url(#pdaf9144dc2)" d="M 2434.25155 232.88 
L 2449.75415 232.88 
L 2449.75415 232.082474 
L 2434.25155 232.082474 
z
" style="opacity:0.3;stroke:#000000;stroke-linejoin:miter;"/>
   </g>
   <g id="patch_157">
    <path clip-path="url(#pdaf9144dc2)" d="M 2449.75415 232.88 
L 2465.25675 232.88 
L 2465.25675 232.281855 
L 2449.75415 232.281855 
z
" style="opacity:0.3;stroke:#000000;stroke-linejoin:miter;"/>
   </g>
   <g id="patch_158">
    <path clip-path="url(#pdaf9144dc2)" d="M 2465.25675 232.88 
L 2480.75935 232.88 
L 2480.75935 231.683711 
L 2465.25675 231.683711 
z
" style="opacity:0.3;stroke:#000000;stroke-linejoin:miter;"/>
   </g>
   <g id="patch_159">
    <path clip-path="url(#pdaf9144dc2)" d="M 2480.75935 232.88 
L 2496.26195 232.88 
L 2496.26195 232.281855 
L 2480.75935 232.281855 
z
" style="opacity:0.3;stroke:#000000;stroke-linejoin:miter;"/>
   </g>
   <g id="patch_160">
    <path clip-path="url(#pdaf9144dc2)" d="M 2496.26195 232.88 
L 2511.76455 232.88 
L 2511.76455 231.284947 
L 2496.26195 231.284947 
z
" style="opacity:0.3;stroke:#000000;stroke-linejoin:miter;"/>
   </g>
   <g id="patch_161">
    <path clip-path="url(#pdaf9144dc2)" d="M 2511.76455 232.88 
L 2527.26715 232.88 
L 2527.26715 231.284947 
L 2511.76455 231.284947 
z
" style="opacity:0.3;stroke:#000000;stroke-linejoin:miter;"/>
   </g>
   <g id="patch_162">
    <path clip-path="url(#pdaf9144dc2)" d="M 2527.26715 232.88 
L 2542.76975 232.88 
L 2542.76975 232.082474 
L 2527.26715 232.082474 
z
" style="opacity:0.3;stroke:#000000;stroke-linejoin:miter;"/>
   </g>
   <g id="patch_163">
    <path clip-path="url(#pdaf9144dc2)" d="M 2542.76975 232.88 
L 2558.27235 232.88 
L 2558.27235 231.284947 
L 2542.76975 231.284947 
z
" style="opacity:0.3;stroke:#000000;stroke-linejoin:miter;"/>
   </g>
   <g id="patch_164">
    <path clip-path="url(#pdaf9144dc2)" d="M 2558.27235 232.88 
L 2573.77495 232.88 
L 2573.77495 232.281855 
L 2558.27235 232.281855 
z
" style="opacity:0.3;stroke:#000000;stroke-linejoin:miter;"/>
   </g>
   <g id="patch_165">
    <path clip-path="url(#pdaf9144dc2)" d="M 2573.77495 232.88 
L 2589.27755 232.88 
L 2589.27755 231.683711 
L 2573.77495 231.683711 
z
" style="opacity:0.3;stroke:#000000;stroke-linejoin:miter;"/>
   </g>
   <g id="patch_166">
    <path clip-path="url(#pdaf9144dc2)" d="M 2589.27755 232.88 
L 2604.78015 232.88 
L 2604.78015 232.082474 
L 2589.27755 232.082474 
z
" style="opacity:0.3;stroke:#000000;stroke-linejoin:miter;"/>
   </g>
   <g id="patch_167">
    <path clip-path="url(#pdaf9144dc2)" d="M 2604.78015 232.88 
L 2620.28275 232.88 
L 2620.28275 232.481237 
L 2604.78015 232.481237 
z
" style="opacity:0.3;stroke:#000000;stroke-linejoin:miter;"/>
   </g>
   <g id="patch_168">
    <path clip-path="url(#pdaf9144dc2)" d="M 2620.28275 232.88 
L 2635.78535 232.88 
L 2635.78535 232.481237 
L 2620.28275 232.481237 
z
" style="opacity:0.3;stroke:#000000;stroke-linejoin:miter;"/>
   </g>
   <g id="patch_169">
    <path clip-path="url(#pdaf9144dc2)" d="M 2635.78535 232.88 
L 2651.28795 232.88 
L 2651.28795 232.082474 
L 2635.78535 232.082474 
z
" style="opacity:0.3;stroke:#000000;stroke-linejoin:miter;"/>
   </g>
   <g id="patch_170">
    <path clip-path="url(#pdaf9144dc2)" d="M 2651.28795 232.88 
L 2666.79055 232.88 
L 2666.79055 232.082474 
L 2651.28795 232.082474 
z
" style="opacity:0.3;stroke:#000000;stroke-linejoin:miter;"/>
   </g>
   <g id="patch_171">
    <path clip-path="url(#pdaf9144dc2)" d="M 2666.79055 232.88 
L 2682.29315 232.88 
L 2682.29315 232.481237 
L 2666.79055 232.481237 
z
" style="opacity:0.3;stroke:#000000;stroke-linejoin:miter;"/>
   </g>
   <g id="patch_172">
    <path clip-path="url(#pdaf9144dc2)" d="M 2682.29315 232.88 
L 2697.79575 232.88 
L 2697.79575 231.883092 
L 2682.29315 231.883092 
z
" style="opacity:0.3;stroke:#000000;stroke-linejoin:miter;"/>
   </g>
   <g id="patch_173">
    <path clip-path="url(#pdaf9144dc2)" d="M 2697.79575 232.88 
L 2713.29835 232.88 
L 2713.29835 232.88 
L 2697.79575 232.88 
z
" style="opacity:0.3;stroke:#000000;stroke-linejoin:miter;"/>
   </g>
   <g id="patch_174">
    <path clip-path="url(#pdaf9144dc2)" d="M 2713.29835 232.88 
L 2728.80095 232.88 
L 2728.80095 232.680618 
L 2713.29835 232.680618 
z
" style="opacity:0.3;stroke:#000000;stroke-linejoin:miter;"/>
   </g>
   <g id="patch_175">
    <path clip-path="url(#pdaf9144dc2)" d="M 2728.80095 232.88 
L 2744.30355 232.88 
L 2744.30355 232.281855 
L 2728.80095 232.281855 
z
" style="opacity:0.3;stroke:#000000;stroke-linejoin:miter;"/>
   </g>
   <g id="patch_176">
    <path clip-path="url(#pdaf9144dc2)" d="M 2744.30355 232.88 
L 2759.80615 232.88 
L 2759.80615 232.481237 
L 2744.30355 232.481237 
z
" style="opacity:0.3;stroke:#000000;stroke-linejoin:miter;"/>
   </g>
   <g id="patch_177">
    <path clip-path="url(#pdaf9144dc2)" d="M 2759.80615 232.88 
L 2775.30875 232.88 
L 2775.30875 231.883092 
L 2759.80615 231.883092 
z
" style="opacity:0.3;stroke:#000000;stroke-linejoin:miter;"/>
   </g>
   <g id="patch_178">
    <path clip-path="url(#pdaf9144dc2)" d="M 2775.30875 232.88 
L 2790.81135 232.88 
L 2790.81135 231.883092 
L 2775.30875 231.883092 
z
" style="opacity:0.3;stroke:#000000;stroke-linejoin:miter;"/>
   </g>
   <g id="patch_179">
    <path clip-path="url(#pdaf9144dc2)" d="M 2790.81135 232.88 
L 2806.31395 232.88 
L 2806.31395 232.281855 
L 2790.81135 232.281855 
z
" style="opacity:0.3;stroke:#000000;stroke-linejoin:miter;"/>
   </g>
   <g id="patch_180">
    <path clip-path="url(#pdaf9144dc2)" d="M 2806.31395 232.88 
L 2821.81655 232.88 
L 2821.81655 232.082474 
L 2806.31395 232.082474 
z
" style="opacity:0.3;stroke:#000000;stroke-linejoin:miter;"/>
   </g>
   <g id="patch_181">
    <path clip-path="url(#pdaf9144dc2)" d="M 2821.81655 232.88 
L 2837.31915 232.88 
L 2837.31915 232.082474 
L 2821.81655 232.082474 
z
" style="opacity:0.3;stroke:#000000;stroke-linejoin:miter;"/>
   </g>
   <g id="patch_182">
    <path clip-path="url(#pdaf9144dc2)" d="M 2837.31915 232.88 
L 2852.82175 232.88 
L 2852.82175 232.481237 
L 2837.31915 232.481237 
z
" style="opacity:0.3;stroke:#000000;stroke-linejoin:miter;"/>
   </g>
   <g id="patch_183">
    <path clip-path="url(#pdaf9144dc2)" d="M 2852.82175 232.88 
L 2868.32435 232.88 
L 2868.32435 232.88 
L 2852.82175 232.88 
z
" style="opacity:0.3;stroke:#000000;stroke-linejoin:miter;"/>
   </g>
   <g id="patch_184">
    <path clip-path="url(#pdaf9144dc2)" d="M 2868.32435 232.88 
L 2883.82695 232.88 
L 2883.82695 232.281855 
L 2868.32435 232.281855 
z
" style="opacity:0.3;stroke:#000000;stroke-linejoin:miter;"/>
   </g>
   <g id="patch_185">
    <path clip-path="url(#pdaf9144dc2)" d="M 2883.82695 232.88 
L 2899.32955 232.88 
L 2899.32955 232.680618 
L 2883.82695 232.680618 
z
" style="opacity:0.3;stroke:#000000;stroke-linejoin:miter;"/>
   </g>
   <g id="patch_186">
    <path clip-path="url(#pdaf9144dc2)" d="M 2899.32955 232.88 
L 2914.83215 232.88 
L 2914.83215 232.680618 
L 2899.32955 232.680618 
z
" style="opacity:0.3;stroke:#000000;stroke-linejoin:miter;"/>
   </g>
   <g id="patch_187">
    <path clip-path="url(#pdaf9144dc2)" d="M 2914.83215 232.88 
L 2930.33475 232.88 
L 2930.33475 232.281855 
L 2914.83215 232.281855 
z
" style="opacity:0.3;stroke:#000000;stroke-linejoin:miter;"/>
   </g>
   <g id="patch_188">
    <path clip-path="url(#pdaf9144dc2)" d="M 2930.33475 232.88 
L 2945.83735 232.88 
L 2945.83735 232.281855 
L 2930.33475 232.281855 
z
" style="opacity:0.3;stroke:#000000;stroke-linejoin:miter;"/>
   </g>
   <g id="patch_189">
    <path clip-path="url(#pdaf9144dc2)" d="M 2945.83735 232.88 
L 2961.33995 232.88 
L 2961.33995 231.484329 
L 2945.83735 231.484329 
z
" style="opacity:0.3;stroke:#000000;stroke-linejoin:miter;"/>
   </g>
   <g id="patch_190">
    <path clip-path="url(#pdaf9144dc2)" d="M 2961.33995 232.88 
L 2976.84255 232.88 
L 2976.84255 232.281855 
L 2961.33995 232.281855 
z
" style="opacity:0.3;stroke:#000000;stroke-linejoin:miter;"/>
   </g>
   <g id="patch_191">
    <path clip-path="url(#pdaf9144dc2)" d="M 2976.84255 232.88 
L 2992.34515 232.88 
L 2992.34515 232.082474 
L 2976.84255 232.082474 
z
" style="opacity:0.3;stroke:#000000;stroke-linejoin:miter;"/>
   </g>
   <g id="patch_192">
    <path clip-path="url(#pdaf9144dc2)" d="M 2992.34515 232.88 
L 3007.84775 232.88 
L 3007.84775 232.281855 
L 2992.34515 232.281855 
z
" style="opacity:0.3;stroke:#000000;stroke-linejoin:miter;"/>
   </g>
   <g id="patch_193">
    <path clip-path="url(#pdaf9144dc2)" d="M 3007.84775 232.88 
L 3023.35035 232.88 
L 3023.35035 232.88 
L 3007.84775 232.88 
z
" style="opacity:0.3;stroke:#000000;stroke-linejoin:miter;"/>
   </g>
   <g id="patch_194">
    <path clip-path="url(#pdaf9144dc2)" d="M 3023.35035 232.88 
L 3038.85295 232.88 
L 3038.85295 232.082474 
L 3023.35035 232.082474 
z
" style="opacity:0.3;stroke:#000000;stroke-linejoin:miter;"/>
   </g>
   <g id="patch_195">
    <path clip-path="url(#pdaf9144dc2)" d="M 3038.85295 232.88 
L 3054.35555 232.88 
L 3054.35555 232.481237 
L 3038.85295 232.481237 
z
" style="opacity:0.3;stroke:#000000;stroke-linejoin:miter;"/>
   </g>
   <g id="patch_196">
    <path clip-path="url(#pdaf9144dc2)" d="M 3054.35555 232.88 
L 3069.85815 232.88 
L 3069.85815 232.481237 
L 3054.35555 232.481237 
z
" style="opacity:0.3;stroke:#000000;stroke-linejoin:miter;"/>
   </g>
   <g id="patch_197">
    <path clip-path="url(#pdaf9144dc2)" d="M 3069.85815 232.88 
L 3085.36075 232.88 
L 3085.36075 232.481237 
L 3069.85815 232.481237 
z
" style="opacity:0.3;stroke:#000000;stroke-linejoin:miter;"/>
   </g>
   <g id="patch_198">
    <path clip-path="url(#pdaf9144dc2)" d="M 3085.36075 232.88 
L 3100.86335 232.88 
L 3100.86335 232.281855 
L 3085.36075 232.281855 
z
" style="opacity:0.3;stroke:#000000;stroke-linejoin:miter;"/>
   </g>
   <g id="patch_199">
    <path clip-path="url(#pdaf9144dc2)" d="M 3100.86335 232.88 
L 3116.36595 232.88 
L 3116.36595 232.680618 
L 3100.86335 232.680618 
z
" style="opacity:0.3;stroke:#000000;stroke-linejoin:miter;"/>
   </g>
   <g id="patch_200">
    <path clip-path="url(#pdaf9144dc2)" d="M 3116.36595 232.88 
L 3131.86855 232.88 
L 3131.86855 232.481237 
L 3116.36595 232.481237 
z
" style="opacity:0.3;stroke:#000000;stroke-linejoin:miter;"/>
   </g>
   <g id="patch_201">
    <path clip-path="url(#pdaf9144dc2)" d="M 3131.86855 232.88 
L 3147.37115 232.88 
L 3147.37115 232.481237 
L 3131.86855 232.481237 
z
" style="opacity:0.3;stroke:#000000;stroke-linejoin:miter;"/>
   </g>
   <g id="patch_202">
    <path clip-path="url(#pdaf9144dc2)" d="M 3147.37115 232.88 
L 3162.87375 232.88 
L 3162.87375 232.281855 
L 3147.37115 232.281855 
z
" style="opacity:0.3;stroke:#000000;stroke-linejoin:miter;"/>
   </g>
   <g id="patch_203">
    <path clip-path="url(#pdaf9144dc2)" d="M 3162.87375 232.88 
L 3178.37635 232.88 
L 3178.37635 232.481237 
L 3162.87375 232.481237 
z
" style="opacity:0.3;stroke:#000000;stroke-linejoin:miter;"/>
   </g>
   <g id="patch_204">
    <path clip-path="url(#pdaf9144dc2)" d="M 3178.37635 232.88 
L 3193.87895 232.88 
L 3193.87895 232.082474 
L 3178.37635 232.082474 
z
" style="opacity:0.3;stroke:#000000;stroke-linejoin:miter;"/>
   </g>
   <g id="patch_205">
    <path clip-path="url(#pdaf9144dc2)" d="M 3193.87895 232.88 
L 3209.38155 232.88 
L 3209.38155 232.680618 
L 3193.87895 232.680618 
z
" style="opacity:0.3;stroke:#000000;stroke-linejoin:miter;"/>
   </g>
   <g id="patch_206">
    <path clip-path="url(#pdaf9144dc2)" d="M 3209.38155 232.88 
L 3224.88415 232.88 
L 3224.88415 232.680618 
L 3209.38155 232.680618 
z
" style="opacity:0.3;stroke:#000000;stroke-linejoin:miter;"/>
   </g>
   <g id="patch_207">
    <path clip-path="url(#pdaf9144dc2)" d="M 3224.88415 232.88 
L 3240.38675 232.88 
L 3240.38675 232.680618 
L 3224.88415 232.680618 
z
" style="opacity:0.3;stroke:#000000;stroke-linejoin:miter;"/>
   </g>
   <g id="patch_208">
    <path clip-path="url(#pdaf9144dc2)" d="M 3240.38675 232.88 
L 3255.88935 232.88 
L 3255.88935 232.88 
L 3240.38675 232.88 
z
" style="opacity:0.3;stroke:#000000;stroke-linejoin:miter;"/>
   </g>
   <g id="patch_209">
    <path clip-path="url(#pdaf9144dc2)" d="M 3255.88935 232.88 
L 3271.39195 232.88 
L 3271.39195 232.481237 
L 3255.88935 232.481237 
z
" style="opacity:0.3;stroke:#000000;stroke-linejoin:miter;"/>
   </g>
   <g id="patch_210">
    <path clip-path="url(#pdaf9144dc2)" d="M 3271.39195 232.88 
L 3286.89455 232.88 
L 3286.89455 232.481237 
L 3271.39195 232.481237 
z
" style="opacity:0.3;stroke:#000000;stroke-linejoin:miter;"/>
   </g>
   <g id="patch_211">
    <path clip-path="url(#pdaf9144dc2)" d="M 3286.89455 232.88 
L 3302.39715 232.88 
L 3302.39715 232.680618 
L 3286.89455 232.680618 
z
" style="opacity:0.3;stroke:#000000;stroke-linejoin:miter;"/>
   </g>
   <g id="patch_212">
    <path clip-path="url(#pdaf9144dc2)" d="M 3302.39715 232.88 
L 3317.89975 232.88 
L 3317.89975 232.88 
L 3302.39715 232.88 
z
" style="opacity:0.3;stroke:#000000;stroke-linejoin:miter;"/>
   </g>
   <g id="patch_213">
    <path clip-path="url(#pdaf9144dc2)" d="M 3317.89975 232.88 
L 3333.40235 232.88 
L 3333.40235 232.88 
L 3317.89975 232.88 
z
" style="opacity:0.3;stroke:#000000;stroke-linejoin:miter;"/>
   </g>
   <g id="patch_214">
    <path clip-path="url(#pdaf9144dc2)" d="M 3333.40235 232.88 
L 3348.90495 232.88 
L 3348.90495 232.680618 
L 3333.40235 232.680618 
z
" style="opacity:0.3;stroke:#000000;stroke-linejoin:miter;"/>
   </g>
   <g id="patch_215">
    <path clip-path="url(#pdaf9144dc2)" d="M 3348.90495 232.88 
L 3364.40755 232.88 
L 3364.40755 232.88 
L 3348.90495 232.88 
z
" style="opacity:0.3;stroke:#000000;stroke-linejoin:miter;"/>
   </g>
   <g id="patch_216">
    <path clip-path="url(#pdaf9144dc2)" d="M 3364.40755 232.88 
L 3379.91015 232.88 
L 3379.91015 232.88 
L 3364.40755 232.88 
z
" style="opacity:0.3;stroke:#000000;stroke-linejoin:miter;"/>
   </g>
   <g id="patch_217">
    <path clip-path="url(#pdaf9144dc2)" d="M 3379.91015 232.88 
L 3395.41275 232.88 
L 3395.41275 232.082474 
L 3379.91015 232.082474 
z
" style="opacity:0.3;stroke:#000000;stroke-linejoin:miter;"/>
   </g>
   <g id="patch_218">
    <path clip-path="url(#pdaf9144dc2)" d="M 3395.41275 232.88 
L 3410.91535 232.88 
L 3410.91535 232.281855 
L 3395.41275 232.281855 
z
" style="opacity:0.3;stroke:#000000;stroke-linejoin:miter;"/>
   </g>
   <g id="patch_219">
    <path clip-path="url(#pdaf9144dc2)" d="M 3410.91535 232.88 
L 3426.41795 232.88 
L 3426.41795 232.88 
L 3410.91535 232.88 
z
" style="opacity:0.3;stroke:#000000;stroke-linejoin:miter;"/>
   </g>
   <g id="patch_220">
    <path clip-path="url(#pdaf9144dc2)" d="M 3426.41795 232.88 
L 3441.92055 232.88 
L 3441.92055 232.88 
L 3426.41795 232.88 
z
" style="opacity:0.3;stroke:#000000;stroke-linejoin:miter;"/>
   </g>
   <g id="patch_221">
    <path clip-path="url(#pdaf9144dc2)" d="M 3441.92055 232.88 
L 3457.42315 232.88 
L 3457.42315 232.680618 
L 3441.92055 232.680618 
z
" style="opacity:0.3;stroke:#000000;stroke-linejoin:miter;"/>
   </g>
   <g id="patch_222">
    <path clip-path="url(#pdaf9144dc2)" d="M 3457.42315 232.88 
L 3472.92575 232.88 
L 3472.92575 232.481237 
L 3457.42315 232.481237 
z
" style="opacity:0.3;stroke:#000000;stroke-linejoin:miter;"/>
   </g>
   <g id="patch_223">
    <path clip-path="url(#pdaf9144dc2)" d="M 3472.92575 232.88 
L 3488.42835 232.88 
L 3488.42835 232.281855 
L 3472.92575 232.281855 
z
" style="opacity:0.3;stroke:#000000;stroke-linejoin:miter;"/>
   </g>
   <g id="patch_224">
    <path clip-path="url(#pdaf9144dc2)" d="M 3488.42835 232.88 
L 3503.93095 232.88 
L 3503.93095 232.680618 
L 3488.42835 232.680618 
z
" style="opacity:0.3;stroke:#000000;stroke-linejoin:miter;"/>
   </g>
   <g id="patch_225">
    <path clip-path="url(#pdaf9144dc2)" d="M 3503.93095 232.88 
L 3519.43355 232.88 
L 3519.43355 232.680618 
L 3503.93095 232.680618 
z
" style="opacity:0.3;stroke:#000000;stroke-linejoin:miter;"/>
   </g>
   <g id="patch_226">
    <path clip-path="url(#pdaf9144dc2)" d="M 3519.43355 232.88 
L 3534.93615 232.88 
L 3534.93615 232.281855 
L 3519.43355 232.281855 
z
" style="opacity:0.3;stroke:#000000;stroke-linejoin:miter;"/>
   </g>
   <g id="patch_227">
    <path clip-path="url(#pdaf9144dc2)" d="M 3534.93615 232.88 
L 3550.43875 232.88 
L 3550.43875 232.88 
L 3534.93615 232.88 
z
" style="opacity:0.3;stroke:#000000;stroke-linejoin:miter;"/>
   </g>
   <g id="patch_228">
    <path clip-path="url(#pdaf9144dc2)" d="M 3550.43875 232.88 
L 3565.94135 232.88 
L 3565.94135 232.481237 
L 3550.43875 232.481237 
z
" style="opacity:0.3;stroke:#000000;stroke-linejoin:miter;"/>
   </g>
   <g id="patch_229">
    <path clip-path="url(#pdaf9144dc2)" d="M 3565.94135 232.88 
L 3581.44395 232.88 
L 3581.44395 232.680618 
L 3565.94135 232.680618 
z
" style="opacity:0.3;stroke:#000000;stroke-linejoin:miter;"/>
   </g>
   <g id="patch_230">
    <path clip-path="url(#pdaf9144dc2)" d="M 3581.44395 232.88 
L 3596.94655 232.88 
L 3596.94655 232.88 
L 3581.44395 232.88 
z
" style="opacity:0.3;stroke:#000000;stroke-linejoin:miter;"/>
   </g>
   <g id="patch_231">
    <path clip-path="url(#pdaf9144dc2)" d="M 3596.94655 232.88 
L 3612.44915 232.88 
L 3612.44915 232.680618 
L 3596.94655 232.680618 
z
" style="opacity:0.3;stroke:#000000;stroke-linejoin:miter;"/>
   </g>
   <g id="patch_232">
    <path clip-path="url(#pdaf9144dc2)" d="M 3612.44915 232.88 
L 3627.95175 232.88 
L 3627.95175 232.88 
L 3612.44915 232.88 
z
" style="opacity:0.3;stroke:#000000;stroke-linejoin:miter;"/>
   </g>
   <g id="patch_233">
    <path clip-path="url(#pdaf9144dc2)" d="M 3627.95175 232.88 
L 3643.45435 232.88 
L 3643.45435 232.680618 
L 3627.95175 232.680618 
z
" style="opacity:0.3;stroke:#000000;stroke-linejoin:miter;"/>
   </g>
   <g id="patch_234">
    <path clip-path="url(#pdaf9144dc2)" d="M 3643.45435 232.88 
L 3658.95695 232.88 
L 3658.95695 232.680618 
L 3643.45435 232.680618 
z
" style="opacity:0.3;stroke:#000000;stroke-linejoin:miter;"/>
   </g>
   <g id="patch_235">
    <path clip-path="url(#pdaf9144dc2)" d="M 3658.95695 232.88 
L 3674.45955 232.88 
L 3674.45955 232.481237 
L 3658.95695 232.481237 
z
" style="opacity:0.3;stroke:#000000;stroke-linejoin:miter;"/>
   </g>
   <g id="patch_236">
    <path clip-path="url(#pdaf9144dc2)" d="M 3674.45955 232.88 
L 3689.96215 232.88 
L 3689.96215 232.88 
L 3674.45955 232.88 
z
" style="opacity:0.3;stroke:#000000;stroke-linejoin:miter;"/>
   </g>
   <g id="patch_237">
    <path clip-path="url(#pdaf9144dc2)" d="M 3689.96215 232.88 
L 3705.46475 232.88 
L 3705.46475 232.680618 
L 3689.96215 232.680618 
z
" style="opacity:0.3;stroke:#000000;stroke-linejoin:miter;"/>
   </g>
   <g id="patch_238">
    <path clip-path="url(#pdaf9144dc2)" d="M 3705.46475 232.88 
L 3720.96735 232.88 
L 3720.96735 232.680618 
L 3705.46475 232.680618 
z
" style="opacity:0.3;stroke:#000000;stroke-linejoin:miter;"/>
   </g>
   <g id="patch_239">
    <path clip-path="url(#pdaf9144dc2)" d="M 3720.96735 232.88 
L 3736.46995 232.88 
L 3736.46995 232.481237 
L 3720.96735 232.481237 
z
" style="opacity:0.3;stroke:#000000;stroke-linejoin:miter;"/>
   </g>
   <g id="patch_240">
    <path clip-path="url(#pdaf9144dc2)" d="M 3736.46995 232.88 
L 3751.97255 232.88 
L 3751.97255 232.88 
L 3736.46995 232.88 
z
" style="opacity:0.3;stroke:#000000;stroke-linejoin:miter;"/>
   </g>
   <g id="patch_241">
    <path clip-path="url(#pdaf9144dc2)" d="M 3751.97255 232.88 
L 3767.47515 232.88 
L 3767.47515 232.680618 
L 3751.97255 232.680618 
z
" style="opacity:0.3;stroke:#000000;stroke-linejoin:miter;"/>
   </g>
   <g id="patch_242">
    <path clip-path="url(#pdaf9144dc2)" d="M 3767.47515 232.88 
L 3782.97775 232.88 
L 3782.97775 232.680618 
L 3767.47515 232.680618 
z
" style="opacity:0.3;stroke:#000000;stroke-linejoin:miter;"/>
   </g>
   <g id="patch_243">
    <path clip-path="url(#pdaf9144dc2)" d="M 3782.97775 232.88 
L 3798.48035 232.88 
L 3798.48035 232.481237 
L 3782.97775 232.481237 
z
" style="opacity:0.3;stroke:#000000;stroke-linejoin:miter;"/>
   </g>
   <g id="patch_244">
    <path clip-path="url(#pdaf9144dc2)" d="M 3798.48035 232.88 
L 3813.98295 232.88 
L 3813.98295 232.680618 
L 3798.48035 232.680618 
z
" style="opacity:0.3;stroke:#000000;stroke-linejoin:miter;"/>
   </g>
   <g id="patch_245">
    <path clip-path="url(#pdaf9144dc2)" d="M 3813.98295 232.88 
L 3829.48555 232.88 
L 3829.48555 232.082474 
L 3813.98295 232.082474 
z
" style="opacity:0.3;stroke:#000000;stroke-linejoin:miter;"/>
   </g>
   <g id="patch_246">
    <path clip-path="url(#pdaf9144dc2)" d="M 3829.48555 232.88 
L 3844.98815 232.88 
L 3844.98815 232.88 
L 3829.48555 232.88 
z
" style="opacity:0.3;stroke:#000000;stroke-linejoin:miter;"/>
   </g>
   <g id="patch_247">
    <path clip-path="url(#pdaf9144dc2)" d="M 3844.98815 232.88 
L 3860.49075 232.88 
L 3860.49075 232.88 
L 3844.98815 232.88 
z
" style="opacity:0.3;stroke:#000000;stroke-linejoin:miter;"/>
   </g>
   <g id="patch_248">
    <path clip-path="url(#pdaf9144dc2)" d="M 3860.49075 232.88 
L 3875.99335 232.88 
L 3875.99335 232.281855 
L 3860.49075 232.281855 
z
" style="opacity:0.3;stroke:#000000;stroke-linejoin:miter;"/>
   </g>
   <g id="patch_249">
    <path clip-path="url(#pdaf9144dc2)" d="M 3875.99335 232.88 
L 3891.49595 232.88 
L 3891.49595 232.481237 
L 3875.99335 232.481237 
z
" style="opacity:0.3;stroke:#000000;stroke-linejoin:miter;"/>
   </g>
   <g id="patch_250">
    <path clip-path="url(#pdaf9144dc2)" d="M 3891.49595 232.88 
L 3906.99855 232.88 
L 3906.99855 232.481237 
L 3891.49595 232.481237 
z
" style="opacity:0.3;stroke:#000000;stroke-linejoin:miter;"/>
   </g>
   <g id="patch_251">
    <path clip-path="url(#pdaf9144dc2)" d="M 3906.99855 232.88 
L 3922.50115 232.88 
L 3922.50115 232.680618 
L 3906.99855 232.680618 
z
" style="opacity:0.3;stroke:#000000;stroke-linejoin:miter;"/>
   </g>
   <g id="patch_252">
    <path clip-path="url(#pdaf9144dc2)" d="M 3922.50115 232.88 
L 3938.00375 232.88 
L 3938.00375 232.88 
L 3922.50115 232.88 
z
" style="opacity:0.3;stroke:#000000;stroke-linejoin:miter;"/>
   </g>
   <g id="patch_253">
    <path clip-path="url(#pdaf9144dc2)" d="M 3938.00375 232.88 
L 3953.50635 232.88 
L 3953.50635 232.680618 
L 3938.00375 232.680618 
z
" style="opacity:0.3;stroke:#000000;stroke-linejoin:miter;"/>
   </g>
   <g id="line2d_1">
    <path clip-path="url(#pdaf9144dc2)" d="M 74.934151 -1 
L 77.85635 164.890884 
L 93.35895 203.371528 
L 108.86155 216.33133 
L 124.36415 214.935659 
L 139.86675 213.340606 
L 155.36935 209.751738 
L 170.87195 207.159777 
L 186.37455 202.773383 
L 201.87715 181.838318 
L 217.37975 146.149017 
L 232.88235 109.861571 
L 248.38495 64.203191 
L 263.88755 31.504613 
L 279.39015 27.716364 
L 294.89275 29.710179 
L 310.39535 64.601954 
L 325.89795 74.371651 
L 341.40055 116.241781 
L 356.90315 146.747161 
L 372.40575 162.697687 
L 387.90835 185.427186 
L 403.41095 201.377712 
L 418.91355 206.960396 
L 434.41615 213.539988 
L 449.91875 210.948027 
L 465.42135 208.555448 
L 496.42655 204.567817 
L 511.92915 203.770291 
L 527.43175 199.982041 
L 542.93435 198.386988 
L 558.43695 191.209252 
L 573.93955 197.190699 
L 589.44215 196.193791 
L 604.94475 194.199975 
L 620.44735 195.994409 
L 635.94995 200.978949 
L 651.45255 200.978949 
L 666.95515 206.561633 
L 682.45775 203.172146 
L 697.96035 214.736277 
L 713.46295 211.745553 
L 728.96555 216.33133 
L 744.46815 216.530711 
L 759.97075 217.727001 
L 775.47335 218.325145 
L 790.97595 217.527619 
L 806.47855 221.51525 
L 821.98115 218.92329 
L 837.48375 216.730093 
L 853.31875 218.89764 
L 853.31875 218.89764 
" style="fill:none;stroke:#000000;stroke-linecap:square;stroke-width:2.0;"/>
   </g>
   <g id="patch_254">
    <path d="M 62.35375 232.88 
L 837.48375 232.88 
" style="fill:none;stroke:#000000;stroke-linecap:square;stroke-linejoin:miter;"/>
   </g>
   <g id="patch_255">
    <path d="M 62.35375 232.88 
L 62.35375 7.2 
" style="fill:none;stroke:#000000;stroke-linecap:square;stroke-linejoin:miter;"/>
   </g>
   <g id="matplotlib.axis_1">
    <g id="xtick_1">
     <g id="line2d_2">
      <defs>
       <path d="M 0 0 
L 0 4 
" id="m6899d383bc" style="stroke:#000000;stroke-width:0.5;"/>
      </defs>
      <g>
       <use style="stroke:#000000;stroke-width:0.5;" x="62.35375" xlink:href="#m6899d383bc" y="232.88"/>
      </g>
     </g>
     <g id="text_1">
      <!-- 0 -->
      <defs>
       <path d="M 31.78125 66.40625 
Q 24.171875 66.40625 20.328125 58.90625 
Q 16.5 51.421875 16.5 36.375 
Q 16.5 21.390625 20.328125 13.890625 
Q 24.171875 6.390625 31.78125 6.390625 
Q 39.453125 6.390625 43.28125 13.890625 
Q 47.125 21.390625 47.125 36.375 
Q 47.125 51.421875 43.28125 58.90625 
Q 39.453125 66.40625 31.78125 66.40625 
M 31.78125 74.21875 
Q 44.046875 74.21875 50.515625 64.515625 
Q 56.984375 54.828125 56.984375 36.375 
Q 56.984375 17.96875 50.515625 8.265625 
Q 44.046875 -1.421875 31.78125 -1.421875 
Q 19.53125 -1.421875 13.0625 8.265625 
Q 6.59375 17.96875 6.59375 36.375 
Q 6.59375 54.828125 13.0625 64.515625 
Q 19.53125 74.21875 31.78125 74.21875 
" id="BitstreamVeraSans-Roman-30"/>
      </defs>
      <g transform="translate(58.53625 249.998125)scale(0.12 -0.12)">
       <use xlink:href="#BitstreamVeraSans-Roman-30"/>
      </g>
     </g>
    </g>
    <g id="xtick_2">
     <g id="line2d_3">
      <g>
       <use style="stroke:#000000;stroke-width:0.5;" x="217.37975" xlink:href="#m6899d383bc" y="232.88"/>
      </g>
     </g>
     <g id="text_2">
      <!-- 10 -->
      <defs>
       <path d="M 12.40625 8.296875 
L 28.515625 8.296875 
L 28.515625 63.921875 
L 10.984375 60.40625 
L 10.984375 69.390625 
L 28.421875 72.90625 
L 38.28125 72.90625 
L 38.28125 8.296875 
L 54.390625 8.296875 
L 54.390625 0 
L 12.40625 0 
z
" id="BitstreamVeraSans-Roman-31"/>
      </defs>
      <g transform="translate(209.74475 249.998125)scale(0.12 -0.12)">
       <use xlink:href="#BitstreamVeraSans-Roman-31"/>
       <use x="63.623046875" xlink:href="#BitstreamVeraSans-Roman-30"/>
      </g>
     </g>
    </g>
    <g id="xtick_3">
     <g id="line2d_4">
      <g>
       <use style="stroke:#000000;stroke-width:0.5;" x="372.40575" xlink:href="#m6899d383bc" y="232.88"/>
      </g>
     </g>
     <g id="text_3">
      <!-- 20 -->
      <defs>
       <path d="M 19.1875 8.296875 
L 53.609375 8.296875 
L 53.609375 0 
L 7.328125 0 
L 7.328125 8.296875 
Q 12.9375 14.109375 22.625 23.890625 
Q 32.328125 33.6875 34.8125 36.53125 
Q 39.546875 41.84375 41.421875 45.53125 
Q 43.3125 49.21875 43.3125 52.78125 
Q 43.3125 58.59375 39.234375 62.25 
Q 35.15625 65.921875 28.609375 65.921875 
Q 23.96875 65.921875 18.8125 64.3125 
Q 13.671875 62.703125 7.8125 59.421875 
L 7.8125 69.390625 
Q 13.765625 71.78125 18.9375 73 
Q 24.125 74.21875 28.421875 74.21875 
Q 39.75 74.21875 46.484375 68.546875 
Q 53.21875 62.890625 53.21875 53.421875 
Q 53.21875 48.921875 51.53125 44.890625 
Q 49.859375 40.875 45.40625 35.40625 
Q 44.1875 33.984375 37.640625 27.21875 
Q 31.109375 20.453125 19.1875 8.296875 
" id="BitstreamVeraSans-Roman-32"/>
      </defs>
      <g transform="translate(364.77075 249.998125)scale(0.12 -0.12)">
       <use xlink:href="#BitstreamVeraSans-Roman-32"/>
       <use x="63.623046875" xlink:href="#BitstreamVeraSans-Roman-30"/>
      </g>
     </g>
    </g>
    <g id="xtick_4">
     <g id="line2d_5">
      <g>
       <use style="stroke:#000000;stroke-width:0.5;" x="527.43175" xlink:href="#m6899d383bc" y="232.88"/>
      </g>
     </g>
     <g id="text_4">
      <!-- 30 -->
      <defs>
       <path d="M 40.578125 39.3125 
Q 47.65625 37.796875 51.625 33 
Q 55.609375 28.21875 55.609375 21.1875 
Q 55.609375 10.40625 48.1875 4.484375 
Q 40.765625 -1.421875 27.09375 -1.421875 
Q 22.515625 -1.421875 17.65625 -0.515625 
Q 12.796875 0.390625 7.625 2.203125 
L 7.625 11.71875 
Q 11.71875 9.328125 16.59375 8.109375 
Q 21.484375 6.890625 26.8125 6.890625 
Q 36.078125 6.890625 40.9375 10.546875 
Q 45.796875 14.203125 45.796875 21.1875 
Q 45.796875 27.640625 41.28125 31.265625 
Q 36.765625 34.90625 28.71875 34.90625 
L 20.21875 34.90625 
L 20.21875 43.015625 
L 29.109375 43.015625 
Q 36.375 43.015625 40.234375 45.921875 
Q 44.09375 48.828125 44.09375 54.296875 
Q 44.09375 59.90625 40.109375 62.90625 
Q 36.140625 65.921875 28.71875 65.921875 
Q 24.65625 65.921875 20.015625 65.03125 
Q 15.375 64.15625 9.8125 62.3125 
L 9.8125 71.09375 
Q 15.4375 72.65625 20.34375 73.4375 
Q 25.25 74.21875 29.59375 74.21875 
Q 40.828125 74.21875 47.359375 69.109375 
Q 53.90625 64.015625 53.90625 55.328125 
Q 53.90625 49.265625 50.4375 45.09375 
Q 46.96875 40.921875 40.578125 39.3125 
" id="BitstreamVeraSans-Roman-33"/>
      </defs>
      <g transform="translate(519.79675 249.998125)scale(0.12 -0.12)">
       <use xlink:href="#BitstreamVeraSans-Roman-33"/>
       <use x="63.623046875" xlink:href="#BitstreamVeraSans-Roman-30"/>
      </g>
     </g>
    </g>
    <g id="xtick_5">
     <g id="line2d_6">
      <g>
       <use style="stroke:#000000;stroke-width:0.5;" x="682.45775" xlink:href="#m6899d383bc" y="232.88"/>
      </g>
     </g>
     <g id="text_5">
      <!-- 40 -->
      <defs>
       <path d="M 37.796875 64.3125 
L 12.890625 25.390625 
L 37.796875 25.390625 
z
M 35.203125 72.90625 
L 47.609375 72.90625 
L 47.609375 25.390625 
L 58.015625 25.390625 
L 58.015625 17.1875 
L 47.609375 17.1875 
L 47.609375 0 
L 37.796875 0 
L 37.796875 17.1875 
L 4.890625 17.1875 
L 4.890625 26.703125 
z
" id="BitstreamVeraSans-Roman-34"/>
      </defs>
      <g transform="translate(674.82275 249.998125)scale(0.12 -0.12)">
       <use xlink:href="#BitstreamVeraSans-Roman-34"/>
       <use x="63.623046875" xlink:href="#BitstreamVeraSans-Roman-30"/>
      </g>
     </g>
    </g>
    <g id="xtick_6">
     <g id="line2d_7">
      <g>
       <use style="stroke:#000000;stroke-width:0.5;" x="837.48375" xlink:href="#m6899d383bc" y="232.88"/>
      </g>
     </g>
     <g id="text_6">
      <!-- 50 -->
      <defs>
       <path d="M 10.796875 72.90625 
L 49.515625 72.90625 
L 49.515625 64.59375 
L 19.828125 64.59375 
L 19.828125 46.734375 
Q 21.96875 47.46875 24.109375 47.828125 
Q 26.265625 48.1875 28.421875 48.1875 
Q 40.625 48.1875 47.75 41.5 
Q 54.890625 34.8125 54.890625 23.390625 
Q 54.890625 11.625 47.5625 5.09375 
Q 40.234375 -1.421875 26.90625 -1.421875 
Q 22.3125 -1.421875 17.546875 -0.640625 
Q 12.796875 0.140625 7.71875 1.703125 
L 7.71875 11.625 
Q 12.109375 9.234375 16.796875 8.0625 
Q 21.484375 6.890625 26.703125 6.890625 
Q 35.15625 6.890625 40.078125 11.328125 
Q 45.015625 15.765625 45.015625 23.390625 
Q 45.015625 31 40.078125 35.4375 
Q 35.15625 39.890625 26.703125 39.890625 
Q 22.75 39.890625 18.8125 39.015625 
Q 14.890625 38.140625 10.796875 36.28125 
z
" id="BitstreamVeraSans-Roman-35"/>
      </defs>
      <g transform="translate(829.84875 249.998125)scale(0.12 -0.12)">
       <use xlink:href="#BitstreamVeraSans-Roman-35"/>
       <use x="63.623046875" xlink:href="#BitstreamVeraSans-Roman-30"/>
      </g>
     </g>
    </g>
    <g id="text_7">
     <!-- contour area, pixels**2 -->
     <defs>
      <path id="BitstreamVeraSans-Roman-20"/>
      <path d="M 54.890625 33.015625 
L 54.890625 0 
L 45.90625 0 
L 45.90625 32.71875 
Q 45.90625 40.484375 42.875 44.328125 
Q 39.84375 48.1875 33.796875 48.1875 
Q 26.515625 48.1875 22.3125 43.546875 
Q 18.109375 38.921875 18.109375 30.90625 
L 18.109375 0 
L 9.078125 0 
L 9.078125 54.6875 
L 18.109375 54.6875 
L 18.109375 46.1875 
Q 21.34375 51.125 25.703125 53.5625 
Q 30.078125 56 35.796875 56 
Q 45.21875 56 50.046875 50.171875 
Q 54.890625 44.34375 54.890625 33.015625 
" id="BitstreamVeraSans-Roman-6e"/>
      <path d="M 34.28125 27.484375 
Q 23.390625 27.484375 19.1875 25 
Q 14.984375 22.515625 14.984375 16.5 
Q 14.984375 11.71875 18.140625 8.90625 
Q 21.296875 6.109375 26.703125 6.109375 
Q 34.1875 6.109375 38.703125 11.40625 
Q 43.21875 16.703125 43.21875 25.484375 
L 43.21875 27.484375 
z
M 52.203125 31.203125 
L 52.203125 0 
L 43.21875 0 
L 43.21875 8.296875 
Q 40.140625 3.328125 35.546875 0.953125 
Q 30.953125 -1.421875 24.3125 -1.421875 
Q 15.921875 -1.421875 10.953125 3.296875 
Q 6 8.015625 6 15.921875 
Q 6 25.140625 12.171875 29.828125 
Q 18.359375 34.515625 30.609375 34.515625 
L 43.21875 34.515625 
L 43.21875 35.40625 
Q 43.21875 41.609375 39.140625 45 
Q 35.0625 48.390625 27.6875 48.390625 
Q 23 48.390625 18.546875 47.265625 
Q 14.109375 46.140625 10.015625 43.890625 
L 10.015625 52.203125 
Q 14.9375 54.109375 19.578125 55.046875 
Q 24.21875 56 28.609375 56 
Q 40.484375 56 46.34375 49.84375 
Q 52.203125 43.703125 52.203125 31.203125 
" id="BitstreamVeraSans-Roman-61"/>
      <path d="M 30.609375 48.390625 
Q 23.390625 48.390625 19.1875 42.75 
Q 14.984375 37.109375 14.984375 27.296875 
Q 14.984375 17.484375 19.15625 11.84375 
Q 23.34375 6.203125 30.609375 6.203125 
Q 37.796875 6.203125 41.984375 11.859375 
Q 46.1875 17.53125 46.1875 27.296875 
Q 46.1875 37.015625 41.984375 42.703125 
Q 37.796875 48.390625 30.609375 48.390625 
M 30.609375 56 
Q 42.328125 56 49.015625 48.375 
Q 55.71875 40.765625 55.71875 27.296875 
Q 55.71875 13.875 49.015625 6.21875 
Q 42.328125 -1.421875 30.609375 -1.421875 
Q 18.84375 -1.421875 12.171875 6.21875 
Q 5.515625 13.875 5.515625 27.296875 
Q 5.515625 40.765625 12.171875 48.375 
Q 18.84375 56 30.609375 56 
" id="BitstreamVeraSans-Roman-6f"/>
      <path d="M 9.421875 75.984375 
L 18.40625 75.984375 
L 18.40625 0 
L 9.421875 0 
z
" id="BitstreamVeraSans-Roman-6c"/>
      <path d="M 47.015625 60.890625 
L 29.5 51.421875 
L 47.015625 41.890625 
L 44.1875 37.109375 
L 27.78125 47.015625 
L 27.78125 28.609375 
L 22.21875 28.609375 
L 22.21875 47.015625 
L 5.8125 37.109375 
L 2.984375 41.890625 
L 20.515625 51.421875 
L 2.984375 60.890625 
L 5.8125 65.71875 
L 22.21875 55.8125 
L 22.21875 74.21875 
L 27.78125 74.21875 
L 27.78125 55.8125 
L 44.1875 65.71875 
z
" id="BitstreamVeraSans-Roman-2a"/>
      <path d="M 11.71875 12.40625 
L 22.015625 12.40625 
L 22.015625 4 
L 14.015625 -11.625 
L 7.71875 -11.625 
L 11.71875 4 
z
" id="BitstreamVeraSans-Roman-2c"/>
      <path d="M 9.421875 54.6875 
L 18.40625 54.6875 
L 18.40625 0 
L 9.421875 0 
z
M 9.421875 75.984375 
L 18.40625 75.984375 
L 18.40625 64.59375 
L 9.421875 64.59375 
z
" id="BitstreamVeraSans-Roman-69"/>
      <path d="M 18.109375 8.203125 
L 18.109375 -20.796875 
L 9.078125 -20.796875 
L 9.078125 54.6875 
L 18.109375 54.6875 
L 18.109375 46.390625 
Q 20.953125 51.265625 25.265625 53.625 
Q 29.59375 56 35.59375 56 
Q 45.5625 56 51.78125 48.09375 
Q 58.015625 40.1875 58.015625 27.296875 
Q 58.015625 14.40625 51.78125 6.484375 
Q 45.5625 -1.421875 35.59375 -1.421875 
Q 29.59375 -1.421875 25.265625 0.953125 
Q 20.953125 3.328125 18.109375 8.203125 
M 48.6875 27.296875 
Q 48.6875 37.203125 44.609375 42.84375 
Q 40.53125 48.484375 33.40625 48.484375 
Q 26.265625 48.484375 22.1875 42.84375 
Q 18.109375 37.203125 18.109375 27.296875 
Q 18.109375 17.390625 22.1875 11.75 
Q 26.265625 6.109375 33.40625 6.109375 
Q 40.53125 6.109375 44.609375 11.75 
Q 48.6875 17.390625 48.6875 27.296875 
" id="BitstreamVeraSans-Roman-70"/>
      <path d="M 54.890625 54.6875 
L 35.109375 28.078125 
L 55.90625 0 
L 45.3125 0 
L 29.390625 21.484375 
L 13.484375 0 
L 2.875 0 
L 24.125 28.609375 
L 4.6875 54.6875 
L 15.28125 54.6875 
L 29.78125 35.203125 
L 44.28125 54.6875 
z
" id="BitstreamVeraSans-Roman-78"/>
      <path d="M 56.203125 29.59375 
L 56.203125 25.203125 
L 14.890625 25.203125 
Q 15.484375 15.921875 20.484375 11.0625 
Q 25.484375 6.203125 34.421875 6.203125 
Q 39.59375 6.203125 44.453125 7.46875 
Q 49.3125 8.734375 54.109375 11.28125 
L 54.109375 2.78125 
Q 49.265625 0.734375 44.1875 -0.34375 
Q 39.109375 -1.421875 33.890625 -1.421875 
Q 20.796875 -1.421875 13.15625 6.1875 
Q 5.515625 13.8125 5.515625 26.8125 
Q 5.515625 40.234375 12.765625 48.109375 
Q 20.015625 56 32.328125 56 
Q 43.359375 56 49.78125 48.890625 
Q 56.203125 41.796875 56.203125 29.59375 
M 47.21875 32.234375 
Q 47.125 39.59375 43.09375 43.984375 
Q 39.0625 48.390625 32.421875 48.390625 
Q 24.90625 48.390625 20.390625 44.140625 
Q 15.875 39.890625 15.1875 32.171875 
z
" id="BitstreamVeraSans-Roman-65"/>
      <path d="M 18.3125 70.21875 
L 18.3125 54.6875 
L 36.8125 54.6875 
L 36.8125 47.703125 
L 18.3125 47.703125 
L 18.3125 18.015625 
Q 18.3125 11.328125 20.140625 9.421875 
Q 21.96875 7.515625 27.59375 7.515625 
L 36.8125 7.515625 
L 36.8125 0 
L 27.59375 0 
Q 17.1875 0 13.234375 3.875 
Q 9.28125 7.765625 9.28125 18.015625 
L 9.28125 47.703125 
L 2.6875 47.703125 
L 2.6875 54.6875 
L 9.28125 54.6875 
L 9.28125 70.21875 
z
" id="BitstreamVeraSans-Roman-74"/>
      <path d="M 8.5 21.578125 
L 8.5 54.6875 
L 17.484375 54.6875 
L 17.484375 21.921875 
Q 17.484375 14.15625 20.5 10.265625 
Q 23.53125 6.390625 29.59375 6.390625 
Q 36.859375 6.390625 41.078125 11.03125 
Q 45.3125 15.671875 45.3125 23.6875 
L 45.3125 54.6875 
L 54.296875 54.6875 
L 54.296875 0 
L 45.3125 0 
L 45.3125 8.40625 
Q 42.046875 3.421875 37.71875 1 
Q 33.40625 -1.421875 27.6875 -1.421875 
Q 18.265625 -1.421875 13.375 4.4375 
Q 8.5 10.296875 8.5 21.578125 
" id="BitstreamVeraSans-Roman-75"/>
      <path d="M 41.109375 46.296875 
Q 39.59375 47.171875 37.8125 47.578125 
Q 36.03125 48 33.890625 48 
Q 26.265625 48 22.1875 43.046875 
Q 18.109375 38.09375 18.109375 28.8125 
L 18.109375 0 
L 9.078125 0 
L 9.078125 54.6875 
L 18.109375 54.6875 
L 18.109375 46.1875 
Q 20.953125 51.171875 25.484375 53.578125 
Q 30.03125 56 36.53125 56 
Q 37.453125 56 38.578125 55.875 
Q 39.703125 55.765625 41.0625 55.515625 
z
" id="BitstreamVeraSans-Roman-72"/>
      <path d="M 44.28125 53.078125 
L 44.28125 44.578125 
Q 40.484375 46.53125 36.375 47.5 
Q 32.28125 48.484375 27.875 48.484375 
Q 21.1875 48.484375 17.84375 46.4375 
Q 14.5 44.390625 14.5 40.28125 
Q 14.5 37.15625 16.890625 35.375 
Q 19.28125 33.59375 26.515625 31.984375 
L 29.59375 31.296875 
Q 39.15625 29.25 43.1875 25.515625 
Q 47.21875 21.78125 47.21875 15.09375 
Q 47.21875 7.46875 41.1875 3.015625 
Q 35.15625 -1.421875 24.609375 -1.421875 
Q 20.21875 -1.421875 15.453125 -0.5625 
Q 10.6875 0.296875 5.421875 2 
L 5.421875 11.28125 
Q 10.40625 8.6875 15.234375 7.390625 
Q 20.0625 6.109375 24.8125 6.109375 
Q 31.15625 6.109375 34.5625 8.28125 
Q 37.984375 10.453125 37.984375 14.40625 
Q 37.984375 18.0625 35.515625 20.015625 
Q 33.0625 21.96875 24.703125 23.78125 
L 21.578125 24.515625 
Q 13.234375 26.265625 9.515625 29.90625 
Q 5.8125 33.546875 5.8125 39.890625 
Q 5.8125 47.609375 11.28125 51.796875 
Q 16.75 56 26.8125 56 
Q 31.78125 56 36.171875 55.265625 
Q 40.578125 54.546875 44.28125 53.078125 
" id="BitstreamVeraSans-Roman-73"/>
      <path d="M 48.78125 52.59375 
L 48.78125 44.1875 
Q 44.96875 46.296875 41.140625 47.34375 
Q 37.3125 48.390625 33.40625 48.390625 
Q 24.65625 48.390625 19.8125 42.84375 
Q 14.984375 37.3125 14.984375 27.296875 
Q 14.984375 17.28125 19.8125 11.734375 
Q 24.65625 6.203125 33.40625 6.203125 
Q 37.3125 6.203125 41.140625 7.25 
Q 44.96875 8.296875 48.78125 10.40625 
L 48.78125 2.09375 
Q 45.015625 0.34375 40.984375 -0.53125 
Q 36.96875 -1.421875 32.421875 -1.421875 
Q 20.0625 -1.421875 12.78125 6.34375 
Q 5.515625 14.109375 5.515625 27.296875 
Q 5.515625 40.671875 12.859375 48.328125 
Q 20.21875 56 33.015625 56 
Q 37.15625 56 41.109375 55.140625 
Q 45.0625 54.296875 48.78125 52.59375 
" id="BitstreamVeraSans-Roman-63"/>
     </defs>
     <g transform="translate(380.29625 266.611875)scale(0.12 -0.12)">
      <use xlink:href="#BitstreamVeraSans-Roman-63"/>
      <use x="54.98046875" xlink:href="#BitstreamVeraSans-Roman-6f"/>
      <use x="116.162109375" xlink:href="#BitstreamVeraSans-Roman-6e"/>
      <use x="179.541015625" xlink:href="#BitstreamVeraSans-Roman-74"/>
      <use x="218.75" xlink:href="#BitstreamVeraSans-Roman-6f"/>
      <use x="279.931640625" xlink:href="#BitstreamVeraSans-Roman-75"/>
      <use x="343.310546875" xlink:href="#BitstreamVeraSans-Roman-72"/>
      <use x="384.423828125" xlink:href="#BitstreamVeraSans-Roman-20"/>
      <use x="416.2109375" xlink:href="#BitstreamVeraSans-Roman-61"/>
      <use x="477.490234375" xlink:href="#BitstreamVeraSans-Roman-72"/>
      <use x="518.572265625" xlink:href="#BitstreamVeraSans-Roman-65"/>
      <use x="580.095703125" xlink:href="#BitstreamVeraSans-Roman-61"/>
      <use x="641.375" xlink:href="#BitstreamVeraSans-Roman-2c"/>
      <use x="673.162109375" xlink:href="#BitstreamVeraSans-Roman-20"/>
      <use x="704.94921875" xlink:href="#BitstreamVeraSans-Roman-70"/>
      <use x="768.42578125" xlink:href="#BitstreamVeraSans-Roman-69"/>
      <use x="796.208984375" xlink:href="#BitstreamVeraSans-Roman-78"/>
      <use x="855.341796875" xlink:href="#BitstreamVeraSans-Roman-65"/>
      <use x="916.865234375" xlink:href="#BitstreamVeraSans-Roman-6c"/>
      <use x="944.6484375" xlink:href="#BitstreamVeraSans-Roman-73"/>
      <use x="996.748046875" xlink:href="#BitstreamVeraSans-Roman-2a"/>
      <use x="1046.74804688" xlink:href="#BitstreamVeraSans-Roman-2a"/>
      <use x="1096.74804688" xlink:href="#BitstreamVeraSans-Roman-32"/>
     </g>
    </g>
   </g>
   <g id="matplotlib.axis_2">
    <g id="ytick_1">
     <g id="line2d_8">
      <defs>
       <path d="M 0 0 
L -4 0 
" id="md0798352ae" style="stroke:#000000;stroke-width:0.5;"/>
      </defs>
      <g>
       <use style="stroke:#000000;stroke-width:0.5;" x="62.35375" xlink:href="#md0798352ae" y="232.88"/>
      </g>
     </g>
     <g id="text_8">
      <!-- 0 -->
      <g transform="translate(46.71875 236.19125)scale(0.12 -0.12)">
       <use xlink:href="#BitstreamVeraSans-Roman-30"/>
      </g>
     </g>
    </g>
    <g id="ytick_2">
     <g id="line2d_9">
      <g>
       <use style="stroke:#000000;stroke-width:0.5;" x="62.35375" xlink:href="#md0798352ae" y="193.003685838"/>
      </g>
     </g>
     <g id="text_9">
      <!-- 200 -->
      <g transform="translate(31.44875 196.314935838)scale(0.12 -0.12)">
       <use xlink:href="#BitstreamVeraSans-Roman-32"/>
       <use x="63.623046875" xlink:href="#BitstreamVeraSans-Roman-30"/>
       <use x="127.24609375" xlink:href="#BitstreamVeraSans-Roman-30"/>
      </g>
     </g>
    </g>
    <g id="ytick_3">
     <g id="line2d_10">
      <g>
       <use style="stroke:#000000;stroke-width:0.5;" x="62.35375" xlink:href="#md0798352ae" y="153.127371676"/>
      </g>
     </g>
     <g id="text_10">
      <!-- 400 -->
      <g transform="translate(31.44875 156.438621676)scale(0.12 -0.12)">
       <use xlink:href="#BitstreamVeraSans-Roman-34"/>
       <use x="63.623046875" xlink:href="#BitstreamVeraSans-Roman-30"/>
       <use x="127.24609375" xlink:href="#BitstreamVeraSans-Roman-30"/>
      </g>
     </g>
    </g>
    <g id="ytick_4">
     <g id="line2d_11">
      <g>
       <use style="stroke:#000000;stroke-width:0.5;" x="62.35375" xlink:href="#md0798352ae" y="113.251057514"/>
      </g>
     </g>
     <g id="text_11">
      <!-- 600 -->
      <defs>
       <path d="M 33.015625 40.375 
Q 26.375 40.375 22.484375 35.828125 
Q 18.609375 31.296875 18.609375 23.390625 
Q 18.609375 15.53125 22.484375 10.953125 
Q 26.375 6.390625 33.015625 6.390625 
Q 39.65625 6.390625 43.53125 10.953125 
Q 47.40625 15.53125 47.40625 23.390625 
Q 47.40625 31.296875 43.53125 35.828125 
Q 39.65625 40.375 33.015625 40.375 
M 52.59375 71.296875 
L 52.59375 62.3125 
Q 48.875 64.0625 45.09375 64.984375 
Q 41.3125 65.921875 37.59375 65.921875 
Q 27.828125 65.921875 22.671875 59.328125 
Q 17.53125 52.734375 16.796875 39.40625 
Q 19.671875 43.65625 24.015625 45.921875 
Q 28.375 48.1875 33.59375 48.1875 
Q 44.578125 48.1875 50.953125 41.515625 
Q 57.328125 34.859375 57.328125 23.390625 
Q 57.328125 12.15625 50.6875 5.359375 
Q 44.046875 -1.421875 33.015625 -1.421875 
Q 20.359375 -1.421875 13.671875 8.265625 
Q 6.984375 17.96875 6.984375 36.375 
Q 6.984375 53.65625 15.1875 63.9375 
Q 23.390625 74.21875 37.203125 74.21875 
Q 40.921875 74.21875 44.703125 73.484375 
Q 48.484375 72.75 52.59375 71.296875 
" id="BitstreamVeraSans-Roman-36"/>
      </defs>
      <g transform="translate(31.44875 116.562307514)scale(0.12 -0.12)">
       <use xlink:href="#BitstreamVeraSans-Roman-36"/>
       <use x="63.623046875" xlink:href="#BitstreamVeraSans-Roman-30"/>
       <use x="127.24609375" xlink:href="#BitstreamVeraSans-Roman-30"/>
      </g>
     </g>
    </g>
    <g id="ytick_5">
     <g id="line2d_12">
      <g>
       <use style="stroke:#000000;stroke-width:0.5;" x="62.35375" xlink:href="#md0798352ae" y="73.3747433519"/>
      </g>
     </g>
     <g id="text_12">
      <!-- 800 -->
      <defs>
       <path d="M 31.78125 34.625 
Q 24.75 34.625 20.71875 30.859375 
Q 16.703125 27.09375 16.703125 20.515625 
Q 16.703125 13.921875 20.71875 10.15625 
Q 24.75 6.390625 31.78125 6.390625 
Q 38.8125 6.390625 42.859375 10.171875 
Q 46.921875 13.96875 46.921875 20.515625 
Q 46.921875 27.09375 42.890625 30.859375 
Q 38.875 34.625 31.78125 34.625 
M 21.921875 38.8125 
Q 15.578125 40.375 12.03125 44.71875 
Q 8.5 49.078125 8.5 55.328125 
Q 8.5 64.0625 14.71875 69.140625 
Q 20.953125 74.21875 31.78125 74.21875 
Q 42.671875 74.21875 48.875 69.140625 
Q 55.078125 64.0625 55.078125 55.328125 
Q 55.078125 49.078125 51.53125 44.71875 
Q 48 40.375 41.703125 38.8125 
Q 48.828125 37.15625 52.796875 32.3125 
Q 56.78125 27.484375 56.78125 20.515625 
Q 56.78125 9.90625 50.3125 4.234375 
Q 43.84375 -1.421875 31.78125 -1.421875 
Q 19.734375 -1.421875 13.25 4.234375 
Q 6.78125 9.90625 6.78125 20.515625 
Q 6.78125 27.484375 10.78125 32.3125 
Q 14.796875 37.15625 21.921875 38.8125 
M 18.3125 54.390625 
Q 18.3125 48.734375 21.84375 45.5625 
Q 25.390625 42.390625 31.78125 42.390625 
Q 38.140625 42.390625 41.71875 45.5625 
Q 45.3125 48.734375 45.3125 54.390625 
Q 45.3125 60.0625 41.71875 63.234375 
Q 38.140625 66.40625 31.78125 66.40625 
Q 25.390625 66.40625 21.84375 63.234375 
Q 18.3125 60.0625 18.3125 54.390625 
" id="BitstreamVeraSans-Roman-38"/>
      </defs>
      <g transform="translate(31.44875 76.6859933519)scale(0.12 -0.12)">
       <use xlink:href="#BitstreamVeraSans-Roman-38"/>
       <use x="63.623046875" xlink:href="#BitstreamVeraSans-Roman-30"/>
       <use x="127.24609375" xlink:href="#BitstreamVeraSans-Roman-30"/>
      </g>
     </g>
    </g>
    <g id="ytick_6">
     <g id="line2d_13">
      <g>
       <use style="stroke:#000000;stroke-width:0.5;" x="62.35375" xlink:href="#md0798352ae" y="33.4984291899"/>
      </g>
     </g>
     <g id="text_13">
      <!-- 1000 -->
      <g transform="translate(23.81375 36.8096791899)scale(0.12 -0.12)">
       <use xlink:href="#BitstreamVeraSans-Roman-31"/>
       <use x="63.623046875" xlink:href="#BitstreamVeraSans-Roman-30"/>
       <use x="127.24609375" xlink:href="#BitstreamVeraSans-Roman-30"/>
       <use x="190.869140625" xlink:href="#BitstreamVeraSans-Roman-30"/>
      </g>
     </g>
    </g>
    <g id="text_14">
     <!-- count -->
     <g transform="translate(16.318125 136.9675)rotate(-90.0)scale(0.12 -0.12)">
      <use xlink:href="#BitstreamVeraSans-Roman-63"/>
      <use x="54.98046875" xlink:href="#BitstreamVeraSans-Roman-6f"/>
      <use x="116.162109375" xlink:href="#BitstreamVeraSans-Roman-75"/>
      <use x="179.541015625" xlink:href="#BitstreamVeraSans-Roman-6e"/>
      <use x="242.919921875" xlink:href="#BitstreamVeraSans-Roman-74"/>
     </g>
    </g>
   </g>
   <g id="text_15">
    <!-- single pupa mode size: 14.0  -->
    <defs>
     <path d="M 52 44.1875 
Q 55.375 50.25 60.0625 53.125 
Q 64.75 56 71.09375 56 
Q 79.640625 56 84.28125 50.015625 
Q 88.921875 44.046875 88.921875 33.015625 
L 88.921875 0 
L 79.890625 0 
L 79.890625 32.71875 
Q 79.890625 40.578125 77.09375 44.375 
Q 74.3125 48.1875 68.609375 48.1875 
Q 61.625 48.1875 57.5625 43.546875 
Q 53.515625 38.921875 53.515625 30.90625 
L 53.515625 0 
L 44.484375 0 
L 44.484375 32.71875 
Q 44.484375 40.625 41.703125 44.40625 
Q 38.921875 48.1875 33.109375 48.1875 
Q 26.21875 48.1875 22.15625 43.53125 
Q 18.109375 38.875 18.109375 30.90625 
L 18.109375 0 
L 9.078125 0 
L 9.078125 54.6875 
L 18.109375 54.6875 
L 18.109375 46.1875 
Q 21.1875 51.21875 25.484375 53.609375 
Q 29.78125 56 35.6875 56 
Q 41.65625 56 45.828125 52.96875 
Q 50 49.953125 52 44.1875 
" id="BitstreamVeraSans-Roman-6d"/>
     <path d="M 5.515625 54.6875 
L 48.1875 54.6875 
L 48.1875 46.484375 
L 14.40625 7.171875 
L 48.1875 7.171875 
L 48.1875 0 
L 4.296875 0 
L 4.296875 8.203125 
L 38.09375 47.515625 
L 5.515625 47.515625 
z
" id="BitstreamVeraSans-Roman-7a"/>
     <path d="M 11.71875 12.40625 
L 22.015625 12.40625 
L 22.015625 0 
L 11.71875 0 
z
M 11.71875 51.703125 
L 22.015625 51.703125 
L 22.015625 39.3125 
L 11.71875 39.3125 
z
" id="BitstreamVeraSans-Roman-3a"/>
     <path d="M 10.6875 12.40625 
L 21 12.40625 
L 21 0 
L 10.6875 0 
z
" id="BitstreamVeraSans-Roman-2e"/>
     <path d="M 45.40625 46.390625 
L 45.40625 75.984375 
L 54.390625 75.984375 
L 54.390625 0 
L 45.40625 0 
L 45.40625 8.203125 
Q 42.578125 3.328125 38.25 0.953125 
Q 33.9375 -1.421875 27.875 -1.421875 
Q 17.96875 -1.421875 11.734375 6.484375 
Q 5.515625 14.40625 5.515625 27.296875 
Q 5.515625 40.1875 11.734375 48.09375 
Q 17.96875 56 27.875 56 
Q 33.9375 56 38.25 53.625 
Q 42.578125 51.265625 45.40625 46.390625 
M 14.796875 27.296875 
Q 14.796875 17.390625 18.875 11.75 
Q 22.953125 6.109375 30.078125 6.109375 
Q 37.203125 6.109375 41.296875 11.75 
Q 45.40625 17.390625 45.40625 27.296875 
Q 45.40625 37.203125 41.296875 42.84375 
Q 37.203125 48.484375 30.078125 48.484375 
Q 22.953125 48.484375 18.875 42.84375 
Q 14.796875 37.203125 14.796875 27.296875 
" id="BitstreamVeraSans-Roman-64"/>
     <path d="M 45.40625 27.984375 
Q 45.40625 37.75 41.375 43.109375 
Q 37.359375 48.484375 30.078125 48.484375 
Q 22.859375 48.484375 18.828125 43.109375 
Q 14.796875 37.75 14.796875 27.984375 
Q 14.796875 18.265625 18.828125 12.890625 
Q 22.859375 7.515625 30.078125 7.515625 
Q 37.359375 7.515625 41.375 12.890625 
Q 45.40625 18.265625 45.40625 27.984375 
M 54.390625 6.78125 
Q 54.390625 -7.171875 48.1875 -13.984375 
Q 42 -20.796875 29.203125 -20.796875 
Q 24.46875 -20.796875 20.265625 -20.09375 
Q 16.0625 -19.390625 12.109375 -17.921875 
L 12.109375 -9.1875 
Q 16.0625 -11.328125 19.921875 -12.34375 
Q 23.78125 -13.375 27.78125 -13.375 
Q 36.625 -13.375 41.015625 -8.765625 
Q 45.40625 -4.15625 45.40625 5.171875 
L 45.40625 9.625 
Q 42.625 4.78125 38.28125 2.390625 
Q 33.9375 0 27.875 0 
Q 17.828125 0 11.671875 7.65625 
Q 5.515625 15.328125 5.515625 27.984375 
Q 5.515625 40.671875 11.671875 48.328125 
Q 17.828125 56 27.875 56 
Q 33.9375 56 38.28125 53.609375 
Q 42.625 51.21875 45.40625 46.390625 
L 45.40625 54.6875 
L 54.390625 54.6875 
z
" id="BitstreamVeraSans-Roman-67"/>
    </defs>
    <g transform="translate(290.24197 21.3579772727)scale(0.12 -0.12)">
     <use xlink:href="#BitstreamVeraSans-Roman-73"/>
     <use x="52.099609375" xlink:href="#BitstreamVeraSans-Roman-69"/>
     <use x="79.8828125" xlink:href="#BitstreamVeraSans-Roman-6e"/>
     <use x="143.26171875" xlink:href="#BitstreamVeraSans-Roman-67"/>
     <use x="206.73828125" xlink:href="#BitstreamVeraSans-Roman-6c"/>
     <use x="234.521484375" xlink:href="#BitstreamVeraSans-Roman-65"/>
     <use x="296.044921875" xlink:href="#BitstreamVeraSans-Roman-20"/>
     <use x="327.83203125" xlink:href="#BitstreamVeraSans-Roman-70"/>
     <use x="391.30859375" xlink:href="#BitstreamVeraSans-Roman-75"/>
     <use x="454.6875" xlink:href="#BitstreamVeraSans-Roman-70"/>
     <use x="518.1640625" xlink:href="#BitstreamVeraSans-Roman-61"/>
     <use x="579.443359375" xlink:href="#BitstreamVeraSans-Roman-20"/>
     <use x="611.23046875" xlink:href="#BitstreamVeraSans-Roman-6d"/>
     <use x="708.642578125" xlink:href="#BitstreamVeraSans-Roman-6f"/>
     <use x="769.82421875" xlink:href="#BitstreamVeraSans-Roman-64"/>
     <use x="833.30078125" xlink:href="#BitstreamVeraSans-Roman-65"/>
     <use x="894.82421875" xlink:href="#BitstreamVeraSans-Roman-20"/>
     <use x="926.611328125" xlink:href="#BitstreamVeraSans-Roman-73"/>
     <use x="978.7109375" xlink:href="#BitstreamVeraSans-Roman-69"/>
     <use x="1006.49414062" xlink:href="#BitstreamVeraSans-Roman-7a"/>
     <use x="1058.984375" xlink:href="#BitstreamVeraSans-Roman-65"/>
     <use x="1120.5078125" xlink:href="#BitstreamVeraSans-Roman-3a"/>
     <use x="1154.19921875" xlink:href="#BitstreamVeraSans-Roman-20"/>
     <use x="1185.98632812" xlink:href="#BitstreamVeraSans-Roman-31"/>
     <use x="1249.609375" xlink:href="#BitstreamVeraSans-Roman-34"/>
     <use x="1313.23242188" xlink:href="#BitstreamVeraSans-Roman-2e"/>
     <use x="1345.01953125" xlink:href="#BitstreamVeraSans-Roman-30"/>
     <use x="1408.64257812" xlink:href="#BitstreamVeraSans-Roman-20"/>
    </g>
    <!--       total contour area: 672106  -->
    <defs>
     <path d="M 8.203125 72.90625 
L 55.078125 72.90625 
L 55.078125 68.703125 
L 28.609375 0 
L 18.3125 0 
L 43.21875 64.59375 
L 8.203125 64.59375 
z
" id="BitstreamVeraSans-Roman-37"/>
    </defs>
    <g transform="translate(290.24197 34.7953522727)scale(0.12 -0.12)">
     <use xlink:href="#BitstreamVeraSans-Roman-20"/>
     <use x="31.787109375" xlink:href="#BitstreamVeraSans-Roman-20"/>
     <use x="63.57421875" xlink:href="#BitstreamVeraSans-Roman-20"/>
     <use x="95.361328125" xlink:href="#BitstreamVeraSans-Roman-20"/>
     <use x="127.1484375" xlink:href="#BitstreamVeraSans-Roman-20"/>
     <use x="158.935546875" xlink:href="#BitstreamVeraSans-Roman-20"/>
     <use x="190.72265625" xlink:href="#BitstreamVeraSans-Roman-74"/>
     <use x="229.931640625" xlink:href="#BitstreamVeraSans-Roman-6f"/>
     <use x="291.11328125" xlink:href="#BitstreamVeraSans-Roman-74"/>
     <use x="330.322265625" xlink:href="#BitstreamVeraSans-Roman-61"/>
     <use x="391.6015625" xlink:href="#BitstreamVeraSans-Roman-6c"/>
     <use x="419.384765625" xlink:href="#BitstreamVeraSans-Roman-20"/>
     <use x="451.171875" xlink:href="#BitstreamVeraSans-Roman-63"/>
     <use x="506.15234375" xlink:href="#BitstreamVeraSans-Roman-6f"/>
     <use x="567.333984375" xlink:href="#BitstreamVeraSans-Roman-6e"/>
     <use x="630.712890625" xlink:href="#BitstreamVeraSans-Roman-74"/>
     <use x="669.921875" xlink:href="#BitstreamVeraSans-Roman-6f"/>
     <use x="731.103515625" xlink:href="#BitstreamVeraSans-Roman-75"/>
     <use x="794.482421875" xlink:href="#BitstreamVeraSans-Roman-72"/>
     <use x="835.595703125" xlink:href="#BitstreamVeraSans-Roman-20"/>
     <use x="867.3828125" xlink:href="#BitstreamVeraSans-Roman-61"/>
     <use x="928.662109375" xlink:href="#BitstreamVeraSans-Roman-72"/>
     <use x="969.744140625" xlink:href="#BitstreamVeraSans-Roman-65"/>
     <use x="1031.26757812" xlink:href="#BitstreamVeraSans-Roman-61"/>
     <use x="1092.546875" xlink:href="#BitstreamVeraSans-Roman-3a"/>
     <use x="1126.23828125" xlink:href="#BitstreamVeraSans-Roman-20"/>
     <use x="1158.02539062" xlink:href="#BitstreamVeraSans-Roman-36"/>
     <use x="1221.6484375" xlink:href="#BitstreamVeraSans-Roman-37"/>
     <use x="1285.27148438" xlink:href="#BitstreamVeraSans-Roman-32"/>
     <use x="1348.89453125" xlink:href="#BitstreamVeraSans-Roman-31"/>
     <use x="1412.51757812" xlink:href="#BitstreamVeraSans-Roman-30"/>
     <use x="1476.140625" xlink:href="#BitstreamVeraSans-Roman-36"/>
     <use x="1539.76367188" xlink:href="#BitstreamVeraSans-Roman-20"/>
    </g>
    <!--       estimated pupae: 48008 -->
    <g transform="translate(290.24197 48.2327272727)scale(0.12 -0.12)">
     <use xlink:href="#BitstreamVeraSans-Roman-20"/>
     <use x="31.787109375" xlink:href="#BitstreamVeraSans-Roman-20"/>
     <use x="63.57421875" xlink:href="#BitstreamVeraSans-Roman-20"/>
     <use x="95.361328125" xlink:href="#BitstreamVeraSans-Roman-20"/>
     <use x="127.1484375" xlink:href="#BitstreamVeraSans-Roman-20"/>
     <use x="158.935546875" xlink:href="#BitstreamVeraSans-Roman-20"/>
     <use x="190.72265625" xlink:href="#BitstreamVeraSans-Roman-65"/>
     <use x="252.24609375" xlink:href="#BitstreamVeraSans-Roman-73"/>
     <use x="304.345703125" xlink:href="#BitstreamVeraSans-Roman-74"/>
     <use x="343.5546875" xlink:href="#BitstreamVeraSans-Roman-69"/>
     <use x="371.337890625" xlink:href="#BitstreamVeraSans-Roman-6d"/>
     <use x="468.75" xlink:href="#BitstreamVeraSans-Roman-61"/>
     <use x="530.029296875" xlink:href="#BitstreamVeraSans-Roman-74"/>
     <use x="569.23828125" xlink:href="#BitstreamVeraSans-Roman-65"/>
     <use x="630.76171875" xlink:href="#BitstreamVeraSans-Roman-64"/>
     <use x="694.23828125" xlink:href="#BitstreamVeraSans-Roman-20"/>
     <use x="726.025390625" xlink:href="#BitstreamVeraSans-Roman-70"/>
     <use x="789.501953125" xlink:href="#BitstreamVeraSans-Roman-75"/>
     <use x="852.880859375" xlink:href="#BitstreamVeraSans-Roman-70"/>
     <use x="916.357421875" xlink:href="#BitstreamVeraSans-Roman-61"/>
     <use x="977.63671875" xlink:href="#BitstreamVeraSans-Roman-65"/>
     <use x="1039.16015625" xlink:href="#BitstreamVeraSans-Roman-3a"/>
     <use x="1072.8515625" xlink:href="#BitstreamVeraSans-Roman-20"/>
     <use x="1104.63867188" xlink:href="#BitstreamVeraSans-Roman-34"/>
     <use x="1168.26171875" xlink:href="#BitstreamVeraSans-Roman-38"/>
     <use x="1231.88476562" xlink:href="#BitstreamVeraSans-Roman-30"/>
     <use x="1295.5078125" xlink:href="#BitstreamVeraSans-Roman-30"/>
     <use x="1359.13085938" xlink:href="#BitstreamVeraSans-Roman-38"/>
    </g>
   </g>
   <g id="PathCollection_1">
    <defs>
     <path d="M 0 3.162278 
C 0.838646 3.162278 1.643056 2.82908 2.236068 2.236068 
C 2.82908 1.643056 3.162278 0.838646 3.162278 0 
C 3.162278 -0.838646 2.82908 -1.643056 2.236068 -2.236068 
C 1.643056 -2.82908 0.838646 -3.162278 0 -3.162278 
C -0.838646 -3.162278 -1.643056 -2.82908 -2.236068 -2.236068 
C -2.82908 -1.643056 -3.162278 -0.838646 -3.162278 0 
C -3.162278 0.838646 -2.82908 1.643056 -2.236068 2.236068 
C -1.643056 2.82908 -0.838646 3.162278 0 3.162278 
z
" id="m814ca6c5d6" style="stroke:#000000;"/>
    </defs>
    <g clip-path="url(#pdaf9144dc2)">
     <use style="stroke:#000000;" x="279.39015" xlink:href="#m814ca6c5d6" y="27.7163636364"/>
    </g>
   </g>
  </g>
 </g>
 <defs>
  <clipPath id="pdaf9144dc2">
   <rect height="225.68" width="775.13" x="62.35375" y="7.2"/>
  </clipPath>
 </defs>
</svg>
