<?xml version="1.0" encoding="utf-8" standalone="no"?>
<!DOCTYPE svg PUBLIC "-//W3C//DTD SVG 1.1//EN"
  "http://www.w3.org/Graphics/SVG/1.1/DTD/svg11.dtd">
<!-- Created with matplotlib (http://matplotlib.org/) -->
<svg height="720pt" version="1.1" viewBox="0 0 720 720" width="720pt" xmlns="http://www.w3.org/2000/svg" xmlns:xlink="http://www.w3.org/1999/xlink">
 <defs>
  <style type="text/css">
*{stroke-linecap:butt;stroke-linejoin:round;stroke-miterlimit:100000;}
  </style>
 </defs>
 <g id="figure_1">
  <g id="patch_1">
   <path d="M 0 720 
L 720 720 
L 720 0 
L 0 0 
z
" style="fill:#ffffff;"/>
  </g>
  <g id="axes_1">
   <g id="patch_2">
    <path d="M 90 648 
L 648 648 
L 648 72 
L 90 72 
z
" style="fill:#ffffff;"/>
   </g>
   <g id="patch_3">
    <path d="M 90 72 
L 648 72 
" style="fill:none;"/>
   </g>
   <g id="patch_4">
    <path d="M 648 648 
L 648 72 
" style="fill:none;"/>
   </g>
   <g id="patch_5">
    <path d="M 90 658 
L 648 658 
" style="fill:none;stroke:#000000;stroke-linecap:square;stroke-linejoin:miter;stroke-width:0.75;"/>
   </g>
   <g id="patch_6">
    <path d="M 80 648 
L 80 72 
" style="fill:none;stroke:#000000;stroke-linecap:square;stroke-linejoin:miter;stroke-width:0.75;"/>
   </g>
   <g id="matplotlib.axis_1">
    <g id="xtick_1">
     <g id="line2d_1">
      <defs>
       <path d="M 0 0 
L 0 -4 
" id="m3cda4c261b" style="stroke:#000000;stroke-width:0.75;"/>
      </defs>
      <g>
       <use style="stroke:#000000;stroke-width:0.75;" x="90.0" xlink:href="#m3cda4c261b" y="658.0"/>
      </g>
     </g>
     <g id="text_1">
      <text style="font-family:Arial;font-size:9.0px;font-style:normal;font-weight:400;text-anchor:middle;" transform="rotate(-0.000000, 90.000000, 668.442031)" x="90.0" y="668.44203125">−2</text>
     </g>
    </g>
    <g id="xtick_2">
     <g id="line2d_2">
      <g>
       <use style="stroke:#000000;stroke-width:0.75;" x="191.454545455" xlink:href="#m3cda4c261b" y="658.0"/>
      </g>
     </g>
     <g id="text_2">
      <text style="font-family:Arial;font-size:9.0px;font-style:normal;font-weight:400;text-anchor:middle;" transform="rotate(-0.000000, 191.454545, 668.442031)" x="191.454545455" y="668.44203125">−1</text>
     </g>
    </g>
    <g id="xtick_3">
     <g id="line2d_3">
      <g>
       <use style="stroke:#000000;stroke-width:0.75;" x="292.909090909" xlink:href="#m3cda4c261b" y="658.0"/>
      </g>
     </g>
     <g id="text_3">
      <text style="font-family:Arial;font-size:9.0px;font-style:normal;font-weight:400;text-anchor:middle;" transform="rotate(-0.000000, 292.909091, 668.442031)" x="292.909090909" y="668.44203125">0</text>
     </g>
    </g>
    <g id="xtick_4">
     <g id="line2d_4">
      <g>
       <use style="stroke:#000000;stroke-width:0.75;" x="394.363636364" xlink:href="#m3cda4c261b" y="658.0"/>
      </g>
     </g>
     <g id="text_4">
      <text style="font-family:Arial;font-size:9.0px;font-style:normal;font-weight:400;text-anchor:middle;" transform="rotate(-0.000000, 394.363636, 668.442031)" x="394.363636364" y="668.44203125">1</text>
     </g>
    </g>
    <g id="xtick_5">
     <g id="line2d_5">
      <g>
       <use style="stroke:#000000;stroke-width:0.75;" x="495.818181818" xlink:href="#m3cda4c261b" y="658.0"/>
      </g>
     </g>
     <g id="text_5">
      <text style="font-family:Arial;font-size:9.0px;font-style:normal;font-weight:400;text-anchor:middle;" transform="rotate(-0.000000, 495.818182, 668.442031)" x="495.818181818" y="668.44203125">2</text>
     </g>
    </g>
    <g id="xtick_6">
     <g id="line2d_6">
      <g>
       <use style="stroke:#000000;stroke-width:0.75;" x="597.272727273" xlink:href="#m3cda4c261b" y="658.0"/>
      </g>
     </g>
     <g id="text_6">
      <text style="font-family:Arial;font-size:9.0px;font-style:normal;font-weight:400;text-anchor:middle;" transform="rotate(-0.000000, 597.272727, 668.442031)" x="597.272727273" y="668.44203125">3</text>
     </g>
    </g>
    <g id="text_7">
     <text style="font-family:Arial;font-size:9.0px;font-style:normal;font-weight:400;text-anchor:middle;" transform="rotate(-0.000000, 369.000000, 681.782500)" x="369.0" y="681.7825">windspeed along trajectory, m/s</text>
    </g>
   </g>
   <g id="matplotlib.axis_2">
    <g id="ytick_1">
     <g id="line2d_7">
      <defs>
       <path d="M 0 0 
L 4 0 
" id="m8ee308e8ca" style="stroke:#000000;stroke-width:0.75;"/>
      </defs>
      <g>
       <use style="stroke:#000000;stroke-width:0.75;" x="80.0" xlink:href="#m8ee308e8ca" y="595.636363636"/>
      </g>
     </g>
     <g id="text_8">
      <text style="font-family:Arial;font-size:9.0px;font-style:normal;font-weight:400;text-anchor:end;" transform="rotate(-0.000000, 76.000000, 597.963004)" x="76.0" y="597.963004261">0</text>
     </g>
    </g>
    <g id="ytick_2">
     <g id="line2d_8">
      <g>
       <use style="stroke:#000000;stroke-width:0.75;" x="80.0" xlink:href="#m8ee308e8ca" y="490.909090909"/>
      </g>
     </g>
     <g id="text_9">
      <text style="font-family:Arial;font-size:9.0px;font-style:normal;font-weight:400;text-anchor:end;" transform="rotate(-0.000000, 76.000000, 493.235732)" x="76.0" y="493.235731534">1</text>
     </g>
    </g>
    <g id="ytick_3">
     <g id="line2d_9">
      <g>
       <use style="stroke:#000000;stroke-width:0.75;" x="80.0" xlink:href="#m8ee308e8ca" y="386.181818182"/>
      </g>
     </g>
     <g id="text_10">
      <text style="font-family:Arial;font-size:9.0px;font-style:normal;font-weight:400;text-anchor:end;" transform="rotate(-0.000000, 76.000000, 388.508459)" x="76.0" y="388.508458807">2</text>
     </g>
    </g>
    <g id="ytick_4">
     <g id="line2d_10">
      <g>
       <use style="stroke:#000000;stroke-width:0.75;" x="80.0" xlink:href="#m8ee308e8ca" y="281.454545455"/>
      </g>
     </g>
     <g id="text_11">
      <text style="font-family:Arial;font-size:9.0px;font-style:normal;font-weight:400;text-anchor:end;" transform="rotate(-0.000000, 76.000000, 283.781186)" x="76.0" y="283.78118608">3</text>
     </g>
    </g>
    <g id="ytick_5">
     <g id="line2d_11">
      <g>
       <use style="stroke:#000000;stroke-width:0.75;" x="80.0" xlink:href="#m8ee308e8ca" y="176.727272727"/>
      </g>
     </g>
     <g id="text_12">
      <text style="font-family:Arial;font-size:9.0px;font-style:normal;font-weight:400;text-anchor:end;" transform="rotate(-0.000000, 76.000000, 179.053913)" x="76.0" y="179.053913352">4</text>
     </g>
    </g>
    <g id="ytick_6">
     <g id="line2d_12">
      <g>
       <use style="stroke:#000000;stroke-width:0.75;" x="80.0" xlink:href="#m8ee308e8ca" y="72.0"/>
      </g>
     </g>
     <g id="text_13">
      <text style="font-family:Arial;font-size:9.0px;font-style:normal;font-weight:400;text-anchor:end;" transform="rotate(-0.000000, 76.000000, 74.326641)" x="76.0" y="74.326640625">5</text>
     </g>
    </g>
    <g id="text_14">
     <text style="font-family:Arial;font-size:9.0px;font-style:normal;font-weight:400;text-anchor:middle;" transform="rotate(-90.000000, 64.100937, 360.000000)" x="64.1009375" y="360.0">groundspeed along trajectory, m/s</text>
    </g>
   </g>
   <g id="LineCollection_1">
    <path clip-path="url(#p869b1c4381)" d="M 318.272727 590.524233 
L 323.345455 592.549999 
L 328.418182 593.326552 
L 333.490909 593.418809 
L 338.563636 592.749519 
L 343.636364 590.990284 
L 344.77318 590.4 
L 348.709091 589.167159 
L 353.781818 585.003033 
L 358.524893 579.927273 
L 358.854545 579.401851 
L 363.544233 574.690909 
L 363.927273 574.065156 
L 369 570.411663 
L 374.072727 569.319305 
L 379.145455 568.512152 
L 384.218182 567.487418 
L 389.290909 567.454275 
L 394.363636 567.0075 
L 399.436364 564.855646 
L 400.646092 564.218182 
L 404.509091 562.385828 
L 414.654545 561.135957 
L 419.727273 558.861423 
L 424.8 556.183652 
L 427.805286 553.745455 
L 429.872727 551.854517 
L 434.945455 546.166759 
L 440.018182 541.605756 
L 450.163636 534.378401 
L 455.236364 532.606121 
L 460.309091 531.871963 
L 465.381818 528.412913 
L 466.110925 527.563636 
L 470.454545 522.138701 
L 475.527273 517.054017 
L 480.210577 511.854545 
L 483.244103 506.618182 
L 485.672727 500.373238 
L 489.963834 496.145455 
L 490.745455 495.034346 
L 494.70403 490.909091 
L 495.818182 487.583104 
L 496.206789 485.672727 
L 498.200478 480.436364 
L 500.890909 472.710877 
L 502.13679 469.963636 
L 505.963636 462.61171 
L 507.469967 459.490909 
L 509.600295 454.254545 
L 511.036364 448.313925 
L 513.153498 438.545455 
L 515.556609 428.072727 
L 516.109091 425.248326 
L 518.514988 417.6 
L 519.667812 412.363636 
L 520.373162 407.127273 
L 520.673308 401.890909 
L 520.284331 396.654545 
L 518.478701 391.418182 
L 516.109091 388.279738 
L 511.036364 386.563136 
L 505.963636 387.902916 
L 500.890909 392.067216 
L 490.745455 402.435922 
L 486.57263 407.127273 
L 485.672727 408.561564 
L 482.667324 412.363636 
L 480.6 416.459959 
L 479.704212 417.6 
L 475.527273 423.81655 
L 470.454545 430.494953 
L 467.941005 433.309091 
L 465.381818 436.42282 
L 458.100661 443.781818 
L 454.099383 449.018182 
L 450.163636 454.944227 
L 445.090909 459.921814 
L 440.018182 463.464492 
L 437.53211 464.727273 
L 429.872727 467.601938 
L 425.986053 469.963636 
L 424.8 470.536803 
L 419.727273 473.236185 
L 414.654545 477.149289 
L 409.581818 482.675439 
L 404.509091 488.146204 
L 399.436364 492.463987 
L 394.321973 496.145455 
L 388.613487 501.381818 
L 384.218182 505.083703 
L 381.950697 506.618182 
L 379.145455 509.299727 
L 377.207921 511.854545 
L 374.466892 517.090909 
L 365.442492 527.563636 
L 363.927273 529.205139 
L 358.854545 528.768248 
L 353.781818 523.824483 
L 351.646881 522.327273 
L 348.709091 519.313921 
L 343.636364 517.543223 
L 338.563636 517.951179 
L 333.490909 519.04919 
L 328.418182 521.299691 
L 327.129424 522.327273 
L 322.809727 527.563636 
L 315.12693 538.036364 
L 312.649226 543.272727 
L 308.127273 550.434254 
L 304.012559 553.745455 
L 303.054545 554.766974 
L 299.837488 558.981818 
L 298.107574 564.218182 
L 297.981818 565.179243 
L 297.079264 569.454545 
L 297.840035 574.690909 
L 297.981818 574.849665 
L 300.571797 579.927273 
L 307.385135 585.163636 
L 308.127273 585.561298 
L 313.2 588.513235 
L 318.272727 590.524233 
L 318.272727 590.524233 
" style="fill:none;stroke:#808080;"/>
   </g>
   <g id="LineCollection_2">
    <path clip-path="url(#p869b1c4381)" d="M 318.272727 587.30915 
L 323.345455 589.32976 
L 328.418182 590.102677 
L 333.490909 590.223916 
L 338.563636 589.740459 
L 343.636364 588.524781 
L 348.709091 585.741582 
L 349.418298 585.163636 
L 354.580488 579.927273 
L 358.237651 574.690909 
L 358.854545 573.121513 
L 361.472823 569.454545 
L 363.476021 564.218182 
L 363.927273 562.547551 
L 369 557.667355 
L 374.072727 558.045972 
L 379.145455 559.336334 
L 384.218182 559.805992 
L 389.290909 560.412224 
L 394.363636 559.965604 
L 399.436364 557.452684 
L 404.509091 554.541615 
L 409.581818 554.406276 
L 414.654545 553.997787 
L 415.155247 553.745455 
L 419.727273 551.628471 
L 424.8 547.812731 
L 429.872727 542.961676 
L 440.018182 532.023138 
L 445.090909 526.41971 
L 450.507085 522.327273 
L 455.236364 520.661055 
L 460.309091 519.414307 
L 465.381818 515.181052 
L 470.454545 509.960906 
L 473.713409 506.618182 
L 475.527273 503.887 
L 476.846476 501.381818 
L 481.834743 490.909091 
L 483.688778 485.672727 
L 485.672727 478.547384 
L 488.01531 475.2 
L 497.408042 459.490909 
L 504.421228 449.018182 
L 506.432077 443.781818 
L 509.952841 433.309091 
L 511.771992 428.072727 
L 513.554397 422.836364 
L 515.055008 417.6 
L 517.461635 407.127273 
L 517.642648 401.890909 
L 516.47537 396.654545 
L 516.109091 395.925758 
L 511.036364 392.238629 
L 505.963636 393.757072 
L 502.577929 396.654545 
L 500.890909 397.892847 
L 495.818182 403.034342 
L 492.023586 407.127273 
L 488.04888 412.363636 
L 485.331912 417.6 
L 482.274521 422.836364 
L 480.6 426.169213 
L 479.135764 428.072727 
L 475.331493 433.309091 
L 470.454545 439.350902 
L 466.901372 443.781818 
L 465.381818 445.947373 
L 460.309091 450.957554 
L 457.755093 454.254545 
L 454.043341 459.490909 
L 450.163636 464.925586 
L 445.090909 470.400059 
L 440.018182 473.217444 
L 434.945455 475.338747 
L 429.872727 477.662939 
L 424.8 480.460734 
L 419.727273 483.882334 
L 417.666076 485.672727 
L 414.654545 487.932132 
L 411.562825 490.909091 
L 409.581818 492.643929 
L 406.518397 496.145455 
L 404.509091 498.986096 
L 399.436364 504.41908 
L 395.945833 506.618182 
L 394.363636 507.450369 
L 389.041731 511.854545 
L 385.514652 517.090909 
L 384.218182 519.342407 
L 381.816537 522.327273 
L 379.145455 524.690767 
L 376.125492 527.563636 
L 374.072727 530.308221 
L 372.467263 532.8 
L 370.164242 538.036364 
L 369 541.309405 
L 363.927273 543.388387 
L 363.835376 543.272727 
L 358.854545 539.869552 
L 357.367344 538.036364 
L 353.781818 534.187349 
L 352.234612 532.8 
L 348.709091 529.877468 
L 343.636364 528.369087 
L 338.563636 528.290406 
L 333.490909 529.345214 
L 328.418182 533.088863 
L 323.345455 538.721745 
L 320.28636 543.272727 
L 317.585459 548.509091 
L 314.496295 553.745455 
L 313.2 556.625162 
L 311.650934 558.981818 
L 308.94296 564.218182 
L 308.127273 567.470845 
L 307.443694 569.454545 
L 307.506698 574.690909 
L 308.127273 575.962318 
L 309.467948 579.927273 
L 314.943716 585.163636 
L 318.272727 587.30915 
L 318.272727 587.30915 
" style="fill:none;stroke:#808080;"/>
   </g>
   <g id="LineCollection_3">
    <path clip-path="url(#p869b1c4381)" d="M 323.345455 587.256712 
L 328.418182 588.510347 
L 333.490909 588.779201 
L 338.563636 588.154053 
L 343.636364 586.432023 
L 345.77534 585.163636 
L 348.709091 583.386886 
L 352.10743 579.927273 
L 353.781818 577.330342 
L 355.776641 574.690909 
L 358.079188 569.454545 
L 358.854545 565.607267 
L 359.455903 564.218182 
L 360.605509 558.981818 
L 360.988798 553.745455 
L 359.316016 548.509091 
L 358.854545 547.974921 
L 356.388546 543.272727 
L 353.781818 540.258984 
L 351.507878 538.036364 
L 348.709091 535.406269 
L 343.636364 533.70583 
L 338.563636 533.667151 
L 333.490909 535.089509 
L 329.706712 538.036364 
L 328.418182 539.185222 
L 325.184489 543.272727 
L 323.345455 546.304147 
L 322.019801 548.509091 
L 318.934836 553.745455 
L 318.272727 554.977908 
L 315.908432 558.981818 
L 313.789946 564.218182 
L 313.2 566.567125 
L 312.078047 569.454545 
L 311.867362 574.690909 
L 313.2 577.631057 
L 313.934929 579.927273 
L 318.272727 584.245908 
L 319.490801 585.163636 
L 323.345455 587.256712 
" style="fill:none;stroke:#808080;"/>
    <path clip-path="url(#p869b1c4381)" d="M 389.290909 554.246668 
L 394.363636 554.189151 
L 395.177236 553.745455 
L 399.436364 551.458103 
L 404.509091 548.993647 
L 409.581818 549.566499 
L 414.654545 549.086898 
L 415.646345 548.509091 
L 419.727273 546.220066 
L 423.335561 543.272727 
L 424.8 542.030414 
L 428.896149 538.036364 
L 429.872727 536.912795 
L 433.364636 532.8 
L 434.945455 530.869251 
L 437.757554 527.563636 
L 440.018182 524.611676 
L 442.033954 522.327273 
L 445.090909 517.745183 
L 445.826058 517.090909 
L 450.163636 512.888855 
L 455.236364 512.173336 
L 456.587243 511.854545 
L 460.309091 511.099373 
L 465.381818 507.083513 
L 465.8449 506.618182 
L 470.045397 501.381818 
L 470.454545 500.71987 
L 473.411879 496.145455 
L 475.527273 493.154593 
L 476.80311 490.909091 
L 479.256032 485.672727 
L 480.6 481.388696 
L 480.940041 480.436364 
L 482.919503 475.2 
L 484.830756 469.963636 
L 485.672727 467.59382 
L 487.408042 464.727273 
L 490.444044 459.490909 
L 490.745455 459.139887 
L 495.188431 454.254545 
L 495.818182 453.648195 
L 499.357718 449.018182 
L 500.890909 446.378047 
L 502.348577 443.781818 
L 504.609415 438.545455 
L 505.963636 435.18431 
L 506.765258 433.309091 
L 509.009097 428.072727 
L 510.732488 422.836364 
L 511.036364 422.002178 
L 512.724234 417.6 
L 514.205364 412.363636 
L 514.920337 407.127273 
L 514.514284 401.890909 
L 511.036364 396.859754 
L 505.963636 397.832816 
L 500.890909 401.776962 
L 500.77714 401.890909 
L 495.8249 407.127273 
L 495.818182 407.135233 
L 491.578198 412.363636 
L 490.745455 413.65559 
L 488.250284 417.6 
L 485.838389 422.836364 
L 485.672727 423.197708 
L 482.775085 428.072727 
L 480.6 432.20525 
L 479.741355 433.309091 
L 475.527273 438.528691 
L 475.513281 438.545455 
L 471.535341 443.781818 
L 470.454545 445.646549 
L 467.958815 449.018182 
L 465.381818 452.545773 
L 463.651125 454.254545 
L 460.309091 457.430935 
L 458.763791 459.490909 
L 455.236364 464.701728 
L 455.216886 464.727273 
L 451.486819 469.963636 
L 450.163636 472.240769 
L 447.399798 475.2 
L 445.090909 477.544777 
L 440.018182 479.505664 
L 437.757511 480.436364 
L 434.945455 481.515295 
L 429.872727 483.775434 
L 426.494728 485.672727 
L 424.8 486.564134 
L 419.727273 490.59193 
L 419.329064 490.909091 
L 414.654545 493.902837 
L 412.207753 496.145455 
L 409.581818 498.646643 
L 407.426771 501.381818 
L 404.509091 506.119153 
L 404.046674 506.618182 
L 399.436364 511.372394 
L 398.623794 511.854545 
L 394.363636 514.435878 
L 391.905448 517.090909 
L 389.290909 520.555967 
L 388.121047 522.327273 
L 384.48396 527.563636 
L 384.218182 527.997477 
L 379.293493 532.8 
L 379.145455 533.05522 
L 376.996903 538.036364 
L 376.422615 543.272727 
L 377.176484 548.509091 
L 379.145455 550.759504 
L 384.218182 552.70887 
L 387.216121 553.745455 
L 389.290909 554.246668 
" style="fill:none;stroke:#808080;"/>
   </g>
   <g id="LineCollection_4">
    <path clip-path="url(#p869b1c4381)" d="M 323.345455 585.183663 
L 328.418182 586.918017 
L 333.490909 587.334486 
L 338.563636 586.567646 
L 342.073954 585.163636 
L 343.636364 584.615047 
L 348.709091 581.249533 
L 350.007932 579.927273 
L 353.511155 574.690909 
L 353.781818 574.023256 
L 356.207718 569.454545 
L 357.384551 564.218182 
L 357.729743 558.981818 
L 357.481525 553.745455 
L 356.039192 548.509091 
L 353.781818 545.07041 
L 352.430328 543.272727 
L 348.709091 539.572683 
L 344.457503 538.036364 
L 343.636364 537.691571 
L 338.563636 537.630254 
L 337.461486 538.036364 
L 333.490909 539.413335 
L 329.359541 543.272727 
L 328.418182 544.296411 
L 325.442729 548.509091 
L 323.345455 551.836875 
L 322.10289 553.745455 
L 318.999798 558.981818 
L 318.272727 560.820287 
L 316.603404 564.218182 
L 315.038412 569.454545 
L 314.815847 574.690909 
L 316.824101 579.927273 
L 318.272727 581.3695 
L 323.308573 585.163636 
L 323.345455 585.183663 
" style="fill:none;stroke:#808080;"/>
    <path clip-path="url(#p869b1c4381)" d="M 394.363636 548.61179 
L 394.554502 548.509091 
L 399.436364 545.965931 
L 404.509091 544.382715 
L 409.581818 545.708319 
L 414.654545 545.298749 
L 417.707355 543.272727 
L 419.727273 541.847675 
L 424.033715 538.036364 
L 424.8 537.237238 
L 428.737946 532.8 
L 429.872727 531.444535 
L 433.142818 527.563636 
L 434.945455 525.499994 
L 437.532539 522.327273 
L 440.018182 517.902807 
L 440.599924 517.090909 
L 442.966402 511.854545 
L 445.090909 506.761588 
L 445.334973 506.618182 
L 450.163636 504.688497 
L 455.236364 505.318192 
L 460.309091 504.572022 
L 464.176053 501.381818 
L 465.381818 500.286483 
L 468.208623 496.145455 
L 470.454545 492.840252 
L 471.893438 490.909091 
L 475.527273 485.864868 
L 475.627866 485.672727 
L 477.765735 480.436364 
L 479.509121 475.2 
L 480.6 471.983305 
L 481.407364 469.963636 
L 483.356791 464.727273 
L 485.356608 459.490909 
L 485.672727 458.837057 
L 489.545353 454.254545 
L 490.745455 453.301388 
L 495.154194 449.018182 
L 495.818182 448.353488 
L 498.856675 443.781818 
L 500.890909 439.975776 
L 501.605088 438.545455 
L 504.060847 433.309091 
L 505.963636 429.22103 
L 506.492712 428.072727 
L 508.518054 422.836364 
L 510.425264 417.6 
L 511.036364 415.865425 
L 512.169851 412.363636 
L 512.700242 407.127273 
L 511.285835 401.890909 
L 511.036364 401.530024 
L 505.963636 401.104234 
L 504.956451 401.890909 
L 500.890909 404.880423 
L 498.754028 407.127273 
L 495.818182 410.605643 
L 494.392534 412.363636 
L 490.994385 417.6 
L 490.745455 418.002037 
L 488.108278 422.836364 
L 485.707002 428.072727 
L 485.672727 428.15289 
L 482.873021 433.309091 
L 480.6 437.377759 
L 479.647902 438.545455 
L 475.527273 443.084366 
L 474.997006 443.781818 
L 471.815387 449.018182 
L 470.454545 451.701583 
L 468.597859 454.254545 
L 465.381818 458.002273 
L 463.829392 459.490909 
L 460.309091 462.725928 
L 458.855917 464.727273 
L 455.490563 469.963636 
L 455.236364 470.420877 
L 452.233118 475.2 
L 450.163636 479.124023 
L 448.87096 480.436364 
L 445.090909 485.003816 
L 441.680227 485.672727 
L 440.018182 485.972448 
L 434.945455 486.962793 
L 429.872727 488.574549 
L 425.880755 490.909091 
L 424.8 491.537757 
L 419.727273 495.245193 
L 418.391255 496.145455 
L 414.654545 498.246655 
L 411.434592 501.381818 
L 409.581818 503.473057 
L 407.376121 506.618182 
L 404.509091 511.552852 
L 404.216576 511.854545 
L 399.436364 516.887752 
L 399.134891 517.090909 
L 394.363636 520.592255 
L 392.97659 522.327273 
L 389.421822 527.563636 
L 389.290909 527.840707 
L 386.471042 532.8 
L 384.818213 538.036364 
L 385.452889 543.272727 
L 389.290909 547.364044 
L 393.745277 548.509091 
L 394.363636 548.61179 
" style="fill:none;stroke:#808080;"/>
   </g>
   <g id="LineCollection_5">
    <path clip-path="url(#p869b1c4381)" d="M 328.418182 585.325687 
L 333.490909 585.889772 
L 337.619258 585.163636 
L 338.563636 585.033798 
L 343.636364 583.222392 
L 348.004971 579.927273 
L 348.709091 579.199049 
L 352.08232 574.690909 
L 353.781818 570.498706 
L 354.336248 569.454545 
L 355.655985 564.218182 
L 355.85247 558.981818 
L 355.199906 553.745455 
L 353.781818 550.013731 
L 353.186501 548.509091 
L 348.98065 543.272727 
L 348.709091 543.002715 
L 343.636364 540.728379 
L 338.563636 540.755059 
L 333.490909 543.143291 
L 333.352352 543.272727 
L 328.49925 548.509091 
L 328.418182 548.601889 
L 324.710546 553.745455 
L 323.345455 555.830253 
L 321.264602 558.981818 
L 318.988444 564.218182 
L 318.272727 567.206908 
L 317.515244 569.454545 
L 317.212209 574.690909 
L 318.272727 577.153173 
L 319.327242 579.927273 
L 323.345455 583.369406 
L 327.945474 585.163636 
L 328.418182 585.325687 
" style="fill:none;stroke:#808080;"/>
    <path clip-path="url(#p869b1c4381)" d="M 394.363636 541.764694 
L 399.436364 539.866428 
L 404.509091 539.379424 
L 409.581818 541.973657 
L 414.654545 541.721269 
L 419.649213 538.036364 
L 419.727273 537.973969 
L 424.697268 532.8 
L 424.8 532.677133 
L 429.141071 527.563636 
L 429.872727 526.80512 
L 433.854932 522.327273 
L 434.945455 520.624136 
L 437.128427 517.090909 
L 438.767624 511.854545 
L 439.803466 506.618182 
L 440.018182 505.203069 
L 441.161058 501.381818 
L 441.420507 496.145455 
L 440.018182 494.895507 
L 434.945455 492.262176 
L 429.872727 493.022898 
L 424.8 495.986091 
L 424.583343 496.145455 
L 419.727273 499.067312 
L 415.762724 501.381818 
L 414.654545 501.98442 
L 410.465686 506.618182 
L 409.581818 507.839842 
L 407.039332 511.854545 
L 404.509091 516.80988 
L 404.242 517.090909 
L 399.749728 522.327273 
L 399.436364 522.775063 
L 394.363636 527.092881 
L 394.040822 527.563636 
L 391.999515 532.8 
L 391.715122 538.036364 
L 394.363636 541.764694 
" style="fill:none;stroke:#808080;"/>
    <path clip-path="url(#p869b1c4381)" d="M 455.236364 498.777622 
L 460.309091 498.718715 
L 463.082637 496.145455 
L 465.381818 493.972005 
L 467.556891 490.909091 
L 470.454545 486.841955 
L 471.336529 485.672727 
L 474.36955 480.436364 
L 475.527273 478.206242 
L 476.604868 475.2 
L 478.208701 469.963636 
L 479.920567 464.727273 
L 480.6 463.222835 
L 481.974148 459.490909 
L 484.155346 454.254545 
L 485.672727 451.8066 
L 489.818507 449.018182 
L 490.745455 448.568192 
L 495.535466 443.781818 
L 495.818182 443.51469 
L 498.728763 438.545455 
L 500.890909 434.590528 
L 501.518771 433.309091 
L 504.001495 428.072727 
L 505.963636 423.688651 
L 506.303621 422.836364 
L 508.209795 417.6 
L 509.843132 412.363636 
L 509.827508 407.127273 
L 505.963636 404.439852 
L 502.171664 407.127273 
L 500.890909 408.129698 
L 497.348331 412.363636 
L 495.818182 414.255506 
L 493.570781 417.6 
L 490.745455 422.163072 
L 490.378167 422.836364 
L 487.937171 428.072727 
L 485.704706 433.309091 
L 485.672727 433.407455 
L 483.453925 438.545455 
L 480.6 442.699979 
L 479.629182 443.781818 
L 475.527273 448.067608 
L 474.94034 449.018182 
L 472.530289 454.254545 
L 470.454545 458.099637 
L 469.294704 459.490909 
L 465.381818 462.898549 
L 463.403448 464.727273 
L 460.309091 467.528203 
L 458.656896 469.963636 
L 455.738294 475.2 
L 455.236364 476.249825 
L 452.989052 480.436364 
L 451.012769 485.672727 
L 450.163636 489.703721 
L 449.497097 490.909091 
L 450.163636 493.44551 
L 450.915776 496.145455 
L 455.236364 498.777622 
" style="fill:none;stroke:#808080;"/>
   </g>
   <g id="LineCollection_6">
    <path clip-path="url(#p869b1c4381)" d="M 323.345455 581.557673 
L 328.418182 583.996032 
L 333.490909 584.613785 
L 338.563636 583.904532 
L 343.636364 581.829737 
L 346.158615 579.927273 
L 348.709091 577.289487 
L 350.653484 574.690909 
L 352.955296 569.454545 
L 353.781818 564.77793 
L 353.927419 564.218182 
L 353.975196 558.981818 
L 353.781818 557.861533 
L 353.148508 553.745455 
L 350.810944 548.509091 
L 348.709091 545.943817 
L 343.636364 543.591845 
L 338.563636 543.671167 
L 333.490909 546.082292 
L 331.221296 548.509091 
L 328.418182 551.717765 
L 326.956562 553.745455 
L 323.485075 558.981818 
L 323.345455 559.255003 
L 320.748411 564.218182 
L 319.369495 569.454545 
L 319.185592 574.690909 
L 321.442189 579.927273 
L 323.345455 581.557673 
" style="fill:none;stroke:#808080;"/>
    <path clip-path="url(#p869b1c4381)" d="M 414.654545 538.228739 
L 414.915299 538.036364 
L 419.727273 534.190098 
L 421.062569 532.8 
L 424.8 528.330062 
L 425.450652 527.563636 
L 429.872727 522.979225 
L 430.452517 522.327273 
L 433.848433 517.090909 
L 434.945455 513.432594 
L 435.428142 511.854545 
L 435.990889 506.618182 
L 435.74165 501.381818 
L 434.945455 499.706505 
L 429.872727 497.806118 
L 424.8 500.249332 
L 422.657628 501.381818 
L 419.727273 502.595404 
L 414.654545 505.37372 
L 413.529569 506.618182 
L 409.726924 511.854545 
L 409.581818 512.12758 
L 407.047636 517.090909 
L 405.098112 522.327273 
L 404.509091 525.522629 
L 403.382963 527.563636 
L 404.509091 530.594579 
L 404.957238 532.8 
L 409.581818 538.014432 
L 409.916445 538.036364 
L 414.654545 538.228739 
" style="fill:none;stroke:#808080;"/>
    <path clip-path="url(#p869b1c4381)" d="M 460.309091 493.018762 
L 462.541851 490.909091 
L 465.381818 488.254438 
L 467.22235 485.672727 
L 470.116333 480.436364 
L 470.454545 479.665214 
L 472.428703 475.2 
L 474.284946 469.963636 
L 475.527273 466.255321 
L 475.77194 464.727273 
L 476.128521 459.490909 
L 475.527273 457.705939 
L 475.06065 459.490909 
L 472.947838 464.727273 
L 470.454545 465.326328 
L 465.381818 467.874433 
L 463.042862 469.963636 
L 460.309091 472.618233 
L 458.858122 475.2 
L 456.569842 480.436364 
L 455.236364 484.713833 
L 454.922244 485.672727 
L 455.236364 490.041714 
L 455.44814 490.909091 
L 460.309091 493.018762 
" style="fill:none;stroke:#808080;"/>
    <path clip-path="url(#p869b1c4381)" d="M 490.745455 443.303199 
L 495.818182 438.672092 
L 495.892356 438.545455 
L 498.556385 433.309091 
L 500.890909 429.385665 
L 501.516979 428.072727 
L 503.363318 422.836364 
L 505.963636 417.684311 
L 505.994325 417.6 
L 507.150482 412.363636 
L 505.963636 408.757194 
L 500.890909 411.835909 
L 500.449354 412.363636 
L 496.512551 417.6 
L 495.818182 418.261916 
L 493.21651 422.836364 
L 490.745455 426.835827 
L 490.16734 428.072727 
L 488.496264 433.309091 
L 487.609918 438.545455 
L 490.745455 443.303199 
" style="fill:none;stroke:#808080;"/>
   </g>
   <g id="LineCollection_7">
    <path clip-path="url(#p869b1c4381)" d="M 328.418182 582.696138 
L 333.490909 583.508302 
L 338.563636 582.775265 
L 343.636364 580.437081 
L 344.312258 579.927273 
L 348.709091 575.379925 
L 349.224649 574.690909 
L 351.780836 569.454545 
L 352.73742 564.218182 
L 352.615279 558.981818 
L 351.475178 553.745455 
L 348.709091 548.850282 
L 348.230143 548.509091 
L 343.636364 545.927734 
L 338.563636 546.031057 
L 334.184125 548.509091 
L 333.490909 548.880209 
L 329.118914 553.745455 
L 328.418182 554.569591 
L 325.204081 558.981818 
L 323.345455 562.618455 
L 322.508378 564.218182 
L 320.94946 569.454545 
L 320.823174 574.690909 
L 323.345455 579.607766 
L 323.573115 579.927273 
L 328.418182 582.696138 
" style="fill:none;stroke:#808080;"/>
    <path clip-path="url(#p869b1c4381)" d="M 414.654545 534.157354 
L 416.395784 532.8 
L 419.727273 530.022865 
L 421.780731 527.563636 
L 424.8 524.293219 
L 426.696024 522.327273 
L 429.872727 518.166113 
L 430.574521 517.090909 
L 431.699016 511.854545 
L 431.092052 506.618182 
L 429.872727 504.603182 
L 424.8 504.655213 
L 419.727273 505.930061 
L 418.479891 506.618182 
L 414.654545 508.988634 
L 412.518625 511.854545 
L 409.751502 517.090909 
L 409.581818 517.642809 
L 408.152501 522.327273 
L 407.871697 527.563636 
L 409.581818 532.045291 
L 410.520666 532.8 
L 414.654545 534.157354 
" style="fill:none;stroke:#808080;"/>
    <path clip-path="url(#p869b1c4381)" d="M 460.309091 481.165076 
L 461.01628 480.436364 
L 460.309091 480.387321 
L 460.290275 480.436364 
L 460.309091 481.165076 
" style="fill:none;stroke:#808080;"/>
    <path clip-path="url(#p869b1c4381)" d="M 495.818182 431.730514 
L 497.165755 428.072727 
L 495.818182 424.421766 
L 494.460967 428.072727 
L 495.818182 431.730514 
" style="fill:none;stroke:#808080;"/>
   </g>
   <g id="LineCollection_8">
    <path clip-path="url(#p869b1c4381)" d="M 328.418182 581.396243 
L 333.490909 582.402819 
L 338.563636 581.645998 
L 342.144766 579.927273 
L 343.636364 579.041572 
L 347.845178 574.690909 
L 348.709091 573.206426 
L 350.606376 569.454545 
L 351.596957 564.218182 
L 351.314775 558.981818 
L 349.801848 553.745455 
L 348.709091 551.811592 
L 344.073198 548.509091 
L 343.636364 548.263623 
L 338.563636 548.390947 
L 338.354837 548.509091 
L 333.490909 551.113031 
L 331.125367 553.745455 
L 328.418182 556.929394 
L 326.923087 558.981818 
L 324.094245 564.218182 
L 323.345455 566.856219 
L 322.529425 569.454545 
L 322.460757 574.690909 
L 323.345455 576.415512 
L 325.84772 579.927273 
L 328.418182 581.396243 
" style="fill:none;stroke:#808080;"/>
    <path clip-path="url(#p869b1c4381)" d="M 414.654545 528.935848 
L 416.434303 527.563636 
L 419.727273 525.165696 
L 422.302532 522.327273 
L 424.8 519.20915 
L 426.341516 517.090909 
L 426.468601 511.854545 
L 424.8 510.219115 
L 419.727273 509.899762 
L 416.338395 511.854545 
L 414.654545 513.340171 
L 412.829259 517.090909 
L 411.772819 522.327273 
L 413.131672 527.563636 
L 414.654545 528.935848 
" style="fill:none;stroke:#808080;"/>
   </g>
   <g id="LineCollection_9">
    <path clip-path="url(#p869b1c4381)" d="M 328.418182 580.096349 
L 333.490909 581.297336 
L 338.563636 580.516732 
L 339.791831 579.927273 
L 343.636364 577.644414 
L 346.493573 574.690909 
L 348.709091 570.883931 
L 349.431916 569.454545 
L 350.456495 564.218182 
L 350.014271 558.981818 
L 348.709091 555.090676 
L 347.830269 553.745455 
L 343.636364 550.346302 
L 338.563636 550.33013 
L 333.490909 553.345853 
L 333.13182 553.745455 
L 328.636005 558.981818 
L 328.418182 559.297837 
L 325.522202 564.218182 
L 324.005514 569.454545 
L 324.065214 574.690909 
L 328.122325 579.927273 
L 328.418182 580.096349 
" style="fill:none;stroke:#808080;"/>
   </g>
   <g id="LineCollection_10">
    <path clip-path="url(#p869b1c4381)" d="M 333.490909 580.191853 
L 335.183358 579.927273 
L 338.563636 579.317802 
L 343.636364 576.247257 
L 345.141968 574.690909 
L 348.23438 569.454545 
L 348.709091 567.258028 
L 349.316033 564.218182 
L 348.713767 558.981818 
L 348.709091 558.967878 
L 345.297325 553.745455 
L 343.636364 552.399248 
L 338.563636 552.247141 
L 336.089699 553.745455 
L 333.490909 555.323605 
L 330.308273 558.981818 
L 328.418182 561.723973 
L 326.950159 564.218182 
L 325.370642 569.454545 
L 325.630747 574.690909 
L 328.418182 578.208583 
L 332.396419 579.927273 
L 333.490909 580.191853 
" style="fill:none;stroke:#808080;"/>
   </g>
   <g id="LineCollection_11">
    <path clip-path="url(#p869b1c4381)" d="M 328.418182 576.232919 
L 333.490909 578.827522 
L 338.563636 578.042801 
L 343.636364 574.850099 
L 343.790363 574.690909 
L 346.999915 569.454545 
L 348.088489 564.218182 
L 347.018355 558.981818 
L 343.636364 554.516684 
L 338.563636 554.148835 
L 333.490909 557.245758 
L 331.980541 558.981818 
L 328.418182 564.150108 
L 328.378115 564.218182 
L 326.73577 569.454545 
L 327.19628 574.690909 
L 328.418182 576.232919 
" style="fill:none;stroke:#808080;"/>
   </g>
   <g id="LineCollection_12">
    <path clip-path="url(#p869b1c4381)" d="M 333.490909 577.381747 
L 338.563636 576.767801 
L 341.849184 574.690909 
L 343.636364 572.91375 
L 345.765449 569.454545 
L 346.76188 564.218182 
L 345.321518 558.981818 
L 343.636364 556.756963 
L 338.563636 555.995714 
L 333.777498 558.981818 
L 333.490909 559.196902 
L 329.943603 564.218182 
L 328.418182 568.44402 
L 328.100898 569.454545 
L 328.418182 572.147594 
L 328.953323 574.690909 
L 333.490909 577.381747 
" style="fill:none;stroke:#808080;"/>
   </g>
   <g id="LineCollection_13">
    <path clip-path="url(#p869b1c4381)" d="M 333.490909 575.935972 
L 338.563636 575.4928 
L 339.832191 574.690909 
L 343.636364 570.908067 
L 344.530983 569.454545 
L 345.43527 564.218182 
L 343.636364 559.00827 
L 343.580371 558.981818 
L 338.563636 557.842593 
L 336.737683 558.981818 
L 333.490909 561.4185 
L 331.513061 564.218182 
L 329.749466 569.454545 
L 331.391347 574.690909 
L 333.490909 575.935972 
" style="fill:none;stroke:#808080;"/>
   </g>
   <g id="LineCollection_14">
    <path clip-path="url(#p869b1c4381)" d="M 333.490909 574.130008 
L 338.563636 573.812439 
L 342.976409 569.454545 
L 343.636364 567.171122 
L 344.10866 564.218182 
L 343.636364 562.850338 
L 338.563636 559.946088 
L 333.490909 563.640099 
L 333.08252 564.218182 
L 331.483859 569.454545 
L 333.490909 574.130008 
" style="fill:none;stroke:#808080;"/>
   </g>
   <g id="LineCollection_15">
    <path clip-path="url(#p869b1c4381)" d="M 333.490909 570.089705 
L 338.563636 571.445017 
L 340.579174 569.454545 
L 341.201293 564.218182 
L 338.563636 562.462698 
L 336.101794 564.218182 
L 333.490909 568.536829 
L 333.218252 569.454545 
L 333.490909 570.089705 
" style="fill:none;stroke:#808080;"/>
   </g>
   <g id="PathCollection_1">
    <defs>
     <path d="M 0 2.236068 
C 0.593012 2.236068 1.161816 2.000462 1.581139 1.581139 
C 2.000462 1.161816 2.236068 0.593012 2.236068 0 
C 2.236068 -0.593012 2.000462 -1.161816 1.581139 -1.581139 
C 1.161816 -2.000462 0.593012 -2.236068 0 -2.236068 
C -0.593012 -2.236068 -1.161816 -2.000462 -1.581139 -1.581139 
C -2.000462 -1.161816 -2.236068 -0.593012 -2.236068 0 
C -2.236068 0.593012 -2.000462 1.161816 -1.581139 1.581139 
C -1.161816 2.000462 -0.593012 2.236068 0 2.236068 
z
" id="mcbfef20ead" style="stroke:#000000;"/>
    </defs>
    <g clip-path="url(#p869b1c4381)">
     <use style="stroke:#000000;" x="449.045383031" xlink:href="#mcbfef20ead" y="321.481199429"/>
    </g>
   </g>
   <g id="PathCollection_2">
    <g clip-path="url(#p869b1c4381)">
     <use style="stroke:#000000;" x="401.345462024" xlink:href="#mcbfef20ead" y="531.817184644"/>
    </g>
   </g>
   <g id="PathCollection_3">
    <g clip-path="url(#p869b1c4381)">
     <use style="stroke:#000000;" x="477.280223981" xlink:href="#mcbfef20ead" y="412.866254165"/>
    </g>
   </g>
   <g id="PathCollection_4">
    <g clip-path="url(#p869b1c4381)">
     <use style="stroke:#000000;" x="454.785794381" xlink:href="#mcbfef20ead" y="498.756370364"/>
    </g>
   </g>
   <g id="PathCollection_5">
    <g clip-path="url(#p869b1c4381)">
     <use style="stroke:#000000;" x="354.933036281" xlink:href="#mcbfef20ead" y="394.237762238"/>
    </g>
   </g>
   <g id="PathCollection_6">
    <g clip-path="url(#p869b1c4381)">
     <use style="stroke:#000000;" x="504.550471032" xlink:href="#mcbfef20ead" y="373.756548536"/>
    </g>
   </g>
   <g id="PathCollection_7">
    <g clip-path="url(#p869b1c4381)">
     <use style="stroke:#000000;" x="462.292697846" xlink:href="#mcbfef20ead" y="371.86013986"/>
    </g>
   </g>
   <g id="PathCollection_8">
    <g clip-path="url(#p869b1c4381)">
     <use style="stroke:#000000;" x="272.506051018" xlink:href="#mcbfef20ead" y="571.910203073"/>
    </g>
   </g>
   <g id="PathCollection_9">
    <g clip-path="url(#p869b1c4381)">
     <use style="stroke:#000000;" x="442.838957567" xlink:href="#mcbfef20ead" y="330.504027618"/>
    </g>
   </g>
   <g id="PathCollection_10">
    <g clip-path="url(#p869b1c4381)">
     <use style="stroke:#000000;" x="254.657264159" xlink:href="#mcbfef20ead" y="566.865134865"/>
    </g>
   </g>
   <g id="PathCollection_11">
    <g clip-path="url(#p869b1c4381)">
     <use style="stroke:#000000;" x="451.455034539" xlink:href="#mcbfef20ead" y="471.551917277"/>
    </g>
   </g>
   <g id="PathCollection_12">
    <g clip-path="url(#p869b1c4381)">
     <use style="stroke:#000000;" x="382.309186779" xlink:href="#mcbfef20ead" y="503.931221143"/>
    </g>
   </g>
   <g id="PathCollection_13">
    <g clip-path="url(#p869b1c4381)">
     <use style="stroke:#000000;" x="303.185889172" xlink:href="#mcbfef20ead" y="473.291418862"/>
    </g>
   </g>
   <g id="PathCollection_14">
    <g clip-path="url(#p869b1c4381)">
     <use style="stroke:#000000;" x="329.613174372" xlink:href="#mcbfef20ead" y="487.447032307"/>
    </g>
   </g>
   <g id="PathCollection_15">
    <g clip-path="url(#p869b1c4381)">
     <use style="stroke:#000000;" x="274.013996008" xlink:href="#mcbfef20ead" y="440.254653359"/>
    </g>
   </g>
   <g id="PathCollection_16">
    <g clip-path="url(#p869b1c4381)">
     <use style="stroke:#000000;" x="306.540018409" xlink:href="#mcbfef20ead" y="417.225336844"/>
    </g>
   </g>
   <g id="PathCollection_17">
    <g clip-path="url(#p869b1c4381)">
     <use style="stroke:#000000;" x="282.632292646" xlink:href="#mcbfef20ead" y="470.812439051"/>
    </g>
   </g>
   <g id="PathCollection_18">
    <g clip-path="url(#p869b1c4381)">
     <use style="stroke:#000000;" x="342.020747215" xlink:href="#mcbfef20ead" y="471.551917277"/>
    </g>
   </g>
   <g id="PathCollection_19">
    <g clip-path="url(#p869b1c4381)">
     <use style="stroke:#000000;" x="335.669336593" xlink:href="#mcbfef20ead" y="443.637419185"/>
    </g>
   </g>
   <g id="PathCollection_20">
    <g clip-path="url(#p869b1c4381)">
     <use style="stroke:#000000;" x="250.148845225" xlink:href="#mcbfef20ead" y="482.905176632"/>
    </g>
   </g>
   <g id="PathCollection_21">
    <g clip-path="url(#p869b1c4381)">
     <use style="stroke:#000000;" x="256.205007446" xlink:href="#mcbfef20ead" y="487.447032307"/>
    </g>
   </g>
   <g id="PathCollection_22">
    <g clip-path="url(#p869b1c4381)">
     <use style="stroke:#000000;" x="231.052767604" xlink:href="#mcbfef20ead" y="349.797695262"/>
    </g>
   </g>
   <g id="PathCollection_23">
    <g clip-path="url(#p869b1c4381)">
     <use style="stroke:#000000;" x="190.865685697" xlink:href="#mcbfef20ead" y="498.666666667"/>
    </g>
   </g>
   <g id="PathCollection_24">
    <g clip-path="url(#p869b1c4381)">
     <use style="stroke:#000000;" x="213.122372476" xlink:href="#mcbfef20ead" y="503.770334928"/>
    </g>
   </g>
   <g id="PathCollection_25">
    <g clip-path="url(#p869b1c4381)">
     <use style="stroke:#000000;" x="228.219755017" xlink:href="#mcbfef20ead" y="498.666666667"/>
    </g>
   </g>
   <g id="PathCollection_26">
    <g clip-path="url(#p869b1c4381)">
     <use style="stroke:#000000;" x="419.276817378" xlink:href="#mcbfef20ead" y="403.122994652"/>
    </g>
   </g>
   <g id="PathCollection_27">
    <g clip-path="url(#p869b1c4381)">
     <use style="stroke:#000000;" x="357.871426252" xlink:href="#mcbfef20ead" y="438.151742994"/>
    </g>
   </g>
   <g id="PathCollection_28">
    <g clip-path="url(#p869b1c4381)">
     <use style="stroke:#000000;" x="276.193565552" xlink:href="#mcbfef20ead" y="523.009960913"/>
    </g>
   </g>
   <g id="PathCollection_29">
    <g clip-path="url(#p869b1c4381)">
     <use style="stroke:#000000;" x="407.562902753" xlink:href="#mcbfef20ead" y="435.747397641"/>
    </g>
   </g>
   <g id="PathCollection_30">
    <g clip-path="url(#p869b1c4381)">
     <use style="stroke:#000000;" x="223.698869379" xlink:href="#mcbfef20ead" y="327.791676354"/>
    </g>
   </g>
   <g id="text_15">
    <text style="font-family:Arial;font-size:9.0px;font-style:normal;font-weight:400;text-anchor:start;" transform="rotate(-0.000000, 452.089019, 318.339381)" x="452.089019394" y="318.339381247">1E-22</text>
   </g>
   <g id="text_16">
    <text style="font-family:Arial;font-size:9.0px;font-style:normal;font-weight:400;text-anchor:start;" transform="rotate(-0.000000, 404.389098, 528.675366)" x="404.389098388" y="528.675366462">2E-03</text>
   </g>
   <g id="text_17">
    <text style="font-family:Arial;font-size:9.0px;font-style:normal;font-weight:400;text-anchor:start;" transform="rotate(-0.000000, 480.323860, 409.724436)" x="480.323860344" y="409.724435983">2E-04</text>
   </g>
   <g id="text_18">
    <text style="font-family:Arial;font-size:9.0px;font-style:normal;font-weight:400;text-anchor:start;" transform="rotate(-0.000000, 457.829431, 495.614552)" x="457.829430744" y="495.614552182">2E-03</text>
   </g>
   <g id="text_19">
    <text style="font-family:Arial;font-size:9.0px;font-style:normal;font-weight:400;text-anchor:start;" transform="rotate(-0.000000, 357.976673, 391.095944)" x="357.976672644" y="391.095944056">3E-15</text>
   </g>
   <g id="text_20">
    <text style="font-family:Arial;font-size:9.0px;font-style:normal;font-weight:400;text-anchor:start;" transform="rotate(-0.000000, 507.594107, 370.614730)" x="507.594107396" y="370.614730354">7E-05</text>
   </g>
   <g id="text_21">
    <text style="font-family:Arial;font-size:9.0px;font-style:normal;font-weight:400;text-anchor:start;" transform="rotate(-0.000000, 465.336334, 368.718322)" x="465.336334209" y="368.718321678">5E-07</text>
   </g>
   <g id="text_22">
    <text style="font-family:Arial;font-size:9.0px;font-style:normal;font-weight:400;text-anchor:start;" transform="rotate(-0.000000, 275.549687, 568.768385)" x="275.549687381" y="568.768384891">1E-04</text>
   </g>
   <g id="text_23">
    <text style="font-family:Arial;font-size:9.0px;font-style:normal;font-weight:400;text-anchor:start;" transform="rotate(-0.000000, 445.882594, 327.362209)" x="445.882593931" y="327.362209436">4E-20</text>
   </g>
   <g id="text_24">
    <text style="font-family:Arial;font-size:9.0px;font-style:normal;font-weight:400;text-anchor:start;" transform="rotate(-0.000000, 257.700901, 563.723317)" x="257.700900522" y="563.723316683">7E-05</text>
   </g>
   <g id="text_25">
    <text style="font-family:Arial;font-size:9.0px;font-style:normal;font-weight:400;text-anchor:start;" transform="rotate(-0.000000, 454.498671, 468.410099)" x="454.498670902" y="468.410099095">1E-03</text>
   </g>
   <g id="text_26">
    <text style="font-family:Arial;font-size:9.0px;font-style:normal;font-weight:400;text-anchor:start;" transform="rotate(-0.000000, 385.352823, 500.789403)" x="385.352823142" y="500.789402961">3E-04</text>
   </g>
   <g id="text_27">
    <text style="font-family:Arial;font-size:9.0px;font-style:normal;font-weight:400;text-anchor:start;" transform="rotate(-0.000000, 306.229526, 470.149601)" x="306.229525535" y="470.14960068">3E-06</text>
   </g>
   <g id="text_28">
    <text style="font-family:Arial;font-size:9.0px;font-style:normal;font-weight:400;text-anchor:start;" transform="rotate(-0.000000, 332.656811, 484.305214)" x="332.656810736" y="484.305214125">3E-05</text>
   </g>
   <g id="text_29">
    <text style="font-family:Arial;font-size:9.0px;font-style:normal;font-weight:400;text-anchor:start;" transform="rotate(-0.000000, 277.057632, 437.112835)" x="277.057632372" y="437.112835177">7E-17</text>
   </g>
   <g id="text_30">
    <text style="font-family:Arial;font-size:9.0px;font-style:normal;font-weight:400;text-anchor:start;" transform="rotate(-0.000000, 309.583655, 414.083519)" x="309.583654772" y="414.083518662">4E-20</text>
   </g>
   <g id="text_31">
    <text style="font-family:Arial;font-size:9.0px;font-style:normal;font-weight:400;text-anchor:start;" transform="rotate(-0.000000, 285.675929, 467.670621)" x="285.67592901" y="467.670620869">5E-06</text>
   </g>
   <g id="text_32">
    <text style="font-family:Arial;font-size:9.0px;font-style:normal;font-weight:400;text-anchor:start;" transform="rotate(-0.000000, 345.064384, 468.410099)" x="345.064383579" y="468.410099095">1E-05</text>
   </g>
   <g id="text_33">
    <text style="font-family:Arial;font-size:9.0px;font-style:normal;font-weight:400;text-anchor:start;" transform="rotate(-0.000000, 338.712973, 440.495601)" x="338.712972957" y="440.495601003">3E-06</text>
   </g>
   <g id="text_34">
    <text style="font-family:Arial;font-size:9.0px;font-style:normal;font-weight:400;text-anchor:start;" transform="rotate(-0.000000, 253.192482, 479.763358)" x="253.192481588" y="479.76335845">2E-07</text>
   </g>
   <g id="text_35">
    <text style="font-family:Arial;font-size:9.0px;font-style:normal;font-weight:400;text-anchor:start;" transform="rotate(-0.000000, 259.248644, 484.305214)" x="259.24864381" y="484.305214125">1E-06</text>
   </g>
   <g id="text_36">
    <text style="font-family:Arial;font-size:9.0px;font-style:normal;font-weight:400;text-anchor:start;" transform="rotate(-0.000000, 234.096404, 346.655877)" x="234.096403968" y="346.655877081">8E-151</text>
   </g>
   <g id="text_37">
    <text style="font-family:Arial;font-size:9.0px;font-style:normal;font-weight:400;text-anchor:start;" transform="rotate(-0.000000, 193.909322, 495.524848)" x="193.909322061" y="495.524848485">4E-32</text>
   </g>
   <g id="text_38">
    <text style="font-family:Arial;font-size:9.0px;font-style:normal;font-weight:400;text-anchor:start;" transform="rotate(-0.000000, 216.166009, 500.628517)" x="216.16600884" y="500.628516746">1E-17</text>
   </g>
   <g id="text_39">
    <text style="font-family:Arial;font-size:9.0px;font-style:normal;font-weight:400;text-anchor:start;" transform="rotate(-0.000000, 231.263391, 495.524848)" x="231.263391381" y="495.524848485">7E-12</text>
   </g>
   <g id="text_40">
    <text style="font-family:Arial;font-size:9.0px;font-style:normal;font-weight:400;text-anchor:start;" transform="rotate(-0.000000, 422.320454, 399.981176)" x="422.320453742" y="399.981176471">2E-05</text>
   </g>
   <g id="text_41">
    <text style="font-family:Arial;font-size:9.0px;font-style:normal;font-weight:400;text-anchor:start;" transform="rotate(-0.000000, 360.915063, 435.009925)" x="360.915062616" y="435.009924812">4E-06</text>
   </g>
   <g id="text_42">
    <text style="font-family:Arial;font-size:9.0px;font-style:normal;font-weight:400;text-anchor:start;" transform="rotate(-0.000000, 279.237202, 519.868143)" x="279.237201916" y="519.868142731">3E-05</text>
   </g>
   <g id="text_43">
    <text style="font-family:Arial;font-size:9.0px;font-style:normal;font-weight:400;text-anchor:start;" transform="rotate(-0.000000, 410.606539, 432.605579)" x="410.606539116" y="432.605579459">1E-05</text>
   </g>
   <g id="text_44">
    <text style="font-family:Arial;font-size:9.0px;font-style:normal;font-weight:400;text-anchor:start;" transform="rotate(-0.000000, 226.742506, 324.649858)" x="226.742505743" y="324.649858173">3E-205</text>
   </g>
  </g>
 </g>
 <defs>
  <clipPath id="p869b1c4381">
   <rect height="576.0" width="558.0" x="90.0" y="72.0"/>
  </clipPath>
 </defs>
</svg>
