<?xml version="1.0" encoding="utf-8" standalone="no"?>
<!DOCTYPE svg PUBLIC "-//W3C//DTD SVG 1.1//EN"
  "http://www.w3.org/Graphics/SVG/1.1/DTD/svg11.dtd">
<!-- Created with matplotlib (http://matplotlib.org/) -->
<svg height="720pt" version="1.1" viewBox="0 0 720 720" width="720pt" xmlns="http://www.w3.org/2000/svg" xmlns:xlink="http://www.w3.org/1999/xlink">
 <defs>
  <style type="text/css">
*{stroke-linecap:butt;stroke-linejoin:round;stroke-miterlimit:100000;}
  </style>
 </defs>
 <g id="figure_1">
  <g id="patch_1">
   <path d="M 0 720 
L 720 720 
L 720 0 
L 0 0 
z
" style="fill:#ffffff;"/>
  </g>
  <g id="axes_1">
   <g id="patch_2">
    <path d="M 90 648 
L 648 648 
L 648 72 
L 90 72 
z
" style="fill:#ffffff;"/>
   </g>
   <g id="patch_3">
    <path d="M 90 72 
L 648 72 
" style="fill:none;"/>
   </g>
   <g id="patch_4">
    <path d="M 648 648 
L 648 72 
" style="fill:none;"/>
   </g>
   <g id="patch_5">
    <path d="M 90 658 
L 648 658 
" style="fill:none;stroke:#000000;stroke-linecap:square;stroke-linejoin:miter;stroke-width:0.75;"/>
   </g>
   <g id="patch_6">
    <path d="M 80 648 
L 80 72 
" style="fill:none;stroke:#000000;stroke-linecap:square;stroke-linejoin:miter;stroke-width:0.75;"/>
   </g>
   <g id="matplotlib.axis_1">
    <g id="xtick_1">
     <g id="line2d_1">
      <defs>
       <path d="M 0 0 
L 0 -4 
" id="mc607b3c899" style="stroke:#000000;stroke-width:0.75;"/>
      </defs>
      <g>
       <use style="stroke:#000000;stroke-width:0.75;" x="90.0" xlink:href="#mc607b3c899" y="658.0"/>
      </g>
     </g>
     <g id="text_1">
      <text style="font-family:Arial;font-size:9.0px;font-style:normal;font-weight:400;text-anchor:middle;" transform="rotate(-0.000000, 90.000000, 668.442031)" x="90.0" y="668.44203125">−2</text>
     </g>
    </g>
    <g id="xtick_2">
     <g id="line2d_2">
      <g>
       <use style="stroke:#000000;stroke-width:0.75;" x="191.454545455" xlink:href="#mc607b3c899" y="658.0"/>
      </g>
     </g>
     <g id="text_2">
      <text style="font-family:Arial;font-size:9.0px;font-style:normal;font-weight:400;text-anchor:middle;" transform="rotate(-0.000000, 191.454545, 668.442031)" x="191.454545455" y="668.44203125">−1</text>
     </g>
    </g>
    <g id="xtick_3">
     <g id="line2d_3">
      <g>
       <use style="stroke:#000000;stroke-width:0.75;" x="292.909090909" xlink:href="#mc607b3c899" y="658.0"/>
      </g>
     </g>
     <g id="text_3">
      <text style="font-family:Arial;font-size:9.0px;font-style:normal;font-weight:400;text-anchor:middle;" transform="rotate(-0.000000, 292.909091, 668.442031)" x="292.909090909" y="668.44203125">0</text>
     </g>
    </g>
    <g id="xtick_4">
     <g id="line2d_4">
      <g>
       <use style="stroke:#000000;stroke-width:0.75;" x="394.363636364" xlink:href="#mc607b3c899" y="658.0"/>
      </g>
     </g>
     <g id="text_4">
      <text style="font-family:Arial;font-size:9.0px;font-style:normal;font-weight:400;text-anchor:middle;" transform="rotate(-0.000000, 394.363636, 668.442031)" x="394.363636364" y="668.44203125">1</text>
     </g>
    </g>
    <g id="xtick_5">
     <g id="line2d_5">
      <g>
       <use style="stroke:#000000;stroke-width:0.75;" x="495.818181818" xlink:href="#mc607b3c899" y="658.0"/>
      </g>
     </g>
     <g id="text_5">
      <text style="font-family:Arial;font-size:9.0px;font-style:normal;font-weight:400;text-anchor:middle;" transform="rotate(-0.000000, 495.818182, 668.442031)" x="495.818181818" y="668.44203125">2</text>
     </g>
    </g>
    <g id="xtick_6">
     <g id="line2d_6">
      <g>
       <use style="stroke:#000000;stroke-width:0.75;" x="597.272727273" xlink:href="#mc607b3c899" y="658.0"/>
      </g>
     </g>
     <g id="text_6">
      <text style="font-family:Arial;font-size:9.0px;font-style:normal;font-weight:400;text-anchor:middle;" transform="rotate(-0.000000, 597.272727, 668.442031)" x="597.272727273" y="668.44203125">3</text>
     </g>
    </g>
    <g id="text_7">
     <text style="font-family:Arial;font-size:9.0px;font-style:normal;font-weight:400;text-anchor:middle;" transform="rotate(-0.000000, 369.000000, 681.782500)" x="369.0" y="681.7825">windspeed along trajectory, m/s</text>
    </g>
   </g>
   <g id="matplotlib.axis_2">
    <g id="ytick_1">
     <g id="line2d_7">
      <defs>
       <path d="M 0 0 
L 4 0 
" id="m177565c3ba" style="stroke:#000000;stroke-width:0.75;"/>
      </defs>
      <g>
       <use style="stroke:#000000;stroke-width:0.75;" x="80.0" xlink:href="#m177565c3ba" y="595.636363636"/>
      </g>
     </g>
     <g id="text_8">
      <text style="font-family:Arial;font-size:9.0px;font-style:normal;font-weight:400;text-anchor:end;" transform="rotate(-0.000000, 76.000000, 597.963004)" x="76.0" y="597.963004261">0</text>
     </g>
    </g>
    <g id="ytick_2">
     <g id="line2d_8">
      <g>
       <use style="stroke:#000000;stroke-width:0.75;" x="80.0" xlink:href="#m177565c3ba" y="490.909090909"/>
      </g>
     </g>
     <g id="text_9">
      <text style="font-family:Arial;font-size:9.0px;font-style:normal;font-weight:400;text-anchor:end;" transform="rotate(-0.000000, 76.000000, 493.235732)" x="76.0" y="493.235731534">1</text>
     </g>
    </g>
    <g id="ytick_3">
     <g id="line2d_9">
      <g>
       <use style="stroke:#000000;stroke-width:0.75;" x="80.0" xlink:href="#m177565c3ba" y="386.181818182"/>
      </g>
     </g>
     <g id="text_10">
      <text style="font-family:Arial;font-size:9.0px;font-style:normal;font-weight:400;text-anchor:end;" transform="rotate(-0.000000, 76.000000, 388.508459)" x="76.0" y="388.508458807">2</text>
     </g>
    </g>
    <g id="ytick_4">
     <g id="line2d_10">
      <g>
       <use style="stroke:#000000;stroke-width:0.75;" x="80.0" xlink:href="#m177565c3ba" y="281.454545455"/>
      </g>
     </g>
     <g id="text_11">
      <text style="font-family:Arial;font-size:9.0px;font-style:normal;font-weight:400;text-anchor:end;" transform="rotate(-0.000000, 76.000000, 283.781186)" x="76.0" y="283.78118608">3</text>
     </g>
    </g>
    <g id="ytick_5">
     <g id="line2d_11">
      <g>
       <use style="stroke:#000000;stroke-width:0.75;" x="80.0" xlink:href="#m177565c3ba" y="176.727272727"/>
      </g>
     </g>
     <g id="text_12">
      <text style="font-family:Arial;font-size:9.0px;font-style:normal;font-weight:400;text-anchor:end;" transform="rotate(-0.000000, 76.000000, 179.053913)" x="76.0" y="179.053913352">4</text>
     </g>
    </g>
    <g id="ytick_6">
     <g id="line2d_12">
      <g>
       <use style="stroke:#000000;stroke-width:0.75;" x="80.0" xlink:href="#m177565c3ba" y="72.0"/>
      </g>
     </g>
     <g id="text_13">
      <text style="font-family:Arial;font-size:9.0px;font-style:normal;font-weight:400;text-anchor:end;" transform="rotate(-0.000000, 76.000000, 74.326641)" x="76.0" y="74.326640625">5</text>
     </g>
    </g>
    <g id="text_14">
     <text style="font-family:Arial;font-size:9.0px;font-style:normal;font-weight:400;text-anchor:middle;" transform="rotate(-90.000000, 64.100937, 360.000000)" x="64.1009375" y="360.0">groundspeed along trajectory, m/s</text>
    </g>
   </g>
   <g id="LineCollection_1">
    <path clip-path="url(#p655c05ccca)" d="M 328.418182 590.614415 
L 333.490909 591.270674 
L 336.837602 590.4 
L 338.563636 590.239108 
L 343.636364 589.084115 
L 348.709091 586.76544 
L 351.084027 585.163636 
L 353.781818 583.916265 
L 358.854545 579.659515 
L 363.927273 574.421317 
L 367.823457 569.454545 
L 369 566.375526 
L 372.025406 564.218182 
L 374.072727 562.938456 
L 379.145455 564.453304 
L 384.218182 564.406574 
L 385.13243 564.218182 
L 389.290909 563.669077 
L 394.363636 562.581345 
L 399.436364 560.326342 
L 401.323621 558.981818 
L 404.509091 557.257514 
L 409.581818 552.768384 
L 414.654545 548.097748 
L 422.070607 543.272727 
L 424.8 542.047302 
L 429.872727 539.271052 
L 431.315096 538.036364 
L 434.945455 534.486723 
L 440.040661 527.563636 
L 450.163636 516.337724 
L 455.721702 511.854545 
L 460.309091 509.55092 
L 465.381818 505.963551 
L 470.454545 501.299341 
L 475.527273 495.551818 
L 478.68003 490.909091 
L 480.6 487.000369 
L 481.388748 485.672727 
L 484.150005 480.436364 
L 485.777461 475.2 
L 488.611684 469.963636 
L 490.745455 463.921927 
L 493.55438 459.490909 
L 496.159631 454.254545 
L 499.256018 449.018182 
L 500.890909 444.659414 
L 501.450752 443.781818 
L 504.334878 438.545455 
L 505.963636 434.173455 
L 509.789175 428.072727 
L 511.036364 425.919416 
L 513.62005 422.836364 
L 517.435717 417.6 
L 523.698495 407.127273 
L 525.636233 401.890909 
L 526.254545 398.292672 
L 526.729983 396.654545 
L 526.091375 391.418182 
L 521.996513 386.181818 
L 521.181818 385.533122 
L 517.931114 386.181818 
L 516.109091 386.422792 
L 510.581295 391.418182 
L 497.926934 407.127273 
L 495.818182 409.51997 
L 492.722046 412.363636 
L 490.745455 413.916509 
L 487.133909 417.6 
L 485.672727 419.486017 
L 483.222194 422.836364 
L 480.6 428.278834 
L 477.061817 433.309091 
L 475.527273 436.23758 
L 473.698527 438.545455 
L 470.454545 444.344086 
L 467.12296 449.018182 
L 465.381818 452.122454 
L 463.509161 454.254545 
L 459.092973 459.490909 
L 454.567922 464.727273 
L 450.163636 470.302286 
L 440.018182 480.517556 
L 434.945455 483.618568 
L 431.146608 485.672727 
L 429.872727 486.137723 
L 424.8 489.249488 
L 422.967472 490.909091 
L 419.727273 493.621559 
L 409.581818 502.792107 
L 403.033837 506.618182 
L 399.436364 507.856096 
L 394.363636 510.904229 
L 393.317123 511.854545 
L 389.290909 515.150545 
L 387.538561 517.090909 
L 382.880022 522.327273 
L 378.298733 527.563636 
L 374.072727 533.589148 
L 371.25627 538.036364 
L 369 542.842575 
L 363.927273 541.763585 
L 358.854545 538.715597 
L 355.096249 538.036364 
L 353.781818 537.640644 
L 348.709091 537.372358 
L 345.782688 538.036364 
L 343.636364 538.328361 
L 338.563636 540.123947 
L 333.373992 543.272727 
L 328.418182 546.912356 
L 327.095767 548.509091 
L 319.088394 558.981818 
L 318.272727 560.654831 
L 315.981353 564.218182 
L 313.959793 569.454545 
L 313.2 575.083262 
L 313.481934 579.927273 
L 315.971867 585.163636 
L 318.272727 587.210555 
L 323.345455 589.548132 
L 328.418182 590.614415 
L 328.418182 590.614415 
" style="fill:none;stroke:#808080;"/>
   </g>
   <g id="LineCollection_2">
    <path clip-path="url(#p655c05ccca)" d="M 323.345455 586.099422 
L 328.418182 588.351792 
L 333.490909 588.995007 
L 338.563636 588.338512 
L 343.636364 586.227242 
L 345.426482 585.163636 
L 348.709091 583.88627 
L 353.781818 580.455576 
L 354.40951 579.927273 
L 358.854545 576.356224 
L 360.492671 574.690909 
L 363.927273 569.692344 
L 364.113813 569.454545 
L 367.139128 564.218182 
L 368.255088 558.981818 
L 368.0773 553.745455 
L 363.927273 548.715361 
L 363.693906 548.509091 
L 358.854545 544.866318 
L 353.781818 543.775352 
L 348.709091 543.796725 
L 343.636364 544.67234 
L 338.563636 546.431718 
L 335.082821 548.509091 
L 333.490909 549.213074 
L 328.558953 553.745455 
L 328.418182 553.870576 
L 324.146338 558.981818 
L 323.345455 560.407296 
L 320.698293 564.218182 
L 318.595617 569.454545 
L 318.272727 571.154907 
L 317.113094 574.690909 
L 317.725278 579.927273 
L 318.272727 580.768518 
L 321.889477 585.163636 
L 323.345455 586.099422 
" style="fill:none;stroke:#808080;"/>
    <path clip-path="url(#p655c05ccca)" d="M 384.218182 559.224724 
L 385.277286 558.981818 
L 389.290909 558.350345 
L 394.363636 557.418283 
L 399.436364 555.64481 
L 402.075997 553.745455 
L 404.509091 552.253475 
L 408.388832 548.509091 
L 409.581818 547.303201 
L 413.937449 543.272727 
L 414.654545 542.670987 
L 419.727273 539.512498 
L 422.04605 538.036364 
L 424.8 536.533596 
L 429.695609 532.8 
L 429.872727 532.673119 
L 434.945455 527.590003 
L 434.967351 527.563636 
L 439.610391 522.327273 
L 440.018182 521.764783 
L 443.74297 517.090909 
L 445.090909 514.653718 
L 447.576051 511.854545 
L 450.163636 508.911456 
L 453.088163 506.618182 
L 455.236364 505.205432 
L 460.309091 502.243152 
L 461.401648 501.381818 
L 465.381818 498.885438 
L 468.32079 496.145455 
L 470.454545 494.099644 
L 473.189844 490.909091 
L 475.527273 487.75154 
L 476.969753 485.672727 
L 480.000118 480.436364 
L 480.6 479.155422 
L 482.793675 475.2 
L 484.676321 469.963636 
L 485.672727 466.610879 
L 486.650023 464.727273 
L 489.268541 459.490909 
L 490.745455 456.638906 
L 492.320411 454.254545 
L 495.173833 449.018182 
L 495.818182 447.805891 
L 498.197317 443.781818 
L 500.345913 438.545455 
L 500.890909 437.234807 
L 503.14619 433.309091 
L 505.382785 428.072727 
L 505.963636 426.564321 
L 508.321172 422.836364 
L 511.036364 419.295639 
L 512.418595 417.6 
L 516.02514 412.363636 
L 516.109091 412.233697 
L 519.331268 407.127273 
L 521.181818 403.942006 
L 522.221114 401.890909 
L 523.147436 396.654545 
L 521.223001 391.418182 
L 521.181818 391.370321 
L 520.220029 391.418182 
L 516.109091 391.602655 
L 511.142155 396.654545 
L 511.036364 396.770443 
L 506.931364 401.890909 
L 505.963636 402.973019 
L 502.786056 407.127273 
L 500.890909 409.876444 
L 498.660208 412.363636 
L 495.818182 414.643828 
L 492.399223 417.6 
L 490.745455 418.90629 
L 487.354754 422.836364 
L 485.672727 425.238598 
L 483.732144 428.072727 
L 481.015189 433.309091 
L 480.6 434.141149 
L 477.644114 438.545455 
L 475.527273 442.618867 
L 474.708244 443.781818 
L 471.535387 449.018182 
L 470.454545 451.013573 
L 468.167527 454.254545 
L 465.381818 458.723553 
L 464.705025 459.490909 
L 460.309091 464.30777 
L 459.927243 464.727273 
L 455.50381 469.963636 
L 455.236364 470.306819 
L 451.028374 475.2 
L 450.163636 476.341582 
L 446.261991 480.436364 
L 445.090909 481.804039 
L 441.178377 485.672727 
L 440.018182 486.648995 
L 434.945455 489.338323 
L 432.084736 490.909091 
L 429.872727 491.797907 
L 424.8 495.59612 
L 424.204505 496.145455 
L 419.727273 500.116481 
L 418.430469 501.381818 
L 414.654545 504.873526 
L 412.744781 506.618182 
L 409.581818 509.074626 
L 405.31107 511.854545 
L 404.509091 512.264228 
L 399.436364 514.088558 
L 394.778034 517.090909 
L 394.363636 517.285245 
L 389.290909 521.828478 
L 388.835161 522.327273 
L 384.701005 527.563636 
L 384.218182 528.373824 
L 380.560415 532.8 
L 379.145455 534.863656 
L 376.869454 538.036364 
L 374.273155 543.272727 
L 374.072727 544.114488 
L 372.212846 548.509091 
L 372.703921 553.745455 
L 374.072727 554.529446 
L 379.145455 558.80702 
L 381.393677 558.981818 
L 384.218182 559.224724 
" style="fill:none;stroke:#808080;"/>
   </g>
   <g id="LineCollection_3">
    <path clip-path="url(#p655c05ccca)" d="M 328.418182 586.228077 
L 333.490909 587.314115 
L 338.563636 586.437917 
L 341.183546 585.163636 
L 343.636364 584.419215 
L 348.709091 582.015205 
L 351.592419 579.927273 
L 353.781818 578.53443 
L 357.967002 574.690909 
L 358.854545 573.661748 
L 362.308874 569.454545 
L 363.927273 565.605908 
L 364.746586 564.218182 
L 365.947504 558.981818 
L 364.458073 553.745455 
L 363.927273 553.102091 
L 358.854545 548.566009 
L 358.646608 548.509091 
L 353.781818 546.766103 
L 348.709091 546.845292 
L 343.636364 548.312198 
L 343.181786 548.509091 
L 338.563636 549.759646 
L 333.490909 552.630312 
L 332.277455 553.745455 
L 328.418182 557.175664 
L 326.908645 558.981818 
L 323.693365 564.218182 
L 323.345455 565.117181 
L 320.873694 569.454545 
L 319.685145 574.690909 
L 320.532551 579.927273 
L 323.345455 583.058891 
L 326.350866 585.163636 
L 328.418182 586.228077 
" style="fill:none;stroke:#808080;"/>
    <path clip-path="url(#p655c05ccca)" d="M 379.145455 554.195251 
L 384.218182 555.447625 
L 389.290909 554.851017 
L 394.363636 553.986282 
L 394.963031 553.745455 
L 399.436364 552.58307 
L 404.509091 548.855168 
L 404.867679 548.509091 
L 409.581818 543.743962 
L 410.09107 543.272727 
L 414.654545 539.44336 
L 416.653968 538.036364 
L 419.727273 536.195766 
L 424.693865 532.8 
L 424.8 532.732975 
L 429.872727 529.070925 
L 431.373752 527.563636 
L 434.945455 524.381977 
L 436.771115 522.327273 
L 440.018182 517.848408 
L 440.621862 517.090909 
L 443.969199 511.854545 
L 445.090909 509.570868 
L 447.737028 506.618182 
L 450.163636 504.128054 
L 454.055614 501.381818 
L 455.236364 500.701944 
L 460.309091 498.361184 
L 463.310419 496.145455 
L 465.381818 494.828285 
L 469.350256 490.909091 
L 470.454545 489.693833 
L 473.754256 485.672727 
L 475.527273 483.373979 
L 477.539426 480.436364 
L 480.143 475.2 
L 480.6 474.062549 
L 482.520516 469.963636 
L 484.238177 464.727273 
L 485.672727 460.827959 
L 486.400736 459.490909 
L 489.278496 454.254545 
L 490.745455 451.899824 
L 492.564103 449.018182 
L 495.42239 443.781818 
L 495.818182 443.022723 
L 498.152483 438.545455 
L 500.335914 433.309091 
L 500.890909 431.954347 
L 502.790606 428.072727 
L 504.363749 422.836364 
L 505.963636 419.340014 
L 507.192559 417.6 
L 511.036364 413.726298 
L 512.015916 412.363636 
L 514.752534 407.127273 
L 516.109091 405.258492 
L 517.704424 401.890909 
L 516.109091 396.810972 
L 511.929882 401.890909 
L 511.036364 402.536552 
L 507.202195 407.127273 
L 505.963636 408.471012 
L 503.658229 412.363636 
L 500.890909 415.435522 
L 497.810857 417.6 
L 495.818182 418.412442 
L 490.745455 422.499584 
L 490.454896 422.836364 
L 486.534182 428.072727 
L 485.672727 429.328455 
L 483.190754 433.309091 
L 480.6 438.501084 
L 480.570222 438.545455 
L 477.519452 443.781818 
L 475.527273 447.091281 
L 474.265843 449.018182 
L 471.264199 454.254545 
L 470.454545 455.572517 
L 467.660198 459.490909 
L 465.381818 462.553562 
L 463.355988 464.727273 
L 460.309091 467.802948 
L 458.417741 469.963636 
L 455.236364 474.045936 
L 454.243903 475.2 
L 450.250548 480.436364 
L 450.163636 480.575054 
L 445.710725 485.672727 
L 445.090909 486.390456 
L 440.018182 490.668936 
L 439.599241 490.909091 
L 434.945455 492.77493 
L 429.872727 495.215191 
L 428.695724 496.145455 
L 424.8 498.963857 
L 422.246913 501.381818 
L 419.727273 503.686985 
L 416.69921 506.618182 
L 414.654545 508.436773 
L 410.713286 511.854545 
L 409.581818 512.79432 
L 404.509091 515.638304 
L 401.46182 517.090909 
L 399.436364 517.725399 
L 394.363636 520.345543 
L 392.258662 522.327273 
L 389.290909 525.604218 
L 387.670071 527.563636 
L 384.442089 532.8 
L 384.218182 533.250978 
L 380.590383 538.036364 
L 379.145455 540.581553 
L 377.524197 543.272727 
L 376.392613 548.509091 
L 378.652335 553.745455 
L 379.145455 554.195251 
" style="fill:none;stroke:#808080;"/>
   </g>
   <g id="LineCollection_4">
    <path clip-path="url(#p655c05ccca)" d="M 333.490909 585.633224 
L 335.818298 585.163636 
L 338.563636 584.861263 
L 343.636364 583.23327 
L 348.709091 580.144141 
L 349.008574 579.927273 
L 353.781818 576.890651 
L 356.177103 574.690909 
L 358.854545 571.58625 
L 360.604784 569.454545 
L 363.075424 564.218182 
L 363.744621 558.981818 
L 361.885564 553.745455 
L 358.854545 550.8509 
L 353.781818 549.207034 
L 348.709091 549.234969 
L 343.636364 550.2207 
L 338.563636 552.035255 
L 335.888703 553.745455 
L 333.490909 554.933672 
L 329.255172 558.981818 
L 328.418182 559.928839 
L 325.240383 564.218182 
L 323.345455 569.114675 
L 323.151771 569.454545 
L 321.68787 574.690909 
L 323.127107 579.927273 
L 323.345455 580.17036 
L 328.418182 584.445762 
L 331.669725 585.163636 
L 333.490909 585.633224 
" style="fill:none;stroke:#808080;"/>
    <path clip-path="url(#p655c05ccca)" d="M 384.218182 551.558233 
L 389.290909 551.945841 
L 394.363636 551.820732 
L 399.436364 550.363485 
L 401.881006 548.509091 
L 404.509091 546.613522 
L 407.785845 543.272727 
L 409.581818 541.202872 
L 413.141656 538.036364 
L 414.654545 536.696143 
L 419.727273 533.448834 
L 420.676247 532.8 
L 424.8 530.195832 
L 428.050577 527.563636 
L 429.872727 526.255944 
L 434.084807 522.327273 
L 434.945455 521.521893 
L 438.541449 517.090909 
L 440.018182 514.420729 
L 441.743484 511.854545 
L 444.2905 506.618182 
L 445.090909 504.837502 
L 448.462972 501.381818 
L 450.163636 499.82349 
L 455.236364 497.301461 
L 457.664773 496.145455 
L 460.309091 495.181734 
L 465.381818 491.798069 
L 466.281966 490.909091 
L 470.454545 486.317215 
L 470.983411 485.672727 
L 475.109211 480.436364 
L 475.527273 479.867927 
L 478.294396 475.2 
L 480.39651 469.963636 
L 480.6 469.384431 
L 482.300471 464.727273 
L 484.048831 459.490909 
L 485.672727 456.081102 
L 486.702381 454.254545 
L 489.797411 449.018182 
L 490.745455 447.912244 
L 493.228821 443.781818 
L 495.818182 438.815648 
L 495.959052 438.545455 
L 498.166085 433.309091 
L 500.040345 428.072727 
L 500.475818 422.836364 
L 495.818182 421.682663 
L 494.396805 422.836364 
L 490.745455 425.68552 
L 488.927853 428.072727 
L 485.672727 432.817668 
L 485.36632 433.309091 
L 482.692184 438.545455 
L 480.6 442.805158 
L 480.030197 443.781818 
L 477.069385 449.018182 
L 475.527273 451.004929 
L 473.531788 454.254545 
L 470.454545 459.26375 
L 470.29255 459.490909 
L 466.331131 464.727273 
L 465.381818 465.752279 
L 461.228793 469.963636 
L 460.309091 470.89843 
L 456.757071 475.2 
L 455.236364 477.303491 
L 452.707001 480.436364 
L 450.163636 484.494974 
L 449.134847 485.672727 
L 445.090909 490.35549 
L 444.435042 490.909091 
L 440.018182 494.088399 
L 434.945455 495.5865 
L 433.857063 496.145455 
L 429.872727 497.708014 
L 425.394132 501.381818 
L 424.8 501.874172 
L 419.795781 506.618182 
L 419.727273 506.681949 
L 414.654545 511.213165 
L 413.914928 511.854545 
L 409.581818 515.45354 
L 406.946474 517.090909 
L 404.509091 518.302961 
L 399.436364 519.942676 
L 395.615702 522.327273 
L 394.363636 523.028272 
L 390.133343 527.563636 
L 389.290909 528.834686 
L 386.448522 532.8 
L 384.218182 537.292197 
L 383.65403 538.036364 
L 380.771555 543.272727 
L 380.188392 548.509091 
L 384.218182 551.558233 
" style="fill:none;stroke:#808080;"/>
   </g>
   <g id="LineCollection_5">
    <path clip-path="url(#p655c05ccca)" d="M 328.418182 583.00651 
L 333.490909 584.47231 
L 338.563636 583.943692 
L 343.636364 582.047324 
L 347.030497 579.927273 
L 348.709091 579.007225 
L 353.781818 575.246873 
L 354.387203 574.690909 
L 358.854545 569.510752 
L 358.900694 569.454545 
L 361.779947 564.218182 
L 362.27784 558.981818 
L 359.492952 553.745455 
L 358.854545 553.135791 
L 353.781818 550.879926 
L 348.709091 550.832991 
L 343.636364 552.03019 
L 339.617134 553.745455 
L 338.563636 554.051667 
L 333.490909 556.697466 
L 331.1007 558.981818 
L 328.418182 562.01698 
L 326.787402 564.218182 
L 324.346923 569.454545 
L 323.533061 574.690909 
L 324.866027 579.927273 
L 328.418182 583.00651 
" style="fill:none;stroke:#808080;"/>
    <path clip-path="url(#p655c05ccca)" d="M 389.290909 549.315076 
L 394.363636 549.750757 
L 398.344467 548.509091 
L 399.436364 548.253435 
L 404.509091 544.503023 
L 405.715803 543.272727 
L 409.581818 538.817153 
L 410.459594 538.036364 
L 414.654545 534.32019 
L 416.966887 532.8 
L 419.727273 531.101756 
L 424.8 527.658689 
L 424.917384 527.563636 
L 429.872727 524.007362 
L 431.674016 522.327273 
L 434.945455 519.265915 
L 436.710594 517.090909 
L 439.665335 511.854545 
L 440.018182 510.768848 
L 441.992992 506.618182 
L 443.567609 501.381818 
L 440.018182 497.934356 
L 434.945455 497.903402 
L 429.872727 499.855046 
L 428.011497 501.381818 
L 424.8 504.043168 
L 422.083746 506.618182 
L 419.727273 508.811577 
L 416.429392 511.854545 
L 414.654545 513.585834 
L 410.586023 517.090909 
L 409.581818 518.007678 
L 404.509091 520.431307 
L 399.436364 522.159953 
L 399.168279 522.327273 
L 394.363636 525.017268 
L 391.988549 527.563636 
L 389.290909 531.63379 
L 388.454955 532.8 
L 385.7268 538.036364 
L 384.218182 542.899784 
L 384.015248 543.272727 
L 384.218182 544.336557 
L 386.474192 548.509091 
L 389.290909 549.315076 
" style="fill:none;stroke:#808080;"/>
    <path clip-path="url(#p655c05ccca)" d="M 450.163636 492.619657 
L 455.236364 493.7734 
L 460.309091 492.57834 
L 462.722294 490.909091 
L 465.381818 489.031139 
L 468.474393 485.672727 
L 470.454545 483.368357 
L 472.815717 480.436364 
L 475.527273 476.749474 
L 476.445793 475.2 
L 478.53206 469.963636 
L 480.267548 464.727273 
L 480.6 463.820609 
L 481.872447 459.490909 
L 483.471889 454.254545 
L 485.672727 450.83456 
L 486.669872 449.018182 
L 490.745455 444.263819 
L 491.035251 443.781818 
L 493.491152 438.545455 
L 495.818182 433.731296 
L 495.996256 433.309091 
L 496.856412 428.072727 
L 495.818182 426.318381 
L 492.899535 428.072727 
L 490.745455 429.134269 
L 488.086434 433.309091 
L 485.672727 436.853547 
L 484.805879 438.545455 
L 483.118651 443.781818 
L 480.6 447.810386 
L 479.935684 449.018182 
L 476.201119 454.254545 
L 475.527273 454.784099 
L 472.828851 459.490909 
L 470.454545 462.536074 
L 468.792453 464.727273 
L 465.381818 468.409856 
L 463.849559 469.963636 
L 460.309091 473.562201 
L 458.956679 475.2 
L 455.236364 480.346057 
L 455.163454 480.436364 
L 452.098698 485.672727 
L 450.163636 490.284705 
L 449.660621 490.909091 
L 450.163636 492.619657 
" style="fill:none;stroke:#808080;"/>
   </g>
   <g id="LineCollection_6">
    <path clip-path="url(#p655c05ccca)" d="M 328.418182 581.567259 
L 333.490909 583.512976 
L 338.563636 583.026121 
L 343.636364 580.861379 
L 345.131837 579.927273 
L 348.709091 577.966558 
L 352.900578 574.690909 
L 353.781818 573.865804 
L 357.760469 569.454545 
L 358.854545 567.1711 
L 360.484469 564.218182 
L 360.811059 558.981818 
L 358.854545 555.602769 
L 356.282652 553.745455 
L 353.781818 552.552818 
L 348.709091 552.431012 
L 343.938385 553.745455 
L 343.636364 553.80145 
L 338.563636 555.284082 
L 333.490909 558.46126 
L 332.946228 558.981818 
L 328.418182 564.105122 
L 328.33442 564.218182 
L 325.44145 569.454545 
L 324.621673 574.690909 
L 326.526322 579.927273 
L 328.418182 581.567259 
" style="fill:none;stroke:#808080;"/>
    <path clip-path="url(#p655c05ccca)" d="M 389.290909 546.214584 
L 394.363636 547.809553 
L 399.436364 546.699587 
L 403.702358 543.272727 
L 404.509091 542.507176 
L 408.483953 538.036364 
L 409.581818 536.326691 
L 413.609224 532.8 
L 414.654545 531.821106 
L 419.727273 528.878332 
L 421.657646 527.563636 
L 424.8 525.545592 
L 429.155384 522.327273 
L 429.872727 521.809375 
L 434.867622 517.090909 
L 434.945455 516.998931 
L 438.095959 511.854545 
L 439.729145 506.618182 
L 438.520263 501.381818 
L 434.945455 500.097559 
L 431.54908 501.381818 
L 429.872727 501.958436 
L 424.8 506.212163 
L 424.371712 506.618182 
L 419.727273 510.941204 
L 418.73742 511.854545 
L 414.654545 515.837219 
L 413.199323 517.090909 
L 409.581818 520.393438 
L 405.111269 522.327273 
L 404.509091 522.540456 
L 399.436364 523.787263 
L 394.363636 527.006264 
L 393.843756 527.563636 
L 390.102256 532.8 
L 389.290909 534.82188 
L 387.575922 538.036364 
L 386.821347 543.272727 
L 389.290909 546.214584 
" style="fill:none;stroke:#808080;"/>
    <path clip-path="url(#p655c05ccca)" d="M 455.236364 487.757792 
L 460.309091 489.685928 
L 465.381818 486.373519 
L 466.027138 485.672727 
L 470.454545 480.520403 
L 470.522223 480.436364 
L 474.064019 475.2 
L 475.527273 472.836634 
L 476.667609 469.963636 
L 477.552136 464.727273 
L 476.228002 459.490909 
L 475.527273 459.197137 
L 475.358853 459.490909 
L 471.993391 464.727273 
L 470.454545 466.010469 
L 466.870063 469.963636 
L 465.381818 471.26281 
L 461.497637 475.2 
L 460.309091 476.520384 
L 457.566255 480.436364 
L 455.236364 485.036081 
L 454.864863 485.672727 
L 455.236364 487.757792 
" style="fill:none;stroke:#808080;"/>
    <path clip-path="url(#p655c05ccca)" d="M 490.745455 439.106446 
L 491.004415 438.545455 
L 490.745455 435.08671 
L 489.984306 438.545455 
L 490.745455 439.106446 
" style="fill:none;stroke:#808080;"/>
   </g>
   <g id="LineCollection_7">
    <path clip-path="url(#p655c05ccca)" d="M 328.418182 580.128007 
L 333.490909 582.553642 
L 338.563636 582.10855 
L 343.220386 579.927273 
L 343.636364 579.755592 
L 348.709091 576.92589 
L 351.56895 574.690909 
L 353.781818 572.619002 
L 356.63594 569.454545 
L 358.854545 564.824095 
L 359.188992 564.218182 
L 359.344278 558.981818 
L 358.854545 558.136013 
L 353.781818 554.152453 
L 348.709091 553.941955 
L 343.636364 554.876781 
L 338.563636 556.516498 
L 334.812625 558.981818 
L 333.490909 559.798007 
L 329.425515 564.218182 
L 328.418182 566.076306 
L 326.535976 569.454545 
L 325.710284 574.690909 
L 328.186618 579.927273 
L 328.418182 580.128007 
" style="fill:none;stroke:#808080;"/>
    <path clip-path="url(#p655c05ccca)" d="M 394.363636 546.061384 
L 399.436364 545.14574 
L 401.76802 543.272727 
L 404.509091 540.671582 
L 406.851982 538.036364 
L 409.581818 533.785272 
L 410.706977 532.8 
L 414.654545 529.10329 
L 417.601314 527.563636 
L 419.727273 526.395932 
L 424.8 523.449001 
L 426.318046 522.327273 
L 429.872727 519.760912 
L 432.699151 517.090909 
L 434.945455 514.436333 
L 436.526582 511.854545 
L 437.671296 506.618182 
L 434.945455 502.630296 
L 429.872727 503.954405 
L 426.72008 506.618182 
L 424.8 508.454975 
L 421.123172 511.854545 
L 419.727273 513.361926 
L 415.865728 517.090909 
L 414.654545 518.685031 
L 410.381289 522.327273 
L 409.581818 523.151543 
L 404.509091 524.492981 
L 399.436364 525.36642 
L 396.093118 527.563636 
L 394.363636 528.917571 
L 391.493066 532.8 
L 389.402606 538.036364 
L 389.620023 543.272727 
L 394.363636 546.061384 
" style="fill:none;stroke:#808080;"/>
    <path clip-path="url(#p655c05ccca)" d="M 460.309091 486.277062 
L 461.293457 485.672727 
L 465.381818 482.660377 
L 467.203098 480.436364 
L 470.454545 476.241965 
L 471.155704 475.2 
L 470.459209 469.963636 
L 470.454545 469.962224 
L 470.453265 469.963636 
L 465.381818 474.390794 
L 464.583507 475.2 
L 460.309091 479.94855 
L 459.967416 480.436364 
L 459.446843 485.672727 
L 460.309091 486.277062 
" style="fill:none;stroke:#808080;"/>
   </g>
   <g id="LineCollection_8">
    <path clip-path="url(#p655c05ccca)" d="M 333.490909 581.594308 
L 338.563636 581.190978 
L 341.261488 579.927273 
L 343.636364 578.947124 
L 348.709091 575.885223 
L 350.237323 574.690909 
L 353.781818 571.372201 
L 355.511411 569.454545 
L 358.044728 564.218182 
L 357.754801 558.981818 
L 353.781818 555.570167 
L 348.709091 555.049272 
L 343.636364 555.952112 
L 338.563636 557.748914 
L 336.687759 558.981818 
L 333.490909 560.955944 
L 330.490512 564.218182 
L 328.418182 568.040795 
L 327.630502 569.454545 
L 326.798896 574.690909 
L 328.418182 578.008181 
L 330.098259 579.927273 
L 333.490909 581.594308 
" style="fill:none;stroke:#808080;"/>
    <path clip-path="url(#p655c05ccca)" d="M 394.363636 544.313214 
L 399.436364 543.591892 
L 399.833682 543.272727 
L 404.509091 538.835987 
L 405.220012 538.036364 
L 408.291087 532.8 
L 409.581818 527.680229 
L 409.739907 527.563636 
L 409.581818 527.502959 
L 404.509091 526.445506 
L 399.436364 526.945577 
L 398.495935 527.563636 
L 394.363636 530.798632 
L 392.883875 532.8 
L 390.942392 538.036364 
L 392.593728 543.272727 
L 394.363636 544.313214 
" style="fill:none;stroke:#808080;"/>
    <path clip-path="url(#p655c05ccca)" d="M 414.654545 522.474044 
L 419.727273 523.538859 
L 422.146924 522.327273 
L 424.8 520.816469 
L 429.872727 517.712449 
L 430.53068 517.090909 
L 434.945455 511.873734 
L 434.957206 511.854545 
L 435.613446 506.618182 
L 434.945455 505.640915 
L 429.872727 505.950373 
L 429.082359 506.618182 
L 424.8 510.714788 
L 423.567287 511.854545 
L 419.727273 516.001238 
L 418.598865 517.090909 
L 414.654545 522.282303 
L 414.601785 522.327273 
L 414.654545 522.474044 
" style="fill:none;stroke:#808080;"/>
   </g>
   <g id="LineCollection_9">
    <path clip-path="url(#p655c05ccca)" d="M 333.490909 580.634975 
L 338.563636 580.273407 
L 339.30259 579.927273 
L 343.636364 578.138656 
L 348.709091 574.844556 
L 348.905696 574.690909 
L 353.781818 570.125399 
L 354.386882 569.454545 
L 356.953089 564.218182 
L 356.103825 558.981818 
L 353.781818 556.987881 
L 348.709091 556.156589 
L 343.636364 557.027442 
L 338.563636 558.981329 
L 338.562893 558.981818 
L 333.490909 562.113881 
L 331.555508 564.218182 
L 328.652435 569.454545 
L 328.418182 571.366435 
L 327.887507 574.690909 
L 328.418182 575.77805 
L 332.050637 579.927273 
L 333.490909 580.634975 
" style="fill:none;stroke:#808080;"/>
    <path clip-path="url(#p655c05ccca)" d="M 394.363636 541.969635 
L 399.436364 541.814612 
L 403.417752 538.036364 
L 404.509091 535.861008 
L 406.183133 532.8 
L 404.509091 529.395583 
L 399.436364 528.744096 
L 394.363636 532.679693 
L 394.274684 532.8 
L 392.482179 538.036364 
L 394.363636 541.969635 
" style="fill:none;stroke:#808080;"/>
    <path clip-path="url(#p655c05ccca)" d="M 424.8 517.567258 
L 425.681993 517.090909 
L 424.8 515.89561 
L 423.78645 517.090909 
L 424.8 517.567258 
" style="fill:none;stroke:#808080;"/>
    <path clip-path="url(#p655c05ccca)" d="M 429.872727 513.970515 
L 431.508468 511.854545 
L 429.872727 509.680624 
L 427.397365 511.854545 
L 429.872727 513.970515 
" style="fill:none;stroke:#808080;"/>
   </g>
   <g id="LineCollection_10">
    <path clip-path="url(#p655c05ccca)" d="M 333.490909 579.642951 
L 338.563636 579.434085 
L 343.636364 577.330188 
L 347.65884 574.690909 
L 348.709091 573.80785 
L 353.279384 569.454545 
L 353.781818 568.432621 
L 355.861449 564.218182 
L 354.452849 558.981818 
L 353.781818 558.405595 
L 348.709091 557.263906 
L 343.636364 558.102773 
L 341.354238 558.981818 
L 338.563636 559.893583 
L 333.490909 563.271818 
L 332.620504 564.218182 
L 329.488018 569.454545 
L 328.929871 574.690909 
L 333.490909 579.642951 
" style="fill:none;stroke:#808080;"/>
    <path clip-path="url(#p655c05ccca)" d="M 394.363636 538.750643 
L 399.436364 539.979575 
L 401.484053 538.036364 
L 403.703982 532.8 
L 399.436364 530.683681 
L 396.70597 532.8 
L 394.363636 537.032921 
L 394.021965 538.036364 
L 394.363636 538.750643 
" style="fill:none;stroke:#808080;"/>
   </g>
   <g id="LineCollection_11">
    <path clip-path="url(#p655c05ccca)" d="M 333.490909 578.558988 
L 338.563636 578.642161 
L 343.636364 576.52172 
L 346.426669 574.690909 
L 348.709091 572.77183 
L 352.191724 569.454545 
L 353.781818 566.220377 
L 354.769809 564.218182 
L 353.781818 561.05579 
L 351.152113 558.981818 
L 348.709091 558.371223 
L 344.897955 558.981818 
L 343.636364 559.161326 
L 338.563636 560.805711 
L 333.727118 564.218182 
L 333.490909 564.458984 
L 330.323601 569.454545 
L 329.928246 574.690909 
L 333.490909 578.558988 
" style="fill:none;stroke:#808080;"/>
    <path clip-path="url(#p655c05ccca)" d="M 399.436364 538.144538 
L 399.550354 538.036364 
L 399.792754 532.8 
L 399.436364 532.623266 
L 399.208348 532.8 
L 399.079119 538.036364 
L 399.436364 538.144538 
" style="fill:none;stroke:#808080;"/>
   </g>
   <g id="LineCollection_12">
    <path clip-path="url(#p655c05ccca)" d="M 333.490909 577.475025 
L 338.563636 577.850236 
L 343.636364 575.713252 
L 345.194498 574.690909 
L 348.709091 571.73581 
L 351.104064 569.454545 
L 353.635186 564.218182 
L 348.709091 559.627423 
L 343.636364 560.144741 
L 338.563636 561.717838 
L 335.019881 564.218182 
L 333.490909 565.776888 
L 331.159185 569.454545 
L 330.926621 574.690909 
L 333.490909 577.475025 
" style="fill:none;stroke:#808080;"/>
   </g>
   <g id="LineCollection_13">
    <path clip-path="url(#p655c05ccca)" d="M 333.490909 576.391062 
L 338.563636 577.058312 
L 343.636364 574.904784 
L 343.962327 574.690909 
L 348.709091 570.69979 
L 350.016404 569.454545 
L 352.090845 564.218182 
L 348.709091 561.066635 
L 343.636364 561.128157 
L 338.563636 562.629965 
L 336.312645 564.218182 
L 333.490909 567.094792 
L 331.994768 569.454545 
L 331.924997 574.690909 
L 333.490909 576.391062 
" style="fill:none;stroke:#808080;"/>
   </g>
   <g id="LineCollection_14">
    <path clip-path="url(#p655c05ccca)" d="M 333.490909 575.307099 
L 338.563636 576.266387 
L 342.267217 574.690909 
L 343.636364 573.806958 
L 348.709091 569.66377 
L 348.928744 569.454545 
L 350.546504 564.218182 
L 348.709091 562.505848 
L 343.636364 562.111572 
L 338.563636 563.542092 
L 337.605409 564.218182 
L 333.490909 568.412696 
L 332.830351 569.454545 
L 332.923372 574.690909 
L 333.490909 575.307099 
" style="fill:none;stroke:#808080;"/>
   </g>
   <g id="LineCollection_15">
    <path clip-path="url(#p655c05ccca)" d="M 338.563636 575.474463 
L 340.405588 574.690909 
L 343.636364 572.60505 
L 347.525139 569.454545 
L 348.709091 565.224146 
L 349.002163 564.218182 
L 348.709091 563.94506 
L 343.636364 563.094988 
L 339.50067 564.218182 
L 338.563636 564.592872 
L 333.788783 569.454545 
L 335.031464 574.690909 
L 338.563636 575.474463 
" style="fill:none;stroke:#808080;"/>
   </g>
   <g id="LineCollection_16">
    <path clip-path="url(#p655c05ccca)" d="M 338.563636 574.667538 
L 343.636364 571.403142 
L 346.041583 569.454545 
L 344.393445 564.218182 
L 343.636364 564.078403 
L 343.121687 564.218182 
L 338.563636 566.040801 
L 335.210855 569.454545 
L 338.563636 574.667538 
" style="fill:none;stroke:#808080;"/>
   </g>
   <g id="LineCollection_17">
    <path clip-path="url(#p655c05ccca)" d="M 338.563636 572.456462 
L 343.636364 570.201234 
L 344.558027 569.454545 
L 343.636364 567.255189 
L 338.563636 567.488731 
L 336.632928 569.454545 
L 338.563636 572.456462 
" style="fill:none;stroke:#808080;"/>
   </g>
   <g id="LineCollection_18">
    <path clip-path="url(#p655c05ccca)" d="M 338.563636 570.245387 
L 341.027415 569.454545 
L 338.563636 568.93666 
L 338.055 569.454545 
L 338.563636 570.245387 
" style="fill:none;stroke:#808080;"/>
   </g>
   <g id="PathCollection_1">
    <defs>
     <path d="M 0 2.236068 
C 0.593012 2.236068 1.161816 2.000462 1.581139 1.581139 
C 2.000462 1.161816 2.236068 0.593012 2.236068 0 
C 2.236068 -0.593012 2.000462 -1.161816 1.581139 -1.581139 
C 1.161816 -2.000462 0.593012 -2.236068 0 -2.236068 
C -0.593012 -2.236068 -1.161816 -2.000462 -1.581139 -1.581139 
C -2.000462 -1.161816 -2.236068 -0.593012 -2.236068 0 
C -2.236068 0.593012 -2.000462 1.161816 -1.581139 1.581139 
C -1.161816 2.000462 -0.593012 2.236068 0 2.236068 
z
" id="mc4f7c007f4" style="stroke:#000000;"/>
    </defs>
    <g clip-path="url(#p655c05ccca)">
     <use style="stroke:#000000;" x="449.045383031" xlink:href="#mc4f7c007f4" y="321.481199429"/>
    </g>
   </g>
   <g id="PathCollection_2">
    <g clip-path="url(#p655c05ccca)">
     <use style="stroke:#000000;" x="401.345462024" xlink:href="#mc4f7c007f4" y="531.817184644"/>
    </g>
   </g>
   <g id="PathCollection_3">
    <g clip-path="url(#p655c05ccca)">
     <use style="stroke:#000000;" x="477.280223981" xlink:href="#mc4f7c007f4" y="412.866254165"/>
    </g>
   </g>
   <g id="PathCollection_4">
    <g clip-path="url(#p655c05ccca)">
     <use style="stroke:#000000;" x="454.785794381" xlink:href="#mc4f7c007f4" y="498.756370364"/>
    </g>
   </g>
   <g id="PathCollection_5">
    <g clip-path="url(#p655c05ccca)">
     <use style="stroke:#000000;" x="354.933036281" xlink:href="#mc4f7c007f4" y="394.237762238"/>
    </g>
   </g>
   <g id="PathCollection_6">
    <g clip-path="url(#p655c05ccca)">
     <use style="stroke:#000000;" x="504.550471032" xlink:href="#mc4f7c007f4" y="373.756548536"/>
    </g>
   </g>
   <g id="PathCollection_7">
    <g clip-path="url(#p655c05ccca)">
     <use style="stroke:#000000;" x="462.292697846" xlink:href="#mc4f7c007f4" y="371.86013986"/>
    </g>
   </g>
   <g id="PathCollection_8">
    <g clip-path="url(#p655c05ccca)">
     <use style="stroke:#000000;" x="272.506051018" xlink:href="#mc4f7c007f4" y="571.910203073"/>
    </g>
   </g>
   <g id="PathCollection_9">
    <g clip-path="url(#p655c05ccca)">
     <use style="stroke:#000000;" x="442.838957567" xlink:href="#mc4f7c007f4" y="330.504027618"/>
    </g>
   </g>
   <g id="PathCollection_10">
    <g clip-path="url(#p655c05ccca)">
     <use style="stroke:#000000;" x="254.657264159" xlink:href="#mc4f7c007f4" y="566.865134865"/>
    </g>
   </g>
   <g id="PathCollection_11">
    <g clip-path="url(#p655c05ccca)">
     <use style="stroke:#000000;" x="451.455034539" xlink:href="#mc4f7c007f4" y="471.551917277"/>
    </g>
   </g>
   <g id="PathCollection_12">
    <g clip-path="url(#p655c05ccca)">
     <use style="stroke:#000000;" x="382.309186779" xlink:href="#mc4f7c007f4" y="503.931221143"/>
    </g>
   </g>
   <g id="PathCollection_13">
    <g clip-path="url(#p655c05ccca)">
     <use style="stroke:#000000;" x="303.185889172" xlink:href="#mc4f7c007f4" y="473.291418862"/>
    </g>
   </g>
   <g id="PathCollection_14">
    <g clip-path="url(#p655c05ccca)">
     <use style="stroke:#000000;" x="329.613174372" xlink:href="#mc4f7c007f4" y="487.447032307"/>
    </g>
   </g>
   <g id="PathCollection_15">
    <g clip-path="url(#p655c05ccca)">
     <use style="stroke:#000000;" x="274.013996008" xlink:href="#mc4f7c007f4" y="440.254653359"/>
    </g>
   </g>
   <g id="PathCollection_16">
    <g clip-path="url(#p655c05ccca)">
     <use style="stroke:#000000;" x="306.540018409" xlink:href="#mc4f7c007f4" y="417.225336844"/>
    </g>
   </g>
   <g id="PathCollection_17">
    <g clip-path="url(#p655c05ccca)">
     <use style="stroke:#000000;" x="282.632292646" xlink:href="#mc4f7c007f4" y="470.812439051"/>
    </g>
   </g>
   <g id="PathCollection_18">
    <g clip-path="url(#p655c05ccca)">
     <use style="stroke:#000000;" x="342.020747215" xlink:href="#mc4f7c007f4" y="471.551917277"/>
    </g>
   </g>
   <g id="PathCollection_19">
    <g clip-path="url(#p655c05ccca)">
     <use style="stroke:#000000;" x="335.669336593" xlink:href="#mc4f7c007f4" y="443.637419185"/>
    </g>
   </g>
   <g id="PathCollection_20">
    <g clip-path="url(#p655c05ccca)">
     <use style="stroke:#000000;" x="250.148845225" xlink:href="#mc4f7c007f4" y="482.905176632"/>
    </g>
   </g>
   <g id="PathCollection_21">
    <g clip-path="url(#p655c05ccca)">
     <use style="stroke:#000000;" x="256.205007446" xlink:href="#mc4f7c007f4" y="487.447032307"/>
    </g>
   </g>
   <g id="PathCollection_22">
    <g clip-path="url(#p655c05ccca)">
     <use style="stroke:#000000;" x="231.052767604" xlink:href="#mc4f7c007f4" y="349.797695262"/>
    </g>
   </g>
   <g id="PathCollection_23">
    <g clip-path="url(#p655c05ccca)">
     <use style="stroke:#000000;" x="190.865685697" xlink:href="#mc4f7c007f4" y="498.666666667"/>
    </g>
   </g>
   <g id="PathCollection_24">
    <g clip-path="url(#p655c05ccca)">
     <use style="stroke:#000000;" x="213.122372476" xlink:href="#mc4f7c007f4" y="503.770334928"/>
    </g>
   </g>
   <g id="PathCollection_25">
    <g clip-path="url(#p655c05ccca)">
     <use style="stroke:#000000;" x="228.219755017" xlink:href="#mc4f7c007f4" y="498.666666667"/>
    </g>
   </g>
   <g id="PathCollection_26">
    <g clip-path="url(#p655c05ccca)">
     <use style="stroke:#000000;" x="419.276817378" xlink:href="#mc4f7c007f4" y="403.122994652"/>
    </g>
   </g>
   <g id="PathCollection_27">
    <g clip-path="url(#p655c05ccca)">
     <use style="stroke:#000000;" x="357.871426252" xlink:href="#mc4f7c007f4" y="438.151742994"/>
    </g>
   </g>
   <g id="PathCollection_28">
    <g clip-path="url(#p655c05ccca)">
     <use style="stroke:#000000;" x="276.193565552" xlink:href="#mc4f7c007f4" y="523.009960913"/>
    </g>
   </g>
   <g id="PathCollection_29">
    <g clip-path="url(#p655c05ccca)">
     <use style="stroke:#000000;" x="407.562902753" xlink:href="#mc4f7c007f4" y="435.747397641"/>
    </g>
   </g>
   <g id="PathCollection_30">
    <g clip-path="url(#p655c05ccca)">
     <use style="stroke:#000000;" x="223.698869379" xlink:href="#mc4f7c007f4" y="327.791676354"/>
    </g>
   </g>
   <g id="text_15">
    <text style="font-family:Arial;font-size:9.0px;font-style:normal;font-weight:400;text-anchor:start;" transform="rotate(-0.000000, 452.089019, 318.339381)" x="452.089019394" y="318.339381247">5E-25</text>
   </g>
   <g id="text_16">
    <text style="font-family:Arial;font-size:9.0px;font-style:normal;font-weight:400;text-anchor:start;" transform="rotate(-0.000000, 404.389098, 528.675366)" x="404.389098388" y="528.675366462">7E-03</text>
   </g>
   <g id="text_17">
    <text style="font-family:Arial;font-size:9.0px;font-style:normal;font-weight:400;text-anchor:start;" transform="rotate(-0.000000, 480.323860, 409.724436)" x="480.323860344" y="409.724435983">7E-05</text>
   </g>
   <g id="text_18">
    <text style="font-family:Arial;font-size:9.0px;font-style:normal;font-weight:400;text-anchor:start;" transform="rotate(-0.000000, 457.829431, 495.614552)" x="457.829430744" y="495.614552182">3E-03</text>
   </g>
   <g id="text_19">
    <text style="font-family:Arial;font-size:9.0px;font-style:normal;font-weight:400;text-anchor:start;" transform="rotate(-0.000000, 357.976673, 391.095944)" x="357.976672644" y="391.095944056">9E-20</text>
   </g>
   <g id="text_20">
    <text style="font-family:Arial;font-size:9.0px;font-style:normal;font-weight:400;text-anchor:start;" transform="rotate(-0.000000, 507.594107, 370.614730)" x="507.594107396" y="370.614730354">2E-05</text>
   </g>
   <g id="text_21">
    <text style="font-family:Arial;font-size:9.0px;font-style:normal;font-weight:400;text-anchor:start;" transform="rotate(-0.000000, 465.336334, 368.718322)" x="465.336334209" y="368.718321678">4E-06</text>
   </g>
   <g id="text_22">
    <text style="font-family:Arial;font-size:9.0px;font-style:normal;font-weight:400;text-anchor:start;" transform="rotate(-0.000000, 275.549687, 568.768385)" x="275.549687381" y="568.768384891">2E-05</text>
   </g>
   <g id="text_23">
    <text style="font-family:Arial;font-size:9.0px;font-style:normal;font-weight:400;text-anchor:start;" transform="rotate(-0.000000, 445.882594, 327.362209)" x="445.882593931" y="327.362209436">3E-22</text>
   </g>
   <g id="text_24">
    <text style="font-family:Arial;font-size:9.0px;font-style:normal;font-weight:400;text-anchor:start;" transform="rotate(-0.000000, 257.700901, 563.723317)" x="257.700900522" y="563.723316683">8E-06</text>
   </g>
   <g id="text_25">
    <text style="font-family:Arial;font-size:9.0px;font-style:normal;font-weight:400;text-anchor:start;" transform="rotate(-0.000000, 454.498671, 468.410099)" x="454.498670902" y="468.410099095">6E-04</text>
   </g>
   <g id="text_26">
    <text style="font-family:Arial;font-size:9.0px;font-style:normal;font-weight:400;text-anchor:start;" transform="rotate(-0.000000, 385.352823, 500.789403)" x="385.352823142" y="500.789402961">1E-04</text>
   </g>
   <g id="text_27">
    <text style="font-family:Arial;font-size:9.0px;font-style:normal;font-weight:400;text-anchor:start;" transform="rotate(-0.000000, 306.229526, 470.149601)" x="306.229525535" y="470.14960068">5E-06</text>
   </g>
   <g id="text_28">
    <text style="font-family:Arial;font-size:9.0px;font-style:normal;font-weight:400;text-anchor:start;" transform="rotate(-0.000000, 332.656811, 484.305214)" x="332.656810736" y="484.305214125">8E-06</text>
   </g>
   <g id="text_29">
    <text style="font-family:Arial;font-size:9.0px;font-style:normal;font-weight:400;text-anchor:start;" transform="rotate(-0.000000, 277.057632, 437.112835)" x="277.057632372" y="437.112835177">3E-15</text>
   </g>
   <g id="text_30">
    <text style="font-family:Arial;font-size:9.0px;font-style:normal;font-weight:400;text-anchor:start;" transform="rotate(-0.000000, 309.583655, 414.083519)" x="309.583654772" y="414.083518662">4E-17</text>
   </g>
   <g id="text_31">
    <text style="font-family:Arial;font-size:9.0px;font-style:normal;font-weight:400;text-anchor:start;" transform="rotate(-0.000000, 285.675929, 467.670621)" x="285.67592901" y="467.670620869">4E-06</text>
   </g>
   <g id="text_32">
    <text style="font-family:Arial;font-size:9.0px;font-style:normal;font-weight:400;text-anchor:start;" transform="rotate(-0.000000, 345.064384, 468.410099)" x="345.064383579" y="468.410099095">2E-06</text>
   </g>
   <g id="text_33">
    <text style="font-family:Arial;font-size:9.0px;font-style:normal;font-weight:400;text-anchor:start;" transform="rotate(-0.000000, 338.712973, 440.495601)" x="338.712972957" y="440.495601003">3E-06</text>
   </g>
   <g id="text_34">
    <text style="font-family:Arial;font-size:9.0px;font-style:normal;font-weight:400;text-anchor:start;" transform="rotate(-0.000000, 253.192482, 479.763358)" x="253.192481588" y="479.76335845">4E-12</text>
   </g>
   <g id="text_35">
    <text style="font-family:Arial;font-size:9.0px;font-style:normal;font-weight:400;text-anchor:start;" transform="rotate(-0.000000, 259.248644, 484.305214)" x="259.24864381" y="484.305214125">3E-10</text>
   </g>
   <g id="text_36">
    <text style="font-family:Arial;font-size:9.0px;font-style:normal;font-weight:400;text-anchor:start;" transform="rotate(-0.000000, 234.096404, 346.655877)" x="234.096403968" y="346.655877081">1E-144</text>
   </g>
   <g id="text_37">
    <text style="font-family:Arial;font-size:9.0px;font-style:normal;font-weight:400;text-anchor:start;" transform="rotate(-0.000000, 193.909322, 495.524848)" x="193.909322061" y="495.524848485">4E-28</text>
   </g>
   <g id="text_38">
    <text style="font-family:Arial;font-size:9.0px;font-style:normal;font-weight:400;text-anchor:start;" transform="rotate(-0.000000, 216.166009, 500.628517)" x="216.16600884" y="500.628516746">4E-15</text>
   </g>
   <g id="text_39">
    <text style="font-family:Arial;font-size:9.0px;font-style:normal;font-weight:400;text-anchor:start;" transform="rotate(-0.000000, 231.263391, 495.524848)" x="231.263391381" y="495.524848485">5E-14</text>
   </g>
   <g id="text_40">
    <text style="font-family:Arial;font-size:9.0px;font-style:normal;font-weight:400;text-anchor:start;" transform="rotate(-0.000000, 422.320454, 399.981176)" x="422.320453742" y="399.981176471">3E-07</text>
   </g>
   <g id="text_41">
    <text style="font-family:Arial;font-size:9.0px;font-style:normal;font-weight:400;text-anchor:start;" transform="rotate(-0.000000, 360.915063, 435.009925)" x="360.915062616" y="435.009924812">4E-06</text>
   </g>
   <g id="text_42">
    <text style="font-family:Arial;font-size:9.0px;font-style:normal;font-weight:400;text-anchor:start;" transform="rotate(-0.000000, 279.237202, 519.868143)" x="279.237201916" y="519.868142731">6E-06</text>
   </g>
   <g id="text_43">
    <text style="font-family:Arial;font-size:9.0px;font-style:normal;font-weight:400;text-anchor:start;" transform="rotate(-0.000000, 410.606539, 432.605579)" x="410.606539116" y="432.605579459">6E-06</text>
   </g>
   <g id="text_44">
    <text style="font-family:Arial;font-size:9.0px;font-style:normal;font-weight:400;text-anchor:start;" transform="rotate(-0.000000, 226.742506, 324.649858)" x="226.742505743" y="324.649858173">7E-198</text>
   </g>
  </g>
 </g>
 <defs>
  <clipPath id="p655c05ccca">
   <rect height="576.0" width="558.0" x="90.0" y="72.0"/>
  </clipPath>
 </defs>
</svg>
