<?xml version="1.0" encoding="utf-8" standalone="no"?>
<!DOCTYPE svg PUBLIC "-//W3C//DTD SVG 1.1//EN"
  "http://www.w3.org/Graphics/SVG/1.1/DTD/svg11.dtd">
<!-- Created with matplotlib (http://matplotlib.org/) -->
<svg height="276pt" version="1.1" viewBox="0 0 852 276" width="852pt" xmlns="http://www.w3.org/2000/svg" xmlns:xlink="http://www.w3.org/1999/xlink">
 <defs>
  <style type="text/css">
*{stroke-linecap:butt;stroke-linejoin:round;stroke-miterlimit:100000;}
  </style>
 </defs>
 <g id="figure_1">
  <g id="patch_1">
   <path d="M 0 276.3075 
L 852.22125 276.3075 
L 852.22125 0 
L 0 0 
z
" style="fill:#ffffff;"/>
  </g>
  <g id="axes_1">
   <g id="patch_2">
    <path d="M 54.71875 232.88 
L 837.38625 232.88 
L 837.38625 7.2 
L 54.71875 7.2 
z
" style="fill:#ffffff;"/>
   </g>
   <g id="patch_3">
    <path clip-path="url(#pe9bf173472)" d="M 54.71875 232.88 
L 70.3721 232.88 
L 70.3721 -1736.521352 
L 54.71875 -1736.521352 
z
" style="opacity:0.3;stroke:#000000;stroke-linejoin:miter;"/>
   </g>
   <g id="patch_4">
    <path clip-path="url(#pe9bf173472)" d="M 70.3721 232.88 
L 86.02545 232.88 
L 86.02545 114.614185 
L 70.3721 114.614185 
z
" style="opacity:0.3;stroke:#000000;stroke-linejoin:miter;"/>
   </g>
   <g id="patch_5">
    <path clip-path="url(#pe9bf173472)" d="M 86.02545 232.88 
L 101.6788 232.88 
L 101.6788 184.556334 
L 86.02545 184.556334 
z
" style="opacity:0.3;stroke:#000000;stroke-linejoin:miter;"/>
   </g>
   <g id="patch_6">
    <path clip-path="url(#pe9bf173472)" d="M 101.6788 232.88 
L 117.33215 232.88 
L 117.33215 196.425304 
L 101.6788 196.425304 
z
" style="opacity:0.3;stroke:#000000;stroke-linejoin:miter;"/>
   </g>
   <g id="patch_7">
    <path clip-path="url(#pe9bf173472)" d="M 117.33215 232.88 
L 132.9855 232.88 
L 132.9855 210.837626 
L 117.33215 210.837626 
z
" style="opacity:0.3;stroke:#000000;stroke-linejoin:miter;"/>
   </g>
   <g id="patch_8">
    <path clip-path="url(#pe9bf173472)" d="M 132.9855 232.88 
L 148.63885 232.88 
L 148.63885 215.500436 
L 132.9855 215.500436 
z
" style="opacity:0.3;stroke:#000000;stroke-linejoin:miter;"/>
   </g>
   <g id="patch_9">
    <path clip-path="url(#pe9bf173472)" d="M 148.63885 232.88 
L 164.2922 232.88 
L 164.2922 212.957085 
L 148.63885 212.957085 
z
" style="opacity:0.3;stroke:#000000;stroke-linejoin:miter;"/>
   </g>
   <g id="patch_10">
    <path clip-path="url(#pe9bf173472)" d="M 164.2922 232.88 
L 179.94555 232.88 
L 179.94555 223.978272 
L 164.2922 223.978272 
z
" style="opacity:0.3;stroke:#000000;stroke-linejoin:miter;"/>
   </g>
   <g id="patch_11">
    <path clip-path="url(#pe9bf173472)" d="M 179.94555 232.88 
L 195.5989 232.88 
L 195.5989 222.282705 
L 179.94555 222.282705 
z
" style="opacity:0.3;stroke:#000000;stroke-linejoin:miter;"/>
   </g>
   <g id="patch_12">
    <path clip-path="url(#pe9bf173472)" d="M 195.5989 232.88 
L 211.25225 232.88 
L 211.25225 224.826056 
L 195.5989 224.826056 
z
" style="opacity:0.3;stroke:#000000;stroke-linejoin:miter;"/>
   </g>
   <g id="patch_13">
    <path clip-path="url(#pe9bf173472)" d="M 211.25225 232.88 
L 226.9056 232.88 
L 226.9056 219.739354 
L 211.25225 219.739354 
z
" style="opacity:0.3;stroke:#000000;stroke-linejoin:miter;"/>
   </g>
   <g id="patch_14">
    <path clip-path="url(#pe9bf173472)" d="M 226.9056 232.88 
L 242.55895 232.88 
L 242.55895 208.718167 
L 226.9056 208.718167 
z
" style="opacity:0.3;stroke:#000000;stroke-linejoin:miter;"/>
   </g>
   <g id="patch_15">
    <path clip-path="url(#pe9bf173472)" d="M 242.55895 232.88 
L 258.2123 232.88 
L 258.2123 186.251901 
L 242.55895 186.251901 
z
" style="opacity:0.3;stroke:#000000;stroke-linejoin:miter;"/>
   </g>
   <g id="patch_16">
    <path clip-path="url(#pe9bf173472)" d="M 258.2123 232.88 
L 273.86565 232.88 
L 273.86565 140.047693 
L 258.2123 140.047693 
z
" style="opacity:0.3;stroke:#000000;stroke-linejoin:miter;"/>
   </g>
   <g id="patch_17">
    <path clip-path="url(#pe9bf173472)" d="M 273.86565 232.88 
L 289.519 232.88 
L 289.519 98.506296 
L 273.86565 98.506296 
z
" style="opacity:0.3;stroke:#000000;stroke-linejoin:miter;"/>
   </g>
   <g id="patch_18">
    <path clip-path="url(#pe9bf173472)" d="M 289.519 232.88 
L 305.17235 232.88 
L 305.17235 68.409977 
L 289.519 68.409977 
z
" style="opacity:0.3;stroke:#000000;stroke-linejoin:miter;"/>
   </g>
   <g id="patch_19">
    <path clip-path="url(#pe9bf173472)" d="M 305.17235 232.88 
L 320.8257 232.88 
L 320.8257 48.487062 
L 305.17235 48.487062 
z
" style="opacity:0.3;stroke:#000000;stroke-linejoin:miter;"/>
   </g>
   <g id="patch_20">
    <path clip-path="url(#pe9bf173472)" d="M 320.8257 232.88 
L 336.47905 232.88 
L 336.47905 31.955282 
L 320.8257 31.955282 
z
" style="opacity:0.3;stroke:#000000;stroke-linejoin:miter;"/>
   </g>
   <g id="patch_21">
    <path clip-path="url(#pe9bf173472)" d="M 336.47905 232.88 
L 352.1324 232.88 
L 352.1324 27.716364 
L 336.47905 27.716364 
z
" style="opacity:0.3;stroke:#000000;stroke-linejoin:miter;"/>
   </g>
   <g id="patch_22">
    <path clip-path="url(#pe9bf173472)" d="M 352.1324 232.88 
L 367.78575 232.88 
L 367.78575 35.770308 
L 352.1324 35.770308 
z
" style="opacity:0.3;stroke:#000000;stroke-linejoin:miter;"/>
   </g>
   <g id="patch_23">
    <path clip-path="url(#pe9bf173472)" d="M 367.78575 232.88 
L 383.4391 232.88 
L 383.4391 48.063171 
L 367.78575 48.063171 
z
" style="opacity:0.3;stroke:#000000;stroke-linejoin:miter;"/>
   </g>
   <g id="patch_24">
    <path clip-path="url(#pe9bf173472)" d="M 383.4391 232.88 
L 399.09245 232.88 
L 399.09245 65.442735 
L 383.4391 65.442735 
z
" style="opacity:0.3;stroke:#000000;stroke-linejoin:miter;"/>
   </g>
   <g id="patch_25">
    <path clip-path="url(#pe9bf173472)" d="M 399.09245 232.88 
L 414.7458 232.88 
L 414.7458 106.984132 
L 399.09245 106.984132 
z
" style="opacity:0.3;stroke:#000000;stroke-linejoin:miter;"/>
   </g>
   <g id="patch_26">
    <path clip-path="url(#pe9bf173472)" d="M 414.7458 232.88 
L 430.39915 232.88 
L 430.39915 143.438828 
L 414.7458 143.438828 
z
" style="opacity:0.3;stroke:#000000;stroke-linejoin:miter;"/>
   </g>
   <g id="patch_27">
    <path clip-path="url(#pe9bf173472)" d="M 430.39915 232.88 
L 446.0525 232.88 
L 446.0525 172.263471 
L 430.39915 172.263471 
z
" style="opacity:0.3;stroke:#000000;stroke-linejoin:miter;"/>
   </g>
   <g id="patch_28">
    <path clip-path="url(#pe9bf173472)" d="M 446.0525 232.88 
L 461.70585 232.88 
L 461.70585 192.610278 
L 446.0525 192.610278 
z
" style="opacity:0.3;stroke:#000000;stroke-linejoin:miter;"/>
   </g>
   <g id="patch_29">
    <path clip-path="url(#pe9bf173472)" d="M 461.70585 232.88 
L 477.3592 232.88 
L 477.3592 205.327032 
L 461.70585 205.327032 
z
" style="opacity:0.3;stroke:#000000;stroke-linejoin:miter;"/>
   </g>
   <g id="patch_30">
    <path clip-path="url(#pe9bf173472)" d="M 477.3592 232.88 
L 493.01255 232.88 
L 493.01255 211.261518 
L 477.3592 211.261518 
z
" style="opacity:0.3;stroke:#000000;stroke-linejoin:miter;"/>
   </g>
   <g id="patch_31">
    <path clip-path="url(#pe9bf173472)" d="M 493.01255 232.88 
L 508.6659 232.88 
L 508.6659 215.076544 
L 493.01255 215.076544 
z
" style="opacity:0.3;stroke:#000000;stroke-linejoin:miter;"/>
   </g>
   <g id="patch_32">
    <path clip-path="url(#pe9bf173472)" d="M 508.6659 232.88 
L 524.31925 232.88 
L 524.31925 218.043787 
L 508.6659 218.043787 
z
" style="opacity:0.3;stroke:#000000;stroke-linejoin:miter;"/>
   </g>
   <g id="patch_33">
    <path clip-path="url(#pe9bf173472)" d="M 524.31925 232.88 
L 539.9726 232.88 
L 539.9726 221.011029 
L 524.31925 221.011029 
z
" style="opacity:0.3;stroke:#000000;stroke-linejoin:miter;"/>
   </g>
   <g id="patch_34">
    <path clip-path="url(#pe9bf173472)" d="M 539.9726 232.88 
L 555.62595 232.88 
L 555.62595 221.011029 
L 539.9726 221.011029 
z
" style="opacity:0.3;stroke:#000000;stroke-linejoin:miter;"/>
   </g>
   <g id="patch_35">
    <path clip-path="url(#pe9bf173472)" d="M 555.62595 232.88 
L 571.2793 232.88 
L 571.2793 215.076544 
L 555.62595 215.076544 
z
" style="opacity:0.3;stroke:#000000;stroke-linejoin:miter;"/>
   </g>
   <g id="patch_36">
    <path clip-path="url(#pe9bf173472)" d="M 571.2793 232.88 
L 586.93265 232.88 
L 586.93265 216.772111 
L 571.2793 216.772111 
z
" style="opacity:0.3;stroke:#000000;stroke-linejoin:miter;"/>
   </g>
   <g id="patch_37">
    <path clip-path="url(#pe9bf173472)" d="M 586.93265 232.88 
L 602.586 232.88 
L 602.586 209.989842 
L 586.93265 209.989842 
z
" style="opacity:0.3;stroke:#000000;stroke-linejoin:miter;"/>
   </g>
   <g id="patch_38">
    <path clip-path="url(#pe9bf173472)" d="M 602.586 232.88 
L 618.23935 232.88 
L 618.23935 204.90314 
L 602.586 204.90314 
z
" style="opacity:0.3;stroke:#000000;stroke-linejoin:miter;"/>
   </g>
   <g id="patch_39">
    <path clip-path="url(#pe9bf173472)" d="M 618.23935 232.88 
L 633.8927 232.88 
L 633.8927 204.055357 
L 618.23935 204.055357 
z
" style="opacity:0.3;stroke:#000000;stroke-linejoin:miter;"/>
   </g>
   <g id="patch_40">
    <path clip-path="url(#pe9bf173472)" d="M 633.8927 232.88 
L 649.54605 232.88 
L 649.54605 191.338603 
L 633.8927 191.338603 
z
" style="opacity:0.3;stroke:#000000;stroke-linejoin:miter;"/>
   </g>
   <g id="patch_41">
    <path clip-path="url(#pe9bf173472)" d="M 649.54605 232.88 
L 665.1994 232.88 
L 665.1994 193.03417 
L 649.54605 193.03417 
z
" style="opacity:0.3;stroke:#000000;stroke-linejoin:miter;"/>
   </g>
   <g id="patch_42">
    <path clip-path="url(#pe9bf173472)" d="M 665.1994 232.88 
L 680.85275 232.88 
L 680.85275 186.251901 
L 665.1994 186.251901 
z
" style="opacity:0.3;stroke:#000000;stroke-linejoin:miter;"/>
   </g>
   <g id="patch_43">
    <path clip-path="url(#pe9bf173472)" d="M 680.85275 232.88 
L 696.5061 232.88 
L 696.5061 181.589091 
L 680.85275 181.589091 
z
" style="opacity:0.3;stroke:#000000;stroke-linejoin:miter;"/>
   </g>
   <g id="patch_44">
    <path clip-path="url(#pe9bf173472)" d="M 696.5061 232.88 
L 712.15945 232.88 
L 712.15945 190.914711 
L 696.5061 190.914711 
z
" style="opacity:0.3;stroke:#000000;stroke-linejoin:miter;"/>
   </g>
   <g id="patch_45">
    <path clip-path="url(#pe9bf173472)" d="M 712.15945 232.88 
L 727.8128 232.88 
L 727.8128 172.687363 
L 712.15945 172.687363 
z
" style="opacity:0.3;stroke:#000000;stroke-linejoin:miter;"/>
   </g>
   <g id="patch_46">
    <path clip-path="url(#pe9bf173472)" d="M 727.8128 232.88 
L 743.46615 232.88 
L 743.46615 187.523576 
L 727.8128 187.523576 
z
" style="opacity:0.3;stroke:#000000;stroke-linejoin:miter;"/>
   </g>
   <g id="patch_47">
    <path clip-path="url(#pe9bf173472)" d="M 743.46615 232.88 
L 759.1195 232.88 
L 759.1195 184.556334 
L 743.46615 184.556334 
z
" style="opacity:0.3;stroke:#000000;stroke-linejoin:miter;"/>
   </g>
   <g id="patch_48">
    <path clip-path="url(#pe9bf173472)" d="M 759.1195 232.88 
L 774.77285 232.88 
L 774.77285 201.935898 
L 759.1195 201.935898 
z
" style="opacity:0.3;stroke:#000000;stroke-linejoin:miter;"/>
   </g>
   <g id="patch_49">
    <path clip-path="url(#pe9bf173472)" d="M 774.77285 232.88 
L 790.4262 232.88 
L 790.4262 195.577521 
L 774.77285 195.577521 
z
" style="opacity:0.3;stroke:#000000;stroke-linejoin:miter;"/>
   </g>
   <g id="patch_50">
    <path clip-path="url(#pe9bf173472)" d="M 790.4262 232.88 
L 806.07955 232.88 
L 806.07955 200.664222 
L 790.4262 200.664222 
z
" style="opacity:0.3;stroke:#000000;stroke-linejoin:miter;"/>
   </g>
   <g id="patch_51">
    <path clip-path="url(#pe9bf173472)" d="M 806.07955 232.88 
L 821.7329 232.88 
L 821.7329 201.935898 
L 806.07955 201.935898 
z
" style="opacity:0.3;stroke:#000000;stroke-linejoin:miter;"/>
   </g>
   <g id="patch_52">
    <path clip-path="url(#pe9bf173472)" d="M 821.7329 232.88 
L 837.38625 232.88 
L 837.38625 207.0226 
L 821.7329 207.0226 
z
" style="opacity:0.3;stroke:#000000;stroke-linejoin:miter;"/>
   </g>
   <g id="patch_53">
    <path clip-path="url(#pe9bf173472)" d="M 837.38625 232.88 
L 853.0396 232.88 
L 853.0396 208.718167 
L 837.38625 208.718167 
z
" style="opacity:0.3;stroke:#000000;stroke-linejoin:miter;"/>
   </g>
   <g id="patch_54">
    <path clip-path="url(#pe9bf173472)" d="M 853.0396 232.88 
L 868.69295 232.88 
L 868.69295 214.22876 
L 853.0396 214.22876 
z
" style="opacity:0.3;stroke:#000000;stroke-linejoin:miter;"/>
   </g>
   <g id="patch_55">
    <path clip-path="url(#pe9bf173472)" d="M 868.69295 232.88 
L 884.3463 232.88 
L 884.3463 217.196003 
L 868.69295 217.196003 
z
" style="opacity:0.3;stroke:#000000;stroke-linejoin:miter;"/>
   </g>
   <g id="patch_56">
    <path clip-path="url(#pe9bf173472)" d="M 884.3463 232.88 
L 899.99965 232.88 
L 899.99965 215.076544 
L 884.3463 215.076544 
z
" style="opacity:0.3;stroke:#000000;stroke-linejoin:miter;"/>
   </g>
   <g id="patch_57">
    <path clip-path="url(#pe9bf173472)" d="M 899.99965 232.88 
L 915.653 232.88 
L 915.653 218.043787 
L 899.99965 218.043787 
z
" style="opacity:0.3;stroke:#000000;stroke-linejoin:miter;"/>
   </g>
   <g id="patch_58">
    <path clip-path="url(#pe9bf173472)" d="M 915.653 232.88 
L 931.30635 232.88 
L 931.30635 218.043787 
L 915.653 218.043787 
z
" style="opacity:0.3;stroke:#000000;stroke-linejoin:miter;"/>
   </g>
   <g id="patch_59">
    <path clip-path="url(#pe9bf173472)" d="M 931.30635 232.88 
L 946.9597 232.88 
L 946.9597 218.89157 
L 931.30635 218.89157 
z
" style="opacity:0.3;stroke:#000000;stroke-linejoin:miter;"/>
   </g>
   <g id="patch_60">
    <path clip-path="url(#pe9bf173472)" d="M 946.9597 232.88 
L 962.61305 232.88 
L 962.61305 224.402164 
L 946.9597 224.402164 
z
" style="opacity:0.3;stroke:#000000;stroke-linejoin:miter;"/>
   </g>
   <g id="patch_61">
    <path clip-path="url(#pe9bf173472)" d="M 962.61305 232.88 
L 978.2664 232.88 
L 978.2664 220.163246 
L 962.61305 220.163246 
z
" style="opacity:0.3;stroke:#000000;stroke-linejoin:miter;"/>
   </g>
   <g id="patch_62">
    <path clip-path="url(#pe9bf173472)" d="M 978.2664 232.88 
L 993.91975 232.88 
L 993.91975 221.011029 
L 978.2664 221.011029 
z
" style="opacity:0.3;stroke:#000000;stroke-linejoin:miter;"/>
   </g>
   <g id="patch_63">
    <path clip-path="url(#pe9bf173472)" d="M 993.91975 232.88 
L 1009.5731 232.88 
L 1009.5731 215.500436 
L 993.91975 215.500436 
z
" style="opacity:0.3;stroke:#000000;stroke-linejoin:miter;"/>
   </g>
   <g id="patch_64">
    <path clip-path="url(#pe9bf173472)" d="M 1009.5731 232.88 
L 1025.22645 232.88 
L 1025.22645 215.924328 
L 1009.5731 215.924328 
z
" style="opacity:0.3;stroke:#000000;stroke-linejoin:miter;"/>
   </g>
   <g id="patch_65">
    <path clip-path="url(#pe9bf173472)" d="M 1025.22645 232.88 
L 1040.8798 232.88 
L 1040.8798 218.89157 
L 1025.22645 218.89157 
z
" style="opacity:0.3;stroke:#000000;stroke-linejoin:miter;"/>
   </g>
   <g id="patch_66">
    <path clip-path="url(#pe9bf173472)" d="M 1040.8798 232.88 
L 1056.53315 232.88 
L 1056.53315 217.196003 
L 1040.8798 217.196003 
z
" style="opacity:0.3;stroke:#000000;stroke-linejoin:miter;"/>
   </g>
   <g id="patch_67">
    <path clip-path="url(#pe9bf173472)" d="M 1056.53315 232.88 
L 1072.1865 232.88 
L 1072.1865 215.076544 
L 1056.53315 215.076544 
z
" style="opacity:0.3;stroke:#000000;stroke-linejoin:miter;"/>
   </g>
   <g id="patch_68">
    <path clip-path="url(#pe9bf173472)" d="M 1072.1865 232.88 
L 1087.83985 232.88 
L 1087.83985 216.772111 
L 1072.1865 216.772111 
z
" style="opacity:0.3;stroke:#000000;stroke-linejoin:miter;"/>
   </g>
   <g id="patch_69">
    <path clip-path="url(#pe9bf173472)" d="M 1087.83985 232.88 
L 1103.4932 232.88 
L 1103.4932 215.500436 
L 1087.83985 215.500436 
z
" style="opacity:0.3;stroke:#000000;stroke-linejoin:miter;"/>
   </g>
   <g id="patch_70">
    <path clip-path="url(#pe9bf173472)" d="M 1103.4932 232.88 
L 1119.14655 232.88 
L 1119.14655 217.196003 
L 1103.4932 217.196003 
z
" style="opacity:0.3;stroke:#000000;stroke-linejoin:miter;"/>
   </g>
   <g id="patch_71">
    <path clip-path="url(#pe9bf173472)" d="M 1119.14655 232.88 
L 1134.7999 232.88 
L 1134.7999 218.467678 
L 1119.14655 218.467678 
z
" style="opacity:0.3;stroke:#000000;stroke-linejoin:miter;"/>
   </g>
   <g id="patch_72">
    <path clip-path="url(#pe9bf173472)" d="M 1134.7999 232.88 
L 1150.45325 232.88 
L 1150.45325 210.837626 
L 1134.7999 210.837626 
z
" style="opacity:0.3;stroke:#000000;stroke-linejoin:miter;"/>
   </g>
   <g id="patch_73">
    <path clip-path="url(#pe9bf173472)" d="M 1150.45325 232.88 
L 1166.1066 232.88 
L 1166.1066 219.315462 
L 1150.45325 219.315462 
z
" style="opacity:0.3;stroke:#000000;stroke-linejoin:miter;"/>
   </g>
   <g id="patch_74">
    <path clip-path="url(#pe9bf173472)" d="M 1166.1066 232.88 
L 1181.75995 232.88 
L 1181.75995 221.858813 
L 1166.1066 221.858813 
z
" style="opacity:0.3;stroke:#000000;stroke-linejoin:miter;"/>
   </g>
   <g id="patch_75">
    <path clip-path="url(#pe9bf173472)" d="M 1181.75995 232.88 
L 1197.4133 232.88 
L 1197.4133 221.011029 
L 1181.75995 221.011029 
z
" style="opacity:0.3;stroke:#000000;stroke-linejoin:miter;"/>
   </g>
   <g id="patch_76">
    <path clip-path="url(#pe9bf173472)" d="M 1197.4133 232.88 
L 1213.06665 232.88 
L 1213.06665 221.011029 
L 1197.4133 221.011029 
z
" style="opacity:0.3;stroke:#000000;stroke-linejoin:miter;"/>
   </g>
   <g id="patch_77">
    <path clip-path="url(#pe9bf173472)" d="M 1213.06665 232.88 
L 1228.72 232.88 
L 1228.72 224.402164 
L 1213.06665 224.402164 
z
" style="opacity:0.3;stroke:#000000;stroke-linejoin:miter;"/>
   </g>
   <g id="patch_78">
    <path clip-path="url(#pe9bf173472)" d="M 1228.72 232.88 
L 1244.37335 232.88 
L 1244.37335 226.097731 
L 1228.72 226.097731 
z
" style="opacity:0.3;stroke:#000000;stroke-linejoin:miter;"/>
   </g>
   <g id="patch_79">
    <path clip-path="url(#pe9bf173472)" d="M 1244.37335 232.88 
L 1260.0267 232.88 
L 1260.0267 226.097731 
L 1244.37335 226.097731 
z
" style="opacity:0.3;stroke:#000000;stroke-linejoin:miter;"/>
   </g>
   <g id="patch_80">
    <path clip-path="url(#pe9bf173472)" d="M 1260.0267 232.88 
L 1275.68005 232.88 
L 1275.68005 226.945515 
L 1260.0267 226.945515 
z
" style="opacity:0.3;stroke:#000000;stroke-linejoin:miter;"/>
   </g>
   <g id="patch_81">
    <path clip-path="url(#pe9bf173472)" d="M 1275.68005 232.88 
L 1291.3334 232.88 
L 1291.3334 224.402164 
L 1275.68005 224.402164 
z
" style="opacity:0.3;stroke:#000000;stroke-linejoin:miter;"/>
   </g>
   <g id="patch_82">
    <path clip-path="url(#pe9bf173472)" d="M 1291.3334 232.88 
L 1306.98675 232.88 
L 1306.98675 225.673839 
L 1291.3334 225.673839 
z
" style="opacity:0.3;stroke:#000000;stroke-linejoin:miter;"/>
   </g>
   <g id="patch_83">
    <path clip-path="url(#pe9bf173472)" d="M 1306.98675 232.88 
L 1322.6401 232.88 
L 1322.6401 227.369406 
L 1306.98675 227.369406 
z
" style="opacity:0.3;stroke:#000000;stroke-linejoin:miter;"/>
   </g>
   <g id="patch_84">
    <path clip-path="url(#pe9bf173472)" d="M 1322.6401 232.88 
L 1338.29345 232.88 
L 1338.29345 226.097731 
L 1322.6401 226.097731 
z
" style="opacity:0.3;stroke:#000000;stroke-linejoin:miter;"/>
   </g>
   <g id="patch_85">
    <path clip-path="url(#pe9bf173472)" d="M 1338.29345 232.88 
L 1353.9468 232.88 
L 1353.9468 224.826056 
L 1338.29345 224.826056 
z
" style="opacity:0.3;stroke:#000000;stroke-linejoin:miter;"/>
   </g>
   <g id="patch_86">
    <path clip-path="url(#pe9bf173472)" d="M 1353.9468 232.88 
L 1369.60015 232.88 
L 1369.60015 226.521623 
L 1353.9468 226.521623 
z
" style="opacity:0.3;stroke:#000000;stroke-linejoin:miter;"/>
   </g>
   <g id="patch_87">
    <path clip-path="url(#pe9bf173472)" d="M 1369.60015 232.88 
L 1385.2535 232.88 
L 1385.2535 226.945515 
L 1369.60015 226.945515 
z
" style="opacity:0.3;stroke:#000000;stroke-linejoin:miter;"/>
   </g>
   <g id="patch_88">
    <path clip-path="url(#pe9bf173472)" d="M 1385.2535 232.88 
L 1400.90685 232.88 
L 1400.90685 227.369406 
L 1385.2535 227.369406 
z
" style="opacity:0.3;stroke:#000000;stroke-linejoin:miter;"/>
   </g>
   <g id="patch_89">
    <path clip-path="url(#pe9bf173472)" d="M 1400.90685 232.88 
L 1416.5602 232.88 
L 1416.5602 226.521623 
L 1400.90685 226.521623 
z
" style="opacity:0.3;stroke:#000000;stroke-linejoin:miter;"/>
   </g>
   <g id="patch_90">
    <path clip-path="url(#pe9bf173472)" d="M 1416.5602 232.88 
L 1432.21355 232.88 
L 1432.21355 226.945515 
L 1416.5602 226.945515 
z
" style="opacity:0.3;stroke:#000000;stroke-linejoin:miter;"/>
   </g>
   <g id="patch_91">
    <path clip-path="url(#pe9bf173472)" d="M 1432.21355 232.88 
L 1447.8669 232.88 
L 1447.8669 226.097731 
L 1432.21355 226.097731 
z
" style="opacity:0.3;stroke:#000000;stroke-linejoin:miter;"/>
   </g>
   <g id="patch_92">
    <path clip-path="url(#pe9bf173472)" d="M 1447.8669 232.88 
L 1463.52025 232.88 
L 1463.52025 226.521623 
L 1447.8669 226.521623 
z
" style="opacity:0.3;stroke:#000000;stroke-linejoin:miter;"/>
   </g>
   <g id="patch_93">
    <path clip-path="url(#pe9bf173472)" d="M 1463.52025 232.88 
L 1479.1736 232.88 
L 1479.1736 227.369406 
L 1463.52025 227.369406 
z
" style="opacity:0.3;stroke:#000000;stroke-linejoin:miter;"/>
   </g>
   <g id="patch_94">
    <path clip-path="url(#pe9bf173472)" d="M 1479.1736 232.88 
L 1494.82695 232.88 
L 1494.82695 226.945515 
L 1479.1736 226.945515 
z
" style="opacity:0.3;stroke:#000000;stroke-linejoin:miter;"/>
   </g>
   <g id="patch_95">
    <path clip-path="url(#pe9bf173472)" d="M 1494.82695 232.88 
L 1510.4803 232.88 
L 1510.4803 226.521623 
L 1494.82695 226.521623 
z
" style="opacity:0.3;stroke:#000000;stroke-linejoin:miter;"/>
   </g>
   <g id="patch_96">
    <path clip-path="url(#pe9bf173472)" d="M 1510.4803 232.88 
L 1526.13365 232.88 
L 1526.13365 227.369406 
L 1510.4803 227.369406 
z
" style="opacity:0.3;stroke:#000000;stroke-linejoin:miter;"/>
   </g>
   <g id="patch_97">
    <path clip-path="url(#pe9bf173472)" d="M 1526.13365 232.88 
L 1541.787 232.88 
L 1541.787 229.064974 
L 1526.13365 229.064974 
z
" style="opacity:0.3;stroke:#000000;stroke-linejoin:miter;"/>
   </g>
   <g id="patch_98">
    <path clip-path="url(#pe9bf173472)" d="M 1541.787 232.88 
L 1557.44035 232.88 
L 1557.44035 224.402164 
L 1541.787 224.402164 
z
" style="opacity:0.3;stroke:#000000;stroke-linejoin:miter;"/>
   </g>
   <g id="patch_99">
    <path clip-path="url(#pe9bf173472)" d="M 1557.44035 232.88 
L 1573.0937 232.88 
L 1573.0937 227.793298 
L 1557.44035 227.793298 
z
" style="opacity:0.3;stroke:#000000;stroke-linejoin:miter;"/>
   </g>
   <g id="patch_100">
    <path clip-path="url(#pe9bf173472)" d="M 1573.0937 232.88 
L 1588.74705 232.88 
L 1588.74705 229.488866 
L 1573.0937 229.488866 
z
" style="opacity:0.3;stroke:#000000;stroke-linejoin:miter;"/>
   </g>
   <g id="patch_101">
    <path clip-path="url(#pe9bf173472)" d="M 1588.74705 232.88 
L 1604.4004 232.88 
L 1604.4004 228.641082 
L 1588.74705 228.641082 
z
" style="opacity:0.3;stroke:#000000;stroke-linejoin:miter;"/>
   </g>
   <g id="patch_102">
    <path clip-path="url(#pe9bf173472)" d="M 1604.4004 232.88 
L 1620.05375 232.88 
L 1620.05375 226.945515 
L 1604.4004 226.945515 
z
" style="opacity:0.3;stroke:#000000;stroke-linejoin:miter;"/>
   </g>
   <g id="patch_103">
    <path clip-path="url(#pe9bf173472)" d="M 1620.05375 232.88 
L 1635.7071 232.88 
L 1635.7071 228.641082 
L 1620.05375 228.641082 
z
" style="opacity:0.3;stroke:#000000;stroke-linejoin:miter;"/>
   </g>
   <g id="patch_104">
    <path clip-path="url(#pe9bf173472)" d="M 1635.7071 232.88 
L 1651.36045 232.88 
L 1651.36045 228.21719 
L 1635.7071 228.21719 
z
" style="opacity:0.3;stroke:#000000;stroke-linejoin:miter;"/>
   </g>
   <g id="patch_105">
    <path clip-path="url(#pe9bf173472)" d="M 1651.36045 232.88 
L 1667.0138 232.88 
L 1667.0138 229.064974 
L 1651.36045 229.064974 
z
" style="opacity:0.3;stroke:#000000;stroke-linejoin:miter;"/>
   </g>
   <g id="patch_106">
    <path clip-path="url(#pe9bf173472)" d="M 1667.0138 232.88 
L 1682.66715 232.88 
L 1682.66715 228.21719 
L 1667.0138 228.21719 
z
" style="opacity:0.3;stroke:#000000;stroke-linejoin:miter;"/>
   </g>
   <g id="patch_107">
    <path clip-path="url(#pe9bf173472)" d="M 1682.66715 232.88 
L 1698.3205 232.88 
L 1698.3205 228.641082 
L 1682.66715 228.641082 
z
" style="opacity:0.3;stroke:#000000;stroke-linejoin:miter;"/>
   </g>
   <g id="patch_108">
    <path clip-path="url(#pe9bf173472)" d="M 1698.3205 232.88 
L 1713.97385 232.88 
L 1713.97385 227.793298 
L 1698.3205 227.793298 
z
" style="opacity:0.3;stroke:#000000;stroke-linejoin:miter;"/>
   </g>
   <g id="patch_109">
    <path clip-path="url(#pe9bf173472)" d="M 1713.97385 232.88 
L 1729.6272 232.88 
L 1729.6272 229.064974 
L 1713.97385 229.064974 
z
" style="opacity:0.3;stroke:#000000;stroke-linejoin:miter;"/>
   </g>
   <g id="patch_110">
    <path clip-path="url(#pe9bf173472)" d="M 1729.6272 232.88 
L 1745.28055 232.88 
L 1745.28055 228.641082 
L 1729.6272 228.641082 
z
" style="opacity:0.3;stroke:#000000;stroke-linejoin:miter;"/>
   </g>
   <g id="patch_111">
    <path clip-path="url(#pe9bf173472)" d="M 1745.28055 232.88 
L 1760.9339 232.88 
L 1760.9339 229.912757 
L 1745.28055 229.912757 
z
" style="opacity:0.3;stroke:#000000;stroke-linejoin:miter;"/>
   </g>
   <g id="patch_112">
    <path clip-path="url(#pe9bf173472)" d="M 1760.9339 232.88 
L 1776.58725 232.88 
L 1776.58725 228.641082 
L 1760.9339 228.641082 
z
" style="opacity:0.3;stroke:#000000;stroke-linejoin:miter;"/>
   </g>
   <g id="patch_113">
    <path clip-path="url(#pe9bf173472)" d="M 1776.58725 232.88 
L 1792.2406 232.88 
L 1792.2406 229.912757 
L 1776.58725 229.912757 
z
" style="opacity:0.3;stroke:#000000;stroke-linejoin:miter;"/>
   </g>
   <g id="patch_114">
    <path clip-path="url(#pe9bf173472)" d="M 1792.2406 232.88 
L 1807.89395 232.88 
L 1807.89395 230.760541 
L 1792.2406 230.760541 
z
" style="opacity:0.3;stroke:#000000;stroke-linejoin:miter;"/>
   </g>
   <g id="patch_115">
    <path clip-path="url(#pe9bf173472)" d="M 1807.89395 232.88 
L 1823.5473 232.88 
L 1823.5473 228.641082 
L 1807.89395 228.641082 
z
" style="opacity:0.3;stroke:#000000;stroke-linejoin:miter;"/>
   </g>
   <g id="patch_116">
    <path clip-path="url(#pe9bf173472)" d="M 1823.5473 232.88 
L 1839.20065 232.88 
L 1839.20065 229.488866 
L 1823.5473 229.488866 
z
" style="opacity:0.3;stroke:#000000;stroke-linejoin:miter;"/>
   </g>
   <g id="patch_117">
    <path clip-path="url(#pe9bf173472)" d="M 1839.20065 232.88 
L 1854.854 232.88 
L 1854.854 228.641082 
L 1839.20065 228.641082 
z
" style="opacity:0.3;stroke:#000000;stroke-linejoin:miter;"/>
   </g>
   <g id="patch_118">
    <path clip-path="url(#pe9bf173472)" d="M 1854.854 232.88 
L 1870.50735 232.88 
L 1870.50735 230.760541 
L 1854.854 230.760541 
z
" style="opacity:0.3;stroke:#000000;stroke-linejoin:miter;"/>
   </g>
   <g id="patch_119">
    <path clip-path="url(#pe9bf173472)" d="M 1870.50735 232.88 
L 1886.1607 232.88 
L 1886.1607 229.912757 
L 1870.50735 229.912757 
z
" style="opacity:0.3;stroke:#000000;stroke-linejoin:miter;"/>
   </g>
   <g id="patch_120">
    <path clip-path="url(#pe9bf173472)" d="M 1886.1607 232.88 
L 1901.81405 232.88 
L 1901.81405 231.184433 
L 1886.1607 231.184433 
z
" style="opacity:0.3;stroke:#000000;stroke-linejoin:miter;"/>
   </g>
   <g id="patch_121">
    <path clip-path="url(#pe9bf173472)" d="M 1901.81405 232.88 
L 1917.4674 232.88 
L 1917.4674 229.488866 
L 1901.81405 229.488866 
z
" style="opacity:0.3;stroke:#000000;stroke-linejoin:miter;"/>
   </g>
   <g id="patch_122">
    <path clip-path="url(#pe9bf173472)" d="M 1917.4674 232.88 
L 1933.12075 232.88 
L 1933.12075 228.641082 
L 1917.4674 228.641082 
z
" style="opacity:0.3;stroke:#000000;stroke-linejoin:miter;"/>
   </g>
   <g id="patch_123">
    <path clip-path="url(#pe9bf173472)" d="M 1933.12075 232.88 
L 1948.7741 232.88 
L 1948.7741 231.184433 
L 1933.12075 231.184433 
z
" style="opacity:0.3;stroke:#000000;stroke-linejoin:miter;"/>
   </g>
   <g id="patch_124">
    <path clip-path="url(#pe9bf173472)" d="M 1948.7741 232.88 
L 1964.42745 232.88 
L 1964.42745 230.336649 
L 1948.7741 230.336649 
z
" style="opacity:0.3;stroke:#000000;stroke-linejoin:miter;"/>
   </g>
   <g id="patch_125">
    <path clip-path="url(#pe9bf173472)" d="M 1964.42745 232.88 
L 1980.0808 232.88 
L 1980.0808 230.760541 
L 1964.42745 230.760541 
z
" style="opacity:0.3;stroke:#000000;stroke-linejoin:miter;"/>
   </g>
   <g id="patch_126">
    <path clip-path="url(#pe9bf173472)" d="M 1980.0808 232.88 
L 1995.73415 232.88 
L 1995.73415 230.760541 
L 1980.0808 230.760541 
z
" style="opacity:0.3;stroke:#000000;stroke-linejoin:miter;"/>
   </g>
   <g id="patch_127">
    <path clip-path="url(#pe9bf173472)" d="M 1995.73415 232.88 
L 2011.3875 232.88 
L 2011.3875 229.064974 
L 1995.73415 229.064974 
z
" style="opacity:0.3;stroke:#000000;stroke-linejoin:miter;"/>
   </g>
   <g id="patch_128">
    <path clip-path="url(#pe9bf173472)" d="M 2011.3875 232.88 
L 2027.04085 232.88 
L 2027.04085 230.760541 
L 2011.3875 230.760541 
z
" style="opacity:0.3;stroke:#000000;stroke-linejoin:miter;"/>
   </g>
   <g id="patch_129">
    <path clip-path="url(#pe9bf173472)" d="M 2027.04085 232.88 
L 2042.6942 232.88 
L 2042.6942 230.760541 
L 2027.04085 230.760541 
z
" style="opacity:0.3;stroke:#000000;stroke-linejoin:miter;"/>
   </g>
   <g id="patch_130">
    <path clip-path="url(#pe9bf173472)" d="M 2042.6942 232.88 
L 2058.34755 232.88 
L 2058.34755 231.184433 
L 2042.6942 231.184433 
z
" style="opacity:0.3;stroke:#000000;stroke-linejoin:miter;"/>
   </g>
   <g id="patch_131">
    <path clip-path="url(#pe9bf173472)" d="M 2058.34755 232.88 
L 2074.0009 232.88 
L 2074.0009 231.184433 
L 2058.34755 231.184433 
z
" style="opacity:0.3;stroke:#000000;stroke-linejoin:miter;"/>
   </g>
   <g id="patch_132">
    <path clip-path="url(#pe9bf173472)" d="M 2074.0009 232.88 
L 2089.65425 232.88 
L 2089.65425 230.760541 
L 2074.0009 230.760541 
z
" style="opacity:0.3;stroke:#000000;stroke-linejoin:miter;"/>
   </g>
   <g id="patch_133">
    <path clip-path="url(#pe9bf173472)" d="M 2089.65425 232.88 
L 2105.3076 232.88 
L 2105.3076 232.032216 
L 2089.65425 232.032216 
z
" style="opacity:0.3;stroke:#000000;stroke-linejoin:miter;"/>
   </g>
   <g id="patch_134">
    <path clip-path="url(#pe9bf173472)" d="M 2105.3076 232.88 
L 2120.96095 232.88 
L 2120.96095 232.456108 
L 2105.3076 232.456108 
z
" style="opacity:0.3;stroke:#000000;stroke-linejoin:miter;"/>
   </g>
   <g id="patch_135">
    <path clip-path="url(#pe9bf173472)" d="M 2120.96095 232.88 
L 2136.6143 232.88 
L 2136.6143 232.032216 
L 2120.96095 232.032216 
z
" style="opacity:0.3;stroke:#000000;stroke-linejoin:miter;"/>
   </g>
   <g id="patch_136">
    <path clip-path="url(#pe9bf173472)" d="M 2136.6143 232.88 
L 2152.26765 232.88 
L 2152.26765 232.032216 
L 2136.6143 232.032216 
z
" style="opacity:0.3;stroke:#000000;stroke-linejoin:miter;"/>
   </g>
   <g id="patch_137">
    <path clip-path="url(#pe9bf173472)" d="M 2152.26765 232.88 
L 2167.921 232.88 
L 2167.921 231.608325 
L 2152.26765 231.608325 
z
" style="opacity:0.3;stroke:#000000;stroke-linejoin:miter;"/>
   </g>
   <g id="patch_138">
    <path clip-path="url(#pe9bf173472)" d="M 2167.921 232.88 
L 2183.57435 232.88 
L 2183.57435 231.608325 
L 2167.921 231.608325 
z
" style="opacity:0.3;stroke:#000000;stroke-linejoin:miter;"/>
   </g>
   <g id="patch_139">
    <path clip-path="url(#pe9bf173472)" d="M 2183.57435 232.88 
L 2199.2277 232.88 
L 2199.2277 231.608325 
L 2183.57435 231.608325 
z
" style="opacity:0.3;stroke:#000000;stroke-linejoin:miter;"/>
   </g>
   <g id="patch_140">
    <path clip-path="url(#pe9bf173472)" d="M 2199.2277 232.88 
L 2214.88105 232.88 
L 2214.88105 231.184433 
L 2199.2277 231.184433 
z
" style="opacity:0.3;stroke:#000000;stroke-linejoin:miter;"/>
   </g>
   <g id="patch_141">
    <path clip-path="url(#pe9bf173472)" d="M 2214.88105 232.88 
L 2230.5344 232.88 
L 2230.5344 231.608325 
L 2214.88105 231.608325 
z
" style="opacity:0.3;stroke:#000000;stroke-linejoin:miter;"/>
   </g>
   <g id="patch_142">
    <path clip-path="url(#pe9bf173472)" d="M 2230.5344 232.88 
L 2246.18775 232.88 
L 2246.18775 230.760541 
L 2230.5344 230.760541 
z
" style="opacity:0.3;stroke:#000000;stroke-linejoin:miter;"/>
   </g>
   <g id="patch_143">
    <path clip-path="url(#pe9bf173472)" d="M 2246.18775 232.88 
L 2261.8411 232.88 
L 2261.8411 232.032216 
L 2246.18775 232.032216 
z
" style="opacity:0.3;stroke:#000000;stroke-linejoin:miter;"/>
   </g>
   <g id="patch_144">
    <path clip-path="url(#pe9bf173472)" d="M 2261.8411 232.88 
L 2277.49445 232.88 
L 2277.49445 230.760541 
L 2261.8411 230.760541 
z
" style="opacity:0.3;stroke:#000000;stroke-linejoin:miter;"/>
   </g>
   <g id="patch_145">
    <path clip-path="url(#pe9bf173472)" d="M 2277.49445 232.88 
L 2293.1478 232.88 
L 2293.1478 232.032216 
L 2277.49445 232.032216 
z
" style="opacity:0.3;stroke:#000000;stroke-linejoin:miter;"/>
   </g>
   <g id="patch_146">
    <path clip-path="url(#pe9bf173472)" d="M 2293.1478 232.88 
L 2308.80115 232.88 
L 2308.80115 231.184433 
L 2293.1478 231.184433 
z
" style="opacity:0.3;stroke:#000000;stroke-linejoin:miter;"/>
   </g>
   <g id="patch_147">
    <path clip-path="url(#pe9bf173472)" d="M 2308.80115 232.88 
L 2324.4545 232.88 
L 2324.4545 232.456108 
L 2308.80115 232.456108 
z
" style="opacity:0.3;stroke:#000000;stroke-linejoin:miter;"/>
   </g>
   <g id="patch_148">
    <path clip-path="url(#pe9bf173472)" d="M 2324.4545 232.88 
L 2340.10785 232.88 
L 2340.10785 230.760541 
L 2324.4545 230.760541 
z
" style="opacity:0.3;stroke:#000000;stroke-linejoin:miter;"/>
   </g>
   <g id="patch_149">
    <path clip-path="url(#pe9bf173472)" d="M 2340.10785 232.88 
L 2355.7612 232.88 
L 2355.7612 231.184433 
L 2340.10785 231.184433 
z
" style="opacity:0.3;stroke:#000000;stroke-linejoin:miter;"/>
   </g>
   <g id="patch_150">
    <path clip-path="url(#pe9bf173472)" d="M 2355.7612 232.88 
L 2371.41455 232.88 
L 2371.41455 231.184433 
L 2355.7612 231.184433 
z
" style="opacity:0.3;stroke:#000000;stroke-linejoin:miter;"/>
   </g>
   <g id="patch_151">
    <path clip-path="url(#pe9bf173472)" d="M 2371.41455 232.88 
L 2387.0679 232.88 
L 2387.0679 232.032216 
L 2371.41455 232.032216 
z
" style="opacity:0.3;stroke:#000000;stroke-linejoin:miter;"/>
   </g>
   <g id="patch_152">
    <path clip-path="url(#pe9bf173472)" d="M 2387.0679 232.88 
L 2402.72125 232.88 
L 2402.72125 232.032216 
L 2387.0679 232.032216 
z
" style="opacity:0.3;stroke:#000000;stroke-linejoin:miter;"/>
   </g>
   <g id="patch_153">
    <path clip-path="url(#pe9bf173472)" d="M 2402.72125 232.88 
L 2418.3746 232.88 
L 2418.3746 230.336649 
L 2402.72125 230.336649 
z
" style="opacity:0.3;stroke:#000000;stroke-linejoin:miter;"/>
   </g>
   <g id="patch_154">
    <path clip-path="url(#pe9bf173472)" d="M 2418.3746 232.88 
L 2434.02795 232.88 
L 2434.02795 230.760541 
L 2418.3746 230.760541 
z
" style="opacity:0.3;stroke:#000000;stroke-linejoin:miter;"/>
   </g>
   <g id="patch_155">
    <path clip-path="url(#pe9bf173472)" d="M 2434.02795 232.88 
L 2449.6813 232.88 
L 2449.6813 232.88 
L 2434.02795 232.88 
z
" style="opacity:0.3;stroke:#000000;stroke-linejoin:miter;"/>
   </g>
   <g id="patch_156">
    <path clip-path="url(#pe9bf173472)" d="M 2449.6813 232.88 
L 2465.33465 232.88 
L 2465.33465 231.184433 
L 2449.6813 231.184433 
z
" style="opacity:0.3;stroke:#000000;stroke-linejoin:miter;"/>
   </g>
   <g id="patch_157">
    <path clip-path="url(#pe9bf173472)" d="M 2465.33465 232.88 
L 2480.988 232.88 
L 2480.988 231.184433 
L 2465.33465 231.184433 
z
" style="opacity:0.3;stroke:#000000;stroke-linejoin:miter;"/>
   </g>
   <g id="patch_158">
    <path clip-path="url(#pe9bf173472)" d="M 2480.988 232.88 
L 2496.64135 232.88 
L 2496.64135 232.032216 
L 2480.988 232.032216 
z
" style="opacity:0.3;stroke:#000000;stroke-linejoin:miter;"/>
   </g>
   <g id="patch_159">
    <path clip-path="url(#pe9bf173472)" d="M 2496.64135 232.88 
L 2512.2947 232.88 
L 2512.2947 231.608325 
L 2496.64135 231.608325 
z
" style="opacity:0.3;stroke:#000000;stroke-linejoin:miter;"/>
   </g>
   <g id="patch_160">
    <path clip-path="url(#pe9bf173472)" d="M 2512.2947 232.88 
L 2527.94805 232.88 
L 2527.94805 232.032216 
L 2512.2947 232.032216 
z
" style="opacity:0.3;stroke:#000000;stroke-linejoin:miter;"/>
   </g>
   <g id="patch_161">
    <path clip-path="url(#pe9bf173472)" d="M 2527.94805 232.88 
L 2543.6014 232.88 
L 2543.6014 231.184433 
L 2527.94805 231.184433 
z
" style="opacity:0.3;stroke:#000000;stroke-linejoin:miter;"/>
   </g>
   <g id="patch_162">
    <path clip-path="url(#pe9bf173472)" d="M 2543.6014 232.88 
L 2559.25475 232.88 
L 2559.25475 231.608325 
L 2543.6014 231.608325 
z
" style="opacity:0.3;stroke:#000000;stroke-linejoin:miter;"/>
   </g>
   <g id="patch_163">
    <path clip-path="url(#pe9bf173472)" d="M 2559.25475 232.88 
L 2574.9081 232.88 
L 2574.9081 231.184433 
L 2559.25475 231.184433 
z
" style="opacity:0.3;stroke:#000000;stroke-linejoin:miter;"/>
   </g>
   <g id="patch_164">
    <path clip-path="url(#pe9bf173472)" d="M 2574.9081 232.88 
L 2590.56145 232.88 
L 2590.56145 232.456108 
L 2574.9081 232.456108 
z
" style="opacity:0.3;stroke:#000000;stroke-linejoin:miter;"/>
   </g>
   <g id="patch_165">
    <path clip-path="url(#pe9bf173472)" d="M 2590.56145 232.88 
L 2606.2148 232.88 
L 2606.2148 232.456108 
L 2590.56145 232.456108 
z
" style="opacity:0.3;stroke:#000000;stroke-linejoin:miter;"/>
   </g>
   <g id="patch_166">
    <path clip-path="url(#pe9bf173472)" d="M 2606.2148 232.88 
L 2621.86815 232.88 
L 2621.86815 232.456108 
L 2606.2148 232.456108 
z
" style="opacity:0.3;stroke:#000000;stroke-linejoin:miter;"/>
   </g>
   <g id="patch_167">
    <path clip-path="url(#pe9bf173472)" d="M 2621.86815 232.88 
L 2637.5215 232.88 
L 2637.5215 232.88 
L 2621.86815 232.88 
z
" style="opacity:0.3;stroke:#000000;stroke-linejoin:miter;"/>
   </g>
   <g id="patch_168">
    <path clip-path="url(#pe9bf173472)" d="M 2637.5215 232.88 
L 2653.17485 232.88 
L 2653.17485 232.88 
L 2637.5215 232.88 
z
" style="opacity:0.3;stroke:#000000;stroke-linejoin:miter;"/>
   </g>
   <g id="patch_169">
    <path clip-path="url(#pe9bf173472)" d="M 2653.17485 232.88 
L 2668.8282 232.88 
L 2668.8282 232.032216 
L 2653.17485 232.032216 
z
" style="opacity:0.3;stroke:#000000;stroke-linejoin:miter;"/>
   </g>
   <g id="patch_170">
    <path clip-path="url(#pe9bf173472)" d="M 2668.8282 232.88 
L 2684.48155 232.88 
L 2684.48155 232.88 
L 2668.8282 232.88 
z
" style="opacity:0.3;stroke:#000000;stroke-linejoin:miter;"/>
   </g>
   <g id="patch_171">
    <path clip-path="url(#pe9bf173472)" d="M 2684.48155 232.88 
L 2700.1349 232.88 
L 2700.1349 232.032216 
L 2684.48155 232.032216 
z
" style="opacity:0.3;stroke:#000000;stroke-linejoin:miter;"/>
   </g>
   <g id="patch_172">
    <path clip-path="url(#pe9bf173472)" d="M 2700.1349 232.88 
L 2715.78825 232.88 
L 2715.78825 232.456108 
L 2700.1349 232.456108 
z
" style="opacity:0.3;stroke:#000000;stroke-linejoin:miter;"/>
   </g>
   <g id="patch_173">
    <path clip-path="url(#pe9bf173472)" d="M 2715.78825 232.88 
L 2731.4416 232.88 
L 2731.4416 232.032216 
L 2715.78825 232.032216 
z
" style="opacity:0.3;stroke:#000000;stroke-linejoin:miter;"/>
   </g>
   <g id="patch_174">
    <path clip-path="url(#pe9bf173472)" d="M 2731.4416 232.88 
L 2747.09495 232.88 
L 2747.09495 232.456108 
L 2731.4416 232.456108 
z
" style="opacity:0.3;stroke:#000000;stroke-linejoin:miter;"/>
   </g>
   <g id="patch_175">
    <path clip-path="url(#pe9bf173472)" d="M 2747.09495 232.88 
L 2762.7483 232.88 
L 2762.7483 230.760541 
L 2747.09495 230.760541 
z
" style="opacity:0.3;stroke:#000000;stroke-linejoin:miter;"/>
   </g>
   <g id="patch_176">
    <path clip-path="url(#pe9bf173472)" d="M 2762.7483 232.88 
L 2778.40165 232.88 
L 2778.40165 232.456108 
L 2762.7483 232.456108 
z
" style="opacity:0.3;stroke:#000000;stroke-linejoin:miter;"/>
   </g>
   <g id="patch_177">
    <path clip-path="url(#pe9bf173472)" d="M 2778.40165 232.88 
L 2794.055 232.88 
L 2794.055 232.88 
L 2778.40165 232.88 
z
" style="opacity:0.3;stroke:#000000;stroke-linejoin:miter;"/>
   </g>
   <g id="patch_178">
    <path clip-path="url(#pe9bf173472)" d="M 2794.055 232.88 
L 2809.70835 232.88 
L 2809.70835 232.456108 
L 2794.055 232.456108 
z
" style="opacity:0.3;stroke:#000000;stroke-linejoin:miter;"/>
   </g>
   <g id="patch_179">
    <path clip-path="url(#pe9bf173472)" d="M 2809.70835 232.88 
L 2825.3617 232.88 
L 2825.3617 232.88 
L 2809.70835 232.88 
z
" style="opacity:0.3;stroke:#000000;stroke-linejoin:miter;"/>
   </g>
   <g id="patch_180">
    <path clip-path="url(#pe9bf173472)" d="M 2825.3617 232.88 
L 2841.01505 232.88 
L 2841.01505 232.032216 
L 2825.3617 232.032216 
z
" style="opacity:0.3;stroke:#000000;stroke-linejoin:miter;"/>
   </g>
   <g id="patch_181">
    <path clip-path="url(#pe9bf173472)" d="M 2841.01505 232.88 
L 2856.6684 232.88 
L 2856.6684 232.88 
L 2841.01505 232.88 
z
" style="opacity:0.3;stroke:#000000;stroke-linejoin:miter;"/>
   </g>
   <g id="patch_182">
    <path clip-path="url(#pe9bf173472)" d="M 2856.6684 232.88 
L 2872.32175 232.88 
L 2872.32175 232.456108 
L 2856.6684 232.456108 
z
" style="opacity:0.3;stroke:#000000;stroke-linejoin:miter;"/>
   </g>
   <g id="patch_183">
    <path clip-path="url(#pe9bf173472)" d="M 2872.32175 232.88 
L 2887.9751 232.88 
L 2887.9751 232.032216 
L 2872.32175 232.032216 
z
" style="opacity:0.3;stroke:#000000;stroke-linejoin:miter;"/>
   </g>
   <g id="patch_184">
    <path clip-path="url(#pe9bf173472)" d="M 2887.9751 232.88 
L 2903.62845 232.88 
L 2903.62845 232.032216 
L 2887.9751 232.032216 
z
" style="opacity:0.3;stroke:#000000;stroke-linejoin:miter;"/>
   </g>
   <g id="patch_185">
    <path clip-path="url(#pe9bf173472)" d="M 2903.62845 232.88 
L 2919.2818 232.88 
L 2919.2818 232.88 
L 2903.62845 232.88 
z
" style="opacity:0.3;stroke:#000000;stroke-linejoin:miter;"/>
   </g>
   <g id="patch_186">
    <path clip-path="url(#pe9bf173472)" d="M 2919.2818 232.88 
L 2934.93515 232.88 
L 2934.93515 232.88 
L 2919.2818 232.88 
z
" style="opacity:0.3;stroke:#000000;stroke-linejoin:miter;"/>
   </g>
   <g id="patch_187">
    <path clip-path="url(#pe9bf173472)" d="M 2934.93515 232.88 
L 2950.5885 232.88 
L 2950.5885 232.456108 
L 2934.93515 232.456108 
z
" style="opacity:0.3;stroke:#000000;stroke-linejoin:miter;"/>
   </g>
   <g id="patch_188">
    <path clip-path="url(#pe9bf173472)" d="M 2950.5885 232.88 
L 2966.24185 232.88 
L 2966.24185 232.88 
L 2950.5885 232.88 
z
" style="opacity:0.3;stroke:#000000;stroke-linejoin:miter;"/>
   </g>
   <g id="patch_189">
    <path clip-path="url(#pe9bf173472)" d="M 2966.24185 232.88 
L 2981.8952 232.88 
L 2981.8952 232.88 
L 2966.24185 232.88 
z
" style="opacity:0.3;stroke:#000000;stroke-linejoin:miter;"/>
   </g>
   <g id="patch_190">
    <path clip-path="url(#pe9bf173472)" d="M 2981.8952 232.88 
L 2997.54855 232.88 
L 2997.54855 232.88 
L 2981.8952 232.88 
z
" style="opacity:0.3;stroke:#000000;stroke-linejoin:miter;"/>
   </g>
   <g id="patch_191">
    <path clip-path="url(#pe9bf173472)" d="M 2997.54855 232.88 
L 3013.2019 232.88 
L 3013.2019 232.032216 
L 2997.54855 232.032216 
z
" style="opacity:0.3;stroke:#000000;stroke-linejoin:miter;"/>
   </g>
   <g id="patch_192">
    <path clip-path="url(#pe9bf173472)" d="M 3013.2019 232.88 
L 3028.85525 232.88 
L 3028.85525 232.456108 
L 3013.2019 232.456108 
z
" style="opacity:0.3;stroke:#000000;stroke-linejoin:miter;"/>
   </g>
   <g id="patch_193">
    <path clip-path="url(#pe9bf173472)" d="M 3028.85525 232.88 
L 3044.5086 232.88 
L 3044.5086 232.032216 
L 3028.85525 232.032216 
z
" style="opacity:0.3;stroke:#000000;stroke-linejoin:miter;"/>
   </g>
   <g id="patch_194">
    <path clip-path="url(#pe9bf173472)" d="M 3044.5086 232.88 
L 3060.16195 232.88 
L 3060.16195 232.456108 
L 3044.5086 232.456108 
z
" style="opacity:0.3;stroke:#000000;stroke-linejoin:miter;"/>
   </g>
   <g id="patch_195">
    <path clip-path="url(#pe9bf173472)" d="M 3060.16195 232.88 
L 3075.8153 232.88 
L 3075.8153 232.456108 
L 3060.16195 232.456108 
z
" style="opacity:0.3;stroke:#000000;stroke-linejoin:miter;"/>
   </g>
   <g id="patch_196">
    <path clip-path="url(#pe9bf173472)" d="M 3075.8153 232.88 
L 3091.46865 232.88 
L 3091.46865 232.456108 
L 3075.8153 232.456108 
z
" style="opacity:0.3;stroke:#000000;stroke-linejoin:miter;"/>
   </g>
   <g id="patch_197">
    <path clip-path="url(#pe9bf173472)" d="M 3091.46865 232.88 
L 3107.122 232.88 
L 3107.122 232.456108 
L 3091.46865 232.456108 
z
" style="opacity:0.3;stroke:#000000;stroke-linejoin:miter;"/>
   </g>
   <g id="patch_198">
    <path clip-path="url(#pe9bf173472)" d="M 3107.122 232.88 
L 3122.77535 232.88 
L 3122.77535 232.456108 
L 3107.122 232.456108 
z
" style="opacity:0.3;stroke:#000000;stroke-linejoin:miter;"/>
   </g>
   <g id="patch_199">
    <path clip-path="url(#pe9bf173472)" d="M 3122.77535 232.88 
L 3138.4287 232.88 
L 3138.4287 232.88 
L 3122.77535 232.88 
z
" style="opacity:0.3;stroke:#000000;stroke-linejoin:miter;"/>
   </g>
   <g id="patch_200">
    <path clip-path="url(#pe9bf173472)" d="M 3138.4287 232.88 
L 3154.08205 232.88 
L 3154.08205 232.032216 
L 3138.4287 232.032216 
z
" style="opacity:0.3;stroke:#000000;stroke-linejoin:miter;"/>
   </g>
   <g id="patch_201">
    <path clip-path="url(#pe9bf173472)" d="M 3154.08205 232.88 
L 3169.7354 232.88 
L 3169.7354 232.032216 
L 3154.08205 232.032216 
z
" style="opacity:0.3;stroke:#000000;stroke-linejoin:miter;"/>
   </g>
   <g id="patch_202">
    <path clip-path="url(#pe9bf173472)" d="M 3169.7354 232.88 
L 3185.38875 232.88 
L 3185.38875 232.88 
L 3169.7354 232.88 
z
" style="opacity:0.3;stroke:#000000;stroke-linejoin:miter;"/>
   </g>
   <g id="patch_203">
    <path clip-path="url(#pe9bf173472)" d="M 3185.38875 232.88 
L 3201.0421 232.88 
L 3201.0421 232.88 
L 3185.38875 232.88 
z
" style="opacity:0.3;stroke:#000000;stroke-linejoin:miter;"/>
   </g>
   <g id="patch_204">
    <path clip-path="url(#pe9bf173472)" d="M 3201.0421 232.88 
L 3216.69545 232.88 
L 3216.69545 232.032216 
L 3201.0421 232.032216 
z
" style="opacity:0.3;stroke:#000000;stroke-linejoin:miter;"/>
   </g>
   <g id="patch_205">
    <path clip-path="url(#pe9bf173472)" d="M 3216.69545 232.88 
L 3232.3488 232.88 
L 3232.3488 232.88 
L 3216.69545 232.88 
z
" style="opacity:0.3;stroke:#000000;stroke-linejoin:miter;"/>
   </g>
   <g id="patch_206">
    <path clip-path="url(#pe9bf173472)" d="M 3232.3488 232.88 
L 3248.00215 232.88 
L 3248.00215 232.88 
L 3232.3488 232.88 
z
" style="opacity:0.3;stroke:#000000;stroke-linejoin:miter;"/>
   </g>
   <g id="patch_207">
    <path clip-path="url(#pe9bf173472)" d="M 3248.00215 232.88 
L 3263.6555 232.88 
L 3263.6555 232.456108 
L 3248.00215 232.456108 
z
" style="opacity:0.3;stroke:#000000;stroke-linejoin:miter;"/>
   </g>
   <g id="patch_208">
    <path clip-path="url(#pe9bf173472)" d="M 3263.6555 232.88 
L 3279.30885 232.88 
L 3279.30885 232.456108 
L 3263.6555 232.456108 
z
" style="opacity:0.3;stroke:#000000;stroke-linejoin:miter;"/>
   </g>
   <g id="patch_209">
    <path clip-path="url(#pe9bf173472)" d="M 3279.30885 232.88 
L 3294.9622 232.88 
L 3294.9622 232.032216 
L 3279.30885 232.032216 
z
" style="opacity:0.3;stroke:#000000;stroke-linejoin:miter;"/>
   </g>
   <g id="patch_210">
    <path clip-path="url(#pe9bf173472)" d="M 3294.9622 232.88 
L 3310.61555 232.88 
L 3310.61555 231.608325 
L 3294.9622 231.608325 
z
" style="opacity:0.3;stroke:#000000;stroke-linejoin:miter;"/>
   </g>
   <g id="patch_211">
    <path clip-path="url(#pe9bf173472)" d="M 3310.61555 232.88 
L 3326.2689 232.88 
L 3326.2689 232.032216 
L 3310.61555 232.032216 
z
" style="opacity:0.3;stroke:#000000;stroke-linejoin:miter;"/>
   </g>
   <g id="patch_212">
    <path clip-path="url(#pe9bf173472)" d="M 3326.2689 232.88 
L 3341.92225 232.88 
L 3341.92225 232.456108 
L 3326.2689 232.456108 
z
" style="opacity:0.3;stroke:#000000;stroke-linejoin:miter;"/>
   </g>
   <g id="patch_213">
    <path clip-path="url(#pe9bf173472)" d="M 3341.92225 232.88 
L 3357.5756 232.88 
L 3357.5756 232.88 
L 3341.92225 232.88 
z
" style="opacity:0.3;stroke:#000000;stroke-linejoin:miter;"/>
   </g>
   <g id="patch_214">
    <path clip-path="url(#pe9bf173472)" d="M 3357.5756 232.88 
L 3373.22895 232.88 
L 3373.22895 232.032216 
L 3357.5756 232.032216 
z
" style="opacity:0.3;stroke:#000000;stroke-linejoin:miter;"/>
   </g>
   <g id="patch_215">
    <path clip-path="url(#pe9bf173472)" d="M 3373.22895 232.88 
L 3388.8823 232.88 
L 3388.8823 232.88 
L 3373.22895 232.88 
z
" style="opacity:0.3;stroke:#000000;stroke-linejoin:miter;"/>
   </g>
   <g id="patch_216">
    <path clip-path="url(#pe9bf173472)" d="M 3388.8823 232.88 
L 3404.53565 232.88 
L 3404.53565 232.88 
L 3388.8823 232.88 
z
" style="opacity:0.3;stroke:#000000;stroke-linejoin:miter;"/>
   </g>
   <g id="patch_217">
    <path clip-path="url(#pe9bf173472)" d="M 3404.53565 232.88 
L 3420.189 232.88 
L 3420.189 232.032216 
L 3404.53565 232.032216 
z
" style="opacity:0.3;stroke:#000000;stroke-linejoin:miter;"/>
   </g>
   <g id="patch_218">
    <path clip-path="url(#pe9bf173472)" d="M 3420.189 232.88 
L 3435.84235 232.88 
L 3435.84235 232.88 
L 3420.189 232.88 
z
" style="opacity:0.3;stroke:#000000;stroke-linejoin:miter;"/>
   </g>
   <g id="patch_219">
    <path clip-path="url(#pe9bf173472)" d="M 3435.84235 232.88 
L 3451.4957 232.88 
L 3451.4957 232.88 
L 3435.84235 232.88 
z
" style="opacity:0.3;stroke:#000000;stroke-linejoin:miter;"/>
   </g>
   <g id="patch_220">
    <path clip-path="url(#pe9bf173472)" d="M 3451.4957 232.88 
L 3467.14905 232.88 
L 3467.14905 232.88 
L 3451.4957 232.88 
z
" style="opacity:0.3;stroke:#000000;stroke-linejoin:miter;"/>
   </g>
   <g id="patch_221">
    <path clip-path="url(#pe9bf173472)" d="M 3467.14905 232.88 
L 3482.8024 232.88 
L 3482.8024 232.88 
L 3467.14905 232.88 
z
" style="opacity:0.3;stroke:#000000;stroke-linejoin:miter;"/>
   </g>
   <g id="patch_222">
    <path clip-path="url(#pe9bf173472)" d="M 3482.8024 232.88 
L 3498.45575 232.88 
L 3498.45575 232.88 
L 3482.8024 232.88 
z
" style="opacity:0.3;stroke:#000000;stroke-linejoin:miter;"/>
   </g>
   <g id="patch_223">
    <path clip-path="url(#pe9bf173472)" d="M 3498.45575 232.88 
L 3514.1091 232.88 
L 3514.1091 232.456108 
L 3498.45575 232.456108 
z
" style="opacity:0.3;stroke:#000000;stroke-linejoin:miter;"/>
   </g>
   <g id="patch_224">
    <path clip-path="url(#pe9bf173472)" d="M 3514.1091 232.88 
L 3529.76245 232.88 
L 3529.76245 232.456108 
L 3514.1091 232.456108 
z
" style="opacity:0.3;stroke:#000000;stroke-linejoin:miter;"/>
   </g>
   <g id="patch_225">
    <path clip-path="url(#pe9bf173472)" d="M 3529.76245 232.88 
L 3545.4158 232.88 
L 3545.4158 232.88 
L 3529.76245 232.88 
z
" style="opacity:0.3;stroke:#000000;stroke-linejoin:miter;"/>
   </g>
   <g id="patch_226">
    <path clip-path="url(#pe9bf173472)" d="M 3545.4158 232.88 
L 3561.06915 232.88 
L 3561.06915 232.88 
L 3545.4158 232.88 
z
" style="opacity:0.3;stroke:#000000;stroke-linejoin:miter;"/>
   </g>
   <g id="patch_227">
    <path clip-path="url(#pe9bf173472)" d="M 3561.06915 232.88 
L 3576.7225 232.88 
L 3576.7225 232.88 
L 3561.06915 232.88 
z
" style="opacity:0.3;stroke:#000000;stroke-linejoin:miter;"/>
   </g>
   <g id="patch_228">
    <path clip-path="url(#pe9bf173472)" d="M 3576.7225 232.88 
L 3592.37585 232.88 
L 3592.37585 232.88 
L 3576.7225 232.88 
z
" style="opacity:0.3;stroke:#000000;stroke-linejoin:miter;"/>
   </g>
   <g id="patch_229">
    <path clip-path="url(#pe9bf173472)" d="M 3592.37585 232.88 
L 3608.0292 232.88 
L 3608.0292 232.88 
L 3592.37585 232.88 
z
" style="opacity:0.3;stroke:#000000;stroke-linejoin:miter;"/>
   </g>
   <g id="patch_230">
    <path clip-path="url(#pe9bf173472)" d="M 3608.0292 232.88 
L 3623.68255 232.88 
L 3623.68255 232.456108 
L 3608.0292 232.456108 
z
" style="opacity:0.3;stroke:#000000;stroke-linejoin:miter;"/>
   </g>
   <g id="patch_231">
    <path clip-path="url(#pe9bf173472)" d="M 3623.68255 232.88 
L 3639.3359 232.88 
L 3639.3359 232.88 
L 3623.68255 232.88 
z
" style="opacity:0.3;stroke:#000000;stroke-linejoin:miter;"/>
   </g>
   <g id="patch_232">
    <path clip-path="url(#pe9bf173472)" d="M 3639.3359 232.88 
L 3654.98925 232.88 
L 3654.98925 232.88 
L 3639.3359 232.88 
z
" style="opacity:0.3;stroke:#000000;stroke-linejoin:miter;"/>
   </g>
   <g id="patch_233">
    <path clip-path="url(#pe9bf173472)" d="M 3654.98925 232.88 
L 3670.6426 232.88 
L 3670.6426 232.456108 
L 3654.98925 232.456108 
z
" style="opacity:0.3;stroke:#000000;stroke-linejoin:miter;"/>
   </g>
   <g id="patch_234">
    <path clip-path="url(#pe9bf173472)" d="M 3670.6426 232.88 
L 3686.29595 232.88 
L 3686.29595 232.88 
L 3670.6426 232.88 
z
" style="opacity:0.3;stroke:#000000;stroke-linejoin:miter;"/>
   </g>
   <g id="patch_235">
    <path clip-path="url(#pe9bf173472)" d="M 3686.29595 232.88 
L 3701.9493 232.88 
L 3701.9493 232.88 
L 3686.29595 232.88 
z
" style="opacity:0.3;stroke:#000000;stroke-linejoin:miter;"/>
   </g>
   <g id="patch_236">
    <path clip-path="url(#pe9bf173472)" d="M 3701.9493 232.88 
L 3717.60265 232.88 
L 3717.60265 232.456108 
L 3701.9493 232.456108 
z
" style="opacity:0.3;stroke:#000000;stroke-linejoin:miter;"/>
   </g>
   <g id="patch_237">
    <path clip-path="url(#pe9bf173472)" d="M 3717.60265 232.88 
L 3733.256 232.88 
L 3733.256 232.032216 
L 3717.60265 232.032216 
z
" style="opacity:0.3;stroke:#000000;stroke-linejoin:miter;"/>
   </g>
   <g id="patch_238">
    <path clip-path="url(#pe9bf173472)" d="M 3733.256 232.88 
L 3748.90935 232.88 
L 3748.90935 232.88 
L 3733.256 232.88 
z
" style="opacity:0.3;stroke:#000000;stroke-linejoin:miter;"/>
   </g>
   <g id="patch_239">
    <path clip-path="url(#pe9bf173472)" d="M 3748.90935 232.88 
L 3764.5627 232.88 
L 3764.5627 232.88 
L 3748.90935 232.88 
z
" style="opacity:0.3;stroke:#000000;stroke-linejoin:miter;"/>
   </g>
   <g id="patch_240">
    <path clip-path="url(#pe9bf173472)" d="M 3764.5627 232.88 
L 3780.21605 232.88 
L 3780.21605 232.456108 
L 3764.5627 232.456108 
z
" style="opacity:0.3;stroke:#000000;stroke-linejoin:miter;"/>
   </g>
   <g id="patch_241">
    <path clip-path="url(#pe9bf173472)" d="M 3780.21605 232.88 
L 3795.8694 232.88 
L 3795.8694 232.88 
L 3780.21605 232.88 
z
" style="opacity:0.3;stroke:#000000;stroke-linejoin:miter;"/>
   </g>
   <g id="patch_242">
    <path clip-path="url(#pe9bf173472)" d="M 3795.8694 232.88 
L 3811.52275 232.88 
L 3811.52275 232.456108 
L 3795.8694 232.456108 
z
" style="opacity:0.3;stroke:#000000;stroke-linejoin:miter;"/>
   </g>
   <g id="patch_243">
    <path clip-path="url(#pe9bf173472)" d="M 3811.52275 232.88 
L 3827.1761 232.88 
L 3827.1761 232.88 
L 3811.52275 232.88 
z
" style="opacity:0.3;stroke:#000000;stroke-linejoin:miter;"/>
   </g>
   <g id="patch_244">
    <path clip-path="url(#pe9bf173472)" d="M 3827.1761 232.88 
L 3842.82945 232.88 
L 3842.82945 232.88 
L 3827.1761 232.88 
z
" style="opacity:0.3;stroke:#000000;stroke-linejoin:miter;"/>
   </g>
   <g id="patch_245">
    <path clip-path="url(#pe9bf173472)" d="M 3842.82945 232.88 
L 3858.4828 232.88 
L 3858.4828 232.88 
L 3842.82945 232.88 
z
" style="opacity:0.3;stroke:#000000;stroke-linejoin:miter;"/>
   </g>
   <g id="patch_246">
    <path clip-path="url(#pe9bf173472)" d="M 3858.4828 232.88 
L 3874.13615 232.88 
L 3874.13615 232.88 
L 3858.4828 232.88 
z
" style="opacity:0.3;stroke:#000000;stroke-linejoin:miter;"/>
   </g>
   <g id="patch_247">
    <path clip-path="url(#pe9bf173472)" d="M 3874.13615 232.88 
L 3889.7895 232.88 
L 3889.7895 232.88 
L 3874.13615 232.88 
z
" style="opacity:0.3;stroke:#000000;stroke-linejoin:miter;"/>
   </g>
   <g id="patch_248">
    <path clip-path="url(#pe9bf173472)" d="M 3889.7895 232.88 
L 3905.44285 232.88 
L 3905.44285 232.88 
L 3889.7895 232.88 
z
" style="opacity:0.3;stroke:#000000;stroke-linejoin:miter;"/>
   </g>
   <g id="patch_249">
    <path clip-path="url(#pe9bf173472)" d="M 3905.44285 232.88 
L 3921.0962 232.88 
L 3921.0962 232.88 
L 3905.44285 232.88 
z
" style="opacity:0.3;stroke:#000000;stroke-linejoin:miter;"/>
   </g>
   <g id="patch_250">
    <path clip-path="url(#pe9bf173472)" d="M 3921.0962 232.88 
L 3936.74955 232.88 
L 3936.74955 232.456108 
L 3921.0962 232.456108 
z
" style="opacity:0.3;stroke:#000000;stroke-linejoin:miter;"/>
   </g>
   <g id="patch_251">
    <path clip-path="url(#pe9bf173472)" d="M 3936.74955 232.88 
L 3952.4029 232.88 
L 3952.4029 232.88 
L 3936.74955 232.88 
z
" style="opacity:0.3;stroke:#000000;stroke-linejoin:miter;"/>
   </g>
   <g id="patch_252">
    <path clip-path="url(#pe9bf173472)" d="M 3952.4029 232.88 
L 3968.05625 232.88 
L 3968.05625 232.456108 
L 3952.4029 232.456108 
z
" style="opacity:0.3;stroke:#000000;stroke-linejoin:miter;"/>
   </g>
   <g id="line2d_1">
    <path clip-path="url(#pe9bf173472)" d="M 69.394457 -1 
L 70.3721 114.614185 
L 86.02545 184.556334 
L 101.6788 196.425304 
L 117.33215 210.837626 
L 132.9855 215.500436 
L 148.63885 212.957085 
L 164.2922 223.978272 
L 179.94555 222.282705 
L 195.5989 224.826056 
L 211.25225 219.739354 
L 226.9056 208.718167 
L 242.55895 186.251901 
L 258.2123 140.047693 
L 273.86565 98.506296 
L 289.519 68.409977 
L 305.17235 48.487062 
L 320.8257 31.955282 
L 336.47905 27.716364 
L 352.1324 35.770308 
L 367.78575 48.063171 
L 383.4391 65.442735 
L 399.09245 106.984132 
L 414.7458 143.438828 
L 430.39915 172.263471 
L 446.0525 192.610278 
L 461.70585 205.327032 
L 477.3592 211.261518 
L 493.01255 215.076544 
L 524.31925 221.011029 
L 539.9726 221.011029 
L 555.62595 215.076544 
L 571.2793 216.772111 
L 586.93265 209.989842 
L 602.586 204.90314 
L 618.23935 204.055357 
L 633.8927 191.338603 
L 649.54605 193.03417 
L 665.1994 186.251901 
L 680.85275 181.589091 
L 696.5061 190.914711 
L 712.15945 172.687363 
L 727.8128 187.523576 
L 743.46615 184.556334 
L 759.1195 201.935898 
L 774.77285 195.577521 
L 790.4262 200.664222 
L 806.07955 201.935898 
L 821.7329 207.0226 
L 837.38625 208.718167 
L 853.22125 214.263194 
L 853.22125 214.263194 
" style="fill:none;stroke:#000000;stroke-linecap:square;stroke-width:2.0;"/>
   </g>
   <g id="patch_253">
    <path d="M 54.71875 232.88 
L 837.38625 232.88 
" style="fill:none;stroke:#000000;stroke-linecap:square;stroke-linejoin:miter;"/>
   </g>
   <g id="patch_254">
    <path d="M 54.71875 232.88 
L 54.71875 7.2 
" style="fill:none;stroke:#000000;stroke-linecap:square;stroke-linejoin:miter;"/>
   </g>
   <g id="matplotlib.axis_1">
    <g id="xtick_1">
     <g id="line2d_2">
      <defs>
       <path d="M 0 0 
L 0 4 
" id="m338da53df0" style="stroke:#000000;stroke-width:0.5;"/>
      </defs>
      <g>
       <use style="stroke:#000000;stroke-width:0.5;" x="54.71875" xlink:href="#m338da53df0" y="232.88"/>
      </g>
     </g>
     <g id="text_1">
      <!-- 0 -->
      <defs>
       <path d="M 31.78125 66.40625 
Q 24.171875 66.40625 20.328125 58.90625 
Q 16.5 51.421875 16.5 36.375 
Q 16.5 21.390625 20.328125 13.890625 
Q 24.171875 6.390625 31.78125 6.390625 
Q 39.453125 6.390625 43.28125 13.890625 
Q 47.125 21.390625 47.125 36.375 
Q 47.125 51.421875 43.28125 58.90625 
Q 39.453125 66.40625 31.78125 66.40625 
M 31.78125 74.21875 
Q 44.046875 74.21875 50.515625 64.515625 
Q 56.984375 54.828125 56.984375 36.375 
Q 56.984375 17.96875 50.515625 8.265625 
Q 44.046875 -1.421875 31.78125 -1.421875 
Q 19.53125 -1.421875 13.0625 8.265625 
Q 6.59375 17.96875 6.59375 36.375 
Q 6.59375 54.828125 13.0625 64.515625 
Q 19.53125 74.21875 31.78125 74.21875 
" id="BitstreamVeraSans-Roman-30"/>
      </defs>
      <g transform="translate(50.90125 249.998125)scale(0.12 -0.12)">
       <use xlink:href="#BitstreamVeraSans-Roman-30"/>
      </g>
     </g>
    </g>
    <g id="xtick_2">
     <g id="line2d_3">
      <g>
       <use style="stroke:#000000;stroke-width:0.5;" x="211.25225" xlink:href="#m338da53df0" y="232.88"/>
      </g>
     </g>
     <g id="text_2">
      <!-- 10 -->
      <defs>
       <path d="M 12.40625 8.296875 
L 28.515625 8.296875 
L 28.515625 63.921875 
L 10.984375 60.40625 
L 10.984375 69.390625 
L 28.421875 72.90625 
L 38.28125 72.90625 
L 38.28125 8.296875 
L 54.390625 8.296875 
L 54.390625 0 
L 12.40625 0 
z
" id="BitstreamVeraSans-Roman-31"/>
      </defs>
      <g transform="translate(203.61725 249.998125)scale(0.12 -0.12)">
       <use xlink:href="#BitstreamVeraSans-Roman-31"/>
       <use x="63.623046875" xlink:href="#BitstreamVeraSans-Roman-30"/>
      </g>
     </g>
    </g>
    <g id="xtick_3">
     <g id="line2d_4">
      <g>
       <use style="stroke:#000000;stroke-width:0.5;" x="367.78575" xlink:href="#m338da53df0" y="232.88"/>
      </g>
     </g>
     <g id="text_3">
      <!-- 20 -->
      <defs>
       <path d="M 19.1875 8.296875 
L 53.609375 8.296875 
L 53.609375 0 
L 7.328125 0 
L 7.328125 8.296875 
Q 12.9375 14.109375 22.625 23.890625 
Q 32.328125 33.6875 34.8125 36.53125 
Q 39.546875 41.84375 41.421875 45.53125 
Q 43.3125 49.21875 43.3125 52.78125 
Q 43.3125 58.59375 39.234375 62.25 
Q 35.15625 65.921875 28.609375 65.921875 
Q 23.96875 65.921875 18.8125 64.3125 
Q 13.671875 62.703125 7.8125 59.421875 
L 7.8125 69.390625 
Q 13.765625 71.78125 18.9375 73 
Q 24.125 74.21875 28.421875 74.21875 
Q 39.75 74.21875 46.484375 68.546875 
Q 53.21875 62.890625 53.21875 53.421875 
Q 53.21875 48.921875 51.53125 44.890625 
Q 49.859375 40.875 45.40625 35.40625 
Q 44.1875 33.984375 37.640625 27.21875 
Q 31.109375 20.453125 19.1875 8.296875 
" id="BitstreamVeraSans-Roman-32"/>
      </defs>
      <g transform="translate(360.15075 249.998125)scale(0.12 -0.12)">
       <use xlink:href="#BitstreamVeraSans-Roman-32"/>
       <use x="63.623046875" xlink:href="#BitstreamVeraSans-Roman-30"/>
      </g>
     </g>
    </g>
    <g id="xtick_4">
     <g id="line2d_5">
      <g>
       <use style="stroke:#000000;stroke-width:0.5;" x="524.31925" xlink:href="#m338da53df0" y="232.88"/>
      </g>
     </g>
     <g id="text_4">
      <!-- 30 -->
      <defs>
       <path d="M 40.578125 39.3125 
Q 47.65625 37.796875 51.625 33 
Q 55.609375 28.21875 55.609375 21.1875 
Q 55.609375 10.40625 48.1875 4.484375 
Q 40.765625 -1.421875 27.09375 -1.421875 
Q 22.515625 -1.421875 17.65625 -0.515625 
Q 12.796875 0.390625 7.625 2.203125 
L 7.625 11.71875 
Q 11.71875 9.328125 16.59375 8.109375 
Q 21.484375 6.890625 26.8125 6.890625 
Q 36.078125 6.890625 40.9375 10.546875 
Q 45.796875 14.203125 45.796875 21.1875 
Q 45.796875 27.640625 41.28125 31.265625 
Q 36.765625 34.90625 28.71875 34.90625 
L 20.21875 34.90625 
L 20.21875 43.015625 
L 29.109375 43.015625 
Q 36.375 43.015625 40.234375 45.921875 
Q 44.09375 48.828125 44.09375 54.296875 
Q 44.09375 59.90625 40.109375 62.90625 
Q 36.140625 65.921875 28.71875 65.921875 
Q 24.65625 65.921875 20.015625 65.03125 
Q 15.375 64.15625 9.8125 62.3125 
L 9.8125 71.09375 
Q 15.4375 72.65625 20.34375 73.4375 
Q 25.25 74.21875 29.59375 74.21875 
Q 40.828125 74.21875 47.359375 69.109375 
Q 53.90625 64.015625 53.90625 55.328125 
Q 53.90625 49.265625 50.4375 45.09375 
Q 46.96875 40.921875 40.578125 39.3125 
" id="BitstreamVeraSans-Roman-33"/>
      </defs>
      <g transform="translate(516.68425 249.998125)scale(0.12 -0.12)">
       <use xlink:href="#BitstreamVeraSans-Roman-33"/>
       <use x="63.623046875" xlink:href="#BitstreamVeraSans-Roman-30"/>
      </g>
     </g>
    </g>
    <g id="xtick_5">
     <g id="line2d_6">
      <g>
       <use style="stroke:#000000;stroke-width:0.5;" x="680.85275" xlink:href="#m338da53df0" y="232.88"/>
      </g>
     </g>
     <g id="text_5">
      <!-- 40 -->
      <defs>
       <path d="M 37.796875 64.3125 
L 12.890625 25.390625 
L 37.796875 25.390625 
z
M 35.203125 72.90625 
L 47.609375 72.90625 
L 47.609375 25.390625 
L 58.015625 25.390625 
L 58.015625 17.1875 
L 47.609375 17.1875 
L 47.609375 0 
L 37.796875 0 
L 37.796875 17.1875 
L 4.890625 17.1875 
L 4.890625 26.703125 
z
" id="BitstreamVeraSans-Roman-34"/>
      </defs>
      <g transform="translate(673.21775 249.998125)scale(0.12 -0.12)">
       <use xlink:href="#BitstreamVeraSans-Roman-34"/>
       <use x="63.623046875" xlink:href="#BitstreamVeraSans-Roman-30"/>
      </g>
     </g>
    </g>
    <g id="xtick_6">
     <g id="line2d_7">
      <g>
       <use style="stroke:#000000;stroke-width:0.5;" x="837.38625" xlink:href="#m338da53df0" y="232.88"/>
      </g>
     </g>
     <g id="text_6">
      <!-- 50 -->
      <defs>
       <path d="M 10.796875 72.90625 
L 49.515625 72.90625 
L 49.515625 64.59375 
L 19.828125 64.59375 
L 19.828125 46.734375 
Q 21.96875 47.46875 24.109375 47.828125 
Q 26.265625 48.1875 28.421875 48.1875 
Q 40.625 48.1875 47.75 41.5 
Q 54.890625 34.8125 54.890625 23.390625 
Q 54.890625 11.625 47.5625 5.09375 
Q 40.234375 -1.421875 26.90625 -1.421875 
Q 22.3125 -1.421875 17.546875 -0.640625 
Q 12.796875 0.140625 7.71875 1.703125 
L 7.71875 11.625 
Q 12.109375 9.234375 16.796875 8.0625 
Q 21.484375 6.890625 26.703125 6.890625 
Q 35.15625 6.890625 40.078125 11.328125 
Q 45.015625 15.765625 45.015625 23.390625 
Q 45.015625 31 40.078125 35.4375 
Q 35.15625 39.890625 26.703125 39.890625 
Q 22.75 39.890625 18.8125 39.015625 
Q 14.890625 38.140625 10.796875 36.28125 
z
" id="BitstreamVeraSans-Roman-35"/>
      </defs>
      <g transform="translate(829.75125 249.998125)scale(0.12 -0.12)">
       <use xlink:href="#BitstreamVeraSans-Roman-35"/>
       <use x="63.623046875" xlink:href="#BitstreamVeraSans-Roman-30"/>
      </g>
     </g>
    </g>
    <g id="text_7">
     <!-- contour area, pixels**2 -->
     <defs>
      <path id="BitstreamVeraSans-Roman-20"/>
      <path d="M 54.890625 33.015625 
L 54.890625 0 
L 45.90625 0 
L 45.90625 32.71875 
Q 45.90625 40.484375 42.875 44.328125 
Q 39.84375 48.1875 33.796875 48.1875 
Q 26.515625 48.1875 22.3125 43.546875 
Q 18.109375 38.921875 18.109375 30.90625 
L 18.109375 0 
L 9.078125 0 
L 9.078125 54.6875 
L 18.109375 54.6875 
L 18.109375 46.1875 
Q 21.34375 51.125 25.703125 53.5625 
Q 30.078125 56 35.796875 56 
Q 45.21875 56 50.046875 50.171875 
Q 54.890625 44.34375 54.890625 33.015625 
" id="BitstreamVeraSans-Roman-6e"/>
      <path d="M 34.28125 27.484375 
Q 23.390625 27.484375 19.1875 25 
Q 14.984375 22.515625 14.984375 16.5 
Q 14.984375 11.71875 18.140625 8.90625 
Q 21.296875 6.109375 26.703125 6.109375 
Q 34.1875 6.109375 38.703125 11.40625 
Q 43.21875 16.703125 43.21875 25.484375 
L 43.21875 27.484375 
z
M 52.203125 31.203125 
L 52.203125 0 
L 43.21875 0 
L 43.21875 8.296875 
Q 40.140625 3.328125 35.546875 0.953125 
Q 30.953125 -1.421875 24.3125 -1.421875 
Q 15.921875 -1.421875 10.953125 3.296875 
Q 6 8.015625 6 15.921875 
Q 6 25.140625 12.171875 29.828125 
Q 18.359375 34.515625 30.609375 34.515625 
L 43.21875 34.515625 
L 43.21875 35.40625 
Q 43.21875 41.609375 39.140625 45 
Q 35.0625 48.390625 27.6875 48.390625 
Q 23 48.390625 18.546875 47.265625 
Q 14.109375 46.140625 10.015625 43.890625 
L 10.015625 52.203125 
Q 14.9375 54.109375 19.578125 55.046875 
Q 24.21875 56 28.609375 56 
Q 40.484375 56 46.34375 49.84375 
Q 52.203125 43.703125 52.203125 31.203125 
" id="BitstreamVeraSans-Roman-61"/>
      <path d="M 30.609375 48.390625 
Q 23.390625 48.390625 19.1875 42.75 
Q 14.984375 37.109375 14.984375 27.296875 
Q 14.984375 17.484375 19.15625 11.84375 
Q 23.34375 6.203125 30.609375 6.203125 
Q 37.796875 6.203125 41.984375 11.859375 
Q 46.1875 17.53125 46.1875 27.296875 
Q 46.1875 37.015625 41.984375 42.703125 
Q 37.796875 48.390625 30.609375 48.390625 
M 30.609375 56 
Q 42.328125 56 49.015625 48.375 
Q 55.71875 40.765625 55.71875 27.296875 
Q 55.71875 13.875 49.015625 6.21875 
Q 42.328125 -1.421875 30.609375 -1.421875 
Q 18.84375 -1.421875 12.171875 6.21875 
Q 5.515625 13.875 5.515625 27.296875 
Q 5.515625 40.765625 12.171875 48.375 
Q 18.84375 56 30.609375 56 
" id="BitstreamVeraSans-Roman-6f"/>
      <path d="M 9.421875 75.984375 
L 18.40625 75.984375 
L 18.40625 0 
L 9.421875 0 
z
" id="BitstreamVeraSans-Roman-6c"/>
      <path d="M 47.015625 60.890625 
L 29.5 51.421875 
L 47.015625 41.890625 
L 44.1875 37.109375 
L 27.78125 47.015625 
L 27.78125 28.609375 
L 22.21875 28.609375 
L 22.21875 47.015625 
L 5.8125 37.109375 
L 2.984375 41.890625 
L 20.515625 51.421875 
L 2.984375 60.890625 
L 5.8125 65.71875 
L 22.21875 55.8125 
L 22.21875 74.21875 
L 27.78125 74.21875 
L 27.78125 55.8125 
L 44.1875 65.71875 
z
" id="BitstreamVeraSans-Roman-2a"/>
      <path d="M 11.71875 12.40625 
L 22.015625 12.40625 
L 22.015625 4 
L 14.015625 -11.625 
L 7.71875 -11.625 
L 11.71875 4 
z
" id="BitstreamVeraSans-Roman-2c"/>
      <path d="M 9.421875 54.6875 
L 18.40625 54.6875 
L 18.40625 0 
L 9.421875 0 
z
M 9.421875 75.984375 
L 18.40625 75.984375 
L 18.40625 64.59375 
L 9.421875 64.59375 
z
" id="BitstreamVeraSans-Roman-69"/>
      <path d="M 18.109375 8.203125 
L 18.109375 -20.796875 
L 9.078125 -20.796875 
L 9.078125 54.6875 
L 18.109375 54.6875 
L 18.109375 46.390625 
Q 20.953125 51.265625 25.265625 53.625 
Q 29.59375 56 35.59375 56 
Q 45.5625 56 51.78125 48.09375 
Q 58.015625 40.1875 58.015625 27.296875 
Q 58.015625 14.40625 51.78125 6.484375 
Q 45.5625 -1.421875 35.59375 -1.421875 
Q 29.59375 -1.421875 25.265625 0.953125 
Q 20.953125 3.328125 18.109375 8.203125 
M 48.6875 27.296875 
Q 48.6875 37.203125 44.609375 42.84375 
Q 40.53125 48.484375 33.40625 48.484375 
Q 26.265625 48.484375 22.1875 42.84375 
Q 18.109375 37.203125 18.109375 27.296875 
Q 18.109375 17.390625 22.1875 11.75 
Q 26.265625 6.109375 33.40625 6.109375 
Q 40.53125 6.109375 44.609375 11.75 
Q 48.6875 17.390625 48.6875 27.296875 
" id="BitstreamVeraSans-Roman-70"/>
      <path d="M 54.890625 54.6875 
L 35.109375 28.078125 
L 55.90625 0 
L 45.3125 0 
L 29.390625 21.484375 
L 13.484375 0 
L 2.875 0 
L 24.125 28.609375 
L 4.6875 54.6875 
L 15.28125 54.6875 
L 29.78125 35.203125 
L 44.28125 54.6875 
z
" id="BitstreamVeraSans-Roman-78"/>
      <path d="M 56.203125 29.59375 
L 56.203125 25.203125 
L 14.890625 25.203125 
Q 15.484375 15.921875 20.484375 11.0625 
Q 25.484375 6.203125 34.421875 6.203125 
Q 39.59375 6.203125 44.453125 7.46875 
Q 49.3125 8.734375 54.109375 11.28125 
L 54.109375 2.78125 
Q 49.265625 0.734375 44.1875 -0.34375 
Q 39.109375 -1.421875 33.890625 -1.421875 
Q 20.796875 -1.421875 13.15625 6.1875 
Q 5.515625 13.8125 5.515625 26.8125 
Q 5.515625 40.234375 12.765625 48.109375 
Q 20.015625 56 32.328125 56 
Q 43.359375 56 49.78125 48.890625 
Q 56.203125 41.796875 56.203125 29.59375 
M 47.21875 32.234375 
Q 47.125 39.59375 43.09375 43.984375 
Q 39.0625 48.390625 32.421875 48.390625 
Q 24.90625 48.390625 20.390625 44.140625 
Q 15.875 39.890625 15.1875 32.171875 
z
" id="BitstreamVeraSans-Roman-65"/>
      <path d="M 18.3125 70.21875 
L 18.3125 54.6875 
L 36.8125 54.6875 
L 36.8125 47.703125 
L 18.3125 47.703125 
L 18.3125 18.015625 
Q 18.3125 11.328125 20.140625 9.421875 
Q 21.96875 7.515625 27.59375 7.515625 
L 36.8125 7.515625 
L 36.8125 0 
L 27.59375 0 
Q 17.1875 0 13.234375 3.875 
Q 9.28125 7.765625 9.28125 18.015625 
L 9.28125 47.703125 
L 2.6875 47.703125 
L 2.6875 54.6875 
L 9.28125 54.6875 
L 9.28125 70.21875 
z
" id="BitstreamVeraSans-Roman-74"/>
      <path d="M 8.5 21.578125 
L 8.5 54.6875 
L 17.484375 54.6875 
L 17.484375 21.921875 
Q 17.484375 14.15625 20.5 10.265625 
Q 23.53125 6.390625 29.59375 6.390625 
Q 36.859375 6.390625 41.078125 11.03125 
Q 45.3125 15.671875 45.3125 23.6875 
L 45.3125 54.6875 
L 54.296875 54.6875 
L 54.296875 0 
L 45.3125 0 
L 45.3125 8.40625 
Q 42.046875 3.421875 37.71875 1 
Q 33.40625 -1.421875 27.6875 -1.421875 
Q 18.265625 -1.421875 13.375 4.4375 
Q 8.5 10.296875 8.5 21.578125 
" id="BitstreamVeraSans-Roman-75"/>
      <path d="M 41.109375 46.296875 
Q 39.59375 47.171875 37.8125 47.578125 
Q 36.03125 48 33.890625 48 
Q 26.265625 48 22.1875 43.046875 
Q 18.109375 38.09375 18.109375 28.8125 
L 18.109375 0 
L 9.078125 0 
L 9.078125 54.6875 
L 18.109375 54.6875 
L 18.109375 46.1875 
Q 20.953125 51.171875 25.484375 53.578125 
Q 30.03125 56 36.53125 56 
Q 37.453125 56 38.578125 55.875 
Q 39.703125 55.765625 41.0625 55.515625 
z
" id="BitstreamVeraSans-Roman-72"/>
      <path d="M 44.28125 53.078125 
L 44.28125 44.578125 
Q 40.484375 46.53125 36.375 47.5 
Q 32.28125 48.484375 27.875 48.484375 
Q 21.1875 48.484375 17.84375 46.4375 
Q 14.5 44.390625 14.5 40.28125 
Q 14.5 37.15625 16.890625 35.375 
Q 19.28125 33.59375 26.515625 31.984375 
L 29.59375 31.296875 
Q 39.15625 29.25 43.1875 25.515625 
Q 47.21875 21.78125 47.21875 15.09375 
Q 47.21875 7.46875 41.1875 3.015625 
Q 35.15625 -1.421875 24.609375 -1.421875 
Q 20.21875 -1.421875 15.453125 -0.5625 
Q 10.6875 0.296875 5.421875 2 
L 5.421875 11.28125 
Q 10.40625 8.6875 15.234375 7.390625 
Q 20.0625 6.109375 24.8125 6.109375 
Q 31.15625 6.109375 34.5625 8.28125 
Q 37.984375 10.453125 37.984375 14.40625 
Q 37.984375 18.0625 35.515625 20.015625 
Q 33.0625 21.96875 24.703125 23.78125 
L 21.578125 24.515625 
Q 13.234375 26.265625 9.515625 29.90625 
Q 5.8125 33.546875 5.8125 39.890625 
Q 5.8125 47.609375 11.28125 51.796875 
Q 16.75 56 26.8125 56 
Q 31.78125 56 36.171875 55.265625 
Q 40.578125 54.546875 44.28125 53.078125 
" id="BitstreamVeraSans-Roman-73"/>
      <path d="M 48.78125 52.59375 
L 48.78125 44.1875 
Q 44.96875 46.296875 41.140625 47.34375 
Q 37.3125 48.390625 33.40625 48.390625 
Q 24.65625 48.390625 19.8125 42.84375 
Q 14.984375 37.3125 14.984375 27.296875 
Q 14.984375 17.28125 19.8125 11.734375 
Q 24.65625 6.203125 33.40625 6.203125 
Q 37.3125 6.203125 41.140625 7.25 
Q 44.96875 8.296875 48.78125 10.40625 
L 48.78125 2.09375 
Q 45.015625 0.34375 40.984375 -0.53125 
Q 36.96875 -1.421875 32.421875 -1.421875 
Q 20.0625 -1.421875 12.78125 6.34375 
Q 5.515625 14.109375 5.515625 27.296875 
Q 5.515625 40.671875 12.859375 48.328125 
Q 20.21875 56 33.015625 56 
Q 37.15625 56 41.109375 55.140625 
Q 45.0625 54.296875 48.78125 52.59375 
" id="BitstreamVeraSans-Roman-63"/>
     </defs>
     <g transform="translate(376.43 266.611875)scale(0.12 -0.12)">
      <use xlink:href="#BitstreamVeraSans-Roman-63"/>
      <use x="54.98046875" xlink:href="#BitstreamVeraSans-Roman-6f"/>
      <use x="116.162109375" xlink:href="#BitstreamVeraSans-Roman-6e"/>
      <use x="179.541015625" xlink:href="#BitstreamVeraSans-Roman-74"/>
      <use x="218.75" xlink:href="#BitstreamVeraSans-Roman-6f"/>
      <use x="279.931640625" xlink:href="#BitstreamVeraSans-Roman-75"/>
      <use x="343.310546875" xlink:href="#BitstreamVeraSans-Roman-72"/>
      <use x="384.423828125" xlink:href="#BitstreamVeraSans-Roman-20"/>
      <use x="416.2109375" xlink:href="#BitstreamVeraSans-Roman-61"/>
      <use x="477.490234375" xlink:href="#BitstreamVeraSans-Roman-72"/>
      <use x="518.572265625" xlink:href="#BitstreamVeraSans-Roman-65"/>
      <use x="580.095703125" xlink:href="#BitstreamVeraSans-Roman-61"/>
      <use x="641.375" xlink:href="#BitstreamVeraSans-Roman-2c"/>
      <use x="673.162109375" xlink:href="#BitstreamVeraSans-Roman-20"/>
      <use x="704.94921875" xlink:href="#BitstreamVeraSans-Roman-70"/>
      <use x="768.42578125" xlink:href="#BitstreamVeraSans-Roman-69"/>
      <use x="796.208984375" xlink:href="#BitstreamVeraSans-Roman-78"/>
      <use x="855.341796875" xlink:href="#BitstreamVeraSans-Roman-65"/>
      <use x="916.865234375" xlink:href="#BitstreamVeraSans-Roman-6c"/>
      <use x="944.6484375" xlink:href="#BitstreamVeraSans-Roman-73"/>
      <use x="996.748046875" xlink:href="#BitstreamVeraSans-Roman-2a"/>
      <use x="1046.74804688" xlink:href="#BitstreamVeraSans-Roman-2a"/>
      <use x="1096.74804688" xlink:href="#BitstreamVeraSans-Roman-32"/>
     </g>
    </g>
   </g>
   <g id="matplotlib.axis_2">
    <g id="ytick_1">
     <g id="line2d_8">
      <defs>
       <path d="M 0 0 
L -4 0 
" id="mf890dca6fd" style="stroke:#000000;stroke-width:0.5;"/>
      </defs>
      <g>
       <use style="stroke:#000000;stroke-width:0.5;" x="54.71875" xlink:href="#mf890dca6fd" y="232.88"/>
      </g>
     </g>
     <g id="text_8">
      <!-- 0 -->
      <g transform="translate(39.08375 236.19125)scale(0.12 -0.12)">
       <use xlink:href="#BitstreamVeraSans-Roman-30"/>
      </g>
     </g>
    </g>
    <g id="ytick_2">
     <g id="line2d_9">
      <g>
       <use style="stroke:#000000;stroke-width:0.5;" x="54.71875" xlink:href="#mf890dca6fd" y="190.490818933"/>
      </g>
     </g>
     <g id="text_9">
      <!-- 100 -->
      <g transform="translate(23.81375 193.802068933)scale(0.12 -0.12)">
       <use xlink:href="#BitstreamVeraSans-Roman-31"/>
       <use x="63.623046875" xlink:href="#BitstreamVeraSans-Roman-30"/>
       <use x="127.24609375" xlink:href="#BitstreamVeraSans-Roman-30"/>
      </g>
     </g>
    </g>
    <g id="ytick_3">
     <g id="line2d_10">
      <g>
       <use style="stroke:#000000;stroke-width:0.5;" x="54.71875" xlink:href="#mf890dca6fd" y="148.101637866"/>
      </g>
     </g>
     <g id="text_10">
      <!-- 200 -->
      <g transform="translate(23.81375 151.412887866)scale(0.12 -0.12)">
       <use xlink:href="#BitstreamVeraSans-Roman-32"/>
       <use x="63.623046875" xlink:href="#BitstreamVeraSans-Roman-30"/>
       <use x="127.24609375" xlink:href="#BitstreamVeraSans-Roman-30"/>
      </g>
     </g>
    </g>
    <g id="ytick_4">
     <g id="line2d_11">
      <g>
       <use style="stroke:#000000;stroke-width:0.5;" x="54.71875" xlink:href="#mf890dca6fd" y="105.712456799"/>
      </g>
     </g>
     <g id="text_11">
      <!-- 300 -->
      <g transform="translate(23.81375 109.023706799)scale(0.12 -0.12)">
       <use xlink:href="#BitstreamVeraSans-Roman-33"/>
       <use x="63.623046875" xlink:href="#BitstreamVeraSans-Roman-30"/>
       <use x="127.24609375" xlink:href="#BitstreamVeraSans-Roman-30"/>
      </g>
     </g>
    </g>
    <g id="ytick_5">
     <g id="line2d_12">
      <g>
       <use style="stroke:#000000;stroke-width:0.5;" x="54.71875" xlink:href="#mf890dca6fd" y="63.3232757325"/>
      </g>
     </g>
     <g id="text_12">
      <!-- 400 -->
      <g transform="translate(23.81375 66.6345257325)scale(0.12 -0.12)">
       <use xlink:href="#BitstreamVeraSans-Roman-34"/>
       <use x="63.623046875" xlink:href="#BitstreamVeraSans-Roman-30"/>
       <use x="127.24609375" xlink:href="#BitstreamVeraSans-Roman-30"/>
      </g>
     </g>
    </g>
    <g id="ytick_6">
     <g id="line2d_13">
      <g>
       <use style="stroke:#000000;stroke-width:0.5;" x="54.71875" xlink:href="#mf890dca6fd" y="20.9340946657"/>
      </g>
     </g>
     <g id="text_13">
      <!-- 500 -->
      <g transform="translate(23.81375 24.2453446657)scale(0.12 -0.12)">
       <use xlink:href="#BitstreamVeraSans-Roman-35"/>
       <use x="63.623046875" xlink:href="#BitstreamVeraSans-Roman-30"/>
       <use x="127.24609375" xlink:href="#BitstreamVeraSans-Roman-30"/>
      </g>
     </g>
    </g>
    <g id="text_14">
     <!-- count -->
     <g transform="translate(16.318125 136.9675)rotate(-90.0)scale(0.12 -0.12)">
      <use xlink:href="#BitstreamVeraSans-Roman-63"/>
      <use x="54.98046875" xlink:href="#BitstreamVeraSans-Roman-6f"/>
      <use x="116.162109375" xlink:href="#BitstreamVeraSans-Roman-75"/>
      <use x="179.541015625" xlink:href="#BitstreamVeraSans-Roman-6e"/>
      <use x="242.919921875" xlink:href="#BitstreamVeraSans-Roman-74"/>
     </g>
    </g>
   </g>
   <g id="text_15">
    <!-- single pupa mode size: 18.0  -->
    <defs>
     <path d="M 52 44.1875 
Q 55.375 50.25 60.0625 53.125 
Q 64.75 56 71.09375 56 
Q 79.640625 56 84.28125 50.015625 
Q 88.921875 44.046875 88.921875 33.015625 
L 88.921875 0 
L 79.890625 0 
L 79.890625 32.71875 
Q 79.890625 40.578125 77.09375 44.375 
Q 74.3125 48.1875 68.609375 48.1875 
Q 61.625 48.1875 57.5625 43.546875 
Q 53.515625 38.921875 53.515625 30.90625 
L 53.515625 0 
L 44.484375 0 
L 44.484375 32.71875 
Q 44.484375 40.625 41.703125 44.40625 
Q 38.921875 48.1875 33.109375 48.1875 
Q 26.21875 48.1875 22.15625 43.53125 
Q 18.109375 38.875 18.109375 30.90625 
L 18.109375 0 
L 9.078125 0 
L 9.078125 54.6875 
L 18.109375 54.6875 
L 18.109375 46.1875 
Q 21.1875 51.21875 25.484375 53.609375 
Q 29.78125 56 35.6875 56 
Q 41.65625 56 45.828125 52.96875 
Q 50 49.953125 52 44.1875 
" id="BitstreamVeraSans-Roman-6d"/>
     <path d="M 31.78125 34.625 
Q 24.75 34.625 20.71875 30.859375 
Q 16.703125 27.09375 16.703125 20.515625 
Q 16.703125 13.921875 20.71875 10.15625 
Q 24.75 6.390625 31.78125 6.390625 
Q 38.8125 6.390625 42.859375 10.171875 
Q 46.921875 13.96875 46.921875 20.515625 
Q 46.921875 27.09375 42.890625 30.859375 
Q 38.875 34.625 31.78125 34.625 
M 21.921875 38.8125 
Q 15.578125 40.375 12.03125 44.71875 
Q 8.5 49.078125 8.5 55.328125 
Q 8.5 64.0625 14.71875 69.140625 
Q 20.953125 74.21875 31.78125 74.21875 
Q 42.671875 74.21875 48.875 69.140625 
Q 55.078125 64.0625 55.078125 55.328125 
Q 55.078125 49.078125 51.53125 44.71875 
Q 48 40.375 41.703125 38.8125 
Q 48.828125 37.15625 52.796875 32.3125 
Q 56.78125 27.484375 56.78125 20.515625 
Q 56.78125 9.90625 50.3125 4.234375 
Q 43.84375 -1.421875 31.78125 -1.421875 
Q 19.734375 -1.421875 13.25 4.234375 
Q 6.78125 9.90625 6.78125 20.515625 
Q 6.78125 27.484375 10.78125 32.3125 
Q 14.796875 37.15625 21.921875 38.8125 
M 18.3125 54.390625 
Q 18.3125 48.734375 21.84375 45.5625 
Q 25.390625 42.390625 31.78125 42.390625 
Q 38.140625 42.390625 41.71875 45.5625 
Q 45.3125 48.734375 45.3125 54.390625 
Q 45.3125 60.0625 41.71875 63.234375 
Q 38.140625 66.40625 31.78125 66.40625 
Q 25.390625 66.40625 21.84375 63.234375 
Q 18.3125 60.0625 18.3125 54.390625 
" id="BitstreamVeraSans-Roman-38"/>
     <path d="M 5.515625 54.6875 
L 48.1875 54.6875 
L 48.1875 46.484375 
L 14.40625 7.171875 
L 48.1875 7.171875 
L 48.1875 0 
L 4.296875 0 
L 4.296875 8.203125 
L 38.09375 47.515625 
L 5.515625 47.515625 
z
" id="BitstreamVeraSans-Roman-7a"/>
     <path d="M 11.71875 12.40625 
L 22.015625 12.40625 
L 22.015625 0 
L 11.71875 0 
z
M 11.71875 51.703125 
L 22.015625 51.703125 
L 22.015625 39.3125 
L 11.71875 39.3125 
z
" id="BitstreamVeraSans-Roman-3a"/>
     <path d="M 10.6875 12.40625 
L 21 12.40625 
L 21 0 
L 10.6875 0 
z
" id="BitstreamVeraSans-Roman-2e"/>
     <path d="M 45.40625 46.390625 
L 45.40625 75.984375 
L 54.390625 75.984375 
L 54.390625 0 
L 45.40625 0 
L 45.40625 8.203125 
Q 42.578125 3.328125 38.25 0.953125 
Q 33.9375 -1.421875 27.875 -1.421875 
Q 17.96875 -1.421875 11.734375 6.484375 
Q 5.515625 14.40625 5.515625 27.296875 
Q 5.515625 40.1875 11.734375 48.09375 
Q 17.96875 56 27.875 56 
Q 33.9375 56 38.25 53.625 
Q 42.578125 51.265625 45.40625 46.390625 
M 14.796875 27.296875 
Q 14.796875 17.390625 18.875 11.75 
Q 22.953125 6.109375 30.078125 6.109375 
Q 37.203125 6.109375 41.296875 11.75 
Q 45.40625 17.390625 45.40625 27.296875 
Q 45.40625 37.203125 41.296875 42.84375 
Q 37.203125 48.484375 30.078125 48.484375 
Q 22.953125 48.484375 18.875 42.84375 
Q 14.796875 37.203125 14.796875 27.296875 
" id="BitstreamVeraSans-Roman-64"/>
     <path d="M 45.40625 27.984375 
Q 45.40625 37.75 41.375 43.109375 
Q 37.359375 48.484375 30.078125 48.484375 
Q 22.859375 48.484375 18.828125 43.109375 
Q 14.796875 37.75 14.796875 27.984375 
Q 14.796875 18.265625 18.828125 12.890625 
Q 22.859375 7.515625 30.078125 7.515625 
Q 37.359375 7.515625 41.375 12.890625 
Q 45.40625 18.265625 45.40625 27.984375 
M 54.390625 6.78125 
Q 54.390625 -7.171875 48.1875 -13.984375 
Q 42 -20.796875 29.203125 -20.796875 
Q 24.46875 -20.796875 20.265625 -20.09375 
Q 16.0625 -19.390625 12.109375 -17.921875 
L 12.109375 -9.1875 
Q 16.0625 -11.328125 19.921875 -12.34375 
Q 23.78125 -13.375 27.78125 -13.375 
Q 36.625 -13.375 41.015625 -8.765625 
Q 45.40625 -4.15625 45.40625 5.171875 
L 45.40625 9.625 
Q 42.625 4.78125 38.28125 2.390625 
Q 33.9375 0 27.875 0 
Q 17.828125 0 11.671875 7.65625 
Q 5.515625 15.328125 5.515625 27.984375 
Q 5.515625 40.671875 11.671875 48.328125 
Q 17.828125 56 27.875 56 
Q 33.9375 56 38.28125 53.609375 
Q 42.625 51.21875 45.40625 46.390625 
L 45.40625 54.6875 
L 54.390625 54.6875 
z
" id="BitstreamVeraSans-Roman-67"/>
    </defs>
    <g transform="translate(350.567065 21.3579772727)scale(0.12 -0.12)">
     <use xlink:href="#BitstreamVeraSans-Roman-73"/>
     <use x="52.099609375" xlink:href="#BitstreamVeraSans-Roman-69"/>
     <use x="79.8828125" xlink:href="#BitstreamVeraSans-Roman-6e"/>
     <use x="143.26171875" xlink:href="#BitstreamVeraSans-Roman-67"/>
     <use x="206.73828125" xlink:href="#BitstreamVeraSans-Roman-6c"/>
     <use x="234.521484375" xlink:href="#BitstreamVeraSans-Roman-65"/>
     <use x="296.044921875" xlink:href="#BitstreamVeraSans-Roman-20"/>
     <use x="327.83203125" xlink:href="#BitstreamVeraSans-Roman-70"/>
     <use x="391.30859375" xlink:href="#BitstreamVeraSans-Roman-75"/>
     <use x="454.6875" xlink:href="#BitstreamVeraSans-Roman-70"/>
     <use x="518.1640625" xlink:href="#BitstreamVeraSans-Roman-61"/>
     <use x="579.443359375" xlink:href="#BitstreamVeraSans-Roman-20"/>
     <use x="611.23046875" xlink:href="#BitstreamVeraSans-Roman-6d"/>
     <use x="708.642578125" xlink:href="#BitstreamVeraSans-Roman-6f"/>
     <use x="769.82421875" xlink:href="#BitstreamVeraSans-Roman-64"/>
     <use x="833.30078125" xlink:href="#BitstreamVeraSans-Roman-65"/>
     <use x="894.82421875" xlink:href="#BitstreamVeraSans-Roman-20"/>
     <use x="926.611328125" xlink:href="#BitstreamVeraSans-Roman-73"/>
     <use x="978.7109375" xlink:href="#BitstreamVeraSans-Roman-69"/>
     <use x="1006.49414062" xlink:href="#BitstreamVeraSans-Roman-7a"/>
     <use x="1058.984375" xlink:href="#BitstreamVeraSans-Roman-65"/>
     <use x="1120.5078125" xlink:href="#BitstreamVeraSans-Roman-3a"/>
     <use x="1154.19921875" xlink:href="#BitstreamVeraSans-Roman-20"/>
     <use x="1185.98632812" xlink:href="#BitstreamVeraSans-Roman-31"/>
     <use x="1249.609375" xlink:href="#BitstreamVeraSans-Roman-38"/>
     <use x="1313.23242188" xlink:href="#BitstreamVeraSans-Roman-2e"/>
     <use x="1345.01953125" xlink:href="#BitstreamVeraSans-Roman-30"/>
     <use x="1408.64257812" xlink:href="#BitstreamVeraSans-Roman-20"/>
    </g>
    <!--       total contour area: 432605  -->
    <defs>
     <path d="M 33.015625 40.375 
Q 26.375 40.375 22.484375 35.828125 
Q 18.609375 31.296875 18.609375 23.390625 
Q 18.609375 15.53125 22.484375 10.953125 
Q 26.375 6.390625 33.015625 6.390625 
Q 39.65625 6.390625 43.53125 10.953125 
Q 47.40625 15.53125 47.40625 23.390625 
Q 47.40625 31.296875 43.53125 35.828125 
Q 39.65625 40.375 33.015625 40.375 
M 52.59375 71.296875 
L 52.59375 62.3125 
Q 48.875 64.0625 45.09375 64.984375 
Q 41.3125 65.921875 37.59375 65.921875 
Q 27.828125 65.921875 22.671875 59.328125 
Q 17.53125 52.734375 16.796875 39.40625 
Q 19.671875 43.65625 24.015625 45.921875 
Q 28.375 48.1875 33.59375 48.1875 
Q 44.578125 48.1875 50.953125 41.515625 
Q 57.328125 34.859375 57.328125 23.390625 
Q 57.328125 12.15625 50.6875 5.359375 
Q 44.046875 -1.421875 33.015625 -1.421875 
Q 20.359375 -1.421875 13.671875 8.265625 
Q 6.984375 17.96875 6.984375 36.375 
Q 6.984375 53.65625 15.1875 63.9375 
Q 23.390625 74.21875 37.203125 74.21875 
Q 40.921875 74.21875 44.703125 73.484375 
Q 48.484375 72.75 52.59375 71.296875 
" id="BitstreamVeraSans-Roman-36"/>
    </defs>
    <g transform="translate(350.567065 34.7953522727)scale(0.12 -0.12)">
     <use xlink:href="#BitstreamVeraSans-Roman-20"/>
     <use x="31.787109375" xlink:href="#BitstreamVeraSans-Roman-20"/>
     <use x="63.57421875" xlink:href="#BitstreamVeraSans-Roman-20"/>
     <use x="95.361328125" xlink:href="#BitstreamVeraSans-Roman-20"/>
     <use x="127.1484375" xlink:href="#BitstreamVeraSans-Roman-20"/>
     <use x="158.935546875" xlink:href="#BitstreamVeraSans-Roman-20"/>
     <use x="190.72265625" xlink:href="#BitstreamVeraSans-Roman-74"/>
     <use x="229.931640625" xlink:href="#BitstreamVeraSans-Roman-6f"/>
     <use x="291.11328125" xlink:href="#BitstreamVeraSans-Roman-74"/>
     <use x="330.322265625" xlink:href="#BitstreamVeraSans-Roman-61"/>
     <use x="391.6015625" xlink:href="#BitstreamVeraSans-Roman-6c"/>
     <use x="419.384765625" xlink:href="#BitstreamVeraSans-Roman-20"/>
     <use x="451.171875" xlink:href="#BitstreamVeraSans-Roman-63"/>
     <use x="506.15234375" xlink:href="#BitstreamVeraSans-Roman-6f"/>
     <use x="567.333984375" xlink:href="#BitstreamVeraSans-Roman-6e"/>
     <use x="630.712890625" xlink:href="#BitstreamVeraSans-Roman-74"/>
     <use x="669.921875" xlink:href="#BitstreamVeraSans-Roman-6f"/>
     <use x="731.103515625" xlink:href="#BitstreamVeraSans-Roman-75"/>
     <use x="794.482421875" xlink:href="#BitstreamVeraSans-Roman-72"/>
     <use x="835.595703125" xlink:href="#BitstreamVeraSans-Roman-20"/>
     <use x="867.3828125" xlink:href="#BitstreamVeraSans-Roman-61"/>
     <use x="928.662109375" xlink:href="#BitstreamVeraSans-Roman-72"/>
     <use x="969.744140625" xlink:href="#BitstreamVeraSans-Roman-65"/>
     <use x="1031.26757812" xlink:href="#BitstreamVeraSans-Roman-61"/>
     <use x="1092.546875" xlink:href="#BitstreamVeraSans-Roman-3a"/>
     <use x="1126.23828125" xlink:href="#BitstreamVeraSans-Roman-20"/>
     <use x="1158.02539062" xlink:href="#BitstreamVeraSans-Roman-34"/>
     <use x="1221.6484375" xlink:href="#BitstreamVeraSans-Roman-33"/>
     <use x="1285.27148438" xlink:href="#BitstreamVeraSans-Roman-32"/>
     <use x="1348.89453125" xlink:href="#BitstreamVeraSans-Roman-36"/>
     <use x="1412.51757812" xlink:href="#BitstreamVeraSans-Roman-30"/>
     <use x="1476.140625" xlink:href="#BitstreamVeraSans-Roman-35"/>
     <use x="1539.76367188" xlink:href="#BitstreamVeraSans-Roman-20"/>
    </g>
    <!--       estimated pupae: 24034 -->
    <g transform="translate(350.567065 48.2327272727)scale(0.12 -0.12)">
     <use xlink:href="#BitstreamVeraSans-Roman-20"/>
     <use x="31.787109375" xlink:href="#BitstreamVeraSans-Roman-20"/>
     <use x="63.57421875" xlink:href="#BitstreamVeraSans-Roman-20"/>
     <use x="95.361328125" xlink:href="#BitstreamVeraSans-Roman-20"/>
     <use x="127.1484375" xlink:href="#BitstreamVeraSans-Roman-20"/>
     <use x="158.935546875" xlink:href="#BitstreamVeraSans-Roman-20"/>
     <use x="190.72265625" xlink:href="#BitstreamVeraSans-Roman-65"/>
     <use x="252.24609375" xlink:href="#BitstreamVeraSans-Roman-73"/>
     <use x="304.345703125" xlink:href="#BitstreamVeraSans-Roman-74"/>
     <use x="343.5546875" xlink:href="#BitstreamVeraSans-Roman-69"/>
     <use x="371.337890625" xlink:href="#BitstreamVeraSans-Roman-6d"/>
     <use x="468.75" xlink:href="#BitstreamVeraSans-Roman-61"/>
     <use x="530.029296875" xlink:href="#BitstreamVeraSans-Roman-74"/>
     <use x="569.23828125" xlink:href="#BitstreamVeraSans-Roman-65"/>
     <use x="630.76171875" xlink:href="#BitstreamVeraSans-Roman-64"/>
     <use x="694.23828125" xlink:href="#BitstreamVeraSans-Roman-20"/>
     <use x="726.025390625" xlink:href="#BitstreamVeraSans-Roman-70"/>
     <use x="789.501953125" xlink:href="#BitstreamVeraSans-Roman-75"/>
     <use x="852.880859375" xlink:href="#BitstreamVeraSans-Roman-70"/>
     <use x="916.357421875" xlink:href="#BitstreamVeraSans-Roman-61"/>
     <use x="977.63671875" xlink:href="#BitstreamVeraSans-Roman-65"/>
     <use x="1039.16015625" xlink:href="#BitstreamVeraSans-Roman-3a"/>
     <use x="1072.8515625" xlink:href="#BitstreamVeraSans-Roman-20"/>
     <use x="1104.63867188" xlink:href="#BitstreamVeraSans-Roman-32"/>
     <use x="1168.26171875" xlink:href="#BitstreamVeraSans-Roman-34"/>
     <use x="1231.88476562" xlink:href="#BitstreamVeraSans-Roman-30"/>
     <use x="1295.5078125" xlink:href="#BitstreamVeraSans-Roman-33"/>
     <use x="1359.13085938" xlink:href="#BitstreamVeraSans-Roman-34"/>
    </g>
   </g>
   <g id="PathCollection_1">
    <defs>
     <path d="M 0 3.162278 
C 0.838646 3.162278 1.643056 2.82908 2.236068 2.236068 
C 2.82908 1.643056 3.162278 0.838646 3.162278 0 
C 3.162278 -0.838646 2.82908 -1.643056 2.236068 -2.236068 
C 1.643056 -2.82908 0.838646 -3.162278 0 -3.162278 
C -0.838646 -3.162278 -1.643056 -2.82908 -2.236068 -2.236068 
C -2.82908 -1.643056 -3.162278 -0.838646 -3.162278 0 
C -3.162278 0.838646 -2.82908 1.643056 -2.236068 2.236068 
C -1.643056 2.82908 -0.838646 3.162278 0 3.162278 
z
" id="m898c6a23e7" style="stroke:#000000;"/>
    </defs>
    <g clip-path="url(#pe9bf173472)">
     <use style="stroke:#000000;" x="336.47905" xlink:href="#m898c6a23e7" y="27.7163636364"/>
    </g>
   </g>
  </g>
 </g>
 <defs>
  <clipPath id="pe9bf173472">
   <rect height="225.68" width="782.6675" x="54.71875" y="7.2"/>
  </clipPath>
 </defs>
</svg>
