<?xml version="1.0" encoding="utf-8" standalone="no"?>
<!DOCTYPE svg PUBLIC "-//W3C//DTD SVG 1.1//EN"
  "http://www.w3.org/Graphics/SVG/1.1/DTD/svg11.dtd">
<!-- Created with matplotlib (http://matplotlib.org/) -->
<svg height="720pt" version="1.1" viewBox="0 0 720 720" width="720pt" xmlns="http://www.w3.org/2000/svg" xmlns:xlink="http://www.w3.org/1999/xlink">
 <defs>
  <style type="text/css">
*{stroke-linecap:butt;stroke-linejoin:round;stroke-miterlimit:100000;}
  </style>
 </defs>
 <g id="figure_1">
  <g id="patch_1">
   <path d="M 0 720 
L 720 720 
L 720 0 
L 0 0 
z
" style="fill:#ffffff;"/>
  </g>
  <g id="axes_1">
   <g id="patch_2">
    <path d="M 90 648 
L 648 648 
L 648 72 
L 90 72 
z
" style="fill:#ffffff;"/>
   </g>
   <g id="patch_3">
    <path d="M 90 72 
L 648 72 
" style="fill:none;"/>
   </g>
   <g id="patch_4">
    <path d="M 648 648 
L 648 72 
" style="fill:none;"/>
   </g>
   <g id="patch_5">
    <path d="M 90 658 
L 648 658 
" style="fill:none;stroke:#000000;stroke-linecap:square;stroke-linejoin:miter;stroke-width:0.75;"/>
   </g>
   <g id="patch_6">
    <path d="M 80 648 
L 80 72 
" style="fill:none;stroke:#000000;stroke-linecap:square;stroke-linejoin:miter;stroke-width:0.75;"/>
   </g>
   <g id="matplotlib.axis_1">
    <g id="xtick_1">
     <g id="line2d_1">
      <defs>
       <path d="M 0 0 
L 0 -4 
" id="m71d6a76ac6" style="stroke:#000000;stroke-width:0.75;"/>
      </defs>
      <g>
       <use style="stroke:#000000;stroke-width:0.75;" x="90.0" xlink:href="#m71d6a76ac6" y="658.0"/>
      </g>
     </g>
     <g id="text_1">
      <text style="font-family:Arial;font-size:9.0px;font-style:normal;font-weight:400;text-anchor:middle;" transform="rotate(-0.000000, 90.000000, 668.442031)" x="90.0" y="668.44203125">−2</text>
     </g>
    </g>
    <g id="xtick_2">
     <g id="line2d_2">
      <g>
       <use style="stroke:#000000;stroke-width:0.75;" x="191.454545455" xlink:href="#m71d6a76ac6" y="658.0"/>
      </g>
     </g>
     <g id="text_2">
      <text style="font-family:Arial;font-size:9.0px;font-style:normal;font-weight:400;text-anchor:middle;" transform="rotate(-0.000000, 191.454545, 668.442031)" x="191.454545455" y="668.44203125">−1</text>
     </g>
    </g>
    <g id="xtick_3">
     <g id="line2d_3">
      <g>
       <use style="stroke:#000000;stroke-width:0.75;" x="292.909090909" xlink:href="#m71d6a76ac6" y="658.0"/>
      </g>
     </g>
     <g id="text_3">
      <text style="font-family:Arial;font-size:9.0px;font-style:normal;font-weight:400;text-anchor:middle;" transform="rotate(-0.000000, 292.909091, 668.442031)" x="292.909090909" y="668.44203125">0</text>
     </g>
    </g>
    <g id="xtick_4">
     <g id="line2d_4">
      <g>
       <use style="stroke:#000000;stroke-width:0.75;" x="394.363636364" xlink:href="#m71d6a76ac6" y="658.0"/>
      </g>
     </g>
     <g id="text_4">
      <text style="font-family:Arial;font-size:9.0px;font-style:normal;font-weight:400;text-anchor:middle;" transform="rotate(-0.000000, 394.363636, 668.442031)" x="394.363636364" y="668.44203125">1</text>
     </g>
    </g>
    <g id="xtick_5">
     <g id="line2d_5">
      <g>
       <use style="stroke:#000000;stroke-width:0.75;" x="495.818181818" xlink:href="#m71d6a76ac6" y="658.0"/>
      </g>
     </g>
     <g id="text_5">
      <text style="font-family:Arial;font-size:9.0px;font-style:normal;font-weight:400;text-anchor:middle;" transform="rotate(-0.000000, 495.818182, 668.442031)" x="495.818181818" y="668.44203125">2</text>
     </g>
    </g>
    <g id="xtick_6">
     <g id="line2d_6">
      <g>
       <use style="stroke:#000000;stroke-width:0.75;" x="597.272727273" xlink:href="#m71d6a76ac6" y="658.0"/>
      </g>
     </g>
     <g id="text_6">
      <text style="font-family:Arial;font-size:9.0px;font-style:normal;font-weight:400;text-anchor:middle;" transform="rotate(-0.000000, 597.272727, 668.442031)" x="597.272727273" y="668.44203125">3</text>
     </g>
    </g>
    <g id="text_7">
     <text style="font-family:Arial;font-size:9.0px;font-style:normal;font-weight:400;text-anchor:middle;" transform="rotate(-0.000000, 369.000000, 681.782500)" x="369.0" y="681.7825">windspeed along trajectory, m/s</text>
    </g>
   </g>
   <g id="matplotlib.axis_2">
    <g id="ytick_1">
     <g id="line2d_7">
      <defs>
       <path d="M 0 0 
L 4 0 
" id="me95f5d3e75" style="stroke:#000000;stroke-width:0.75;"/>
      </defs>
      <g>
       <use style="stroke:#000000;stroke-width:0.75;" x="80.0" xlink:href="#me95f5d3e75" y="595.636363636"/>
      </g>
     </g>
     <g id="text_8">
      <text style="font-family:Arial;font-size:9.0px;font-style:normal;font-weight:400;text-anchor:end;" transform="rotate(-0.000000, 76.000000, 597.963004)" x="76.0" y="597.963004261">0</text>
     </g>
    </g>
    <g id="ytick_2">
     <g id="line2d_8">
      <g>
       <use style="stroke:#000000;stroke-width:0.75;" x="80.0" xlink:href="#me95f5d3e75" y="490.909090909"/>
      </g>
     </g>
     <g id="text_9">
      <text style="font-family:Arial;font-size:9.0px;font-style:normal;font-weight:400;text-anchor:end;" transform="rotate(-0.000000, 76.000000, 493.235732)" x="76.0" y="493.235731534">1</text>
     </g>
    </g>
    <g id="ytick_3">
     <g id="line2d_9">
      <g>
       <use style="stroke:#000000;stroke-width:0.75;" x="80.0" xlink:href="#me95f5d3e75" y="386.181818182"/>
      </g>
     </g>
     <g id="text_10">
      <text style="font-family:Arial;font-size:9.0px;font-style:normal;font-weight:400;text-anchor:end;" transform="rotate(-0.000000, 76.000000, 388.508459)" x="76.0" y="388.508458807">2</text>
     </g>
    </g>
    <g id="ytick_4">
     <g id="line2d_10">
      <g>
       <use style="stroke:#000000;stroke-width:0.75;" x="80.0" xlink:href="#me95f5d3e75" y="281.454545455"/>
      </g>
     </g>
     <g id="text_11">
      <text style="font-family:Arial;font-size:9.0px;font-style:normal;font-weight:400;text-anchor:end;" transform="rotate(-0.000000, 76.000000, 283.781186)" x="76.0" y="283.78118608">3</text>
     </g>
    </g>
    <g id="ytick_5">
     <g id="line2d_11">
      <g>
       <use style="stroke:#000000;stroke-width:0.75;" x="80.0" xlink:href="#me95f5d3e75" y="176.727272727"/>
      </g>
     </g>
     <g id="text_12">
      <text style="font-family:Arial;font-size:9.0px;font-style:normal;font-weight:400;text-anchor:end;" transform="rotate(-0.000000, 76.000000, 179.053913)" x="76.0" y="179.053913352">4</text>
     </g>
    </g>
    <g id="ytick_6">
     <g id="line2d_12">
      <g>
       <use style="stroke:#000000;stroke-width:0.75;" x="80.0" xlink:href="#me95f5d3e75" y="72.0"/>
      </g>
     </g>
     <g id="text_13">
      <text style="font-family:Arial;font-size:9.0px;font-style:normal;font-weight:400;text-anchor:end;" transform="rotate(-0.000000, 76.000000, 74.326641)" x="76.0" y="74.326640625">5</text>
     </g>
    </g>
    <g id="text_14">
     <text style="font-family:Arial;font-size:9.0px;font-style:normal;font-weight:400;text-anchor:middle;" transform="rotate(-90.000000, 64.100937, 360.000000)" x="64.1009375" y="360.0">groundspeed along trajectory, m/s</text>
    </g>
   </g>
   <g id="LineCollection_1">
    <path clip-path="url(#pb9d9c7d311)" d="M 318.272727 579.997012 
L 318.497248 579.927273 
L 323.345455 579.064495 
L 328.418182 576.293391 
L 330.656173 574.690909 
L 333.490909 573.256282 
L 338.563636 571.761497 
L 343.636364 569.448169 
L 348.709091 566.131451 
L 350.593907 564.218182 
L 355.0184 558.981818 
L 358.886994 553.745455 
L 363.24934 548.509091 
L 363.927273 547.26943 
L 367.106052 543.272727 
L 369 540.456993 
L 375.81383 532.8 
L 379.145455 528.45691 
L 380.059041 527.563636 
L 384.218182 523.04879 
L 385.081752 522.327273 
L 389.290909 519.874834 
L 404.509091 510.531827 
L 409.581818 508.120907 
L 412.213727 506.618182 
L 414.654545 505.44123 
L 419.727273 502.234918 
L 420.686754 501.381818 
L 424.8 498.033074 
L 426.528154 496.145455 
L 434.945455 484.308246 
L 438.689696 480.436364 
L 440.018182 479.275812 
L 445.090909 476.237621 
L 450.163636 476.028277 
L 455.236364 475.066146 
L 459.064292 469.963636 
L 460.309091 468.775225 
L 463.376807 464.727273 
L 465.381818 461.038055 
L 466.521216 459.490909 
L 470.454545 453.567066 
L 475.527273 450.269593 
L 485.672727 451.48572 
L 488.731891 449.018182 
L 490.745455 447.973288 
L 495.818182 442.300544 
L 498.709576 438.545455 
L 500.890909 435.274277 
L 506.337729 428.072727 
L 509.772877 422.836364 
L 512.733909 417.6 
L 515.190009 412.363636 
L 516.109091 409.821586 
L 517.498435 407.127273 
L 519.658167 401.890909 
L 520.974626 396.654545 
L 521.181818 394.904774 
L 522.001722 391.418182 
L 521.588938 386.181818 
L 521.181818 384.822467 
L 520.233089 380.945455 
L 517.853912 375.709091 
L 516.109091 373.07964 
L 513.700692 370.472727 
L 511.036364 368.041082 
L 505.963636 365.889869 
L 500.890909 365.290799 
L 495.818182 365.955592 
L 490.745455 367.631416 
L 485.672727 370.824896 
L 480.6 376.930743 
L 478.169637 380.945455 
L 475.527273 387.237069 
L 473.265685 391.418182 
L 470.454545 397.068226 
L 465.381818 401.568556 
L 460.309091 400.745571 
L 455.236364 399.173632 
L 450.163636 402.937606 
L 447.741161 407.127273 
L 445.090909 413.077803 
L 441.362204 417.6 
L 440.018182 419.037606 
L 433.504599 422.836364 
L 429.872727 425.001839 
L 419.727273 428.521805 
L 414.654545 433.988023 
L 411.367436 438.545455 
L 409.581818 440.362823 
L 406.501761 443.781818 
L 402.983397 449.018182 
L 399.436364 454.850502 
L 394.363636 460.217737 
L 389.290909 465.878658 
L 386.263061 469.963636 
L 384.218182 473.918815 
L 383.351279 475.2 
L 380.012883 480.436364 
L 379.145455 482.059578 
L 374.072727 488.080774 
L 370.35375 490.909091 
L 369 491.764133 
L 363.521352 496.145455 
L 358.854545 498.659903 
L 353.781818 500.131422 
L 348.70355 501.381818 
L 343.636364 504.948741 
L 342.380527 506.618182 
L 338.182462 511.854545 
L 333.490909 518.674949 
L 331.135275 522.327273 
L 328.418182 527.995376 
L 325.234684 532.8 
L 323.345455 538.30846 
L 320.514349 543.272727 
L 317.960591 548.509091 
L 314.870004 553.745455 
L 313.2 558.224425 
L 312.795967 558.981818 
L 310.75122 564.218182 
L 310.308429 569.454545 
L 311.646837 574.690909 
L 313.2 577.050926 
L 318.272727 579.997012 
L 318.272727 579.997012 
" style="fill:none;stroke:#808080;"/>
   </g>
   <g id="LineCollection_2">
    <path clip-path="url(#pb9d9c7d311)" d="M 318.272727 574.92555 
L 323.345455 574.495602 
L 328.418182 571.941969 
L 332.487355 569.454545 
L 333.490909 569.023414 
L 338.563636 567.979642 
L 343.636364 565.949244 
L 348.709091 561.761 
L 351.222826 558.981818 
L 355.579289 553.745455 
L 359.06512 548.509091 
L 362.860005 543.272727 
L 363.927273 541.072217 
L 366.329677 538.036364 
L 369 534.410896 
L 370.472459 532.8 
L 374.769343 527.563636 
L 379.145455 521.503701 
L 384.218182 516.357941 
L 389.290909 513.910713 
L 392.777417 511.854545 
L 394.363636 511.08164 
L 400.131316 506.618182 
L 404.509091 503.688836 
L 408.3256 501.381818 
L 409.581818 500.784121 
L 414.654545 497.558726 
L 416.462742 496.145455 
L 419.727273 493.93095 
L 424.8 489.323645 
L 432.073004 480.436364 
L 434.945455 476.524405 
L 436.34926 475.2 
L 440.018182 472.080362 
L 442.70619 469.963636 
L 445.090909 468.310521 
L 450.163636 466.771426 
L 455.236364 465.41852 
L 455.936311 464.727273 
L 460.309091 460.747472 
L 461.246931 459.490909 
L 464.70771 454.254545 
L 465.381818 453.014674 
L 468.392281 449.018182 
L 470.454545 445.412369 
L 472.636387 443.781818 
L 475.527273 441.989028 
L 485.672727 442.122155 
L 490.745455 439.207879 
L 491.358579 438.545455 
L 505.963636 420.706908 
L 508.164447 417.6 
L 513.998258 407.127273 
L 517.759464 396.654545 
L 518.468823 391.418182 
L 517.523456 386.181818 
L 516.109091 383.210635 
L 514.606074 380.945455 
L 511.036364 376.865302 
L 507.852976 375.709091 
L 505.963636 374.777257 
L 500.890909 374.989201 
L 499.168469 375.709091 
L 495.818182 376.789017 
L 490.745455 378.852163 
L 487.528322 380.945455 
L 485.672727 381.921866 
L 482.129265 386.181818 
L 480.6 388.220731 
L 478.746843 391.418182 
L 475.527273 397.588063 
L 472.439185 401.890909 
L 470.454545 405.323826 
L 468.370544 407.127273 
L 465.381818 409.395427 
L 455.236364 409.196945 
L 450.163636 413.771758 
L 447.698822 417.6 
L 445.090909 422.245446 
L 444.530826 422.836364 
L 440.018182 427.365735 
L 438.922504 428.072727 
L 434.945455 430.485711 
L 431.273959 433.309091 
L 429.872727 434.198192 
L 424.8 436.323542 
L 421.22356 438.545455 
L 419.727273 439.289863 
L 414.654545 444.050617 
L 409.581818 449.639708 
L 406.023135 454.254545 
L 401.466773 459.490909 
L 399.436364 461.994135 
L 392.090584 469.963636 
L 388.153079 475.2 
L 384.996703 480.436364 
L 384.218182 481.976277 
L 381.659097 485.672727 
L 379.034235 490.909091 
L 374.072727 496.330163 
L 369 499.1658 
L 366.158286 501.381818 
L 363.927273 502.902095 
L 358.854545 506.712009 
L 348.709091 510.824626 
L 347.295542 511.854545 
L 343.636364 514.064981 
L 340.909401 517.090909 
L 338.563636 519.371682 
L 336.29271 522.327273 
L 332.847132 527.563636 
L 329.608655 532.8 
L 328.418182 536.17752 
L 327.34216 538.036364 
L 324.82224 543.272727 
L 323.345455 547.001808 
L 322.375733 548.509091 
L 319.214177 553.745455 
L 318.272727 555.738238 
L 316.49935 558.981818 
L 314.77421 564.218182 
L 314.590158 569.454545 
L 317.976344 574.690909 
L 318.272727 574.92555 
L 318.272727 574.92555 
" style="fill:none;stroke:#808080;"/>
   </g>
   <g id="LineCollection_3">
    <path clip-path="url(#pb9d9c7d311)" d="M 318.272727 569.487577 
L 323.345455 570.922198 
L 326.198774 569.454545 
L 333.490909 566.454637 
L 338.563636 565.401682 
L 340.978553 564.218182 
L 343.636364 563.2812 
L 348.709091 558.643814 
L 353.781818 552.8293 
L 357.293837 548.509091 
L 358.854545 545.654832 
L 360.625537 543.272727 
L 363.927273 536.963778 
L 367.28779 532.8 
L 369 530.497663 
L 371.545277 527.563636 
L 375.419492 522.327273 
L 379.145455 516.460204 
L 384.391568 511.854545 
L 389.290909 509.945125 
L 394.363636 507.196986 
L 395.077438 506.618182 
L 399.436364 503.499295 
L 402.113249 501.381818 
L 404.509091 499.775004 
L 410.364363 496.145455 
L 414.654545 493.445374 
L 417.778421 490.909091 
L 419.727273 489.475897 
L 423.714302 485.672727 
L 424.8 484.80111 
L 429.872727 479.127626 
L 433.175098 475.2 
L 434.945455 472.775584 
L 440.018182 468.214898 
L 445.090909 464.085399 
L 450.163636 462.583458 
L 455.236364 461.476269 
L 460.309091 456.719815 
L 462.131279 454.254545 
L 465.381818 448.532663 
L 468.804745 443.781818 
L 470.454545 440.758289 
L 473.586201 438.545455 
L 475.527273 437.434656 
L 480.6 437.481061 
L 485.672727 437.285451 
L 490.745455 434.06519 
L 504.871808 417.6 
L 508.598655 412.363636 
L 511.232519 407.127273 
L 513.681468 401.890909 
L 515.133347 396.654545 
L 515.548155 391.418182 
L 513.995622 386.181818 
L 511.036364 382.39477 
L 505.963636 380.665218 
L 504.006236 380.945455 
L 500.890909 381.207491 
L 495.818182 382.562854 
L 490.745455 384.581974 
L 488.349065 386.181818 
L 485.672727 387.679165 
L 482.546867 391.418182 
L 480.6 393.928658 
L 478.852375 396.654545 
L 475.527273 402.424209 
L 472.15919 407.127273 
L 470.454545 410.235174 
L 467.85823 412.363636 
L 465.381818 414.045074 
L 460.309091 414.06334 
L 455.236364 414.469285 
L 451.80953 417.6 
L 450.163636 418.852803 
L 447.279977 422.836364 
L 445.090909 426.452194 
L 443.495158 428.072727 
L 440.018182 432.168792 
L 438.444648 433.309091 
L 434.945455 435.540217 
L 430.804203 438.545455 
L 429.872727 439.07235 
L 424.8 441.010323 
L 419.727273 444.193669 
L 414.654545 449.096523 
L 409.581818 454.73102 
L 404.509091 460.168088 
L 400.499285 464.727273 
L 399.436364 466.1313 
L 394.363636 471.650845 
L 391.341929 475.2 
L 387.729667 480.436364 
L 384.840402 485.672727 
L 384.218182 487.126632 
L 381.907058 490.909091 
L 379.145455 496.465691 
L 374.072727 500.985423 
L 373.438689 501.381818 
L 369 503.591275 
L 363.927273 507.396819 
L 358.854545 511.081296 
L 357.476612 511.854545 
L 348.709091 515.346832 
L 346.385383 517.090909 
L 343.636364 518.604905 
L 338.563636 523.606883 
L 335.405034 527.563636 
L 331.985182 532.8 
L 329.458442 538.036364 
L 328.418182 541.507141 
L 327.449976 543.272727 
L 323.345455 552.06175 
L 322.237938 553.745455 
L 319.617557 558.981818 
L 317.854146 564.218182 
L 318.272727 569.487577 
L 318.272727 569.487577 
" style="fill:none;stroke:#808080;"/>
   </g>
   <g id="LineCollection_4">
    <path clip-path="url(#pb9d9c7d311)" d="M 323.345455 566.386157 
L 328.418182 565.557725 
L 332.365141 564.218182 
L 333.490909 563.95558 
L 338.563636 563.398703 
L 343.636364 561.426743 
L 348.709091 556.872508 
L 351.491489 553.745455 
L 355.650423 548.509091 
L 358.854545 542.784237 
L 361.900882 538.036364 
L 363.927273 533.818774 
L 364.749508 532.8 
L 372.528141 522.327273 
L 374.072727 519.759978 
L 375.844876 517.090909 
L 378.639733 511.854545 
L 379.145455 510.428718 
L 384.218182 507.71766 
L 389.290909 506.555963 
L 394.363636 504.325495 
L 398.121609 501.381818 
L 399.436364 500.522747 
L 405.649828 496.145455 
L 409.581818 494.143236 
L 419.727273 486.338452 
L 420.425181 485.672727 
L 424.8 482.160549 
L 429.872727 476.390968 
L 430.8741 475.2 
L 434.945455 469.722763 
L 440.669453 464.727273 
L 445.090909 461.080007 
L 450.163636 459.328656 
L 455.236364 458.500996 
L 460.309091 453.615234 
L 463.582953 449.018182 
L 465.381818 445.433054 
L 466.571514 443.781818 
L 469.66864 438.545455 
L 470.454545 436.882213 
L 475.527273 434.120026 
L 480.6 434.319773 
L 485.672727 433.757522 
L 486.334621 433.309091 
L 490.745455 430.789422 
L 497.852375 422.836364 
L 502.310396 417.6 
L 506.137142 412.363636 
L 509.336921 407.127273 
L 511.533462 401.890909 
L 513.128492 396.654545 
L 513.229263 391.418182 
L 511.036364 386.725646 
L 510.299566 386.181818 
L 505.963636 384.064025 
L 500.890909 384.482343 
L 490.745455 388.076742 
L 485.672727 391.621199 
L 480.6 397.641912 
L 477.637205 401.890909 
L 475.527273 405.745953 
L 474.538045 407.127273 
L 471.385656 412.363636 
L 470.454545 414.263033 
L 465.381818 417.628942 
L 460.172814 417.6 
L 455.236364 418.050917 
L 450.163636 422.152299 
L 445.934788 428.072727 
L 445.090909 429.734131 
L 441.9049 433.309091 
L 440.018182 435.742207 
L 436.095729 438.545455 
L 429.872727 442.211133 
L 426.551537 443.781818 
L 424.8 444.41172 
L 419.727273 447.407564 
L 418.062593 449.018182 
L 414.654545 452.112866 
L 412.738948 454.254545 
L 404.509091 462.803777 
L 402.817375 464.727273 
L 398.71425 469.963636 
L 394.127268 475.2 
L 390.130184 480.436364 
L 386.808166 485.672727 
L 384.218182 491.885988 
L 382.074568 496.145455 
L 379.145455 502.969322 
L 370.773183 506.618182 
L 369 507.286497 
L 362.613628 511.854545 
L 358.854545 514.207754 
L 352.400419 517.090909 
L 348.709091 518.2223 
L 343.636364 521.579677 
L 342.888185 522.327273 
L 338.563636 526.43407 
L 337.661924 527.563636 
L 333.966806 532.8 
L 333.490909 533.682511 
L 330.894653 538.036364 
L 329.079766 543.272727 
L 328.418182 546.050855 
L 327.202416 548.509091 
L 323.345455 557.0607 
L 322.344157 558.981818 
L 321.695977 564.218182 
L 323.345455 566.386157 
L 323.345455 566.386157 
" style="fill:none;stroke:#808080;"/>
   </g>
   <g id="LineCollection_5">
    <path clip-path="url(#pb9d9c7d311)" d="M 328.418182 561.767074 
L 333.490909 561.925719 
L 338.563636 561.88372 
L 343.636364 559.572285 
L 344.280059 558.981818 
L 348.709091 555.101202 
L 349.915412 553.745455 
L 353.781818 548.786102 
L 354.007008 548.509091 
L 357.627332 543.272727 
L 358.854545 540.429181 
L 360.389828 538.036364 
L 362.971048 532.8 
L 363.927273 530.645565 
L 366.255126 527.563636 
L 369 523.483696 
L 369.861826 522.327273 
L 372.531484 517.090909 
L 374.072727 511.926182 
L 374.097784 511.854545 
L 374.072727 511.811062 
L 369 510.931548 
L 367.669734 511.854545 
L 363.927273 514.306154 
L 358.854545 517.06697 
L 358.80113 517.090909 
L 353.781818 518.54851 
L 348.709091 520.207907 
L 345.727653 522.327273 
L 343.636364 523.524906 
L 339.538278 527.563636 
L 338.563636 528.565054 
L 335.265593 532.8 
L 333.490909 536.090998 
L 332.330863 538.036364 
L 330.127332 543.272727 
L 328.869887 548.509091 
L 328.418182 550.99833 
L 327.253507 553.745455 
L 325.905784 558.981818 
L 328.418182 561.767074 
" style="fill:none;stroke:#808080;"/>
    <path clip-path="url(#pb9d9c7d311)" d="M 389.290909 503.381373 
L 394.363636 501.631393 
L 394.68225 501.381818 
L 399.436364 498.275443 
L 402.26633 496.145455 
L 404.509091 494.656502 
L 409.581818 491.809142 
L 410.764904 490.909091 
L 414.654545 488.305039 
L 417.796055 485.672727 
L 419.727273 484.294477 
L 424.110271 480.436364 
L 424.8 479.902425 
L 429.081517 475.2 
L 429.872727 474.130846 
L 433.247483 469.963636 
L 434.945455 467.484808 
L 437.98939 464.727273 
L 440.018182 462.844204 
L 443.854656 459.490909 
L 445.090909 458.25823 
L 450.163636 457.128154 
L 455.236364 456.314698 
L 457.375038 454.254545 
L 460.309091 451.431398 
L 462.0277 449.018182 
L 464.881116 443.781818 
L 465.381818 442.541505 
L 467.957656 438.545455 
L 470.430074 433.309091 
L 470.454545 433.240218 
L 475.527273 431.297956 
L 480.6 431.905612 
L 485.672727 431.452944 
L 490.483043 428.072727 
L 490.745455 427.903867 
L 495.399342 422.836364 
L 495.818182 422.352727 
L 500.067759 417.6 
L 500.890909 416.589729 
L 504.276292 412.363636 
L 505.963636 409.61946 
L 507.507748 407.127273 
L 509.730768 401.890909 
L 511.036364 396.935228 
L 511.123637 396.654545 
L 511.036364 394.32534 
L 510.849687 391.418182 
L 505.963636 387.227971 
L 500.890909 387.331976 
L 495.818182 388.686405 
L 490.745455 390.902599 
L 490.013073 391.418182 
L 485.672727 394.1192 
L 483.521796 396.654545 
L 480.6 400.249208 
L 479.455254 401.890909 
L 476.28106 407.127273 
L 475.527273 408.781337 
L 473.214069 412.363636 
L 470.652793 417.6 
L 470.454545 418.117144 
L 465.381818 420.424082 
L 460.309091 419.73002 
L 455.236364 420.203726 
L 452.158629 422.836364 
L 450.163636 424.348213 
L 447.366938 428.072727 
L 445.090909 432.553705 
L 444.417708 433.309091 
L 440.317697 438.545455 
L 440.018182 438.896579 
L 434.945455 441.848427 
L 431.927383 443.781818 
L 429.872727 444.873024 
L 424.8 446.798538 
L 421.498367 449.018182 
L 419.727273 449.974085 
L 415.237377 454.254545 
L 414.654545 454.775509 
L 410.101674 459.490909 
L 409.581818 460.009188 
L 404.966242 464.727273 
L 404.509091 465.247653 
L 400.623807 469.963636 
L 399.436364 471.70144 
L 396.280444 475.2 
L 394.363636 477.506326 
L 392.087738 480.436364 
L 389.290909 484.862054 
L 388.77593 485.672727 
L 386.382433 490.909091 
L 384.809194 496.145455 
L 384.376769 501.381818 
L 389.290909 503.381373 
" style="fill:none;stroke:#808080;"/>
   </g>
   <g id="LineCollection_6">
    <path clip-path="url(#pb9d9c7d311)" d="M 333.490909 559.895859 
L 338.563636 560.368737 
L 341.471422 558.981818 
L 343.636364 558.214538 
L 348.426048 553.745455 
L 348.709091 553.476693 
L 352.939846 548.509091 
L 353.781818 547.269853 
L 356.610941 543.272727 
L 358.854545 538.074124 
L 358.878773 538.036364 
L 361.556653 532.8 
L 363.858501 527.563636 
L 363.927273 527.274687 
L 366.231004 522.327273 
L 363.927273 518.416266 
L 358.854545 519.560587 
L 353.781818 520.401159 
L 348.709091 522.193515 
L 348.520926 522.327273 
L 343.636364 525.124548 
L 341.16143 527.563636 
L 338.563636 530.232797 
L 336.564379 532.8 
L 333.658514 538.036364 
L 333.490909 538.455352 
L 331.174899 543.272727 
L 329.893753 548.509091 
L 329.224804 553.745455 
L 330.736749 558.981818 
L 333.490909 559.895859 
" style="fill:none;stroke:#808080;"/>
    <path clip-path="url(#pb9d9c7d311)" d="M 389.290909 499.602051 
L 394.363636 499.277021 
L 399.247508 496.145455 
L 399.436364 496.03313 
L 404.509091 492.674229 
L 407.510762 490.909091 
L 409.581818 489.904688 
L 414.654545 486.251007 
L 415.344689 485.672727 
L 419.727273 482.545013 
L 422.122798 480.436364 
L 424.8 478.363866 
L 427.680673 475.2 
L 429.872727 472.2379 
L 431.714507 469.963636 
L 434.945455 465.246854 
L 435.519 464.727273 
L 440.018182 460.551256 
L 441.231315 459.490909 
L 445.090909 455.642472 
L 450.163636 454.927652 
L 454.431369 454.254545 
L 455.236364 454.170355 
L 460.309091 449.247562 
L 460.472448 449.018182 
L 463.809581 443.781818 
L 465.381818 439.887155 
L 466.246673 438.545455 
L 468.580069 433.309091 
L 470.427589 428.072727 
L 465.381818 423.299118 
L 464.197935 422.836364 
L 460.309091 421.872428 
L 455.236364 422.356534 
L 454.67541 422.836364 
L 450.163636 426.255485 
L 448.799088 428.072727 
L 445.817493 433.309091 
L 445.090909 435.345419 
L 442.537317 438.545455 
L 440.018182 441.498667 
L 436.126079 443.781818 
L 434.945455 444.399916 
L 429.872727 447.057237 
L 425.167109 449.018182 
L 424.8 449.133163 
L 419.727273 451.890269 
L 417.247317 454.254545 
L 414.654545 456.572092 
L 411.836332 459.490909 
L 409.581818 461.738587 
L 406.658066 464.727273 
L 404.509091 467.173478 
L 402.210407 469.963636 
L 399.436364 474.023402 
L 398.374999 475.2 
L 394.363636 480.026519 
L 394.045291 480.436364 
L 390.579495 485.672727 
L 389.290909 488.600349 
L 388.220656 490.909091 
L 387.41656 496.145455 
L 389.290909 499.602051 
" style="fill:none;stroke:#808080;"/>
    <path clip-path="url(#pb9d9c7d311)" d="M 475.527273 428.635424 
L 480.6 429.842566 
L 485.672727 429.326508 
L 487.456957 428.072727 
L 490.745455 425.956599 
L 493.611013 422.836364 
L 495.818182 420.287736 
L 498.221379 417.6 
L 500.890909 414.323627 
L 502.460993 412.363636 
L 505.712837 407.127273 
L 505.963636 406.533126 
L 508.032049 401.890909 
L 509.025964 396.654545 
L 507.413887 391.418182 
L 505.963636 390.174467 
L 500.890909 389.722895 
L 495.818182 391.082579 
L 495.076254 391.418182 
L 490.745455 393.026665 
L 485.672727 396.617201 
L 485.641045 396.654545 
L 481.140605 401.890909 
L 480.6 402.60456 
L 477.571443 407.127273 
L 475.527273 411.612874 
L 475.042481 412.363636 
L 472.534975 417.6 
L 470.573025 422.836364 
L 470.629483 428.072727 
L 475.527273 428.635424 
" style="fill:none;stroke:#808080;"/>
   </g>
   <g id="LineCollection_7">
    <path clip-path="url(#pb9d9c7d311)" d="M 333.490909 557.710143 
L 338.563636 558.885746 
L 343.636364 557.088828 
L 347.219582 553.745455 
L 348.709091 552.331104 
L 351.964183 548.509091 
L 353.781818 545.833845 
L 355.59455 543.272727 
L 358.014696 538.036364 
L 358.854545 535.316554 
L 360.142258 532.8 
L 361.767207 527.563636 
L 359.88129 522.327273 
L 358.854545 522.051116 
L 353.781818 522.253807 
L 353.574928 522.327273 
L 348.709091 523.47478 
L 343.636364 526.724191 
L 342.784581 527.563636 
L 338.563636 531.90054 
L 337.863165 532.8 
L 334.530151 538.036364 
L 333.490909 540.634324 
L 332.222466 543.272727 
L 330.917618 548.509091 
L 330.796806 553.745455 
L 333.490909 557.710143 
" style="fill:none;stroke:#808080;"/>
    <path clip-path="url(#pb9d9c7d311)" d="M 394.363636 496.957334 
L 395.629812 496.145455 
L 399.436364 493.881447 
L 404.136402 490.909091 
L 404.509091 490.699718 
L 409.581818 488.26989 
L 413.07485 485.672727 
L 414.654545 484.610806 
L 419.727273 480.79555 
L 420.135325 480.436364 
L 424.8 476.825307 
L 426.279828 475.2 
L 429.872727 470.344954 
L 430.181532 469.963636 
L 433.860145 464.727273 
L 434.945455 462.87521 
L 438.613019 459.490909 
L 440.018182 457.928996 
L 443.717733 454.254545 
L 445.090909 452.617278 
L 450.163636 453.070327 
L 455.236364 452.711198 
L 458.983913 449.018182 
L 460.309091 447.535984 
L 462.738045 443.781818 
L 464.912814 438.545455 
L 465.381818 436.428629 
L 466.730064 433.309091 
L 466.856528 428.072727 
L 465.381818 426.677562 
L 460.309091 423.762298 
L 455.236364 423.896 
L 450.240622 428.072727 
L 450.163636 428.144867 
L 446.809968 433.309091 
L 445.090909 438.126938 
L 444.756938 438.545455 
L 440.467455 443.781818 
L 440.018182 444.199012 
L 434.945455 446.722206 
L 430.348056 449.018182 
L 429.872727 449.230303 
L 424.8 450.774811 
L 419.727273 453.806453 
L 419.257256 454.254545 
L 414.654545 458.368674 
L 413.570991 459.490909 
L 409.581818 463.467985 
L 408.349891 464.727273 
L 404.509091 469.099303 
L 403.797006 469.963636 
L 400.151225 475.2 
L 399.436364 476.422784 
L 396.09286 480.436364 
L 394.363636 482.622764 
L 392.324856 485.672727 
L 390.271925 490.909091 
L 391.550531 496.145455 
L 394.363636 496.957334 
" style="fill:none;stroke:#808080;"/>
    <path clip-path="url(#pb9d9c7d311)" d="M 475.527273 425.147614 
L 480.6 427.800519 
L 485.672727 427.423106 
L 490.745455 424.009332 
L 491.822684 422.836364 
L 495.818182 418.222745 
L 496.375 417.6 
L 500.682035 412.363636 
L 500.890909 412.031758 
L 504.103518 407.127273 
L 505.963636 402.720628 
L 506.333331 401.890909 
L 506.924066 396.654545 
L 505.963636 394.342413 
L 500.890909 392.162916 
L 495.818182 393.150507 
L 490.745455 394.994111 
L 488.404756 396.654545 
L 485.672727 398.323939 
L 482.600346 401.890909 
L 480.6 404.531561 
L 478.861826 407.127273 
L 476.374114 412.363636 
L 475.527273 415.268516 
L 474.417156 417.6 
L 473.625262 422.836364 
L 475.527273 425.147614 
" style="fill:none;stroke:#808080;"/>
   </g>
   <g id="LineCollection_8">
    <path clip-path="url(#pb9d9c7d311)" d="M 333.490909 555.396757 
L 338.563636 557.749219 
L 343.636364 555.963117 
L 346.013115 553.745455 
L 348.709091 551.185515 
L 350.988519 548.509091 
L 353.781818 544.397836 
L 354.578158 543.272727 
L 357.161161 538.036364 
L 358.75825 532.8 
L 358.854545 531.827612 
L 359.675914 527.563636 
L 358.854545 525.959256 
L 353.781818 523.805728 
L 348.709091 524.705171 
L 344.497809 527.563636 
L 343.636364 528.105764 
L 339.074355 532.8 
L 338.563636 533.390058 
L 335.401788 538.036364 
L 333.490909 542.813296 
L 333.270032 543.272727 
L 331.941484 548.509091 
L 332.368809 553.745455 
L 333.490909 555.396757 
" style="fill:none;stroke:#808080;"/>
    <path clip-path="url(#pb9d9c7d311)" d="M 394.363636 493.701193 
L 399.436364 491.729763 
L 400.734052 490.909091 
L 404.509091 488.788311 
L 409.581818 486.635092 
L 410.876143 485.672727 
L 414.654545 483.132765 
L 418.188044 480.436364 
L 419.727273 479.439518 
L 424.8 475.286748 
L 424.878984 475.2 
L 429.003832 469.963636 
L 429.872727 468.367363 
L 432.446672 464.727273 
L 434.945455 460.463142 
L 435.999063 459.490909 
L 440.018182 455.023447 
L 440.792335 454.254545 
L 445.090909 449.129265 
L 450.163636 451.364237 
L 455.236364 451.25204 
L 457.503208 449.018182 
L 460.309091 445.879831 
L 461.66651 443.781818 
L 463.964427 438.545455 
L 465.056385 433.309091 
L 463.99529 428.072727 
L 460.309091 425.445605 
L 455.236364 425.259552 
L 451.871553 428.072727 
L 450.163636 429.673154 
L 447.802444 433.309091 
L 445.877474 438.545455 
L 445.090909 442.549881 
L 444.132922 443.781818 
L 440.018182 447.602758 
L 435.080017 449.018182 
L 434.945455 449.068394 
L 429.872727 451.305469 
L 424.8 452.416459 
L 421.788181 454.254545 
L 419.727273 455.311503 
L 415.21376 459.490909 
L 414.654545 460.02864 
L 409.970078 464.727273 
L 409.581818 465.156656 
L 405.286974 469.963636 
L 404.509091 471.091844 
L 401.600442 475.2 
L 399.436364 478.901695 
L 398.157912 480.436364 
L 394.363636 485.233778 
L 394.070216 485.672727 
L 392.620101 490.909091 
L 394.363636 493.701193 
" style="fill:none;stroke:#808080;"/>
    <path clip-path="url(#pb9d9c7d311)" d="M 480.6 425.885227 
L 485.672727 425.840146 
L 489.866629 422.836364 
L 490.745455 422.191747 
L 494.814763 417.6 
L 495.818182 416.314049 
L 499.135771 412.363636 
L 500.890909 409.574914 
L 502.494199 407.127273 
L 504.400043 401.890909 
L 503.840986 396.654545 
L 500.890909 394.722605 
L 495.818182 395.164973 
L 491.629422 396.654545 
L 490.745455 396.906373 
L 485.672727 400.018668 
L 484.060087 401.890909 
L 480.6 406.458561 
L 480.152209 407.127273 
L 477.526504 412.363636 
L 476.107256 417.6 
L 476.498291 422.836364 
L 480.6 425.885227 
" style="fill:none;stroke:#808080;"/>
   </g>
   <g id="LineCollection_9">
    <path clip-path="url(#pb9d9c7d311)" d="M 338.563636 556.612691 
L 343.636364 554.837407 
L 344.806649 553.745455 
L 348.709091 550.039926 
L 350.012856 548.509091 
L 353.602161 543.272727 
L 353.781818 542.915744 
L 356.307626 538.036364 
L 357.683126 532.8 
L 357.350622 527.563636 
L 353.781818 525.345231 
L 348.709091 525.935562 
L 346.310503 527.563636 
L 343.636364 529.246535 
L 340.182993 532.8 
L 338.563636 534.67092 
L 336.273425 538.036364 
L 334.08562 543.272727 
L 333.490909 546.445404 
L 332.96535 548.509091 
L 333.490909 551.871008 
L 334.007747 553.745455 
L 338.563636 556.612691 
" style="fill:none;stroke:#808080;"/>
    <path clip-path="url(#pb9d9c7d311)" d="M 399.436364 487.995563 
L 404.509091 486.876905 
L 407.578075 485.672727 
L 409.581818 484.977413 
L 414.654545 481.654725 
L 416.251146 480.436364 
L 419.727273 478.185131 
L 423.359682 475.2 
L 424.8 473.902147 
L 427.915753 469.963636 
L 429.872727 466.368419 
L 431.033199 464.727273 
L 433.644759 459.490909 
L 434.945455 455.41727 
L 435.899682 454.254545 
L 434.945455 453.499565 
L 429.872727 453.380635 
L 424.8 454.058106 
L 424.478122 454.254545 
L 419.727273 456.691066 
L 416.703607 459.490909 
L 414.654545 461.461253 
L 411.398372 464.727273 
L 409.581818 466.736229 
L 406.698259 469.963636 
L 404.509091 473.138708 
L 403.049659 475.2 
L 400.255744 480.436364 
L 399.436364 482.71827 
L 397.548338 485.672727 
L 399.436364 487.995563 
" style="fill:none;stroke:#808080;"/>
    <path clip-path="url(#pb9d9c7d311)" d="M 450.163636 449.658146 
L 455.236364 449.792882 
L 456.022504 449.018182 
L 460.309091 444.223678 
L 460.594975 443.781818 
L 463.016039 438.545455 
L 463.856501 433.309091 
L 461.633389 428.072727 
L 460.309091 427.128911 
L 455.236364 426.623105 
L 453.502484 428.072727 
L 450.163636 431.201441 
L 448.79492 433.309091 
L 446.803349 438.545455 
L 446.073876 443.781818 
L 448.747075 449.018182 
L 450.163636 449.658146 
" style="fill:none;stroke:#808080;"/>
    <path clip-path="url(#pb9d9c7d311)" d="M 480.6 423.969934 
L 485.672727 424.257187 
L 487.65649 422.836364 
L 490.745455 420.570615 
L 493.37808 417.6 
L 495.818182 414.472839 
L 497.589507 412.363636 
L 500.88412 407.127273 
L 500.890909 407.101449 
L 502.401506 401.890909 
L 500.890909 397.937326 
L 495.818182 397.239411 
L 490.745455 398.520173 
L 485.672727 401.713397 
L 485.519828 401.890909 
L 481.406065 407.127273 
L 480.6 408.601053 
L 478.678894 412.363636 
L 477.521171 417.6 
L 479.07498 422.836364 
L 480.6 423.969934 
" style="fill:none;stroke:#808080;"/>
   </g>
   <g id="LineCollection_10">
    <path clip-path="url(#pb9d9c7d311)" d="M 338.563636 555.476164 
L 343.538396 553.745455 
L 343.636364 553.715428 
L 348.709091 548.894337 
L 349.037193 548.509091 
L 352.772344 543.272727 
L 353.781818 541.266877 
L 355.454091 538.036364 
L 356.608002 532.8 
L 354.873985 527.563636 
L 353.781818 526.884734 
L 348.709091 527.165953 
L 348.123197 527.563636 
L 343.636364 530.387306 
L 341.291631 532.8 
L 338.563636 535.951783 
L 337.145062 538.036364 
L 334.839227 543.272727 
L 333.936191 548.509091 
L 335.813629 553.745455 
L 338.563636 555.476164 
" style="fill:none;stroke:#808080;"/>
    <path clip-path="url(#pb9d9c7d311)" d="M 404.509091 484.234665 
L 409.581818 483.286985 
L 414.175907 480.436364 
L 414.654545 480.151392 
L 419.727273 476.930745 
L 421.833301 475.2 
L 424.8 472.526745 
L 426.827674 469.963636 
L 429.640329 464.727273 
L 429.872727 463.697412 
L 431.465783 459.490909 
L 429.872727 456.568471 
L 424.8 455.660239 
L 419.727273 458.07063 
L 418.193454 459.490909 
L 414.654545 462.893866 
L 412.826666 464.727273 
L 409.581818 468.315802 
L 408.109544 469.963636 
L 404.509091 475.185572 
L 404.498876 475.2 
L 402.406854 480.436364 
L 404.509091 484.234665 
" style="fill:none;stroke:#808080;"/>
    <path clip-path="url(#pb9d9c7d311)" d="M 450.163636 447.805422 
L 455.236364 448.413817 
L 459.44979 443.781818 
L 460.309091 442.298007 
L 462.067652 438.545455 
L 462.656618 433.309091 
L 460.309091 429.03291 
L 455.873669 428.072727 
L 455.236364 427.986657 
L 455.133416 428.072727 
L 450.163636 432.729728 
L 449.787396 433.309091 
L 447.729224 438.545455 
L 447.404647 443.781818 
L 450.163636 447.805422 
" style="fill:none;stroke:#808080;"/>
    <path clip-path="url(#pb9d9c7d311)" d="M 480.6 421.488535 
L 485.672727 422.660483 
L 490.745455 418.949484 
L 491.941397 417.6 
L 495.818182 412.631628 
L 496.043244 412.363636 
L 499.071928 407.127273 
L 499.950103 401.890909 
L 495.818182 399.484044 
L 490.745455 400.133974 
L 487.961792 401.890909 
L 485.672727 403.28961 
L 482.640508 407.127273 
L 480.6 410.858067 
L 479.831284 412.363636 
L 478.935085 417.6 
L 480.6 421.488535 
" style="fill:none;stroke:#808080;"/>
   </g>
   <g id="LineCollection_11">
    <path clip-path="url(#pb9d9c7d311)" d="M 338.563636 554.339637 
L 340.271558 553.745455 
L 343.636364 552.714175 
L 348.016829 548.509091 
L 348.709091 547.746979 
L 351.942528 543.272727 
L 353.781818 539.61801 
L 354.600556 538.036364 
L 355.532878 532.8 
L 353.781818 528.901648 
L 348.709091 528.350434 
L 343.636364 531.528077 
L 342.400268 532.8 
L 338.563636 537.232645 
L 338.016699 538.036364 
L 335.592834 543.272727 
L 334.851107 548.509091 
L 337.619511 553.745455 
L 338.563636 554.339637 
" style="fill:none;stroke:#808080;"/>
    <path clip-path="url(#pb9d9c7d311)" d="M 409.581818 481.596557 
L 411.451597 480.436364 
L 414.654545 478.529391 
L 419.727273 475.676358 
L 420.306921 475.2 
L 424.8 471.151344 
L 425.739594 469.963636 
L 428.341961 464.727273 
L 429.054918 459.490909 
L 424.8 457.257001 
L 419.727273 459.450193 
L 419.683302 459.490909 
L 414.654545 464.326479 
L 414.25496 464.727273 
L 409.581818 469.895375 
L 409.520829 469.963636 
L 406.324853 475.2 
L 404.671637 480.436364 
L 409.581818 481.596557 
" style="fill:none;stroke:#808080;"/>
    <path clip-path="url(#pb9d9c7d311)" d="M 450.163636 445.864678 
L 455.236364 447.125404 
L 458.277805 443.781818 
L 460.309091 440.274265 
L 461.119264 438.545455 
L 461.456734 433.309091 
L 460.309091 431.21858 
L 455.236364 429.269215 
L 450.995958 433.309091 
L 450.163636 434.753971 
L 448.655099 438.545455 
L 448.735417 443.781818 
L 450.163636 445.864678 
" style="fill:none;stroke:#808080;"/>
    <path clip-path="url(#pb9d9c7d311)" d="M 480.6 418.186229 
L 485.672727 420.943345 
L 490.34348 417.6 
L 490.745455 417.258055 
L 494.485719 412.363636 
L 495.818182 409.651874 
L 497.259736 407.127273 
L 496.096691 401.890909 
L 495.818182 401.728676 
L 490.745455 401.747774 
L 490.518674 401.890909 
L 485.672727 404.851957 
L 483.874952 407.127273 
L 481.091515 412.363636 
L 480.6 415.77896 
L 480.349 417.6 
L 480.6 418.186229 
" style="fill:none;stroke:#808080;"/>
   </g>
   <g id="LineCollection_12">
    <path clip-path="url(#pb9d9c7d311)" d="M 338.563636 553.038586 
L 343.636364 551.712922 
L 346.973817 548.509091 
L 348.709091 546.598724 
L 351.112711 543.272727 
L 353.739501 538.036364 
L 353.781818 537.717492 
L 354.457754 532.8 
L 353.781818 531.295176 
L 348.709091 529.512988 
L 343.636364 532.668848 
L 343.508906 532.8 
L 338.960413 538.036364 
L 338.563636 538.624857 
L 336.346441 543.272727 
L 335.766023 548.509091 
L 338.563636 553.038586 
" style="fill:none;stroke:#808080;"/>
    <path clip-path="url(#pb9d9c7d311)" d="M 409.581818 478.936028 
L 414.654545 476.907391 
L 417.846493 475.2 
L 419.727273 474.179089 
L 424.543376 469.963636 
L 424.8 469.580375 
L 427.043594 464.727273 
L 426.01357 459.490909 
L 424.8 458.853763 
L 423.321998 459.490909 
L 419.727273 461.045057 
L 415.864497 464.727273 
L 414.654545 466.273555 
L 411.395827 469.963636 
L 409.581818 472.846535 
L 408.153504 475.2 
L 409.581818 478.936028 
" style="fill:none;stroke:#808080;"/>
    <path clip-path="url(#pb9d9c7d311)" d="M 450.163636 443.923933 
L 455.236364 445.836992 
L 457.105821 443.781818 
L 460.121163 438.545455 
L 460.209015 433.309091 
L 455.236364 430.546315 
L 452.336451 433.309091 
L 450.163636 437.081019 
L 449.580974 438.545455 
L 450.066188 443.781818 
L 450.163636 443.923933 
" style="fill:none;stroke:#808080;"/>
    <path clip-path="url(#pb9d9c7d311)" d="M 485.672727 419.226207 
L 487.944587 417.6 
L 490.745455 415.217407 
L 492.926277 412.363636 
L 495.230967 407.127273 
L 490.745455 403.820059 
L 485.672727 406.414304 
L 485.109396 407.127273 
L 482.567812 412.363636 
L 482.957815 417.6 
L 485.672727 419.226207 
" style="fill:none;stroke:#808080;"/>
   </g>
   <g id="LineCollection_13">
    <path clip-path="url(#pb9d9c7d311)" d="M 338.563636 551.557284 
L 343.636364 550.711669 
L 345.930804 548.509091 
L 348.709091 545.45047 
L 350.282895 543.272727 
L 352.701502 538.036364 
L 352.925186 532.8 
L 348.709091 530.675543 
L 345.291528 532.8 
L 343.636364 533.884036 
L 340.025537 538.036364 
L 338.563636 540.204631 
L 337.100048 543.272727 
L 336.68094 548.509091 
L 338.563636 551.557284 
" style="fill:none;stroke:#808080;"/>
    <path clip-path="url(#pb9d9c7d311)" d="M 414.654545 475.28539 
L 414.814182 475.2 
L 419.727273 472.533112 
L 422.662867 469.963636 
L 424.8 466.771886 
L 425.745227 464.727273 
L 424.8 461.858823 
L 419.727273 462.64647 
L 417.544436 464.727273 
L 414.654545 468.420467 
L 413.291769 469.963636 
L 413.671175 475.2 
L 414.654545 475.28539 
" style="fill:none;stroke:#808080;"/>
    <path clip-path="url(#pb9d9c7d311)" d="M 455.236364 444.548579 
L 455.933836 443.781818 
L 458.831655 438.545455 
L 457.910393 433.309091 
L 455.236364 431.823416 
L 453.676943 433.309091 
L 450.758928 438.545455 
L 453.252726 443.781818 
L 455.236364 444.548579 
" style="fill:none;stroke:#808080;"/>
    <path clip-path="url(#pb9d9c7d311)" d="M 485.672727 417.360156 
L 490.745455 413.176759 
L 491.366835 412.363636 
L 492.359843 407.127273 
L 490.745455 405.936968 
L 488.166367 407.127273 
L 485.672727 408.855911 
L 484.044109 412.363636 
L 485.672727 417.360156 
" style="fill:none;stroke:#808080;"/>
   </g>
   <g id="LineCollection_14">
    <path clip-path="url(#pb9d9c7d311)" d="M 338.563636 550.075982 
L 343.636364 549.710415 
L 344.887792 548.509091 
L 348.709091 544.302216 
L 349.453078 543.272727 
L 351.663503 538.036364 
L 350.618036 532.8 
L 348.709091 531.838098 
L 347.161702 532.8 
L 343.636364 535.108892 
L 341.09066 538.036364 
L 338.563636 541.784406 
L 337.853655 543.272727 
L 337.595856 548.509091 
L 338.563636 550.075982 
" style="fill:none;stroke:#808080;"/>
    <path clip-path="url(#pb9d9c7d311)" d="M 419.727273 470.887135 
L 420.782358 469.963636 
L 422.385126 464.727273 
L 419.727273 464.247882 
L 419.224375 464.727273 
L 416.348193 469.963636 
L 419.727273 470.887135 
" style="fill:none;stroke:#808080;"/>
    <path clip-path="url(#pb9d9c7d311)" d="M 455.236364 442.815059 
L 457.542148 438.545455 
L 455.611771 433.309091 
L 455.236364 433.100517 
L 455.017436 433.309091 
L 452.36483 438.545455 
L 455.236364 442.815059 
" style="fill:none;stroke:#808080;"/>
    <path clip-path="url(#pb9d9c7d311)" d="M 485.672727 412.830948 
L 486.415426 412.363636 
L 485.672727 412.035568 
L 485.520407 412.363636 
L 485.672727 412.830948 
" style="fill:none;stroke:#808080;"/>
   </g>
   <g id="LineCollection_15">
    <path clip-path="url(#pb9d9c7d311)" d="M 338.563636 548.594681 
L 343.636364 548.709162 
L 343.844779 548.509091 
L 348.532057 543.272727 
L 348.709091 542.994936 
L 350.625504 538.036364 
L 348.709091 533.247667 
L 343.636364 536.333747 
L 342.155783 538.036364 
L 338.664267 543.272727 
L 338.563636 545.893385 
L 338.510772 548.509091 
L 338.563636 548.594681 
" style="fill:none;stroke:#808080;"/>
    <path clip-path="url(#pb9d9c7d311)" d="M 455.236364 440.427286 
L 456.25264 438.545455 
L 455.236364 436.005537 
L 453.970733 438.545455 
L 455.236364 440.427286 
" style="fill:none;stroke:#808080;"/>
   </g>
   <g id="LineCollection_16">
    <path clip-path="url(#pb9d9c7d311)" d="M 343.636364 546.934173 
L 346.820452 543.272727 
L 348.709091 540.309193 
L 349.587505 538.036364 
L 348.709091 535.841399 
L 343.636364 537.558602 
L 343.220906 538.036364 
L 340.402583 543.272727 
L 343.636364 546.934173 
" style="fill:none;stroke:#808080;"/>
   </g>
   <g id="LineCollection_17">
    <path clip-path="url(#pb9d9c7d311)" d="M 343.636364 544.965966 
L 345.108848 543.272727 
L 343.636364 540.208725 
L 342.140899 543.272727 
L 343.636364 544.965966 
" style="fill:none;stroke:#808080;"/>
   </g>
   <g id="PathCollection_1">
    <defs>
     <path d="M 0 2.236068 
C 0.593012 2.236068 1.161816 2.000462 1.581139 1.581139 
C 2.000462 1.161816 2.236068 0.593012 2.236068 0 
C 2.236068 -0.593012 2.000462 -1.161816 1.581139 -1.581139 
C 1.161816 -2.000462 0.593012 -2.236068 0 -2.236068 
C -0.593012 -2.236068 -1.161816 -2.000462 -1.581139 -1.581139 
C -2.000462 -1.161816 -2.236068 -0.593012 -2.236068 0 
C -2.236068 0.593012 -2.000462 1.161816 -1.581139 1.581139 
C -1.161816 2.000462 -0.593012 2.236068 0 2.236068 
z
" id="mbf9b218774" style="stroke:#000000;"/>
    </defs>
    <g clip-path="url(#pb9d9c7d311)">
     <use style="stroke:#000000;" x="449.045383031" xlink:href="#mbf9b218774" y="321.481199429"/>
    </g>
   </g>
   <g id="PathCollection_2">
    <g clip-path="url(#pb9d9c7d311)">
     <use style="stroke:#000000;" x="401.345462024" xlink:href="#mbf9b218774" y="531.817184644"/>
    </g>
   </g>
   <g id="PathCollection_3">
    <g clip-path="url(#pb9d9c7d311)">
     <use style="stroke:#000000;" x="477.280223981" xlink:href="#mbf9b218774" y="412.866254165"/>
    </g>
   </g>
   <g id="PathCollection_4">
    <g clip-path="url(#pb9d9c7d311)">
     <use style="stroke:#000000;" x="454.785794381" xlink:href="#mbf9b218774" y="498.756370364"/>
    </g>
   </g>
   <g id="PathCollection_5">
    <g clip-path="url(#pb9d9c7d311)">
     <use style="stroke:#000000;" x="354.933036281" xlink:href="#mbf9b218774" y="394.237762238"/>
    </g>
   </g>
   <g id="PathCollection_6">
    <g clip-path="url(#pb9d9c7d311)">
     <use style="stroke:#000000;" x="504.550471032" xlink:href="#mbf9b218774" y="373.756548536"/>
    </g>
   </g>
   <g id="PathCollection_7">
    <g clip-path="url(#pb9d9c7d311)">
     <use style="stroke:#000000;" x="462.292697846" xlink:href="#mbf9b218774" y="371.86013986"/>
    </g>
   </g>
   <g id="PathCollection_8">
    <g clip-path="url(#pb9d9c7d311)">
     <use style="stroke:#000000;" x="272.506051018" xlink:href="#mbf9b218774" y="571.910203073"/>
    </g>
   </g>
   <g id="PathCollection_9">
    <g clip-path="url(#pb9d9c7d311)">
     <use style="stroke:#000000;" x="442.838957567" xlink:href="#mbf9b218774" y="330.504027618"/>
    </g>
   </g>
   <g id="PathCollection_10">
    <g clip-path="url(#pb9d9c7d311)">
     <use style="stroke:#000000;" x="254.657264159" xlink:href="#mbf9b218774" y="566.865134865"/>
    </g>
   </g>
   <g id="PathCollection_11">
    <g clip-path="url(#pb9d9c7d311)">
     <use style="stroke:#000000;" x="451.455034539" xlink:href="#mbf9b218774" y="471.551917277"/>
    </g>
   </g>
   <g id="PathCollection_12">
    <g clip-path="url(#pb9d9c7d311)">
     <use style="stroke:#000000;" x="382.309186779" xlink:href="#mbf9b218774" y="503.931221143"/>
    </g>
   </g>
   <g id="PathCollection_13">
    <g clip-path="url(#pb9d9c7d311)">
     <use style="stroke:#000000;" x="303.185889172" xlink:href="#mbf9b218774" y="473.291418862"/>
    </g>
   </g>
   <g id="PathCollection_14">
    <g clip-path="url(#pb9d9c7d311)">
     <use style="stroke:#000000;" x="329.613174372" xlink:href="#mbf9b218774" y="487.447032307"/>
    </g>
   </g>
   <g id="PathCollection_15">
    <g clip-path="url(#pb9d9c7d311)">
     <use style="stroke:#000000;" x="274.013996008" xlink:href="#mbf9b218774" y="440.254653359"/>
    </g>
   </g>
   <g id="PathCollection_16">
    <g clip-path="url(#pb9d9c7d311)">
     <use style="stroke:#000000;" x="306.540018409" xlink:href="#mbf9b218774" y="417.225336844"/>
    </g>
   </g>
   <g id="PathCollection_17">
    <g clip-path="url(#pb9d9c7d311)">
     <use style="stroke:#000000;" x="282.632292646" xlink:href="#mbf9b218774" y="470.812439051"/>
    </g>
   </g>
   <g id="PathCollection_18">
    <g clip-path="url(#pb9d9c7d311)">
     <use style="stroke:#000000;" x="342.020747215" xlink:href="#mbf9b218774" y="471.551917277"/>
    </g>
   </g>
   <g id="PathCollection_19">
    <g clip-path="url(#pb9d9c7d311)">
     <use style="stroke:#000000;" x="335.669336593" xlink:href="#mbf9b218774" y="443.637419185"/>
    </g>
   </g>
   <g id="PathCollection_20">
    <g clip-path="url(#pb9d9c7d311)">
     <use style="stroke:#000000;" x="250.148845225" xlink:href="#mbf9b218774" y="482.905176632"/>
    </g>
   </g>
   <g id="PathCollection_21">
    <g clip-path="url(#pb9d9c7d311)">
     <use style="stroke:#000000;" x="256.205007446" xlink:href="#mbf9b218774" y="487.447032307"/>
    </g>
   </g>
   <g id="PathCollection_22">
    <g clip-path="url(#pb9d9c7d311)">
     <use style="stroke:#000000;" x="231.052767604" xlink:href="#mbf9b218774" y="349.797695262"/>
    </g>
   </g>
   <g id="PathCollection_23">
    <g clip-path="url(#pb9d9c7d311)">
     <use style="stroke:#000000;" x="190.865685697" xlink:href="#mbf9b218774" y="498.666666667"/>
    </g>
   </g>
   <g id="PathCollection_24">
    <g clip-path="url(#pb9d9c7d311)">
     <use style="stroke:#000000;" x="213.122372476" xlink:href="#mbf9b218774" y="503.770334928"/>
    </g>
   </g>
   <g id="PathCollection_25">
    <g clip-path="url(#pb9d9c7d311)">
     <use style="stroke:#000000;" x="228.219755017" xlink:href="#mbf9b218774" y="498.666666667"/>
    </g>
   </g>
   <g id="PathCollection_26">
    <g clip-path="url(#pb9d9c7d311)">
     <use style="stroke:#000000;" x="419.276817378" xlink:href="#mbf9b218774" y="403.122994652"/>
    </g>
   </g>
   <g id="PathCollection_27">
    <g clip-path="url(#pb9d9c7d311)">
     <use style="stroke:#000000;" x="357.871426252" xlink:href="#mbf9b218774" y="438.151742994"/>
    </g>
   </g>
   <g id="PathCollection_28">
    <g clip-path="url(#pb9d9c7d311)">
     <use style="stroke:#000000;" x="276.193565552" xlink:href="#mbf9b218774" y="523.009960913"/>
    </g>
   </g>
   <g id="PathCollection_29">
    <g clip-path="url(#pb9d9c7d311)">
     <use style="stroke:#000000;" x="407.562902753" xlink:href="#mbf9b218774" y="435.747397641"/>
    </g>
   </g>
   <g id="PathCollection_30">
    <g clip-path="url(#pb9d9c7d311)">
     <use style="stroke:#000000;" x="223.698869379" xlink:href="#mbf9b218774" y="327.791676354"/>
    </g>
   </g>
   <g id="text_15">
    <text style="font-family:Arial;font-size:9.0px;font-style:normal;font-weight:400;text-anchor:start;" transform="rotate(-0.000000, 452.089019, 318.339381)" x="452.089019394" y="318.339381247">2E-06</text>
   </g>
   <g id="text_16">
    <text style="font-family:Arial;font-size:9.0px;font-style:normal;font-weight:400;text-anchor:start;" transform="rotate(-0.000000, 404.389098, 528.675366)" x="404.389098388" y="528.675366462">8E-05</text>
   </g>
   <g id="text_17">
    <text style="font-family:Arial;font-size:9.0px;font-style:normal;font-weight:400;text-anchor:start;" transform="rotate(-0.000000, 480.323860, 409.724436)" x="480.323860344" y="409.724435983">3E-03</text>
   </g>
   <g id="text_18">
    <text style="font-family:Arial;font-size:9.0px;font-style:normal;font-weight:400;text-anchor:start;" transform="rotate(-0.000000, 457.829431, 495.614552)" x="457.829430744" y="495.614552182">1E-04</text>
   </g>
   <g id="text_19">
    <text style="font-family:Arial;font-size:9.0px;font-style:normal;font-weight:400;text-anchor:start;" transform="rotate(-0.000000, 357.976673, 391.095944)" x="357.976672644" y="391.095944056">9E-13</text>
   </g>
   <g id="text_20">
    <text style="font-family:Arial;font-size:9.0px;font-style:normal;font-weight:400;text-anchor:start;" transform="rotate(-0.000000, 507.594107, 370.614730)" x="507.594107396" y="370.614730354">8E-04</text>
   </g>
   <g id="text_21">
    <text style="font-family:Arial;font-size:9.0px;font-style:normal;font-weight:400;text-anchor:start;" transform="rotate(-0.000000, 465.336334, 368.718322)" x="465.336334209" y="368.718321678">9E-05</text>
   </g>
   <g id="text_22">
    <text style="font-family:Arial;font-size:9.0px;font-style:normal;font-weight:400;text-anchor:start;" transform="rotate(-0.000000, 275.549687, 568.768385)" x="275.549687381" y="568.768384891">5E-11</text>
   </g>
   <g id="text_23">
    <text style="font-family:Arial;font-size:9.0px;font-style:normal;font-weight:400;text-anchor:start;" transform="rotate(-0.000000, 445.882594, 327.362209)" x="445.882593931" y="327.362209436">3E-06</text>
   </g>
   <g id="text_24">
    <text style="font-family:Arial;font-size:9.0px;font-style:normal;font-weight:400;text-anchor:start;" transform="rotate(-0.000000, 257.700901, 563.723317)" x="257.700900522" y="563.723316683">9E-23</text>
   </g>
   <g id="text_25">
    <text style="font-family:Arial;font-size:9.0px;font-style:normal;font-weight:400;text-anchor:start;" transform="rotate(-0.000000, 454.498671, 468.410099)" x="454.498670902" y="468.410099095">6E-04</text>
   </g>
   <g id="text_26">
    <text style="font-family:Arial;font-size:9.0px;font-style:normal;font-weight:400;text-anchor:start;" transform="rotate(-0.000000, 385.352823, 500.789403)" x="385.352823142" y="500.789402961">2E-03</text>
   </g>
   <g id="text_27">
    <text style="font-family:Arial;font-size:9.0px;font-style:normal;font-weight:400;text-anchor:start;" transform="rotate(-0.000000, 306.229526, 470.149601)" x="306.229525535" y="470.14960068">5E-07</text>
   </g>
   <g id="text_28">
    <text style="font-family:Arial;font-size:9.0px;font-style:normal;font-weight:400;text-anchor:start;" transform="rotate(-0.000000, 332.656811, 484.305214)" x="332.656810736" y="484.305214125">3E-05</text>
   </g>
   <g id="text_29">
    <text style="font-family:Arial;font-size:9.0px;font-style:normal;font-weight:400;text-anchor:start;" transform="rotate(-0.000000, 277.057632, 437.112835)" x="277.057632372" y="437.112835177">5E-32</text>
   </g>
   <g id="text_30">
    <text style="font-family:Arial;font-size:9.0px;font-style:normal;font-weight:400;text-anchor:start;" transform="rotate(-0.000000, 309.583655, 414.083519)" x="309.583654772" y="414.083518662">3E-20</text>
   </g>
   <g id="text_31">
    <text style="font-family:Arial;font-size:9.0px;font-style:normal;font-weight:400;text-anchor:start;" transform="rotate(-0.000000, 285.675929, 467.670621)" x="285.67592901" y="467.670620869">2E-14</text>
   </g>
   <g id="text_32">
    <text style="font-family:Arial;font-size:9.0px;font-style:normal;font-weight:400;text-anchor:start;" transform="rotate(-0.000000, 345.064384, 468.410099)" x="345.064383579" y="468.410099095">6E-05</text>
   </g>
   <g id="text_33">
    <text style="font-family:Arial;font-size:9.0px;font-style:normal;font-weight:400;text-anchor:start;" transform="rotate(-0.000000, 338.712973, 440.495601)" x="338.712972957" y="440.495601003">6E-06</text>
   </g>
   <g id="text_34">
    <text style="font-family:Arial;font-size:9.0px;font-style:normal;font-weight:400;text-anchor:start;" transform="rotate(-0.000000, 253.192482, 479.763358)" x="253.192481588" y="479.76335845">5E-33</text>
   </g>
   <g id="text_35">
    <text style="font-family:Arial;font-size:9.0px;font-style:normal;font-weight:400;text-anchor:start;" transform="rotate(-0.000000, 259.248644, 484.305214)" x="259.24864381" y="484.305214125">3E-27</text>
   </g>
   <g id="text_36">
    <text style="font-family:Arial;font-size:9.0px;font-style:normal;font-weight:400;text-anchor:start;" transform="rotate(-0.000000, 234.096404, 346.655877)" x="234.096403968" y="346.655877081">1E-175</text>
   </g>
   <g id="text_37">
    <text style="font-family:Arial;font-size:9.0px;font-style:normal;font-weight:400;text-anchor:start;" transform="rotate(-0.000000, 193.909322, 495.524848)" x="193.909322061" y="495.524848485">2E-116</text>
   </g>
   <g id="text_38">
    <text style="font-family:Arial;font-size:9.0px;font-style:normal;font-weight:400;text-anchor:start;" transform="rotate(-0.000000, 216.166009, 500.628517)" x="216.16600884" y="500.628516746">3E-80</text>
   </g>
   <g id="text_39">
    <text style="font-family:Arial;font-size:9.0px;font-style:normal;font-weight:400;text-anchor:start;" transform="rotate(-0.000000, 231.263391, 495.524848)" x="231.263391381" y="495.524848485">1E-58</text>
   </g>
   <g id="text_40">
    <text style="font-family:Arial;font-size:9.0px;font-style:normal;font-weight:400;text-anchor:start;" transform="rotate(-0.000000, 422.320454, 399.981176)" x="422.320453742" y="399.981176471">9E-05</text>
   </g>
   <g id="text_41">
    <text style="font-family:Arial;font-size:9.0px;font-style:normal;font-weight:400;text-anchor:start;" transform="rotate(-0.000000, 360.915063, 435.009925)" x="360.915062616" y="435.009924812">1E-05</text>
   </g>
   <g id="text_42">
    <text style="font-family:Arial;font-size:9.0px;font-style:normal;font-weight:400;text-anchor:start;" transform="rotate(-0.000000, 279.237202, 519.868143)" x="279.237201916" y="519.868142731">1E-11</text>
   </g>
   <g id="text_43">
    <text style="font-family:Arial;font-size:9.0px;font-style:normal;font-weight:400;text-anchor:start;" transform="rotate(-0.000000, 410.606539, 432.605579)" x="410.606539116" y="432.605579459">3E-04</text>
   </g>
   <g id="text_44">
    <text style="font-family:Arial;font-size:9.0px;font-style:normal;font-weight:400;text-anchor:start;" transform="rotate(-0.000000, 226.742506, 324.649858)" x="226.742505743" y="324.649858173">4E-230</text>
   </g>
  </g>
 </g>
 <defs>
  <clipPath id="pb9d9c7d311">
   <rect height="576.0" width="558.0" x="90.0" y="72.0"/>
  </clipPath>
 </defs>
</svg>
