<?xml version="1.0" encoding="utf-8" standalone="no"?>
<!DOCTYPE svg PUBLIC "-//W3C//DTD SVG 1.1//EN"
  "http://www.w3.org/Graphics/SVG/1.1/DTD/svg11.dtd">
<!-- Created with matplotlib (http://matplotlib.org/) -->
<svg height="720pt" version="1.1" viewBox="0 0 720 720" width="720pt" xmlns="http://www.w3.org/2000/svg" xmlns:xlink="http://www.w3.org/1999/xlink">
 <defs>
  <style type="text/css">
*{stroke-linecap:butt;stroke-linejoin:round;stroke-miterlimit:100000;}
  </style>
 </defs>
 <g id="figure_1">
  <g id="patch_1">
   <path d="M 0 720 
L 720 720 
L 720 0 
L 0 0 
z
" style="fill:#ffffff;"/>
  </g>
  <g id="axes_1">
   <g id="patch_2">
    <path d="M 90 648 
L 648 648 
L 648 72 
L 90 72 
z
" style="fill:#ffffff;"/>
   </g>
   <g id="patch_3">
    <path d="M 90 72 
L 648 72 
" style="fill:none;"/>
   </g>
   <g id="patch_4">
    <path d="M 648 648 
L 648 72 
" style="fill:none;"/>
   </g>
   <g id="patch_5">
    <path d="M 90 658 
L 648 658 
" style="fill:none;stroke:#000000;stroke-linecap:square;stroke-linejoin:miter;stroke-width:0.75;"/>
   </g>
   <g id="patch_6">
    <path d="M 80 648 
L 80 72 
" style="fill:none;stroke:#000000;stroke-linecap:square;stroke-linejoin:miter;stroke-width:0.75;"/>
   </g>
   <g id="matplotlib.axis_1">
    <g id="xtick_1">
     <g id="line2d_1">
      <defs>
       <path d="M 0 0 
L 0 -4 
" id="m08829eee7a" style="stroke:#000000;stroke-width:0.75;"/>
      </defs>
      <g>
       <use style="stroke:#000000;stroke-width:0.75;" x="90.0" xlink:href="#m08829eee7a" y="658.0"/>
      </g>
     </g>
     <g id="text_1">
      <text style="font-family:Arial;font-size:9.0px;font-style:normal;font-weight:400;text-anchor:middle;" transform="rotate(-0.000000, 90.000000, 668.442031)" x="90.0" y="668.44203125">−2</text>
     </g>
    </g>
    <g id="xtick_2">
     <g id="line2d_2">
      <g>
       <use style="stroke:#000000;stroke-width:0.75;" x="191.454545455" xlink:href="#m08829eee7a" y="658.0"/>
      </g>
     </g>
     <g id="text_2">
      <text style="font-family:Arial;font-size:9.0px;font-style:normal;font-weight:400;text-anchor:middle;" transform="rotate(-0.000000, 191.454545, 668.442031)" x="191.454545455" y="668.44203125">−1</text>
     </g>
    </g>
    <g id="xtick_3">
     <g id="line2d_3">
      <g>
       <use style="stroke:#000000;stroke-width:0.75;" x="292.909090909" xlink:href="#m08829eee7a" y="658.0"/>
      </g>
     </g>
     <g id="text_3">
      <text style="font-family:Arial;font-size:9.0px;font-style:normal;font-weight:400;text-anchor:middle;" transform="rotate(-0.000000, 292.909091, 668.442031)" x="292.909090909" y="668.44203125">0</text>
     </g>
    </g>
    <g id="xtick_4">
     <g id="line2d_4">
      <g>
       <use style="stroke:#000000;stroke-width:0.75;" x="394.363636364" xlink:href="#m08829eee7a" y="658.0"/>
      </g>
     </g>
     <g id="text_4">
      <text style="font-family:Arial;font-size:9.0px;font-style:normal;font-weight:400;text-anchor:middle;" transform="rotate(-0.000000, 394.363636, 668.442031)" x="394.363636364" y="668.44203125">1</text>
     </g>
    </g>
    <g id="xtick_5">
     <g id="line2d_5">
      <g>
       <use style="stroke:#000000;stroke-width:0.75;" x="495.818181818" xlink:href="#m08829eee7a" y="658.0"/>
      </g>
     </g>
     <g id="text_5">
      <text style="font-family:Arial;font-size:9.0px;font-style:normal;font-weight:400;text-anchor:middle;" transform="rotate(-0.000000, 495.818182, 668.442031)" x="495.818181818" y="668.44203125">2</text>
     </g>
    </g>
    <g id="xtick_6">
     <g id="line2d_6">
      <g>
       <use style="stroke:#000000;stroke-width:0.75;" x="597.272727273" xlink:href="#m08829eee7a" y="658.0"/>
      </g>
     </g>
     <g id="text_6">
      <text style="font-family:Arial;font-size:9.0px;font-style:normal;font-weight:400;text-anchor:middle;" transform="rotate(-0.000000, 597.272727, 668.442031)" x="597.272727273" y="668.44203125">3</text>
     </g>
    </g>
    <g id="text_7">
     <text style="font-family:Arial;font-size:9.0px;font-style:normal;font-weight:400;text-anchor:middle;" transform="rotate(-0.000000, 369.000000, 681.782500)" x="369.0" y="681.7825">windspeed along trajectory, m/s</text>
    </g>
   </g>
   <g id="matplotlib.axis_2">
    <g id="ytick_1">
     <g id="line2d_7">
      <defs>
       <path d="M 0 0 
L 4 0 
" id="m88d19f1863" style="stroke:#000000;stroke-width:0.75;"/>
      </defs>
      <g>
       <use style="stroke:#000000;stroke-width:0.75;" x="80.0" xlink:href="#m88d19f1863" y="595.636363636"/>
      </g>
     </g>
     <g id="text_8">
      <text style="font-family:Arial;font-size:9.0px;font-style:normal;font-weight:400;text-anchor:end;" transform="rotate(-0.000000, 76.000000, 597.963004)" x="76.0" y="597.963004261">0</text>
     </g>
    </g>
    <g id="ytick_2">
     <g id="line2d_8">
      <g>
       <use style="stroke:#000000;stroke-width:0.75;" x="80.0" xlink:href="#m88d19f1863" y="490.909090909"/>
      </g>
     </g>
     <g id="text_9">
      <text style="font-family:Arial;font-size:9.0px;font-style:normal;font-weight:400;text-anchor:end;" transform="rotate(-0.000000, 76.000000, 493.235732)" x="76.0" y="493.235731534">1</text>
     </g>
    </g>
    <g id="ytick_3">
     <g id="line2d_9">
      <g>
       <use style="stroke:#000000;stroke-width:0.75;" x="80.0" xlink:href="#m88d19f1863" y="386.181818182"/>
      </g>
     </g>
     <g id="text_10">
      <text style="font-family:Arial;font-size:9.0px;font-style:normal;font-weight:400;text-anchor:end;" transform="rotate(-0.000000, 76.000000, 388.508459)" x="76.0" y="388.508458807">2</text>
     </g>
    </g>
    <g id="ytick_4">
     <g id="line2d_10">
      <g>
       <use style="stroke:#000000;stroke-width:0.75;" x="80.0" xlink:href="#m88d19f1863" y="281.454545455"/>
      </g>
     </g>
     <g id="text_11">
      <text style="font-family:Arial;font-size:9.0px;font-style:normal;font-weight:400;text-anchor:end;" transform="rotate(-0.000000, 76.000000, 283.781186)" x="76.0" y="283.78118608">3</text>
     </g>
    </g>
    <g id="ytick_5">
     <g id="line2d_11">
      <g>
       <use style="stroke:#000000;stroke-width:0.75;" x="80.0" xlink:href="#m88d19f1863" y="176.727272727"/>
      </g>
     </g>
     <g id="text_12">
      <text style="font-family:Arial;font-size:9.0px;font-style:normal;font-weight:400;text-anchor:end;" transform="rotate(-0.000000, 76.000000, 179.053913)" x="76.0" y="179.053913352">4</text>
     </g>
    </g>
    <g id="ytick_6">
     <g id="line2d_12">
      <g>
       <use style="stroke:#000000;stroke-width:0.75;" x="80.0" xlink:href="#m88d19f1863" y="72.0"/>
      </g>
     </g>
     <g id="text_13">
      <text style="font-family:Arial;font-size:9.0px;font-style:normal;font-weight:400;text-anchor:end;" transform="rotate(-0.000000, 76.000000, 74.326641)" x="76.0" y="74.326640625">5</text>
     </g>
    </g>
    <g id="text_14">
     <text style="font-family:Arial;font-size:9.0px;font-style:normal;font-weight:400;text-anchor:middle;" transform="rotate(-90.000000, 64.100937, 360.000000)" x="64.1009375" y="360.0">groundspeed along trajectory, m/s</text>
    </g>
   </g>
   <g id="LineCollection_1">
    <path clip-path="url(#paf6ecb787c)" d="M 323.345455 586.407441 
L 328.418182 586.664683 
L 333.490909 586.395256 
L 338.738859 585.163636 
L 343.636364 583.619123 
L 348.709091 580.815808 
L 350.012704 579.927273 
L 354.872768 574.690909 
L 360.595961 569.454545 
L 363.927273 567.244225 
L 369 565.244362 
L 376.832837 564.218182 
L 379.145455 564.056818 
L 389.290909 562.792146 
L 394.363636 562.089563 
L 399.436364 560.863961 
L 404.941859 558.981818 
L 409.581818 558.334935 
L 414.654545 557.350797 
L 420.165085 553.745455 
L 424.8 551.603543 
L 434.945455 545.947905 
L 440.018182 541.535705 
L 445.090909 539.265265 
L 450.163636 539.160698 
L 455.236364 539.218779 
L 459.199903 538.036364 
L 460.309091 537.855633 
L 465.381818 536.34729 
L 470.454545 534.703012 
L 475.527273 532.287008 
L 480.6 528.35423 
L 481.396365 527.563636 
L 481.05447 522.327273 
L 480.6 521.977141 
L 475.527273 519.344095 
L 465.381818 517.482613 
L 460.309091 516.853915 
L 450.163636 516.277286 
L 440.018182 516.34154 
L 434.945455 515.546162 
L 429.872727 515.610896 
L 428.003291 517.090909 
L 424.8 520.315275 
L 422.097254 522.327273 
L 419.727273 523.08086 
L 414.654545 527.736831 
L 409.581818 529.446476 
L 404.509091 528.528808 
L 399.436364 527.849175 
L 395.716067 527.563636 
L 394.363636 527.273246 
L 389.290909 524.308504 
L 386.949844 522.327273 
L 389.290909 520.174626 
L 394.363636 518.396723 
L 399.436364 519.05573 
L 404.509091 519.206604 
L 409.581818 517.078404 
L 414.654545 512.592385 
L 415.22877 511.854545 
L 416.991333 506.618182 
L 418.297643 501.381818 
L 420.725684 496.145455 
L 424.8 491.905939 
L 425.58005 490.909091 
L 429.872727 487.962863 
L 432.155826 485.672727 
L 434.945455 483.655249 
L 440.018182 478.513522 
L 442.977937 475.2 
L 445.090909 471.579249 
L 446.43493 469.963636 
L 450.163636 463.703525 
L 454.734134 459.490909 
L 455.236364 459.238058 
L 460.309091 455.872843 
L 461.986762 454.254545 
L 465.381818 451.370124 
L 475.527273 441.257402 
L 478.504468 438.545455 
L 480.6 437.401571 
L 485.672727 432.762962 
L 495.818182 421.87196 
L 499.724392 417.6 
L 500.890909 415.890524 
L 505.963636 410.452212 
L 509.103942 407.127273 
L 511.036364 404.329552 
L 513.182009 401.890909 
L 516.109091 398.296485 
L 517.666938 396.654545 
L 521.396424 391.418182 
L 524.250801 386.181818 
L 524.93956 380.945455 
L 525.449471 375.709091 
L 526.254545 372.224849 
L 527.01156 370.472727 
L 526.254545 368.725684 
L 521.181818 367.633446 
L 519.01244 365.236364 
L 517.292448 360 
L 516.008333 354.763636 
L 513.685045 349.527273 
L 511.036364 345.779602 
L 509.169003 344.290909 
L 505.963636 342.371829 
L 500.890909 342.244654 
L 495.818182 342.655757 
L 490.745455 341.966488 
L 485.672727 341.888351 
L 480.6 342.368011 
L 475.527273 343.606175 
L 470.454545 345.731993 
L 465.381818 347.501379 
L 460.184986 349.527273 
L 450.163636 352.054761 
L 445.090909 354.302465 
L 444.375521 354.763636 
L 440.018182 357.042493 
L 429.872727 363.367876 
L 427.646241 365.236364 
L 419.727273 370.789003 
L 414.654545 373.528498 
L 411.75216 375.709091 
L 409.581818 376.938231 
L 403.818515 380.945455 
L 399.436364 383.537213 
L 389.1804 391.418182 
L 383.04074 396.654545 
L 379.145455 400.129206 
L 376.897475 401.890909 
L 358.854545 414.898817 
L 355.482518 417.6 
L 353.781818 418.602159 
L 348.709091 420.949223 
L 345.372022 422.836364 
L 343.636364 423.515099 
L 338.563636 425.64076 
L 333.490909 428.516736 
L 328.418182 431.090925 
L 325.197015 433.309091 
L 323.345455 434.413414 
L 318.272727 436.763941 
L 315.02602 438.545455 
L 313.2 439.191737 
L 308.127273 441.417628 
L 304.815089 443.781818 
L 296.270036 449.018182 
L 292.909091 450.375954 
L 287.836364 452.839548 
L 285.573114 454.254545 
L 282.763636 455.368125 
L 277.690909 457.574455 
L 274.335908 459.490909 
L 272.618182 460.096224 
L 267.545455 461.58132 
L 262.472727 463.693886 
L 260.702043 464.727273 
L 257.4 465.952511 
L 252.327273 468.287763 
L 249.270815 469.963636 
L 247.254545 470.627677 
L 242.181818 472.458307 
L 237.109091 475.62429 
L 232.036364 478.655321 
L 229.77218 480.436364 
L 226.171013 485.672727 
L 227.498027 490.909091 
L 232.036364 494.712025 
L 235.429487 496.145455 
L 237.109091 497.981588 
L 241.217212 501.381818 
L 237.524449 506.618182 
L 237.109091 507.508994 
L 235.273602 511.854545 
L 233.266334 517.090909 
L 232.082704 522.327273 
L 232.036364 523.329302 
L 231.586495 527.563636 
L 232.036364 529.953521 
L 232.348577 532.8 
L 236.521538 538.036364 
L 242.181818 541.331247 
L 247.771206 543.272727 
L 252.327273 544.60146 
L 257.4 544.878868 
L 267.545455 543.838695 
L 272.618182 543.787311 
L 282.763636 544.552039 
L 292.909091 544.585157 
L 303.054545 545.443135 
L 308.127273 545.426314 
L 313.2 545.890214 
L 318.272727 546.951992 
L 321.740615 548.509091 
L 318.272727 548.945737 
L 313.2 550.425101 
L 308.633546 553.745455 
L 308.127273 554.865617 
L 306.701567 558.981818 
L 305.885207 564.218182 
L 303.66992 569.454545 
L 303.054545 571.999958 
L 302.110649 574.690909 
L 303.054545 575.564356 
L 308.127273 579.969079 
L 313.2 582.760804 
L 318.272727 585.016404 
L 318.931941 585.163636 
L 323.345455 586.407441 
L 323.345455 586.407441 
" style="fill:none;stroke:#808080;"/>
    <path clip-path="url(#paf6ecb787c)" d="M 328.418182 543.980197 
L 325.617285 543.272727 
L 328.418182 543.085879 
L 333.490909 542.877397 
L 338.563636 541.855556 
L 343.636364 539.320138 
L 345.877133 538.036364 
L 348.709091 536.707286 
L 353.781818 535.442604 
L 358.854545 537.885348 
L 359.028499 538.036364 
L 359.69787 543.272727 
L 358.854545 543.616038 
L 353.781818 544.903975 
L 348.709091 545.296975 
L 343.636364 545.212901 
L 338.563636 544.54616 
L 333.490909 543.900628 
L 328.418182 543.980197 
" style="fill:none;stroke:#808080;"/>
   </g>
   <g id="LineCollection_2">
    <path clip-path="url(#paf6ecb787c)" d="M 318.272727 580.310341 
L 323.345455 582.233731 
L 328.418182 582.807224 
L 333.490909 582.663311 
L 338.563636 581.448166 
L 341.574619 579.927273 
L 343.636364 578.319416 
L 347.229787 574.690909 
L 348.709091 573.197707 
L 352.760572 569.454545 
L 353.781818 568.616466 
L 358.854545 564.551051 
L 359.310441 564.218182 
L 363.927273 560.288854 
L 369 559.183015 
L 374.072727 559.28872 
L 379.145455 559.264242 
L 381.826132 558.981818 
L 384.218182 558.702547 
L 389.290909 557.800718 
L 394.363636 556.659607 
L 399.436364 554.773638 
L 402.084522 553.745455 
L 404.509091 552.525559 
L 409.581818 551.412942 
L 414.654545 549.138823 
L 415.735683 548.509091 
L 419.727273 546.218218 
L 424.8 544.763721 
L 428.144449 543.272727 
L 429.872727 541.967343 
L 433.897695 538.036364 
L 430.540388 532.8 
L 429.872727 532.642112 
L 428.14215 532.8 
L 424.8 533.078467 
L 419.727273 534.593358 
L 414.654545 537.28568 
L 412.309645 538.036364 
L 409.581818 538.912571 
L 404.509091 539.229735 
L 399.436364 540.875548 
L 395.513468 543.272727 
L 394.363636 543.659368 
L 389.290909 544.453229 
L 384.218182 545.327354 
L 379.145455 546.759816 
L 374.072727 548.145681 
L 372.725211 548.509091 
L 369 549.874947 
L 363.927273 551.556758 
L 358.854545 551.735276 
L 353.781818 551.345503 
L 348.709091 551.135101 
L 343.636364 550.980815 
L 338.563636 550.662906 
L 333.490909 550.648613 
L 328.418182 551.595698 
L 323.345455 553.576153 
L 322.94964 553.745455 
L 318.272727 556.432769 
L 315.806589 558.981818 
L 313.620999 564.218182 
L 313.2 567.426729 
L 312.778531 569.454545 
L 313.2 572.83353 
L 313.386841 574.690909 
L 317.63397 579.927273 
L 318.272727 580.310341 
" style="fill:none;stroke:#808080;"/>
    <path clip-path="url(#paf6ecb787c)" d="M 247.254545 538.990123 
L 252.327273 540.71237 
L 257.4 541.081462 
L 267.545455 539.824968 
L 272.618182 539.701681 
L 282.763636 540.364993 
L 287.836364 540.413447 
L 292.909091 540.338703 
L 297.981818 540.391548 
L 303.054545 540.265831 
L 308.127273 539.784927 
L 318.272727 539.510532 
L 323.345455 538.710858 
L 328.418182 537.45617 
L 333.490909 535.849491 
L 338.906005 532.8 
L 343.636364 529.532307 
L 346.020594 527.563636 
L 348.709091 525.540583 
L 352.233714 522.327273 
L 356.591124 517.090909 
L 358.854545 514.132772 
L 364.050165 506.618182 
L 367.279957 501.381818 
L 369 494.521075 
L 372.788526 490.909091 
L 374.072727 490.26098 
L 374.672747 490.909091 
L 379.145455 498.237386 
L 381.577858 501.381818 
L 384.218182 503.715564 
L 389.290909 505.169894 
L 394.363636 504.841221 
L 399.436364 503.44568 
L 404.509091 500.618516 
L 409.581818 498.409605 
L 412.042358 496.145455 
L 414.654545 494.718422 
L 418.997486 490.909091 
L 419.727273 490.607856 
L 424.8 488.276607 
L 427.942228 485.672727 
L 429.872727 484.566765 
L 434.945455 480.241159 
L 440.018182 474.802047 
L 443.65887 469.963636 
L 445.090909 466.932131 
L 446.640762 464.727273 
L 449.624628 459.490909 
L 450.163636 459.014869 
L 455.236364 456.53635 
L 458.041346 454.254545 
L 460.309091 452.622904 
L 465.381818 447.977468 
L 470.454545 442.770334 
L 474.773449 438.545455 
L 475.527273 438.060059 
L 480.6 434.974589 
L 485.672727 430.445186 
L 487.901741 428.072727 
L 490.745455 424.598515 
L 492.418613 422.836364 
L 497.174107 417.6 
L 500.890909 412.26337 
L 505.963636 406.982062 
L 510.213031 401.890909 
L 511.036364 400.587409 
L 519.032758 391.418182 
L 521.094025 386.181818 
L 521.181818 384.673366 
L 521.608094 380.945455 
L 521.181818 379.633351 
L 519.529421 375.709091 
L 516.109091 372.321519 
L 511.036364 371.072493 
L 506.668456 370.472727 
L 505.963636 369.922222 
L 503.402015 365.236364 
L 498.526961 360 
L 495.818182 357.875945 
L 490.441958 354.763636 
L 485.672727 351.73459 
L 480.6 349.556432 
L 475.527273 350.613157 
L 470.454545 352.890704 
L 460.309091 355.48312 
L 455.236364 356.292615 
L 450.163636 357.556678 
L 434.945455 364.66033 
L 434.142519 365.236364 
L 429.872727 368.137647 
L 426.787242 370.472727 
L 424.8 371.74355 
L 419.727273 374.439231 
L 417.807704 375.709091 
L 414.654545 377.544289 
L 404.509091 384.007235 
L 399.436364 387.767704 
L 394.363636 391.572772 
L 388.32736 396.654545 
L 383.101499 401.890909 
L 379.145455 405.753174 
L 377.306169 407.127273 
L 374.072727 409.685221 
L 369 413.153663 
L 362.638886 417.6 
L 358.854545 420.311776 
L 353.781818 423.159646 
L 348.709091 425.091816 
L 343.636364 427.263738 
L 332.221943 433.309091 
L 328.418182 435.997134 
L 323.345455 439.045571 
L 313.2 442.708705 
L 311.289486 443.781818 
L 308.127273 445.383985 
L 302.856429 449.018182 
L 297.981818 451.651368 
L 292.84282 454.254545 
L 287.836364 456.46449 
L 281.588477 459.490909 
L 268.677621 464.727273 
L 262.472727 466.859374 
L 256.366786 469.963636 
L 252.327273 471.716604 
L 247.254545 473.634095 
L 242.181818 476.169405 
L 237.109091 479.233121 
L 235.454422 480.436364 
L 231.606155 485.672727 
L 232.036364 486.646413 
L 234.429292 490.909091 
L 237.109091 492.562302 
L 242.181818 494.178725 
L 247.254545 495.107794 
L 252.327273 495.866107 
L 256.046482 496.145455 
L 257.4 496.611169 
L 262.472727 497.233704 
L 267.545455 496.628437 
L 268.722971 496.145455 
L 277.690909 495.483304 
L 287.836364 495.081383 
L 297.981818 494.904934 
L 303.054545 494.896457 
L 308.127273 495.332838 
L 310.845856 496.145455 
L 311.553722 501.381818 
L 309.549475 506.618182 
L 308.127273 509.317181 
L 303.054545 512.141007 
L 297.981818 513.473147 
L 292.909091 513.239861 
L 287.836364 512.45134 
L 281.034932 511.854545 
L 277.690909 511.430249 
L 272.618182 510.033877 
L 262.472727 505.510443 
L 257.4 505.275126 
L 252.327273 506.292894 
L 251.524003 506.618182 
L 247.254545 508.52684 
L 243.776506 511.854545 
L 242.181818 514.172117 
L 240.847737 517.090909 
L 239.550867 522.327273 
L 239.691677 527.563636 
L 240.922971 532.8 
L 242.181818 534.394319 
L 245.522036 538.036364 
L 247.254545 538.990123 
L 247.254545 538.990123 
" style="fill:none;stroke:#808080;"/>
    <path clip-path="url(#paf6ecb787c)" d="M 455.236364 528.914052 
L 460.309091 529.294795 
L 465.381818 528.225987 
L 467.523122 527.563636 
L 465.381818 526.224783 
L 460.309091 525.364445 
L 455.236364 526.51015 
L 453.220179 527.563636 
L 455.236364 528.914052 
" style="fill:none;stroke:#808080;"/>
    <path clip-path="url(#paf6ecb787c)" d="M 445.090909 443.932762 
L 441.370728 443.781818 
L 440.018182 443.41011 
L 439.47579 438.545455 
L 438.827707 433.309091 
L 438.044419 428.072727 
L 436.11111 422.836364 
L 434.945455 421.266651 
L 432.170231 417.6 
L 429.872727 414.608598 
L 427.916833 412.363636 
L 426.039084 407.127273 
L 429.872727 403.44201 
L 434.706316 401.890909 
L 434.945455 401.816848 
L 435.206406 401.890909 
L 440.018182 402.983434 
L 445.090909 404.336056 
L 447.784418 401.890909 
L 449.017763 396.654545 
L 450.163636 395.526261 
L 455.236364 395.306314 
L 460.309091 395.646746 
L 465.381818 395.728447 
L 466.227833 396.654545 
L 468.843218 401.890909 
L 467.430467 407.127273 
L 465.381818 411.058882 
L 463.854331 412.363636 
L 461.01728 417.6 
L 460.309091 419.678281 
L 458.908642 422.836364 
L 456.151867 428.072727 
L 455.236364 429.638441 
L 452.954872 433.309091 
L 450.163636 438.118796 
L 449.716234 438.545455 
L 445.162059 443.781818 
L 445.090909 443.932762 
" style="fill:none;stroke:#808080;"/>
   </g>
   <g id="LineCollection_3">
    <path clip-path="url(#paf6ecb787c)" d="M 323.345455 578.098939 
L 328.418182 579.537585 
L 333.490909 579.464353 
L 338.563636 577.565141 
L 341.907748 574.690909 
L 343.636364 573.029921 
L 347.159748 569.454545 
L 348.709091 567.729498 
L 352.928641 564.218182 
L 353.781818 562.252533 
L 355.907791 558.981818 
L 353.781818 557.222616 
L 348.709091 555.387376 
L 343.636364 554.584621 
L 338.563636 554.005634 
L 333.490909 553.937688 
L 328.418182 554.997335 
L 323.345455 557.591832 
L 321.544645 558.981818 
L 318.272727 564.106943 
L 318.209465 564.218182 
L 317.628774 569.454545 
L 318.272727 571.818159 
L 319.242872 574.690909 
L 323.345455 578.098939 
" style="fill:none;stroke:#808080;"/>
    <path clip-path="url(#paf6ecb787c)" d="M 247.254545 533.281349 
L 252.327273 536.925396 
L 257.4 537.872097 
L 262.472727 536.613175 
L 267.545455 535.222523 
L 272.618182 534.792987 
L 277.690909 535.101766 
L 282.763636 535.814527 
L 287.836364 536.127587 
L 292.909091 535.827402 
L 303.054545 534.891984 
L 308.127273 534.404046 
L 313.2 534.557124 
L 318.272727 534.882965 
L 323.345455 534.45628 
L 328.827429 532.8 
L 333.490909 530.506248 
L 338.563636 527.276521 
L 343.636364 523.695397 
L 345.311547 522.327273 
L 348.709091 519.16486 
L 353.781818 513.326393 
L 354.99955 511.854545 
L 358.854545 507.80721 
L 359.795101 506.618182 
L 363.313631 501.381818 
L 365.507857 496.145455 
L 366.825462 490.909091 
L 368.33875 485.672727 
L 369 482.687234 
L 374.072727 482.476357 
L 377.51384 485.672727 
L 379.145455 487.440067 
L 381.293232 490.909091 
L 384.218182 496.145526 
L 389.290909 498.825142 
L 394.363636 498.605108 
L 399.785419 496.145455 
L 404.509091 491.513284 
L 405.829514 490.909091 
L 409.581818 488.668104 
L 419.727273 487.255498 
L 423.795331 485.672727 
L 424.8 485.422754 
L 429.872727 482.529013 
L 432.312133 480.436364 
L 434.945455 478.443275 
L 438.040527 475.2 
L 440.018182 472.195273 
L 441.697389 469.963636 
L 444.139737 464.727273 
L 445.090909 461.2991 
L 445.99002 459.490909 
L 450.163636 455.804865 
L 454.001357 454.254545 
L 455.236364 453.890696 
L 460.309091 450.23333 
L 461.60854 449.018182 
L 465.381818 445.793932 
L 472.491761 438.545455 
L 475.527273 436.590854 
L 480.6 432.977314 
L 485.724104 428.072727 
L 490.745455 422.403231 
L 495.818182 416.845375 
L 499.494667 412.363636 
L 500.890909 410.482632 
L 504.121862 407.127273 
L 508.577372 401.890909 
L 511.036364 397.997833 
L 516.801099 391.418182 
L 519.398361 386.181818 
L 519.311966 380.945455 
L 516.109091 376.348762 
L 511.036364 375.803185 
L 505.963636 377.958698 
L 500.890909 381.476772 
L 495.818182 383.897339 
L 491.815721 380.945455 
L 490.745455 379.467287 
L 488.33046 375.709091 
L 485.672727 373.143033 
L 483.562601 370.472727 
L 480.6 366.083969 
L 479.796567 365.236364 
L 475.527273 361.48491 
L 470.454545 361.481322 
L 465.381818 362.606423 
L 460.309091 362.882072 
L 455.236364 362.680889 
L 450.163636 364.145168 
L 445.090909 366.428438 
L 440.018182 367.657855 
L 434.945455 369.243366 
L 429.872727 372.562141 
L 414.359146 380.945455 
L 406.346592 386.181818 
L 404.509091 387.783257 
L 399.436364 391.420249 
L 389.109413 401.890909 
L 386.050712 407.127273 
L 384.218182 408.101048 
L 378.819661 412.363636 
L 374.072727 415.082978 
L 369 418.215795 
L 362.506089 422.836364 
L 358.854545 425.316974 
L 348.709091 428.771279 
L 338.977062 433.309091 
L 338.563636 433.643297 
L 333.490909 437.474472 
L 331.878874 438.545455 
L 328.418182 441.476831 
L 323.345455 443.563343 
L 318.272727 444.597349 
L 313.2 445.992143 
L 308.127273 448.556397 
L 303.054545 452.177674 
L 297.981818 454.873788 
L 282.763636 461.659433 
L 272.618182 465.823346 
L 267.545455 467.442304 
L 261.581381 469.963636 
L 257.4 472.085839 
L 250.289174 475.2 
L 247.254545 476.431235 
L 242.181818 478.982358 
L 239.966255 480.436364 
L 236.046167 485.672727 
L 237.109091 487.194406 
L 242.181818 490.987848 
L 247.254545 492.394413 
L 252.327273 493.589405 
L 257.4 494.275218 
L 262.472727 494.53505 
L 267.545455 494.487836 
L 277.690909 493.701986 
L 287.836364 493.207554 
L 292.909091 492.851442 
L 297.981818 492.702518 
L 303.054545 492.751047 
L 308.127273 493.246956 
L 313.2 494.840707 
L 315.678108 496.145455 
L 315.74401 501.381818 
L 314.962168 506.618182 
L 314.72046 511.854545 
L 313.2 516.433589 
L 312.516249 517.090909 
L 308.127273 520.452804 
L 304.571699 522.327273 
L 303.054545 523.348179 
L 297.981818 523.752548 
L 292.909091 523.315624 
L 287.836364 523.289792 
L 282.763636 523.082852 
L 277.690909 521.680986 
L 267.486183 517.090909 
L 262.472727 514.942824 
L 257.4 513.395199 
L 252.327273 515.132654 
L 250.050635 517.090909 
L 247.254545 520.180057 
L 246.15756 522.327273 
L 245.548292 527.563636 
L 246.807043 532.8 
L 247.254545 533.281349 
L 247.254545 533.281349 
" style="fill:none;stroke:#808080;"/>
    <path clip-path="url(#paf6ecb787c)" d="M 414.654545 470.57932 
L 411.878685 469.963636 
L 409.581818 467.617647 
L 408.838841 464.727273 
L 409.581818 463.487319 
L 414.654545 460.531806 
L 419.727273 461.680651 
L 420.096988 464.727273 
L 419.727273 465.385095 
L 415.254094 469.963636 
L 414.654545 470.57932 
" style="fill:none;stroke:#808080;"/>
    <path clip-path="url(#paf6ecb787c)" d="M 414.654545 449.085529 
L 414.604974 449.018182 
L 411.013104 443.781818 
L 409.581818 442.335646 
L 407.338946 438.545455 
L 409.581818 434.022666 
L 412.965849 438.545455 
L 414.654545 440.32332 
L 416.852538 443.781818 
L 414.96169 449.018182 
L 414.654545 449.085529 
" style="fill:none;stroke:#808080;"/>
    <path clip-path="url(#paf6ecb787c)" d="M 434.945455 449.967178 
L 433.944656 449.018182 
L 433.65462 443.781818 
L 434.035572 438.545455 
L 433.3731 433.309091 
L 432.334945 428.072727 
L 429.991229 422.836364 
L 429.872727 422.690301 
L 425.189122 417.6 
L 424.8 417.16586 
L 419.727273 413.030463 
L 418.647718 412.363636 
L 414.654545 408.814591 
L 409.581818 407.477983 
L 404.509091 408.17308 
L 399.436364 407.890331 
L 396.633677 407.127273 
L 399.436364 405.41732 
L 404.509091 403.672048 
L 409.581818 404.55757 
L 412.093374 401.890909 
L 414.654545 401.334474 
L 419.727273 396.968418 
L 420.221644 396.654545 
L 424.8 394.692149 
L 429.872727 392.877025 
L 431.594486 391.418182 
L 434.945455 388.830871 
L 438.396166 386.181818 
L 440.018182 385.303739 
L 445.090909 384.451364 
L 450.163636 384.126601 
L 455.236364 383.778276 
L 460.309091 384.056187 
L 463.426418 386.181818 
L 465.381818 387.603582 
L 469.327339 391.418182 
L 470.454545 392.628785 
L 473.659402 396.654545 
L 475.104145 401.890909 
L 473.276013 407.127273 
L 470.454545 411.669111 
L 469.917041 412.363636 
L 466.299469 417.6 
L 465.381818 419.816106 
L 463.281232 422.836364 
L 460.333311 428.072727 
L 460.309091 428.105692 
L 456.35247 433.309091 
L 455.236364 434.95715 
L 452.547367 438.545455 
L 450.163636 441.983551 
L 448.509707 443.781818 
L 445.930026 449.018182 
L 445.090909 452.194309 
L 440.018182 453.124356 
L 434.945455 449.967178 
" style="fill:none;stroke:#808080;"/>
   </g>
   <g id="LineCollection_4">
    <path clip-path="url(#paf6ecb787c)" d="M 328.418182 575.934446 
L 333.490909 576.189478 
L 336.655559 574.690909 
L 338.563636 573.746161 
L 342.955481 569.454545 
L 343.636364 568.506749 
L 347.487608 564.218182 
L 346.595358 558.981818 
L 343.636364 557.88941 
L 338.563636 556.603203 
L 333.490909 556.349791 
L 328.418182 557.797168 
L 326.418793 558.981818 
L 323.345455 562.028127 
L 321.713935 564.218182 
L 321.653841 569.454545 
L 323.345455 572.561184 
L 325.687495 574.690909 
L 328.418182 575.934446 
" style="fill:none;stroke:#808080;"/>
    <path clip-path="url(#paf6ecb787c)" d="M 257.4 532.881141 
L 257.721811 532.8 
L 259.397208 527.563636 
L 257.4 526.755056 
L 256.167657 527.563636 
L 257.078603 532.8 
L 257.4 532.881141 
" style="fill:none;stroke:#808080;"/>
    <path clip-path="url(#paf6ecb787c)" d="M 323.345455 528.687385 
L 328.418182 527.682624 
L 328.674797 527.563636 
L 333.490909 525.89105 
L 338.563636 522.922024 
L 343.636364 518.996671 
L 345.63008 517.090909 
L 350.253387 511.854545 
L 355.514448 506.618182 
L 358.854545 502.963698 
L 359.976207 501.381818 
L 362.530204 496.145455 
L 363.978323 490.909091 
L 365.643441 485.672727 
L 366.674026 480.436364 
L 365.347472 475.2 
L 363.927273 473.124146 
L 361.928398 469.963636 
L 358.854545 466.269567 
L 352.605653 464.727273 
L 348.709091 461.93832 
L 343.636364 460.386557 
L 337.833025 459.490909 
L 338.563636 459.303382 
L 343.636364 458.135193 
L 348.709091 457.831118 
L 353.781818 458.66749 
L 355.855833 459.490909 
L 358.854545 461.754491 
L 363.927273 462.549458 
L 369 462.929549 
L 372.917797 464.727273 
L 374.072727 466.690647 
L 374.910364 469.963636 
L 375.910982 475.2 
L 379.158604 480.436364 
L 384.218182 486.077149 
L 387.276048 490.909091 
L 389.290909 492.850537 
L 394.363636 493.107032 
L 398.102744 490.909091 
L 399.436364 489.419146 
L 401.460782 485.672727 
L 403.505035 480.436364 
L 404.008362 475.2 
L 402.891128 469.963636 
L 401.546468 464.727273 
L 399.436364 458.562514 
L 398.04104 454.254545 
L 394.304965 449.018182 
L 389.290909 445.273377 
L 386.860912 443.781818 
L 384.218182 441.262823 
L 381.975528 438.545455 
L 383.553005 433.309091 
L 384.218182 432.370025 
L 389.290909 431.018921 
L 399.436364 424.187219 
L 404.509091 424.084709 
L 414.654545 426.269206 
L 419.199903 428.072727 
L 419.727273 428.699886 
L 424.189286 428.072727 
L 422.081775 422.836364 
L 419.727273 420.474624 
L 417.28928 417.6 
L 414.654545 415.994525 
L 409.581818 414.962526 
L 404.509091 416.262201 
L 399.436364 416.741956 
L 394.363636 416.330536 
L 389.290909 416.093782 
L 384.218182 416.137201 
L 379.145455 417.863633 
L 374.072727 420.450855 
L 370.369933 422.836364 
L 369 424.525013 
L 365.64455 428.072727 
L 363.927273 430.381924 
L 358.854545 432.699624 
L 352.666964 433.309091 
L 348.709091 434.66062 
L 343.636364 437.058773 
L 341.591927 438.545455 
L 338.563636 442.486699 
L 337.415068 443.781818 
L 333.490909 446.136163 
L 328.418182 448.522672 
L 325.862412 449.018182 
L 323.345455 449.714936 
L 320.799142 449.018182 
L 318.272727 448.742625 
L 313.2 449.309059 
L 303.054545 455.918343 
L 297.981818 458.143412 
L 292.909091 460.264915 
L 287.836364 462.456108 
L 281.76796 464.727273 
L 277.690909 466.466272 
L 272.618182 468.241414 
L 267.12428 469.963636 
L 262.472727 472.040629 
L 256.167102 475.2 
L 252.327273 476.92005 
L 247.254545 479.000878 
L 244.534288 480.436364 
L 240.750872 485.672727 
L 242.181818 486.89634 
L 247.254545 489.451977 
L 250.899541 490.909091 
L 252.327273 491.312703 
L 257.4 492.317565 
L 262.472727 492.731018 
L 267.545455 492.745658 
L 277.690909 491.920668 
L 282.763636 491.720911 
L 287.836364 491.333725 
L 292.909091 490.843562 
L 297.981818 490.755909 
L 305.790527 490.909091 
L 308.127273 491.161074 
L 313.2 492.871711 
L 318.272727 495.555046 
L 319.083033 496.145455 
L 318.854212 501.381818 
L 318.314926 506.618182 
L 318.80519 511.854545 
L 319.123485 517.090909 
L 318.585141 522.327273 
L 320.1547 527.563636 
L 323.345455 528.687385 
L 323.345455 528.687385 
" style="fill:none;stroke:#808080;"/>
    <path clip-path="url(#paf6ecb787c)" d="M 419.727273 483.491369 
L 424.8 483.278922 
L 429.872727 480.491261 
L 429.936722 480.436364 
L 434.945455 476.645391 
L 436.324798 475.2 
L 439.786229 469.963636 
L 440.018182 469.322942 
L 442.111659 464.727273 
L 441.997942 459.490909 
L 440.018182 457.550348 
L 434.945455 457.074505 
L 430.225571 459.490909 
L 429.872727 459.625526 
L 425.100575 464.727273 
L 424.8 465.071989 
L 421.100164 469.963636 
L 419.727273 472.615172 
L 417.215871 475.2 
L 415.718189 480.436364 
L 419.727273 483.491369 
" style="fill:none;stroke:#808080;"/>
    <path clip-path="url(#paf6ecb787c)" d="M 450.163636 451.403486 
L 455.236364 451.549645 
L 458.723946 449.018182 
L 460.309091 447.925991 
L 465.176892 443.781818 
L 465.381818 443.607938 
L 470.227404 438.545455 
L 470.454545 438.351047 
L 475.527273 435.121649 
L 477.983928 433.309091 
L 480.6 431.919883 
L 484.599388 428.072727 
L 485.672727 426.827771 
L 489.226783 422.836364 
L 490.745455 421.120447 
L 494.0501 417.6 
L 495.818182 415.234045 
L 498.172852 412.363636 
L 500.890909 408.701894 
L 502.407148 407.127273 
L 505.963636 403.062731 
L 506.941712 401.890909 
L 510.27772 396.654545 
L 511.036364 395.59196 
L 514.752771 391.418182 
L 516.109091 389.201467 
L 517.702697 386.181818 
L 517.167753 380.945455 
L 516.109091 379.426087 
L 511.036364 378.343082 
L 507.022197 380.945455 
L 505.963636 381.679681 
L 500.890909 385.824475 
L 500.435979 386.181818 
L 495.818182 389.502002 
L 493.71756 391.418182 
L 490.745455 394.067113 
L 487.362801 396.654545 
L 485.672727 397.554438 
L 480.6 401.318487 
L 480.33836 401.890909 
L 476.461688 407.127273 
L 475.527273 408.130595 
L 472.150387 412.363636 
L 470.454545 414.790926 
L 468.347788 417.6 
L 465.875127 422.836364 
L 465.381818 424.049825 
L 462.536878 428.072727 
L 460.309091 431.104932 
L 458.633067 433.309091 
L 455.236364 438.32471 
L 455.070942 438.545455 
L 451.455325 443.781818 
L 450.163636 446.604686 
L 448.885279 449.018182 
L 450.163636 451.403486 
" style="fill:none;stroke:#808080;"/>
    <path clip-path="url(#paf6ecb787c)" d="M 424.8 434.659817 
L 425.087962 433.309091 
L 424.8 428.69142 
L 424.180951 433.309091 
L 424.8 434.659817 
" style="fill:none;stroke:#808080;"/>
    <path clip-path="url(#paf6ecb787c)" d="M 409.581818 392.505579 
L 413.279216 391.418182 
L 409.581818 390.291729 
L 407.851343 391.418182 
L 409.581818 392.505579 
" style="fill:none;stroke:#808080;"/>
    <path clip-path="url(#paf6ecb787c)" d="M 414.654545 390.107657 
L 419.727273 388.26681 
L 424.8 387.28215 
L 427.373696 386.181818 
L 429.872727 383.889712 
L 434.341948 380.945455 
L 429.872727 378.970376 
L 424.8 379.914758 
L 421.699919 380.945455 
L 419.727273 382.876219 
L 414.654545 385.6061 
L 413.467755 386.181818 
L 414.654545 390.107657 
" style="fill:none;stroke:#808080;"/>
    <path clip-path="url(#paf6ecb787c)" d="M 470.454545 386.466538 
L 475.527273 389.048949 
L 477.811289 386.181818 
L 477.065046 380.945455 
L 475.527273 378.816359 
L 470.454545 377.24549 
L 466.96979 380.945455 
L 470.161425 386.181818 
L 470.454545 386.466538 
" style="fill:none;stroke:#808080;"/>
    <path clip-path="url(#paf6ecb787c)" d="M 440.018182 376.031361 
L 445.090909 376.311563 
L 450.163636 377.001269 
L 455.236364 376.418087 
L 456.8527 375.709091 
L 455.236364 374.468639 
L 450.163636 373.843516 
L 445.090909 375.122191 
L 440.018182 375.522173 
L 436.885978 375.709091 
L 440.018182 376.031361 
" style="fill:none;stroke:#808080;"/>
   </g>
   <g id="LineCollection_5">
    <path clip-path="url(#paf6ecb787c)" d="M 328.418182 572.072914 
L 333.490909 572.98236 
L 338.563636 570.321923 
L 339.451271 569.454545 
L 343.163004 564.218182 
L 338.563636 559.332619 
L 336.126781 558.981818 
L 333.490909 558.761894 
L 332.798595 558.981818 
L 328.418182 560.909768 
L 325.119552 564.218182 
L 325.701931 569.454545 
L 328.418182 572.072914 
" style="fill:none;stroke:#808080;"/>
    <path clip-path="url(#paf6ecb787c)" d="M 328.418182 522.534466 
L 329.804107 522.327273 
L 333.490909 521.987182 
L 338.563636 519.346901 
L 341.258029 517.090909 
L 343.636364 514.703381 
L 346.211683 511.854545 
L 348.709091 509.021303 
L 351.17779 506.618182 
L 353.781818 503.851556 
L 356.04111 501.381818 
L 358.854545 497.825553 
L 359.732165 496.145455 
L 361.633959 490.909091 
L 363.197695 485.672727 
L 363.857123 480.436364 
L 362.457792 475.2 
L 358.854545 470.663329 
L 357.89069 469.963636 
L 353.781818 467.330517 
L 348.709091 466.040506 
L 343.636364 465.207931 
L 339.172397 464.727273 
L 338.563636 464.530266 
L 333.490909 463.667097 
L 328.418182 463.337468 
L 323.345455 463.256355 
L 318.272727 463.136476 
L 313.2 462.563205 
L 308.127273 461.187527 
L 303.054545 460.980033 
L 297.981818 462.419387 
L 292.909091 464.099523 
L 290.887923 464.727273 
L 287.836364 465.44179 
L 282.763636 467.150488 
L 277.690909 469.178325 
L 275.146662 469.963636 
L 272.618182 470.625707 
L 267.545455 472.19985 
L 262.472727 474.564014 
L 261.236588 475.2 
L 257.4 477.187992 
L 252.327273 479.456254 
L 249.95918 480.436364 
L 247.254545 484.192885 
L 246.248226 485.672727 
L 247.254545 486.232504 
L 252.327273 488.671697 
L 257.4 490.286067 
L 262.299472 490.909091 
L 262.472727 490.926987 
L 267.545455 491.003481 
L 268.710926 490.909091 
L 272.618182 490.686643 
L 277.690909 490.456702 
L 282.763636 490.423202 
L 287.836364 490.256864 
L 292.909091 489.996016 
L 297.981818 489.931021 
L 303.054545 490.0142 
L 308.127273 490.238137 
L 313.2 490.906655 
L 313.211628 490.909091 
L 318.272727 493.62686 
L 321.729371 496.145455 
L 321.237615 501.381818 
L 320.745174 506.618182 
L 321.666982 511.854545 
L 323.20826 517.090909 
L 323.345455 517.513592 
L 327.934898 522.327273 
L 328.418182 522.534466 
" style="fill:none;stroke:#808080;"/>
    <path clip-path="url(#paf6ecb787c)" d="M 389.290909 483.990235 
L 394.363636 484.747227 
L 397.193126 480.436364 
L 398.84532 475.2 
L 398.148971 469.963636 
L 396.08076 464.727273 
L 394.363636 461.431821 
L 392.775963 459.490909 
L 390.136565 454.254545 
L 389.290909 453.349189 
L 385.448984 449.018182 
L 384.218182 448.141737 
L 379.145455 445.652698 
L 375.76941 443.781818 
L 374.072727 441.644966 
L 369 439.79476 
L 363.927273 440.625863 
L 358.854545 442.132087 
L 355.045351 443.781818 
L 353.781818 444.710638 
L 349.010858 449.018182 
L 353.781818 452.866673 
L 355.153657 454.254545 
L 358.854545 455.867596 
L 363.927273 457.133586 
L 369 456.6169 
L 374.072727 456.616255 
L 377.477069 459.490909 
L 379.145455 461.92062 
L 380.608158 464.727273 
L 381.048846 469.963636 
L 382.103844 475.2 
L 384.218182 478.143022 
L 386.206184 480.436364 
L 389.290909 483.990235 
" style="fill:none;stroke:#808080;"/>
    <path clip-path="url(#paf6ecb787c)" d="M 424.8 481.13509 
L 426.072783 480.436364 
L 429.872727 478.726132 
L 434.493855 475.2 
L 434.945455 474.733212 
L 438.174416 469.963636 
L 440.018182 464.870839 
L 440.083581 464.727273 
L 440.018182 464.420542 
L 434.945455 460.808882 
L 429.872727 462.973674 
L 428.232419 464.727273 
L 424.8 468.663767 
L 423.816833 469.963636 
L 421.081723 475.2 
L 421.981746 480.436364 
L 424.8 481.13509 
" style="fill:none;stroke:#808080;"/>
    <path clip-path="url(#paf6ecb787c)" d="M 455.236364 449.208595 
L 455.498695 449.018182 
L 460.309091 445.703741 
L 462.566607 443.781818 
L 465.381818 441.393105 
L 468.107464 438.545455 
L 470.454545 436.536622 
L 475.527273 433.652444 
L 475.992637 433.309091 
L 480.6 430.862451 
L 483.500114 428.072727 
L 485.672727 425.552734 
L 488.091455 422.836364 
L 490.745455 419.837663 
L 492.84595 417.6 
L 495.818182 413.622715 
L 496.851036 412.363636 
L 500.726923 407.127273 
L 500.890909 406.9427 
L 505.392392 401.890909 
L 505.963636 400.906638 
L 508.701387 396.654545 
L 511.036364 393.384087 
L 512.786841 391.418182 
L 515.928545 386.181818 
L 511.271407 380.945455 
L 511.036364 380.882979 
L 510.939995 380.945455 
L 505.963636 384.397097 
L 503.847757 386.181818 
L 500.890909 388.321167 
L 497.242118 391.418182 
L 495.818182 392.502892 
L 491.477271 396.654545 
L 490.745455 397.252359 
L 485.672727 400.261132 
L 483.704808 401.890909 
L 480.6 404.64274 
L 478.689332 407.127273 
L 475.527273 410.522513 
L 474.058526 412.363636 
L 470.454545 417.522082 
L 470.396108 417.6 
L 467.141862 422.836364 
L 465.381818 427.165792 
L 464.740446 428.072727 
L 460.989555 433.309091 
L 460.309091 434.185344 
L 457.339832 438.545455 
L 455.236364 442.002393 
L 454.008358 443.781818 
L 454.600389 449.018182 
L 455.236364 449.208595 
" style="fill:none;stroke:#808080;"/>
   </g>
   <g id="LineCollection_6">
    <path clip-path="url(#paf6ecb787c)" d="M 333.490909 569.832403 
L 334.193045 569.454545 
L 338.563636 565.20741 
L 339.245039 564.218182 
L 338.563636 563.494379 
L 333.490909 561.800473 
L 328.48274 564.218182 
L 332.182261 569.454545 
L 333.490909 569.832403 
" style="fill:none;stroke:#808080;"/>
    <path clip-path="url(#paf6ecb787c)" d="M 328.418182 518.134143 
L 333.490909 518.81315 
L 336.586921 517.090909 
L 338.563636 516.007237 
L 342.671966 511.854545 
L 343.636364 510.699498 
L 347.275461 506.618182 
L 348.709091 504.831453 
L 351.966246 501.381818 
L 353.781818 499.038025 
L 356.096826 496.145455 
L 358.854545 492.045473 
L 359.298774 490.909091 
L 361.189366 485.672727 
L 361.987586 480.436364 
L 360.30707 475.2 
L 358.854545 473.371197 
L 354.16049 469.963636 
L 353.781818 469.720969 
L 348.709091 467.903011 
L 343.636364 466.857772 
L 338.563636 466.155811 
L 333.490909 465.788296 
L 328.418182 465.673559 
L 323.345455 465.762688 
L 318.272727 465.904428 
L 313.2 465.971544 
L 308.127273 465.843255 
L 303.054545 465.61742 
L 297.981818 466.003138 
L 292.909091 467.063245 
L 287.836364 468.332658 
L 282.944646 469.963636 
L 282.763636 469.996499 
L 277.690909 471.389491 
L 272.618182 472.926405 
L 267.545455 474.616143 
L 266.306829 475.2 
L 262.472727 477.020755 
L 257.4 479.729391 
L 255.81753 480.436364 
L 252.327273 484.921522 
L 251.766083 485.672727 
L 252.327273 485.952189 
L 257.4 488.065175 
L 262.472727 489.16607 
L 267.545455 489.555146 
L 272.618182 489.461959 
L 277.690909 489.409794 
L 282.763636 489.525745 
L 287.836364 489.413525 
L 292.909091 489.148469 
L 297.981818 489.106134 
L 303.054545 489.230201 
L 308.127273 489.474992 
L 313.2 490.154512 
L 316.802345 490.909091 
L 318.272727 491.698674 
L 323.345455 495.317905 
L 324.163759 496.145455 
L 323.581772 501.381818 
L 323.345455 504.644062 
L 323.175422 506.618182 
L 323.345455 507.375985 
L 324.460142 511.854545 
L 327.41316 517.090909 
L 328.418182 518.134143 
" style="fill:none;stroke:#808080;"/>
    <path clip-path="url(#paf6ecb787c)" d="M 424.8 477.127938 
L 429.872727 476.968551 
L 432.19048 475.2 
L 434.945455 472.352365 
L 436.562603 469.963636 
L 436.359577 464.727273 
L 434.945455 463.660579 
L 432.71392 464.727273 
L 429.872727 465.99154 
L 426.31655 469.963636 
L 424.8 473.20478 
L 423.751349 475.2 
L 424.8 477.127938 
" style="fill:none;stroke:#808080;"/>
    <path clip-path="url(#paf6ecb787c)" d="M 460.309091 442.223812 
L 465.381818 439.178273 
L 465.987524 438.545455 
L 470.454545 434.722197 
L 473.011457 433.309091 
L 475.527273 432.550188 
L 480.6 429.80502 
L 482.400839 428.072727 
L 485.672727 424.277696 
L 486.956128 422.836364 
L 490.745455 418.554879 
L 491.6418 417.6 
L 495.597128 412.363636 
L 495.818182 411.937042 
L 499.310168 407.127273 
L 500.890909 405.348092 
L 503.97149 401.890909 
L 505.963636 398.458382 
L 507.125054 396.654545 
L 510.538983 391.418182 
L 511.036364 390.64318 
L 512.928832 386.181818 
L 511.036364 384.125189 
L 507.751013 386.181818 
L 505.963636 387.511784 
L 500.890909 390.652098 
L 499.988337 391.418182 
L 495.818182 394.594875 
L 493.66462 396.654545 
L 490.745455 399.039179 
L 486.684986 401.890909 
L 485.672727 402.463368 
L 480.813312 407.127273 
L 480.6 407.338732 
L 475.850711 412.363636 
L 475.527273 412.66943 
L 471.506558 417.6 
L 470.454545 419.56666 
L 468.408597 422.836364 
L 466.483487 428.072727 
L 465.381818 430.686869 
L 463.556433 433.309091 
L 460.309091 437.490785 
L 459.590855 438.545455 
L 460.309091 442.223812 
" style="fill:none;stroke:#808080;"/>
   </g>
   <g id="LineCollection_7">
    <path clip-path="url(#paf6ecb787c)" d="M 328.418182 513.848753 
L 333.490909 515.722762 
L 338.563636 512.879184 
L 339.577329 511.854545 
L 343.636364 506.99309 
L 343.97065 506.618182 
L 348.238296 501.381818 
L 348.709091 500.587811 
L 352.168645 496.145455 
L 353.781818 494.086188 
L 356.0481 490.909091 
L 358.854545 486.548217 
L 359.181037 485.672727 
L 360.11805 480.436364 
L 358.854545 476.899099 
L 358.054254 475.2 
L 353.781818 471.75146 
L 349.246085 469.963636 
L 348.709091 469.765515 
L 343.636364 468.507613 
L 338.563636 467.643454 
L 333.490909 467.164999 
L 328.418182 467.014967 
L 323.345455 467.148953 
L 318.272727 467.326624 
L 313.2 467.459025 
L 308.127273 467.510871 
L 303.054545 467.580519 
L 297.981818 468.380351 
L 292.909091 469.856489 
L 292.498722 469.963636 
L 287.836364 470.545806 
L 282.763636 471.570638 
L 277.690909 473.396504 
L 272.683823 475.2 
L 272.618182 475.22336 
L 267.545455 476.873733 
L 262.472727 479.45504 
L 260.654904 480.436364 
L 257.4 485.166519 
L 256.997887 485.672727 
L 257.4 485.844284 
L 262.472727 487.405585 
L 267.545455 488.123643 
L 272.618182 488.237276 
L 277.690909 488.362886 
L 282.763636 488.628289 
L 287.836364 488.570186 
L 292.909091 488.300922 
L 297.981818 488.281247 
L 303.054545 488.446202 
L 308.127273 488.711848 
L 313.2 489.402369 
L 318.272727 490.452389 
L 320.072251 490.909091 
L 323.345455 493.192238 
L 326.265677 496.145455 
L 325.625723 501.381818 
L 325.439951 506.618182 
L 327.155951 511.854545 
L 328.418182 513.848753 
" style="fill:none;stroke:#808080;"/>
    <path clip-path="url(#paf6ecb787c)" d="M 429.872727 475.21097 
L 429.887104 475.2 
L 434.945455 469.971519 
L 434.950791 469.963636 
L 434.945455 469.936086 
L 429.872727 468.646179 
L 428.693221 469.963636 
L 429.821112 475.2 
L 429.872727 475.21097 
" style="fill:none;stroke:#808080;"/>
    <path clip-path="url(#paf6ecb787c)" d="M 470.454545 432.65718 
L 475.527273 431.559842 
L 480.6 428.747588 
L 481.301565 428.072727 
L 485.672727 423.002658 
L 485.8208 422.836364 
L 490.450767 417.6 
L 490.745455 417.269799 
L 494.585947 412.363636 
L 495.818182 409.985641 
L 497.893413 407.127273 
L 500.890909 403.753484 
L 502.550587 401.890909 
L 505.251675 396.654545 
L 505.963636 391.575191 
L 506.000562 391.418182 
L 505.963636 391.386655 
L 505.902893 391.418182 
L 500.890909 392.957626 
L 495.866321 396.654545 
L 495.818182 396.696681 
L 490.745455 400.826 
L 489.229171 401.890909 
L 485.672727 403.902173 
L 482.312432 407.127273 
L 480.6 408.824832 
L 477.255298 412.363636 
L 475.527273 413.99739 
L 472.589465 417.6 
L 470.454545 421.591075 
L 469.675332 422.836364 
L 468.037456 428.072727 
L 470.454545 432.65718 
" style="fill:none;stroke:#808080;"/>
   </g>
   <g id="LineCollection_8">
    <path clip-path="url(#paf6ecb787c)" d="M 333.490909 512.731602 
L 335.031222 511.854545 
L 338.563636 509.399492 
L 340.890676 506.618182 
L 343.636364 503.452692 
L 345.340408 501.381818 
L 348.440172 496.145455 
L 348.709091 495.676933 
L 352.402343 490.909091 
L 353.781818 489.4988 
L 356.463109 485.672727 
L 358.052553 480.436364 
L 355.589042 475.2 
L 353.781818 473.741281 
L 348.709091 471.515085 
L 343.636364 470.141409 
L 342.756266 469.963636 
L 338.563636 469.131096 
L 333.490909 468.541702 
L 328.418182 468.356374 
L 323.345455 468.535218 
L 318.272727 468.74882 
L 313.2 468.946505 
L 308.127273 469.178488 
L 303.054545 469.543619 
L 301.073743 469.963636 
L 297.981818 470.33293 
L 292.909091 471.150018 
L 287.836364 471.881618 
L 282.763636 473.144777 
L 278.056498 475.2 
L 277.690909 475.376396 
L 272.618182 477.206384 
L 267.545455 479.080756 
L 264.972755 480.436364 
L 262.582104 485.672727 
L 267.545455 486.69214 
L 272.618182 487.012592 
L 277.690909 487.315977 
L 282.763636 487.730832 
L 287.836364 487.726847 
L 292.909091 487.453376 
L 297.981818 487.456359 
L 303.054545 487.662202 
L 308.127273 487.948703 
L 313.2 488.650226 
L 318.272727 489.67898 
L 323.119685 490.909091 
L 323.345455 491.066571 
L 328.367596 496.145455 
L 327.669673 501.381818 
L 327.692013 506.618182 
L 328.418182 508.59476 
L 331.687985 511.854545 
L 333.490909 512.731602 
" style="fill:none;stroke:#808080;"/>
    <path clip-path="url(#paf6ecb787c)" d="M 470.454545 429.709795 
L 475.527273 430.569495 
L 479.963393 428.072727 
L 480.6 427.672503 
L 484.831122 422.836364 
L 485.672727 421.702029 
L 489.297933 417.6 
L 490.745455 415.978032 
L 493.574765 412.363636 
L 495.818182 408.03424 
L 496.476658 407.127273 
L 500.890909 402.158875 
L 501.129685 401.890909 
L 502.546819 396.654545 
L 500.890909 395.250718 
L 498.982927 396.654545 
L 495.818182 399.424589 
L 492.312186 401.890909 
L 490.745455 402.539712 
L 485.672727 405.340978 
L 483.811551 407.127273 
L 480.6 410.310932 
L 478.659886 412.363636 
L 475.527273 415.32535 
L 473.672372 417.6 
L 470.842872 422.836364 
L 470.454545 424.979618 
L 469.591424 428.072727 
L 470.454545 429.709795 
" style="fill:none;stroke:#808080;"/>
   </g>
   <g id="LineCollection_9">
    <path clip-path="url(#paf6ecb787c)" d="M 333.490909 508.837153 
L 336.969453 506.618182 
L 338.563636 505.543502 
L 342.070266 501.381818 
L 343.636364 499.304517 
L 345.486718 496.145455 
L 348.490085 490.909091 
L 348.709091 490.633236 
L 353.557545 485.672727 
L 353.781818 485.266553 
L 355.578504 480.436364 
L 353.781818 476.607313 
L 352.807328 475.2 
L 348.709091 473.251212 
L 343.636364 471.654668 
L 338.563636 470.523444 
L 333.843098 469.963636 
L 333.490909 469.918405 
L 328.418182 469.697781 
L 323.345455 469.921482 
L 322.470132 469.963636 
L 318.272727 470.089502 
L 313.2 470.231773 
L 308.127273 470.433466 
L 303.054545 470.728669 
L 297.981818 471.438685 
L 292.909091 472.383725 
L 287.836364 473.217431 
L 282.763636 474.718916 
L 281.661795 475.2 
L 277.690909 477.11595 
L 272.618182 479.189408 
L 269.474246 480.436364 
L 271.369003 485.672727 
L 272.618182 485.787909 
L 277.690909 486.269069 
L 282.763636 486.833376 
L 287.836364 486.883508 
L 292.909091 486.605829 
L 297.981818 486.631472 
L 303.054545 486.878203 
L 308.127273 487.185558 
L 313.2 487.898084 
L 318.272727 488.905571 
L 323.345455 490.116888 
L 325.860414 490.909091 
L 328.418182 493.480498 
L 330.933392 496.145455 
L 330.334443 501.381818 
L 331.288802 506.618182 
L 333.490909 508.837153 
" style="fill:none;stroke:#808080;"/>
    <path clip-path="url(#paf6ecb787c)" d="M 475.527273 429.579149 
L 478.203799 428.072727 
L 480.6 426.566278 
L 483.86329 422.836364 
L 485.672727 420.397562 
L 488.145098 417.6 
L 490.745455 414.686265 
L 492.563584 412.363636 
L 494.683119 407.127273 
L 490.745455 404.14558 
L 485.672727 406.779783 
L 485.31067 407.127273 
L 480.6 411.797031 
L 480.064473 412.363636 
L 475.527273 416.653311 
L 474.755279 417.6 
L 471.851866 422.836364 
L 471.601826 428.072727 
L 475.527273 429.579149 
" style="fill:none;stroke:#808080;"/>
   </g>
   <g id="LineCollection_10">
    <path clip-path="url(#paf6ecb787c)" d="M 333.490909 501.821175 
L 335.326594 501.381818 
L 338.563636 500.695509 
L 341.502077 496.145455 
L 343.636364 494.190846 
L 345.507019 490.909091 
L 348.709091 486.875831 
L 349.885017 485.672727 
L 352.835056 480.436364 
L 349.156311 475.2 
L 348.709091 474.987338 
L 343.636364 473.167928 
L 338.563636 471.794684 
L 333.490909 470.991766 
L 328.418182 470.729081 
L 323.345455 470.848017 
L 318.272727 470.952683 
L 313.2 471.079758 
L 308.127273 471.321313 
L 303.054545 471.70194 
L 297.981818 472.54444 
L 292.909091 473.617431 
L 287.836364 474.553243 
L 285.752405 475.2 
L 282.763636 476.28445 
L 277.690909 478.855503 
L 274.089259 480.436364 
L 277.690909 483.989858 
L 280.707858 485.672727 
L 282.763636 485.935919 
L 287.836364 486.04017 
L 292.909091 485.758282 
L 297.981818 485.806584 
L 303.054545 486.094204 
L 308.127273 486.422413 
L 313.2 487.145941 
L 318.272727 488.132162 
L 323.345455 489.261299 
L 328.418182 490.849886 
L 328.628949 490.909091 
L 333.490909 496.115846 
L 333.565279 496.145455 
L 333.490909 496.921343 
L 333.357922 501.381818 
L 333.490909 501.821175 
" style="fill:none;stroke:#808080;"/>
    <path clip-path="url(#paf6ecb787c)" d="M 475.527273 428.588802 
L 476.444206 428.072727 
L 480.6 425.460053 
L 482.895457 422.836364 
L 485.672727 419.093095 
L 486.992264 417.6 
L 490.745455 413.394498 
L 491.552402 412.363636 
L 492.562388 407.127273 
L 490.745455 405.751448 
L 488.054793 407.127273 
L 485.672727 408.523196 
L 481.760114 412.363636 
L 480.6 413.343752 
L 476.016993 417.6 
L 475.527273 418.113154 
L 472.860861 422.836364 
L 474.182481 428.072727 
L 475.527273 428.588802 
" style="fill:none;stroke:#808080;"/>
   </g>
   <g id="LineCollection_11">
    <path clip-path="url(#paf6ecb787c)" d="M 333.490909 492.245903 
L 338.563636 493.885632 
L 341.768529 490.909091 
L 343.636364 489.702207 
L 346.917543 485.672727 
L 348.709091 481.595005 
L 349.377039 480.436364 
L 348.709091 479.491671 
L 345.061489 475.2 
L 343.636364 474.681188 
L 338.563636 473.065925 
L 333.490909 472.054821 
L 328.418182 471.683729 
L 323.345455 471.760134 
L 318.272727 471.815865 
L 313.2 471.927743 
L 308.127273 472.20916 
L 303.054545 472.67521 
L 297.981818 473.650196 
L 292.909091 474.851138 
L 291.11291 475.2 
L 287.836364 476.029378 
L 282.763636 477.846197 
L 277.955387 480.436364 
L 282.763636 484.108098 
L 287.836364 484.778725 
L 292.909091 484.497258 
L 297.981818 484.742438 
L 303.054545 485.222634 
L 308.127273 485.656483 
L 308.218904 485.672727 
L 313.2 486.393798 
L 318.272727 487.358752 
L 323.345455 488.40571 
L 328.418182 489.834793 
L 332.242622 490.909091 
L 333.490909 492.245903 
" style="fill:none;stroke:#808080;"/>
    <path clip-path="url(#paf6ecb787c)" d="M 475.527273 426.890722 
L 480.6 424.353828 
L 481.927624 422.836364 
L 485.672727 417.788628 
L 485.839429 417.6 
L 489.950424 412.363636 
L 485.672727 410.363602 
L 483.635106 412.363636 
L 480.6 414.927828 
L 477.722681 417.6 
L 475.527273 419.900459 
L 473.869855 422.836364 
L 475.527273 426.890722 
" style="fill:none;stroke:#808080;"/>
   </g>
   <g id="LineCollection_12">
    <path clip-path="url(#paf6ecb787c)" d="M 318.272727 486.585343 
L 323.345455 487.550121 
L 328.418182 488.819701 
L 333.490909 490.026351 
L 338.563636 490.169311 
L 343.636364 486.4658 
L 344.282158 485.672727 
L 346.329446 480.436364 
L 343.636364 477.39141 
L 341.140969 475.2 
L 338.563636 474.337166 
L 333.490909 473.117876 
L 328.418182 472.638377 
L 323.345455 472.672251 
L 318.272727 472.679046 
L 313.2 472.775727 
L 308.127273 473.097007 
L 303.054545 473.64848 
L 297.981818 474.755951 
L 296.161031 475.2 
L 292.909091 476.530284 
L 287.836364 477.637221 
L 282.763636 479.407944 
L 280.854532 480.436364 
L 282.763636 481.894218 
L 287.836364 483.194459 
L 292.909091 483.189809 
L 297.981818 483.631946 
L 303.054545 484.249251 
L 308.127273 484.735398 
L 313.2 485.633087 
L 313.371591 485.672727 
L 318.272727 486.585343 
" style="fill:none;stroke:#808080;"/>
    <path clip-path="url(#paf6ecb787c)" d="M 475.527273 424.42253 
L 480.6 423.247602 
L 480.959791 422.836364 
L 482.859257 417.6 
L 480.6 416.511903 
L 479.428369 417.6 
L 475.527273 421.687765 
L 474.87885 422.836364 
L 475.527273 424.42253 
" style="fill:none;stroke:#808080;"/>
    <path clip-path="url(#paf6ecb787c)" d="M 485.672727 412.845711 
L 486.014143 412.363636 
L 485.672727 412.204008 
L 485.510099 412.363636 
L 485.672727 412.845711 
" style="fill:none;stroke:#808080;"/>
   </g>
   <g id="LineCollection_13">
    <path clip-path="url(#paf6ecb787c)" d="M 318.272727 485.811934 
L 323.345455 486.694532 
L 328.418182 487.804608 
L 333.490909 488.677761 
L 338.563636 488.115226 
L 341.666416 485.672727 
L 343.432876 480.436364 
L 338.563636 475.900848 
L 337.290326 475.2 
L 333.490909 474.180931 
L 328.418182 473.593025 
L 323.345455 473.584367 
L 318.272727 473.542227 
L 313.2 473.623712 
L 308.127273 473.984854 
L 303.054545 474.62175 
L 300.527306 475.2 
L 297.981818 476.465544 
L 292.909091 478.385051 
L 287.836364 479.245065 
L 284.364031 480.436364 
L 287.836364 481.610193 
L 292.909091 481.88236 
L 297.981818 482.521454 
L 303.054545 483.275869 
L 308.127273 483.814313 
L 313.2 484.673564 
L 317.525128 485.672727 
L 318.272727 485.811934 
" style="fill:none;stroke:#808080;"/>
   </g>
   <g id="LineCollection_14">
    <path clip-path="url(#paf6ecb787c)" d="M 323.345455 485.838943 
L 328.418182 486.789515 
L 333.490909 487.329172 
L 338.563636 486.061142 
L 339.057051 485.672727 
L 341.090838 480.436364 
L 338.563636 478.082369 
L 333.490909 475.270531 
L 333.201273 475.2 
L 328.418182 474.547672 
L 323.345455 474.496484 
L 318.272727 474.405409 
L 313.2 474.471696 
L 308.127273 474.8727 
L 305.712814 475.2 
L 303.054545 476.114877 
L 297.981818 478.580351 
L 292.909091 480.239818 
L 291.436515 480.436364 
L 292.909091 480.574911 
L 297.981818 481.410962 
L 303.054545 482.302487 
L 308.127273 482.893228 
L 313.2 483.71404 
L 318.272727 484.75725 
L 322.373846 485.672727 
L 323.345455 485.838943 
" style="fill:none;stroke:#808080;"/>
   </g>
   <g id="LineCollection_15">
    <path clip-path="url(#paf6ecb787c)" d="M 328.418182 485.774423 
L 333.490909 485.980582 
L 334.605242 485.672727 
L 338.563636 480.901542 
L 338.748801 480.436364 
L 338.563636 480.26389 
L 333.490909 476.975098 
L 328.418182 475.709621 
L 323.345455 475.579158 
L 318.272727 475.341059 
L 313.2 475.489017 
L 308.127273 476.638198 
L 303.054545 478.368992 
L 298.578978 480.436364 
L 303.054545 481.329105 
L 308.127273 481.972143 
L 313.2 482.754516 
L 318.272727 483.640826 
L 323.345455 484.543265 
L 327.857197 485.672727 
L 328.418182 485.774423 
" style="fill:none;stroke:#808080;"/>
   </g>
   <g id="LineCollection_16">
    <path clip-path="url(#paf6ecb787c)" d="M 308.127273 481.051058 
L 313.2 481.794992 
L 318.272727 482.524403 
L 323.345455 483.141477 
L 328.418182 484.011929 
L 333.490909 483.430591 
L 336.169776 480.436364 
L 333.490909 478.679665 
L 328.418182 477.318872 
L 323.345455 477.237044 
L 318.272727 477.116246 
L 313.2 477.53681 
L 308.127273 478.916151 
L 303.614732 480.436364 
L 308.127273 481.051058 
" style="fill:none;stroke:#808080;"/>
   </g>
   <g id="LineCollection_17">
    <path clip-path="url(#paf6ecb787c)" d="M 313.2 480.835468 
L 318.272727 481.407979 
L 323.345455 481.739689 
L 328.418182 482.166221 
L 333.490909 480.525219 
L 333.570406 480.436364 
L 333.490909 480.384233 
L 328.418182 478.928122 
L 323.345455 478.89493 
L 318.272727 478.891432 
L 313.2 479.584604 
L 310.3814 480.436364 
L 313.2 480.835468 
" style="fill:none;stroke:#808080;"/>
   </g>
   <g id="PathCollection_1">
    <defs>
     <path d="M 0 2.236068 
C 0.593012 2.236068 1.161816 2.000462 1.581139 1.581139 
C 2.000462 1.161816 2.236068 0.593012 2.236068 0 
C 2.236068 -0.593012 2.000462 -1.161816 1.581139 -1.581139 
C 1.161816 -2.000462 0.593012 -2.236068 0 -2.236068 
C -0.593012 -2.236068 -1.161816 -2.000462 -1.581139 -1.581139 
C -2.000462 -1.161816 -2.236068 -0.593012 -2.236068 0 
C -2.236068 0.593012 -2.000462 1.161816 -1.581139 1.581139 
C -1.161816 2.000462 -0.593012 2.236068 0 2.236068 
z
" id="mf8bb0962de" style="stroke:#000000;"/>
    </defs>
    <g clip-path="url(#paf6ecb787c)">
     <use style="stroke:#000000;" x="449.045383031" xlink:href="#mf8bb0962de" y="321.481199429"/>
    </g>
   </g>
   <g id="PathCollection_2">
    <g clip-path="url(#paf6ecb787c)">
     <use style="stroke:#000000;" x="401.345462024" xlink:href="#mf8bb0962de" y="531.817184644"/>
    </g>
   </g>
   <g id="PathCollection_3">
    <g clip-path="url(#paf6ecb787c)">
     <use style="stroke:#000000;" x="477.280223981" xlink:href="#mf8bb0962de" y="412.866254165"/>
    </g>
   </g>
   <g id="PathCollection_4">
    <g clip-path="url(#paf6ecb787c)">
     <use style="stroke:#000000;" x="454.785794381" xlink:href="#mf8bb0962de" y="498.756370364"/>
    </g>
   </g>
   <g id="PathCollection_5">
    <g clip-path="url(#paf6ecb787c)">
     <use style="stroke:#000000;" x="354.933036281" xlink:href="#mf8bb0962de" y="394.237762238"/>
    </g>
   </g>
   <g id="PathCollection_6">
    <g clip-path="url(#paf6ecb787c)">
     <use style="stroke:#000000;" x="504.550471032" xlink:href="#mf8bb0962de" y="373.756548536"/>
    </g>
   </g>
   <g id="PathCollection_7">
    <g clip-path="url(#paf6ecb787c)">
     <use style="stroke:#000000;" x="462.292697846" xlink:href="#mf8bb0962de" y="371.86013986"/>
    </g>
   </g>
   <g id="PathCollection_8">
    <g clip-path="url(#paf6ecb787c)">
     <use style="stroke:#000000;" x="272.506051018" xlink:href="#mf8bb0962de" y="571.910203073"/>
    </g>
   </g>
   <g id="PathCollection_9">
    <g clip-path="url(#paf6ecb787c)">
     <use style="stroke:#000000;" x="442.838957567" xlink:href="#mf8bb0962de" y="330.504027618"/>
    </g>
   </g>
   <g id="PathCollection_10">
    <g clip-path="url(#paf6ecb787c)">
     <use style="stroke:#000000;" x="254.657264159" xlink:href="#mf8bb0962de" y="566.865134865"/>
    </g>
   </g>
   <g id="PathCollection_11">
    <g clip-path="url(#paf6ecb787c)">
     <use style="stroke:#000000;" x="451.455034539" xlink:href="#mf8bb0962de" y="471.551917277"/>
    </g>
   </g>
   <g id="PathCollection_12">
    <g clip-path="url(#paf6ecb787c)">
     <use style="stroke:#000000;" x="382.309186779" xlink:href="#mf8bb0962de" y="503.931221143"/>
    </g>
   </g>
   <g id="PathCollection_13">
    <g clip-path="url(#paf6ecb787c)">
     <use style="stroke:#000000;" x="303.185889172" xlink:href="#mf8bb0962de" y="473.291418862"/>
    </g>
   </g>
   <g id="PathCollection_14">
    <g clip-path="url(#paf6ecb787c)">
     <use style="stroke:#000000;" x="329.613174372" xlink:href="#mf8bb0962de" y="487.447032307"/>
    </g>
   </g>
   <g id="PathCollection_15">
    <g clip-path="url(#paf6ecb787c)">
     <use style="stroke:#000000;" x="274.013996008" xlink:href="#mf8bb0962de" y="440.254653359"/>
    </g>
   </g>
   <g id="PathCollection_16">
    <g clip-path="url(#paf6ecb787c)">
     <use style="stroke:#000000;" x="306.540018409" xlink:href="#mf8bb0962de" y="417.225336844"/>
    </g>
   </g>
   <g id="PathCollection_17">
    <g clip-path="url(#paf6ecb787c)">
     <use style="stroke:#000000;" x="282.632292646" xlink:href="#mf8bb0962de" y="470.812439051"/>
    </g>
   </g>
   <g id="PathCollection_18">
    <g clip-path="url(#paf6ecb787c)">
     <use style="stroke:#000000;" x="342.020747215" xlink:href="#mf8bb0962de" y="471.551917277"/>
    </g>
   </g>
   <g id="PathCollection_19">
    <g clip-path="url(#paf6ecb787c)">
     <use style="stroke:#000000;" x="335.669336593" xlink:href="#mf8bb0962de" y="443.637419185"/>
    </g>
   </g>
   <g id="PathCollection_20">
    <g clip-path="url(#paf6ecb787c)">
     <use style="stroke:#000000;" x="250.148845225" xlink:href="#mf8bb0962de" y="482.905176632"/>
    </g>
   </g>
   <g id="PathCollection_21">
    <g clip-path="url(#paf6ecb787c)">
     <use style="stroke:#000000;" x="256.205007446" xlink:href="#mf8bb0962de" y="487.447032307"/>
    </g>
   </g>
   <g id="PathCollection_22">
    <g clip-path="url(#paf6ecb787c)">
     <use style="stroke:#000000;" x="231.052767604" xlink:href="#mf8bb0962de" y="349.797695262"/>
    </g>
   </g>
   <g id="PathCollection_23">
    <g clip-path="url(#paf6ecb787c)">
     <use style="stroke:#000000;" x="190.865685697" xlink:href="#mf8bb0962de" y="498.666666667"/>
    </g>
   </g>
   <g id="PathCollection_24">
    <g clip-path="url(#paf6ecb787c)">
     <use style="stroke:#000000;" x="213.122372476" xlink:href="#mf8bb0962de" y="503.770334928"/>
    </g>
   </g>
   <g id="PathCollection_25">
    <g clip-path="url(#paf6ecb787c)">
     <use style="stroke:#000000;" x="228.219755017" xlink:href="#mf8bb0962de" y="498.666666667"/>
    </g>
   </g>
   <g id="PathCollection_26">
    <g clip-path="url(#paf6ecb787c)">
     <use style="stroke:#000000;" x="419.276817378" xlink:href="#mf8bb0962de" y="403.122994652"/>
    </g>
   </g>
   <g id="PathCollection_27">
    <g clip-path="url(#paf6ecb787c)">
     <use style="stroke:#000000;" x="357.871426252" xlink:href="#mf8bb0962de" y="438.151742994"/>
    </g>
   </g>
   <g id="PathCollection_28">
    <g clip-path="url(#paf6ecb787c)">
     <use style="stroke:#000000;" x="276.193565552" xlink:href="#mf8bb0962de" y="523.009960913"/>
    </g>
   </g>
   <g id="PathCollection_29">
    <g clip-path="url(#paf6ecb787c)">
     <use style="stroke:#000000;" x="407.562902753" xlink:href="#mf8bb0962de" y="435.747397641"/>
    </g>
   </g>
   <g id="PathCollection_30">
    <g clip-path="url(#paf6ecb787c)">
     <use style="stroke:#000000;" x="223.698869379" xlink:href="#mf8bb0962de" y="327.791676354"/>
    </g>
   </g>
   <g id="text_15">
    <text style="font-family:Arial;font-size:9.0px;font-style:normal;font-weight:400;text-anchor:start;" transform="rotate(-0.000000, 452.089019, 318.339381)" x="452.089019394" y="318.339381247">4E-10</text>
   </g>
   <g id="text_16">
    <text style="font-family:Arial;font-size:9.0px;font-style:normal;font-weight:400;text-anchor:start;" transform="rotate(-0.000000, 404.389098, 528.675366)" x="404.389098388" y="528.675366462">3E-04</text>
   </g>
   <g id="text_17">
    <text style="font-family:Arial;font-size:9.0px;font-style:normal;font-weight:400;text-anchor:start;" transform="rotate(-0.000000, 480.323860, 409.724436)" x="480.323860344" y="409.724435983">1E-03</text>
   </g>
   <g id="text_18">
    <text style="font-family:Arial;font-size:9.0px;font-style:normal;font-weight:400;text-anchor:start;" transform="rotate(-0.000000, 457.829431, 495.614552)" x="457.829430744" y="495.614552182">2E-06</text>
   </g>
   <g id="text_19">
    <text style="font-family:Arial;font-size:9.0px;font-style:normal;font-weight:400;text-anchor:start;" transform="rotate(-0.000000, 357.976673, 391.095944)" x="357.976672644" y="391.095944056">4E-08</text>
   </g>
   <g id="text_20">
    <text style="font-family:Arial;font-size:9.0px;font-style:normal;font-weight:400;text-anchor:start;" transform="rotate(-0.000000, 507.594107, 370.614730)" x="507.594107396" y="370.614730354">5E-04</text>
   </g>
   <g id="text_21">
    <text style="font-family:Arial;font-size:9.0px;font-style:normal;font-weight:400;text-anchor:start;" transform="rotate(-0.000000, 465.336334, 368.718322)" x="465.336334209" y="368.718321678">7E-04</text>
   </g>
   <g id="text_22">
    <text style="font-family:Arial;font-size:9.0px;font-style:normal;font-weight:400;text-anchor:start;" transform="rotate(-0.000000, 275.549687, 568.768385)" x="275.549687381" y="568.768384891">7E-05</text>
   </g>
   <g id="text_23">
    <text style="font-family:Arial;font-size:9.0px;font-style:normal;font-weight:400;text-anchor:start;" transform="rotate(-0.000000, 445.882594, 327.362209)" x="445.882593931" y="327.362209436">1E-09</text>
   </g>
   <g id="text_24">
    <text style="font-family:Arial;font-size:9.0px;font-style:normal;font-weight:400;text-anchor:start;" transform="rotate(-0.000000, 257.700901, 563.723317)" x="257.700900522" y="563.723316683">3E-05</text>
   </g>
   <g id="text_25">
    <text style="font-family:Arial;font-size:9.0px;font-style:normal;font-weight:400;text-anchor:start;" transform="rotate(-0.000000, 454.498671, 468.410099)" x="454.498670902" y="468.410099095">5E-05</text>
   </g>
   <g id="text_26">
    <text style="font-family:Arial;font-size:9.0px;font-style:normal;font-weight:400;text-anchor:start;" transform="rotate(-0.000000, 385.352823, 500.789403)" x="385.352823142" y="500.789402961">5E-04</text>
   </g>
   <g id="text_27">
    <text style="font-family:Arial;font-size:9.0px;font-style:normal;font-weight:400;text-anchor:start;" transform="rotate(-0.000000, 306.229526, 470.149601)" x="306.229525535" y="470.14960068">3E-03</text>
   </g>
   <g id="text_28">
    <text style="font-family:Arial;font-size:9.0px;font-style:normal;font-weight:400;text-anchor:start;" transform="rotate(-0.000000, 332.656811, 484.305214)" x="332.656810736" y="484.305214125">3E-03</text>
   </g>
   <g id="text_29">
    <text style="font-family:Arial;font-size:9.0px;font-style:normal;font-weight:400;text-anchor:start;" transform="rotate(-0.000000, 277.057632, 437.112835)" x="277.057632372" y="437.112835177">2E-09</text>
   </g>
   <g id="text_30">
    <text style="font-family:Arial;font-size:9.0px;font-style:normal;font-weight:400;text-anchor:start;" transform="rotate(-0.000000, 309.583655, 414.083519)" x="309.583654772" y="414.083518662">3E-10</text>
   </g>
   <g id="text_31">
    <text style="font-family:Arial;font-size:9.0px;font-style:normal;font-weight:400;text-anchor:start;" transform="rotate(-0.000000, 285.675929, 467.670621)" x="285.67592901" y="467.670620869">1E-03</text>
   </g>
   <g id="text_32">
    <text style="font-family:Arial;font-size:9.0px;font-style:normal;font-weight:400;text-anchor:start;" transform="rotate(-0.000000, 345.064384, 468.410099)" x="345.064383579" y="468.410099095">2E-03</text>
   </g>
   <g id="text_33">
    <text style="font-family:Arial;font-size:9.0px;font-style:normal;font-weight:400;text-anchor:start;" transform="rotate(-0.000000, 338.712973, 440.495601)" x="338.712972957" y="440.495601003">7E-04</text>
   </g>
   <g id="text_34">
    <text style="font-family:Arial;font-size:9.0px;font-style:normal;font-weight:400;text-anchor:start;" transform="rotate(-0.000000, 253.192482, 479.763358)" x="253.192481588" y="479.76335845">1E-03</text>
   </g>
   <g id="text_35">
    <text style="font-family:Arial;font-size:9.0px;font-style:normal;font-weight:400;text-anchor:start;" transform="rotate(-0.000000, 259.248644, 484.305214)" x="259.24864381" y="484.305214125">1E-03</text>
   </g>
   <g id="text_36">
    <text style="font-family:Arial;font-size:9.0px;font-style:normal;font-weight:400;text-anchor:start;" transform="rotate(-0.000000, 234.096404, 346.655877)" x="234.096403968" y="346.655877081">3E-124</text>
   </g>
   <g id="text_37">
    <text style="font-family:Arial;font-size:9.0px;font-style:normal;font-weight:400;text-anchor:start;" transform="rotate(-0.000000, 193.909322, 495.524848)" x="193.909322061" y="495.524848485">3E-08</text>
   </g>
   <g id="text_38">
    <text style="font-family:Arial;font-size:9.0px;font-style:normal;font-weight:400;text-anchor:start;" transform="rotate(-0.000000, 216.166009, 500.628517)" x="216.16600884" y="500.628516746">9E-06</text>
   </g>
   <g id="text_39">
    <text style="font-family:Arial;font-size:9.0px;font-style:normal;font-weight:400;text-anchor:start;" transform="rotate(-0.000000, 231.263391, 495.524848)" x="231.263391381" y="495.524848485">9E-05</text>
   </g>
   <g id="text_40">
    <text style="font-family:Arial;font-size:9.0px;font-style:normal;font-weight:400;text-anchor:start;" transform="rotate(-0.000000, 422.320454, 399.981176)" x="422.320453742" y="399.981176471">5E-04</text>
   </g>
   <g id="text_41">
    <text style="font-family:Arial;font-size:9.0px;font-style:normal;font-weight:400;text-anchor:start;" transform="rotate(-0.000000, 360.915063, 435.009925)" x="360.915062616" y="435.009924812">9E-04</text>
   </g>
   <g id="text_42">
    <text style="font-family:Arial;font-size:9.0px;font-style:normal;font-weight:400;text-anchor:start;" transform="rotate(-0.000000, 279.237202, 519.868143)" x="279.237201916" y="519.868142731">6E-04</text>
   </g>
   <g id="text_43">
    <text style="font-family:Arial;font-size:9.0px;font-style:normal;font-weight:400;text-anchor:start;" transform="rotate(-0.000000, 410.606539, 432.605579)" x="410.606539116" y="432.605579459">6E-04</text>
   </g>
   <g id="text_44">
    <text style="font-family:Arial;font-size:9.0px;font-style:normal;font-weight:400;text-anchor:start;" transform="rotate(-0.000000, 226.742506, 324.649858)" x="226.742505743" y="324.649858173">5E-174</text>
   </g>
  </g>
 </g>
 <defs>
  <clipPath id="paf6ecb787c">
   <rect height="576.0" width="558.0" x="90.0" y="72.0"/>
  </clipPath>
 </defs>
</svg>
