<?xml version="1.0" encoding="utf-8" standalone="no"?>
<!DOCTYPE svg PUBLIC "-//W3C//DTD SVG 1.1//EN"
  "http://www.w3.org/Graphics/SVG/1.1/DTD/svg11.dtd">
<!-- Created with matplotlib (http://matplotlib.org/) -->
<svg height="251pt" version="1.1" viewBox="0 0 252 251" width="252pt" xmlns="http://www.w3.org/2000/svg" xmlns:xlink="http://www.w3.org/1999/xlink">
 <defs>
  <style type="text/css">
*{stroke-linecap:butt;stroke-linejoin:round;stroke-miterlimit:100000;}
  </style>
 </defs>
 <g id="figure_1">
  <g id="patch_1">
   <path d="M 0 251.485313 
L 252.696719 251.485313 
L 252.696719 0 
L 0 0 
z
" style="fill:#ffffff;"/>
  </g>
  <g id="axes_1">
   <g id="patch_2">
    <path d="M 47.41625 208.8 
L 242.71625 208.8 
L 242.71625 7.2 
L 47.41625 7.2 
z
" style="fill:#ffffff;"/>
   </g>
   <g id="line2d_1">
    <path clip-path="url(#p2987def16d)" d="M 47.41625 40.809413 
" style="fill:none;stroke:#808080;stroke-linecap:square;"/>
   </g>
   <g id="line2d_2">
    <path clip-path="url(#p2987def16d)" d="M 47.41625 40.809413 
L 51.401964 49.971217 
" style="fill:none;stroke:#808080;stroke-linecap:square;"/>
   </g>
   <g id="line2d_3">
    <path clip-path="url(#p2987def16d)" d="M 47.41625 40.809413 
L 51.401964 49.971217 
L 55.387679 59.053649 
" style="fill:none;stroke:#808080;stroke-linecap:square;"/>
   </g>
   <g id="line2d_4">
    <path clip-path="url(#p2987def16d)" d="M 47.41625 40.809413 
L 51.401964 49.971217 
L 55.387679 59.053649 
L 59.373393 67.9772 
" style="fill:none;stroke:#808080;stroke-linecap:square;"/>
   </g>
   <g id="line2d_5">
    <path clip-path="url(#p2987def16d)" d="M 47.41625 40.809413 
L 51.401964 49.971217 
L 55.387679 59.053649 
L 59.373393 67.9772 
L 63.359107 76.669943 
" style="fill:none;stroke:#808080;stroke-linecap:square;"/>
   </g>
   <g id="line2d_6">
    <path clip-path="url(#p2987def16d)" d="M 47.41625 40.809413 
L 51.401964 49.971217 
L 55.387679 59.053649 
L 59.373393 67.9772 
L 63.359107 76.669943 
L 67.344821 85.068322 
" style="fill:none;stroke:#808080;stroke-linecap:square;"/>
   </g>
   <g id="line2d_7">
    <path clip-path="url(#p2987def16d)" d="M 47.41625 40.809413 
L 51.401964 49.971217 
L 55.387679 59.053649 
L 59.373393 67.9772 
L 63.359107 76.669943 
L 67.344821 85.068322 
L 71.330536 93.118916 
" style="fill:none;stroke:#808080;stroke-linecap:square;"/>
   </g>
   <g id="line2d_8">
    <path clip-path="url(#p2987def16d)" d="M 47.41625 40.809413 
L 51.401964 49.971217 
L 55.387679 59.053649 
L 59.373393 67.9772 
L 63.359107 76.669943 
L 67.344821 85.068322 
L 71.330536 93.118916 
L 75.31625 100.779516 
" style="fill:none;stroke:#808080;stroke-linecap:square;"/>
   </g>
   <g id="line2d_9">
    <path clip-path="url(#p2987def16d)" d="M 47.41625 40.809413 
L 51.401964 49.971217 
L 55.387679 59.053649 
L 59.373393 67.9772 
L 63.359107 76.669943 
L 67.344821 85.068322 
L 71.330536 93.118916 
L 75.31625 100.779516 
L 79.301964 108.019483 
" style="fill:none;stroke:#808080;stroke-linecap:square;"/>
   </g>
   <g id="line2d_10">
    <path clip-path="url(#p2987def16d)" d="M 47.41625 40.809413 
L 51.401964 49.971217 
L 55.387679 59.053649 
L 59.373393 67.9772 
L 63.359107 76.669943 
L 67.344821 85.068322 
L 71.330536 93.118916 
L 75.31625 100.779516 
L 79.301964 108.019483 
L 83.287679 114.819462 
" style="fill:none;stroke:#808080;stroke-linecap:square;"/>
   </g>
   <g id="line2d_11">
    <path clip-path="url(#p2987def16d)" d="M 47.41625 40.809413 
L 51.401964 49.971217 
L 55.387679 59.053649 
L 59.373393 67.9772 
L 63.359107 76.669943 
L 67.344821 85.068322 
L 71.330536 93.118916 
L 75.31625 100.779516 
L 79.301964 108.019483 
L 83.287679 114.819462 
L 87.273393 121.170559 
" style="fill:none;stroke:#808080;stroke-linecap:square;"/>
   </g>
   <g id="line2d_12">
    <path clip-path="url(#p2987def16d)" d="M 47.41625 40.809413 
L 51.401964 49.971217 
L 55.387679 59.053649 
L 59.373393 67.9772 
L 63.359107 76.669943 
L 67.344821 85.068322 
L 71.330536 93.118916 
L 75.31625 100.779516 
L 79.301964 108.019483 
L 83.287679 114.819462 
L 87.273393 121.170559 
L 91.259107 127.073137 
" style="fill:none;stroke:#808080;stroke-linecap:square;"/>
   </g>
   <g id="line2d_13">
    <path clip-path="url(#p2987def16d)" d="M 47.41625 40.809413 
L 51.401964 49.971217 
L 55.387679 59.053649 
L 59.373393 67.9772 
L 63.359107 76.669943 
L 67.344821 85.068322 
L 71.330536 93.118916 
L 75.31625 100.779516 
L 79.301964 108.019483 
L 83.287679 114.819462 
L 87.273393 121.170559 
L 91.259107 127.073137 
L 95.244821 132.535371 
" style="fill:none;stroke:#808080;stroke-linecap:square;"/>
   </g>
   <g id="line2d_14">
    <path clip-path="url(#p2987def16d)" d="M 47.41625 40.809413 
L 51.401964 49.971217 
L 55.387679 59.053649 
L 59.373393 67.9772 
L 63.359107 76.669943 
L 67.344821 85.068322 
L 71.330536 93.118916 
L 75.31625 100.779516 
L 79.301964 108.019483 
L 83.287679 114.819462 
L 87.273393 121.170559 
L 91.259107 127.073137 
L 95.244821 132.535371 
L 99.230536 137.571708 
" style="fill:none;stroke:#808080;stroke-linecap:square;"/>
   </g>
   <g id="line2d_15">
    <path clip-path="url(#p2987def16d)" d="M 47.41625 40.809413 
L 51.401964 49.971217 
L 55.387679 59.053649 
L 59.373393 67.9772 
L 63.359107 76.669943 
L 67.344821 85.068322 
L 71.330536 93.118916 
L 75.31625 100.779516 
L 79.301964 108.019483 
L 83.287679 114.819462 
L 87.273393 121.170559 
L 91.259107 127.073137 
L 95.244821 132.535371 
L 99.230536 137.571708 
L 103.21625 142.201353 
" style="fill:none;stroke:#808080;stroke-linecap:square;"/>
   </g>
   <g id="line2d_16">
    <path clip-path="url(#p2987def16d)" d="M 47.41625 40.809413 
L 51.401964 49.971217 
L 55.387679 59.053649 
L 59.373393 67.9772 
L 63.359107 76.669943 
L 67.344821 85.068322 
L 71.330536 93.118916 
L 75.31625 100.779516 
L 79.301964 108.019483 
L 83.287679 114.819462 
L 87.273393 121.170559 
L 91.259107 127.073137 
L 95.244821 132.535371 
L 99.230536 137.571708 
L 103.21625 142.201353 
L 107.201964 146.44686 
" style="fill:none;stroke:#808080;stroke-linecap:square;"/>
   </g>
   <g id="line2d_17">
    <path clip-path="url(#p2987def16d)" d="M 47.41625 40.809413 
L 51.401964 49.971217 
L 55.387679 59.053649 
L 59.373393 67.9772 
L 63.359107 76.669943 
L 67.344821 85.068322 
L 71.330536 93.118916 
L 75.31625 100.779516 
L 79.301964 108.019483 
L 83.287679 114.819462 
L 87.273393 121.170559 
L 91.259107 127.073137 
L 95.244821 132.535371 
L 99.230536 137.571708 
L 103.21625 142.201353 
L 107.201964 146.44686 
L 111.187679 150.332892 
" style="fill:none;stroke:#808080;stroke-linecap:square;"/>
   </g>
   <g id="line2d_18">
    <path clip-path="url(#p2987def16d)" d="M 47.41625 40.809413 
L 51.401964 49.971217 
L 55.387679 59.053649 
L 59.373393 67.9772 
L 63.359107 76.669943 
L 67.344821 85.068322 
L 71.330536 93.118916 
L 75.31625 100.779516 
L 79.301964 108.019483 
L 83.287679 114.819462 
L 87.273393 121.170559 
L 91.259107 127.073137 
L 95.244821 132.535371 
L 99.230536 137.571708 
L 103.21625 142.201353 
L 107.201964 146.44686 
L 111.187679 150.332892 
L 115.173393 153.885178 
" style="fill:none;stroke:#808080;stroke-linecap:square;"/>
   </g>
   <g id="line2d_19">
    <path clip-path="url(#p2987def16d)" d="M 47.41625 40.809413 
L 51.401964 49.971217 
L 55.387679 59.053649 
L 59.373393 67.9772 
L 63.359107 76.669943 
L 67.344821 85.068322 
L 71.330536 93.118916 
L 75.31625 100.779516 
L 79.301964 108.019483 
L 83.287679 114.819462 
L 87.273393 121.170559 
L 91.259107 127.073137 
L 95.244821 132.535371 
L 99.230536 137.571708 
L 103.21625 142.201353 
L 107.201964 146.44686 
L 111.187679 150.332892 
L 115.173393 153.885178 
L 119.159107 157.12966 
" style="fill:none;stroke:#808080;stroke-linecap:square;"/>
   </g>
   <g id="line2d_20">
    <path clip-path="url(#p2987def16d)" d="M 47.41625 40.809413 
L 51.401964 49.971217 
L 55.387679 59.053649 
L 59.373393 67.9772 
L 63.359107 76.669943 
L 67.344821 85.068322 
L 71.330536 93.118916 
L 75.31625 100.779516 
L 79.301964 108.019483 
L 83.287679 114.819462 
L 87.273393 121.170559 
L 91.259107 127.073137 
L 95.244821 132.535371 
L 99.230536 137.571708 
L 103.21625 142.201353 
L 107.201964 146.44686 
L 111.187679 150.332892 
L 115.173393 153.885178 
L 119.159107 157.12966 
L 123.144821 160.091846 
" style="fill:none;stroke:#808080;stroke-linecap:square;"/>
   </g>
   <g id="line2d_21">
    <path clip-path="url(#p2987def16d)" d="M 47.41625 40.809413 
L 51.401964 49.971217 
L 55.387679 59.053649 
L 59.373393 67.9772 
L 63.359107 76.669943 
L 67.344821 85.068322 
L 71.330536 93.118916 
L 75.31625 100.779516 
L 79.301964 108.019483 
L 83.287679 114.819462 
L 87.273393 121.170559 
L 91.259107 127.073137 
L 95.244821 132.535371 
L 99.230536 137.571708 
L 103.21625 142.201353 
L 107.201964 146.44686 
L 111.187679 150.332892 
L 115.173393 153.885178 
L 119.159107 157.12966 
L 123.144821 160.091846 
L 127.130536 162.796322 
" style="fill:none;stroke:#808080;stroke-linecap:square;"/>
   </g>
   <g id="line2d_22">
    <path clip-path="url(#p2987def16d)" d="M 47.41625 40.809413 
L 51.401964 49.971217 
L 55.387679 59.053649 
L 59.373393 67.9772 
L 63.359107 76.669943 
L 67.344821 85.068322 
L 71.330536 93.118916 
L 75.31625 100.779516 
L 79.301964 108.019483 
L 83.287679 114.819462 
L 87.273393 121.170559 
L 91.259107 127.073137 
L 95.244821 132.535371 
L 99.230536 137.571708 
L 103.21625 142.201353 
L 107.201964 146.44686 
L 111.187679 150.332892 
L 115.173393 153.885178 
L 119.159107 157.12966 
L 123.144821 160.091846 
L 127.130536 162.796322 
L 131.11625 165.26642 
" style="fill:none;stroke:#808080;stroke-linecap:square;"/>
   </g>
   <g id="line2d_23">
    <path clip-path="url(#p2987def16d)" d="M 47.41625 40.809413 
L 51.401964 49.971217 
L 55.387679 59.053649 
L 59.373393 67.9772 
L 63.359107 76.669943 
L 67.344821 85.068322 
L 71.330536 93.118916 
L 75.31625 100.779516 
L 79.301964 108.019483 
L 83.287679 114.819462 
L 87.273393 121.170559 
L 91.259107 127.073137 
L 95.244821 132.535371 
L 99.230536 137.571708 
L 103.21625 142.201353 
L 107.201964 146.44686 
L 111.187679 150.332892 
L 115.173393 153.885178 
L 119.159107 157.12966 
L 123.144821 160.091846 
L 127.130536 162.796322 
L 131.11625 165.26642 
L 135.101964 167.524002 
" style="fill:none;stroke:#808080;stroke-linecap:square;"/>
   </g>
   <g id="line2d_24">
    <path clip-path="url(#p2987def16d)" d="M 47.41625 40.809413 
L 51.401964 49.971217 
L 55.387679 59.053649 
L 59.373393 67.9772 
L 63.359107 76.669943 
L 67.344821 85.068322 
L 71.330536 93.118916 
L 75.31625 100.779516 
L 79.301964 108.019483 
L 83.287679 114.819462 
L 87.273393 121.170559 
L 91.259107 127.073137 
L 95.244821 132.535371 
L 99.230536 137.571708 
L 103.21625 142.201353 
L 107.201964 146.44686 
L 111.187679 150.332892 
L 115.173393 153.885178 
L 119.159107 157.12966 
L 123.144821 160.091846 
L 127.130536 162.796322 
L 131.11625 165.26642 
L 135.101964 167.524002 
L 139.087679 169.589342 
" style="fill:none;stroke:#808080;stroke-linecap:square;"/>
   </g>
   <g id="line2d_25">
    <path clip-path="url(#p2987def16d)" d="M 47.41625 40.809413 
L 51.401964 49.971217 
L 55.387679 59.053649 
L 59.373393 67.9772 
L 63.359107 76.669943 
L 67.344821 85.068322 
L 71.330536 93.118916 
L 75.31625 100.779516 
L 79.301964 108.019483 
L 83.287679 114.819462 
L 87.273393 121.170559 
L 91.259107 127.073137 
L 95.244821 132.535371 
L 99.230536 137.571708 
L 103.21625 142.201353 
L 107.201964 146.44686 
L 111.187679 150.332892 
L 115.173393 153.885178 
L 119.159107 157.12966 
L 123.144821 160.091846 
L 127.130536 162.796322 
L 131.11625 165.26642 
L 135.101964 167.524002 
L 139.087679 169.589342 
L 143.073393 171.481086 
" style="fill:none;stroke:#808080;stroke-linecap:square;"/>
   </g>
   <g id="line2d_26">
    <path clip-path="url(#p2987def16d)" d="M 47.41625 40.809413 
L 51.401964 49.971217 
L 55.387679 59.053649 
L 59.373393 67.9772 
L 63.359107 76.669943 
L 67.344821 85.068322 
L 71.330536 93.118916 
L 75.31625 100.779516 
L 79.301964 108.019483 
L 83.287679 114.819462 
L 87.273393 121.170559 
L 91.259107 127.073137 
L 95.244821 132.535371 
L 99.230536 137.571708 
L 103.21625 142.201353 
L 107.201964 146.44686 
L 111.187679 150.332892 
L 115.173393 153.885178 
L 119.159107 157.12966 
L 123.144821 160.091846 
L 127.130536 162.796322 
L 131.11625 165.26642 
L 135.101964 167.524002 
L 139.087679 169.589342 
L 143.073393 171.481086 
L 147.059107 173.216263 
" style="fill:none;stroke:#808080;stroke-linecap:square;"/>
   </g>
   <g id="line2d_27">
    <path clip-path="url(#p2987def16d)" d="M 47.41625 40.809413 
L 51.401964 49.971217 
L 55.387679 59.053649 
L 59.373393 67.9772 
L 63.359107 76.669943 
L 67.344821 85.068322 
L 71.330536 93.118916 
L 75.31625 100.779516 
L 79.301964 108.019483 
L 83.287679 114.819462 
L 87.273393 121.170559 
L 91.259107 127.073137 
L 95.244821 132.535371 
L 99.230536 137.571708 
L 103.21625 142.201353 
L 107.201964 146.44686 
L 111.187679 150.332892 
L 115.173393 153.885178 
L 119.159107 157.12966 
L 123.144821 160.091846 
L 127.130536 162.796322 
L 131.11625 165.26642 
L 135.101964 167.524002 
L 139.087679 169.589342 
L 143.073393 171.481086 
L 147.059107 173.216263 
L 151.044821 174.810339 
" style="fill:none;stroke:#808080;stroke-linecap:square;"/>
   </g>
   <g id="line2d_28">
    <path clip-path="url(#p2987def16d)" d="M 47.41625 40.809413 
L 51.401964 49.971217 
L 55.387679 59.053649 
L 59.373393 67.9772 
L 63.359107 76.669943 
L 67.344821 85.068322 
L 71.330536 93.118916 
L 75.31625 100.779516 
L 79.301964 108.019483 
L 83.287679 114.819462 
L 87.273393 121.170559 
L 91.259107 127.073137 
L 95.244821 132.535371 
L 99.230536 137.571708 
L 103.21625 142.201353 
L 107.201964 146.44686 
L 111.187679 150.332892 
L 115.173393 153.885178 
L 119.159107 157.12966 
L 123.144821 160.091846 
L 127.130536 162.796322 
L 131.11625 165.26642 
L 135.101964 167.524002 
L 139.087679 169.589342 
L 143.073393 171.481086 
L 147.059107 173.216263 
L 151.044821 174.810339 
L 155.030536 176.277294 
" style="fill:none;stroke:#808080;stroke-linecap:square;"/>
   </g>
   <g id="line2d_29">
    <path clip-path="url(#p2987def16d)" d="M 47.41625 40.809413 
L 51.401964 49.971217 
L 55.387679 59.053649 
L 59.373393 67.9772 
L 63.359107 76.669943 
L 67.344821 85.068322 
L 71.330536 93.118916 
L 75.31625 100.779516 
L 79.301964 108.019483 
L 83.287679 114.819462 
L 87.273393 121.170559 
L 91.259107 127.073137 
L 95.244821 132.535371 
L 99.230536 137.571708 
L 103.21625 142.201353 
L 107.201964 146.44686 
L 111.187679 150.332892 
L 115.173393 153.885178 
L 119.159107 157.12966 
L 123.144821 160.091846 
L 127.130536 162.796322 
L 131.11625 165.26642 
L 135.101964 167.524002 
L 139.087679 169.589342 
L 143.073393 171.481086 
L 147.059107 173.216263 
L 151.044821 174.810339 
L 155.030536 176.277294 
L 159.01625 177.629719 
" style="fill:none;stroke:#808080;stroke-linecap:square;"/>
   </g>
   <g id="line2d_30">
    <path clip-path="url(#p2987def16d)" d="M 47.41625 40.809413 
L 51.401964 49.971217 
L 55.387679 59.053649 
L 59.373393 67.9772 
L 63.359107 76.669943 
L 67.344821 85.068322 
L 71.330536 93.118916 
L 75.31625 100.779516 
L 79.301964 108.019483 
L 83.287679 114.819462 
L 87.273393 121.170559 
L 91.259107 127.073137 
L 95.244821 132.535371 
L 99.230536 137.571708 
L 103.21625 142.201353 
L 107.201964 146.44686 
L 111.187679 150.332892 
L 115.173393 153.885178 
L 119.159107 157.12966 
L 123.144821 160.091846 
L 127.130536 162.796322 
L 131.11625 165.26642 
L 135.101964 167.524002 
L 139.087679 169.589342 
L 143.073393 171.481086 
L 147.059107 173.216263 
L 151.044821 174.810339 
L 155.030536 176.277294 
L 159.01625 177.629719 
L 163.001964 178.878922 
" style="fill:none;stroke:#808080;stroke-linecap:square;"/>
   </g>
   <g id="line2d_31">
    <path clip-path="url(#p2987def16d)" d="M 47.41625 40.809413 
L 51.401964 49.971217 
L 55.387679 59.053649 
L 59.373393 67.9772 
L 63.359107 76.669943 
L 67.344821 85.068322 
L 71.330536 93.118916 
L 75.31625 100.779516 
L 79.301964 108.019483 
L 83.287679 114.819462 
L 87.273393 121.170559 
L 91.259107 127.073137 
L 95.244821 132.535371 
L 99.230536 137.571708 
L 103.21625 142.201353 
L 107.201964 146.44686 
L 111.187679 150.332892 
L 115.173393 153.885178 
L 119.159107 157.12966 
L 123.144821 160.091846 
L 127.130536 162.796322 
L 131.11625 165.26642 
L 135.101964 167.524002 
L 139.087679 169.589342 
L 143.073393 171.481086 
L 147.059107 173.216263 
L 151.044821 174.810339 
L 155.030536 176.277294 
L 159.01625 177.629719 
L 163.001964 178.878922 
L 166.987679 180.035034 
" style="fill:none;stroke:#808080;stroke-linecap:square;"/>
   </g>
   <g id="line2d_32">
    <path clip-path="url(#p2987def16d)" d="M 47.41625 40.809413 
L 51.401964 49.971217 
L 55.387679 59.053649 
L 59.373393 67.9772 
L 63.359107 76.669943 
L 67.344821 85.068322 
L 71.330536 93.118916 
L 75.31625 100.779516 
L 79.301964 108.019483 
L 83.287679 114.819462 
L 87.273393 121.170559 
L 91.259107 127.073137 
L 95.244821 132.535371 
L 99.230536 137.571708 
L 103.21625 142.201353 
L 107.201964 146.44686 
L 111.187679 150.332892 
L 115.173393 153.885178 
L 119.159107 157.12966 
L 123.144821 160.091846 
L 127.130536 162.796322 
L 131.11625 165.26642 
L 135.101964 167.524002 
L 139.087679 169.589342 
L 143.073393 171.481086 
L 147.059107 173.216263 
L 151.044821 174.810339 
L 155.030536 176.277294 
L 159.01625 177.629719 
L 163.001964 178.878922 
L 166.987679 180.035034 
L 170.973393 181.107115 
" style="fill:none;stroke:#808080;stroke-linecap:square;"/>
   </g>
   <g id="line2d_33">
    <path clip-path="url(#p2987def16d)" d="M 47.41625 40.809413 
L 51.401964 49.971217 
L 55.387679 59.053649 
L 59.373393 67.9772 
L 63.359107 76.669943 
L 67.344821 85.068322 
L 71.330536 93.118916 
L 75.31625 100.779516 
L 79.301964 108.019483 
L 83.287679 114.819462 
L 87.273393 121.170559 
L 91.259107 127.073137 
L 95.244821 132.535371 
L 99.230536 137.571708 
L 103.21625 142.201353 
L 107.201964 146.44686 
L 111.187679 150.332892 
L 115.173393 153.885178 
L 119.159107 157.12966 
L 123.144821 160.091846 
L 127.130536 162.796322 
L 131.11625 165.26642 
L 135.101964 167.524002 
L 139.087679 169.589342 
L 143.073393 171.481086 
L 147.059107 173.216263 
L 151.044821 174.810339 
L 155.030536 176.277294 
L 159.01625 177.629719 
L 163.001964 178.878922 
L 166.987679 180.035034 
L 170.973393 181.107115 
L 174.959107 182.10326 
" style="fill:none;stroke:#808080;stroke-linecap:square;"/>
   </g>
   <g id="line2d_34">
    <path clip-path="url(#p2987def16d)" d="M 47.41625 40.809413 
L 51.401964 49.971217 
L 55.387679 59.053649 
L 59.373393 67.9772 
L 63.359107 76.669943 
L 67.344821 85.068322 
L 71.330536 93.118916 
L 75.31625 100.779516 
L 79.301964 108.019483 
L 83.287679 114.819462 
L 87.273393 121.170559 
L 91.259107 127.073137 
L 95.244821 132.535371 
L 99.230536 137.571708 
L 103.21625 142.201353 
L 107.201964 146.44686 
L 111.187679 150.332892 
L 115.173393 153.885178 
L 119.159107 157.12966 
L 123.144821 160.091846 
L 127.130536 162.796322 
L 131.11625 165.26642 
L 135.101964 167.524002 
L 139.087679 169.589342 
L 143.073393 171.481086 
L 147.059107 173.216263 
L 151.044821 174.810339 
L 155.030536 176.277294 
L 159.01625 177.629719 
L 163.001964 178.878922 
L 166.987679 180.035034 
L 170.973393 181.107115 
L 174.959107 182.10326 
L 178.944821 183.030694 
" style="fill:none;stroke:#808080;stroke-linecap:square;"/>
   </g>
   <g id="line2d_35">
    <path clip-path="url(#p2987def16d)" d="M 47.41625 40.809413 
L 51.401964 49.971217 
L 55.387679 59.053649 
L 59.373393 67.9772 
L 63.359107 76.669943 
L 67.344821 85.068322 
L 71.330536 93.118916 
L 75.31625 100.779516 
L 79.301964 108.019483 
L 83.287679 114.819462 
L 87.273393 121.170559 
L 91.259107 127.073137 
L 95.244821 132.535371 
L 99.230536 137.571708 
L 103.21625 142.201353 
L 107.201964 146.44686 
L 111.187679 150.332892 
L 115.173393 153.885178 
L 119.159107 157.12966 
L 123.144821 160.091846 
L 127.130536 162.796322 
L 131.11625 165.26642 
L 135.101964 167.524002 
L 139.087679 169.589342 
L 143.073393 171.481086 
L 147.059107 173.216263 
L 151.044821 174.810339 
L 155.030536 176.277294 
L 159.01625 177.629719 
L 163.001964 178.878922 
L 166.987679 180.035034 
L 170.973393 181.107115 
L 174.959107 182.10326 
L 178.944821 183.030694 
L 182.930536 183.895866 
" style="fill:none;stroke:#808080;stroke-linecap:square;"/>
   </g>
   <g id="line2d_36">
    <path clip-path="url(#p2987def16d)" d="M 47.41625 40.809413 
L 51.401964 49.971217 
L 55.387679 59.053649 
L 59.373393 67.9772 
L 63.359107 76.669943 
L 67.344821 85.068322 
L 71.330536 93.118916 
L 75.31625 100.779516 
L 79.301964 108.019483 
L 83.287679 114.819462 
L 87.273393 121.170559 
L 91.259107 127.073137 
L 95.244821 132.535371 
L 99.230536 137.571708 
L 103.21625 142.201353 
L 107.201964 146.44686 
L 111.187679 150.332892 
L 115.173393 153.885178 
L 119.159107 157.12966 
L 123.144821 160.091846 
L 127.130536 162.796322 
L 131.11625 165.26642 
L 135.101964 167.524002 
L 139.087679 169.589342 
L 143.073393 171.481086 
L 147.059107 173.216263 
L 151.044821 174.810339 
L 155.030536 176.277294 
L 159.01625 177.629719 
L 163.001964 178.878922 
L 166.987679 180.035034 
L 170.973393 181.107115 
L 174.959107 182.10326 
L 178.944821 183.030694 
L 182.930536 183.895866 
L 186.91625 184.704529 
" style="fill:none;stroke:#808080;stroke-linecap:square;"/>
   </g>
   <g id="line2d_37">
    <path clip-path="url(#p2987def16d)" d="M 47.41625 40.809413 
L 51.401964 49.971217 
L 55.387679 59.053649 
L 59.373393 67.9772 
L 63.359107 76.669943 
L 67.344821 85.068322 
L 71.330536 93.118916 
L 75.31625 100.779516 
L 79.301964 108.019483 
L 83.287679 114.819462 
L 87.273393 121.170559 
L 91.259107 127.073137 
L 95.244821 132.535371 
L 99.230536 137.571708 
L 103.21625 142.201353 
L 107.201964 146.44686 
L 111.187679 150.332892 
L 115.173393 153.885178 
L 119.159107 157.12966 
L 123.144821 160.091846 
L 127.130536 162.796322 
L 131.11625 165.26642 
L 135.101964 167.524002 
L 139.087679 169.589342 
L 143.073393 171.481086 
L 147.059107 173.216263 
L 151.044821 174.810339 
L 155.030536 176.277294 
L 159.01625 177.629719 
L 163.001964 178.878922 
L 166.987679 180.035034 
L 170.973393 181.107115 
L 174.959107 182.10326 
L 178.944821 183.030694 
L 182.930536 183.895866 
L 186.91625 184.704529 
L 190.901964 185.461817 
" style="fill:none;stroke:#808080;stroke-linecap:square;"/>
   </g>
   <g id="line2d_38">
    <path clip-path="url(#p2987def16d)" d="M 47.41625 40.809413 
L 51.401964 49.971217 
L 55.387679 59.053649 
L 59.373393 67.9772 
L 63.359107 76.669943 
L 67.344821 85.068322 
L 71.330536 93.118916 
L 75.31625 100.779516 
L 79.301964 108.019483 
L 83.287679 114.819462 
L 87.273393 121.170559 
L 91.259107 127.073137 
L 95.244821 132.535371 
L 99.230536 137.571708 
L 103.21625 142.201353 
L 107.201964 146.44686 
L 111.187679 150.332892 
L 115.173393 153.885178 
L 119.159107 157.12966 
L 123.144821 160.091846 
L 127.130536 162.796322 
L 131.11625 165.26642 
L 135.101964 167.524002 
L 139.087679 169.589342 
L 143.073393 171.481086 
L 147.059107 173.216263 
L 151.044821 174.810339 
L 155.030536 176.277294 
L 159.01625 177.629719 
L 163.001964 178.878922 
L 166.987679 180.035034 
L 170.973393 181.107115 
L 174.959107 182.10326 
L 178.944821 183.030694 
L 182.930536 183.895866 
L 186.91625 184.704529 
L 190.901964 185.461817 
L 194.887679 186.172316 
" style="fill:none;stroke:#808080;stroke-linecap:square;"/>
   </g>
   <g id="line2d_39">
    <path clip-path="url(#p2987def16d)" d="M 47.41625 40.809413 
L 51.401964 49.971217 
L 55.387679 59.053649 
L 59.373393 67.9772 
L 63.359107 76.669943 
L 67.344821 85.068322 
L 71.330536 93.118916 
L 75.31625 100.779516 
L 79.301964 108.019483 
L 83.287679 114.819462 
L 87.273393 121.170559 
L 91.259107 127.073137 
L 95.244821 132.535371 
L 99.230536 137.571708 
L 103.21625 142.201353 
L 107.201964 146.44686 
L 111.187679 150.332892 
L 115.173393 153.885178 
L 119.159107 157.12966 
L 123.144821 160.091846 
L 127.130536 162.796322 
L 131.11625 165.26642 
L 135.101964 167.524002 
L 139.087679 169.589342 
L 143.073393 171.481086 
L 147.059107 173.216263 
L 151.044821 174.810339 
L 155.030536 176.277294 
L 159.01625 177.629719 
L 163.001964 178.878922 
L 166.987679 180.035034 
L 170.973393 181.107115 
L 174.959107 182.10326 
L 178.944821 183.030694 
L 182.930536 183.895866 
L 186.91625 184.704529 
L 190.901964 185.461817 
L 194.887679 186.172316 
L 198.873393 186.840123 
" style="fill:none;stroke:#808080;stroke-linecap:square;"/>
   </g>
   <g id="line2d_40">
    <path clip-path="url(#p2987def16d)" d="M 47.41625 40.809413 
L 51.401964 49.971217 
L 55.387679 59.053649 
L 59.373393 67.9772 
L 63.359107 76.669943 
L 67.344821 85.068322 
L 71.330536 93.118916 
L 75.31625 100.779516 
L 79.301964 108.019483 
L 83.287679 114.819462 
L 87.273393 121.170559 
L 91.259107 127.073137 
L 95.244821 132.535371 
L 99.230536 137.571708 
L 103.21625 142.201353 
L 107.201964 146.44686 
L 111.187679 150.332892 
L 115.173393 153.885178 
L 119.159107 157.12966 
L 123.144821 160.091846 
L 127.130536 162.796322 
L 131.11625 165.26642 
L 135.101964 167.524002 
L 139.087679 169.589342 
L 143.073393 171.481086 
L 147.059107 173.216263 
L 151.044821 174.810339 
L 155.030536 176.277294 
L 159.01625 177.629719 
L 163.001964 178.878922 
L 166.987679 180.035034 
L 170.973393 181.107115 
L 174.959107 182.10326 
L 178.944821 183.030694 
L 182.930536 183.895866 
L 186.91625 184.704529 
L 190.901964 185.461817 
L 194.887679 186.172316 
L 198.873393 186.840123 
L 202.859107 187.468905 
" style="fill:none;stroke:#808080;stroke-linecap:square;"/>
   </g>
   <g id="line2d_41">
    <path clip-path="url(#p2987def16d)" d="M 47.41625 40.809413 
L 51.401964 49.971217 
L 55.387679 59.053649 
L 59.373393 67.9772 
L 63.359107 76.669943 
L 67.344821 85.068322 
L 71.330536 93.118916 
L 75.31625 100.779516 
L 79.301964 108.019483 
L 83.287679 114.819462 
L 87.273393 121.170559 
L 91.259107 127.073137 
L 95.244821 132.535371 
L 99.230536 137.571708 
L 103.21625 142.201353 
L 107.201964 146.44686 
L 111.187679 150.332892 
L 115.173393 153.885178 
L 119.159107 157.12966 
L 123.144821 160.091846 
L 127.130536 162.796322 
L 131.11625 165.26642 
L 135.101964 167.524002 
L 139.087679 169.589342 
L 143.073393 171.481086 
L 147.059107 173.216263 
L 151.044821 174.810339 
L 155.030536 176.277294 
L 159.01625 177.629719 
L 163.001964 178.878922 
L 166.987679 180.035034 
L 170.973393 181.107115 
L 174.959107 182.10326 
L 178.944821 183.030694 
L 182.930536 183.895866 
L 186.91625 184.704529 
L 190.901964 185.461817 
L 194.887679 186.172316 
L 198.873393 186.840123 
L 202.859107 187.468905 
L 206.844821 188.061943 
" style="fill:none;stroke:#808080;stroke-linecap:square;"/>
   </g>
   <g id="line2d_42">
    <path clip-path="url(#p2987def16d)" d="M 47.41625 40.809413 
L 51.401964 49.971217 
L 55.387679 59.053649 
L 59.373393 67.9772 
L 63.359107 76.669943 
L 67.344821 85.068322 
L 71.330536 93.118916 
L 75.31625 100.779516 
L 79.301964 108.019483 
L 83.287679 114.819462 
L 87.273393 121.170559 
L 91.259107 127.073137 
L 95.244821 132.535371 
L 99.230536 137.571708 
L 103.21625 142.201353 
L 107.201964 146.44686 
L 111.187679 150.332892 
L 115.173393 153.885178 
L 119.159107 157.12966 
L 123.144821 160.091846 
L 127.130536 162.796322 
L 131.11625 165.26642 
L 135.101964 167.524002 
L 139.087679 169.589342 
L 143.073393 171.481086 
L 147.059107 173.216263 
L 151.044821 174.810339 
L 155.030536 176.277294 
L 159.01625 177.629719 
L 163.001964 178.878922 
L 166.987679 180.035034 
L 170.973393 181.107115 
L 174.959107 182.10326 
L 178.944821 183.030694 
L 182.930536 183.895866 
L 186.91625 184.704529 
L 190.901964 185.461817 
L 194.887679 186.172316 
L 198.873393 186.840123 
L 202.859107 187.468905 
L 206.844821 188.061943 
L 210.830536 188.622182 
" style="fill:none;stroke:#808080;stroke-linecap:square;"/>
   </g>
   <g id="line2d_43">
    <path clip-path="url(#p2987def16d)" d="M 47.41625 40.809413 
L 51.401964 49.971217 
L 55.387679 59.053649 
L 59.373393 67.9772 
L 63.359107 76.669943 
L 67.344821 85.068322 
L 71.330536 93.118916 
L 75.31625 100.779516 
L 79.301964 108.019483 
L 83.287679 114.819462 
L 87.273393 121.170559 
L 91.259107 127.073137 
L 95.244821 132.535371 
L 99.230536 137.571708 
L 103.21625 142.201353 
L 107.201964 146.44686 
L 111.187679 150.332892 
L 115.173393 153.885178 
L 119.159107 157.12966 
L 123.144821 160.091846 
L 127.130536 162.796322 
L 131.11625 165.26642 
L 135.101964 167.524002 
L 139.087679 169.589342 
L 143.073393 171.481086 
L 147.059107 173.216263 
L 151.044821 174.810339 
L 155.030536 176.277294 
L 159.01625 177.629719 
L 163.001964 178.878922 
L 166.987679 180.035034 
L 170.973393 181.107115 
L 174.959107 182.10326 
L 178.944821 183.030694 
L 182.930536 183.895866 
L 186.91625 184.704529 
L 190.901964 185.461817 
L 194.887679 186.172316 
L 198.873393 186.840123 
L 202.859107 187.468905 
L 206.844821 188.061943 
L 210.830536 188.622182 
L 214.81625 189.152264 
" style="fill:none;stroke:#808080;stroke-linecap:square;"/>
   </g>
   <g id="line2d_44">
    <path clip-path="url(#p2987def16d)" d="M 47.41625 40.809413 
L 51.401964 49.971217 
L 55.387679 59.053649 
L 59.373393 67.9772 
L 63.359107 76.669943 
L 67.344821 85.068322 
L 71.330536 93.118916 
L 75.31625 100.779516 
L 79.301964 108.019483 
L 83.287679 114.819462 
L 87.273393 121.170559 
L 91.259107 127.073137 
L 95.244821 132.535371 
L 99.230536 137.571708 
L 103.21625 142.201353 
L 107.201964 146.44686 
L 111.187679 150.332892 
L 115.173393 153.885178 
L 119.159107 157.12966 
L 123.144821 160.091846 
L 127.130536 162.796322 
L 131.11625 165.26642 
L 135.101964 167.524002 
L 139.087679 169.589342 
L 143.073393 171.481086 
L 147.059107 173.216263 
L 151.044821 174.810339 
L 155.030536 176.277294 
L 159.01625 177.629719 
L 163.001964 178.878922 
L 166.987679 180.035034 
L 170.973393 181.107115 
L 174.959107 182.10326 
L 178.944821 183.030694 
L 182.930536 183.895866 
L 186.91625 184.704529 
L 190.901964 185.461817 
L 194.887679 186.172316 
L 198.873393 186.840123 
L 202.859107 187.468905 
L 206.844821 188.061943 
L 210.830536 188.622182 
L 214.81625 189.152264 
L 218.801964 189.654566 
" style="fill:none;stroke:#808080;stroke-linecap:square;"/>
   </g>
   <g id="line2d_45">
    <path clip-path="url(#p2987def16d)" d="M 47.41625 40.809413 
L 51.401964 49.971217 
L 55.387679 59.053649 
L 59.373393 67.9772 
L 63.359107 76.669943 
L 67.344821 85.068322 
L 71.330536 93.118916 
L 75.31625 100.779516 
L 79.301964 108.019483 
L 83.287679 114.819462 
L 87.273393 121.170559 
L 91.259107 127.073137 
L 95.244821 132.535371 
L 99.230536 137.571708 
L 103.21625 142.201353 
L 107.201964 146.44686 
L 111.187679 150.332892 
L 115.173393 153.885178 
L 119.159107 157.12966 
L 123.144821 160.091846 
L 127.130536 162.796322 
L 131.11625 165.26642 
L 135.101964 167.524002 
L 139.087679 169.589342 
L 143.073393 171.481086 
L 147.059107 173.216263 
L 151.044821 174.810339 
L 155.030536 176.277294 
L 159.01625 177.629719 
L 163.001964 178.878922 
L 166.987679 180.035034 
L 170.973393 181.107115 
L 174.959107 182.10326 
L 178.944821 183.030694 
L 182.930536 183.895866 
L 186.91625 184.704529 
L 190.901964 185.461817 
L 194.887679 186.172316 
L 198.873393 186.840123 
L 202.859107 187.468905 
L 206.844821 188.061943 
L 210.830536 188.622182 
L 214.81625 189.152264 
L 218.801964 189.654566 
L 222.787679 190.13123 
" style="fill:none;stroke:#808080;stroke-linecap:square;"/>
   </g>
   <g id="line2d_46">
    <path clip-path="url(#p2987def16d)" d="M 47.41625 40.809413 
L 51.401964 49.971217 
L 55.387679 59.053649 
L 59.373393 67.9772 
L 63.359107 76.669943 
L 67.344821 85.068322 
L 71.330536 93.118916 
L 75.31625 100.779516 
L 79.301964 108.019483 
L 83.287679 114.819462 
L 87.273393 121.170559 
L 91.259107 127.073137 
L 95.244821 132.535371 
L 99.230536 137.571708 
L 103.21625 142.201353 
L 107.201964 146.44686 
L 111.187679 150.332892 
L 115.173393 153.885178 
L 119.159107 157.12966 
L 123.144821 160.091846 
L 127.130536 162.796322 
L 131.11625 165.26642 
L 135.101964 167.524002 
L 139.087679 169.589342 
L 143.073393 171.481086 
L 147.059107 173.216263 
L 151.044821 174.810339 
L 155.030536 176.277294 
L 159.01625 177.629719 
L 163.001964 178.878922 
L 166.987679 180.035034 
L 170.973393 181.107115 
L 174.959107 182.10326 
L 178.944821 183.030694 
L 182.930536 183.895866 
L 186.91625 184.704529 
L 190.901964 185.461817 
L 194.887679 186.172316 
L 198.873393 186.840123 
L 202.859107 187.468905 
L 206.844821 188.061943 
L 210.830536 188.622182 
L 214.81625 189.152264 
L 218.801964 189.654566 
L 222.787679 190.13123 
L 226.773393 190.584187 
" style="fill:none;stroke:#808080;stroke-linecap:square;"/>
   </g>
   <g id="line2d_47">
    <path clip-path="url(#p2987def16d)" d="M 47.41625 40.809413 
L 51.401964 49.971217 
L 55.387679 59.053649 
L 59.373393 67.9772 
L 63.359107 76.669943 
L 67.344821 85.068322 
L 71.330536 93.118916 
L 75.31625 100.779516 
L 79.301964 108.019483 
L 83.287679 114.819462 
L 87.273393 121.170559 
L 91.259107 127.073137 
L 95.244821 132.535371 
L 99.230536 137.571708 
L 103.21625 142.201353 
L 107.201964 146.44686 
L 111.187679 150.332892 
L 115.173393 153.885178 
L 119.159107 157.12966 
L 123.144821 160.091846 
L 127.130536 162.796322 
L 131.11625 165.26642 
L 135.101964 167.524002 
L 139.087679 169.589342 
L 143.073393 171.481086 
L 147.059107 173.216263 
L 151.044821 174.810339 
L 155.030536 176.277294 
L 159.01625 177.629719 
L 163.001964 178.878922 
L 166.987679 180.035034 
L 170.973393 181.107115 
L 174.959107 182.10326 
L 178.944821 183.030694 
L 182.930536 183.895866 
L 186.91625 184.704529 
L 190.901964 185.461817 
L 194.887679 186.172316 
L 198.873393 186.840123 
L 202.859107 187.468905 
L 206.844821 188.061943 
L 210.830536 188.622182 
L 214.81625 189.152264 
L 218.801964 189.654566 
L 222.787679 190.13123 
L 226.773393 190.584187 
L 230.759107 191.015183 
" style="fill:none;stroke:#808080;stroke-linecap:square;"/>
   </g>
   <g id="line2d_48">
    <path clip-path="url(#p2987def16d)" d="M 47.41625 40.809413 
L 51.401964 49.971217 
L 55.387679 59.053649 
L 59.373393 67.9772 
L 63.359107 76.669943 
L 67.344821 85.068322 
L 71.330536 93.118916 
L 75.31625 100.779516 
L 79.301964 108.019483 
L 83.287679 114.819462 
L 87.273393 121.170559 
L 91.259107 127.073137 
L 95.244821 132.535371 
L 99.230536 137.571708 
L 103.21625 142.201353 
L 107.201964 146.44686 
L 111.187679 150.332892 
L 115.173393 153.885178 
L 119.159107 157.12966 
L 123.144821 160.091846 
L 127.130536 162.796322 
L 131.11625 165.26642 
L 135.101964 167.524002 
L 139.087679 169.589342 
L 143.073393 171.481086 
L 147.059107 173.216263 
L 151.044821 174.810339 
L 155.030536 176.277294 
L 159.01625 177.629719 
L 163.001964 178.878922 
L 166.987679 180.035034 
L 170.973393 181.107115 
L 174.959107 182.10326 
L 178.944821 183.030694 
L 182.930536 183.895866 
L 186.91625 184.704529 
L 190.901964 185.461817 
L 194.887679 186.172316 
L 198.873393 186.840123 
L 202.859107 187.468905 
L 206.844821 188.061943 
L 210.830536 188.622182 
L 214.81625 189.152264 
L 218.801964 189.654566 
L 222.787679 190.13123 
L 226.773393 190.584187 
L 230.759107 191.015183 
L 234.744821 191.425799 
" style="fill:none;stroke:#808080;stroke-linecap:square;"/>
   </g>
   <g id="line2d_49">
    <path clip-path="url(#p2987def16d)" d="M 47.41625 40.809413 
L 51.401964 49.971217 
L 55.387679 59.053649 
L 59.373393 67.9772 
L 63.359107 76.669943 
L 67.344821 85.068322 
L 71.330536 93.118916 
L 75.31625 100.779516 
L 79.301964 108.019483 
L 83.287679 114.819462 
L 87.273393 121.170559 
L 91.259107 127.073137 
L 95.244821 132.535371 
L 99.230536 137.571708 
L 103.21625 142.201353 
L 107.201964 146.44686 
L 111.187679 150.332892 
L 115.173393 153.885178 
L 119.159107 157.12966 
L 123.144821 160.091846 
L 127.130536 162.796322 
L 131.11625 165.26642 
L 135.101964 167.524002 
L 139.087679 169.589342 
L 143.073393 171.481086 
L 147.059107 173.216263 
L 151.044821 174.810339 
L 155.030536 176.277294 
L 159.01625 177.629719 
L 163.001964 178.878922 
L 166.987679 180.035034 
L 170.973393 181.107115 
L 174.959107 182.10326 
L 178.944821 183.030694 
L 182.930536 183.895866 
L 186.91625 184.704529 
L 190.901964 185.461817 
L 194.887679 186.172316 
L 198.873393 186.840123 
L 202.859107 187.468905 
L 206.844821 188.061943 
L 210.830536 188.622182 
L 214.81625 189.152264 
L 218.801964 189.654566 
L 222.787679 190.13123 
L 226.773393 190.584187 
L 230.759107 191.015183 
L 234.744821 191.425799 
L 238.730536 191.81747 
" style="fill:none;stroke:#808080;stroke-linecap:square;"/>
   </g>
   <g id="line2d_50">
    <path clip-path="url(#p2987def16d)" d="M 47.41625 40.809413 
L 51.401964 49.971217 
L 55.387679 59.053649 
L 59.373393 67.9772 
L 63.359107 76.669943 
L 67.344821 85.068322 
L 71.330536 93.118916 
L 75.31625 100.779516 
L 79.301964 108.019483 
L 83.287679 114.819462 
L 87.273393 121.170559 
L 91.259107 127.073137 
L 95.244821 132.535371 
L 99.230536 137.571708 
L 103.21625 142.201353 
L 107.201964 146.44686 
L 111.187679 150.332892 
L 115.173393 153.885178 
L 119.159107 157.12966 
L 123.144821 160.091846 
L 127.130536 162.796322 
L 131.11625 165.26642 
L 135.101964 167.524002 
L 139.087679 169.589342 
L 143.073393 171.481086 
L 147.059107 173.216263 
L 151.044821 174.810339 
L 155.030536 176.277294 
L 159.01625 177.629719 
L 163.001964 178.878922 
L 166.987679 180.035034 
L 170.973393 181.107115 
L 174.959107 182.10326 
L 178.944821 183.030694 
L 182.930536 183.895866 
L 186.91625 184.704529 
L 190.901964 185.461817 
L 194.887679 186.172316 
L 198.873393 186.840123 
L 202.859107 187.468905 
L 206.844821 188.061943 
L 210.830536 188.622182 
L 214.81625 189.152264 
L 218.801964 189.654566 
L 222.787679 190.13123 
L 226.773393 190.584187 
L 230.759107 191.015183 
L 234.744821 191.425799 
L 238.730536 191.81747 
L 242.71625 192.191498 
" style="fill:none;stroke:#808080;stroke-linecap:square;"/>
   </g>
   <g id="line2d_51">
    <path clip-path="url(#p2987def16d)" d="M 47.41625 40.809415 
" style="fill:none;stroke:#000000;stroke-linecap:square;"/>
   </g>
   <g id="line2d_52">
    <path clip-path="url(#p2987def16d)" d="M 47.41625 40.809415 
L 51.401964 49.363768 
" style="fill:none;stroke:#000000;stroke-linecap:square;"/>
   </g>
   <g id="line2d_53">
    <path clip-path="url(#p2987def16d)" d="M 47.41625 40.809415 
L 51.401964 49.363768 
L 55.387679 57.853663 
" style="fill:none;stroke:#000000;stroke-linecap:square;"/>
   </g>
   <g id="line2d_54">
    <path clip-path="url(#p2987def16d)" d="M 47.41625 40.809415 
L 51.401964 49.363768 
L 55.387679 57.853663 
L 59.373393 66.213626 
" style="fill:none;stroke:#000000;stroke-linecap:square;"/>
   </g>
   <g id="line2d_55">
    <path clip-path="url(#p2987def16d)" d="M 47.41625 40.809415 
L 51.401964 49.363768 
L 55.387679 57.853663 
L 59.373393 66.213626 
L 63.359107 74.3841 
" style="fill:none;stroke:#000000;stroke-linecap:square;"/>
   </g>
   <g id="line2d_56">
    <path clip-path="url(#p2987def16d)" d="M 47.41625 40.809415 
L 51.401964 49.363768 
L 55.387679 57.853663 
L 59.373393 66.213626 
L 63.359107 74.3841 
L 67.344821 82.311599 
" style="fill:none;stroke:#000000;stroke-linecap:square;"/>
   </g>
   <g id="line2d_57">
    <path clip-path="url(#p2987def16d)" d="M 47.41625 40.809415 
L 51.401964 49.363768 
L 55.387679 57.853663 
L 59.373393 66.213626 
L 63.359107 74.3841 
L 67.344821 82.311599 
L 71.330536 89.950086 
" style="fill:none;stroke:#000000;stroke-linecap:square;"/>
   </g>
   <g id="line2d_58">
    <path clip-path="url(#p2987def16d)" d="M 47.41625 40.809415 
L 51.401964 49.363768 
L 55.387679 57.853663 
L 59.373393 66.213626 
L 63.359107 74.3841 
L 67.344821 82.311599 
L 71.330536 89.950086 
L 75.31625 97.261869 
" style="fill:none;stroke:#000000;stroke-linecap:square;"/>
   </g>
   <g id="line2d_59">
    <path clip-path="url(#p2987def16d)" d="M 47.41625 40.809415 
L 51.401964 49.363768 
L 55.387679 57.853663 
L 59.373393 66.213626 
L 63.359107 74.3841 
L 67.344821 82.311599 
L 71.330536 89.950086 
L 75.31625 97.261869 
L 79.301964 104.218035 
" style="fill:none;stroke:#000000;stroke-linecap:square;"/>
   </g>
   <g id="line2d_60">
    <path clip-path="url(#p2987def16d)" d="M 47.41625 40.809415 
L 51.401964 49.363768 
L 55.387679 57.853663 
L 59.373393 66.213626 
L 63.359107 74.3841 
L 67.344821 82.311599 
L 71.330536 89.950086 
L 75.31625 97.261869 
L 79.301964 104.218035 
L 83.287679 110.798414 
" style="fill:none;stroke:#000000;stroke-linecap:square;"/>
   </g>
   <g id="line2d_61">
    <path clip-path="url(#p2987def16d)" d="M 47.41625 40.809415 
L 51.401964 49.363768 
L 55.387679 57.853663 
L 59.373393 66.213626 
L 63.359107 74.3841 
L 67.344821 82.311599 
L 71.330536 89.950086 
L 75.31625 97.261869 
L 79.301964 104.218035 
L 83.287679 110.798414 
L 87.273393 116.991164 
" style="fill:none;stroke:#000000;stroke-linecap:square;"/>
   </g>
   <g id="line2d_62">
    <path clip-path="url(#p2987def16d)" d="M 47.41625 40.809415 
L 51.401964 49.363768 
L 55.387679 57.853663 
L 59.373393 66.213626 
L 63.359107 74.3841 
L 67.344821 82.311599 
L 71.330536 89.950086 
L 75.31625 97.261869 
L 79.301964 104.218035 
L 83.287679 110.798414 
L 87.273393 116.991164 
L 91.259107 122.792041 
" style="fill:none;stroke:#000000;stroke-linecap:square;"/>
   </g>
   <g id="line2d_63">
    <path clip-path="url(#p2987def16d)" d="M 47.41625 40.809415 
L 51.401964 49.363768 
L 55.387679 57.853663 
L 59.373393 66.213626 
L 63.359107 74.3841 
L 67.344821 82.311599 
L 71.330536 89.950086 
L 75.31625 97.261869 
L 79.301964 104.218035 
L 83.287679 110.798414 
L 87.273393 116.991164 
L 91.259107 122.792041 
L 95.244821 128.203461 
" style="fill:none;stroke:#000000;stroke-linecap:square;"/>
   </g>
   <g id="line2d_64">
    <path clip-path="url(#p2987def16d)" d="M 47.41625 40.809415 
L 51.401964 49.363768 
L 55.387679 57.853663 
L 59.373393 66.213626 
L 63.359107 74.3841 
L 67.344821 82.311599 
L 71.330536 89.950086 
L 75.31625 97.261869 
L 79.301964 104.218035 
L 83.287679 110.798414 
L 87.273393 116.991164 
L 91.259107 122.792041 
L 95.244821 128.203461 
L 99.230536 133.233438 
" style="fill:none;stroke:#000000;stroke-linecap:square;"/>
   </g>
   <g id="line2d_65">
    <path clip-path="url(#p2987def16d)" d="M 47.41625 40.809415 
L 51.401964 49.363768 
L 55.387679 57.853663 
L 59.373393 66.213626 
L 63.359107 74.3841 
L 67.344821 82.311599 
L 71.330536 89.950086 
L 75.31625 97.261869 
L 79.301964 104.218035 
L 83.287679 110.798414 
L 87.273393 116.991164 
L 91.259107 122.792041 
L 95.244821 128.203461 
L 99.230536 133.233438 
L 103.21625 137.894494 
" style="fill:none;stroke:#000000;stroke-linecap:square;"/>
   </g>
   <g id="line2d_66">
    <path clip-path="url(#p2987def16d)" d="M 47.41625 40.809415 
L 51.401964 49.363768 
L 55.387679 57.853663 
L 59.373393 66.213626 
L 63.359107 74.3841 
L 67.344821 82.311599 
L 71.330536 89.950086 
L 75.31625 97.261869 
L 79.301964 104.218035 
L 83.287679 110.798414 
L 87.273393 116.991164 
L 91.259107 122.792041 
L 95.244821 128.203461 
L 99.230536 133.233438 
L 103.21625 137.894494 
L 107.201964 142.202591 
" style="fill:none;stroke:#000000;stroke-linecap:square;"/>
   </g>
   <g id="line2d_67">
    <path clip-path="url(#p2987def16d)" d="M 47.41625 40.809415 
L 51.401964 49.363768 
L 55.387679 57.853663 
L 59.373393 66.213626 
L 63.359107 74.3841 
L 67.344821 82.311599 
L 71.330536 89.950086 
L 75.31625 97.261869 
L 79.301964 104.218035 
L 83.287679 110.798414 
L 87.273393 116.991164 
L 91.259107 122.792041 
L 95.244821 128.203461 
L 99.230536 133.233438 
L 103.21625 137.894494 
L 107.201964 142.202591 
L 111.187679 146.176151 
" style="fill:none;stroke:#000000;stroke-linecap:square;"/>
   </g>
   <g id="line2d_68">
    <path clip-path="url(#p2987def16d)" d="M 47.41625 40.809415 
L 51.401964 49.363768 
L 55.387679 57.853663 
L 59.373393 66.213626 
L 63.359107 74.3841 
L 67.344821 82.311599 
L 71.330536 89.950086 
L 75.31625 97.261869 
L 79.301964 104.218035 
L 83.287679 110.798414 
L 87.273393 116.991164 
L 91.259107 122.792041 
L 95.244821 128.203461 
L 99.230536 133.233438 
L 103.21625 137.894494 
L 107.201964 142.202591 
L 111.187679 146.176151 
L 115.173393 149.835185 
" style="fill:none;stroke:#000000;stroke-linecap:square;"/>
   </g>
   <g id="line2d_69">
    <path clip-path="url(#p2987def16d)" d="M 47.41625 40.809415 
L 51.401964 49.363768 
L 55.387679 57.853663 
L 59.373393 66.213626 
L 63.359107 74.3841 
L 67.344821 82.311599 
L 71.330536 89.950086 
L 75.31625 97.261869 
L 79.301964 104.218035 
L 83.287679 110.798414 
L 87.273393 116.991164 
L 91.259107 122.792041 
L 95.244821 128.203461 
L 99.230536 133.233438 
L 103.21625 137.894494 
L 107.201964 142.202591 
L 111.187679 146.176151 
L 115.173393 149.835185 
L 119.159107 153.200551 
" style="fill:none;stroke:#000000;stroke-linecap:square;"/>
   </g>
   <g id="line2d_70">
    <path clip-path="url(#p2987def16d)" d="M 47.41625 40.809415 
L 51.401964 49.363768 
L 55.387679 57.853663 
L 59.373393 66.213626 
L 63.359107 74.3841 
L 67.344821 82.311599 
L 71.330536 89.950086 
L 75.31625 97.261869 
L 79.301964 104.218035 
L 83.287679 110.798414 
L 87.273393 116.991164 
L 91.259107 122.792041 
L 95.244821 128.203461 
L 99.230536 133.233438 
L 103.21625 137.894494 
L 107.201964 142.202591 
L 111.187679 146.176151 
L 115.173393 149.835185 
L 119.159107 153.200551 
L 123.144821 156.293347 
" style="fill:none;stroke:#000000;stroke-linecap:square;"/>
   </g>
   <g id="line2d_71">
    <path clip-path="url(#p2987def16d)" d="M 47.41625 40.809415 
L 51.401964 49.363768 
L 55.387679 57.853663 
L 59.373393 66.213626 
L 63.359107 74.3841 
L 67.344821 82.311599 
L 71.330536 89.950086 
L 75.31625 97.261869 
L 79.301964 104.218035 
L 83.287679 110.798414 
L 87.273393 116.991164 
L 91.259107 122.792041 
L 95.244821 128.203461 
L 99.230536 133.233438 
L 103.21625 137.894494 
L 107.201964 142.202591 
L 111.187679 146.176151 
L 115.173393 149.835185 
L 119.159107 153.200551 
L 123.144821 156.293347 
L 127.130536 159.134424 
" style="fill:none;stroke:#000000;stroke-linecap:square;"/>
   </g>
   <g id="line2d_72">
    <path clip-path="url(#p2987def16d)" d="M 47.41625 40.809415 
L 51.401964 49.363768 
L 55.387679 57.853663 
L 59.373393 66.213626 
L 63.359107 74.3841 
L 67.344821 82.311599 
L 71.330536 89.950086 
L 75.31625 97.261869 
L 79.301964 104.218035 
L 83.287679 110.798414 
L 87.273393 116.991164 
L 91.259107 122.792041 
L 95.244821 128.203461 
L 99.230536 133.233438 
L 103.21625 137.894494 
L 107.201964 142.202591 
L 111.187679 146.176151 
L 115.173393 149.835185 
L 119.159107 153.200551 
L 123.144821 156.293347 
L 127.130536 159.134424 
L 131.11625 161.744022 
" style="fill:none;stroke:#000000;stroke-linecap:square;"/>
   </g>
   <g id="line2d_73">
    <path clip-path="url(#p2987def16d)" d="M 47.41625 40.809415 
L 51.401964 49.363768 
L 55.387679 57.853663 
L 59.373393 66.213626 
L 63.359107 74.3841 
L 67.344821 82.311599 
L 71.330536 89.950086 
L 75.31625 97.261869 
L 79.301964 104.218035 
L 83.287679 110.798414 
L 87.273393 116.991164 
L 91.259107 122.792041 
L 95.244821 128.203461 
L 99.230536 133.233438 
L 103.21625 137.894494 
L 107.201964 142.202591 
L 111.187679 146.176151 
L 115.173393 149.835185 
L 119.159107 153.200551 
L 123.144821 156.293347 
L 127.130536 159.134424 
L 131.11625 161.744022 
L 135.101964 164.141501 
" style="fill:none;stroke:#000000;stroke-linecap:square;"/>
   </g>
   <g id="line2d_74">
    <path clip-path="url(#p2987def16d)" d="M 47.41625 40.809415 
L 51.401964 49.363768 
L 55.387679 57.853663 
L 59.373393 66.213626 
L 63.359107 74.3841 
L 67.344821 82.311599 
L 71.330536 89.950086 
L 75.31625 97.261869 
L 79.301964 104.218035 
L 83.287679 110.798414 
L 87.273393 116.991164 
L 91.259107 122.792041 
L 95.244821 128.203461 
L 99.230536 133.233438 
L 103.21625 137.894494 
L 107.201964 142.202591 
L 111.187679 146.176151 
L 115.173393 149.835185 
L 119.159107 153.200551 
L 123.144821 156.293347 
L 127.130536 159.134424 
L 131.11625 161.744022 
L 135.101964 164.141501 
L 139.087679 166.345165 
" style="fill:none;stroke:#000000;stroke-linecap:square;"/>
   </g>
   <g id="line2d_75">
    <path clip-path="url(#p2987def16d)" d="M 47.41625 40.809415 
L 51.401964 49.363768 
L 55.387679 57.853663 
L 59.373393 66.213626 
L 63.359107 74.3841 
L 67.344821 82.311599 
L 71.330536 89.950086 
L 75.31625 97.261869 
L 79.301964 104.218035 
L 83.287679 110.798414 
L 87.273393 116.991164 
L 91.259107 122.792041 
L 95.244821 128.203461 
L 99.230536 133.233438 
L 103.21625 137.894494 
L 107.201964 142.202591 
L 111.187679 146.176151 
L 115.173393 149.835185 
L 119.159107 153.200551 
L 123.144821 156.293347 
L 127.130536 159.134424 
L 131.11625 161.744022 
L 135.101964 164.141501 
L 139.087679 166.345165 
L 143.073393 168.372145 
" style="fill:none;stroke:#000000;stroke-linecap:square;"/>
   </g>
   <g id="line2d_76">
    <path clip-path="url(#p2987def16d)" d="M 47.41625 40.809415 
L 51.401964 49.363768 
L 55.387679 57.853663 
L 59.373393 66.213626 
L 63.359107 74.3841 
L 67.344821 82.311599 
L 71.330536 89.950086 
L 75.31625 97.261869 
L 79.301964 104.218035 
L 83.287679 110.798414 
L 87.273393 116.991164 
L 91.259107 122.792041 
L 95.244821 128.203461 
L 99.230536 133.233438 
L 103.21625 137.894494 
L 107.201964 142.202591 
L 111.187679 146.176151 
L 115.173393 149.835185 
L 119.159107 153.200551 
L 123.144821 156.293347 
L 127.130536 159.134424 
L 131.11625 161.744022 
L 135.101964 164.141501 
L 139.087679 166.345165 
L 143.073393 168.372145 
L 147.059107 170.238349 
" style="fill:none;stroke:#000000;stroke-linecap:square;"/>
   </g>
   <g id="line2d_77">
    <path clip-path="url(#p2987def16d)" d="M 47.41625 40.809415 
L 51.401964 49.363768 
L 55.387679 57.853663 
L 59.373393 66.213626 
L 63.359107 74.3841 
L 67.344821 82.311599 
L 71.330536 89.950086 
L 75.31625 97.261869 
L 79.301964 104.218035 
L 83.287679 110.798414 
L 87.273393 116.991164 
L 91.259107 122.792041 
L 95.244821 128.203461 
L 99.230536 133.233438 
L 103.21625 137.894494 
L 107.201964 142.202591 
L 111.187679 146.176151 
L 115.173393 149.835185 
L 119.159107 153.200551 
L 123.144821 156.293347 
L 127.130536 159.134424 
L 131.11625 161.744022 
L 135.101964 164.141501 
L 139.087679 166.345165 
L 143.073393 168.372145 
L 147.059107 170.238349 
L 151.044821 171.958451 
" style="fill:none;stroke:#000000;stroke-linecap:square;"/>
   </g>
   <g id="line2d_78">
    <path clip-path="url(#p2987def16d)" d="M 47.41625 40.809415 
L 51.401964 49.363768 
L 55.387679 57.853663 
L 59.373393 66.213626 
L 63.359107 74.3841 
L 67.344821 82.311599 
L 71.330536 89.950086 
L 75.31625 97.261869 
L 79.301964 104.218035 
L 83.287679 110.798414 
L 87.273393 116.991164 
L 91.259107 122.792041 
L 95.244821 128.203461 
L 99.230536 133.233438 
L 103.21625 137.894494 
L 107.201964 142.202591 
L 111.187679 146.176151 
L 115.173393 149.835185 
L 119.159107 153.200551 
L 123.144821 156.293347 
L 127.130536 159.134424 
L 131.11625 161.744022 
L 135.101964 164.141501 
L 139.087679 166.345165 
L 143.073393 168.372145 
L 147.059107 170.238349 
L 151.044821 171.958451 
L 155.030536 173.545904 
" style="fill:none;stroke:#000000;stroke-linecap:square;"/>
   </g>
   <g id="line2d_79">
    <path clip-path="url(#p2987def16d)" d="M 47.41625 40.809415 
L 51.401964 49.363768 
L 55.387679 57.853663 
L 59.373393 66.213626 
L 63.359107 74.3841 
L 67.344821 82.311599 
L 71.330536 89.950086 
L 75.31625 97.261869 
L 79.301964 104.218035 
L 83.287679 110.798414 
L 87.273393 116.991164 
L 91.259107 122.792041 
L 95.244821 128.203461 
L 99.230536 133.233438 
L 103.21625 137.894494 
L 107.201964 142.202591 
L 111.187679 146.176151 
L 115.173393 149.835185 
L 119.159107 153.200551 
L 123.144821 156.293347 
L 127.130536 159.134424 
L 131.11625 161.744022 
L 135.101964 164.141501 
L 139.087679 166.345165 
L 143.073393 168.372145 
L 147.059107 170.238349 
L 151.044821 171.958451 
L 155.030536 173.545904 
L 159.01625 175.012994 
" style="fill:none;stroke:#000000;stroke-linecap:square;"/>
   </g>
   <g id="line2d_80">
    <path clip-path="url(#p2987def16d)" d="M 47.41625 40.809415 
L 51.401964 49.363768 
L 55.387679 57.853663 
L 59.373393 66.213626 
L 63.359107 74.3841 
L 67.344821 82.311599 
L 71.330536 89.950086 
L 75.31625 97.261869 
L 79.301964 104.218035 
L 83.287679 110.798414 
L 87.273393 116.991164 
L 91.259107 122.792041 
L 95.244821 128.203461 
L 99.230536 133.233438 
L 103.21625 137.894494 
L 107.201964 142.202591 
L 111.187679 146.176151 
L 115.173393 149.835185 
L 119.159107 153.200551 
L 123.144821 156.293347 
L 127.130536 159.134424 
L 131.11625 161.744022 
L 135.101964 164.141501 
L 139.087679 166.345165 
L 143.073393 168.372145 
L 147.059107 170.238349 
L 151.044821 171.958451 
L 155.030536 173.545904 
L 159.01625 175.012994 
L 163.001964 176.370891 
" style="fill:none;stroke:#000000;stroke-linecap:square;"/>
   </g>
   <g id="line2d_81">
    <path clip-path="url(#p2987def16d)" d="M 47.41625 40.809415 
L 51.401964 49.363768 
L 55.387679 57.853663 
L 59.373393 66.213626 
L 63.359107 74.3841 
L 67.344821 82.311599 
L 71.330536 89.950086 
L 75.31625 97.261869 
L 79.301964 104.218035 
L 83.287679 110.798414 
L 87.273393 116.991164 
L 91.259107 122.792041 
L 95.244821 128.203461 
L 99.230536 133.233438 
L 103.21625 137.894494 
L 107.201964 142.202591 
L 111.187679 146.176151 
L 115.173393 149.835185 
L 119.159107 153.200551 
L 123.144821 156.293347 
L 127.130536 159.134424 
L 131.11625 161.744022 
L 135.101964 164.141501 
L 139.087679 166.345165 
L 143.073393 168.372145 
L 147.059107 170.238349 
L 151.044821 171.958451 
L 155.030536 173.545904 
L 159.01625 175.012994 
L 163.001964 176.370891 
L 166.987679 177.629723 
" style="fill:none;stroke:#000000;stroke-linecap:square;"/>
   </g>
   <g id="line2d_82">
    <path clip-path="url(#p2987def16d)" d="M 47.41625 40.809415 
L 51.401964 49.363768 
L 55.387679 57.853663 
L 59.373393 66.213626 
L 63.359107 74.3841 
L 67.344821 82.311599 
L 71.330536 89.950086 
L 75.31625 97.261869 
L 79.301964 104.218035 
L 83.287679 110.798414 
L 87.273393 116.991164 
L 91.259107 122.792041 
L 95.244821 128.203461 
L 99.230536 133.233438 
L 103.21625 137.894494 
L 107.201964 142.202591 
L 111.187679 146.176151 
L 115.173393 149.835185 
L 119.159107 153.200551 
L 123.144821 156.293347 
L 127.130536 159.134424 
L 131.11625 161.744022 
L 135.101964 164.141501 
L 139.087679 166.345165 
L 143.073393 168.372145 
L 147.059107 170.238349 
L 151.044821 171.958451 
L 155.030536 173.545904 
L 159.01625 175.012994 
L 163.001964 176.370891 
L 166.987679 177.629723 
L 170.973393 178.798649 
" style="fill:none;stroke:#000000;stroke-linecap:square;"/>
   </g>
   <g id="line2d_83">
    <path clip-path="url(#p2987def16d)" d="M 47.41625 40.809415 
L 51.401964 49.363768 
L 55.387679 57.853663 
L 59.373393 66.213626 
L 63.359107 74.3841 
L 67.344821 82.311599 
L 71.330536 89.950086 
L 75.31625 97.261869 
L 79.301964 104.218035 
L 83.287679 110.798414 
L 87.273393 116.991164 
L 91.259107 122.792041 
L 95.244821 128.203461 
L 99.230536 133.233438 
L 103.21625 137.894494 
L 107.201964 142.202591 
L 111.187679 146.176151 
L 115.173393 149.835185 
L 119.159107 153.200551 
L 123.144821 156.293347 
L 127.130536 159.134424 
L 131.11625 161.744022 
L 135.101964 164.141501 
L 139.087679 166.345165 
L 143.073393 168.372145 
L 147.059107 170.238349 
L 151.044821 171.958451 
L 155.030536 173.545904 
L 159.01625 175.012994 
L 163.001964 176.370891 
L 166.987679 177.629723 
L 170.973393 178.798649 
L 174.959107 179.885932 
" style="fill:none;stroke:#000000;stroke-linecap:square;"/>
   </g>
   <g id="line2d_84">
    <path clip-path="url(#p2987def16d)" d="M 47.41625 40.809415 
L 51.401964 49.363768 
L 55.387679 57.853663 
L 59.373393 66.213626 
L 63.359107 74.3841 
L 67.344821 82.311599 
L 71.330536 89.950086 
L 75.31625 97.261869 
L 79.301964 104.218035 
L 83.287679 110.798414 
L 87.273393 116.991164 
L 91.259107 122.792041 
L 95.244821 128.203461 
L 99.230536 133.233438 
L 103.21625 137.894494 
L 107.201964 142.202591 
L 111.187679 146.176151 
L 115.173393 149.835185 
L 119.159107 153.200551 
L 123.144821 156.293347 
L 127.130536 159.134424 
L 131.11625 161.744022 
L 135.101964 164.141501 
L 139.087679 166.345165 
L 143.073393 168.372145 
L 147.059107 170.238349 
L 151.044821 171.958451 
L 155.030536 173.545904 
L 159.01625 175.012994 
L 163.001964 176.370891 
L 166.987679 177.629723 
L 170.973393 178.798649 
L 174.959107 179.885932 
L 178.944821 180.899023 
" style="fill:none;stroke:#000000;stroke-linecap:square;"/>
   </g>
   <g id="line2d_85">
    <path clip-path="url(#p2987def16d)" d="M 47.41625 40.809415 
L 51.401964 49.363768 
L 55.387679 57.853663 
L 59.373393 66.213626 
L 63.359107 74.3841 
L 67.344821 82.311599 
L 71.330536 89.950086 
L 75.31625 97.261869 
L 79.301964 104.218035 
L 83.287679 110.798414 
L 87.273393 116.991164 
L 91.259107 122.792041 
L 95.244821 128.203461 
L 99.230536 133.233438 
L 103.21625 137.894494 
L 107.201964 142.202591 
L 111.187679 146.176151 
L 115.173393 149.835185 
L 119.159107 153.200551 
L 123.144821 156.293347 
L 127.130536 159.134424 
L 131.11625 161.744022 
L 135.101964 164.141501 
L 139.087679 166.345165 
L 143.073393 168.372145 
L 147.059107 170.238349 
L 151.044821 171.958451 
L 155.030536 173.545904 
L 159.01625 175.012994 
L 163.001964 176.370891 
L 166.987679 177.629723 
L 170.973393 178.798649 
L 174.959107 179.885932 
L 178.944821 180.899023 
L 182.930536 181.844627 
" style="fill:none;stroke:#000000;stroke-linecap:square;"/>
   </g>
   <g id="line2d_86">
    <path clip-path="url(#p2987def16d)" d="M 47.41625 40.809415 
L 51.401964 49.363768 
L 55.387679 57.853663 
L 59.373393 66.213626 
L 63.359107 74.3841 
L 67.344821 82.311599 
L 71.330536 89.950086 
L 75.31625 97.261869 
L 79.301964 104.218035 
L 83.287679 110.798414 
L 87.273393 116.991164 
L 91.259107 122.792041 
L 95.244821 128.203461 
L 99.230536 133.233438 
L 103.21625 137.894494 
L 107.201964 142.202591 
L 111.187679 146.176151 
L 115.173393 149.835185 
L 119.159107 153.200551 
L 123.144821 156.293347 
L 127.130536 159.134424 
L 131.11625 161.744022 
L 135.101964 164.141501 
L 139.087679 166.345165 
L 143.073393 168.372145 
L 147.059107 170.238349 
L 151.044821 171.958451 
L 155.030536 173.545904 
L 159.01625 175.012994 
L 163.001964 176.370891 
L 166.987679 177.629723 
L 170.973393 178.798649 
L 174.959107 179.885932 
L 178.944821 180.899023 
L 182.930536 181.844627 
L 186.91625 182.728775 
" style="fill:none;stroke:#000000;stroke-linecap:square;"/>
   </g>
   <g id="line2d_87">
    <path clip-path="url(#p2987def16d)" d="M 47.41625 40.809415 
L 51.401964 49.363768 
L 55.387679 57.853663 
L 59.373393 66.213626 
L 63.359107 74.3841 
L 67.344821 82.311599 
L 71.330536 89.950086 
L 75.31625 97.261869 
L 79.301964 104.218035 
L 83.287679 110.798414 
L 87.273393 116.991164 
L 91.259107 122.792041 
L 95.244821 128.203461 
L 99.230536 133.233438 
L 103.21625 137.894494 
L 107.201964 142.202591 
L 111.187679 146.176151 
L 115.173393 149.835185 
L 119.159107 153.200551 
L 123.144821 156.293347 
L 127.130536 159.134424 
L 131.11625 161.744022 
L 135.101964 164.141501 
L 139.087679 166.345165 
L 143.073393 168.372145 
L 147.059107 170.238349 
L 151.044821 171.958451 
L 155.030536 173.545904 
L 159.01625 175.012994 
L 163.001964 176.370891 
L 166.987679 177.629723 
L 170.973393 178.798649 
L 174.959107 179.885932 
L 178.944821 180.899023 
L 182.930536 181.844627 
L 186.91625 182.728775 
L 190.901964 183.55689 
" style="fill:none;stroke:#000000;stroke-linecap:square;"/>
   </g>
   <g id="line2d_88">
    <path clip-path="url(#p2987def16d)" d="M 47.41625 40.809415 
L 51.401964 49.363768 
L 55.387679 57.853663 
L 59.373393 66.213626 
L 63.359107 74.3841 
L 67.344821 82.311599 
L 71.330536 89.950086 
L 75.31625 97.261869 
L 79.301964 104.218035 
L 83.287679 110.798414 
L 87.273393 116.991164 
L 91.259107 122.792041 
L 95.244821 128.203461 
L 99.230536 133.233438 
L 103.21625 137.894494 
L 107.201964 142.202591 
L 111.187679 146.176151 
L 115.173393 149.835185 
L 119.159107 153.200551 
L 123.144821 156.293347 
L 127.130536 159.134424 
L 131.11625 161.744022 
L 135.101964 164.141501 
L 139.087679 166.345165 
L 143.073393 168.372145 
L 147.059107 170.238349 
L 151.044821 171.958451 
L 155.030536 173.545904 
L 159.01625 175.012994 
L 163.001964 176.370891 
L 166.987679 177.629723 
L 170.973393 178.798649 
L 174.959107 179.885932 
L 178.944821 180.899023 
L 182.930536 181.844627 
L 186.91625 182.728775 
L 190.901964 183.55689 
L 194.887679 184.333849 
" style="fill:none;stroke:#000000;stroke-linecap:square;"/>
   </g>
   <g id="line2d_89">
    <path clip-path="url(#p2987def16d)" d="M 47.41625 40.809415 
L 51.401964 49.363768 
L 55.387679 57.853663 
L 59.373393 66.213626 
L 63.359107 74.3841 
L 67.344821 82.311599 
L 71.330536 89.950086 
L 75.31625 97.261869 
L 79.301964 104.218035 
L 83.287679 110.798414 
L 87.273393 116.991164 
L 91.259107 122.792041 
L 95.244821 128.203461 
L 99.230536 133.233438 
L 103.21625 137.894494 
L 107.201964 142.202591 
L 111.187679 146.176151 
L 115.173393 149.835185 
L 119.159107 153.200551 
L 123.144821 156.293347 
L 127.130536 159.134424 
L 131.11625 161.744022 
L 135.101964 164.141501 
L 139.087679 166.345165 
L 143.073393 168.372145 
L 147.059107 170.238349 
L 151.044821 171.958451 
L 155.030536 173.545904 
L 159.01625 175.012994 
L 163.001964 176.370891 
L 166.987679 177.629723 
L 170.973393 178.798649 
L 174.959107 179.885932 
L 178.944821 180.899023 
L 182.930536 181.844627 
L 186.91625 182.728775 
L 190.901964 183.55689 
L 194.887679 184.333849 
L 198.873393 185.064037 
" style="fill:none;stroke:#000000;stroke-linecap:square;"/>
   </g>
   <g id="line2d_90">
    <path clip-path="url(#p2987def16d)" d="M 47.41625 40.809415 
L 51.401964 49.363768 
L 55.387679 57.853663 
L 59.373393 66.213626 
L 63.359107 74.3841 
L 67.344821 82.311599 
L 71.330536 89.950086 
L 75.31625 97.261869 
L 79.301964 104.218035 
L 83.287679 110.798414 
L 87.273393 116.991164 
L 91.259107 122.792041 
L 95.244821 128.203461 
L 99.230536 133.233438 
L 103.21625 137.894494 
L 107.201964 142.202591 
L 111.187679 146.176151 
L 115.173393 149.835185 
L 119.159107 153.200551 
L 123.144821 156.293347 
L 127.130536 159.134424 
L 131.11625 161.744022 
L 135.101964 164.141501 
L 139.087679 166.345165 
L 143.073393 168.372145 
L 147.059107 170.238349 
L 151.044821 171.958451 
L 155.030536 173.545904 
L 159.01625 175.012994 
L 163.001964 176.370891 
L 166.987679 177.629723 
L 170.973393 178.798649 
L 174.959107 179.885932 
L 178.944821 180.899023 
L 182.930536 181.844627 
L 186.91625 182.728775 
L 190.901964 183.55689 
L 194.887679 184.333849 
L 198.873393 185.064037 
L 202.859107 185.751396 
" style="fill:none;stroke:#000000;stroke-linecap:square;"/>
   </g>
   <g id="line2d_91">
    <path clip-path="url(#p2987def16d)" d="M 47.41625 40.809415 
L 51.401964 49.363768 
L 55.387679 57.853663 
L 59.373393 66.213626 
L 63.359107 74.3841 
L 67.344821 82.311599 
L 71.330536 89.950086 
L 75.31625 97.261869 
L 79.301964 104.218035 
L 83.287679 110.798414 
L 87.273393 116.991164 
L 91.259107 122.792041 
L 95.244821 128.203461 
L 99.230536 133.233438 
L 103.21625 137.894494 
L 107.201964 142.202591 
L 111.187679 146.176151 
L 115.173393 149.835185 
L 119.159107 153.200551 
L 123.144821 156.293347 
L 127.130536 159.134424 
L 131.11625 161.744022 
L 135.101964 164.141501 
L 139.087679 166.345165 
L 143.073393 168.372145 
L 147.059107 170.238349 
L 151.044821 171.958451 
L 155.030536 173.545904 
L 159.01625 175.012994 
L 163.001964 176.370891 
L 166.987679 177.629723 
L 170.973393 178.798649 
L 174.959107 179.885932 
L 178.944821 180.899023 
L 182.930536 181.844627 
L 186.91625 182.728775 
L 190.901964 183.55689 
L 194.887679 184.333849 
L 198.873393 185.064037 
L 202.859107 185.751396 
L 206.844821 186.399477 
" style="fill:none;stroke:#000000;stroke-linecap:square;"/>
   </g>
   <g id="line2d_92">
    <path clip-path="url(#p2987def16d)" d="M 47.41625 40.809415 
L 51.401964 49.363768 
L 55.387679 57.853663 
L 59.373393 66.213626 
L 63.359107 74.3841 
L 67.344821 82.311599 
L 71.330536 89.950086 
L 75.31625 97.261869 
L 79.301964 104.218035 
L 83.287679 110.798414 
L 87.273393 116.991164 
L 91.259107 122.792041 
L 95.244821 128.203461 
L 99.230536 133.233438 
L 103.21625 137.894494 
L 107.201964 142.202591 
L 111.187679 146.176151 
L 115.173393 149.835185 
L 119.159107 153.200551 
L 123.144821 156.293347 
L 127.130536 159.134424 
L 131.11625 161.744022 
L 135.101964 164.141501 
L 139.087679 166.345165 
L 143.073393 168.372145 
L 147.059107 170.238349 
L 151.044821 171.958451 
L 155.030536 173.545904 
L 159.01625 175.012994 
L 163.001964 176.370891 
L 166.987679 177.629723 
L 170.973393 178.798649 
L 174.959107 179.885932 
L 178.944821 180.899023 
L 182.930536 181.844627 
L 186.91625 182.728775 
L 190.901964 183.55689 
L 194.887679 184.333849 
L 198.873393 185.064037 
L 202.859107 185.751396 
L 206.844821 186.399477 
L 210.830536 187.011477 
" style="fill:none;stroke:#000000;stroke-linecap:square;"/>
   </g>
   <g id="line2d_93">
    <path clip-path="url(#p2987def16d)" d="M 47.41625 40.809415 
L 51.401964 49.363768 
L 55.387679 57.853663 
L 59.373393 66.213626 
L 63.359107 74.3841 
L 67.344821 82.311599 
L 71.330536 89.950086 
L 75.31625 97.261869 
L 79.301964 104.218035 
L 83.287679 110.798414 
L 87.273393 116.991164 
L 91.259107 122.792041 
L 95.244821 128.203461 
L 99.230536 133.233438 
L 103.21625 137.894494 
L 107.201964 142.202591 
L 111.187679 146.176151 
L 115.173393 149.835185 
L 119.159107 153.200551 
L 123.144821 156.293347 
L 127.130536 159.134424 
L 131.11625 161.744022 
L 135.101964 164.141501 
L 139.087679 166.345165 
L 143.073393 168.372145 
L 147.059107 170.238349 
L 151.044821 171.958451 
L 155.030536 173.545904 
L 159.01625 175.012994 
L 163.001964 176.370891 
L 166.987679 177.629723 
L 170.973393 178.798649 
L 174.959107 179.885932 
L 178.944821 180.899023 
L 182.930536 181.844627 
L 186.91625 182.728775 
L 190.901964 183.55689 
L 194.887679 184.333849 
L 198.873393 185.064037 
L 202.859107 185.751396 
L 206.844821 186.399477 
L 210.830536 187.011477 
L 214.81625 187.590278 
" style="fill:none;stroke:#000000;stroke-linecap:square;"/>
   </g>
   <g id="line2d_94">
    <path clip-path="url(#p2987def16d)" d="M 47.41625 40.809415 
L 51.401964 49.363768 
L 55.387679 57.853663 
L 59.373393 66.213626 
L 63.359107 74.3841 
L 67.344821 82.311599 
L 71.330536 89.950086 
L 75.31625 97.261869 
L 79.301964 104.218035 
L 83.287679 110.798414 
L 87.273393 116.991164 
L 91.259107 122.792041 
L 95.244821 128.203461 
L 99.230536 133.233438 
L 103.21625 137.894494 
L 107.201964 142.202591 
L 111.187679 146.176151 
L 115.173393 149.835185 
L 119.159107 153.200551 
L 123.144821 156.293347 
L 127.130536 159.134424 
L 131.11625 161.744022 
L 135.101964 164.141501 
L 139.087679 166.345165 
L 143.073393 168.372145 
L 147.059107 170.238349 
L 151.044821 171.958451 
L 155.030536 173.545904 
L 159.01625 175.012994 
L 163.001964 176.370891 
L 166.987679 177.629723 
L 170.973393 178.798649 
L 174.959107 179.885932 
L 178.944821 180.899023 
L 182.930536 181.844627 
L 186.91625 182.728775 
L 190.901964 183.55689 
L 194.887679 184.333849 
L 198.873393 185.064037 
L 202.859107 185.751396 
L 206.844821 186.399477 
L 210.830536 187.011477 
L 214.81625 187.590278 
L 218.801964 188.138481 
" style="fill:none;stroke:#000000;stroke-linecap:square;"/>
   </g>
   <g id="line2d_95">
    <path clip-path="url(#p2987def16d)" d="M 47.41625 40.809415 
L 51.401964 49.363768 
L 55.387679 57.853663 
L 59.373393 66.213626 
L 63.359107 74.3841 
L 67.344821 82.311599 
L 71.330536 89.950086 
L 75.31625 97.261869 
L 79.301964 104.218035 
L 83.287679 110.798414 
L 87.273393 116.991164 
L 91.259107 122.792041 
L 95.244821 128.203461 
L 99.230536 133.233438 
L 103.21625 137.894494 
L 107.201964 142.202591 
L 111.187679 146.176151 
L 115.173393 149.835185 
L 119.159107 153.200551 
L 123.144821 156.293347 
L 127.130536 159.134424 
L 131.11625 161.744022 
L 135.101964 164.141501 
L 139.087679 166.345165 
L 143.073393 168.372145 
L 147.059107 170.238349 
L 151.044821 171.958451 
L 155.030536 173.545904 
L 159.01625 175.012994 
L 163.001964 176.370891 
L 166.987679 177.629723 
L 170.973393 178.798649 
L 174.959107 179.885932 
L 178.944821 180.899023 
L 182.930536 181.844627 
L 186.91625 182.728775 
L 190.901964 183.55689 
L 194.887679 184.333849 
L 198.873393 185.064037 
L 202.859107 185.751396 
L 206.844821 186.399477 
L 210.830536 187.011477 
L 214.81625 187.590278 
L 218.801964 188.138481 
L 222.787679 188.658436 
" style="fill:none;stroke:#000000;stroke-linecap:square;"/>
   </g>
   <g id="line2d_96">
    <path clip-path="url(#p2987def16d)" d="M 47.41625 40.809415 
L 51.401964 49.363768 
L 55.387679 57.853663 
L 59.373393 66.213626 
L 63.359107 74.3841 
L 67.344821 82.311599 
L 71.330536 89.950086 
L 75.31625 97.261869 
L 79.301964 104.218035 
L 83.287679 110.798414 
L 87.273393 116.991164 
L 91.259107 122.792041 
L 95.244821 128.203461 
L 99.230536 133.233438 
L 103.21625 137.894494 
L 107.201964 142.202591 
L 111.187679 146.176151 
L 115.173393 149.835185 
L 119.159107 153.200551 
L 123.144821 156.293347 
L 127.130536 159.134424 
L 131.11625 161.744022 
L 135.101964 164.141501 
L 139.087679 166.345165 
L 143.073393 168.372145 
L 147.059107 170.238349 
L 151.044821 171.958451 
L 155.030536 173.545904 
L 159.01625 175.012994 
L 163.001964 176.370891 
L 166.987679 177.629723 
L 170.973393 178.798649 
L 174.959107 179.885932 
L 178.944821 180.899023 
L 182.930536 181.844627 
L 186.91625 182.728775 
L 190.901964 183.55689 
L 194.887679 184.333849 
L 198.873393 185.064037 
L 202.859107 185.751396 
L 206.844821 186.399477 
L 210.830536 187.011477 
L 214.81625 187.590278 
L 218.801964 188.138481 
L 222.787679 188.658436 
L 226.773393 189.152269 
" style="fill:none;stroke:#000000;stroke-linecap:square;"/>
   </g>
   <g id="line2d_97">
    <path clip-path="url(#p2987def16d)" d="M 47.41625 40.809415 
L 51.401964 49.363768 
L 55.387679 57.853663 
L 59.373393 66.213626 
L 63.359107 74.3841 
L 67.344821 82.311599 
L 71.330536 89.950086 
L 75.31625 97.261869 
L 79.301964 104.218035 
L 83.287679 110.798414 
L 87.273393 116.991164 
L 91.259107 122.792041 
L 95.244821 128.203461 
L 99.230536 133.233438 
L 103.21625 137.894494 
L 107.201964 142.202591 
L 111.187679 146.176151 
L 115.173393 149.835185 
L 119.159107 153.200551 
L 123.144821 156.293347 
L 127.130536 159.134424 
L 131.11625 161.744022 
L 135.101964 164.141501 
L 139.087679 166.345165 
L 143.073393 168.372145 
L 147.059107 170.238349 
L 151.044821 171.958451 
L 155.030536 173.545904 
L 159.01625 175.012994 
L 163.001964 176.370891 
L 166.987679 177.629723 
L 170.973393 178.798649 
L 174.959107 179.885932 
L 178.944821 180.899023 
L 182.930536 181.844627 
L 186.91625 182.728775 
L 190.901964 183.55689 
L 194.887679 184.333849 
L 198.873393 185.064037 
L 202.859107 185.751396 
L 206.844821 186.399477 
L 210.830536 187.011477 
L 214.81625 187.590278 
L 218.801964 188.138481 
L 222.787679 188.658436 
L 226.773393 189.152269 
L 230.759107 189.621904 
" style="fill:none;stroke:#000000;stroke-linecap:square;"/>
   </g>
   <g id="line2d_98">
    <path clip-path="url(#p2987def16d)" d="M 47.41625 40.809415 
L 51.401964 49.363768 
L 55.387679 57.853663 
L 59.373393 66.213626 
L 63.359107 74.3841 
L 67.344821 82.311599 
L 71.330536 89.950086 
L 75.31625 97.261869 
L 79.301964 104.218035 
L 83.287679 110.798414 
L 87.273393 116.991164 
L 91.259107 122.792041 
L 95.244821 128.203461 
L 99.230536 133.233438 
L 103.21625 137.894494 
L 107.201964 142.202591 
L 111.187679 146.176151 
L 115.173393 149.835185 
L 119.159107 153.200551 
L 123.144821 156.293347 
L 127.130536 159.134424 
L 131.11625 161.744022 
L 135.101964 164.141501 
L 139.087679 166.345165 
L 143.073393 168.372145 
L 147.059107 170.238349 
L 151.044821 171.958451 
L 155.030536 173.545904 
L 159.01625 175.012994 
L 163.001964 176.370891 
L 166.987679 177.629723 
L 170.973393 178.798649 
L 174.959107 179.885932 
L 178.944821 180.899023 
L 182.930536 181.844627 
L 186.91625 182.728775 
L 190.901964 183.55689 
L 194.887679 184.333849 
L 198.873393 185.064037 
L 202.859107 185.751396 
L 206.844821 186.399477 
L 210.830536 187.011477 
L 214.81625 187.590278 
L 218.801964 188.138481 
L 222.787679 188.658436 
L 226.773393 189.152269 
L 230.759107 189.621904 
L 234.744821 190.06909 
" style="fill:none;stroke:#000000;stroke-linecap:square;"/>
   </g>
   <g id="line2d_99">
    <path clip-path="url(#p2987def16d)" d="M 47.41625 40.809415 
L 51.401964 49.363768 
L 55.387679 57.853663 
L 59.373393 66.213626 
L 63.359107 74.3841 
L 67.344821 82.311599 
L 71.330536 89.950086 
L 75.31625 97.261869 
L 79.301964 104.218035 
L 83.287679 110.798414 
L 87.273393 116.991164 
L 91.259107 122.792041 
L 95.244821 128.203461 
L 99.230536 133.233438 
L 103.21625 137.894494 
L 107.201964 142.202591 
L 111.187679 146.176151 
L 115.173393 149.835185 
L 119.159107 153.200551 
L 123.144821 156.293347 
L 127.130536 159.134424 
L 131.11625 161.744022 
L 135.101964 164.141501 
L 139.087679 166.345165 
L 143.073393 168.372145 
L 147.059107 170.238349 
L 151.044821 171.958451 
L 155.030536 173.545904 
L 159.01625 175.012994 
L 163.001964 176.370891 
L 166.987679 177.629723 
L 170.973393 178.798649 
L 174.959107 179.885932 
L 178.944821 180.899023 
L 182.930536 181.844627 
L 186.91625 182.728775 
L 190.901964 183.55689 
L 194.887679 184.333849 
L 198.873393 185.064037 
L 202.859107 185.751396 
L 206.844821 186.399477 
L 210.830536 187.011477 
L 214.81625 187.590278 
L 218.801964 188.138481 
L 222.787679 188.658436 
L 226.773393 189.152269 
L 230.759107 189.621904 
L 234.744821 190.06909 
L 238.730536 190.495411 
" style="fill:none;stroke:#000000;stroke-linecap:square;"/>
   </g>
   <g id="line2d_100">
    <path clip-path="url(#p2987def16d)" d="M 47.41625 40.809415 
L 51.401964 49.363768 
L 55.387679 57.853663 
L 59.373393 66.213626 
L 63.359107 74.3841 
L 67.344821 82.311599 
L 71.330536 89.950086 
L 75.31625 97.261869 
L 79.301964 104.218035 
L 83.287679 110.798414 
L 87.273393 116.991164 
L 91.259107 122.792041 
L 95.244821 128.203461 
L 99.230536 133.233438 
L 103.21625 137.894494 
L 107.201964 142.202591 
L 111.187679 146.176151 
L 115.173393 149.835185 
L 119.159107 153.200551 
L 123.144821 156.293347 
L 127.130536 159.134424 
L 131.11625 161.744022 
L 135.101964 164.141501 
L 139.087679 166.345165 
L 143.073393 168.372145 
L 147.059107 170.238349 
L 151.044821 171.958451 
L 155.030536 173.545904 
L 159.01625 175.012994 
L 163.001964 176.370891 
L 166.987679 177.629723 
L 170.973393 178.798649 
L 174.959107 179.885932 
L 178.944821 180.899023 
L 182.930536 181.844627 
L 186.91625 182.728775 
L 190.901964 183.55689 
L 194.887679 184.333849 
L 198.873393 185.064037 
L 202.859107 185.751396 
L 206.844821 186.399477 
L 210.830536 187.011477 
L 214.81625 187.590278 
L 218.801964 188.138481 
L 222.787679 188.658436 
L 226.773393 189.152269 
L 230.759107 189.621904 
L 234.744821 190.06909 
L 238.730536 190.495411 
L 242.71625 190.902311 
" style="fill:none;stroke:#000000;stroke-linecap:square;"/>
   </g>
   <g id="patch_3">
    <path d="M 47.41625 7.2 
L 242.71625 7.2 
" style="fill:none;"/>
   </g>
   <g id="patch_4">
    <path d="M 242.71625 208.8 
L 242.71625 7.2 
" style="fill:none;"/>
   </g>
   <g id="patch_5">
    <path d="M 47.41625 218.8 
L 242.71625 218.8 
" style="fill:none;stroke:#000000;stroke-linecap:square;stroke-linejoin:miter;stroke-width:0.75;"/>
   </g>
   <g id="patch_6">
    <path d="M 37.41625 208.8 
L 37.41625 40.8 
" style="fill:none;stroke:#000000;stroke-linecap:square;stroke-linejoin:miter;stroke-width:0.75;"/>
   </g>
   <g id="matplotlib.axis_1">
    <g id="xtick_1">
     <g id="line2d_101">
      <defs>
       <path d="M 0 0 
L 0 -4 
" id="mc2ad4e860c" style="stroke:#000000;stroke-width:0.75;"/>
      </defs>
      <g>
       <use style="stroke:#000000;stroke-width:0.75;" x="47.41625" xlink:href="#mc2ad4e860c" y="218.8"/>
      </g>
     </g>
     <g id="text_1">
      <text style="font-family:Arial;font-size:10.0px;font-style:normal;font-weight:400;text-anchor:middle;" transform="rotate(-0.000000, 47.416250, 229.957813)" x="47.41625" y="229.9578125">0</text>
     </g>
    </g>
    <g id="xtick_2">
     <g id="line2d_102">
      <g>
       <use style="stroke:#000000;stroke-width:0.75;" x="112.51625" xlink:href="#mc2ad4e860c" y="218.8"/>
      </g>
     </g>
     <g id="text_2">
      <text style="font-family:Arial;font-size:10.0px;font-style:normal;font-weight:400;text-anchor:middle;" transform="rotate(-0.000000, 112.516250, 229.957813)" x="112.51625" y="229.9578125">1</text>
     </g>
    </g>
    <g id="xtick_3">
     <g id="line2d_103">
      <g>
       <use style="stroke:#000000;stroke-width:0.75;" x="177.61625" xlink:href="#mc2ad4e860c" y="218.8"/>
      </g>
     </g>
     <g id="text_3">
      <text style="font-family:Arial;font-size:10.0px;font-style:normal;font-weight:400;text-anchor:middle;" transform="rotate(-0.000000, 177.616250, 229.957813)" x="177.61625" y="229.9578125">2</text>
     </g>
    </g>
    <g id="xtick_4">
     <g id="line2d_104">
      <g>
       <use style="stroke:#000000;stroke-width:0.75;" x="242.71625" xlink:href="#mc2ad4e860c" y="218.8"/>
      </g>
     </g>
     <g id="text_4">
      <text style="font-family:Arial;font-size:10.0px;font-style:normal;font-weight:400;text-anchor:middle;" transform="rotate(-0.000000, 242.716250, 229.957813)" x="242.71625" y="229.9578125">3</text>
     </g>
    </g>
    <g id="text_5">
     <text style="font-family:Arial;font-size:8.0px;font-style:normal;font-weight:400;text-anchor:middle;" transform="rotate(-0.000000, 145.066250, 242.695313)" x="145.06625" y="242.6953125">windspeed, m s-1</text>
    </g>
   </g>
   <g id="matplotlib.axis_2">
    <g id="ytick_1">
     <g id="line2d_105">
      <defs>
       <path d="M 0 0 
L 4 0 
" id="m918de8b7fd" style="stroke:#000000;stroke-width:0.75;"/>
      </defs>
      <g>
       <use style="stroke:#000000;stroke-width:0.75;" x="37.41625" xlink:href="#m918de8b7fd" y="208.8"/>
      </g>
     </g>
     <g id="text_6">
      <text style="font-family:Arial;font-size:10.0px;font-style:normal;font-weight:400;text-anchor:end;" transform="rotate(-0.000000, 33.416250, 211.385156)" x="33.41625" y="211.38515625">0.0</text>
     </g>
    </g>
    <g id="ytick_2">
     <g id="line2d_106">
      <g>
       <use style="stroke:#000000;stroke-width:0.75;" x="37.41625" xlink:href="#m918de8b7fd" y="124.8"/>
      </g>
     </g>
     <g id="text_7">
      <text style="font-family:Arial;font-size:10.0px;font-style:normal;font-weight:400;text-anchor:end;" transform="rotate(-0.000000, 33.416250, 127.385156)" x="33.41625" y="127.38515625">0.5</text>
     </g>
    </g>
    <g id="ytick_3">
     <g id="line2d_107">
      <g>
       <use style="stroke:#000000;stroke-width:0.75;" x="37.41625" xlink:href="#m918de8b7fd" y="40.8"/>
      </g>
     </g>
     <g id="text_8">
      <text style="font-family:Arial;font-size:10.0px;font-style:normal;font-weight:400;text-anchor:end;" transform="rotate(-0.000000, 33.416250, 43.385156)" x="33.41625" y="43.38515625">1.0</text>
     </g>
    </g>
    <g id="text_9">
     <text style="font-family:Arial;font-size:8.0px;font-style:normal;font-weight:400;text-anchor:middle;" transform="rotate(-90.000000, 12.926250, 108.000000)" x="12.92625" y="108.0">circular variance</text>
    </g>
   </g>
  </g>
 </g>
 <defs>
  <clipPath id="p2987def16d">
   <rect height="201.6" width="195.3" x="47.41625" y="7.2"/>
  </clipPath>
 </defs>
</svg>
