<?xml version="1.0" encoding="utf-8" standalone="no"?>
<!DOCTYPE svg PUBLIC "-//W3C//DTD SVG 1.1//EN"
  "http://www.w3.org/Graphics/SVG/1.1/DTD/svg11.dtd">
<!-- Created with matplotlib (http://matplotlib.org/) -->
<svg height="144pt" version="1.1" viewBox="0 0 108 144" width="108pt" xmlns="http://www.w3.org/2000/svg" xmlns:xlink="http://www.w3.org/1999/xlink">
 <defs>
  <style type="text/css">
*{stroke-linecap:butt;stroke-linejoin:round;stroke-miterlimit:100000;}
  </style>
 </defs>
 <g id="figure_1">
  <g id="patch_1">
   <path d="M 0 144 
L 108 144 
L 108 0 
L 0 0 
z
" style="fill:#ffffff;"/>
  </g>
  <g id="axes_1">
   <g id="patch_2">
    <path d="M 13.5 39.443478 
L 31.695652 39.443478 
L 31.695652 14.4 
L 13.5 14.4 
z
" style="fill:#ffffff;"/>
   </g>
   <g id="patch_3">
    <path clip-path="url(#p853605413a)" d="M 20.645122 39.443478 
L 20.645122 39.305739 
L 20.9114 39.305739 
L 20.9114 37.346087 
L 21.177678 37.346087 
L 21.177678 30.252522 
L 21.443955 30.252522 
L 21.443955 21.343304 
L 21.710233 21.343304 
L 21.710233 20.848696 
L 21.976511 20.848696 
L 21.976511 29.288348 
L 22.242789 29.288348 
L 22.242789 35.987478 
L 22.509067 35.987478 
L 22.509067 38.629565 
L 22.775345 38.629565 
L 22.775345 39.38713 
L 23.041622 39.38713 
L 23.041622 39.437217 
L 23.3079 39.437217 
L 23.3079 39.443478 
" style="fill:none;stroke:#000000;stroke-linejoin:miter;"/>
   </g>
   <g id="patch_4">
    <path clip-path="url(#p853605413a)" d="M 20.600742 39.443478 
L 20.600742 38.278957 
L 20.86702 38.278957 
L 20.86702 28.706087 
L 21.133298 28.706087 
L 21.133298 16.178087 
L 21.399576 16.178087 
L 21.399576 19.94087 
L 21.665854 19.94087 
L 21.665854 32.650435 
L 21.932131 32.650435 
L 21.932131 38.391652 
L 22.198409 38.391652 
L 22.198409 39.355826 
L 22.464687 39.355826 
L 22.464687 39.437217 
L 22.730965 39.437217 
L 22.730965 39.443478 
" style="fill:none;stroke:#808080;stroke-linejoin:miter;"/>
   </g>
   <g id="patch_5">
    <path d="M 13.5 14.4 
L 31.695652 14.4 
" style="fill:none;"/>
   </g>
   <g id="patch_6">
    <path d="M 31.695652 39.443478 
L 31.695652 14.4 
" style="fill:none;"/>
   </g>
   <g id="patch_7">
    <path d="M 13.5 49.443478 
L 31.695652 49.443478 
" style="fill:none;stroke:#000000;stroke-linecap:square;stroke-linejoin:miter;stroke-width:0.75;"/>
   </g>
   <g id="patch_8">
    <path d="M 13.5 39.443478 
L 13.5 14.4 
" style="fill:none;"/>
   </g>
   <g id="matplotlib.axis_1">
    <g id="xtick_1">
     <g id="line2d_1">
      <defs>
       <path d="M 0 0 
L 0 -4 
" id="ma450e56a7c" style="stroke:#000000;stroke-width:0.75;"/>
      </defs>
      <g>
       <use style="stroke:#000000;stroke-width:0.75;" x="14.8313891835" xlink:href="#ma450e56a7c" y="49.4434782609"/>
      </g>
     </g>
     <g id="text_1">
      <text style="font-family:Arial;font-size:9.0px;font-style:normal;font-weight:400;text-anchor:middle;" transform="rotate(-0.000000, 14.831389, 59.885510)" x="14.8313891835" y="59.8855095109">−600</text>
     </g>
    </g>
    <g id="xtick_2">
     <g id="line2d_2">
      <g>
       <use style="stroke:#000000;stroke-width:0.75;" x="20.1569459173" xlink:href="#ma450e56a7c" y="49.4434782609"/>
      </g>
     </g>
     <g id="text_2">
      <text style="font-family:Arial;font-size:9.0px;font-style:normal;font-weight:400;text-anchor:middle;" transform="rotate(-0.000000, 20.156946, 59.885510)" x="20.1569459173" y="59.8855095109">0</text>
     </g>
    </g>
    <g id="xtick_3">
     <g id="line2d_3">
      <g>
       <use style="stroke:#000000;stroke-width:0.75;" x="25.4825026511" xlink:href="#ma450e56a7c" y="49.4434782609"/>
      </g>
     </g>
     <g id="text_3">
      <text style="font-family:Arial;font-size:9.0px;font-style:normal;font-weight:400;text-anchor:middle;" transform="rotate(-0.000000, 25.482503, 59.885510)" x="25.4825026511" y="59.8855095109">600</text>
     </g>
    </g>
    <g id="xtick_4">
     <g id="line2d_4">
      <g>
       <use style="stroke:#000000;stroke-width:0.75;" x="30.8080593849" xlink:href="#ma450e56a7c" y="49.4434782609"/>
      </g>
     </g>
     <g id="text_4">
      <text style="font-family:Arial;font-size:9.0px;font-style:normal;font-weight:400;text-anchor:middle;" transform="rotate(-0.000000, 30.808059, 59.885510)" x="30.8080593849" y="59.8855095109">1200</text>
     </g>
    </g>
   </g>
   <g id="matplotlib.axis_2"/>
   <g id="text_5">
    <text style="font-family:Arial;font-size:9.0px;font-style:normal;font-weight:400;text-anchor:start;" transform="rotate(-0.000000, 27.257688, 20.660870)" x="27.2576882291" y="20.6608695652">ln (L1/L2)</text>
   </g>
  </g>
  <g id="axes_2">
   <g id="patch_9">
    <path d="M 35.334783 39.443478 
L 53.530435 39.443478 
L 53.530435 14.4 
L 35.334783 14.4 
z
" style="fill:#ffffff;"/>
   </g>
   <g id="patch_10">
    <path clip-path="url(#p6f7e7a19b5)" d="M 42.311262 39.443478 
L 42.311262 38.297739 
L 42.57754 38.297739 
L 42.57754 25.838609 
L 42.843818 25.838609 
L 42.843818 10.267826 
L 43.110095 10.267826 
L 43.110095 23.578435 
L 43.376373 23.578435 
L 43.376373 36.751304 
L 43.642651 36.751304 
L 43.642651 39.318261 
L 43.908929 39.318261 
L 43.908929 39.443478 
" style="fill:none;stroke:#000000;stroke-linejoin:miter;"/>
   </g>
   <g id="patch_11">
    <path clip-path="url(#p6f7e7a19b5)" d="M 42.151495 39.443478 
L 42.151495 38.416696 
L 42.417773 38.416696 
L 42.417773 18.50087 
L 42.684051 18.50087 
L 42.684051 6.392348 
L 42.950329 6.392348 
L 42.950329 32.274783 
L 43.216607 32.274783 
L 43.216607 39.024 
L 43.482884 39.024 
L 43.482884 39.443478 
" style="fill:none;stroke:#808080;stroke-linejoin:miter;"/>
   </g>
   <g id="patch_12">
    <path d="M 35.334783 14.4 
L 53.530435 14.4 
" style="fill:none;"/>
   </g>
   <g id="patch_13">
    <path d="M 53.530435 39.443478 
L 53.530435 14.4 
" style="fill:none;"/>
   </g>
   <g id="patch_14">
    <path d="M 35.334783 49.443478 
L 53.530435 49.443478 
" style="fill:none;stroke:#000000;stroke-linecap:square;stroke-linejoin:miter;stroke-width:0.75;"/>
   </g>
   <g id="patch_15">
    <path d="M 35.334783 39.443478 
L 35.334783 14.4 
" style="fill:none;"/>
   </g>
   <g id="matplotlib.axis_3">
    <g id="xtick_5">
     <g id="line2d_5">
      <g>
       <use style="stroke:#000000;stroke-width:0.75;" x="36.6661717922" xlink:href="#ma450e56a7c" y="49.4434782609"/>
      </g>
     </g>
     <g id="text_6">
      <text style="font-family:Arial;font-size:9.0px;font-style:normal;font-weight:400;text-anchor:middle;" transform="rotate(-0.000000, 36.666172, 59.885510)" x="36.6661717922" y="59.8855095109">−600</text>
     </g>
    </g>
    <g id="xtick_6">
     <g id="line2d_6">
      <g>
       <use style="stroke:#000000;stroke-width:0.75;" x="41.991728526" xlink:href="#ma450e56a7c" y="49.4434782609"/>
      </g>
     </g>
     <g id="text_7">
      <text style="font-family:Arial;font-size:9.0px;font-style:normal;font-weight:400;text-anchor:middle;" transform="rotate(-0.000000, 41.991729, 59.885510)" x="41.991728526" y="59.8855095109">0</text>
     </g>
    </g>
    <g id="xtick_7">
     <g id="line2d_7">
      <g>
       <use style="stroke:#000000;stroke-width:0.75;" x="47.3172852598" xlink:href="#ma450e56a7c" y="49.4434782609"/>
      </g>
     </g>
     <g id="text_8">
      <text style="font-family:Arial;font-size:9.0px;font-style:normal;font-weight:400;text-anchor:middle;" transform="rotate(-0.000000, 47.317285, 59.885510)" x="47.3172852598" y="59.8855095109">600</text>
     </g>
    </g>
    <g id="xtick_8">
     <g id="line2d_8">
      <g>
       <use style="stroke:#000000;stroke-width:0.75;" x="52.6428419936" xlink:href="#ma450e56a7c" y="49.4434782609"/>
      </g>
     </g>
     <g id="text_9">
      <text style="font-family:Arial;font-size:9.0px;font-style:normal;font-weight:400;text-anchor:middle;" transform="rotate(-0.000000, 52.642842, 59.885510)" x="52.6428419936" y="59.8855095109">1200</text>
     </g>
    </g>
   </g>
   <g id="matplotlib.axis_4"/>
   <g id="text_10">
    <text style="font-family:Arial;font-size:9.0px;font-style:normal;font-weight:400;text-anchor:start;" transform="rotate(-0.000000, 49.092471, 20.660870)" x="49.0924708378" y="20.6608695652">ln (L1/L3)</text>
   </g>
  </g>
  <g id="axes_3">
   <g id="patch_16">
    <path d="M 57.169565 39.443478 
L 75.365217 39.443478 
L 75.365217 14.4 
L 57.169565 14.4 
z
" style="fill:#ffffff;"/>
   </g>
   <g id="patch_17">
    <path clip-path="url(#pa16623a344)" d="M 63.986278 39.443478 
L 63.986278 36.970435 
L 64.252556 36.970435 
L 64.252556 4.176 
L 64.518834 4.176 
L 64.518834 16.071652 
L 64.785111 16.071652 
L 64.785111 37.965913 
L 65.051389 37.965913 
L 65.051389 39.424696 
L 65.317667 39.424696 
L 65.317667 39.443478 
" style="fill:none;stroke:#000000;stroke-linejoin:miter;"/>
   </g>
   <g id="patch_18">
    <path clip-path="url(#pa16623a344)" d="M 63.95965 39.443478 
L 63.95965 27.103304 
L 64.225928 27.103304 
L 64.225928 -1 
M 64.492206 -1 
L 64.492206 34.791652 
L 64.758484 34.791652 
L 64.758484 39.424696 
L 65.024761 39.424696 
L 65.024761 39.443478 
" style="fill:none;stroke:#808080;stroke-linejoin:miter;"/>
   </g>
   <g id="patch_19">
    <path d="M 57.169565 14.4 
L 75.365217 14.4 
" style="fill:none;"/>
   </g>
   <g id="patch_20">
    <path d="M 75.365217 39.443478 
L 75.365217 14.4 
" style="fill:none;"/>
   </g>
   <g id="patch_21">
    <path d="M 57.169565 49.443478 
L 75.365217 49.443478 
" style="fill:none;stroke:#000000;stroke-linecap:square;stroke-linejoin:miter;stroke-width:0.75;"/>
   </g>
   <g id="patch_22">
    <path d="M 57.169565 39.443478 
L 57.169565 14.4 
" style="fill:none;"/>
   </g>
   <g id="matplotlib.axis_5">
    <g id="xtick_9">
     <g id="line2d_9">
      <g>
       <use style="stroke:#000000;stroke-width:0.75;" x="58.5009544008" xlink:href="#ma450e56a7c" y="49.4434782609"/>
      </g>
     </g>
     <g id="text_11">
      <text style="font-family:Arial;font-size:9.0px;font-style:normal;font-weight:400;text-anchor:middle;" transform="rotate(-0.000000, 58.500954, 59.885510)" x="58.5009544008" y="59.8855095109">−600</text>
     </g>
    </g>
    <g id="xtick_10">
     <g id="line2d_10">
      <g>
       <use style="stroke:#000000;stroke-width:0.75;" x="63.8265111347" xlink:href="#ma450e56a7c" y="49.4434782609"/>
      </g>
     </g>
     <g id="text_12">
      <text style="font-family:Arial;font-size:9.0px;font-style:normal;font-weight:400;text-anchor:middle;" transform="rotate(-0.000000, 63.826511, 59.885510)" x="63.8265111347" y="59.8855095109">0</text>
     </g>
    </g>
    <g id="xtick_11">
     <g id="line2d_11">
      <g>
       <use style="stroke:#000000;stroke-width:0.75;" x="69.1520678685" xlink:href="#ma450e56a7c" y="49.4434782609"/>
      </g>
     </g>
     <g id="text_13">
      <text style="font-family:Arial;font-size:9.0px;font-style:normal;font-weight:400;text-anchor:middle;" transform="rotate(-0.000000, 69.152068, 59.885510)" x="69.1520678685" y="59.8855095109">600</text>
     </g>
    </g>
    <g id="xtick_12">
     <g id="line2d_12">
      <g>
       <use style="stroke:#000000;stroke-width:0.75;" x="74.4776246023" xlink:href="#ma450e56a7c" y="49.4434782609"/>
      </g>
     </g>
     <g id="text_14">
      <text style="font-family:Arial;font-size:9.0px;font-style:normal;font-weight:400;text-anchor:middle;" transform="rotate(-0.000000, 74.477625, 59.885510)" x="74.4776246023" y="59.8855095109">1200</text>
     </g>
    </g>
   </g>
   <g id="matplotlib.axis_6"/>
   <g id="text_15">
    <text style="font-family:Arial;font-size:9.0px;font-style:normal;font-weight:400;text-anchor:start;" transform="rotate(-0.000000, 70.927253, 20.660870)" x="70.9272534464" y="20.6608695652">ln (L1/L4)</text>
   </g>
  </g>
  <g id="axes_4">
   <g id="patch_23">
    <path d="M 79.004348 39.443478 
L 97.2 39.443478 
L 97.2 14.4 
L 79.004348 14.4 
z
" style="fill:#ffffff;"/>
   </g>
   <g id="patch_24">
    <path clip-path="url(#p87aa4ed314)" d="M 85.794433 39.443478 
L 85.794433 15.808696 
L 86.06071 15.808696 
L 86.06071 1.026783 
L 86.326988 1.026783 
L 86.326988 38.886261 
L 86.593266 38.886261 
L 86.593266 39.443478 
" style="fill:none;stroke:#000000;stroke-linejoin:miter;"/>
   </g>
   <g id="patch_25">
    <path clip-path="url(#p87aa4ed314)" d="M 85.741177 39.443478 
L 85.741177 -0.175304 
L 86.007455 -0.175304 
L 86.007455 16.453565 
L 86.273733 16.453565 
L 86.273733 39.443478 
" style="fill:none;stroke:#808080;stroke-linejoin:miter;"/>
   </g>
   <g id="patch_26">
    <path d="M 79.004348 14.4 
L 97.2 14.4 
" style="fill:none;"/>
   </g>
   <g id="patch_27">
    <path d="M 97.2 39.443478 
L 97.2 14.4 
" style="fill:none;"/>
   </g>
   <g id="patch_28">
    <path d="M 79.004348 49.443478 
L 97.2 49.443478 
" style="fill:none;stroke:#000000;stroke-linecap:square;stroke-linejoin:miter;stroke-width:0.75;"/>
   </g>
   <g id="patch_29">
    <path d="M 79.004348 39.443478 
L 79.004348 14.4 
" style="fill:none;"/>
   </g>
   <g id="matplotlib.axis_7">
    <g id="xtick_13">
     <g id="line2d_13">
      <g>
       <use style="stroke:#000000;stroke-width:0.75;" x="80.3357370095" xlink:href="#ma450e56a7c" y="49.4434782609"/>
      </g>
     </g>
     <g id="text_16">
      <text style="font-family:Arial;font-size:9.0px;font-style:normal;font-weight:400;text-anchor:middle;" transform="rotate(-0.000000, 80.335737, 59.885510)" x="80.3357370095" y="59.8855095109">−600</text>
     </g>
    </g>
    <g id="xtick_14">
     <g id="line2d_14">
      <g>
       <use style="stroke:#000000;stroke-width:0.75;" x="85.6612937434" xlink:href="#ma450e56a7c" y="49.4434782609"/>
      </g>
     </g>
     <g id="text_17">
      <text style="font-family:Arial;font-size:9.0px;font-style:normal;font-weight:400;text-anchor:middle;" transform="rotate(-0.000000, 85.661294, 59.885510)" x="85.6612937434" y="59.8855095109">0</text>
     </g>
    </g>
    <g id="xtick_15">
     <g id="line2d_15">
      <g>
       <use style="stroke:#000000;stroke-width:0.75;" x="90.9868504772" xlink:href="#ma450e56a7c" y="49.4434782609"/>
      </g>
     </g>
     <g id="text_18">
      <text style="font-family:Arial;font-size:9.0px;font-style:normal;font-weight:400;text-anchor:middle;" transform="rotate(-0.000000, 90.986850, 59.885510)" x="90.9868504772" y="59.8855095109">600</text>
     </g>
    </g>
    <g id="xtick_16">
     <g id="line2d_16">
      <g>
       <use style="stroke:#000000;stroke-width:0.75;" x="96.312407211" xlink:href="#ma450e56a7c" y="49.4434782609"/>
      </g>
     </g>
     <g id="text_19">
      <text style="font-family:Arial;font-size:9.0px;font-style:normal;font-weight:400;text-anchor:middle;" transform="rotate(-0.000000, 96.312407, 59.885510)" x="96.312407211" y="59.8855095109">1200</text>
     </g>
    </g>
   </g>
   <g id="matplotlib.axis_8"/>
   <g id="text_20">
    <text style="font-family:Arial;font-size:9.0px;font-style:normal;font-weight:400;text-anchor:start;" transform="rotate(-0.000000, 92.762036, 20.660870)" x="92.7620360551" y="20.6608695652">ln (L1/L5)</text>
   </g>
  </g>
  <g id="axes_5">
   <g id="patch_30">
    <path d="M 13.5 69.495652 
L 31.695652 69.495652 
L 31.695652 44.452174 
L 13.5 44.452174 
z
" style="fill:#ffffff;"/>
   </g>
   <g id="patch_31">
    <path clip-path="url(#p444bda3f26)" d="M 20.210201 69.495652 
L 20.210201 20.197565 
L 20.476479 20.197565 
L 20.476479 56.185043 
L 20.742757 56.185043 
L 20.742757 69.495652 
" style="fill:none;stroke:#000000;stroke-linejoin:miter;"/>
   </g>
   <g id="patch_32">
    <path clip-path="url(#p444bda3f26)" d="M 20.201326 69.495652 
L 20.201326 8.076522 
L 20.467603 8.076522 
L 20.467603 68.306087 
L 20.733881 68.306087 
L 20.733881 69.495652 
" style="fill:none;stroke:#808080;stroke-linejoin:miter;"/>
   </g>
   <g id="patch_33">
    <path d="M 13.5 44.452174 
L 31.695652 44.452174 
" style="fill:none;"/>
   </g>
   <g id="patch_34">
    <path d="M 31.695652 69.495652 
L 31.695652 44.452174 
" style="fill:none;"/>
   </g>
   <g id="patch_35">
    <path d="M 13.5 79.495652 
L 31.695652 79.495652 
" style="fill:none;stroke:#000000;stroke-linecap:square;stroke-linejoin:miter;stroke-width:0.75;"/>
   </g>
   <g id="patch_36">
    <path d="M 13.5 69.495652 
L 13.5 44.452174 
" style="fill:none;"/>
   </g>
   <g id="matplotlib.axis_9">
    <g id="xtick_17">
     <g id="line2d_17">
      <g>
       <use style="stroke:#000000;stroke-width:0.75;" x="14.8313891835" xlink:href="#ma450e56a7c" y="79.4956521739"/>
      </g>
     </g>
     <g id="text_21">
      <text style="font-family:Arial;font-size:9.0px;font-style:normal;font-weight:400;text-anchor:middle;" transform="rotate(-0.000000, 14.831389, 89.937683)" x="14.8313891835" y="89.9376834239">−600</text>
     </g>
    </g>
    <g id="xtick_18">
     <g id="line2d_18">
      <g>
       <use style="stroke:#000000;stroke-width:0.75;" x="20.1569459173" xlink:href="#ma450e56a7c" y="79.4956521739"/>
      </g>
     </g>
     <g id="text_22">
      <text style="font-family:Arial;font-size:9.0px;font-style:normal;font-weight:400;text-anchor:middle;" transform="rotate(-0.000000, 20.156946, 89.937683)" x="20.1569459173" y="89.9376834239">0</text>
     </g>
    </g>
    <g id="xtick_19">
     <g id="line2d_19">
      <g>
       <use style="stroke:#000000;stroke-width:0.75;" x="25.4825026511" xlink:href="#ma450e56a7c" y="79.4956521739"/>
      </g>
     </g>
     <g id="text_23">
      <text style="font-family:Arial;font-size:9.0px;font-style:normal;font-weight:400;text-anchor:middle;" transform="rotate(-0.000000, 25.482503, 89.937683)" x="25.4825026511" y="89.9376834239">600</text>
     </g>
    </g>
    <g id="xtick_20">
     <g id="line2d_20">
      <g>
       <use style="stroke:#000000;stroke-width:0.75;" x="30.8080593849" xlink:href="#ma450e56a7c" y="79.4956521739"/>
      </g>
     </g>
     <g id="text_24">
      <text style="font-family:Arial;font-size:9.0px;font-style:normal;font-weight:400;text-anchor:middle;" transform="rotate(-0.000000, 30.808059, 89.937683)" x="30.8080593849" y="89.9376834239">1200</text>
     </g>
    </g>
   </g>
   <g id="matplotlib.axis_10"/>
   <g id="text_25">
    <text style="font-family:Arial;font-size:9.0px;font-style:normal;font-weight:400;text-anchor:start;" transform="rotate(-0.000000, 27.257688, 50.713043)" x="27.2576882291" y="50.7130434783">ln (L1/L6)</text>
   </g>
  </g>
  <g id="axes_6">
   <g id="patch_37">
    <path d="M 35.334783 69.495652 
L 53.530435 69.495652 
L 53.530435 44.452174 
L 35.334783 44.452174 
z
" style="fill:#ffffff;"/>
   </g>
   <g id="patch_38">
    <path clip-path="url(#p765375e55b)" d="M 42.027232 69.495652 
L 42.027232 6.899478 
L 42.29351 6.899478 
L 42.29351 69.495652 
" style="fill:none;stroke:#000000;stroke-linejoin:miter;"/>
   </g>
   <g id="patch_39">
    <path clip-path="url(#p765375e55b)" d="M 42.00948 69.495652 
L 42.00948 6.886957 
L 42.275758 6.886957 
L 42.275758 69.495652 
" style="fill:none;stroke:#808080;stroke-linejoin:miter;"/>
   </g>
   <g id="patch_40">
    <path d="M 35.334783 44.452174 
L 53.530435 44.452174 
" style="fill:none;"/>
   </g>
   <g id="patch_41">
    <path d="M 53.530435 69.495652 
L 53.530435 44.452174 
" style="fill:none;"/>
   </g>
   <g id="patch_42">
    <path d="M 35.334783 79.495652 
L 53.530435 79.495652 
" style="fill:none;stroke:#000000;stroke-linecap:square;stroke-linejoin:miter;stroke-width:0.75;"/>
   </g>
   <g id="patch_43">
    <path d="M 35.334783 69.495652 
L 35.334783 44.452174 
" style="fill:none;"/>
   </g>
   <g id="matplotlib.axis_11">
    <g id="xtick_21">
     <g id="line2d_21">
      <g>
       <use style="stroke:#000000;stroke-width:0.75;" x="36.6661717922" xlink:href="#ma450e56a7c" y="79.4956521739"/>
      </g>
     </g>
     <g id="text_26">
      <text style="font-family:Arial;font-size:9.0px;font-style:normal;font-weight:400;text-anchor:middle;" transform="rotate(-0.000000, 36.666172, 89.937683)" x="36.6661717922" y="89.9376834239">−600</text>
     </g>
    </g>
    <g id="xtick_22">
     <g id="line2d_22">
      <g>
       <use style="stroke:#000000;stroke-width:0.75;" x="41.991728526" xlink:href="#ma450e56a7c" y="79.4956521739"/>
      </g>
     </g>
     <g id="text_27">
      <text style="font-family:Arial;font-size:9.0px;font-style:normal;font-weight:400;text-anchor:middle;" transform="rotate(-0.000000, 41.991729, 89.937683)" x="41.991728526" y="89.9376834239">0</text>
     </g>
    </g>
    <g id="xtick_23">
     <g id="line2d_23">
      <g>
       <use style="stroke:#000000;stroke-width:0.75;" x="47.3172852598" xlink:href="#ma450e56a7c" y="79.4956521739"/>
      </g>
     </g>
     <g id="text_28">
      <text style="font-family:Arial;font-size:9.0px;font-style:normal;font-weight:400;text-anchor:middle;" transform="rotate(-0.000000, 47.317285, 89.937683)" x="47.3172852598" y="89.9376834239">600</text>
     </g>
    </g>
    <g id="xtick_24">
     <g id="line2d_24">
      <g>
       <use style="stroke:#000000;stroke-width:0.75;" x="52.6428419936" xlink:href="#ma450e56a7c" y="79.4956521739"/>
      </g>
     </g>
     <g id="text_29">
      <text style="font-family:Arial;font-size:9.0px;font-style:normal;font-weight:400;text-anchor:middle;" transform="rotate(-0.000000, 52.642842, 89.937683)" x="52.6428419936" y="89.9376834239">1200</text>
     </g>
    </g>
   </g>
   <g id="matplotlib.axis_12"/>
   <g id="text_30">
    <text style="font-family:Arial;font-size:9.0px;font-style:normal;font-weight:400;text-anchor:start;" transform="rotate(-0.000000, 49.092471, 50.713043)" x="49.0924708378" y="50.7130434783">ln (L1/L7)</text>
   </g>
  </g>
  <g id="axes_7">
   <g id="patch_44">
    <path d="M 57.169565 69.495652 
L 75.365217 69.495652 
L 75.365217 44.452174 
L 57.169565 44.452174 
z
" style="fill:#ffffff;"/>
   </g>
   <g id="patch_45">
    <path clip-path="url(#p2b01f2c4ab)" d="M 63.844263 69.495652 
L 63.844263 6.886957 
L 64.110541 6.886957 
L 64.110541 69.495652 
" style="fill:none;stroke:#000000;stroke-linejoin:miter;"/>
   </g>
   <g id="patch_46">
    <path clip-path="url(#p2b01f2c4ab)" d="M 63.835387 69.495652 
L 63.835387 6.886957 
L 64.101665 6.886957 
L 64.101665 69.495652 
" style="fill:none;stroke:#808080;stroke-linejoin:miter;"/>
   </g>
   <g id="patch_47">
    <path d="M 57.169565 44.452174 
L 75.365217 44.452174 
" style="fill:none;"/>
   </g>
   <g id="patch_48">
    <path d="M 75.365217 69.495652 
L 75.365217 44.452174 
" style="fill:none;"/>
   </g>
   <g id="patch_49">
    <path d="M 57.169565 79.495652 
L 75.365217 79.495652 
" style="fill:none;stroke:#000000;stroke-linecap:square;stroke-linejoin:miter;stroke-width:0.75;"/>
   </g>
   <g id="patch_50">
    <path d="M 57.169565 69.495652 
L 57.169565 44.452174 
" style="fill:none;"/>
   </g>
   <g id="matplotlib.axis_13">
    <g id="xtick_25">
     <g id="line2d_25">
      <g>
       <use style="stroke:#000000;stroke-width:0.75;" x="58.5009544008" xlink:href="#ma450e56a7c" y="79.4956521739"/>
      </g>
     </g>
     <g id="text_31">
      <text style="font-family:Arial;font-size:9.0px;font-style:normal;font-weight:400;text-anchor:middle;" transform="rotate(-0.000000, 58.500954, 89.937683)" x="58.5009544008" y="89.9376834239">−600</text>
     </g>
    </g>
    <g id="xtick_26">
     <g id="line2d_26">
      <g>
       <use style="stroke:#000000;stroke-width:0.75;" x="63.8265111347" xlink:href="#ma450e56a7c" y="79.4956521739"/>
      </g>
     </g>
     <g id="text_32">
      <text style="font-family:Arial;font-size:9.0px;font-style:normal;font-weight:400;text-anchor:middle;" transform="rotate(-0.000000, 63.826511, 89.937683)" x="63.8265111347" y="89.9376834239">0</text>
     </g>
    </g>
    <g id="xtick_27">
     <g id="line2d_27">
      <g>
       <use style="stroke:#000000;stroke-width:0.75;" x="69.1520678685" xlink:href="#ma450e56a7c" y="79.4956521739"/>
      </g>
     </g>
     <g id="text_33">
      <text style="font-family:Arial;font-size:9.0px;font-style:normal;font-weight:400;text-anchor:middle;" transform="rotate(-0.000000, 69.152068, 89.937683)" x="69.1520678685" y="89.9376834239">600</text>
     </g>
    </g>
    <g id="xtick_28">
     <g id="line2d_28">
      <g>
       <use style="stroke:#000000;stroke-width:0.75;" x="74.4776246023" xlink:href="#ma450e56a7c" y="79.4956521739"/>
      </g>
     </g>
     <g id="text_34">
      <text style="font-family:Arial;font-size:9.0px;font-style:normal;font-weight:400;text-anchor:middle;" transform="rotate(-0.000000, 74.477625, 89.937683)" x="74.4776246023" y="89.9376834239">1200</text>
     </g>
    </g>
   </g>
   <g id="matplotlib.axis_14"/>
   <g id="text_35">
    <text style="font-family:Arial;font-size:9.0px;font-style:normal;font-weight:400;text-anchor:start;" transform="rotate(-0.000000, 70.927253, 50.713043)" x="70.9272534464" y="50.7130434783">ln (L1/L8)</text>
   </g>
  </g>
  <g id="axes_8">
   <g id="patch_51">
    <path d="M 79.004348 69.495652 
L 97.2 69.495652 
L 97.2 44.452174 
L 79.004348 44.452174 
z
" style="fill:#ffffff;"/>
   </g>
   <g id="patch_52">
    <path clip-path="url(#p791c4808e7)" d="M 85.093234 69.495652 
L 85.093234 55.158261 
L 85.359512 55.158261 
L 85.359512 21.268174 
L 85.62579 21.268174 
L 85.62579 69.458087 
L 85.892068 69.458087 
L 85.892068 69.495652 
" style="fill:none;stroke:#000000;stroke-linejoin:miter;"/>
   </g>
   <g id="patch_53">
    <path clip-path="url(#p791c4808e7)" d="M 85.261877 69.495652 
L 85.261877 24.26713 
L 85.528155 24.26713 
L 85.528155 52.121739 
L 85.794433 52.121739 
L 85.794433 69.495652 
" style="fill:none;stroke:#808080;stroke-linejoin:miter;"/>
   </g>
   <g id="patch_54">
    <path d="M 79.004348 44.452174 
L 97.2 44.452174 
" style="fill:none;"/>
   </g>
   <g id="patch_55">
    <path d="M 97.2 69.495652 
L 97.2 44.452174 
" style="fill:none;"/>
   </g>
   <g id="patch_56">
    <path d="M 79.004348 79.495652 
L 97.2 79.495652 
" style="fill:none;stroke:#000000;stroke-linecap:square;stroke-linejoin:miter;stroke-width:0.75;"/>
   </g>
   <g id="patch_57">
    <path d="M 79.004348 69.495652 
L 79.004348 44.452174 
" style="fill:none;"/>
   </g>
   <g id="matplotlib.axis_15">
    <g id="xtick_29">
     <g id="line2d_29">
      <g>
       <use style="stroke:#000000;stroke-width:0.75;" x="80.3357370095" xlink:href="#ma450e56a7c" y="79.4956521739"/>
      </g>
     </g>
     <g id="text_36">
      <text style="font-family:Arial;font-size:9.0px;font-style:normal;font-weight:400;text-anchor:middle;" transform="rotate(-0.000000, 80.335737, 89.937683)" x="80.3357370095" y="89.9376834239">−600</text>
     </g>
    </g>
    <g id="xtick_30">
     <g id="line2d_30">
      <g>
       <use style="stroke:#000000;stroke-width:0.75;" x="85.6612937434" xlink:href="#ma450e56a7c" y="79.4956521739"/>
      </g>
     </g>
     <g id="text_37">
      <text style="font-family:Arial;font-size:9.0px;font-style:normal;font-weight:400;text-anchor:middle;" transform="rotate(-0.000000, 85.661294, 89.937683)" x="85.6612937434" y="89.9376834239">0</text>
     </g>
    </g>
    <g id="xtick_31">
     <g id="line2d_31">
      <g>
       <use style="stroke:#000000;stroke-width:0.75;" x="90.9868504772" xlink:href="#ma450e56a7c" y="79.4956521739"/>
      </g>
     </g>
     <g id="text_38">
      <text style="font-family:Arial;font-size:9.0px;font-style:normal;font-weight:400;text-anchor:middle;" transform="rotate(-0.000000, 90.986850, 89.937683)" x="90.9868504772" y="89.9376834239">600</text>
     </g>
    </g>
    <g id="xtick_32">
     <g id="line2d_32">
      <g>
       <use style="stroke:#000000;stroke-width:0.75;" x="96.312407211" xlink:href="#ma450e56a7c" y="79.4956521739"/>
      </g>
     </g>
     <g id="text_39">
      <text style="font-family:Arial;font-size:9.0px;font-style:normal;font-weight:400;text-anchor:middle;" transform="rotate(-0.000000, 96.312407, 89.937683)" x="96.312407211" y="89.9376834239">1200</text>
     </g>
    </g>
   </g>
   <g id="matplotlib.axis_16"/>
   <g id="text_40">
    <text style="font-family:Arial;font-size:9.0px;font-style:normal;font-weight:400;text-anchor:start;" transform="rotate(-0.000000, 92.762036, 50.713043)" x="92.7620360551" y="50.7130434783">ln (L1/L9)</text>
   </g>
  </g>
  <g id="axes_9">
   <g id="patch_58">
    <path d="M 13.5 99.547826 
L 31.695652 99.547826 
L 31.695652 74.504348 
L 13.5 74.504348 
z
" style="fill:#ffffff;"/>
   </g>
   <g id="patch_59">
    <path clip-path="url(#p52fb8578e0)" d="M 19.437996 99.547826 
L 19.437996 96.686609 
L 19.704274 96.686609 
L 19.704274 51.76487 
L 19.970551 51.76487 
L 19.970551 87.589565 
L 20.236829 87.589565 
L 20.236829 99.547826 
" style="fill:none;stroke:#000000;stroke-linejoin:miter;"/>
   </g>
   <g id="patch_60">
    <path clip-path="url(#p52fb8578e0)" d="M 19.606638 99.547826 
L 19.606638 94.464 
L 19.872916 94.464 
L 19.872916 43.225043 
L 20.139194 43.225043 
L 20.139194 98.352 
L 20.405472 98.352 
L 20.405472 99.547826 
" style="fill:none;stroke:#808080;stroke-linejoin:miter;"/>
   </g>
   <g id="patch_61">
    <path d="M 13.5 74.504348 
L 31.695652 74.504348 
" style="fill:none;"/>
   </g>
   <g id="patch_62">
    <path d="M 31.695652 99.547826 
L 31.695652 74.504348 
" style="fill:none;"/>
   </g>
   <g id="patch_63">
    <path d="M 13.5 109.547826 
L 31.695652 109.547826 
" style="fill:none;stroke:#000000;stroke-linecap:square;stroke-linejoin:miter;stroke-width:0.75;"/>
   </g>
   <g id="patch_64">
    <path d="M 13.5 99.547826 
L 13.5 74.504348 
" style="fill:none;"/>
   </g>
   <g id="matplotlib.axis_17">
    <g id="xtick_33">
     <g id="line2d_33">
      <g>
       <use style="stroke:#000000;stroke-width:0.75;" x="14.8313891835" xlink:href="#ma450e56a7c" y="109.547826087"/>
      </g>
     </g>
     <g id="text_41">
      <text style="font-family:Arial;font-size:9.0px;font-style:normal;font-weight:400;text-anchor:middle;" transform="rotate(-0.000000, 14.831389, 119.989857)" x="14.8313891835" y="119.989857337">−600</text>
     </g>
    </g>
    <g id="xtick_34">
     <g id="line2d_34">
      <g>
       <use style="stroke:#000000;stroke-width:0.75;" x="20.1569459173" xlink:href="#ma450e56a7c" y="109.547826087"/>
      </g>
     </g>
     <g id="text_42">
      <text style="font-family:Arial;font-size:9.0px;font-style:normal;font-weight:400;text-anchor:middle;" transform="rotate(-0.000000, 20.156946, 119.989857)" x="20.1569459173" y="119.989857337">0</text>
     </g>
    </g>
    <g id="xtick_35">
     <g id="line2d_35">
      <g>
       <use style="stroke:#000000;stroke-width:0.75;" x="25.4825026511" xlink:href="#ma450e56a7c" y="109.547826087"/>
      </g>
     </g>
     <g id="text_43">
      <text style="font-family:Arial;font-size:9.0px;font-style:normal;font-weight:400;text-anchor:middle;" transform="rotate(-0.000000, 25.482503, 119.989857)" x="25.4825026511" y="119.989857337">600</text>
     </g>
    </g>
    <g id="xtick_36">
     <g id="line2d_36">
      <g>
       <use style="stroke:#000000;stroke-width:0.75;" x="30.8080593849" xlink:href="#ma450e56a7c" y="109.547826087"/>
      </g>
     </g>
     <g id="text_44">
      <text style="font-family:Arial;font-size:9.0px;font-style:normal;font-weight:400;text-anchor:middle;" transform="rotate(-0.000000, 30.808059, 119.989857)" x="30.8080593849" y="119.989857337">1200</text>
     </g>
    </g>
   </g>
   <g id="matplotlib.axis_18"/>
   <g id="text_45">
    <text style="font-family:Arial;font-size:9.0px;font-style:normal;font-weight:400;text-anchor:start;" transform="rotate(-0.000000, 27.257688, 80.765217)" x="27.2576882291" y="80.7652173913">ln (L1/L10)</text>
   </g>
  </g>
  <g id="axes_10">
   <g id="patch_65">
    <path d="M 35.334783 99.547826 
L 53.530435 99.547826 
L 53.530435 74.504348 
L 35.334783 74.504348 
z
" style="fill:#ffffff;"/>
   </g>
   <g id="patch_66">
    <path clip-path="url(#p583fae50bc)" d="M 41.299406 99.547826 
L 41.299406 96.505043 
L 41.565684 96.505043 
L 41.565684 63.378783 
L 41.831962 63.378783 
L 41.831962 76.507826 
L 42.09824 76.507826 
L 42.09824 99.203478 
L 42.364517 99.203478 
L 42.364517 99.547826 
" style="fill:none;stroke:#000000;stroke-linejoin:miter;"/>
   </g>
   <g id="patch_67">
    <path clip-path="url(#p583fae50bc)" d="M 41.494677 99.547826 
L 41.494677 94.376348 
L 41.760954 94.376348 
L 41.760954 50.118261 
L 42.027232 50.118261 
L 42.027232 91.546435 
L 42.29351 91.546435 
L 42.29351 99.547826 
" style="fill:none;stroke:#808080;stroke-linejoin:miter;"/>
   </g>
   <g id="patch_68">
    <path d="M 35.334783 74.504348 
L 53.530435 74.504348 
" style="fill:none;"/>
   </g>
   <g id="patch_69">
    <path d="M 53.530435 99.547826 
L 53.530435 74.504348 
" style="fill:none;"/>
   </g>
   <g id="patch_70">
    <path d="M 35.334783 109.547826 
L 53.530435 109.547826 
" style="fill:none;stroke:#000000;stroke-linecap:square;stroke-linejoin:miter;stroke-width:0.75;"/>
   </g>
   <g id="patch_71">
    <path d="M 35.334783 99.547826 
L 35.334783 74.504348 
" style="fill:none;"/>
   </g>
   <g id="matplotlib.axis_19">
    <g id="xtick_37">
     <g id="line2d_37">
      <g>
       <use style="stroke:#000000;stroke-width:0.75;" x="36.6661717922" xlink:href="#ma450e56a7c" y="109.547826087"/>
      </g>
     </g>
     <g id="text_46">
      <text style="font-family:Arial;font-size:9.0px;font-style:normal;font-weight:400;text-anchor:middle;" transform="rotate(-0.000000, 36.666172, 119.989857)" x="36.6661717922" y="119.989857337">−600</text>
     </g>
    </g>
    <g id="xtick_38">
     <g id="line2d_38">
      <g>
       <use style="stroke:#000000;stroke-width:0.75;" x="41.991728526" xlink:href="#ma450e56a7c" y="109.547826087"/>
      </g>
     </g>
     <g id="text_47">
      <text style="font-family:Arial;font-size:9.0px;font-style:normal;font-weight:400;text-anchor:middle;" transform="rotate(-0.000000, 41.991729, 119.989857)" x="41.991728526" y="119.989857337">0</text>
     </g>
    </g>
    <g id="xtick_39">
     <g id="line2d_39">
      <g>
       <use style="stroke:#000000;stroke-width:0.75;" x="47.3172852598" xlink:href="#ma450e56a7c" y="109.547826087"/>
      </g>
     </g>
     <g id="text_48">
      <text style="font-family:Arial;font-size:9.0px;font-style:normal;font-weight:400;text-anchor:middle;" transform="rotate(-0.000000, 47.317285, 119.989857)" x="47.3172852598" y="119.989857337">600</text>
     </g>
    </g>
    <g id="xtick_40">
     <g id="line2d_40">
      <g>
       <use style="stroke:#000000;stroke-width:0.75;" x="52.6428419936" xlink:href="#ma450e56a7c" y="109.547826087"/>
      </g>
     </g>
     <g id="text_49">
      <text style="font-family:Arial;font-size:9.0px;font-style:normal;font-weight:400;text-anchor:middle;" transform="rotate(-0.000000, 52.642842, 119.989857)" x="52.6428419936" y="119.989857337">1200</text>
     </g>
    </g>
   </g>
   <g id="matplotlib.axis_20"/>
   <g id="text_50">
    <text style="font-family:Arial;font-size:9.0px;font-style:normal;font-weight:400;text-anchor:start;" transform="rotate(-0.000000, 49.092471, 80.765217)" x="49.0924708378" y="80.7652173913">ln (L1/L11)</text>
   </g>
  </g>
 </g>
 <defs>
  <clipPath id="p444bda3f26">
   <rect height="25.0434782609" width="18.1956521739" x="13.5" y="44.452173913"/>
  </clipPath>
  <clipPath id="p853605413a">
   <rect height="25.0434782609" width="18.1956521739" x="13.5" y="14.4"/>
  </clipPath>
  <clipPath id="pa16623a344">
   <rect height="25.0434782609" width="18.1956521739" x="57.1695652174" y="14.4"/>
  </clipPath>
  <clipPath id="p583fae50bc">
   <rect height="25.0434782609" width="18.1956521739" x="35.3347826087" y="74.5043478261"/>
  </clipPath>
  <clipPath id="p87aa4ed314">
   <rect height="25.0434782609" width="18.1956521739" x="79.0043478261" y="14.4"/>
  </clipPath>
  <clipPath id="p52fb8578e0">
   <rect height="25.0434782609" width="18.1956521739" x="13.5" y="74.5043478261"/>
  </clipPath>
  <clipPath id="p765375e55b">
   <rect height="25.0434782609" width="18.1956521739" x="35.3347826087" y="44.452173913"/>
  </clipPath>
  <clipPath id="p791c4808e7">
   <rect height="25.0434782609" width="18.1956521739" x="79.0043478261" y="44.452173913"/>
  </clipPath>
  <clipPath id="p6f7e7a19b5">
   <rect height="25.0434782609" width="18.1956521739" x="35.3347826087" y="14.4"/>
  </clipPath>
  <clipPath id="p2b01f2c4ab">
   <rect height="25.0434782609" width="18.1956521739" x="57.1695652174" y="44.452173913"/>
  </clipPath>
 </defs>
</svg>
