<?xml version="1.0" encoding="utf-8" standalone="no"?>
<!DOCTYPE svg PUBLIC "-//W3C//DTD SVG 1.1//EN"
  "http://www.w3.org/Graphics/SVG/1.1/DTD/svg11.dtd">
<!-- Created with matplotlib (http://matplotlib.org/) -->
<svg height="720pt" version="1.1" viewBox="0 0 720 720" width="720pt" xmlns="http://www.w3.org/2000/svg" xmlns:xlink="http://www.w3.org/1999/xlink">
 <defs>
  <style type="text/css">
*{stroke-linecap:butt;stroke-linejoin:round;stroke-miterlimit:100000;}
  </style>
 </defs>
 <g id="figure_1">
  <g id="patch_1">
   <path d="M 0 720 
L 720 720 
L 720 0 
L 0 0 
z
" style="fill:#ffffff;"/>
  </g>
  <g id="axes_1">
   <g id="patch_2">
    <path d="M 90 648 
L 648 648 
L 648 72 
L 90 72 
z
" style="fill:#ffffff;"/>
   </g>
   <g id="patch_3">
    <path d="M 90 72 
L 648 72 
" style="fill:none;"/>
   </g>
   <g id="patch_4">
    <path d="M 648 648 
L 648 72 
" style="fill:none;"/>
   </g>
   <g id="patch_5">
    <path d="M 90 658 
L 648 658 
" style="fill:none;stroke:#000000;stroke-linecap:square;stroke-linejoin:miter;stroke-width:0.75;"/>
   </g>
   <g id="patch_6">
    <path d="M 80 648 
L 80 72 
" style="fill:none;stroke:#000000;stroke-linecap:square;stroke-linejoin:miter;stroke-width:0.75;"/>
   </g>
   <g id="matplotlib.axis_1">
    <g id="xtick_1">
     <g id="line2d_1">
      <defs>
       <path d="M 0 0 
L 0 -4 
" id="mb1d777349c" style="stroke:#000000;stroke-width:0.75;"/>
      </defs>
      <g>
       <use style="stroke:#000000;stroke-width:0.75;" x="90.0" xlink:href="#mb1d777349c" y="658.0"/>
      </g>
     </g>
     <g id="text_1">
      <text style="font-family:Arial;font-size:9.0px;font-style:normal;font-weight:400;text-anchor:middle;" transform="rotate(-0.000000, 90.000000, 668.442031)" x="90.0" y="668.44203125">−2</text>
     </g>
    </g>
    <g id="xtick_2">
     <g id="line2d_2">
      <g>
       <use style="stroke:#000000;stroke-width:0.75;" x="191.454545455" xlink:href="#mb1d777349c" y="658.0"/>
      </g>
     </g>
     <g id="text_2">
      <text style="font-family:Arial;font-size:9.0px;font-style:normal;font-weight:400;text-anchor:middle;" transform="rotate(-0.000000, 191.454545, 668.442031)" x="191.454545455" y="668.44203125">−1</text>
     </g>
    </g>
    <g id="xtick_3">
     <g id="line2d_3">
      <g>
       <use style="stroke:#000000;stroke-width:0.75;" x="292.909090909" xlink:href="#mb1d777349c" y="658.0"/>
      </g>
     </g>
     <g id="text_3">
      <text style="font-family:Arial;font-size:9.0px;font-style:normal;font-weight:400;text-anchor:middle;" transform="rotate(-0.000000, 292.909091, 668.442031)" x="292.909090909" y="668.44203125">0</text>
     </g>
    </g>
    <g id="xtick_4">
     <g id="line2d_4">
      <g>
       <use style="stroke:#000000;stroke-width:0.75;" x="394.363636364" xlink:href="#mb1d777349c" y="658.0"/>
      </g>
     </g>
     <g id="text_4">
      <text style="font-family:Arial;font-size:9.0px;font-style:normal;font-weight:400;text-anchor:middle;" transform="rotate(-0.000000, 394.363636, 668.442031)" x="394.363636364" y="668.44203125">1</text>
     </g>
    </g>
    <g id="xtick_5">
     <g id="line2d_5">
      <g>
       <use style="stroke:#000000;stroke-width:0.75;" x="495.818181818" xlink:href="#mb1d777349c" y="658.0"/>
      </g>
     </g>
     <g id="text_5">
      <text style="font-family:Arial;font-size:9.0px;font-style:normal;font-weight:400;text-anchor:middle;" transform="rotate(-0.000000, 495.818182, 668.442031)" x="495.818181818" y="668.44203125">2</text>
     </g>
    </g>
    <g id="xtick_6">
     <g id="line2d_6">
      <g>
       <use style="stroke:#000000;stroke-width:0.75;" x="597.272727273" xlink:href="#mb1d777349c" y="658.0"/>
      </g>
     </g>
     <g id="text_6">
      <text style="font-family:Arial;font-size:9.0px;font-style:normal;font-weight:400;text-anchor:middle;" transform="rotate(-0.000000, 597.272727, 668.442031)" x="597.272727273" y="668.44203125">3</text>
     </g>
    </g>
    <g id="text_7">
     <text style="font-family:Arial;font-size:9.0px;font-style:normal;font-weight:400;text-anchor:middle;" transform="rotate(-0.000000, 369.000000, 681.782500)" x="369.0" y="681.7825">windspeed along trajectory, m/s</text>
    </g>
   </g>
   <g id="matplotlib.axis_2">
    <g id="ytick_1">
     <g id="line2d_7">
      <defs>
       <path d="M 0 0 
L 4 0 
" id="mece80a7552" style="stroke:#000000;stroke-width:0.75;"/>
      </defs>
      <g>
       <use style="stroke:#000000;stroke-width:0.75;" x="80.0" xlink:href="#mece80a7552" y="595.636363636"/>
      </g>
     </g>
     <g id="text_8">
      <text style="font-family:Arial;font-size:9.0px;font-style:normal;font-weight:400;text-anchor:end;" transform="rotate(-0.000000, 76.000000, 597.963004)" x="76.0" y="597.963004261">0</text>
     </g>
    </g>
    <g id="ytick_2">
     <g id="line2d_8">
      <g>
       <use style="stroke:#000000;stroke-width:0.75;" x="80.0" xlink:href="#mece80a7552" y="490.909090909"/>
      </g>
     </g>
     <g id="text_9">
      <text style="font-family:Arial;font-size:9.0px;font-style:normal;font-weight:400;text-anchor:end;" transform="rotate(-0.000000, 76.000000, 493.235732)" x="76.0" y="493.235731534">1</text>
     </g>
    </g>
    <g id="ytick_3">
     <g id="line2d_9">
      <g>
       <use style="stroke:#000000;stroke-width:0.75;" x="80.0" xlink:href="#mece80a7552" y="386.181818182"/>
      </g>
     </g>
     <g id="text_10">
      <text style="font-family:Arial;font-size:9.0px;font-style:normal;font-weight:400;text-anchor:end;" transform="rotate(-0.000000, 76.000000, 388.508459)" x="76.0" y="388.508458807">2</text>
     </g>
    </g>
    <g id="ytick_4">
     <g id="line2d_10">
      <g>
       <use style="stroke:#000000;stroke-width:0.75;" x="80.0" xlink:href="#mece80a7552" y="281.454545455"/>
      </g>
     </g>
     <g id="text_11">
      <text style="font-family:Arial;font-size:9.0px;font-style:normal;font-weight:400;text-anchor:end;" transform="rotate(-0.000000, 76.000000, 283.781186)" x="76.0" y="283.78118608">3</text>
     </g>
    </g>
    <g id="ytick_5">
     <g id="line2d_11">
      <g>
       <use style="stroke:#000000;stroke-width:0.75;" x="80.0" xlink:href="#mece80a7552" y="176.727272727"/>
      </g>
     </g>
     <g id="text_12">
      <text style="font-family:Arial;font-size:9.0px;font-style:normal;font-weight:400;text-anchor:end;" transform="rotate(-0.000000, 76.000000, 179.053913)" x="76.0" y="179.053913352">4</text>
     </g>
    </g>
    <g id="ytick_6">
     <g id="line2d_12">
      <g>
       <use style="stroke:#000000;stroke-width:0.75;" x="80.0" xlink:href="#mece80a7552" y="72.0"/>
      </g>
     </g>
     <g id="text_13">
      <text style="font-family:Arial;font-size:9.0px;font-style:normal;font-weight:400;text-anchor:end;" transform="rotate(-0.000000, 76.000000, 74.326641)" x="76.0" y="74.326640625">5</text>
     </g>
    </g>
    <g id="text_14">
     <text style="font-family:Arial;font-size:9.0px;font-style:normal;font-weight:400;text-anchor:middle;" transform="rotate(-90.000000, 64.100937, 360.000000)" x="64.1009375" y="360.0">groundspeed along trajectory, m/s</text>
    </g>
   </g>
   <g id="LineCollection_1">
    <path clip-path="url(#pa6ba5b7ff9)" d="M 313.2 591.360079 
L 318.272727 592.374244 
L 323.345455 592.988748 
L 328.418182 593.172492 
L 333.490909 592.995683 
L 338.563636 592.640423 
L 343.636364 591.913069 
L 347.773608 590.4 
L 348.709091 590.240938 
L 353.781818 588.783252 
L 358.854545 585.108388 
L 363.938856 579.927273 
L 369 577.412004 
L 374.072727 577.872755 
L 379.145455 578.701984 
L 384.218182 578.507138 
L 389.290909 577.02692 
L 394.363636 574.249634 
L 404.509091 568.835056 
L 409.581818 567.757508 
L 414.654545 566.301807 
L 419.727273 564.173251 
L 424.8 563.573063 
L 429.872727 562.857636 
L 434.945455 560.450234 
L 437.620296 558.981818 
L 440.018182 557.795522 
L 445.090909 556.328683 
L 450.163636 553.5839 
L 460.309091 548.354884 
L 465.381818 546.938728 
L 470.454545 546.471492 
L 475.527273 544.159064 
L 476.450897 543.272727 
L 481.228548 538.036364 
L 485.672727 532.263766 
L 495.818182 521.839235 
L 500.201882 517.090909 
L 500.890909 516.136064 
L 505.963636 515.022813 
L 509.66225 511.854545 
L 511.036364 508.78789 
L 511.494908 506.618182 
L 514.473491 496.145455 
L 515.135027 490.909091 
L 514.960017 485.672727 
L 515.088355 480.436364 
L 515.60529 475.2 
L 515.902997 469.963636 
L 516.109091 463.34287 
L 516.39373 459.490909 
L 517.090196 454.254545 
L 517.657114 443.781818 
L 517.810615 438.545455 
L 517.833295 433.309091 
L 518.105967 428.072727 
L 518.070582 422.836364 
L 516.812107 412.363636 
L 516.754321 407.127273 
L 516.822108 401.890909 
L 516.109091 396.062257 
L 515.12613 391.418182 
L 513.541374 386.181818 
L 511.036364 381.712051 
L 505.963636 381.659064 
L 500.890909 386.630339 
L 497.837519 391.418182 
L 495.818182 394.329253 
L 490.745455 396.866476 
L 485.672727 397.915056 
L 480.6 400.308218 
L 478.536344 401.890909 
L 475.527273 403.675701 
L 470.454545 408.059853 
L 466.740258 412.363636 
L 465.381818 414.928539 
L 460.309091 423.133917 
L 455.236364 425.695895 
L 450.163636 428.121363 
L 445.090909 433.663716 
L 440.018182 437.446196 
L 434.945455 439.622704 
L 429.872727 443.268955 
L 429.371911 443.781818 
L 424.8 446.611566 
L 419.727273 447.559287 
L 414.654545 447.433111 
L 412.294588 449.018182 
L 406.230036 459.490909 
L 401.166161 464.727273 
L 399.436364 467.508699 
L 396.291789 469.963636 
L 394.363636 470.690198 
L 389.290909 470.813796 
L 379.145455 468.482464 
L 374.072727 469.695723 
L 373.715681 469.963636 
L 369 475.358082 
L 365.237314 480.436364 
L 363.927273 482.692813 
L 358.854545 486.192436 
L 353.507891 485.672727 
L 348.709091 486.010169 
L 343.636364 485.318307 
L 338.563636 483.388391 
L 333.490909 482.865063 
L 328.418182 483.897396 
L 324.202331 485.672727 
L 323.345455 487.340928 
L 322.26359 490.909091 
L 322.93899 496.145455 
L 321.219492 501.381818 
L 318.272727 507.35523 
L 313.2 511.974379 
L 308.127273 514.467193 
L 305.787485 517.090909 
L 303.054545 522.620319 
L 297.981818 528.570723 
L 292.587711 532.8 
L 287.836364 538.442006 
L 282.763636 542.074179 
L 279.628845 543.272727 
L 277.690909 543.830465 
L 272.618182 545.711738 
L 269.219571 548.509091 
L 265.60652 553.745455 
L 262.472727 559.163755 
L 257.4 563.087757 
L 256.913916 564.218182 
L 257.4 567.666369 
L 257.827173 569.454545 
L 262.472727 571.711707 
L 267.545455 574.029195 
L 268.224625 574.690909 
L 272.618182 577.591443 
L 277.690909 580.139275 
L 282.763636 582.281201 
L 287.836364 583.605737 
L 292.909091 584.51547 
L 303.054545 588.702117 
L 308.127273 590.007341 
L 310.1401 590.4 
L 313.2 591.360079 
L 313.2 591.360079 
" style="fill:none;stroke:#808080;"/>
   </g>
   <g id="LineCollection_2">
    <path clip-path="url(#pa6ba5b7ff9)" d="M 308.127273 586.537885 
L 313.2 588.228542 
L 318.272727 589.238299 
L 323.345455 589.850732 
L 328.418182 590.059528 
L 333.490909 589.982848 
L 338.563636 589.779845 
L 343.636364 589.296772 
L 348.709091 588.038235 
L 353.99838 585.163636 
L 358.854545 581.134046 
L 360.036831 579.927273 
L 363.927273 574.267008 
L 369 571.700641 
L 374.072727 572.340657 
L 379.145455 573.447662 
L 384.218182 573.452683 
L 389.290909 572.084698 
L 394.363636 569.225466 
L 399.436364 565.714358 
L 404.509091 562.610164 
L 409.581818 561.647737 
L 419.727273 558.873601 
L 424.8 558.682996 
L 429.872727 557.805469 
L 436.440531 553.745455 
L 440.018182 551.783565 
L 445.090909 550.391508 
L 455.236364 545.289872 
L 460.309091 542.494203 
L 465.381818 541.173688 
L 470.454545 540.930106 
L 475.527273 537.993264 
L 480.6 531.733254 
L 483.895176 527.563636 
L 485.672727 524.956282 
L 488.032555 522.327273 
L 491.710366 517.090909 
L 494.044396 511.854545 
L 495.818182 505.329054 
L 497.809197 501.381818 
L 499.739415 496.145455 
L 500.890909 493.476124 
L 504.521797 490.909091 
L 505.963636 489.06464 
L 506.828459 485.672727 
L 509.126167 475.2 
L 509.738757 469.963636 
L 511.597714 459.490909 
L 512.397968 454.254545 
L 512.623881 449.018182 
L 512.921432 438.545455 
L 513.091461 433.309091 
L 513.507699 428.072727 
L 513.397269 422.836364 
L 512.289179 417.6 
L 511.036364 412.619935 
L 510.840956 412.363636 
L 508.806182 407.127273 
L 507.228678 401.890909 
L 505.963636 400.177287 
L 504.890863 401.890909 
L 500.890909 406.203258 
L 497.899293 407.127273 
L 495.818182 407.615248 
L 493.370195 407.127273 
L 490.745455 406.851342 
L 489.626624 407.127273 
L 485.672727 407.935972 
L 480.6 410.172423 
L 477.549181 412.363636 
L 475.527273 414.014898 
L 472.547267 417.6 
L 469.033421 422.836364 
L 466.274609 428.072727 
L 465.381818 430.025315 
L 460.309091 437.911304 
L 459.460261 438.545455 
L 455.236364 440.888051 
L 450.163636 444.107154 
L 445.090909 447.329843 
L 442.82089 449.018182 
L 440.018182 451.386251 
L 437.017025 454.254545 
L 434.945455 455.992736 
L 429.872727 457.476597 
L 424.8 459.670319 
L 418.883158 464.727273 
L 414.654545 468.624015 
L 413.436304 469.963636 
L 408.365849 475.2 
L 404.509091 478.510289 
L 401.590698 480.436364 
L 399.436364 481.673536 
L 389.290909 483.435916 
L 383.439953 485.672727 
L 379.145455 488.070217 
L 376.445278 490.909091 
L 375.036637 496.145455 
L 373.424076 501.381818 
L 369 508.975915 
L 363.927273 511.258291 
L 358.854545 509.630965 
L 352.675253 506.618182 
L 348.709091 503.568745 
L 343.469762 501.381818 
L 338.563636 501.932336 
L 332.949845 506.618182 
L 328.418182 510.687787 
L 327.496567 511.854545 
L 322.911232 517.090909 
L 317.595031 522.327273 
L 312.676377 527.563636 
L 308.127273 531.554258 
L 307.002415 532.8 
L 303.054545 538.771228 
L 297.981818 544.348914 
L 293.697455 548.509091 
L 289.551721 553.745455 
L 287.836364 559.373275 
L 285.280987 564.218182 
L 283.422356 569.454545 
L 286.094267 574.690909 
L 287.836364 575.609478 
L 292.909091 577.941284 
L 295.553981 579.927273 
L 297.981818 581.183231 
L 303.054545 584.206467 
L 304.990194 585.163636 
L 308.127273 586.537885 
L 308.127273 586.537885 
" style="fill:none;stroke:#808080;"/>
   </g>
   <g id="LineCollection_3">
    <path clip-path="url(#pa6ba5b7ff9)" d="M 313.2 585.605851 
L 318.272727 587.178726 
L 323.345455 588.183827 
L 328.418182 588.596407 
L 333.490909 588.603115 
L 338.563636 588.381549 
L 343.636364 587.675895 
L 348.709091 585.835531 
L 353.781818 583.180608 
L 357.293432 579.927273 
L 358.854545 577.367872 
L 360.890785 574.690909 
L 363.927273 569.310043 
L 369 566.541365 
L 374.072727 567.835611 
L 379.145455 569.33241 
L 384.367767 569.454545 
L 389.290909 568.213461 
L 394.363636 565.41688 
L 395.916505 564.218182 
L 399.436364 560.820292 
L 404.509091 557.395185 
L 409.581818 556.891838 
L 414.654545 555.904897 
L 419.727273 554.783441 
L 424.8 554.633119 
L 429.872727 553.542766 
L 434.945455 550.053177 
L 437.519509 548.509091 
L 440.018182 547.165482 
L 445.090909 545.986814 
L 450.754801 543.272727 
L 460.309091 537.781018 
L 465.381818 536.528413 
L 470.454545 536.404525 
L 475.627447 532.8 
L 480.6 525.951742 
L 483.169699 522.327273 
L 485.672727 518.1653 
L 486.467208 517.090909 
L 489.044493 511.854545 
L 490.745455 504.792602 
L 493.411276 496.145455 
L 495.818182 486.566235 
L 496.267402 485.672727 
L 497.824526 480.436364 
L 498.678038 475.2 
L 498.934428 469.963636 
L 499.710743 464.727273 
L 500.890909 461.888006 
L 504.147332 459.490909 
L 505.963636 457.053199 
L 506.52915 454.254545 
L 506.152533 449.018182 
L 505.963636 443.633898 
L 507.1715 433.309091 
L 507.50975 428.072727 
L 506.17513 422.836364 
L 505.963636 422.545432 
L 505.450005 422.836364 
L 500.890909 426.11 
L 495.818182 424.033911 
L 495.072709 422.836364 
L 490.699117 417.6 
L 485.672727 415.675084 
L 480.6 417.311467 
L 480.262305 417.6 
L 475.38544 422.836364 
L 470.454545 431.45595 
L 469.512156 433.309091 
L 466.457431 438.545455 
L 465.381818 440.11487 
L 460.309091 445.784142 
L 453.951247 449.018182 
L 450.163636 451.381467 
L 445.090909 455.266231 
L 440.938243 459.490909 
L 440.018182 460.198394 
L 434.945455 463.001707 
L 429.872727 464.406655 
L 429.322246 464.727273 
L 424.8 467.795763 
L 422.49284 469.963636 
L 417.671176 475.2 
L 414.654545 477.992782 
L 411.604594 480.436364 
L 409.581818 481.809163 
L 405.211112 485.672727 
L 404.509091 486.657952 
L 399.436364 490.028679 
L 394.363636 490.045321 
L 389.290909 491.457797 
L 384.218182 495.260885 
L 383.427742 496.145455 
L 379.145455 502.152215 
L 376.435164 506.618182 
L 373.334922 511.854545 
L 369.97726 517.090909 
L 369 518.925376 
L 363.927273 521.917002 
L 358.764681 517.090909 
L 353.781818 513.057773 
L 351.065014 511.854545 
L 348.709091 510.652913 
L 343.636364 509.980023 
L 338.328191 511.854545 
L 333.490909 514.270547 
L 328.418182 518.579468 
L 323.345455 523.612542 
L 318.272727 528.939257 
L 313.2 533.636596 
L 309.315447 538.036364 
L 308.127273 539.792868 
L 303.054545 546.770671 
L 301.468387 548.509091 
L 297.942116 553.745455 
L 295.367168 558.981818 
L 294.255779 564.218182 
L 294.432305 569.454545 
L 297.248128 574.690909 
L 297.981818 575.277125 
L 302.49994 579.927273 
L 303.054545 580.290097 
L 308.127273 583.32665 
L 313.2 585.605851 
L 313.2 585.605851 
" style="fill:none;stroke:#808080;"/>
   </g>
   <g id="LineCollection_4">
    <path clip-path="url(#pa6ba5b7ff9)" d="M 323.345455 586.516922 
L 328.418182 587.133286 
L 333.490909 587.223382 
L 338.563636 586.983252 
L 343.636364 586.055018 
L 345.877243 585.163636 
L 348.709091 584.222406 
L 353.781818 581.10367 
L 355.051608 579.927273 
L 358.426241 574.690909 
L 358.854545 573.481493 
L 361.235945 569.454545 
L 363.341857 564.218182 
L 363.927273 561.621288 
L 369 559.534056 
L 374.072727 563.26349 
L 376.000196 564.218182 
L 379.145455 565.359095 
L 384.218182 565.787387 
L 389.290909 564.78561 
L 390.277878 564.218182 
L 394.363636 561.563682 
L 397.004011 558.981818 
L 399.436364 555.899377 
L 402.738816 553.745455 
L 404.509091 552.753504 
L 409.581818 552.862628 
L 414.654545 552.185584 
L 419.727273 551.052964 
L 424.8 550.849553 
L 429.872727 549.746824 
L 434.945455 546.143199 
L 440.018182 543.2034 
L 445.090909 542.001207 
L 450.163636 539.502754 
L 460.309091 533.399406 
L 462.403019 532.8 
L 465.381818 531.704033 
L 470.454545 531.527661 
L 475.554059 527.563636 
L 479.16584 522.327273 
L 482.252223 517.090909 
L 484.674158 511.854545 
L 485.980215 506.618182 
L 489.609763 496.145455 
L 490.755352 490.909091 
L 492.186897 485.672727 
L 493.278122 480.436364 
L 494.000288 475.2 
L 494.257609 469.963636 
L 494.265896 464.727273 
L 494.750621 459.490909 
L 495.526636 454.254545 
L 495.63256 449.018182 
L 495.334523 443.781818 
L 494.662639 438.545455 
L 493.182197 433.309091 
L 490.745455 427.680693 
L 485.672727 423.560039 
L 480.6 425.487471 
L 475.527273 432.184038 
L 474.851115 433.309091 
L 471.155965 438.545455 
L 470.454545 439.325583 
L 465.381818 446.27793 
L 462.801991 449.018182 
L 460.309091 452.708791 
L 457.716191 454.254545 
L 455.236364 456.054451 
L 449.919852 459.490909 
L 445.090909 462.278333 
L 441.903618 464.727273 
L 440.018182 465.829458 
L 434.945455 468.280193 
L 429.872727 470.478412 
L 424.420114 475.2 
L 419.727273 480.497394 
L 412.841948 485.672727 
L 409.581818 488.749784 
L 407.935905 490.909091 
L 404.509091 498.594264 
L 400.503033 501.381818 
L 399.436364 501.868456 
L 398.503853 501.381818 
L 394.363636 498.516582 
L 389.290909 498.584626 
L 384.218182 502.599926 
L 381.149912 506.618182 
L 379.145455 509.528069 
L 377.689746 511.854545 
L 371.713868 522.327273 
L 369.773508 527.563636 
L 369 530.035263 
L 366.390275 532.8 
L 363.927273 535.152607 
L 362.904284 532.8 
L 358.854545 526.130845 
L 357.199053 522.327273 
L 353.781818 517.969956 
L 352.538471 517.090909 
L 348.709091 515.003652 
L 343.636364 514.611312 
L 338.563636 516.174526 
L 337.074252 517.090909 
L 333.490909 518.980814 
L 328.418182 523.644119 
L 319.321733 532.8 
L 318.272727 533.947682 
L 314.110723 538.036364 
L 310.492373 543.272727 
L 306.659598 548.509091 
L 303.846126 553.745455 
L 303.054545 555.977238 
L 301.562946 558.981818 
L 299.868102 564.218182 
L 299.997513 569.454545 
L 302.552501 574.690909 
L 308.127273 580.284783 
L 313.2 583.197126 
L 318.404186 585.163636 
L 323.345455 586.516922 
L 323.345455 586.516922 
" style="fill:none;stroke:#808080;"/>
   </g>
   <g id="LineCollection_5">
    <path clip-path="url(#pa6ba5b7ff9)" d="M 328.418182 585.670166 
L 333.490909 585.843649 
L 338.563636 585.584956 
L 340.597863 585.163636 
L 343.636364 584.712263 
L 348.709091 582.868056 
L 352.937469 579.927273 
L 353.781818 578.973047 
L 356.849595 574.690909 
L 358.723403 569.454545 
L 358.854545 568.791463 
L 360.636259 564.218182 
L 361.841678 558.981818 
L 362.797712 553.745455 
L 363.31513 548.509091 
L 362.8692 543.272727 
L 361.301973 538.036364 
L 358.854545 533.342053 
L 358.696184 532.8 
L 356.484938 527.563636 
L 353.781818 523.081443 
L 353.061229 522.327273 
L 348.709091 518.809239 
L 343.636364 518.112509 
L 338.563636 519.35234 
L 333.995605 522.327273 
L 333.490909 522.686243 
L 328.560559 527.563636 
L 328.418182 527.706619 
L 323.345455 532.728766 
L 323.275921 532.8 
L 318.44763 538.036364 
L 318.272727 538.312375 
L 314.677596 543.272727 
L 313.2 545.894425 
L 311.327901 548.509091 
L 308.127273 553.655342 
L 308.07607 553.745455 
L 306.071341 558.981818 
L 304.67305 564.218182 
L 304.597982 569.454545 
L 306.831634 574.690909 
L 308.127273 576.048707 
L 311.666373 579.927273 
L 313.2 580.831794 
L 318.272727 583.358358 
L 323.345455 584.916011 
L 325.131586 585.163636 
L 328.418182 585.670166 
" style="fill:none;stroke:#808080;"/>
    <path clip-path="url(#pa6ba5b7ff9)" d="M 379.145455 560.98155 
L 384.218182 561.747979 
L 389.290909 561.00432 
L 392.393398 558.981818 
L 394.363636 557.43239 
L 397.313763 553.745455 
L 399.436364 550.834701 
L 404.338182 548.509091 
L 404.509091 548.427538 
L 404.794384 548.509091 
L 409.581818 549.426262 
L 414.654545 548.845007 
L 415.944221 548.509091 
L 419.727273 547.368217 
L 424.8 547.202776 
L 429.872727 546.277064 
L 433.991485 543.272727 
L 434.945455 542.555607 
L 440.018182 539.476817 
L 445.085228 538.036364 
L 445.090909 538.034363 
L 450.163636 535.137882 
L 454.035507 532.8 
L 455.236364 532.040997 
L 460.309091 528.751455 
L 462.788988 527.563636 
L 465.381818 526.063646 
L 470.454545 525.630849 
L 475.175246 522.327273 
L 475.527273 522.08139 
L 478.557767 517.090909 
L 480.6 512.243373 
L 480.784878 511.854545 
L 482.630111 506.618182 
L 484.392222 501.381818 
L 485.672727 497.872047 
L 486.398539 496.145455 
L 487.823761 490.909091 
L 488.929452 485.672727 
L 489.875888 480.436364 
L 490.661201 475.2 
L 490.745455 473.999072 
L 491.04479 469.963636 
L 490.965725 464.727273 
L 491.192631 459.490909 
L 491.948589 454.254545 
L 492.043763 449.018182 
L 491.22405 443.781818 
L 490.745455 442.009469 
L 489.409501 438.545455 
L 486.306392 433.309091 
L 485.672727 432.488468 
L 482.637676 433.309091 
L 480.6 433.752225 
L 476.406858 438.545455 
L 475.527273 439.297999 
L 471.507357 443.781818 
L 470.454545 444.696672 
L 467.115865 449.018182 
L 465.381818 452.284299 
L 463.995949 454.254545 
L 461.414111 459.490909 
L 460.309091 461.19693 
L 455.236364 463.420224 
L 451.88883 464.727273 
L 450.163636 465.344076 
L 445.090909 467.574123 
L 440.815802 469.963636 
L 440.018182 470.413618 
L 434.945455 473.449728 
L 431.472599 475.2 
L 429.872727 475.898792 
L 424.8 480.268686 
L 424.648644 480.436364 
L 420.270613 485.672727 
L 419.727273 486.340733 
L 414.654545 490.249017 
L 413.970311 490.909091 
L 410.235896 496.145455 
L 409.581818 497.191824 
L 407.362601 501.381818 
L 404.509091 506.106771 
L 403.371852 506.618182 
L 399.436364 508.247656 
L 396.561355 506.618182 
L 394.363636 505.384263 
L 389.290909 504.502546 
L 386.530024 506.618182 
L 384.218182 508.670142 
L 381.988828 511.854545 
L 379.145455 515.906121 
L 378.444084 517.090909 
L 375.465997 522.327273 
L 374.072727 525.791666 
L 373.2754 527.563636 
L 371.403927 532.8 
L 369.750727 538.036364 
L 369.164569 543.272727 
L 370.058486 548.509091 
L 371.798422 553.745455 
L 374.072727 557.261012 
L 375.714797 558.981818 
L 379.145455 560.98155 
" style="fill:none;stroke:#808080;"/>
   </g>
   <g id="LineCollection_6">
    <path clip-path="url(#pa6ba5b7ff9)" d="M 318.272727 581.591247 
L 323.345455 583.599865 
L 328.418182 584.46212 
L 333.490909 584.693217 
L 338.563636 584.548184 
L 343.636364 583.70935 
L 348.709091 581.513705 
L 350.990129 579.927273 
L 353.781818 576.772295 
L 355.272949 574.690909 
L 357.349898 569.454545 
L 358.419584 564.218182 
L 358.854545 560.320544 
L 359.168116 558.981818 
L 360.217643 553.745455 
L 360.722462 548.509091 
L 359.862924 543.272727 
L 358.854545 540.649836 
L 358.298813 538.036364 
L 356.63627 532.8 
L 353.781818 527.687525 
L 353.684501 527.563636 
L 348.709091 522.38128 
L 348.531251 522.327273 
L 343.636364 520.936592 
L 338.563636 522.206608 
L 338.378355 522.327273 
L 333.490909 525.803519 
L 331.711682 527.563636 
L 328.418182 530.871143 
L 326.475927 532.8 
L 323.345455 536.185474 
L 321.634033 538.036364 
L 318.306455 543.272727 
L 318.272727 543.347563 
L 315.176023 548.509091 
L 313.2 552.298046 
L 312.250332 553.745455 
L 309.964693 558.981818 
L 308.649472 564.218182 
L 308.566415 569.454545 
L 310.385287 574.690909 
L 313.2 577.740759 
L 315.209249 579.927273 
L 318.272727 581.591247 
" style="fill:none;stroke:#808080;"/>
    <path clip-path="url(#pa6ba5b7ff9)" d="M 379.145455 555.701636 
L 384.218182 557.196833 
L 389.290909 556.804965 
L 393.165191 553.745455 
L 394.363636 552.83042 
L 397.620032 548.509091 
L 399.436364 545.860176 
L 404.509091 543.300105 
L 409.581818 545.345809 
L 414.654545 544.904135 
L 419.727273 543.500402 
L 424.8 543.662098 
L 427.550078 543.272727 
L 429.872727 542.947578 
L 434.945455 539.142436 
L 436.698867 538.036364 
L 440.018182 535.342894 
L 445.090909 533.416993 
L 446.191002 532.8 
L 450.163636 530.451824 
L 454.818531 527.563636 
L 455.236364 527.262587 
L 460.309091 523.373643 
L 462.104441 522.327273 
L 465.381818 520.570656 
L 470.454545 520.378143 
L 474.787702 517.090909 
L 475.527273 516.316239 
L 477.666516 511.854545 
L 479.570119 506.618182 
L 480.6 503.929076 
L 481.60521 501.381818 
L 483.686853 496.145455 
L 485.024033 490.909091 
L 485.672727 487.342281 
L 486.032879 485.672727 
L 486.940849 480.436364 
L 487.622487 475.2 
L 487.912009 469.963636 
L 487.667621 464.727273 
L 487.550023 459.490909 
L 488.069391 454.254545 
L 488.035516 449.018182 
L 486.530973 443.781818 
L 485.672727 442.047981 
L 480.6 441.419676 
L 477.660443 443.781818 
L 475.527273 444.958152 
L 470.728677 449.018182 
L 470.454545 449.258919 
L 467.557696 454.254545 
L 465.69656 459.490909 
L 465.381818 460.295765 
L 462.600814 464.727273 
L 460.309091 468.12917 
L 455.236364 469.820961 
L 454.716883 469.963636 
L 450.163636 471.188577 
L 445.090909 472.463739 
L 440.156899 475.2 
L 440.018182 475.290582 
L 434.945455 478.690446 
L 429.872727 480.430381 
L 429.865824 480.436364 
L 424.806663 485.672727 
L 424.8 485.68078 
L 420.59037 490.909091 
L 419.727273 491.935647 
L 415.016107 496.145455 
L 414.654545 496.518102 
L 411.472068 501.381818 
L 409.581818 504.69346 
L 408.478627 506.618182 
L 405.221299 511.854545 
L 404.509091 513.046583 
L 399.436364 514.610105 
L 395.400636 511.854545 
L 394.363636 511.249166 
L 389.290909 510.299849 
L 387.548739 511.854545 
L 384.218182 515.112606 
L 382.853282 517.090909 
L 379.145455 521.394629 
L 378.595898 522.327273 
L 376.071898 527.563636 
L 374.478876 532.8 
L 374.072727 534.784007 
L 373.156462 538.036364 
L 373.241306 543.272727 
L 374.072727 546.136756 
L 374.863025 548.509091 
L 377.270867 553.745455 
L 379.145455 555.701636 
" style="fill:none;stroke:#808080;"/>
   </g>
   <g id="LineCollection_7">
    <path clip-path="url(#pa6ba5b7ff9)" d="M 323.345455 582.283718 
L 328.418182 583.389141 
L 333.490909 583.765627 
L 338.563636 583.667318 
L 343.636364 582.706438 
L 348.709091 580.159355 
L 349.042788 579.927273 
L 353.710125 574.690909 
L 353.781818 574.51899 
L 355.976393 569.454545 
L 357.145799 564.218182 
L 357.781696 558.981818 
L 358.275238 553.745455 
L 358.495545 548.509091 
L 357.912977 543.272727 
L 356.636038 538.036364 
L 354.576356 532.8 
L 353.781818 531.37694 
L 350.786394 527.563636 
L 348.709091 525.399931 
L 343.636364 523.565341 
L 338.563636 524.699508 
L 334.878435 527.563636 
L 333.490909 528.732717 
L 329.457883 532.8 
L 328.418182 533.898402 
L 324.559652 538.036364 
L 323.345455 539.66871 
L 320.798514 543.272727 
L 318.411133 548.509091 
L 318.272727 548.891684 
L 315.624012 553.745455 
L 313.585974 558.981818 
L 313.2 560.400278 
L 311.974957 564.218182 
L 311.667011 569.454545 
L 313.2 573.544696 
L 313.519404 574.690909 
L 318.272727 579.783134 
L 318.43287 579.927273 
L 323.345455 582.283718 
" style="fill:none;stroke:#808080;"/>
    <path clip-path="url(#pa6ba5b7ff9)" d="M 384.218182 551.987296 
L 389.290909 552.342647 
L 394.227798 548.509091 
L 394.363636 548.408381 
L 398.072846 543.272727 
L 399.436364 540.460897 
L 402.302071 538.036364 
L 404.509091 532.802462 
L 408.030369 538.036364 
L 409.581818 539.130024 
L 414.654545 539.371727 
L 419.727273 538.069124 
L 424.8 539.361652 
L 429.872727 539.446773 
L 431.767117 538.036364 
L 434.945455 535.423282 
L 438.076451 532.8 
L 440.018182 530.601261 
L 445.090909 528.512457 
L 446.716708 527.563636 
L 450.163636 525.262782 
L 454.240837 522.327273 
L 455.236364 521.282288 
L 459.422804 517.090909 
L 460.309091 516.096043 
L 465.381818 515.244128 
L 470.454545 515.631821 
L 474.072538 511.854545 
L 475.527273 509.855746 
L 476.865326 506.618182 
L 479.013206 501.381818 
L 480.6 497.407764 
L 481.121047 496.145455 
L 482.581958 490.909091 
L 483.51243 485.672727 
L 484.087282 480.436364 
L 484.50037 475.2 
L 484.667402 469.963636 
L 484.166565 464.727273 
L 483.454827 459.490909 
L 482.858242 454.254545 
L 480.6 449.926389 
L 475.527273 450.307852 
L 470.927522 454.254545 
L 470.454545 454.76763 
L 468.639048 459.490909 
L 466.656413 464.727273 
L 465.381818 468.015256 
L 464.123377 469.963636 
L 461.531985 475.2 
L 460.309091 477.417142 
L 455.236364 477.557165 
L 450.163636 477.107823 
L 445.090909 477.526329 
L 440.906831 480.436364 
L 440.018182 481.343284 
L 434.945455 484.700424 
L 429.872727 485.508574 
L 429.714116 485.672727 
L 425.482184 490.909091 
L 424.8 491.613837 
L 421.013656 496.145455 
L 419.727273 497.721918 
L 416.176642 501.381818 
L 414.654545 503.289751 
L 412.744016 506.618182 
L 410.16583 511.854545 
L 409.581818 513.292149 
L 407.588644 517.090909 
L 404.803721 522.327273 
L 404.509091 523.778448 
L 403.470432 522.327273 
L 399.436364 521.350917 
L 394.363636 517.570378 
L 389.521708 517.090909 
L 389.290909 517.06143 
L 389.260679 517.090909 
L 384.218182 520.588705 
L 382.710053 522.327273 
L 379.145455 526.593932 
L 378.660441 527.563636 
L 376.953621 532.8 
L 376.212663 538.036364 
L 377.101643 543.272727 
L 379.145455 547.79653 
L 379.751281 548.509091 
L 384.218182 551.987296 
" style="fill:none;stroke:#808080;"/>
   </g>
   <g id="LineCollection_8">
    <path clip-path="url(#pa6ba5b7ff9)" d="M 323.345455 580.967572 
L 328.418182 582.316162 
L 333.490909 582.838037 
L 338.563636 582.786452 
L 343.636364 581.703525 
L 347.092208 579.927273 
L 348.709091 578.72603 
L 352.388325 574.690909 
L 353.781818 571.349338 
L 354.602888 569.454545 
L 355.872013 564.218182 
L 356.566298 558.981818 
L 357.047064 553.745455 
L 357.211285 548.509091 
L 356.496181 543.272727 
L 354.973262 538.036364 
L 353.781818 535.217014 
L 352.440154 532.8 
L 348.709091 528.308324 
L 347.151485 527.563636 
L 343.636364 526.004579 
L 338.563636 527.176457 
L 338.065462 527.563636 
L 333.490909 531.417992 
L 332.120541 532.8 
L 328.418182 536.71139 
L 327.182682 538.036364 
L 323.345455 543.195067 
L 323.290573 543.272727 
L 320.491413 548.509091 
L 318.575122 553.745455 
L 318.272727 554.743888 
L 316.406112 558.981818 
L 314.66086 564.218182 
L 314.250939 569.454545 
L 315.824667 574.690909 
L 318.272727 577.31351 
L 321.176697 579.927273 
L 323.345455 580.967572 
" style="fill:none;stroke:#808080;"/>
    <path clip-path="url(#pa6ba5b7ff9)" d="M 384.218182 546.512684 
L 389.290909 548.1345 
L 394.363636 544.381275 
L 395.164281 543.272727 
L 397.668057 538.036364 
L 398.465626 532.8 
L 397.689683 527.563636 
L 394.363636 523.100252 
L 389.290909 522.344091 
L 384.218182 525.257737 
L 382.25649 527.563636 
L 379.569694 532.8 
L 379.145455 537.955643 
L 379.140215 538.036364 
L 379.145455 538.056535 
L 381.332982 543.272727 
L 384.218182 546.512684 
" style="fill:none;stroke:#808080;"/>
    <path clip-path="url(#pa6ba5b7ff9)" d="M 424.8 534.339522 
L 429.872727 535.639618 
L 433.360731 532.8 
L 434.945455 531.221169 
L 438.192644 527.563636 
L 440.018182 525.007516 
L 445.090909 522.802395 
L 445.818878 522.327273 
L 450.163636 518.356809 
L 451.369634 517.090909 
L 455.100487 511.854545 
L 455.236364 511.642907 
L 459.832095 506.618182 
L 460.309091 506.14148 
L 460.980698 506.618182 
L 465.381818 508.732115 
L 470.454545 510.334763 
L 473.182625 506.618182 
L 475.527273 503.709888 
L 476.531217 501.381818 
L 478.582031 496.145455 
L 480.093244 490.909091 
L 480.6 488.235003 
L 481.045387 485.672727 
L 481.295695 480.436364 
L 481.228921 475.2 
L 481.119132 469.963636 
L 480.6 466.327397 
L 480.22357 464.727273 
L 477.844205 459.490909 
L 475.527273 457.006113 
L 473.240291 459.490909 
L 470.454545 462.79005 
L 469.757189 464.727273 
L 468.043465 469.963636 
L 466.471778 475.2 
L 465.381818 478.616556 
L 464.454606 480.436364 
L 461.449163 485.672727 
L 460.309091 487.334206 
L 458.521199 485.672727 
L 455.236364 483.93619 
L 450.163636 482.386036 
L 445.090909 483.184552 
L 442.657814 485.672727 
L 440.018182 489.697802 
L 438.3021 490.909091 
L 434.945455 493.717356 
L 429.872727 492.75392 
L 426.590562 496.145455 
L 424.8 497.471391 
L 421.565085 501.381818 
L 419.727273 503.649953 
L 417.257786 506.618182 
L 414.782746 511.854545 
L 414.654545 512.483467 
L 413.433565 517.090909 
L 412.400078 522.327273 
L 413.01003 527.563636 
L 414.654545 529.827119 
L 419.727273 531.1602 
L 421.920975 532.8 
L 424.8 534.339522 
" style="fill:none;stroke:#808080;"/>
   </g>
   <g id="LineCollection_9">
    <path clip-path="url(#pa6ba5b7ff9)" d="M 328.418182 581.243182 
L 333.490909 581.910447 
L 338.563636 581.905587 
L 343.636364 580.700612 
L 345.140959 579.927273 
L 348.709091 577.276374 
L 351.066524 574.690909 
L 353.341092 569.454545 
L 353.781818 567.435536 
L 354.598227 564.218182 
L 355.3509 558.981818 
L 355.818891 553.745455 
L 355.927025 548.509091 
L 355.079384 543.272727 
L 353.781818 539.273999 
L 353.293531 538.036364 
L 350.25605 532.8 
L 348.709091 530.937679 
L 343.636364 528.403849 
L 338.563636 529.575664 
L 334.83086 532.8 
L 333.490909 533.986417 
L 329.64586 538.036364 
L 328.418182 539.525959 
L 325.494459 543.272727 
L 323.345455 547.066297 
L 322.571693 548.509091 
L 320.51433 553.745455 
L 318.888996 558.981818 
L 318.272727 560.949571 
L 316.973738 564.218182 
L 316.329609 569.454545 
L 318.129931 574.690909 
L 318.272727 574.843887 
L 323.345455 579.57079 
L 324.085831 579.927273 
L 328.418182 581.243182 
" style="fill:none;stroke:#808080;"/>
    <path clip-path="url(#pa6ba5b7ff9)" d="M 389.290909 544.023198 
L 390.311522 543.272727 
L 394.363636 538.744438 
L 394.699989 538.036364 
L 394.956658 532.8 
L 394.363636 530.836769 
L 389.799106 527.563636 
L 389.290909 527.404878 
L 388.98427 527.563636 
L 384.218182 531.012928 
L 383.28071 532.8 
L 383.135985 538.036364 
L 384.218182 540.183325 
L 387.672295 543.272727 
L 389.290909 544.023198 
" style="fill:none;stroke:#808080;"/>
    <path clip-path="url(#pa6ba5b7ff9)" d="M 424.8 528.562124 
L 429.872727 531.325114 
L 433.651842 527.563636 
L 434.945455 525.869067 
L 437.418644 522.327273 
L 440.018182 517.582779 
L 440.784821 517.090909 
L 443.809771 511.854545 
L 440.018182 509.966475 
L 438.405354 506.618182 
L 434.945455 502.94092 
L 433.149411 501.381818 
L 429.872727 499.310755 
L 427.065268 501.381818 
L 424.8 502.906517 
L 421.74368 506.618182 
L 419.727273 510.862387 
L 419.23065 511.854545 
L 419.090021 517.090909 
L 419.727273 520.121413 
L 420.223211 522.327273 
L 423.555438 527.563636 
L 424.8 528.562124 
" style="fill:none;stroke:#808080;"/>
    <path clip-path="url(#pa6ba5b7ff9)" d="M 445.090909 504.611182 
L 450.163636 504.016382 
L 451.483889 501.381818 
L 453.908969 496.145455 
L 452.755885 490.909091 
L 450.163636 489.240012 
L 445.94378 490.909091 
L 445.090909 491.844657 
L 443.891022 496.145455 
L 444.586813 501.381818 
L 445.090909 504.611182 
" style="fill:none;stroke:#808080;"/>
    <path clip-path="url(#pa6ba5b7ff9)" d="M 470.454545 503.68164 
L 472.23739 501.381818 
L 475.527273 497.493078 
L 476.049842 496.145455 
L 477.403636 490.909091 
L 478.167854 485.672727 
L 477.822886 480.436364 
L 476.672533 475.2 
L 475.833855 469.963636 
L 475.527273 468.821187 
L 474.7738 469.963636 
L 470.454545 474.31611 
L 470.215237 475.2 
L 468.374754 480.436364 
L 467.009714 485.672727 
L 466.011456 490.909091 
L 465.381818 495.046773 
L 464.930186 496.145455 
L 465.381818 496.994177 
L 467.353003 501.381818 
L 470.454545 503.68164 
" style="fill:none;stroke:#808080;"/>
   </g>
   <g id="LineCollection_10">
    <path clip-path="url(#pa6ba5b7ff9)" d="M 328.418182 580.170203 
L 333.490909 580.982857 
L 338.563636 581.024721 
L 342.849005 579.927273 
L 343.636364 579.678019 
L 348.709091 575.826717 
L 349.744724 574.690909 
L 352.245326 569.454545 
L 353.424411 564.218182 
L 353.781818 561.325862 
L 354.135502 558.981818 
L 354.590717 553.745455 
L 354.642766 548.509091 
L 353.781818 543.856747 
L 353.664697 543.272727 
L 351.570938 538.036364 
L 348.709091 533.582123 
L 347.45471 532.8 
L 343.636364 530.732325 
L 338.563636 531.960469 
L 337.591721 532.8 
L 333.490909 536.430933 
L 331.966701 538.036364 
L 328.418182 542.341936 
L 327.691856 543.272727 
L 324.511584 548.509091 
L 323.345455 551.531821 
L 322.453537 553.745455 
L 320.711675 558.981818 
L 318.999711 564.218182 
L 318.376564 569.454545 
L 319.967904 574.690909 
L 323.345455 577.869907 
L 327.618386 579.927273 
L 328.418182 580.170203 
" style="fill:none;stroke:#808080;"/>
    <path clip-path="url(#pa6ba5b7ff9)" d="M 429.872727 525.533725 
L 432.218596 522.327273 
L 434.945455 518.072617 
L 435.465447 517.090909 
L 435.372773 511.854545 
L 434.945455 511.156925 
L 431.883904 506.618182 
L 429.872727 504.771835 
L 427.058765 506.618182 
L 424.8 509.077034 
L 423.48201 511.854545 
L 423.949956 517.090909 
L 424.8 519.33126 
L 426.692611 522.327273 
L 429.872727 525.533725 
" style="fill:none;stroke:#808080;"/>
    <path clip-path="url(#pa6ba5b7ff9)" d="M 470.454545 492.401112 
L 471.227444 490.909091 
L 470.454545 486.251808 
L 470.225509 490.909091 
L 470.454545 492.401112 
" style="fill:none;stroke:#808080;"/>
   </g>
   <g id="LineCollection_11">
    <path clip-path="url(#pa6ba5b7ff9)" d="M 333.490909 580.055267 
L 338.563636 580.143855 
L 339.409358 579.927273 
L 343.636364 578.589133 
L 348.419815 574.690909 
L 348.709091 574.226992 
L 351.149559 569.454545 
L 352.42904 564.218182 
L 353.085359 558.981818 
L 353.41851 553.745455 
L 353.386659 548.509091 
L 352.272971 543.272727 
L 349.848345 538.036364 
L 348.709091 536.263203 
L 343.636364 533.052481 
L 338.563636 534.24969 
L 334.34622 538.036364 
L 333.490909 538.852243 
L 329.760885 543.272727 
L 328.418182 545.249393 
L 326.368332 548.509091 
L 324.250028 553.745455 
L 323.345455 556.616285 
L 322.534354 558.981818 
L 320.658105 564.218182 
L 319.968891 569.454545 
L 321.775019 574.690909 
L 323.345455 576.169025 
L 328.418182 578.907667 
L 332.72305 579.927273 
L 333.490909 580.055267 
" style="fill:none;stroke:#808080;"/>
   </g>
   <g id="LineCollection_12">
    <path clip-path="url(#pa6ba5b7ff9)" d="M 328.418182 577.589654 
L 333.490909 578.989232 
L 338.563636 579.180157 
L 343.636364 577.500246 
L 347.083659 574.690909 
L 348.709091 572.084171 
L 350.053793 569.454545 
L 351.433669 564.218182 
L 352.103043 558.981818 
L 352.354278 553.745455 
L 352.187812 548.509091 
L 350.881244 543.272727 
L 348.709091 538.969943 
L 347.60051 538.036364 
L 343.636364 535.30668 
L 338.563636 536.486982 
L 336.838009 538.036364 
L 333.490909 541.229154 
L 331.766533 543.272727 
L 328.418182 548.202017 
L 328.22508 548.509091 
L 325.924975 553.745455 
L 324.231224 558.981818 
L 323.345455 561.454198 
L 322.316498 564.218182 
L 321.561218 569.454545 
L 323.345455 574.142912 
L 323.630561 574.690909 
L 328.418182 577.589654 
" style="fill:none;stroke:#808080;"/>
   </g>
   <g id="LineCollection_13">
    <path clip-path="url(#pa6ba5b7ff9)" d="M 328.418182 576.271641 
L 333.490909 577.901035 
L 338.563636 578.189453 
L 343.636364 576.411359 
L 345.747502 574.690909 
L 348.709091 569.94135 
L 348.958026 569.454545 
L 350.438297 564.218182 
L 351.120727 558.981818 
L 351.290047 553.745455 
L 350.988965 548.509091 
L 349.489518 543.272727 
L 348.709091 541.726792 
L 344.32688 538.036364 
L 343.636364 537.560879 
L 341.572339 538.036364 
L 338.563636 538.674523 
L 333.792897 543.272727 
L 333.490909 543.621852 
L 330.00787 548.509091 
L 328.418182 551.89781 
L 327.599921 553.745455 
L 325.827217 558.981818 
L 323.964221 564.218182 
L 323.345455 568.192527 
L 323.153545 569.454545 
L 323.345455 569.958819 
L 325.807415 574.690909 
L 328.418182 576.271641 
" style="fill:none;stroke:#808080;"/>
   </g>
   <g id="LineCollection_14">
    <path clip-path="url(#pa6ba5b7ff9)" d="M 328.418182 574.953628 
L 333.490909 576.812838 
L 338.563636 577.198748 
L 343.636364 575.322472 
L 344.411346 574.690909 
L 347.802637 569.454545 
L 348.709091 566.774686 
L 349.442926 564.218182 
L 350.138411 558.981818 
L 350.225815 553.745455 
L 349.790118 548.509091 
L 348.709091 544.987925 
L 347.667386 543.272727 
L 343.636364 539.696564 
L 338.563636 540.750011 
L 335.946262 543.272727 
L 333.490909 546.111336 
L 331.782076 548.509091 
L 329.266243 553.745455 
L 328.418182 556.105373 
L 327.42321 558.981818 
L 325.594502 564.218182 
L 324.91609 569.454545 
L 327.98427 574.690909 
L 328.418182 574.953628 
" style="fill:none;stroke:#808080;"/>
   </g>
   <g id="LineCollection_15">
    <path clip-path="url(#pa6ba5b7ff9)" d="M 333.490909 575.724641 
L 338.563636 576.208044 
L 342.54456 574.690909 
L 343.636364 573.95094 
L 346.62972 569.454545 
L 348.39842 564.218182 
L 348.709091 562.301409 
L 349.156095 558.981818 
L 349.161584 553.745455 
L 348.709091 549.4922 
L 348.526216 548.509091 
L 345.295769 543.272727 
L 343.636364 541.800569 
L 338.563636 542.825499 
L 338.099627 543.272727 
L 333.567512 548.509091 
L 333.490909 548.630839 
L 330.924325 553.745455 
L 329.015325 558.981818 
L 328.418182 560.760561 
L 327.224783 564.218182 
L 326.701961 569.454545 
L 328.418182 572.311006 
L 330.738264 574.690909 
L 333.490909 575.724641 
" style="fill:none;stroke:#808080;"/>
   </g>
   <g id="LineCollection_16">
    <path clip-path="url(#pa6ba5b7ff9)" d="M 338.563636 575.217339 
L 339.944976 574.690909 
L 343.636364 572.189074 
L 345.456804 569.454545 
L 347.21605 564.218182 
L 347.981848 558.981818 
L 347.805419 553.745455 
L 346.665425 548.509091 
L 343.636364 544.088287 
L 338.563636 545.150524 
L 335.646488 548.509091 
L 333.490909 551.935019 
L 332.582408 553.745455 
L 330.601019 558.981818 
L 328.873639 564.218182 
L 328.500584 569.454545 
L 333.490909 574.582251 
L 333.927583 574.690909 
L 338.563636 575.217339 
" style="fill:none;stroke:#808080;"/>
   </g>
   <g id="LineCollection_17">
    <path clip-path="url(#pa6ba5b7ff9)" d="M 333.490909 572.411259 
L 338.563636 573.849982 
L 343.636364 570.427207 
L 344.283888 569.454545 
L 346.03368 564.218182 
L 346.647332 558.981818 
L 346.233316 553.745455 
L 344.804634 548.509091 
L 343.636364 546.804044 
L 338.563636 547.544087 
L 337.725464 548.509091 
L 334.508591 553.745455 
L 333.490909 555.602764 
L 332.186713 558.981818 
L 330.573233 564.218182 
L 330.613412 569.454545 
L 333.490909 572.411259 
" style="fill:none;stroke:#808080;"/>
   </g>
   <g id="LineCollection_18">
    <path clip-path="url(#pa6ba5b7ff9)" d="M 333.490909 570.240267 
L 338.563636 572.055548 
L 342.438811 569.454545 
L 343.636364 567.864863 
L 344.85131 564.218182 
L 345.312815 558.981818 
L 344.661213 553.745455 
L 343.636364 550.412092 
L 338.563636 550.744315 
L 336.759714 553.745455 
L 333.923221 558.981818 
L 333.490909 560.021366 
L 332.272828 564.218182 
L 332.726239 569.454545 
L 333.490909 570.240267 
" style="fill:none;stroke:#808080;"/>
   </g>
   <g id="LineCollection_19">
    <path clip-path="url(#pa6ba5b7ff9)" d="M 338.563636 570.261114 
L 339.765325 569.454545 
L 343.636364 564.315961 
L 343.66894 564.218182 
L 343.978299 558.981818 
L 343.636364 556.761691 
L 338.563636 554.687544 
L 336.358461 558.981818 
L 334.340319 564.218182 
L 336.467112 569.454545 
L 338.563636 570.261114 
" style="fill:none;stroke:#808080;"/>
   </g>
   <g id="LineCollection_20">
    <path clip-path="url(#pa6ba5b7ff9)" d="M 338.563636 566.449076 
L 340.064559 564.218182 
L 338.563636 559.965096 
L 337.338479 564.218182 
L 338.563636 566.449076 
" style="fill:none;stroke:#808080;"/>
   </g>
   <g id="PathCollection_1">
    <defs>
     <path d="M 0 2.236068 
C 0.593012 2.236068 1.161816 2.000462 1.581139 1.581139 
C 2.000462 1.161816 2.236068 0.593012 2.236068 0 
C 2.236068 -0.593012 2.000462 -1.161816 1.581139 -1.581139 
C 1.161816 -2.000462 0.593012 -2.236068 0 -2.236068 
C -0.593012 -2.236068 -1.161816 -2.000462 -1.581139 -1.581139 
C -2.000462 -1.161816 -2.236068 -0.593012 -2.236068 0 
C -2.236068 0.593012 -2.000462 1.161816 -1.581139 1.581139 
C -1.161816 2.000462 -0.593012 2.236068 0 2.236068 
z
" id="mf62011d4ae" style="stroke:#000000;"/>
    </defs>
    <g clip-path="url(#pa6ba5b7ff9)">
     <use style="stroke:#000000;" x="449.045383031" xlink:href="#mf62011d4ae" y="321.481199429"/>
    </g>
   </g>
   <g id="PathCollection_2">
    <g clip-path="url(#pa6ba5b7ff9)">
     <use style="stroke:#000000;" x="401.345462024" xlink:href="#mf62011d4ae" y="531.817184644"/>
    </g>
   </g>
   <g id="PathCollection_3">
    <g clip-path="url(#pa6ba5b7ff9)">
     <use style="stroke:#000000;" x="477.280223981" xlink:href="#mf62011d4ae" y="412.866254165"/>
    </g>
   </g>
   <g id="PathCollection_4">
    <g clip-path="url(#pa6ba5b7ff9)">
     <use style="stroke:#000000;" x="454.785794381" xlink:href="#mf62011d4ae" y="498.756370364"/>
    </g>
   </g>
   <g id="PathCollection_5">
    <g clip-path="url(#pa6ba5b7ff9)">
     <use style="stroke:#000000;" x="354.933036281" xlink:href="#mf62011d4ae" y="394.237762238"/>
    </g>
   </g>
   <g id="PathCollection_6">
    <g clip-path="url(#pa6ba5b7ff9)">
     <use style="stroke:#000000;" x="504.550471032" xlink:href="#mf62011d4ae" y="373.756548536"/>
    </g>
   </g>
   <g id="PathCollection_7">
    <g clip-path="url(#pa6ba5b7ff9)">
     <use style="stroke:#000000;" x="462.292697846" xlink:href="#mf62011d4ae" y="371.86013986"/>
    </g>
   </g>
   <g id="PathCollection_8">
    <g clip-path="url(#pa6ba5b7ff9)">
     <use style="stroke:#000000;" x="272.506051018" xlink:href="#mf62011d4ae" y="571.910203073"/>
    </g>
   </g>
   <g id="PathCollection_9">
    <g clip-path="url(#pa6ba5b7ff9)">
     <use style="stroke:#000000;" x="442.838957567" xlink:href="#mf62011d4ae" y="330.504027618"/>
    </g>
   </g>
   <g id="PathCollection_10">
    <g clip-path="url(#pa6ba5b7ff9)">
     <use style="stroke:#000000;" x="254.657264159" xlink:href="#mf62011d4ae" y="566.865134865"/>
    </g>
   </g>
   <g id="PathCollection_11">
    <g clip-path="url(#pa6ba5b7ff9)">
     <use style="stroke:#000000;" x="451.455034539" xlink:href="#mf62011d4ae" y="471.551917277"/>
    </g>
   </g>
   <g id="PathCollection_12">
    <g clip-path="url(#pa6ba5b7ff9)">
     <use style="stroke:#000000;" x="382.309186779" xlink:href="#mf62011d4ae" y="503.931221143"/>
    </g>
   </g>
   <g id="PathCollection_13">
    <g clip-path="url(#pa6ba5b7ff9)">
     <use style="stroke:#000000;" x="303.185889172" xlink:href="#mf62011d4ae" y="473.291418862"/>
    </g>
   </g>
   <g id="PathCollection_14">
    <g clip-path="url(#pa6ba5b7ff9)">
     <use style="stroke:#000000;" x="329.613174372" xlink:href="#mf62011d4ae" y="487.447032307"/>
    </g>
   </g>
   <g id="PathCollection_15">
    <g clip-path="url(#pa6ba5b7ff9)">
     <use style="stroke:#000000;" x="274.013996008" xlink:href="#mf62011d4ae" y="440.254653359"/>
    </g>
   </g>
   <g id="PathCollection_16">
    <g clip-path="url(#pa6ba5b7ff9)">
     <use style="stroke:#000000;" x="306.540018409" xlink:href="#mf62011d4ae" y="417.225336844"/>
    </g>
   </g>
   <g id="PathCollection_17">
    <g clip-path="url(#pa6ba5b7ff9)">
     <use style="stroke:#000000;" x="282.632292646" xlink:href="#mf62011d4ae" y="470.812439051"/>
    </g>
   </g>
   <g id="PathCollection_18">
    <g clip-path="url(#pa6ba5b7ff9)">
     <use style="stroke:#000000;" x="342.020747215" xlink:href="#mf62011d4ae" y="471.551917277"/>
    </g>
   </g>
   <g id="PathCollection_19">
    <g clip-path="url(#pa6ba5b7ff9)">
     <use style="stroke:#000000;" x="335.669336593" xlink:href="#mf62011d4ae" y="443.637419185"/>
    </g>
   </g>
   <g id="PathCollection_20">
    <g clip-path="url(#pa6ba5b7ff9)">
     <use style="stroke:#000000;" x="250.148845225" xlink:href="#mf62011d4ae" y="482.905176632"/>
    </g>
   </g>
   <g id="PathCollection_21">
    <g clip-path="url(#pa6ba5b7ff9)">
     <use style="stroke:#000000;" x="256.205007446" xlink:href="#mf62011d4ae" y="487.447032307"/>
    </g>
   </g>
   <g id="PathCollection_22">
    <g clip-path="url(#pa6ba5b7ff9)">
     <use style="stroke:#000000;" x="231.052767604" xlink:href="#mf62011d4ae" y="349.797695262"/>
    </g>
   </g>
   <g id="PathCollection_23">
    <g clip-path="url(#pa6ba5b7ff9)">
     <use style="stroke:#000000;" x="190.865685697" xlink:href="#mf62011d4ae" y="498.666666667"/>
    </g>
   </g>
   <g id="PathCollection_24">
    <g clip-path="url(#pa6ba5b7ff9)">
     <use style="stroke:#000000;" x="213.122372476" xlink:href="#mf62011d4ae" y="503.770334928"/>
    </g>
   </g>
   <g id="PathCollection_25">
    <g clip-path="url(#pa6ba5b7ff9)">
     <use style="stroke:#000000;" x="228.219755017" xlink:href="#mf62011d4ae" y="498.666666667"/>
    </g>
   </g>
   <g id="PathCollection_26">
    <g clip-path="url(#pa6ba5b7ff9)">
     <use style="stroke:#000000;" x="419.276817378" xlink:href="#mf62011d4ae" y="403.122994652"/>
    </g>
   </g>
   <g id="PathCollection_27">
    <g clip-path="url(#pa6ba5b7ff9)">
     <use style="stroke:#000000;" x="357.871426252" xlink:href="#mf62011d4ae" y="438.151742994"/>
    </g>
   </g>
   <g id="PathCollection_28">
    <g clip-path="url(#pa6ba5b7ff9)">
     <use style="stroke:#000000;" x="276.193565552" xlink:href="#mf62011d4ae" y="523.009960913"/>
    </g>
   </g>
   <g id="PathCollection_29">
    <g clip-path="url(#pa6ba5b7ff9)">
     <use style="stroke:#000000;" x="407.562902753" xlink:href="#mf62011d4ae" y="435.747397641"/>
    </g>
   </g>
   <g id="PathCollection_30">
    <g clip-path="url(#pa6ba5b7ff9)">
     <use style="stroke:#000000;" x="223.698869379" xlink:href="#mf62011d4ae" y="327.791676354"/>
    </g>
   </g>
   <g id="text_15">
    <text style="font-family:Arial;font-size:9.0px;font-style:normal;font-weight:400;text-anchor:start;" transform="rotate(-0.000000, 452.089019, 318.339381)" x="452.089019394" y="318.339381247">2E-16</text>
   </g>
   <g id="text_16">
    <text style="font-family:Arial;font-size:9.0px;font-style:normal;font-weight:400;text-anchor:start;" transform="rotate(-0.000000, 404.389098, 528.675366)" x="404.389098388" y="528.675366462">2E-03</text>
   </g>
   <g id="text_17">
    <text style="font-family:Arial;font-size:9.0px;font-style:normal;font-weight:400;text-anchor:start;" transform="rotate(-0.000000, 480.323860, 409.724436)" x="480.323860344" y="409.724435983">4E-04</text>
   </g>
   <g id="text_18">
    <text style="font-family:Arial;font-size:9.0px;font-style:normal;font-weight:400;text-anchor:start;" transform="rotate(-0.000000, 457.829431, 495.614552)" x="457.829430744" y="495.614552182">2E-03</text>
   </g>
   <g id="text_19">
    <text style="font-family:Arial;font-size:9.0px;font-style:normal;font-weight:400;text-anchor:start;" transform="rotate(-0.000000, 357.976673, 391.095944)" x="357.976672644" y="391.095944056">1E-10</text>
   </g>
   <g id="text_20">
    <text style="font-family:Arial;font-size:9.0px;font-style:normal;font-weight:400;text-anchor:start;" transform="rotate(-0.000000, 507.594107, 370.614730)" x="507.594107396" y="370.614730354">1E-04</text>
   </g>
   <g id="text_21">
    <text style="font-family:Arial;font-size:9.0px;font-style:normal;font-weight:400;text-anchor:start;" transform="rotate(-0.000000, 465.336334, 368.718322)" x="465.336334209" y="368.718321678">2E-05</text>
   </g>
   <g id="text_22">
    <text style="font-family:Arial;font-size:9.0px;font-style:normal;font-weight:400;text-anchor:start;" transform="rotate(-0.000000, 275.549687, 568.768385)" x="275.549687381" y="568.768384891">3E-04</text>
   </g>
   <g id="text_23">
    <text style="font-family:Arial;font-size:9.0px;font-style:normal;font-weight:400;text-anchor:start;" transform="rotate(-0.000000, 445.882594, 327.362209)" x="445.882593931" y="327.362209436">4E-14</text>
   </g>
   <g id="text_24">
    <text style="font-family:Arial;font-size:9.0px;font-style:normal;font-weight:400;text-anchor:start;" transform="rotate(-0.000000, 257.700901, 563.723317)" x="257.700900522" y="563.723316683">2E-04</text>
   </g>
   <g id="text_25">
    <text style="font-family:Arial;font-size:9.0px;font-style:normal;font-weight:400;text-anchor:start;" transform="rotate(-0.000000, 454.498671, 468.410099)" x="454.498670902" y="468.410099095">1E-03</text>
   </g>
   <g id="text_26">
    <text style="font-family:Arial;font-size:9.0px;font-style:normal;font-weight:400;text-anchor:start;" transform="rotate(-0.000000, 385.352823, 500.789403)" x="385.352823142" y="500.789402961">8E-04</text>
   </g>
   <g id="text_27">
    <text style="font-family:Arial;font-size:9.0px;font-style:normal;font-weight:400;text-anchor:start;" transform="rotate(-0.000000, 306.229526, 470.149601)" x="306.229525535" y="470.14960068">4E-05</text>
   </g>
   <g id="text_28">
    <text style="font-family:Arial;font-size:9.0px;font-style:normal;font-weight:400;text-anchor:start;" transform="rotate(-0.000000, 332.656811, 484.305214)" x="332.656810736" y="484.305214125">2E-04</text>
   </g>
   <g id="text_29">
    <text style="font-family:Arial;font-size:9.0px;font-style:normal;font-weight:400;text-anchor:start;" transform="rotate(-0.000000, 277.057632, 437.112835)" x="277.057632372" y="437.112835177">6E-14</text>
   </g>
   <g id="text_30">
    <text style="font-family:Arial;font-size:9.0px;font-style:normal;font-weight:400;text-anchor:start;" transform="rotate(-0.000000, 309.583655, 414.083519)" x="309.583654772" y="414.083518662">2E-14</text>
   </g>
   <g id="text_31">
    <text style="font-family:Arial;font-size:9.0px;font-style:normal;font-weight:400;text-anchor:start;" transform="rotate(-0.000000, 285.675929, 467.670621)" x="285.67592901" y="467.670620869">3E-05</text>
   </g>
   <g id="text_32">
    <text style="font-family:Arial;font-size:9.0px;font-style:normal;font-weight:400;text-anchor:start;" transform="rotate(-0.000000, 345.064384, 468.410099)" x="345.064383579" y="468.410099095">7E-05</text>
   </g>
   <g id="text_33">
    <text style="font-family:Arial;font-size:9.0px;font-style:normal;font-weight:400;text-anchor:start;" transform="rotate(-0.000000, 338.712973, 440.495601)" x="338.712972957" y="440.495601003">2E-05</text>
   </g>
   <g id="text_34">
    <text style="font-family:Arial;font-size:9.0px;font-style:normal;font-weight:400;text-anchor:start;" transform="rotate(-0.000000, 253.192482, 479.763358)" x="253.192481588" y="479.76335845">1E-05</text>
   </g>
   <g id="text_35">
    <text style="font-family:Arial;font-size:9.0px;font-style:normal;font-weight:400;text-anchor:start;" transform="rotate(-0.000000, 259.248644, 484.305214)" x="259.24864381" y="484.305214125">2E-05</text>
   </g>
   <g id="text_36">
    <text style="font-family:Arial;font-size:9.0px;font-style:normal;font-weight:400;text-anchor:start;" transform="rotate(-0.000000, 234.096404, 346.655877)" x="234.096403968" y="346.655877081">2E-133</text>
   </g>
   <g id="text_37">
    <text style="font-family:Arial;font-size:9.0px;font-style:normal;font-weight:400;text-anchor:start;" transform="rotate(-0.000000, 193.909322, 495.524848)" x="193.909322061" y="495.524848485">4E-13</text>
   </g>
   <g id="text_38">
    <text style="font-family:Arial;font-size:9.0px;font-style:normal;font-weight:400;text-anchor:start;" transform="rotate(-0.000000, 216.166009, 500.628517)" x="216.16600884" y="500.628516746">6E-08</text>
   </g>
   <g id="text_39">
    <text style="font-family:Arial;font-size:9.0px;font-style:normal;font-weight:400;text-anchor:start;" transform="rotate(-0.000000, 231.263391, 495.524848)" x="231.263391381" y="495.524848485">5E-06</text>
   </g>
   <g id="text_40">
    <text style="font-family:Arial;font-size:9.0px;font-style:normal;font-weight:400;text-anchor:start;" transform="rotate(-0.000000, 422.320454, 399.981176)" x="422.320453742" y="399.981176471">2E-05</text>
   </g>
   <g id="text_41">
    <text style="font-family:Arial;font-size:9.0px;font-style:normal;font-weight:400;text-anchor:start;" transform="rotate(-0.000000, 360.915063, 435.009925)" x="360.915062616" y="435.009924812">2E-05</text>
   </g>
   <g id="text_42">
    <text style="font-family:Arial;font-size:9.0px;font-style:normal;font-weight:400;text-anchor:start;" transform="rotate(-0.000000, 279.237202, 519.868143)" x="279.237201916" y="519.868142731">8E-05</text>
   </g>
   <g id="text_43">
    <text style="font-family:Arial;font-size:9.0px;font-style:normal;font-weight:400;text-anchor:start;" transform="rotate(-0.000000, 410.606539, 432.605579)" x="410.606539116" y="432.605579459">9E-05</text>
   </g>
   <g id="text_44">
    <text style="font-family:Arial;font-size:9.0px;font-style:normal;font-weight:400;text-anchor:start;" transform="rotate(-0.000000, 226.742506, 324.649858)" x="226.742505743" y="324.649858173">3E-184</text>
   </g>
  </g>
 </g>
 <defs>
  <clipPath id="pa6ba5b7ff9">
   <rect height="576.0" width="558.0" x="90.0" y="72.0"/>
  </clipPath>
 </defs>
</svg>
