<?xml version="1.0" encoding="utf-8" standalone="no"?>
<!DOCTYPE svg PUBLIC "-//W3C//DTD SVG 1.1//EN"
  "http://www.w3.org/Graphics/SVG/1.1/DTD/svg11.dtd">
<!-- Created with matplotlib (http://matplotlib.org/) -->
<svg height="720pt" version="1.1" viewBox="0 0 720 720" width="720pt" xmlns="http://www.w3.org/2000/svg" xmlns:xlink="http://www.w3.org/1999/xlink">
 <defs>
  <style type="text/css">
*{stroke-linecap:butt;stroke-linejoin:round;stroke-miterlimit:100000;}
  </style>
 </defs>
 <g id="figure_1">
  <g id="patch_1">
   <path d="M 0 720 
L 720 720 
L 720 0 
L 0 0 
z
" style="fill:#ffffff;"/>
  </g>
  <g id="axes_1">
   <g id="patch_2">
    <path d="M 90 648 
L 648 648 
L 648 72 
L 90 72 
z
" style="fill:#ffffff;"/>
   </g>
   <g id="patch_3">
    <path d="M 90 72 
L 648 72 
" style="fill:none;"/>
   </g>
   <g id="patch_4">
    <path d="M 648 648 
L 648 72 
" style="fill:none;"/>
   </g>
   <g id="patch_5">
    <path d="M 90 658 
L 648 658 
" style="fill:none;stroke:#000000;stroke-linecap:square;stroke-linejoin:miter;stroke-width:0.75;"/>
   </g>
   <g id="patch_6">
    <path d="M 80 648 
L 80 72 
" style="fill:none;stroke:#000000;stroke-linecap:square;stroke-linejoin:miter;stroke-width:0.75;"/>
   </g>
   <g id="matplotlib.axis_1">
    <g id="xtick_1">
     <g id="line2d_1">
      <defs>
       <path d="M 0 0 
L 0 -4 
" id="m5fd094ad8a" style="stroke:#000000;stroke-width:0.75;"/>
      </defs>
      <g>
       <use style="stroke:#000000;stroke-width:0.75;" x="90.0" xlink:href="#m5fd094ad8a" y="658.0"/>
      </g>
     </g>
     <g id="text_1">
      <text style="font-family:Arial;font-size:9.0px;font-style:normal;font-weight:400;text-anchor:middle;" transform="rotate(-0.000000, 90.000000, 668.442031)" x="90.0" y="668.44203125">−2</text>
     </g>
    </g>
    <g id="xtick_2">
     <g id="line2d_2">
      <g>
       <use style="stroke:#000000;stroke-width:0.75;" x="191.454545455" xlink:href="#m5fd094ad8a" y="658.0"/>
      </g>
     </g>
     <g id="text_2">
      <text style="font-family:Arial;font-size:9.0px;font-style:normal;font-weight:400;text-anchor:middle;" transform="rotate(-0.000000, 191.454545, 668.442031)" x="191.454545455" y="668.44203125">−1</text>
     </g>
    </g>
    <g id="xtick_3">
     <g id="line2d_3">
      <g>
       <use style="stroke:#000000;stroke-width:0.75;" x="292.909090909" xlink:href="#m5fd094ad8a" y="658.0"/>
      </g>
     </g>
     <g id="text_3">
      <text style="font-family:Arial;font-size:9.0px;font-style:normal;font-weight:400;text-anchor:middle;" transform="rotate(-0.000000, 292.909091, 668.442031)" x="292.909090909" y="668.44203125">0</text>
     </g>
    </g>
    <g id="xtick_4">
     <g id="line2d_4">
      <g>
       <use style="stroke:#000000;stroke-width:0.75;" x="394.363636364" xlink:href="#m5fd094ad8a" y="658.0"/>
      </g>
     </g>
     <g id="text_4">
      <text style="font-family:Arial;font-size:9.0px;font-style:normal;font-weight:400;text-anchor:middle;" transform="rotate(-0.000000, 394.363636, 668.442031)" x="394.363636364" y="668.44203125">1</text>
     </g>
    </g>
    <g id="xtick_5">
     <g id="line2d_5">
      <g>
       <use style="stroke:#000000;stroke-width:0.75;" x="495.818181818" xlink:href="#m5fd094ad8a" y="658.0"/>
      </g>
     </g>
     <g id="text_5">
      <text style="font-family:Arial;font-size:9.0px;font-style:normal;font-weight:400;text-anchor:middle;" transform="rotate(-0.000000, 495.818182, 668.442031)" x="495.818181818" y="668.44203125">2</text>
     </g>
    </g>
    <g id="xtick_6">
     <g id="line2d_6">
      <g>
       <use style="stroke:#000000;stroke-width:0.75;" x="597.272727273" xlink:href="#m5fd094ad8a" y="658.0"/>
      </g>
     </g>
     <g id="text_6">
      <text style="font-family:Arial;font-size:9.0px;font-style:normal;font-weight:400;text-anchor:middle;" transform="rotate(-0.000000, 597.272727, 668.442031)" x="597.272727273" y="668.44203125">3</text>
     </g>
    </g>
    <g id="text_7">
     <text style="font-family:Arial;font-size:9.0px;font-style:normal;font-weight:400;text-anchor:middle;" transform="rotate(-0.000000, 369.000000, 681.782500)" x="369.0" y="681.7825">windspeed along trajectory, m/s</text>
    </g>
   </g>
   <g id="matplotlib.axis_2">
    <g id="ytick_1">
     <g id="line2d_7">
      <defs>
       <path d="M 0 0 
L 4 0 
" id="m38f97e8753" style="stroke:#000000;stroke-width:0.75;"/>
      </defs>
      <g>
       <use style="stroke:#000000;stroke-width:0.75;" x="80.0" xlink:href="#m38f97e8753" y="595.636363636"/>
      </g>
     </g>
     <g id="text_8">
      <text style="font-family:Arial;font-size:9.0px;font-style:normal;font-weight:400;text-anchor:end;" transform="rotate(-0.000000, 76.000000, 597.963004)" x="76.0" y="597.963004261">0</text>
     </g>
    </g>
    <g id="ytick_2">
     <g id="line2d_8">
      <g>
       <use style="stroke:#000000;stroke-width:0.75;" x="80.0" xlink:href="#m38f97e8753" y="490.909090909"/>
      </g>
     </g>
     <g id="text_9">
      <text style="font-family:Arial;font-size:9.0px;font-style:normal;font-weight:400;text-anchor:end;" transform="rotate(-0.000000, 76.000000, 493.235732)" x="76.0" y="493.235731534">1</text>
     </g>
    </g>
    <g id="ytick_3">
     <g id="line2d_9">
      <g>
       <use style="stroke:#000000;stroke-width:0.75;" x="80.0" xlink:href="#m38f97e8753" y="386.181818182"/>
      </g>
     </g>
     <g id="text_10">
      <text style="font-family:Arial;font-size:9.0px;font-style:normal;font-weight:400;text-anchor:end;" transform="rotate(-0.000000, 76.000000, 388.508459)" x="76.0" y="388.508458807">2</text>
     </g>
    </g>
    <g id="ytick_4">
     <g id="line2d_10">
      <g>
       <use style="stroke:#000000;stroke-width:0.75;" x="80.0" xlink:href="#m38f97e8753" y="281.454545455"/>
      </g>
     </g>
     <g id="text_11">
      <text style="font-family:Arial;font-size:9.0px;font-style:normal;font-weight:400;text-anchor:end;" transform="rotate(-0.000000, 76.000000, 283.781186)" x="76.0" y="283.78118608">3</text>
     </g>
    </g>
    <g id="ytick_5">
     <g id="line2d_11">
      <g>
       <use style="stroke:#000000;stroke-width:0.75;" x="80.0" xlink:href="#m38f97e8753" y="176.727272727"/>
      </g>
     </g>
     <g id="text_12">
      <text style="font-family:Arial;font-size:9.0px;font-style:normal;font-weight:400;text-anchor:end;" transform="rotate(-0.000000, 76.000000, 179.053913)" x="76.0" y="179.053913352">4</text>
     </g>
    </g>
    <g id="ytick_6">
     <g id="line2d_12">
      <g>
       <use style="stroke:#000000;stroke-width:0.75;" x="80.0" xlink:href="#m38f97e8753" y="72.0"/>
      </g>
     </g>
     <g id="text_13">
      <text style="font-family:Arial;font-size:9.0px;font-style:normal;font-weight:400;text-anchor:end;" transform="rotate(-0.000000, 76.000000, 74.326641)" x="76.0" y="74.326640625">5</text>
     </g>
    </g>
    <g id="text_14">
     <text style="font-family:Arial;font-size:9.0px;font-style:normal;font-weight:400;text-anchor:middle;" transform="rotate(-90.000000, 64.100937, 360.000000)" x="64.1009375" y="360.0">groundspeed along trajectory, m/s</text>
    </g>
   </g>
   <g id="LineCollection_1">
    <path clip-path="url(#p2577cb6e89)" d="M 171.163636 535.269058 
L 176.236364 536.016089 
L 181.050926 532.8 
L 181.309091 532.426196 
L 186.381818 527.790828 
L 191.454545 524.995824 
L 196.527273 522.007379 
L 201.6 518.37744 
L 206.672727 516.442476 
L 211.745455 513.008075 
L 213.036848 511.854545 
L 216.818182 506.835587 
L 217.22964 506.618182 
L 221.890909 505.32228 
L 226.963636 504.161534 
L 232.036364 504.257009 
L 237.109091 504.588099 
L 242.181818 504.432921 
L 252.327273 503.529322 
L 257.4 502.692788 
L 261.037476 501.381818 
L 262.472727 501.24109 
L 267.545455 500.622327 
L 272.618182 499.865094 
L 277.690909 498.756616 
L 284.750573 496.145455 
L 287.836364 495.76343 
L 292.909091 495.341471 
L 297.981818 495.154175 
L 303.054545 495.220824 
L 308.127273 495.552108 
L 312.691726 496.145455 
L 313.2 496.339849 
L 318.272727 498.934343 
L 323.345455 500.267308 
L 328.418182 501.0168 
L 333.925095 501.381818 
L 338.563636 501.98891 
L 343.636364 502.445942 
L 348.709091 501.961363 
L 350.278163 501.381818 
L 353.781818 500.977269 
L 358.854545 499.488323 
L 363.927273 496.596764 
L 365.397677 496.145455 
L 369 495.175961 
L 374.072727 494.551079 
L 379.145455 495.305383 
L 384.218182 496.534132 
L 389.290909 497.545237 
L 394.363636 497.600965 
L 399.436364 496.797435 
L 404.509091 496.195923 
L 409.581818 497.036478 
L 414.654545 496.886474 
L 416.037741 496.145455 
L 419.727273 494.647621 
L 423.447324 490.909091 
L 424.8 488.929256 
L 427.848107 485.672727 
L 429.872727 483.954711 
L 440.018182 474.740254 
L 445.090909 469.896753 
L 450.163636 464.345867 
L 455.236364 458.667729 
L 470.856625 443.781818 
L 475.527273 437.53409 
L 479.688324 433.309091 
L 490.745455 424.689923 
L 497.887031 417.6 
L 500.890909 414.694656 
L 503.135407 412.363636 
L 505.963636 408.751632 
L 507.382433 407.127273 
L 511.036364 401.43063 
L 515.128249 396.654545 
L 516.109091 395.264203 
L 519.395094 391.418182 
L 521.181818 388.574006 
L 522.940993 386.181818 
L 524.50642 380.945455 
L 523.78606 375.709091 
L 521.181818 371.497771 
L 519.05785 370.472727 
L 516.109091 368.180522 
L 511.036364 367.667297 
L 509.727065 365.236364 
L 509.293185 360 
L 507.261224 354.763636 
L 505.963636 352.997518 
L 501.750587 349.527273 
L 500.890909 349.081916 
L 495.818182 348.572005 
L 490.745455 348.457806 
L 485.672727 347.597932 
L 480.6 347.682948 
L 473.888855 349.527273 
L 460.309091 353.235096 
L 455.236364 355.132599 
L 450.163636 356.678855 
L 445.090909 358.09583 
L 440.018182 360.822942 
L 433.5444 365.236364 
L 429.872727 367.162805 
L 424.8 369.409834 
L 423.113867 370.472727 
L 419.727273 372.471798 
L 414.654545 376.638854 
L 408.764722 380.945455 
L 404.509091 384.361615 
L 402.507635 386.181818 
L 399.436364 389.636151 
L 394.363636 394.205968 
L 389.290909 397.889843 
L 383.030766 401.890909 
L 379.145455 404.869685 
L 374.072727 408.408506 
L 368.284624 412.363636 
L 363.927273 415.497542 
L 358.854545 418.813519 
L 353.781818 421.203074 
L 340.921533 428.072727 
L 338.563636 429.435885 
L 333.490909 431.948633 
L 331.309255 433.309091 
L 328.418182 434.927467 
L 322.461576 438.545455 
L 318.272727 440.377919 
L 313.2 443.018931 
L 312.049634 443.781818 
L 308.127273 446.085064 
L 301.750814 449.018182 
L 297.981818 450.403673 
L 292.909091 452.661581 
L 290.203117 454.254545 
L 287.836364 455.513854 
L 282.763636 458.038936 
L 280.213431 459.490909 
L 277.690909 460.666492 
L 272.618182 462.647226 
L 267.545455 465.151522 
L 262.472727 467.317763 
L 256.732451 469.963636 
L 252.327273 471.168877 
L 247.254545 472.943412 
L 243.084752 475.2 
L 237.109091 476.785639 
L 232.036364 478.740707 
L 228.950309 480.436364 
L 226.963636 481.252524 
L 221.890909 484.050837 
L 219.521517 485.672727 
L 216.818182 488.432108 
L 213.991295 490.909091 
L 211.745455 493.580563 
L 206.672727 495.718265 
L 205.969958 496.145455 
L 201.6 498.275134 
L 197.479797 501.381818 
L 196.527273 502.290018 
L 192.755892 506.618182 
L 191.454545 508.720151 
L 189.193285 511.854545 
L 186.066763 517.090909 
L 182.375517 522.327273 
L 181.309091 523.259159 
L 176.236364 526.018781 
L 174.209535 527.563636 
L 171.163636 531.260771 
L 170.259404 532.8 
L 171.163636 535.269058 
L 171.163636 535.269058 
" style="fill:none;stroke:#808080;"/>
    <path clip-path="url(#p2577cb6e89)" d="M 445.090909 412.977245 
L 444.846085 412.363636 
L 444.756352 407.127273 
L 445.090909 406.803618 
L 445.774262 407.127273 
L 445.669413 412.363636 
L 445.090909 412.977245 
" style="fill:none;stroke:#808080;"/>
    <path clip-path="url(#p2577cb6e89)" d="M 460.309091 387.303653 
L 457.057507 386.181818 
L 460.309091 385.098146 
L 464.800127 386.181818 
L 460.309091 387.303653 
" style="fill:none;stroke:#808080;"/>
   </g>
   <g id="LineCollection_2">
    <path clip-path="url(#p2577cb6e89)" d="M 226.963636 496.587914 
L 232.036364 499.008115 
L 237.109091 500.276445 
L 242.181818 500.702521 
L 247.254545 500.690223 
L 252.327273 500.515777 
L 257.4 500.089197 
L 262.472727 499.135785 
L 267.545455 497.621314 
L 271.617861 496.145455 
L 287.836364 493.296343 
L 292.909091 492.54052 
L 297.981818 492.064401 
L 303.054545 492.052429 
L 308.127273 492.709509 
L 313.2 493.882803 
L 320.728272 496.145455 
L 323.345455 497.452503 
L 328.418182 499.277832 
L 333.490909 500.054047 
L 338.563636 500.357077 
L 343.636364 500.476349 
L 348.709091 500.089435 
L 353.781818 498.698736 
L 358.854545 495.521096 
L 363.927273 491.260368 
L 364.642715 490.909091 
L 367.321308 485.672727 
L 363.927273 481.732828 
L 363.239541 480.436364 
L 357.542671 475.2 
L 353.781818 472.198163 
L 349.387509 469.963636 
L 348.709091 469.452006 
L 343.636364 466.459458 
L 338.563636 465.154199 
L 334.549157 464.727273 
L 333.490909 463.789666 
L 328.418182 462.454922 
L 323.636473 459.490909 
L 328.418182 457.694847 
L 333.490909 457.31925 
L 338.563636 456.701557 
L 343.636364 456.261638 
L 348.709091 455.69387 
L 355.076377 454.254545 
L 358.854545 453.131456 
L 363.927273 453.992916 
L 364.329786 454.254545 
L 369 456.465352 
L 374.072727 459.892042 
L 377.544715 464.727273 
L 379.145455 467.591145 
L 380.185407 469.963636 
L 381.094807 475.2 
L 379.145455 482.276093 
L 377.319344 485.672727 
L 379.145455 487.733622 
L 381.06377 490.909091 
L 384.218182 492.508644 
L 389.290909 493.958154 
L 394.363636 494.093685 
L 399.436364 493.165849 
L 404.509091 492.486703 
L 409.581818 493.601624 
L 414.654545 493.710789 
L 419.245164 490.909091 
L 419.727273 490.378336 
L 424.8 483.157818 
L 428.093477 480.436364 
L 429.872727 479.152052 
L 434.945455 475.141182 
L 441.05553 469.963636 
L 445.090909 466.238175 
L 446.48969 464.727273 
L 450.472876 459.490909 
L 455.609118 454.254545 
L 460.309091 450.357954 
L 461.682388 449.018182 
L 465.381818 445.851017 
L 467.489017 443.781818 
L 471.659683 438.545455 
L 475.527273 432.98545 
L 481.805798 428.072727 
L 485.672727 425.927421 
L 490.745455 421.368366 
L 500.890909 411.237976 
L 504.520854 407.127273 
L 505.963636 404.667682 
L 508.094273 401.890909 
L 511.482573 396.654545 
L 515.28478 391.418182 
L 516.109091 389.995278 
L 518.694141 386.181818 
L 520.160453 380.945455 
L 516.109091 375.669175 
L 516.020333 375.709091 
L 511.036364 377.713104 
L 505.963636 380.430946 
L 503.687872 380.945455 
L 500.890909 381.441766 
L 495.818182 381.173458 
L 490.745455 383.526504 
L 488.427143 386.181818 
L 485.672727 391.589178 
L 481.09537 401.890909 
L 480.6 402.653918 
L 477.469175 407.127273 
L 475.527273 410.441086 
L 474.006955 412.363636 
L 470.454545 419.1728 
L 466.610591 422.836364 
L 460.309091 427.614095 
L 455.643389 433.309091 
L 455.236364 433.944974 
L 450.163636 440.042195 
L 446.22346 443.781818 
L 445.090909 445.025556 
L 440.018182 449.414777 
L 434.945455 454.421407 
L 430.829728 459.490909 
L 429.872727 461.091687 
L 424.8 467.103934 
L 419.986743 464.727273 
L 419.727273 463.492099 
L 419.350808 459.490909 
L 419.423967 454.254545 
L 419.371751 449.018182 
L 418.318322 443.781818 
L 416.249744 438.545455 
L 413.056747 433.309091 
L 409.581818 429.002282 
L 408.224276 428.072727 
L 406.417901 422.836364 
L 409.581818 421.370695 
L 414.654545 420.793486 
L 420.730118 417.6 
L 421.707105 412.363636 
L 419.727273 410.96245 
L 414.654545 405.990959 
L 409.581818 404.158563 
L 404.509091 405.706088 
L 397.552142 407.127273 
L 394.363636 408.01579 
L 389.290909 412.800339 
L 384.218182 416.78556 
L 382.908207 417.6 
L 379.145455 421.486394 
L 376.739697 422.836364 
L 374.072727 423.927524 
L 369 425.83612 
L 363.927273 430.486775 
L 358.854545 431.422677 
L 353.781818 431.032835 
L 348.709091 432.455532 
L 347.093547 433.309091 
L 343.636364 436.425242 
L 337.582965 438.545455 
L 333.490909 439.867737 
L 328.418182 442.342996 
L 324.754945 443.781818 
L 323.345455 444.528894 
L 318.272727 446.402401 
L 313.175213 449.018182 
L 308.127273 452.804987 
L 303.054545 454.48566 
L 297.981818 457.248298 
L 292.909091 459.708314 
L 287.836364 462.656443 
L 281.585 464.727273 
L 277.690909 466.202442 
L 272.618182 467.887335 
L 267.545455 470.090183 
L 257.4 473.545232 
L 252.327273 475.226984 
L 247.254545 476.303322 
L 242.181818 477.825405 
L 236.201958 480.436364 
L 232.036364 481.909529 
L 225.73406 485.672727 
L 222.08868 490.909091 
L 226.031621 496.145455 
L 226.963636 496.587914 
L 226.963636 496.587914 
" style="fill:none;stroke:#808080;"/>
    <path clip-path="url(#p2577cb6e89)" d="M 399.436364 457.670997 
L 397.698589 454.254545 
L 394.363636 449.318836 
L 394.189845 449.018182 
L 394.363636 448.740168 
L 399.436364 448.338906 
L 400.223413 449.018182 
L 402.098754 454.254545 
L 399.436364 457.670997 
" style="fill:none;stroke:#808080;"/>
    <path clip-path="url(#p2577cb6e89)" d="M 409.581818 396.423986 
L 414.654545 395.572477 
L 417.269516 391.418182 
L 419.727273 387.472183 
L 420.685008 386.181818 
L 424.8 382.901774 
L 428.591073 380.945455 
L 429.872727 378.694766 
L 434.945455 376.461389 
L 438.576024 375.709091 
L 434.945455 374.909169 
L 429.872727 375.230229 
L 427.847737 375.709091 
L 424.8 377.819228 
L 419.727273 380.492412 
L 419.140977 380.945455 
L 414.654545 385.022693 
L 412.903404 386.181818 
L 409.581818 390.074495 
L 408.70856 391.418182 
L 409.581818 396.423986 
" style="fill:none;stroke:#808080;"/>
    <path clip-path="url(#p2577cb6e89)" d="M 475.527273 376.47294 
L 478.681645 375.709091 
L 480.6 373.779489 
L 485.672727 370.966164 
L 490.745455 374.742856 
L 494.309098 375.709091 
L 495.818182 377.746443 
L 495.995617 375.709091 
L 497.357922 370.472727 
L 496.721739 365.236364 
L 495.818182 363.93926 
L 490.745455 361.179672 
L 488.652484 360 
L 485.672727 359.145635 
L 480.6 358.816618 
L 475.527273 359.599332 
L 470.658981 360 
L 470.454545 360.056026 
L 465.381818 362.506048 
L 460.309091 364.646078 
L 458.23814 365.236364 
L 460.309091 367.500648 
L 465.381818 368.570229 
L 469.50805 370.472727 
L 470.454545 370.854211 
L 474.727961 375.709091 
L 475.527273 376.47294 
" style="fill:none;stroke:#808080;"/>
    <path clip-path="url(#p2577cb6e89)" d="M 440.018182 373.804982 
L 445.090909 373.103091 
L 450.163636 371.273817 
L 454.265626 370.472727 
L 450.163636 368.474682 
L 445.090909 367.819199 
L 440.018182 370.169142 
L 439.453174 370.472727 
L 440.018182 373.804982 
" style="fill:none;stroke:#808080;"/>
   </g>
   <g id="LineCollection_3">
    <path clip-path="url(#p2577cb6e89)" d="M 237.109091 498.176474 
L 242.181818 499.179628 
L 247.254545 499.360841 
L 252.327273 499.182668 
L 257.4 498.532928 
L 262.472727 497.03048 
L 264.769179 496.145455 
L 267.545455 495.530257 
L 272.618182 494.523851 
L 277.690909 493.469747 
L 282.763636 492.208664 
L 287.587522 490.909091 
L 287.836364 490.864959 
L 292.909091 490.339162 
L 297.981818 490.043163 
L 303.054545 490.012938 
L 308.127273 490.405003 
L 310.98702 490.909091 
L 313.2 491.566308 
L 318.272727 493.634138 
L 323.345455 495.491914 
L 325.377874 496.145455 
L 328.418182 497.538864 
L 333.490909 498.739165 
L 338.563636 499.212472 
L 343.636364 499.363322 
L 348.709091 498.685415 
L 353.781818 496.420202 
L 354.235526 496.145455 
L 358.854545 492.777724 
L 360.996488 490.909091 
L 361.794053 485.672727 
L 358.854545 481.737733 
L 358.055991 480.436364 
L 353.781818 476.367931 
L 352.046234 475.2 
L 348.709091 472.636915 
L 343.636364 470.509872 
L 341.468592 469.963636 
L 338.563636 468.602826 
L 333.490909 467.5244 
L 328.418182 467.261858 
L 323.345455 467.2463 
L 318.272727 467.40469 
L 313.2 467.59455 
L 308.127273 467.718909 
L 303.054545 468.057633 
L 297.981818 468.932312 
L 294.618409 469.963636 
L 292.909091 470.128799 
L 287.836364 470.579803 
L 282.763636 470.905317 
L 277.690909 471.176741 
L 272.618182 471.934268 
L 267.545455 473.575012 
L 263.079571 475.2 
L 262.472727 475.297102 
L 257.4 476.080262 
L 252.327273 476.95546 
L 247.254545 478.289764 
L 242.181818 480.220261 
L 241.699691 480.436364 
L 237.109091 481.787437 
L 232.036364 484.187804 
L 229.7075 485.672727 
L 226.963636 490.865227 
L 226.932216 490.909091 
L 226.963636 490.94565 
L 232.036364 495.740746 
L 232.671722 496.145455 
L 237.109091 498.176474 
" style="fill:none;stroke:#808080;"/>
    <path clip-path="url(#p2577cb6e89)" d="M 389.290909 490.966111 
L 394.363636 491.195583 
L 395.53582 490.909091 
L 399.436364 488.072071 
L 403.419656 485.672727 
L 399.436364 481.386562 
L 398.927485 480.436364 
L 395.193763 475.2 
L 394.363636 473.701088 
L 389.290909 472.974231 
L 388.63099 475.2 
L 385.619946 480.436364 
L 384.218182 484.016185 
L 383.708199 485.672727 
L 384.218182 486.393496 
L 389.131071 490.909091 
L 389.290909 490.966111 
" style="fill:none;stroke:#808080;"/>
    <path clip-path="url(#p2577cb6e89)" d="M 409.581818 489.994357 
L 414.654545 490.886713 
L 419.36162 485.672727 
L 419.727273 483.338237 
L 420.506658 480.436364 
L 419.727273 479.100216 
L 414.873865 475.2 
L 414.654545 474.985719 
L 414.426443 475.2 
L 409.581818 479.176597 
L 408.808072 480.436364 
L 405.129964 485.672727 
L 409.581818 489.994357 
" style="fill:none;stroke:#808080;"/>
    <path clip-path="url(#p2577cb6e89)" d="M 429.872727 470.513008 
L 434.945455 470.889569 
L 436.101033 469.963636 
L 440.018182 467.244721 
L 442.747205 464.727273 
L 445.090909 462.061604 
L 447.020791 459.490909 
L 450.163636 455.240619 
L 451.126389 454.254545 
L 455.236364 451.031093 
L 457.660101 449.018182 
L 460.309091 446.897325 
L 464.01747 443.781818 
L 465.381818 442.769794 
L 468.902224 438.545455 
L 470.454545 435.097961 
L 471.617317 433.309091 
L 475.527273 429.020101 
L 476.791765 428.072727 
L 480.6 426.364912 
L 485.672727 423.542315 
L 486.453851 422.836364 
L 490.745455 419.023973 
L 492.165742 417.6 
L 495.818182 414.215629 
L 497.667584 412.363636 
L 500.890909 408.939523 
L 502.491211 407.127273 
L 505.623109 401.890909 
L 505.963636 401.1035 
L 508.803023 396.654545 
L 511.036364 392.811489 
L 512.061833 391.418182 
L 513.974877 386.181818 
L 511.036364 383.531919 
L 505.963636 385.109263 
L 503.732231 386.181818 
L 500.890909 387.265939 
L 495.818182 389.536635 
L 493.635314 391.418182 
L 490.745455 393.698051 
L 488.254158 396.654545 
L 485.672727 400.011423 
L 484.40436 401.890909 
L 480.865931 407.127273 
L 480.6 407.48299 
L 476.99636 412.363636 
L 475.527273 415.665944 
L 474.300383 417.6 
L 472.105778 422.836364 
L 470.454545 425.553119 
L 466.541128 428.072727 
L 465.381818 428.488291 
L 460.309091 431.65284 
L 458.891348 433.309091 
L 455.548233 438.545455 
L 455.236364 439.052349 
L 451.439876 443.781818 
L 450.163636 445.757541 
L 447.21269 449.018182 
L 445.090909 451.133422 
L 441.22727 454.254545 
L 440.018182 455.099119 
L 436.069176 459.490909 
L 434.945455 461.233314 
L 432.69554 464.727273 
L 429.872727 469.799919 
L 429.737352 469.963636 
L 429.872727 470.513008 
" style="fill:none;stroke:#808080;"/>
    <path clip-path="url(#p2577cb6e89)" d="M 404.509091 440.060532 
L 406.543721 438.545455 
L 404.509091 436.782699 
L 400.851023 438.545455 
L 404.509091 440.060532 
" style="fill:none;stroke:#808080;"/>
    <path clip-path="url(#p2577cb6e89)" d="M 399.436364 434.901734 
L 399.837124 433.309091 
L 399.436364 433.140979 
L 397.721803 433.309091 
L 399.436364 434.901734 
" style="fill:none;stroke:#808080;"/>
   </g>
   <g id="LineCollection_4">
    <path clip-path="url(#p2577cb6e89)" d="M 242.181818 497.656736 
L 247.254545 498.031459 
L 252.327273 497.84956 
L 257.4 496.976659 
L 259.832696 496.145455 
L 262.472727 495.550322 
L 267.545455 494.319744 
L 272.618182 493.077024 
L 277.690909 491.745427 
L 280.559441 490.909091 
L 282.763636 490.399962 
L 287.836364 489.501153 
L 292.909091 488.974208 
L 297.981818 488.660083 
L 303.054545 488.610821 
L 308.127273 489.03008 
L 313.2 489.951165 
L 316.051747 490.909091 
L 318.272727 491.884908 
L 323.345455 494.271831 
L 328.418182 495.971161 
L 329.278789 496.145455 
L 333.490909 497.424282 
L 338.563636 498.067867 
L 343.636364 498.250295 
L 348.709091 497.281394 
L 351.139767 496.145455 
L 353.781818 494.89927 
L 358.338555 490.909091 
L 358.734707 485.672727 
L 355.435141 480.436364 
L 353.781818 478.862624 
L 348.709091 475.343761 
L 348.398081 475.2 
L 343.636364 472.364919 
L 338.563636 470.851563 
L 333.490909 470.172934 
L 328.418182 469.992184 
L 323.345455 469.98183 
L 318.272727 470.161272 
L 313.2 470.402898 
L 308.127273 470.646249 
L 303.054545 470.973599 
L 297.981818 471.410492 
L 292.909091 472.076062 
L 287.836364 472.869582 
L 282.763636 473.61265 
L 277.690909 474.279745 
L 273.186591 475.2 
L 272.618182 475.26099 
L 267.545455 476.044819 
L 262.472727 476.829562 
L 257.4 477.656138 
L 252.327273 478.683936 
L 247.254545 480.276205 
L 246.841583 480.436364 
L 242.181818 481.542397 
L 237.109091 483.359938 
L 233.007475 485.672727 
L 232.036364 487.493407 
L 230.024009 490.909091 
L 232.036364 492.818291 
L 237.109091 496.085622 
L 237.271555 496.145455 
L 242.181818 497.656736 
" style="fill:none;stroke:#808080;"/>
    <path clip-path="url(#p2577cb6e89)" d="M 460.309091 442.912982 
L 465.381818 439.764917 
L 466.398073 438.545455 
L 466.88783 433.309091 
L 465.381818 432.235737 
L 463.67231 433.309091 
L 460.309091 436.293675 
L 458.888853 438.545455 
L 460.309091 442.912982 
" style="fill:none;stroke:#808080;"/>
    <path clip-path="url(#p2577cb6e89)" d="M 480.6 423.991389 
L 482.673276 422.836364 
L 485.672727 421.386545 
L 489.852896 417.6 
L 490.745455 416.803862 
L 495.502618 412.363636 
L 495.818182 412.078888 
L 500.498899 407.127273 
L 500.890909 406.560913 
L 503.898699 401.890909 
L 505.963636 397.116107 
L 506.258212 396.654545 
L 507.506936 391.418182 
L 505.963636 389.939419 
L 500.890909 390.778059 
L 499.731452 391.418182 
L 495.818182 393.027425 
L 491.742751 396.654545 
L 490.745455 397.535095 
L 487.03579 401.890909 
L 485.672727 403.657818 
L 483.04005 407.127273 
L 480.6 410.391166 
L 479.14362 412.363636 
L 476.840567 417.6 
L 476.803918 422.836364 
L 480.6 423.991389 
" style="fill:none;stroke:#808080;"/>
   </g>
   <g id="LineCollection_5">
    <path clip-path="url(#p2577cb6e89)" d="M 247.254545 496.702078 
L 252.327273 496.516451 
L 254.22424 496.145455 
L 257.4 495.716518 
L 262.472727 494.523561 
L 267.545455 493.109232 
L 272.618182 491.630197 
L 275.11307 490.909091 
L 277.690909 490.174854 
L 282.763636 489.033889 
L 287.836364 488.137347 
L 292.909091 487.609255 
L 297.981818 487.277002 
L 303.054545 487.208704 
L 308.127273 487.655156 
L 313.2 488.613817 
L 318.272727 490.322934 
L 319.293006 490.909091 
L 323.345455 493.051748 
L 328.418182 495.094057 
L 333.490909 496.125661 
L 333.687661 496.145455 
L 338.563636 496.923262 
L 343.636364 497.137268 
L 347.813945 496.145455 
L 348.709091 495.980252 
L 353.781818 493.482216 
L 356.720297 490.909091 
L 357.211783 485.672727 
L 353.781818 481.173791 
L 353.137232 480.436364 
L 348.709091 476.783947 
L 345.2824 475.2 
L 343.636364 474.219966 
L 338.563636 472.318228 
L 333.490909 471.511092 
L 328.418182 471.323701 
L 323.345455 471.342402 
L 318.272727 471.57951 
L 313.2 471.882166 
L 308.127273 472.193477 
L 303.054545 472.599864 
L 297.981818 473.147196 
L 292.909091 474.023324 
L 287.836364 475.15936 
L 287.627681 475.2 
L 282.763636 475.879439 
L 277.690909 476.32831 
L 272.618182 476.890654 
L 267.545455 477.627776 
L 262.472727 478.362021 
L 257.4 479.232013 
L 252.327273 480.412411 
L 252.251949 480.436364 
L 247.254545 481.414924 
L 242.181818 482.758135 
L 237.109091 484.932438 
L 235.796225 485.672727 
L 232.840394 490.909091 
L 237.109091 494.263378 
L 242.181818 496.135586 
L 242.272534 496.145455 
L 247.254545 496.702078 
" style="fill:none;stroke:#808080;"/>
    <path clip-path="url(#p2577cb6e89)" d="M 480.6 420.648951 
L 485.672727 419.327192 
L 487.579467 417.6 
L 490.745455 414.776026 
L 493.330037 412.363636 
L 495.818182 410.118468 
L 498.645732 407.127273 
L 500.890909 403.883532 
L 502.17429 401.890909 
L 503.086704 396.654545 
L 500.890909 394.286926 
L 495.818182 395.643453 
L 494.682119 396.654545 
L 490.745455 400.13037 
L 489.246077 401.890909 
L 485.672727 406.522967 
L 485.21417 407.127273 
L 481.473471 412.363636 
L 480.6 413.987824 
L 479.03193 417.6 
L 480.6 420.648951 
" style="fill:none;stroke:#808080;"/>
   </g>
   <g id="LineCollection_6">
    <path clip-path="url(#p2577cb6e89)" d="M 237.109091 492.441134 
L 242.181818 494.841178 
L 247.254545 495.537945 
L 252.327273 495.47814 
L 257.4 494.795856 
L 262.472727 493.496801 
L 267.545455 491.89872 
L 270.689286 490.909091 
L 272.618182 490.100291 
L 277.690909 488.749086 
L 282.763636 487.667816 
L 287.836364 486.773541 
L 292.909091 486.244301 
L 297.981818 485.893922 
L 303.054545 485.806588 
L 308.127273 486.280233 
L 313.2 487.27647 
L 318.272727 488.997221 
L 321.600572 490.909091 
L 323.345455 491.831665 
L 328.418182 494.216953 
L 333.490909 495.403796 
L 338.563636 495.936293 
L 343.636364 496.073114 
L 348.709091 495.115038 
L 353.781818 492.065163 
L 355.102038 490.909091 
L 355.688859 485.672727 
L 353.781818 483.171344 
L 351.391169 480.436364 
L 348.709091 478.224134 
L 343.636364 475.700148 
L 341.970715 475.2 
L 338.563636 473.784894 
L 333.490909 472.84925 
L 328.418182 472.655218 
L 323.345455 472.702974 
L 318.272727 472.997749 
L 313.2 473.361435 
L 308.127273 473.740704 
L 303.054545 474.226129 
L 297.981818 474.8839 
L 296.383705 475.2 
L 292.909091 475.997739 
L 287.836364 476.962233 
L 282.763636 477.521845 
L 277.690909 477.932321 
L 272.618182 478.520319 
L 267.545455 479.210733 
L 262.472727 479.894481 
L 259.429205 480.436364 
L 257.4 480.689161 
L 252.327273 481.428748 
L 247.254545 482.4793 
L 242.181818 483.973872 
L 238.502534 485.672727 
L 237.109091 487.695562 
L 235.159399 490.909091 
L 237.109091 492.441134 
" style="fill:none;stroke:#808080;"/>
    <path clip-path="url(#p2577cb6e89)" d="M 485.672727 416.40728 
L 490.745455 412.74819 
L 491.157457 412.363636 
L 495.818182 408.158047 
L 496.792564 407.127273 
L 499.953008 401.890909 
L 495.818182 398.499728 
L 491.871329 401.890909 
L 490.745455 403.070997 
L 487.785433 407.127273 
L 485.672727 410.220235 
L 484.188222 412.363636 
L 485.672727 416.40728 
" style="fill:none;stroke:#808080;"/>
   </g>
   <g id="LineCollection_7">
    <path clip-path="url(#p2577cb6e89)" d="M 242.181818 493.54677 
L 247.254545 494.492842 
L 252.327273 494.553506 
L 257.4 493.875193 
L 262.472727 492.47004 
L 267.001845 490.909091 
L 267.545455 490.545752 
L 272.618182 488.487835 
L 277.690909 487.323318 
L 282.763636 486.301742 
L 286.339008 485.672727 
L 287.836364 484.778563 
L 292.909091 483.965776 
L 297.981818 483.745442 
L 303.054545 483.793148 
L 308.127273 484.494459 
L 311.865781 485.672727 
L 313.2 485.939122 
L 318.272727 487.671507 
L 323.345455 490.583801 
L 323.755694 490.909091 
L 328.418182 493.339849 
L 333.490909 494.681931 
L 338.563636 495.283598 
L 343.636364 495.408856 
L 348.709091 494.249824 
L 353.550872 490.909091 
L 353.781818 488.699185 
L 354.165935 485.672727 
L 353.781818 485.168898 
L 349.645106 480.436364 
L 348.709091 479.66432 
L 343.636364 476.760473 
L 338.563636 475.235191 
L 338.338438 475.2 
L 333.490909 474.187408 
L 328.418182 473.986735 
L 323.345455 474.063546 
L 318.272727 474.415987 
L 313.2 474.840704 
L 309.089147 475.2 
L 308.127273 475.350362 
L 303.054545 476.241676 
L 297.981818 477.094957 
L 292.909091 478.013615 
L 287.836364 478.756308 
L 282.763636 479.164251 
L 277.690909 479.536331 
L 272.618182 480.149984 
L 270.397734 480.436364 
L 267.545455 480.878573 
L 262.472727 481.310418 
L 257.4 481.761441 
L 252.327273 482.435077 
L 247.254545 483.543677 
L 242.181818 485.189609 
L 241.135508 485.672727 
L 237.476799 490.909091 
L 242.181818 493.54677 
" style="fill:none;stroke:#808080;"/>
    <path clip-path="url(#p2577cb6e89)" d="M 490.745455 407.730721 
L 491.669002 407.127273 
L 490.745455 406.740003 
L 490.462849 407.127273 
L 490.745455 407.730721 
" style="fill:none;stroke:#808080;"/>
    <path clip-path="url(#p2577cb6e89)" d="M 495.818182 403.000663 
L 496.285843 401.890909 
L 495.818182 401.507356 
L 495.371781 401.890909 
L 495.818182 403.000663 
" style="fill:none;stroke:#808080;"/>
   </g>
   <g id="LineCollection_8">
    <path clip-path="url(#p2577cb6e89)" d="M 242.181818 492.252362 
L 247.254545 493.44774 
L 252.327273 493.628871 
L 257.4 492.95453 
L 262.472727 491.443279 
L 264.022683 490.909091 
L 267.545455 488.554531 
L 272.618182 486.875378 
L 277.690909 485.89755 
L 278.838154 485.672727 
L 277.690909 484.288656 
L 272.618182 483.185312 
L 267.545455 482.837565 
L 262.472727 482.662612 
L 257.4 482.83372 
L 252.327273 483.441407 
L 247.254545 484.608053 
L 244.088927 485.672727 
L 242.181818 487.596387 
L 239.785728 490.909091 
L 242.181818 492.252362 
" style="fill:none;stroke:#808080;"/>
    <path clip-path="url(#p2577cb6e89)" d="M 328.418182 492.462745 
L 333.490909 493.960066 
L 338.563636 494.630903 
L 343.636364 494.744598 
L 348.709091 493.38461 
L 352.296903 490.909091 
L 352.9338 485.672727 
L 348.709091 481.016253 
L 347.906077 480.436364 
L 343.636364 477.820799 
L 338.563636 476.236252 
L 333.490909 475.468368 
L 328.418182 475.316031 
L 323.345455 475.475682 
L 318.272727 476.157048 
L 313.2 477.068966 
L 308.127273 477.996089 
L 303.054545 478.838329 
L 297.981818 479.411563 
L 292.909091 480.02949 
L 289.051146 480.436364 
L 292.909091 481.029089 
L 297.981818 481.45125 
L 303.054545 481.715186 
L 308.127273 482.383446 
L 313.2 483.735803 
L 316.304502 485.672727 
L 318.272727 486.345794 
L 323.345455 489.249785 
L 325.438086 490.909091 
L 328.418182 492.462745 
" style="fill:none;stroke:#808080;"/>
   </g>
   <g id="LineCollection_9">
    <path clip-path="url(#p2577cb6e89)" d="M 242.181818 490.957955 
L 247.254545 492.402637 
L 252.327273 492.704236 
L 257.4 492.033867 
L 261.04243 490.909091 
L 262.472727 489.436459 
L 267.545455 486.563311 
L 270.78011 485.672727 
L 267.545455 484.796558 
L 262.472727 484.014806 
L 257.4 483.905999 
L 252.327273 484.447736 
L 247.254545 485.67243 
L 247.253661 485.672727 
L 242.181818 490.788586 
L 242.094656 490.909091 
L 242.181818 490.957955 
" style="fill:none;stroke:#808080;"/>
    <path clip-path="url(#p2577cb6e89)" d="M 328.418182 491.58564 
L 333.490909 493.2382 
L 338.563636 493.978208 
L 343.636364 494.08034 
L 348.709091 492.519397 
L 351.042934 490.909091 
L 351.799746 485.672727 
L 348.709091 482.266206 
L 346.175175 480.436364 
L 343.636364 478.881124 
L 338.563636 477.237313 
L 333.490909 476.571426 
L 328.418182 476.622552 
L 323.345455 477.149291 
L 318.272727 478.297173 
L 313.2 479.537511 
L 309.018948 480.436364 
L 313.2 481.317076 
L 318.272727 483.944784 
L 319.421585 485.672727 
L 323.345455 487.915769 
L 327.120478 490.909091 
L 328.418182 491.58564 
" style="fill:none;stroke:#808080;"/>
   </g>
   <g id="LineCollection_10">
    <path clip-path="url(#p2577cb6e89)" d="M 247.254545 491.357534 
L 252.327273 491.779602 
L 257.4 491.113204 
L 258.060992 490.909091 
L 262.472727 486.366775 
L 263.945338 485.672727 
L 262.472727 485.366999 
L 257.4 484.978278 
L 252.327273 485.454066 
L 251.42158 485.672727 
L 247.254545 489.336543 
L 245.690113 490.909091 
L 247.254545 491.357534 
" style="fill:none;stroke:#808080;"/>
    <path clip-path="url(#p2577cb6e89)" d="M 333.490909 492.516335 
L 338.563636 493.325514 
L 343.636364 493.416082 
L 348.709091 491.654183 
L 349.788965 490.909091 
L 350.665693 485.672727 
L 348.709091 483.51616 
L 344.444274 480.436364 
L 343.636364 479.941449 
L 338.563636 478.238374 
L 333.490909 477.674484 
L 328.418182 477.929073 
L 323.345455 478.8229 
L 318.275023 480.436364 
L 321.755248 485.672727 
L 323.345455 486.581753 
L 328.418182 490.573027 
L 328.890616 490.909091 
L 333.490909 492.516335 
" style="fill:none;stroke:#808080;"/>
   </g>
   <g id="LineCollection_11">
    <path clip-path="url(#p2577cb6e89)" d="M 333.490909 491.79447 
L 338.563636 492.672819 
L 343.636364 492.751823 
L 348.467319 490.909091 
L 348.709091 490.067815 
L 349.53164 485.672727 
L 348.709091 484.766114 
L 343.636364 480.991596 
L 342.07179 480.436364 
L 338.563636 479.239435 
L 333.490909 478.777542 
L 328.418182 479.235593 
L 323.536347 480.436364 
L 323.954667 485.672727 
L 328.418182 489.10329 
L 330.956755 490.909091 
L 333.490909 491.79447 
" style="fill:none;stroke:#808080;"/>
   </g>
   <g id="LineCollection_12">
    <path clip-path="url(#p2577cb6e89)" d="M 333.490909 491.072605 
L 338.563636 492.020124 
L 343.636364 492.087565 
L 346.725882 490.909091 
L 348.339533 485.672727 
L 343.636364 482.032832 
L 339.137717 480.436364 
L 338.563636 480.240496 
L 333.490909 479.8806 
L 329.120308 480.436364 
L 328.418182 480.735878 
L 325.866947 485.672727 
L 328.418182 487.633552 
L 333.022894 490.909091 
L 333.490909 491.072605 
" style="fill:none;stroke:#808080;"/>
   </g>
   <g id="LineCollection_13">
    <path clip-path="url(#p2577cb6e89)" d="M 338.563636 491.367429 
L 343.636364 491.423307 
L 344.984446 490.909091 
L 346.994134 485.672727 
L 343.636364 483.074069 
L 338.563636 481.435858 
L 333.490909 481.3369 
L 328.418182 484.436296 
L 327.779227 485.672727 
L 328.418182 486.163815 
L 333.490909 489.628325 
L 336.14975 490.909091 
L 338.563636 491.367429 
" style="fill:none;stroke:#808080;"/>
   </g>
   <g id="LineCollection_14">
    <path clip-path="url(#p2577cb6e89)" d="M 333.490909 487.972483 
L 338.563636 490.333161 
L 343.636364 490.222073 
L 345.648735 485.672727 
L 343.636364 484.115305 
L 338.563636 482.678484 
L 333.490909 483.151908 
L 330.062069 485.672727 
L 333.490909 487.972483 
" style="fill:none;stroke:#808080;"/>
   </g>
   <g id="LineCollection_15">
    <path clip-path="url(#p2577cb6e89)" d="M 333.490909 486.316642 
L 338.563636 488.399057 
L 343.636364 487.180544 
L 344.303336 485.672727 
L 343.636364 485.156542 
L 338.563636 483.92111 
L 333.490909 484.966917 
L 332.530859 485.672727 
L 333.490909 486.316642 
" style="fill:none;stroke:#808080;"/>
   </g>
   <g id="LineCollection_16">
    <path clip-path="url(#p2577cb6e89)" d="M 338.563636 486.464954 
L 340.837311 485.672727 
L 338.563636 485.163736 
L 336.528009 485.672727 
L 338.563636 486.464954 
" style="fill:none;stroke:#808080;"/>
   </g>
   <g id="PathCollection_1">
    <defs>
     <path d="M 0 2.236068 
C 0.593012 2.236068 1.161816 2.000462 1.581139 1.581139 
C 2.000462 1.161816 2.236068 0.593012 2.236068 0 
C 2.236068 -0.593012 2.000462 -1.161816 1.581139 -1.581139 
C 1.161816 -2.000462 0.593012 -2.236068 0 -2.236068 
C -0.593012 -2.236068 -1.161816 -2.000462 -1.581139 -1.581139 
C -2.000462 -1.161816 -2.236068 -0.593012 -2.236068 0 
C -2.236068 0.593012 -2.000462 1.161816 -1.581139 1.581139 
C -1.161816 2.000462 -0.593012 2.236068 0 2.236068 
z
" id="me5e9ef22ae" style="stroke:#000000;"/>
    </defs>
    <g clip-path="url(#p2577cb6e89)">
     <use style="stroke:#000000;" x="449.045383031" xlink:href="#me5e9ef22ae" y="321.481199429"/>
    </g>
   </g>
   <g id="PathCollection_2">
    <g clip-path="url(#p2577cb6e89)">
     <use style="stroke:#000000;" x="401.345462024" xlink:href="#me5e9ef22ae" y="531.817184644"/>
    </g>
   </g>
   <g id="PathCollection_3">
    <g clip-path="url(#p2577cb6e89)">
     <use style="stroke:#000000;" x="477.280223981" xlink:href="#me5e9ef22ae" y="412.866254165"/>
    </g>
   </g>
   <g id="PathCollection_4">
    <g clip-path="url(#p2577cb6e89)">
     <use style="stroke:#000000;" x="454.785794381" xlink:href="#me5e9ef22ae" y="498.756370364"/>
    </g>
   </g>
   <g id="PathCollection_5">
    <g clip-path="url(#p2577cb6e89)">
     <use style="stroke:#000000;" x="354.933036281" xlink:href="#me5e9ef22ae" y="394.237762238"/>
    </g>
   </g>
   <g id="PathCollection_6">
    <g clip-path="url(#p2577cb6e89)">
     <use style="stroke:#000000;" x="504.550471032" xlink:href="#me5e9ef22ae" y="373.756548536"/>
    </g>
   </g>
   <g id="PathCollection_7">
    <g clip-path="url(#p2577cb6e89)">
     <use style="stroke:#000000;" x="462.292697846" xlink:href="#me5e9ef22ae" y="371.86013986"/>
    </g>
   </g>
   <g id="PathCollection_8">
    <g clip-path="url(#p2577cb6e89)">
     <use style="stroke:#000000;" x="272.506051018" xlink:href="#me5e9ef22ae" y="571.910203073"/>
    </g>
   </g>
   <g id="PathCollection_9">
    <g clip-path="url(#p2577cb6e89)">
     <use style="stroke:#000000;" x="442.838957567" xlink:href="#me5e9ef22ae" y="330.504027618"/>
    </g>
   </g>
   <g id="PathCollection_10">
    <g clip-path="url(#p2577cb6e89)">
     <use style="stroke:#000000;" x="254.657264159" xlink:href="#me5e9ef22ae" y="566.865134865"/>
    </g>
   </g>
   <g id="PathCollection_11">
    <g clip-path="url(#p2577cb6e89)">
     <use style="stroke:#000000;" x="451.455034539" xlink:href="#me5e9ef22ae" y="471.551917277"/>
    </g>
   </g>
   <g id="PathCollection_12">
    <g clip-path="url(#p2577cb6e89)">
     <use style="stroke:#000000;" x="382.309186779" xlink:href="#me5e9ef22ae" y="503.931221143"/>
    </g>
   </g>
   <g id="PathCollection_13">
    <g clip-path="url(#p2577cb6e89)">
     <use style="stroke:#000000;" x="303.185889172" xlink:href="#me5e9ef22ae" y="473.291418862"/>
    </g>
   </g>
   <g id="PathCollection_14">
    <g clip-path="url(#p2577cb6e89)">
     <use style="stroke:#000000;" x="329.613174372" xlink:href="#me5e9ef22ae" y="487.447032307"/>
    </g>
   </g>
   <g id="PathCollection_15">
    <g clip-path="url(#p2577cb6e89)">
     <use style="stroke:#000000;" x="274.013996008" xlink:href="#me5e9ef22ae" y="440.254653359"/>
    </g>
   </g>
   <g id="PathCollection_16">
    <g clip-path="url(#p2577cb6e89)">
     <use style="stroke:#000000;" x="306.540018409" xlink:href="#me5e9ef22ae" y="417.225336844"/>
    </g>
   </g>
   <g id="PathCollection_17">
    <g clip-path="url(#p2577cb6e89)">
     <use style="stroke:#000000;" x="282.632292646" xlink:href="#me5e9ef22ae" y="470.812439051"/>
    </g>
   </g>
   <g id="PathCollection_18">
    <g clip-path="url(#p2577cb6e89)">
     <use style="stroke:#000000;" x="342.020747215" xlink:href="#me5e9ef22ae" y="471.551917277"/>
    </g>
   </g>
   <g id="PathCollection_19">
    <g clip-path="url(#p2577cb6e89)">
     <use style="stroke:#000000;" x="335.669336593" xlink:href="#me5e9ef22ae" y="443.637419185"/>
    </g>
   </g>
   <g id="PathCollection_20">
    <g clip-path="url(#p2577cb6e89)">
     <use style="stroke:#000000;" x="250.148845225" xlink:href="#me5e9ef22ae" y="482.905176632"/>
    </g>
   </g>
   <g id="PathCollection_21">
    <g clip-path="url(#p2577cb6e89)">
     <use style="stroke:#000000;" x="256.205007446" xlink:href="#me5e9ef22ae" y="487.447032307"/>
    </g>
   </g>
   <g id="PathCollection_22">
    <g clip-path="url(#p2577cb6e89)">
     <use style="stroke:#000000;" x="231.052767604" xlink:href="#me5e9ef22ae" y="349.797695262"/>
    </g>
   </g>
   <g id="PathCollection_23">
    <g clip-path="url(#p2577cb6e89)">
     <use style="stroke:#000000;" x="190.865685697" xlink:href="#me5e9ef22ae" y="498.666666667"/>
    </g>
   </g>
   <g id="PathCollection_24">
    <g clip-path="url(#p2577cb6e89)">
     <use style="stroke:#000000;" x="213.122372476" xlink:href="#me5e9ef22ae" y="503.770334928"/>
    </g>
   </g>
   <g id="PathCollection_25">
    <g clip-path="url(#p2577cb6e89)">
     <use style="stroke:#000000;" x="228.219755017" xlink:href="#me5e9ef22ae" y="498.666666667"/>
    </g>
   </g>
   <g id="PathCollection_26">
    <g clip-path="url(#p2577cb6e89)">
     <use style="stroke:#000000;" x="419.276817378" xlink:href="#me5e9ef22ae" y="403.122994652"/>
    </g>
   </g>
   <g id="PathCollection_27">
    <g clip-path="url(#p2577cb6e89)">
     <use style="stroke:#000000;" x="357.871426252" xlink:href="#me5e9ef22ae" y="438.151742994"/>
    </g>
   </g>
   <g id="PathCollection_28">
    <g clip-path="url(#p2577cb6e89)">
     <use style="stroke:#000000;" x="276.193565552" xlink:href="#me5e9ef22ae" y="523.009960913"/>
    </g>
   </g>
   <g id="PathCollection_29">
    <g clip-path="url(#p2577cb6e89)">
     <use style="stroke:#000000;" x="407.562902753" xlink:href="#me5e9ef22ae" y="435.747397641"/>
    </g>
   </g>
   <g id="PathCollection_30">
    <g clip-path="url(#p2577cb6e89)">
     <use style="stroke:#000000;" x="223.698869379" xlink:href="#me5e9ef22ae" y="327.791676354"/>
    </g>
   </g>
   <g id="text_15">
    <text style="font-family:Arial;font-size:9.0px;font-style:normal;font-weight:400;text-anchor:start;" transform="rotate(-0.000000, 452.089019, 318.339381)" x="452.089019394" y="318.339381247">5E-11</text>
   </g>
   <g id="text_16">
    <text style="font-family:Arial;font-size:9.0px;font-style:normal;font-weight:400;text-anchor:start;" transform="rotate(-0.000000, 404.389098, 528.675366)" x="404.389098388" y="528.675366462">9E-08</text>
   </g>
   <g id="text_17">
    <text style="font-family:Arial;font-size:9.0px;font-style:normal;font-weight:400;text-anchor:start;" transform="rotate(-0.000000, 480.323860, 409.724436)" x="480.323860344" y="409.724435983">9E-04</text>
   </g>
   <g id="text_18">
    <text style="font-family:Arial;font-size:9.0px;font-style:normal;font-weight:400;text-anchor:start;" transform="rotate(-0.000000, 457.829431, 495.614552)" x="457.829430744" y="495.614552182">9E-13</text>
   </g>
   <g id="text_19">
    <text style="font-family:Arial;font-size:9.0px;font-style:normal;font-weight:400;text-anchor:start;" transform="rotate(-0.000000, 357.976673, 391.095944)" x="357.976672644" y="391.095944056">3E-08</text>
   </g>
   <g id="text_20">
    <text style="font-family:Arial;font-size:9.0px;font-style:normal;font-weight:400;text-anchor:start;" transform="rotate(-0.000000, 507.594107, 370.614730)" x="507.594107396" y="370.614730354">6E-04</text>
   </g>
   <g id="text_21">
    <text style="font-family:Arial;font-size:9.0px;font-style:normal;font-weight:400;text-anchor:start;" transform="rotate(-0.000000, 465.336334, 368.718322)" x="465.336334209" y="368.718321678">8E-04</text>
   </g>
   <g id="text_22">
    <text style="font-family:Arial;font-size:9.0px;font-style:normal;font-weight:400;text-anchor:start;" transform="rotate(-0.000000, 275.549687, 568.768385)" x="275.549687381" y="568.768384891">6E-06</text>
   </g>
   <g id="text_23">
    <text style="font-family:Arial;font-size:9.0px;font-style:normal;font-weight:400;text-anchor:start;" transform="rotate(-0.000000, 445.882594, 327.362209)" x="445.882593931" y="327.362209436">7E-10</text>
   </g>
   <g id="text_24">
    <text style="font-family:Arial;font-size:9.0px;font-style:normal;font-weight:400;text-anchor:start;" transform="rotate(-0.000000, 257.700901, 563.723317)" x="257.700900522" y="563.723316683">5E-06</text>
   </g>
   <g id="text_25">
    <text style="font-family:Arial;font-size:9.0px;font-style:normal;font-weight:400;text-anchor:start;" transform="rotate(-0.000000, 454.498671, 468.410099)" x="454.498670902" y="468.410099095">1E-04</text>
   </g>
   <g id="text_26">
    <text style="font-family:Arial;font-size:9.0px;font-style:normal;font-weight:400;text-anchor:start;" transform="rotate(-0.000000, 385.352823, 500.789403)" x="385.352823142" y="500.789402961">1E-04</text>
   </g>
   <g id="text_27">
    <text style="font-family:Arial;font-size:9.0px;font-style:normal;font-weight:400;text-anchor:start;" transform="rotate(-0.000000, 306.229526, 470.149601)" x="306.229525535" y="470.14960068">3E-03</text>
   </g>
   <g id="text_28">
    <text style="font-family:Arial;font-size:9.0px;font-style:normal;font-weight:400;text-anchor:start;" transform="rotate(-0.000000, 332.656811, 484.305214)" x="332.656810736" y="484.305214125">5E-03</text>
   </g>
   <g id="text_29">
    <text style="font-family:Arial;font-size:9.0px;font-style:normal;font-weight:400;text-anchor:start;" transform="rotate(-0.000000, 277.057632, 437.112835)" x="277.057632372" y="437.112835177">2E-09</text>
   </g>
   <g id="text_30">
    <text style="font-family:Arial;font-size:9.0px;font-style:normal;font-weight:400;text-anchor:start;" transform="rotate(-0.000000, 309.583655, 414.083519)" x="309.583654772" y="414.083518662">2E-10</text>
   </g>
   <g id="text_31">
    <text style="font-family:Arial;font-size:9.0px;font-style:normal;font-weight:400;text-anchor:start;" transform="rotate(-0.000000, 285.675929, 467.670621)" x="285.67592901" y="467.670620869">1E-03</text>
   </g>
   <g id="text_32">
    <text style="font-family:Arial;font-size:9.0px;font-style:normal;font-weight:400;text-anchor:start;" transform="rotate(-0.000000, 345.064384, 468.410099)" x="345.064383579" y="468.410099095">1E-03</text>
   </g>
   <g id="text_33">
    <text style="font-family:Arial;font-size:9.0px;font-style:normal;font-weight:400;text-anchor:start;" transform="rotate(-0.000000, 338.712973, 440.495601)" x="338.712972957" y="440.495601003">9E-04</text>
   </g>
   <g id="text_34">
    <text style="font-family:Arial;font-size:9.0px;font-style:normal;font-weight:400;text-anchor:start;" transform="rotate(-0.000000, 253.192482, 479.763358)" x="253.192481588" y="479.76335845">2E-03</text>
   </g>
   <g id="text_35">
    <text style="font-family:Arial;font-size:9.0px;font-style:normal;font-weight:400;text-anchor:start;" transform="rotate(-0.000000, 259.248644, 484.305214)" x="259.24864381" y="484.305214125">4E-03</text>
   </g>
   <g id="text_36">
    <text style="font-family:Arial;font-size:9.0px;font-style:normal;font-weight:400;text-anchor:start;" transform="rotate(-0.000000, 234.096404, 346.655877)" x="234.096403968" y="346.655877081">3E-124</text>
   </g>
   <g id="text_37">
    <text style="font-family:Arial;font-size:9.0px;font-style:normal;font-weight:400;text-anchor:start;" transform="rotate(-0.000000, 193.909322, 495.524848)" x="193.909322061" y="495.524848485">3E-05</text>
   </g>
   <g id="text_38">
    <text style="font-family:Arial;font-size:9.0px;font-style:normal;font-weight:400;text-anchor:start;" transform="rotate(-0.000000, 216.166009, 500.628517)" x="216.16600884" y="500.628516746">5E-04</text>
   </g>
   <g id="text_39">
    <text style="font-family:Arial;font-size:9.0px;font-style:normal;font-weight:400;text-anchor:start;" transform="rotate(-0.000000, 231.263391, 495.524848)" x="231.263391381" y="495.524848485">8E-04</text>
   </g>
   <g id="text_40">
    <text style="font-family:Arial;font-size:9.0px;font-style:normal;font-weight:400;text-anchor:start;" transform="rotate(-0.000000, 422.320454, 399.981176)" x="422.320453742" y="399.981176471">7E-04</text>
   </g>
   <g id="text_41">
    <text style="font-family:Arial;font-size:9.0px;font-style:normal;font-weight:400;text-anchor:start;" transform="rotate(-0.000000, 360.915063, 435.009925)" x="360.915062616" y="435.009924812">9E-04</text>
   </g>
   <g id="text_42">
    <text style="font-family:Arial;font-size:9.0px;font-style:normal;font-weight:400;text-anchor:start;" transform="rotate(-0.000000, 279.237202, 519.868143)" x="279.237201916" y="519.868142731">9E-05</text>
   </g>
   <g id="text_43">
    <text style="font-family:Arial;font-size:9.0px;font-style:normal;font-weight:400;text-anchor:start;" transform="rotate(-0.000000, 410.606539, 432.605579)" x="410.606539116" y="432.605579459">9E-04</text>
   </g>
   <g id="text_44">
    <text style="font-family:Arial;font-size:9.0px;font-style:normal;font-weight:400;text-anchor:start;" transform="rotate(-0.000000, 226.742506, 324.649858)" x="226.742505743" y="324.649858173">4E-174</text>
   </g>
  </g>
 </g>
 <defs>
  <clipPath id="p2577cb6e89">
   <rect height="576.0" width="558.0" x="90.0" y="72.0"/>
  </clipPath>
 </defs>
</svg>
