<?xml version="1.0" encoding="utf-8" standalone="no"?>
<!DOCTYPE svg PUBLIC "-//W3C//DTD SVG 1.1//EN"
  "http://www.w3.org/Graphics/SVG/1.1/DTD/svg11.dtd">
<!-- Created with matplotlib (http://matplotlib.org/) -->
<svg height="276pt" version="1.1" viewBox="0 0 852 276" width="852pt" xmlns="http://www.w3.org/2000/svg" xmlns:xlink="http://www.w3.org/1999/xlink">
 <defs>
  <style type="text/css">
*{stroke-linecap:butt;stroke-linejoin:round;stroke-miterlimit:100000;}
  </style>
 </defs>
 <g id="figure_1">
  <g id="patch_1">
   <path d="M 0 276.3075 
L 852.20625 276.3075 
L 852.20625 0 
L 0 0 
z
" style="fill:#ffffff;"/>
  </g>
  <g id="axes_1">
   <g id="patch_2">
    <path d="M 62.35375 232.88 
L 837.37125 232.88 
L 837.37125 7.2 
L 62.35375 7.2 
z
" style="fill:#ffffff;"/>
   </g>
   <g id="patch_3">
    <path clip-path="url(#pbac07c8d3d)" d="M 62.35375 232.88 
L 77.8541 232.88 
L 77.8541 35.730568 
L 62.35375 35.730568 
z
" style="opacity:0.3;stroke:#000000;stroke-linejoin:miter;"/>
   </g>
   <g id="patch_4">
    <path clip-path="url(#pbac07c8d3d)" d="M 77.8541 232.88 
L 93.35445 232.88 
L 93.35445 218.988712 
L 77.8541 218.988712 
z
" style="opacity:0.3;stroke:#000000;stroke-linejoin:miter;"/>
   </g>
   <g id="patch_5">
    <path clip-path="url(#pbac07c8d3d)" d="M 93.35445 232.88 
L 108.8548 232.88 
L 108.8548 224.153422 
L 93.35445 224.153422 
z
" style="opacity:0.3;stroke:#000000;stroke-linejoin:miter;"/>
   </g>
   <g id="patch_6">
    <path clip-path="url(#pbac07c8d3d)" d="M 108.8548 232.88 
L 124.35515 232.88 
L 124.35515 219.344899 
L 108.8548 219.344899 
z
" style="opacity:0.3;stroke:#000000;stroke-linejoin:miter;"/>
   </g>
   <g id="patch_7">
    <path clip-path="url(#pbac07c8d3d)" d="M 124.35515 232.88 
L 139.8555 232.88 
L 139.8555 210.440227 
L 124.35515 210.440227 
z
" style="opacity:0.3;stroke:#000000;stroke-linejoin:miter;"/>
   </g>
   <g id="patch_8">
    <path clip-path="url(#pbac07c8d3d)" d="M 139.8555 232.88 
L 155.35585 232.88 
L 155.35585 186.397614 
L 139.8555 186.397614 
z
" style="opacity:0.3;stroke:#000000;stroke-linejoin:miter;"/>
   </g>
   <g id="patch_9">
    <path clip-path="url(#pbac07c8d3d)" d="M 155.35585 232.88 
L 170.8562 232.88 
L 170.8562 155.765543 
L 155.35585 155.765543 
z
" style="opacity:0.3;stroke:#000000;stroke-linejoin:miter;"/>
   </g>
   <g id="patch_10">
    <path clip-path="url(#pbac07c8d3d)" d="M 170.8562 232.88 
L 186.35655 232.88 
L 186.35655 118.900202 
L 170.8562 118.900202 
z
" style="opacity:0.3;stroke:#000000;stroke-linejoin:miter;"/>
   </g>
   <g id="patch_11">
    <path clip-path="url(#pbac07c8d3d)" d="M 186.35655 232.88 
L 201.8569 232.88 
L 201.8569 95.926149 
L 186.35655 95.926149 
z
" style="opacity:0.3;stroke:#000000;stroke-linejoin:miter;"/>
   </g>
   <g id="patch_12">
    <path clip-path="url(#pbac07c8d3d)" d="M 201.8569 232.88 
L 217.35725 232.88 
L 217.35725 52.115164 
L 201.8569 52.115164 
z
" style="opacity:0.3;stroke:#000000;stroke-linejoin:miter;"/>
   </g>
   <g id="patch_13">
    <path clip-path="url(#pbac07c8d3d)" d="M 217.35725 232.88 
L 232.8576 232.88 
L 232.8576 28.606831 
L 217.35725 28.606831 
z
" style="opacity:0.3;stroke:#000000;stroke-linejoin:miter;"/>
   </g>
   <g id="patch_14">
    <path clip-path="url(#pbac07c8d3d)" d="M 232.8576 232.88 
L 248.35795 232.88 
L 248.35795 27.716364 
L 232.8576 27.716364 
z
" style="opacity:0.3;stroke:#000000;stroke-linejoin:miter;"/>
   </g>
   <g id="patch_15">
    <path clip-path="url(#pbac07c8d3d)" d="M 248.35795 232.88 
L 263.8583 232.88 
L 263.8583 34.662008 
L 248.35795 34.662008 
z
" style="opacity:0.3;stroke:#000000;stroke-linejoin:miter;"/>
   </g>
   <g id="patch_16">
    <path clip-path="url(#pbac07c8d3d)" d="M 263.8583 232.88 
L 279.35865 232.88 
L 279.35865 62.26649 
L 263.8583 62.26649 
z
" style="opacity:0.3;stroke:#000000;stroke-linejoin:miter;"/>
   </g>
   <g id="patch_17">
    <path clip-path="url(#pbac07c8d3d)" d="M 279.35865 232.88 
L 294.859 232.88 
L 294.859 107.324129 
L 279.35865 107.324129 
z
" style="opacity:0.3;stroke:#000000;stroke-linejoin:miter;"/>
   </g>
   <g id="patch_18">
    <path clip-path="url(#pbac07c8d3d)" d="M 294.859 232.88 
L 310.35935 232.88 
L 310.35935 143.477096 
L 294.859 143.477096 
z
" style="opacity:0.3;stroke:#000000;stroke-linejoin:miter;"/>
   </g>
   <g id="patch_19">
    <path clip-path="url(#pbac07c8d3d)" d="M 310.35935 232.88 
L 325.8597 232.88 
L 325.8597 155.765543 
L 310.35935 155.765543 
z
" style="opacity:0.3;stroke:#000000;stroke-linejoin:miter;"/>
   </g>
   <g id="patch_20">
    <path clip-path="url(#pbac07c8d3d)" d="M 325.8597 232.88 
L 341.36005 232.88 
L 341.36005 181.945278 
L 325.8597 181.945278 
z
" style="opacity:0.3;stroke:#000000;stroke-linejoin:miter;"/>
   </g>
   <g id="patch_21">
    <path clip-path="url(#pbac07c8d3d)" d="M 341.36005 232.88 
L 356.8604 232.88 
L 356.8604 194.589912 
L 341.36005 194.589912 
z
" style="opacity:0.3;stroke:#000000;stroke-linejoin:miter;"/>
   </g>
   <g id="patch_22">
    <path clip-path="url(#pbac07c8d3d)" d="M 356.8604 232.88 
L 372.36075 232.88 
L 372.36075 203.138396 
L 356.8604 203.138396 
z
" style="opacity:0.3;stroke:#000000;stroke-linejoin:miter;"/>
   </g>
   <g id="patch_23">
    <path clip-path="url(#pbac07c8d3d)" d="M 372.36075 232.88 
L 387.8611 232.88 
L 387.8611 206.165985 
L 372.36075 206.165985 
z
" style="opacity:0.3;stroke:#000000;stroke-linejoin:miter;"/>
   </g>
   <g id="patch_24">
    <path clip-path="url(#pbac07c8d3d)" d="M 387.8611 232.88 
L 403.36145 232.88 
L 403.36145 205.987891 
L 387.8611 205.987891 
z
" style="opacity:0.3;stroke:#000000;stroke-linejoin:miter;"/>
   </g>
   <g id="patch_25">
    <path clip-path="url(#pbac07c8d3d)" d="M 403.36145 232.88 
L 418.8618 232.88 
L 418.8618 202.604116 
L 403.36145 202.604116 
z
" style="opacity:0.3;stroke:#000000;stroke-linejoin:miter;"/>
   </g>
   <g id="patch_26">
    <path clip-path="url(#pbac07c8d3d)" d="M 418.8618 232.88 
L 434.36215 232.88 
L 434.36215 204.919331 
L 418.8618 204.919331 
z
" style="opacity:0.3;stroke:#000000;stroke-linejoin:miter;"/>
   </g>
   <g id="patch_27">
    <path clip-path="url(#pbac07c8d3d)" d="M 434.36215 232.88 
L 449.8625 232.88 
L 449.8625 200.645088 
L 434.36215 200.645088 
z
" style="opacity:0.3;stroke:#000000;stroke-linejoin:miter;"/>
   </g>
   <g id="patch_28">
    <path clip-path="url(#pbac07c8d3d)" d="M 449.8625 232.88 
L 465.36285 232.88 
L 465.36285 202.78221 
L 449.8625 202.78221 
z
" style="opacity:0.3;stroke:#000000;stroke-linejoin:miter;"/>
   </g>
   <g id="patch_29">
    <path clip-path="url(#pbac07c8d3d)" d="M 465.36285 232.88 
L 480.8632 232.88 
L 480.8632 199.398434 
L 465.36285 199.398434 
z
" style="opacity:0.3;stroke:#000000;stroke-linejoin:miter;"/>
   </g>
   <g id="patch_30">
    <path clip-path="url(#pbac07c8d3d)" d="M 480.8632 232.88 
L 496.36355 232.88 
L 496.36355 198.329874 
L 480.8632 198.329874 
z
" style="opacity:0.3;stroke:#000000;stroke-linejoin:miter;"/>
   </g>
   <g id="patch_31">
    <path clip-path="url(#pbac07c8d3d)" d="M 496.36355 232.88 
L 511.8639 232.88 
L 511.8639 202.960303 
L 496.36355 202.960303 
z
" style="opacity:0.3;stroke:#000000;stroke-linejoin:miter;"/>
   </g>
   <g id="patch_32">
    <path clip-path="url(#pbac07c8d3d)" d="M 511.8639 232.88 
L 527.36425 232.88 
L 527.36425 199.754621 
L 511.8639 199.754621 
z
" style="opacity:0.3;stroke:#000000;stroke-linejoin:miter;"/>
   </g>
   <g id="patch_33">
    <path clip-path="url(#pbac07c8d3d)" d="M 527.36425 232.88 
L 542.8646 232.88 
L 542.8646 199.398434 
L 527.36425 199.398434 
z
" style="opacity:0.3;stroke:#000000;stroke-linejoin:miter;"/>
   </g>
   <g id="patch_34">
    <path clip-path="url(#pbac07c8d3d)" d="M 542.8646 232.88 
L 558.36495 232.88 
L 558.36495 202.247929 
L 542.8646 202.247929 
z
" style="opacity:0.3;stroke:#000000;stroke-linejoin:miter;"/>
   </g>
   <g id="patch_35">
    <path clip-path="url(#pbac07c8d3d)" d="M 558.36495 232.88 
L 573.8653 232.88 
L 573.8653 204.385051 
L 558.36495 204.385051 
z
" style="opacity:0.3;stroke:#000000;stroke-linejoin:miter;"/>
   </g>
   <g id="patch_36">
    <path clip-path="url(#pbac07c8d3d)" d="M 573.8653 232.88 
L 589.36565 232.88 
L 589.36565 205.097424 
L 573.8653 205.097424 
z
" style="opacity:0.3;stroke:#000000;stroke-linejoin:miter;"/>
   </g>
   <g id="patch_37">
    <path clip-path="url(#pbac07c8d3d)" d="M 589.36565 232.88 
L 604.866 232.88 
L 604.866 204.741237 
L 589.36565 204.741237 
z
" style="opacity:0.3;stroke:#000000;stroke-linejoin:miter;"/>
   </g>
   <g id="patch_38">
    <path clip-path="url(#pbac07c8d3d)" d="M 604.866 232.88 
L 620.36635 232.88 
L 620.36635 208.125013 
L 604.866 208.125013 
z
" style="opacity:0.3;stroke:#000000;stroke-linejoin:miter;"/>
   </g>
   <g id="patch_39">
    <path clip-path="url(#pbac07c8d3d)" d="M 620.36635 232.88 
L 635.8667 232.88 
L 635.8667 210.974508 
L 620.36635 210.974508 
z
" style="opacity:0.3;stroke:#000000;stroke-linejoin:miter;"/>
   </g>
   <g id="patch_40">
    <path clip-path="url(#pbac07c8d3d)" d="M 635.8667 232.88 
L 651.36705 232.88 
L 651.36705 214.002096 
L 635.8667 214.002096 
z
" style="opacity:0.3;stroke:#000000;stroke-linejoin:miter;"/>
   </g>
   <g id="patch_41">
    <path clip-path="url(#pbac07c8d3d)" d="M 651.36705 232.88 
L 666.8674 232.88 
L 666.8674 213.467816 
L 651.36705 213.467816 
z
" style="opacity:0.3;stroke:#000000;stroke-linejoin:miter;"/>
   </g>
   <g id="patch_42">
    <path clip-path="url(#pbac07c8d3d)" d="M 666.8674 232.88 
L 682.36775 232.88 
L 682.36775 215.24875 
L 666.8674 215.24875 
z
" style="opacity:0.3;stroke:#000000;stroke-linejoin:miter;"/>
   </g>
   <g id="patch_43">
    <path clip-path="url(#pbac07c8d3d)" d="M 682.36775 232.88 
L 697.8681 232.88 
L 697.8681 217.563965 
L 682.36775 217.563965 
z
" style="opacity:0.3;stroke:#000000;stroke-linejoin:miter;"/>
   </g>
   <g id="patch_44">
    <path clip-path="url(#pbac07c8d3d)" d="M 697.8681 232.88 
L 713.36845 232.88 
L 713.36845 218.632525 
L 697.8681 218.632525 
z
" style="opacity:0.3;stroke:#000000;stroke-linejoin:miter;"/>
   </g>
   <g id="patch_45">
    <path clip-path="url(#pbac07c8d3d)" d="M 713.36845 232.88 
L 728.8688 232.88 
L 728.8688 218.810619 
L 713.36845 218.810619 
z
" style="opacity:0.3;stroke:#000000;stroke-linejoin:miter;"/>
   </g>
   <g id="patch_46">
    <path clip-path="url(#pbac07c8d3d)" d="M 728.8688 232.88 
L 744.36915 232.88 
L 744.36915 221.303927 
L 728.8688 221.303927 
z
" style="opacity:0.3;stroke:#000000;stroke-linejoin:miter;"/>
   </g>
   <g id="patch_47">
    <path clip-path="url(#pbac07c8d3d)" d="M 744.36915 232.88 
L 759.8695 232.88 
L 759.8695 221.660114 
L 744.36915 221.660114 
z
" style="opacity:0.3;stroke:#000000;stroke-linejoin:miter;"/>
   </g>
   <g id="patch_48">
    <path clip-path="url(#pbac07c8d3d)" d="M 759.8695 232.88 
L 775.36985 232.88 
L 775.36985 218.810619 
L 759.8695 218.810619 
z
" style="opacity:0.3;stroke:#000000;stroke-linejoin:miter;"/>
   </g>
   <g id="patch_49">
    <path clip-path="url(#pbac07c8d3d)" d="M 775.36985 232.88 
L 790.8702 232.88 
L 790.8702 218.276338 
L 775.36985 218.276338 
z
" style="opacity:0.3;stroke:#000000;stroke-linejoin:miter;"/>
   </g>
   <g id="patch_50">
    <path clip-path="url(#pbac07c8d3d)" d="M 790.8702 232.88 
L 806.37055 232.88 
L 806.37055 220.057273 
L 790.8702 220.057273 
z
" style="opacity:0.3;stroke:#000000;stroke-linejoin:miter;"/>
   </g>
   <g id="patch_51">
    <path clip-path="url(#pbac07c8d3d)" d="M 806.37055 232.88 
L 821.8709 232.88 
L 821.8709 219.522992 
L 806.37055 219.522992 
z
" style="opacity:0.3;stroke:#000000;stroke-linejoin:miter;"/>
   </g>
   <g id="patch_52">
    <path clip-path="url(#pbac07c8d3d)" d="M 821.8709 232.88 
L 837.37125 232.88 
L 837.37125 220.235366 
L 821.8709 220.235366 
z
" style="opacity:0.3;stroke:#000000;stroke-linejoin:miter;"/>
   </g>
   <g id="patch_53">
    <path clip-path="url(#pbac07c8d3d)" d="M 837.37125 232.88 
L 852.8716 232.88 
L 852.8716 221.303927 
L 837.37125 221.303927 
z
" style="opacity:0.3;stroke:#000000;stroke-linejoin:miter;"/>
   </g>
   <g id="patch_54">
    <path clip-path="url(#pbac07c8d3d)" d="M 852.8716 232.88 
L 868.37195 232.88 
L 868.37195 222.550581 
L 852.8716 222.550581 
z
" style="opacity:0.3;stroke:#000000;stroke-linejoin:miter;"/>
   </g>
   <g id="patch_55">
    <path clip-path="url(#pbac07c8d3d)" d="M 868.37195 232.88 
L 883.8723 232.88 
L 883.8723 222.016301 
L 868.37195 222.016301 
z
" style="opacity:0.3;stroke:#000000;stroke-linejoin:miter;"/>
   </g>
   <g id="patch_56">
    <path clip-path="url(#pbac07c8d3d)" d="M 883.8723 232.88 
L 899.37265 232.88 
L 899.37265 224.331515 
L 883.8723 224.331515 
z
" style="opacity:0.3;stroke:#000000;stroke-linejoin:miter;"/>
   </g>
   <g id="patch_57">
    <path clip-path="url(#pbac07c8d3d)" d="M 899.37265 232.88 
L 914.873 232.88 
L 914.873 226.112449 
L 899.37265 226.112449 
z
" style="opacity:0.3;stroke:#000000;stroke-linejoin:miter;"/>
   </g>
   <g id="patch_58">
    <path clip-path="url(#pbac07c8d3d)" d="M 914.873 232.88 
L 930.37335 232.88 
L 930.37335 224.153422 
L 914.873 224.153422 
z
" style="opacity:0.3;stroke:#000000;stroke-linejoin:miter;"/>
   </g>
   <g id="patch_59">
    <path clip-path="url(#pbac07c8d3d)" d="M 930.37335 232.88 
L 945.8737 232.88 
L 945.8737 224.509609 
L 930.37335 224.509609 
z
" style="opacity:0.3;stroke:#000000;stroke-linejoin:miter;"/>
   </g>
   <g id="patch_60">
    <path clip-path="url(#pbac07c8d3d)" d="M 945.8737 232.88 
L 961.37405 232.88 
L 961.37405 224.687702 
L 945.8737 224.687702 
z
" style="opacity:0.3;stroke:#000000;stroke-linejoin:miter;"/>
   </g>
   <g id="patch_61">
    <path clip-path="url(#pbac07c8d3d)" d="M 961.37405 232.88 
L 976.8744 232.88 
L 976.8744 225.043889 
L 961.37405 225.043889 
z
" style="opacity:0.3;stroke:#000000;stroke-linejoin:miter;"/>
   </g>
   <g id="patch_62">
    <path clip-path="url(#pbac07c8d3d)" d="M 976.8744 232.88 
L 992.37475 232.88 
L 992.37475 226.824823 
L 976.8744 226.824823 
z
" style="opacity:0.3;stroke:#000000;stroke-linejoin:miter;"/>
   </g>
   <g id="patch_63">
    <path clip-path="url(#pbac07c8d3d)" d="M 992.37475 232.88 
L 1007.8751 232.88 
L 1007.8751 226.64673 
L 992.37475 226.64673 
z
" style="opacity:0.3;stroke:#000000;stroke-linejoin:miter;"/>
   </g>
   <g id="patch_64">
    <path clip-path="url(#pbac07c8d3d)" d="M 1007.8751 232.88 
L 1023.37545 232.88 
L 1023.37545 223.441048 
L 1007.8751 223.441048 
z
" style="opacity:0.3;stroke:#000000;stroke-linejoin:miter;"/>
   </g>
   <g id="patch_65">
    <path clip-path="url(#pbac07c8d3d)" d="M 1023.37545 232.88 
L 1038.8758 232.88 
L 1038.8758 226.112449 
L 1023.37545 226.112449 
z
" style="opacity:0.3;stroke:#000000;stroke-linejoin:miter;"/>
   </g>
   <g id="patch_66">
    <path clip-path="url(#pbac07c8d3d)" d="M 1038.8758 232.88 
L 1054.37615 232.88 
L 1054.37615 226.64673 
L 1038.8758 226.64673 
z
" style="opacity:0.3;stroke:#000000;stroke-linejoin:miter;"/>
   </g>
   <g id="patch_67">
    <path clip-path="url(#pbac07c8d3d)" d="M 1054.37615 232.88 
L 1069.8765 232.88 
L 1069.8765 225.578169 
L 1054.37615 225.578169 
z
" style="opacity:0.3;stroke:#000000;stroke-linejoin:miter;"/>
   </g>
   <g id="patch_68">
    <path clip-path="url(#pbac07c8d3d)" d="M 1069.8765 232.88 
L 1085.37685 232.88 
L 1085.37685 226.290543 
L 1069.8765 226.290543 
z
" style="opacity:0.3;stroke:#000000;stroke-linejoin:miter;"/>
   </g>
   <g id="patch_69">
    <path clip-path="url(#pbac07c8d3d)" d="M 1085.37685 232.88 
L 1100.8772 232.88 
L 1100.8772 227.537197 
L 1085.37685 227.537197 
z
" style="opacity:0.3;stroke:#000000;stroke-linejoin:miter;"/>
   </g>
   <g id="patch_70">
    <path clip-path="url(#pbac07c8d3d)" d="M 1100.8772 232.88 
L 1116.37755 232.88 
L 1116.37755 227.18101 
L 1100.8772 227.18101 
z
" style="opacity:0.3;stroke:#000000;stroke-linejoin:miter;"/>
   </g>
   <g id="patch_71">
    <path clip-path="url(#pbac07c8d3d)" d="M 1116.37755 232.88 
L 1131.8779 232.88 
L 1131.8779 229.318131 
L 1116.37755 229.318131 
z
" style="opacity:0.3;stroke:#000000;stroke-linejoin:miter;"/>
   </g>
   <g id="patch_72">
    <path clip-path="url(#pbac07c8d3d)" d="M 1131.8779 232.88 
L 1147.37825 232.88 
L 1147.37825 226.290543 
L 1131.8779 226.290543 
z
" style="opacity:0.3;stroke:#000000;stroke-linejoin:miter;"/>
   </g>
   <g id="patch_73">
    <path clip-path="url(#pbac07c8d3d)" d="M 1147.37825 232.88 
L 1162.8786 232.88 
L 1162.8786 229.496225 
L 1147.37825 229.496225 
z
" style="opacity:0.3;stroke:#000000;stroke-linejoin:miter;"/>
   </g>
   <g id="patch_74">
    <path clip-path="url(#pbac07c8d3d)" d="M 1162.8786 232.88 
L 1178.37895 232.88 
L 1178.37895 228.783851 
L 1162.8786 228.783851 
z
" style="opacity:0.3;stroke:#000000;stroke-linejoin:miter;"/>
   </g>
   <g id="patch_75">
    <path clip-path="url(#pbac07c8d3d)" d="M 1178.37895 232.88 
L 1193.8793 232.88 
L 1193.8793 227.537197 
L 1178.37895 227.537197 
z
" style="opacity:0.3;stroke:#000000;stroke-linejoin:miter;"/>
   </g>
   <g id="patch_76">
    <path clip-path="url(#pbac07c8d3d)" d="M 1193.8793 232.88 
L 1209.37965 232.88 
L 1209.37965 228.427664 
L 1193.8793 228.427664 
z
" style="opacity:0.3;stroke:#000000;stroke-linejoin:miter;"/>
   </g>
   <g id="patch_77">
    <path clip-path="url(#pbac07c8d3d)" d="M 1209.37965 232.88 
L 1224.88 232.88 
L 1224.88 229.496225 
L 1209.37965 229.496225 
z
" style="opacity:0.3;stroke:#000000;stroke-linejoin:miter;"/>
   </g>
   <g id="patch_78">
    <path clip-path="url(#pbac07c8d3d)" d="M 1224.88 232.88 
L 1240.38035 232.88 
L 1240.38035 227.893384 
L 1224.88 227.893384 
z
" style="opacity:0.3;stroke:#000000;stroke-linejoin:miter;"/>
   </g>
   <g id="patch_79">
    <path clip-path="url(#pbac07c8d3d)" d="M 1240.38035 232.88 
L 1255.8807 232.88 
L 1255.8807 228.783851 
L 1240.38035 228.783851 
z
" style="opacity:0.3;stroke:#000000;stroke-linejoin:miter;"/>
   </g>
   <g id="patch_80">
    <path clip-path="url(#pbac07c8d3d)" d="M 1255.8807 232.88 
L 1271.38105 232.88 
L 1271.38105 228.427664 
L 1255.8807 228.427664 
z
" style="opacity:0.3;stroke:#000000;stroke-linejoin:miter;"/>
   </g>
   <g id="patch_81">
    <path clip-path="url(#pbac07c8d3d)" d="M 1271.38105 232.88 
L 1286.8814 232.88 
L 1286.8814 228.249571 
L 1271.38105 228.249571 
z
" style="opacity:0.3;stroke:#000000;stroke-linejoin:miter;"/>
   </g>
   <g id="patch_82">
    <path clip-path="url(#pbac07c8d3d)" d="M 1286.8814 232.88 
L 1302.38175 232.88 
L 1302.38175 230.564785 
L 1286.8814 230.564785 
z
" style="opacity:0.3;stroke:#000000;stroke-linejoin:miter;"/>
   </g>
   <g id="patch_83">
    <path clip-path="url(#pbac07c8d3d)" d="M 1302.38175 232.88 
L 1317.8821 232.88 
L 1317.8821 229.852412 
L 1302.38175 229.852412 
z
" style="opacity:0.3;stroke:#000000;stroke-linejoin:miter;"/>
   </g>
   <g id="patch_84">
    <path clip-path="url(#pbac07c8d3d)" d="M 1317.8821 232.88 
L 1333.38245 232.88 
L 1333.38245 230.030505 
L 1317.8821 230.030505 
z
" style="opacity:0.3;stroke:#000000;stroke-linejoin:miter;"/>
   </g>
   <g id="patch_85">
    <path clip-path="url(#pbac07c8d3d)" d="M 1333.38245 232.88 
L 1348.8828 232.88 
L 1348.8828 230.564785 
L 1333.38245 230.564785 
z
" style="opacity:0.3;stroke:#000000;stroke-linejoin:miter;"/>
   </g>
   <g id="patch_86">
    <path clip-path="url(#pbac07c8d3d)" d="M 1348.8828 232.88 
L 1364.38315 232.88 
L 1364.38315 228.961944 
L 1348.8828 228.961944 
z
" style="opacity:0.3;stroke:#000000;stroke-linejoin:miter;"/>
   </g>
   <g id="patch_87">
    <path clip-path="url(#pbac07c8d3d)" d="M 1364.38315 232.88 
L 1379.8835 232.88 
L 1379.8835 228.961944 
L 1364.38315 228.961944 
z
" style="opacity:0.3;stroke:#000000;stroke-linejoin:miter;"/>
   </g>
   <g id="patch_88">
    <path clip-path="url(#pbac07c8d3d)" d="M 1379.8835 232.88 
L 1395.38385 232.88 
L 1395.38385 229.318131 
L 1379.8835 229.318131 
z
" style="opacity:0.3;stroke:#000000;stroke-linejoin:miter;"/>
   </g>
   <g id="patch_89">
    <path clip-path="url(#pbac07c8d3d)" d="M 1395.38385 232.88 
L 1410.8842 232.88 
L 1410.8842 229.496225 
L 1395.38385 229.496225 
z
" style="opacity:0.3;stroke:#000000;stroke-linejoin:miter;"/>
   </g>
   <g id="patch_90">
    <path clip-path="url(#pbac07c8d3d)" d="M 1410.8842 232.88 
L 1426.38455 232.88 
L 1426.38455 229.852412 
L 1410.8842 229.852412 
z
" style="opacity:0.3;stroke:#000000;stroke-linejoin:miter;"/>
   </g>
   <g id="patch_91">
    <path clip-path="url(#pbac07c8d3d)" d="M 1426.38455 232.88 
L 1441.8849 232.88 
L 1441.8849 230.742879 
L 1426.38455 230.742879 
z
" style="opacity:0.3;stroke:#000000;stroke-linejoin:miter;"/>
   </g>
   <g id="patch_92">
    <path clip-path="url(#pbac07c8d3d)" d="M 1441.8849 232.88 
L 1457.38525 232.88 
L 1457.38525 230.564785 
L 1441.8849 230.564785 
z
" style="opacity:0.3;stroke:#000000;stroke-linejoin:miter;"/>
   </g>
   <g id="patch_93">
    <path clip-path="url(#pbac07c8d3d)" d="M 1457.38525 232.88 
L 1472.8856 232.88 
L 1472.8856 230.386692 
L 1457.38525 230.386692 
z
" style="opacity:0.3;stroke:#000000;stroke-linejoin:miter;"/>
   </g>
   <g id="patch_94">
    <path clip-path="url(#pbac07c8d3d)" d="M 1472.8856 232.88 
L 1488.38595 232.88 
L 1488.38595 230.742879 
L 1472.8856 230.742879 
z
" style="opacity:0.3;stroke:#000000;stroke-linejoin:miter;"/>
   </g>
   <g id="patch_95">
    <path clip-path="url(#pbac07c8d3d)" d="M 1488.38595 232.88 
L 1503.8863 232.88 
L 1503.8863 231.633346 
L 1488.38595 231.633346 
z
" style="opacity:0.3;stroke:#000000;stroke-linejoin:miter;"/>
   </g>
   <g id="patch_96">
    <path clip-path="url(#pbac07c8d3d)" d="M 1503.8863 232.88 
L 1519.38665 232.88 
L 1519.38665 231.099066 
L 1503.8863 231.099066 
z
" style="opacity:0.3;stroke:#000000;stroke-linejoin:miter;"/>
   </g>
   <g id="patch_97">
    <path clip-path="url(#pbac07c8d3d)" d="M 1519.38665 232.88 
L 1534.887 232.88 
L 1534.887 231.277159 
L 1519.38665 231.277159 
z
" style="opacity:0.3;stroke:#000000;stroke-linejoin:miter;"/>
   </g>
   <g id="patch_98">
    <path clip-path="url(#pbac07c8d3d)" d="M 1534.887 232.88 
L 1550.38735 232.88 
L 1550.38735 230.208598 
L 1534.887 230.208598 
z
" style="opacity:0.3;stroke:#000000;stroke-linejoin:miter;"/>
   </g>
   <g id="patch_99">
    <path clip-path="url(#pbac07c8d3d)" d="M 1550.38735 232.88 
L 1565.8877 232.88 
L 1565.8877 231.099066 
L 1550.38735 231.099066 
z
" style="opacity:0.3;stroke:#000000;stroke-linejoin:miter;"/>
   </g>
   <g id="patch_100">
    <path clip-path="url(#pbac07c8d3d)" d="M 1565.8877 232.88 
L 1581.38805 232.88 
L 1581.38805 230.742879 
L 1565.8877 230.742879 
z
" style="opacity:0.3;stroke:#000000;stroke-linejoin:miter;"/>
   </g>
   <g id="patch_101">
    <path clip-path="url(#pbac07c8d3d)" d="M 1581.38805 232.88 
L 1596.8884 232.88 
L 1596.8884 230.920972 
L 1581.38805 230.920972 
z
" style="opacity:0.3;stroke:#000000;stroke-linejoin:miter;"/>
   </g>
   <g id="patch_102">
    <path clip-path="url(#pbac07c8d3d)" d="M 1596.8884 232.88 
L 1612.38875 232.88 
L 1612.38875 230.920972 
L 1596.8884 230.920972 
z
" style="opacity:0.3;stroke:#000000;stroke-linejoin:miter;"/>
   </g>
   <g id="patch_103">
    <path clip-path="url(#pbac07c8d3d)" d="M 1612.38875 232.88 
L 1627.8891 232.88 
L 1627.8891 230.920972 
L 1612.38875 230.920972 
z
" style="opacity:0.3;stroke:#000000;stroke-linejoin:miter;"/>
   </g>
   <g id="patch_104">
    <path clip-path="url(#pbac07c8d3d)" d="M 1627.8891 232.88 
L 1643.38945 232.88 
L 1643.38945 231.633346 
L 1627.8891 231.633346 
z
" style="opacity:0.3;stroke:#000000;stroke-linejoin:miter;"/>
   </g>
   <g id="patch_105">
    <path clip-path="url(#pbac07c8d3d)" d="M 1643.38945 232.88 
L 1658.8898 232.88 
L 1658.8898 231.811439 
L 1643.38945 231.811439 
z
" style="opacity:0.3;stroke:#000000;stroke-linejoin:miter;"/>
   </g>
   <g id="patch_106">
    <path clip-path="url(#pbac07c8d3d)" d="M 1658.8898 232.88 
L 1674.39015 232.88 
L 1674.39015 231.277159 
L 1658.8898 231.277159 
z
" style="opacity:0.3;stroke:#000000;stroke-linejoin:miter;"/>
   </g>
   <g id="patch_107">
    <path clip-path="url(#pbac07c8d3d)" d="M 1674.39015 232.88 
L 1689.8905 232.88 
L 1689.8905 231.099066 
L 1674.39015 231.099066 
z
" style="opacity:0.3;stroke:#000000;stroke-linejoin:miter;"/>
   </g>
   <g id="patch_108">
    <path clip-path="url(#pbac07c8d3d)" d="M 1689.8905 232.88 
L 1705.39085 232.88 
L 1705.39085 231.633346 
L 1689.8905 231.633346 
z
" style="opacity:0.3;stroke:#000000;stroke-linejoin:miter;"/>
   </g>
   <g id="patch_109">
    <path clip-path="url(#pbac07c8d3d)" d="M 1705.39085 232.88 
L 1720.8912 232.88 
L 1720.8912 231.099066 
L 1705.39085 231.099066 
z
" style="opacity:0.3;stroke:#000000;stroke-linejoin:miter;"/>
   </g>
   <g id="patch_110">
    <path clip-path="url(#pbac07c8d3d)" d="M 1720.8912 232.88 
L 1736.39155 232.88 
L 1736.39155 230.386692 
L 1720.8912 230.386692 
z
" style="opacity:0.3;stroke:#000000;stroke-linejoin:miter;"/>
   </g>
   <g id="patch_111">
    <path clip-path="url(#pbac07c8d3d)" d="M 1736.39155 232.88 
L 1751.8919 232.88 
L 1751.8919 232.167626 
L 1736.39155 232.167626 
z
" style="opacity:0.3;stroke:#000000;stroke-linejoin:miter;"/>
   </g>
   <g id="patch_112">
    <path clip-path="url(#pbac07c8d3d)" d="M 1751.8919 232.88 
L 1767.39225 232.88 
L 1767.39225 232.167626 
L 1751.8919 232.167626 
z
" style="opacity:0.3;stroke:#000000;stroke-linejoin:miter;"/>
   </g>
   <g id="patch_113">
    <path clip-path="url(#pbac07c8d3d)" d="M 1767.39225 232.88 
L 1782.8926 232.88 
L 1782.8926 231.277159 
L 1767.39225 231.277159 
z
" style="opacity:0.3;stroke:#000000;stroke-linejoin:miter;"/>
   </g>
   <g id="patch_114">
    <path clip-path="url(#pbac07c8d3d)" d="M 1782.8926 232.88 
L 1798.39295 232.88 
L 1798.39295 232.523813 
L 1782.8926 232.523813 
z
" style="opacity:0.3;stroke:#000000;stroke-linejoin:miter;"/>
   </g>
   <g id="patch_115">
    <path clip-path="url(#pbac07c8d3d)" d="M 1798.39295 232.88 
L 1813.8933 232.88 
L 1813.8933 231.989533 
L 1798.39295 231.989533 
z
" style="opacity:0.3;stroke:#000000;stroke-linejoin:miter;"/>
   </g>
   <g id="patch_116">
    <path clip-path="url(#pbac07c8d3d)" d="M 1813.8933 232.88 
L 1829.39365 232.88 
L 1829.39365 231.455253 
L 1813.8933 231.455253 
z
" style="opacity:0.3;stroke:#000000;stroke-linejoin:miter;"/>
   </g>
   <g id="patch_117">
    <path clip-path="url(#pbac07c8d3d)" d="M 1829.39365 232.88 
L 1844.894 232.88 
L 1844.894 231.633346 
L 1829.39365 231.633346 
z
" style="opacity:0.3;stroke:#000000;stroke-linejoin:miter;"/>
   </g>
   <g id="patch_118">
    <path clip-path="url(#pbac07c8d3d)" d="M 1844.894 232.88 
L 1860.39435 232.88 
L 1860.39435 231.277159 
L 1844.894 231.277159 
z
" style="opacity:0.3;stroke:#000000;stroke-linejoin:miter;"/>
   </g>
   <g id="patch_119">
    <path clip-path="url(#pbac07c8d3d)" d="M 1860.39435 232.88 
L 1875.8947 232.88 
L 1875.8947 231.099066 
L 1860.39435 231.099066 
z
" style="opacity:0.3;stroke:#000000;stroke-linejoin:miter;"/>
   </g>
   <g id="patch_120">
    <path clip-path="url(#pbac07c8d3d)" d="M 1875.8947 232.88 
L 1891.39505 232.88 
L 1891.39505 231.633346 
L 1875.8947 231.633346 
z
" style="opacity:0.3;stroke:#000000;stroke-linejoin:miter;"/>
   </g>
   <g id="patch_121">
    <path clip-path="url(#pbac07c8d3d)" d="M 1891.39505 232.88 
L 1906.8954 232.88 
L 1906.8954 231.989533 
L 1891.39505 231.989533 
z
" style="opacity:0.3;stroke:#000000;stroke-linejoin:miter;"/>
   </g>
   <g id="patch_122">
    <path clip-path="url(#pbac07c8d3d)" d="M 1906.8954 232.88 
L 1922.39575 232.88 
L 1922.39575 231.633346 
L 1906.8954 231.633346 
z
" style="opacity:0.3;stroke:#000000;stroke-linejoin:miter;"/>
   </g>
   <g id="patch_123">
    <path clip-path="url(#pbac07c8d3d)" d="M 1922.39575 232.88 
L 1937.8961 232.88 
L 1937.8961 231.455253 
L 1922.39575 231.455253 
z
" style="opacity:0.3;stroke:#000000;stroke-linejoin:miter;"/>
   </g>
   <g id="patch_124">
    <path clip-path="url(#pbac07c8d3d)" d="M 1937.8961 232.88 
L 1953.39645 232.88 
L 1953.39645 232.34572 
L 1937.8961 232.34572 
z
" style="opacity:0.3;stroke:#000000;stroke-linejoin:miter;"/>
   </g>
   <g id="patch_125">
    <path clip-path="url(#pbac07c8d3d)" d="M 1953.39645 232.88 
L 1968.8968 232.88 
L 1968.8968 231.099066 
L 1953.39645 231.099066 
z
" style="opacity:0.3;stroke:#000000;stroke-linejoin:miter;"/>
   </g>
   <g id="patch_126">
    <path clip-path="url(#pbac07c8d3d)" d="M 1968.8968 232.88 
L 1984.39715 232.88 
L 1984.39715 232.34572 
L 1968.8968 232.34572 
z
" style="opacity:0.3;stroke:#000000;stroke-linejoin:miter;"/>
   </g>
   <g id="patch_127">
    <path clip-path="url(#pbac07c8d3d)" d="M 1984.39715 232.88 
L 1999.8975 232.88 
L 1999.8975 232.34572 
L 1984.39715 232.34572 
z
" style="opacity:0.3;stroke:#000000;stroke-linejoin:miter;"/>
   </g>
   <g id="patch_128">
    <path clip-path="url(#pbac07c8d3d)" d="M 1999.8975 232.88 
L 2015.39785 232.88 
L 2015.39785 232.88 
L 1999.8975 232.88 
z
" style="opacity:0.3;stroke:#000000;stroke-linejoin:miter;"/>
   </g>
   <g id="patch_129">
    <path clip-path="url(#pbac07c8d3d)" d="M 2015.39785 232.88 
L 2030.8982 232.88 
L 2030.8982 230.920972 
L 2015.39785 230.920972 
z
" style="opacity:0.3;stroke:#000000;stroke-linejoin:miter;"/>
   </g>
   <g id="patch_130">
    <path clip-path="url(#pbac07c8d3d)" d="M 2030.8982 232.88 
L 2046.39855 232.88 
L 2046.39855 231.277159 
L 2030.8982 231.277159 
z
" style="opacity:0.3;stroke:#000000;stroke-linejoin:miter;"/>
   </g>
   <g id="patch_131">
    <path clip-path="url(#pbac07c8d3d)" d="M 2046.39855 232.88 
L 2061.8989 232.88 
L 2061.8989 232.167626 
L 2046.39855 232.167626 
z
" style="opacity:0.3;stroke:#000000;stroke-linejoin:miter;"/>
   </g>
   <g id="patch_132">
    <path clip-path="url(#pbac07c8d3d)" d="M 2061.8989 232.88 
L 2077.39925 232.88 
L 2077.39925 232.167626 
L 2061.8989 232.167626 
z
" style="opacity:0.3;stroke:#000000;stroke-linejoin:miter;"/>
   </g>
   <g id="patch_133">
    <path clip-path="url(#pbac07c8d3d)" d="M 2077.39925 232.88 
L 2092.8996 232.88 
L 2092.8996 231.989533 
L 2077.39925 231.989533 
z
" style="opacity:0.3;stroke:#000000;stroke-linejoin:miter;"/>
   </g>
   <g id="patch_134">
    <path clip-path="url(#pbac07c8d3d)" d="M 2092.8996 232.88 
L 2108.39995 232.88 
L 2108.39995 231.989533 
L 2092.8996 231.989533 
z
" style="opacity:0.3;stroke:#000000;stroke-linejoin:miter;"/>
   </g>
   <g id="patch_135">
    <path clip-path="url(#pbac07c8d3d)" d="M 2108.39995 232.88 
L 2123.9003 232.88 
L 2123.9003 232.523813 
L 2108.39995 232.523813 
z
" style="opacity:0.3;stroke:#000000;stroke-linejoin:miter;"/>
   </g>
   <g id="patch_136">
    <path clip-path="url(#pbac07c8d3d)" d="M 2123.9003 232.88 
L 2139.40065 232.88 
L 2139.40065 231.277159 
L 2123.9003 231.277159 
z
" style="opacity:0.3;stroke:#000000;stroke-linejoin:miter;"/>
   </g>
   <g id="patch_137">
    <path clip-path="url(#pbac07c8d3d)" d="M 2139.40065 232.88 
L 2154.901 232.88 
L 2154.901 232.523813 
L 2139.40065 232.523813 
z
" style="opacity:0.3;stroke:#000000;stroke-linejoin:miter;"/>
   </g>
   <g id="patch_138">
    <path clip-path="url(#pbac07c8d3d)" d="M 2154.901 232.88 
L 2170.40135 232.88 
L 2170.40135 232.701907 
L 2154.901 232.701907 
z
" style="opacity:0.3;stroke:#000000;stroke-linejoin:miter;"/>
   </g>
   <g id="patch_139">
    <path clip-path="url(#pbac07c8d3d)" d="M 2170.40135 232.88 
L 2185.9017 232.88 
L 2185.9017 232.701907 
L 2170.40135 232.701907 
z
" style="opacity:0.3;stroke:#000000;stroke-linejoin:miter;"/>
   </g>
   <g id="patch_140">
    <path clip-path="url(#pbac07c8d3d)" d="M 2185.9017 232.88 
L 2201.40205 232.88 
L 2201.40205 232.523813 
L 2185.9017 232.523813 
z
" style="opacity:0.3;stroke:#000000;stroke-linejoin:miter;"/>
   </g>
   <g id="patch_141">
    <path clip-path="url(#pbac07c8d3d)" d="M 2201.40205 232.88 
L 2216.9024 232.88 
L 2216.9024 232.34572 
L 2201.40205 232.34572 
z
" style="opacity:0.3;stroke:#000000;stroke-linejoin:miter;"/>
   </g>
   <g id="patch_142">
    <path clip-path="url(#pbac07c8d3d)" d="M 2216.9024 232.88 
L 2232.40275 232.88 
L 2232.40275 232.167626 
L 2216.9024 232.167626 
z
" style="opacity:0.3;stroke:#000000;stroke-linejoin:miter;"/>
   </g>
   <g id="patch_143">
    <path clip-path="url(#pbac07c8d3d)" d="M 2232.40275 232.88 
L 2247.9031 232.88 
L 2247.9031 232.523813 
L 2232.40275 232.523813 
z
" style="opacity:0.3;stroke:#000000;stroke-linejoin:miter;"/>
   </g>
   <g id="patch_144">
    <path clip-path="url(#pbac07c8d3d)" d="M 2247.9031 232.88 
L 2263.40345 232.88 
L 2263.40345 232.34572 
L 2247.9031 232.34572 
z
" style="opacity:0.3;stroke:#000000;stroke-linejoin:miter;"/>
   </g>
   <g id="patch_145">
    <path clip-path="url(#pbac07c8d3d)" d="M 2263.40345 232.88 
L 2278.9038 232.88 
L 2278.9038 232.701907 
L 2263.40345 232.701907 
z
" style="opacity:0.3;stroke:#000000;stroke-linejoin:miter;"/>
   </g>
   <g id="patch_146">
    <path clip-path="url(#pbac07c8d3d)" d="M 2278.9038 232.88 
L 2294.40415 232.88 
L 2294.40415 232.167626 
L 2278.9038 232.167626 
z
" style="opacity:0.3;stroke:#000000;stroke-linejoin:miter;"/>
   </g>
   <g id="patch_147">
    <path clip-path="url(#pbac07c8d3d)" d="M 2294.40415 232.88 
L 2309.9045 232.88 
L 2309.9045 232.701907 
L 2294.40415 232.701907 
z
" style="opacity:0.3;stroke:#000000;stroke-linejoin:miter;"/>
   </g>
   <g id="patch_148">
    <path clip-path="url(#pbac07c8d3d)" d="M 2309.9045 232.88 
L 2325.40485 232.88 
L 2325.40485 232.701907 
L 2309.9045 232.701907 
z
" style="opacity:0.3;stroke:#000000;stroke-linejoin:miter;"/>
   </g>
   <g id="patch_149">
    <path clip-path="url(#pbac07c8d3d)" d="M 2325.40485 232.88 
L 2340.9052 232.88 
L 2340.9052 232.167626 
L 2325.40485 232.167626 
z
" style="opacity:0.3;stroke:#000000;stroke-linejoin:miter;"/>
   </g>
   <g id="patch_150">
    <path clip-path="url(#pbac07c8d3d)" d="M 2340.9052 232.88 
L 2356.40555 232.88 
L 2356.40555 232.34572 
L 2340.9052 232.34572 
z
" style="opacity:0.3;stroke:#000000;stroke-linejoin:miter;"/>
   </g>
   <g id="patch_151">
    <path clip-path="url(#pbac07c8d3d)" d="M 2356.40555 232.88 
L 2371.9059 232.88 
L 2371.9059 232.88 
L 2356.40555 232.88 
z
" style="opacity:0.3;stroke:#000000;stroke-linejoin:miter;"/>
   </g>
   <g id="patch_152">
    <path clip-path="url(#pbac07c8d3d)" d="M 2371.9059 232.88 
L 2387.40625 232.88 
L 2387.40625 232.34572 
L 2371.9059 232.34572 
z
" style="opacity:0.3;stroke:#000000;stroke-linejoin:miter;"/>
   </g>
   <g id="patch_153">
    <path clip-path="url(#pbac07c8d3d)" d="M 2387.40625 232.88 
L 2402.9066 232.88 
L 2402.9066 232.34572 
L 2387.40625 232.34572 
z
" style="opacity:0.3;stroke:#000000;stroke-linejoin:miter;"/>
   </g>
   <g id="patch_154">
    <path clip-path="url(#pbac07c8d3d)" d="M 2402.9066 232.88 
L 2418.40695 232.88 
L 2418.40695 232.701907 
L 2402.9066 232.701907 
z
" style="opacity:0.3;stroke:#000000;stroke-linejoin:miter;"/>
   </g>
   <g id="patch_155">
    <path clip-path="url(#pbac07c8d3d)" d="M 2418.40695 232.88 
L 2433.9073 232.88 
L 2433.9073 232.88 
L 2418.40695 232.88 
z
" style="opacity:0.3;stroke:#000000;stroke-linejoin:miter;"/>
   </g>
   <g id="patch_156">
    <path clip-path="url(#pbac07c8d3d)" d="M 2433.9073 232.88 
L 2449.40765 232.88 
L 2449.40765 232.701907 
L 2433.9073 232.701907 
z
" style="opacity:0.3;stroke:#000000;stroke-linejoin:miter;"/>
   </g>
   <g id="patch_157">
    <path clip-path="url(#pbac07c8d3d)" d="M 2449.40765 232.88 
L 2464.908 232.88 
L 2464.908 232.701907 
L 2449.40765 232.701907 
z
" style="opacity:0.3;stroke:#000000;stroke-linejoin:miter;"/>
   </g>
   <g id="patch_158">
    <path clip-path="url(#pbac07c8d3d)" d="M 2464.908 232.88 
L 2480.40835 232.88 
L 2480.40835 232.523813 
L 2464.908 232.523813 
z
" style="opacity:0.3;stroke:#000000;stroke-linejoin:miter;"/>
   </g>
   <g id="patch_159">
    <path clip-path="url(#pbac07c8d3d)" d="M 2480.40835 232.88 
L 2495.9087 232.88 
L 2495.9087 232.34572 
L 2480.40835 232.34572 
z
" style="opacity:0.3;stroke:#000000;stroke-linejoin:miter;"/>
   </g>
   <g id="patch_160">
    <path clip-path="url(#pbac07c8d3d)" d="M 2495.9087 232.88 
L 2511.40905 232.88 
L 2511.40905 232.523813 
L 2495.9087 232.523813 
z
" style="opacity:0.3;stroke:#000000;stroke-linejoin:miter;"/>
   </g>
   <g id="patch_161">
    <path clip-path="url(#pbac07c8d3d)" d="M 2511.40905 232.88 
L 2526.9094 232.88 
L 2526.9094 232.167626 
L 2511.40905 232.167626 
z
" style="opacity:0.3;stroke:#000000;stroke-linejoin:miter;"/>
   </g>
   <g id="patch_162">
    <path clip-path="url(#pbac07c8d3d)" d="M 2526.9094 232.88 
L 2542.40975 232.88 
L 2542.40975 232.701907 
L 2526.9094 232.701907 
z
" style="opacity:0.3;stroke:#000000;stroke-linejoin:miter;"/>
   </g>
   <g id="patch_163">
    <path clip-path="url(#pbac07c8d3d)" d="M 2542.40975 232.88 
L 2557.9101 232.88 
L 2557.9101 232.34572 
L 2542.40975 232.34572 
z
" style="opacity:0.3;stroke:#000000;stroke-linejoin:miter;"/>
   </g>
   <g id="patch_164">
    <path clip-path="url(#pbac07c8d3d)" d="M 2557.9101 232.88 
L 2573.41045 232.88 
L 2573.41045 232.34572 
L 2557.9101 232.34572 
z
" style="opacity:0.3;stroke:#000000;stroke-linejoin:miter;"/>
   </g>
   <g id="patch_165">
    <path clip-path="url(#pbac07c8d3d)" d="M 2573.41045 232.88 
L 2588.9108 232.88 
L 2588.9108 232.701907 
L 2573.41045 232.701907 
z
" style="opacity:0.3;stroke:#000000;stroke-linejoin:miter;"/>
   </g>
   <g id="patch_166">
    <path clip-path="url(#pbac07c8d3d)" d="M 2588.9108 232.88 
L 2604.41115 232.88 
L 2604.41115 232.701907 
L 2588.9108 232.701907 
z
" style="opacity:0.3;stroke:#000000;stroke-linejoin:miter;"/>
   </g>
   <g id="patch_167">
    <path clip-path="url(#pbac07c8d3d)" d="M 2604.41115 232.88 
L 2619.9115 232.88 
L 2619.9115 232.523813 
L 2604.41115 232.523813 
z
" style="opacity:0.3;stroke:#000000;stroke-linejoin:miter;"/>
   </g>
   <g id="patch_168">
    <path clip-path="url(#pbac07c8d3d)" d="M 2619.9115 232.88 
L 2635.41185 232.88 
L 2635.41185 232.34572 
L 2619.9115 232.34572 
z
" style="opacity:0.3;stroke:#000000;stroke-linejoin:miter;"/>
   </g>
   <g id="patch_169">
    <path clip-path="url(#pbac07c8d3d)" d="M 2635.41185 232.88 
L 2650.9122 232.88 
L 2650.9122 232.701907 
L 2635.41185 232.701907 
z
" style="opacity:0.3;stroke:#000000;stroke-linejoin:miter;"/>
   </g>
   <g id="patch_170">
    <path clip-path="url(#pbac07c8d3d)" d="M 2650.9122 232.88 
L 2666.41255 232.88 
L 2666.41255 232.523813 
L 2650.9122 232.523813 
z
" style="opacity:0.3;stroke:#000000;stroke-linejoin:miter;"/>
   </g>
   <g id="patch_171">
    <path clip-path="url(#pbac07c8d3d)" d="M 2666.41255 232.88 
L 2681.9129 232.88 
L 2681.9129 232.88 
L 2666.41255 232.88 
z
" style="opacity:0.3;stroke:#000000;stroke-linejoin:miter;"/>
   </g>
   <g id="patch_172">
    <path clip-path="url(#pbac07c8d3d)" d="M 2681.9129 232.88 
L 2697.41325 232.88 
L 2697.41325 232.88 
L 2681.9129 232.88 
z
" style="opacity:0.3;stroke:#000000;stroke-linejoin:miter;"/>
   </g>
   <g id="patch_173">
    <path clip-path="url(#pbac07c8d3d)" d="M 2697.41325 232.88 
L 2712.9136 232.88 
L 2712.9136 231.989533 
L 2697.41325 231.989533 
z
" style="opacity:0.3;stroke:#000000;stroke-linejoin:miter;"/>
   </g>
   <g id="patch_174">
    <path clip-path="url(#pbac07c8d3d)" d="M 2712.9136 232.88 
L 2728.41395 232.88 
L 2728.41395 232.34572 
L 2712.9136 232.34572 
z
" style="opacity:0.3;stroke:#000000;stroke-linejoin:miter;"/>
   </g>
   <g id="patch_175">
    <path clip-path="url(#pbac07c8d3d)" d="M 2728.41395 232.88 
L 2743.9143 232.88 
L 2743.9143 232.523813 
L 2728.41395 232.523813 
z
" style="opacity:0.3;stroke:#000000;stroke-linejoin:miter;"/>
   </g>
   <g id="patch_176">
    <path clip-path="url(#pbac07c8d3d)" d="M 2743.9143 232.88 
L 2759.41465 232.88 
L 2759.41465 232.701907 
L 2743.9143 232.701907 
z
" style="opacity:0.3;stroke:#000000;stroke-linejoin:miter;"/>
   </g>
   <g id="patch_177">
    <path clip-path="url(#pbac07c8d3d)" d="M 2759.41465 232.88 
L 2774.915 232.88 
L 2774.915 232.523813 
L 2759.41465 232.523813 
z
" style="opacity:0.3;stroke:#000000;stroke-linejoin:miter;"/>
   </g>
   <g id="patch_178">
    <path clip-path="url(#pbac07c8d3d)" d="M 2774.915 232.88 
L 2790.41535 232.88 
L 2790.41535 232.167626 
L 2774.915 232.167626 
z
" style="opacity:0.3;stroke:#000000;stroke-linejoin:miter;"/>
   </g>
   <g id="patch_179">
    <path clip-path="url(#pbac07c8d3d)" d="M 2790.41535 232.88 
L 2805.9157 232.88 
L 2805.9157 232.88 
L 2790.41535 232.88 
z
" style="opacity:0.3;stroke:#000000;stroke-linejoin:miter;"/>
   </g>
   <g id="patch_180">
    <path clip-path="url(#pbac07c8d3d)" d="M 2805.9157 232.88 
L 2821.41605 232.88 
L 2821.41605 232.523813 
L 2805.9157 232.523813 
z
" style="opacity:0.3;stroke:#000000;stroke-linejoin:miter;"/>
   </g>
   <g id="patch_181">
    <path clip-path="url(#pbac07c8d3d)" d="M 2821.41605 232.88 
L 2836.9164 232.88 
L 2836.9164 232.701907 
L 2821.41605 232.701907 
z
" style="opacity:0.3;stroke:#000000;stroke-linejoin:miter;"/>
   </g>
   <g id="patch_182">
    <path clip-path="url(#pbac07c8d3d)" d="M 2836.9164 232.88 
L 2852.41675 232.88 
L 2852.41675 232.88 
L 2836.9164 232.88 
z
" style="opacity:0.3;stroke:#000000;stroke-linejoin:miter;"/>
   </g>
   <g id="patch_183">
    <path clip-path="url(#pbac07c8d3d)" d="M 2852.41675 232.88 
L 2867.9171 232.88 
L 2867.9171 232.523813 
L 2852.41675 232.523813 
z
" style="opacity:0.3;stroke:#000000;stroke-linejoin:miter;"/>
   </g>
   <g id="patch_184">
    <path clip-path="url(#pbac07c8d3d)" d="M 2867.9171 232.88 
L 2883.41745 232.88 
L 2883.41745 232.701907 
L 2867.9171 232.701907 
z
" style="opacity:0.3;stroke:#000000;stroke-linejoin:miter;"/>
   </g>
   <g id="patch_185">
    <path clip-path="url(#pbac07c8d3d)" d="M 2883.41745 232.88 
L 2898.9178 232.88 
L 2898.9178 232.88 
L 2883.41745 232.88 
z
" style="opacity:0.3;stroke:#000000;stroke-linejoin:miter;"/>
   </g>
   <g id="patch_186">
    <path clip-path="url(#pbac07c8d3d)" d="M 2898.9178 232.88 
L 2914.41815 232.88 
L 2914.41815 232.701907 
L 2898.9178 232.701907 
z
" style="opacity:0.3;stroke:#000000;stroke-linejoin:miter;"/>
   </g>
   <g id="patch_187">
    <path clip-path="url(#pbac07c8d3d)" d="M 2914.41815 232.88 
L 2929.9185 232.88 
L 2929.9185 232.34572 
L 2914.41815 232.34572 
z
" style="opacity:0.3;stroke:#000000;stroke-linejoin:miter;"/>
   </g>
   <g id="patch_188">
    <path clip-path="url(#pbac07c8d3d)" d="M 2929.9185 232.88 
L 2945.41885 232.88 
L 2945.41885 232.701907 
L 2929.9185 232.701907 
z
" style="opacity:0.3;stroke:#000000;stroke-linejoin:miter;"/>
   </g>
   <g id="patch_189">
    <path clip-path="url(#pbac07c8d3d)" d="M 2945.41885 232.88 
L 2960.9192 232.88 
L 2960.9192 232.523813 
L 2945.41885 232.523813 
z
" style="opacity:0.3;stroke:#000000;stroke-linejoin:miter;"/>
   </g>
   <g id="patch_190">
    <path clip-path="url(#pbac07c8d3d)" d="M 2960.9192 232.88 
L 2976.41955 232.88 
L 2976.41955 232.701907 
L 2960.9192 232.701907 
z
" style="opacity:0.3;stroke:#000000;stroke-linejoin:miter;"/>
   </g>
   <g id="patch_191">
    <path clip-path="url(#pbac07c8d3d)" d="M 2976.41955 232.88 
L 2991.9199 232.88 
L 2991.9199 232.523813 
L 2976.41955 232.523813 
z
" style="opacity:0.3;stroke:#000000;stroke-linejoin:miter;"/>
   </g>
   <g id="patch_192">
    <path clip-path="url(#pbac07c8d3d)" d="M 2991.9199 232.88 
L 3007.42025 232.88 
L 3007.42025 232.523813 
L 2991.9199 232.523813 
z
" style="opacity:0.3;stroke:#000000;stroke-linejoin:miter;"/>
   </g>
   <g id="patch_193">
    <path clip-path="url(#pbac07c8d3d)" d="M 3007.42025 232.88 
L 3022.9206 232.88 
L 3022.9206 232.34572 
L 3007.42025 232.34572 
z
" style="opacity:0.3;stroke:#000000;stroke-linejoin:miter;"/>
   </g>
   <g id="patch_194">
    <path clip-path="url(#pbac07c8d3d)" d="M 3022.9206 232.88 
L 3038.42095 232.88 
L 3038.42095 232.701907 
L 3022.9206 232.701907 
z
" style="opacity:0.3;stroke:#000000;stroke-linejoin:miter;"/>
   </g>
   <g id="patch_195">
    <path clip-path="url(#pbac07c8d3d)" d="M 3038.42095 232.88 
L 3053.9213 232.88 
L 3053.9213 232.88 
L 3038.42095 232.88 
z
" style="opacity:0.3;stroke:#000000;stroke-linejoin:miter;"/>
   </g>
   <g id="patch_196">
    <path clip-path="url(#pbac07c8d3d)" d="M 3053.9213 232.88 
L 3069.42165 232.88 
L 3069.42165 232.701907 
L 3053.9213 232.701907 
z
" style="opacity:0.3;stroke:#000000;stroke-linejoin:miter;"/>
   </g>
   <g id="patch_197">
    <path clip-path="url(#pbac07c8d3d)" d="M 3069.42165 232.88 
L 3084.922 232.88 
L 3084.922 232.88 
L 3069.42165 232.88 
z
" style="opacity:0.3;stroke:#000000;stroke-linejoin:miter;"/>
   </g>
   <g id="patch_198">
    <path clip-path="url(#pbac07c8d3d)" d="M 3084.922 232.88 
L 3100.42235 232.88 
L 3100.42235 232.88 
L 3084.922 232.88 
z
" style="opacity:0.3;stroke:#000000;stroke-linejoin:miter;"/>
   </g>
   <g id="patch_199">
    <path clip-path="url(#pbac07c8d3d)" d="M 3100.42235 232.88 
L 3115.9227 232.88 
L 3115.9227 232.88 
L 3100.42235 232.88 
z
" style="opacity:0.3;stroke:#000000;stroke-linejoin:miter;"/>
   </g>
   <g id="patch_200">
    <path clip-path="url(#pbac07c8d3d)" d="M 3115.9227 232.88 
L 3131.42305 232.88 
L 3131.42305 232.523813 
L 3115.9227 232.523813 
z
" style="opacity:0.3;stroke:#000000;stroke-linejoin:miter;"/>
   </g>
   <g id="patch_201">
    <path clip-path="url(#pbac07c8d3d)" d="M 3131.42305 232.88 
L 3146.9234 232.88 
L 3146.9234 232.701907 
L 3131.42305 232.701907 
z
" style="opacity:0.3;stroke:#000000;stroke-linejoin:miter;"/>
   </g>
   <g id="patch_202">
    <path clip-path="url(#pbac07c8d3d)" d="M 3146.9234 232.88 
L 3162.42375 232.88 
L 3162.42375 232.88 
L 3146.9234 232.88 
z
" style="opacity:0.3;stroke:#000000;stroke-linejoin:miter;"/>
   </g>
   <g id="patch_203">
    <path clip-path="url(#pbac07c8d3d)" d="M 3162.42375 232.88 
L 3177.9241 232.88 
L 3177.9241 232.34572 
L 3162.42375 232.34572 
z
" style="opacity:0.3;stroke:#000000;stroke-linejoin:miter;"/>
   </g>
   <g id="patch_204">
    <path clip-path="url(#pbac07c8d3d)" d="M 3177.9241 232.88 
L 3193.42445 232.88 
L 3193.42445 232.701907 
L 3177.9241 232.701907 
z
" style="opacity:0.3;stroke:#000000;stroke-linejoin:miter;"/>
   </g>
   <g id="patch_205">
    <path clip-path="url(#pbac07c8d3d)" d="M 3193.42445 232.88 
L 3208.9248 232.88 
L 3208.9248 232.701907 
L 3193.42445 232.701907 
z
" style="opacity:0.3;stroke:#000000;stroke-linejoin:miter;"/>
   </g>
   <g id="patch_206">
    <path clip-path="url(#pbac07c8d3d)" d="M 3208.9248 232.88 
L 3224.42515 232.88 
L 3224.42515 232.88 
L 3208.9248 232.88 
z
" style="opacity:0.3;stroke:#000000;stroke-linejoin:miter;"/>
   </g>
   <g id="patch_207">
    <path clip-path="url(#pbac07c8d3d)" d="M 3224.42515 232.88 
L 3239.9255 232.88 
L 3239.9255 232.34572 
L 3224.42515 232.34572 
z
" style="opacity:0.3;stroke:#000000;stroke-linejoin:miter;"/>
   </g>
   <g id="patch_208">
    <path clip-path="url(#pbac07c8d3d)" d="M 3239.9255 232.88 
L 3255.42585 232.88 
L 3255.42585 232.88 
L 3239.9255 232.88 
z
" style="opacity:0.3;stroke:#000000;stroke-linejoin:miter;"/>
   </g>
   <g id="patch_209">
    <path clip-path="url(#pbac07c8d3d)" d="M 3255.42585 232.88 
L 3270.9262 232.88 
L 3270.9262 232.701907 
L 3255.42585 232.701907 
z
" style="opacity:0.3;stroke:#000000;stroke-linejoin:miter;"/>
   </g>
   <g id="patch_210">
    <path clip-path="url(#pbac07c8d3d)" d="M 3270.9262 232.88 
L 3286.42655 232.88 
L 3286.42655 232.701907 
L 3270.9262 232.701907 
z
" style="opacity:0.3;stroke:#000000;stroke-linejoin:miter;"/>
   </g>
   <g id="patch_211">
    <path clip-path="url(#pbac07c8d3d)" d="M 3286.42655 232.88 
L 3301.9269 232.88 
L 3301.9269 232.88 
L 3286.42655 232.88 
z
" style="opacity:0.3;stroke:#000000;stroke-linejoin:miter;"/>
   </g>
   <g id="patch_212">
    <path clip-path="url(#pbac07c8d3d)" d="M 3301.9269 232.88 
L 3317.42725 232.88 
L 3317.42725 232.88 
L 3301.9269 232.88 
z
" style="opacity:0.3;stroke:#000000;stroke-linejoin:miter;"/>
   </g>
   <g id="patch_213">
    <path clip-path="url(#pbac07c8d3d)" d="M 3317.42725 232.88 
L 3332.9276 232.88 
L 3332.9276 232.88 
L 3317.42725 232.88 
z
" style="opacity:0.3;stroke:#000000;stroke-linejoin:miter;"/>
   </g>
   <g id="patch_214">
    <path clip-path="url(#pbac07c8d3d)" d="M 3332.9276 232.88 
L 3348.42795 232.88 
L 3348.42795 232.701907 
L 3332.9276 232.701907 
z
" style="opacity:0.3;stroke:#000000;stroke-linejoin:miter;"/>
   </g>
   <g id="patch_215">
    <path clip-path="url(#pbac07c8d3d)" d="M 3348.42795 232.88 
L 3363.9283 232.88 
L 3363.9283 232.88 
L 3348.42795 232.88 
z
" style="opacity:0.3;stroke:#000000;stroke-linejoin:miter;"/>
   </g>
   <g id="patch_216">
    <path clip-path="url(#pbac07c8d3d)" d="M 3363.9283 232.88 
L 3379.42865 232.88 
L 3379.42865 232.523813 
L 3363.9283 232.523813 
z
" style="opacity:0.3;stroke:#000000;stroke-linejoin:miter;"/>
   </g>
   <g id="patch_217">
    <path clip-path="url(#pbac07c8d3d)" d="M 3379.42865 232.88 
L 3394.929 232.88 
L 3394.929 232.701907 
L 3379.42865 232.701907 
z
" style="opacity:0.3;stroke:#000000;stroke-linejoin:miter;"/>
   </g>
   <g id="patch_218">
    <path clip-path="url(#pbac07c8d3d)" d="M 3394.929 232.88 
L 3410.42935 232.88 
L 3410.42935 232.88 
L 3394.929 232.88 
z
" style="opacity:0.3;stroke:#000000;stroke-linejoin:miter;"/>
   </g>
   <g id="patch_219">
    <path clip-path="url(#pbac07c8d3d)" d="M 3410.42935 232.88 
L 3425.9297 232.88 
L 3425.9297 232.523813 
L 3410.42935 232.523813 
z
" style="opacity:0.3;stroke:#000000;stroke-linejoin:miter;"/>
   </g>
   <g id="patch_220">
    <path clip-path="url(#pbac07c8d3d)" d="M 3425.9297 232.88 
L 3441.43005 232.88 
L 3441.43005 232.88 
L 3425.9297 232.88 
z
" style="opacity:0.3;stroke:#000000;stroke-linejoin:miter;"/>
   </g>
   <g id="patch_221">
    <path clip-path="url(#pbac07c8d3d)" d="M 3441.43005 232.88 
L 3456.9304 232.88 
L 3456.9304 232.701907 
L 3441.43005 232.701907 
z
" style="opacity:0.3;stroke:#000000;stroke-linejoin:miter;"/>
   </g>
   <g id="patch_222">
    <path clip-path="url(#pbac07c8d3d)" d="M 3456.9304 232.88 
L 3472.43075 232.88 
L 3472.43075 232.88 
L 3456.9304 232.88 
z
" style="opacity:0.3;stroke:#000000;stroke-linejoin:miter;"/>
   </g>
   <g id="patch_223">
    <path clip-path="url(#pbac07c8d3d)" d="M 3472.43075 232.88 
L 3487.9311 232.88 
L 3487.9311 232.88 
L 3472.43075 232.88 
z
" style="opacity:0.3;stroke:#000000;stroke-linejoin:miter;"/>
   </g>
   <g id="patch_224">
    <path clip-path="url(#pbac07c8d3d)" d="M 3487.9311 232.88 
L 3503.43145 232.88 
L 3503.43145 232.523813 
L 3487.9311 232.523813 
z
" style="opacity:0.3;stroke:#000000;stroke-linejoin:miter;"/>
   </g>
   <g id="patch_225">
    <path clip-path="url(#pbac07c8d3d)" d="M 3503.43145 232.88 
L 3518.9318 232.88 
L 3518.9318 232.701907 
L 3503.43145 232.701907 
z
" style="opacity:0.3;stroke:#000000;stroke-linejoin:miter;"/>
   </g>
   <g id="patch_226">
    <path clip-path="url(#pbac07c8d3d)" d="M 3518.9318 232.88 
L 3534.43215 232.88 
L 3534.43215 232.88 
L 3518.9318 232.88 
z
" style="opacity:0.3;stroke:#000000;stroke-linejoin:miter;"/>
   </g>
   <g id="patch_227">
    <path clip-path="url(#pbac07c8d3d)" d="M 3534.43215 232.88 
L 3549.9325 232.88 
L 3549.9325 232.701907 
L 3534.43215 232.701907 
z
" style="opacity:0.3;stroke:#000000;stroke-linejoin:miter;"/>
   </g>
   <g id="patch_228">
    <path clip-path="url(#pbac07c8d3d)" d="M 3549.9325 232.88 
L 3565.43285 232.88 
L 3565.43285 232.701907 
L 3549.9325 232.701907 
z
" style="opacity:0.3;stroke:#000000;stroke-linejoin:miter;"/>
   </g>
   <g id="patch_229">
    <path clip-path="url(#pbac07c8d3d)" d="M 3565.43285 232.88 
L 3580.9332 232.88 
L 3580.9332 232.701907 
L 3565.43285 232.701907 
z
" style="opacity:0.3;stroke:#000000;stroke-linejoin:miter;"/>
   </g>
   <g id="patch_230">
    <path clip-path="url(#pbac07c8d3d)" d="M 3580.9332 232.88 
L 3596.43355 232.88 
L 3596.43355 232.523813 
L 3580.9332 232.523813 
z
" style="opacity:0.3;stroke:#000000;stroke-linejoin:miter;"/>
   </g>
   <g id="patch_231">
    <path clip-path="url(#pbac07c8d3d)" d="M 3596.43355 232.88 
L 3611.9339 232.88 
L 3611.9339 232.88 
L 3596.43355 232.88 
z
" style="opacity:0.3;stroke:#000000;stroke-linejoin:miter;"/>
   </g>
   <g id="patch_232">
    <path clip-path="url(#pbac07c8d3d)" d="M 3611.9339 232.88 
L 3627.43425 232.88 
L 3627.43425 232.88 
L 3611.9339 232.88 
z
" style="opacity:0.3;stroke:#000000;stroke-linejoin:miter;"/>
   </g>
   <g id="patch_233">
    <path clip-path="url(#pbac07c8d3d)" d="M 3627.43425 232.88 
L 3642.9346 232.88 
L 3642.9346 232.88 
L 3627.43425 232.88 
z
" style="opacity:0.3;stroke:#000000;stroke-linejoin:miter;"/>
   </g>
   <g id="patch_234">
    <path clip-path="url(#pbac07c8d3d)" d="M 3642.9346 232.88 
L 3658.43495 232.88 
L 3658.43495 232.88 
L 3642.9346 232.88 
z
" style="opacity:0.3;stroke:#000000;stroke-linejoin:miter;"/>
   </g>
   <g id="patch_235">
    <path clip-path="url(#pbac07c8d3d)" d="M 3658.43495 232.88 
L 3673.9353 232.88 
L 3673.9353 232.88 
L 3658.43495 232.88 
z
" style="opacity:0.3;stroke:#000000;stroke-linejoin:miter;"/>
   </g>
   <g id="patch_236">
    <path clip-path="url(#pbac07c8d3d)" d="M 3673.9353 232.88 
L 3689.43565 232.88 
L 3689.43565 232.523813 
L 3673.9353 232.523813 
z
" style="opacity:0.3;stroke:#000000;stroke-linejoin:miter;"/>
   </g>
   <g id="patch_237">
    <path clip-path="url(#pbac07c8d3d)" d="M 3689.43565 232.88 
L 3704.936 232.88 
L 3704.936 232.88 
L 3689.43565 232.88 
z
" style="opacity:0.3;stroke:#000000;stroke-linejoin:miter;"/>
   </g>
   <g id="patch_238">
    <path clip-path="url(#pbac07c8d3d)" d="M 3704.936 232.88 
L 3720.43635 232.88 
L 3720.43635 232.88 
L 3704.936 232.88 
z
" style="opacity:0.3;stroke:#000000;stroke-linejoin:miter;"/>
   </g>
   <g id="patch_239">
    <path clip-path="url(#pbac07c8d3d)" d="M 3720.43635 232.88 
L 3735.9367 232.88 
L 3735.9367 232.701907 
L 3720.43635 232.701907 
z
" style="opacity:0.3;stroke:#000000;stroke-linejoin:miter;"/>
   </g>
   <g id="patch_240">
    <path clip-path="url(#pbac07c8d3d)" d="M 3735.9367 232.88 
L 3751.43705 232.88 
L 3751.43705 232.701907 
L 3735.9367 232.701907 
z
" style="opacity:0.3;stroke:#000000;stroke-linejoin:miter;"/>
   </g>
   <g id="patch_241">
    <path clip-path="url(#pbac07c8d3d)" d="M 3751.43705 232.88 
L 3766.9374 232.88 
L 3766.9374 232.88 
L 3751.43705 232.88 
z
" style="opacity:0.3;stroke:#000000;stroke-linejoin:miter;"/>
   </g>
   <g id="patch_242">
    <path clip-path="url(#pbac07c8d3d)" d="M 3766.9374 232.88 
L 3782.43775 232.88 
L 3782.43775 232.88 
L 3766.9374 232.88 
z
" style="opacity:0.3;stroke:#000000;stroke-linejoin:miter;"/>
   </g>
   <g id="patch_243">
    <path clip-path="url(#pbac07c8d3d)" d="M 3782.43775 232.88 
L 3797.9381 232.88 
L 3797.9381 232.88 
L 3782.43775 232.88 
z
" style="opacity:0.3;stroke:#000000;stroke-linejoin:miter;"/>
   </g>
   <g id="patch_244">
    <path clip-path="url(#pbac07c8d3d)" d="M 3797.9381 232.88 
L 3813.43845 232.88 
L 3813.43845 232.88 
L 3797.9381 232.88 
z
" style="opacity:0.3;stroke:#000000;stroke-linejoin:miter;"/>
   </g>
   <g id="patch_245">
    <path clip-path="url(#pbac07c8d3d)" d="M 3813.43845 232.88 
L 3828.9388 232.88 
L 3828.9388 232.88 
L 3813.43845 232.88 
z
" style="opacity:0.3;stroke:#000000;stroke-linejoin:miter;"/>
   </g>
   <g id="patch_246">
    <path clip-path="url(#pbac07c8d3d)" d="M 3828.9388 232.88 
L 3844.43915 232.88 
L 3844.43915 232.88 
L 3828.9388 232.88 
z
" style="opacity:0.3;stroke:#000000;stroke-linejoin:miter;"/>
   </g>
   <g id="patch_247">
    <path clip-path="url(#pbac07c8d3d)" d="M 3844.43915 232.88 
L 3859.9395 232.88 
L 3859.9395 232.88 
L 3844.43915 232.88 
z
" style="opacity:0.3;stroke:#000000;stroke-linejoin:miter;"/>
   </g>
   <g id="patch_248">
    <path clip-path="url(#pbac07c8d3d)" d="M 3859.9395 232.88 
L 3875.43985 232.88 
L 3875.43985 232.88 
L 3859.9395 232.88 
z
" style="opacity:0.3;stroke:#000000;stroke-linejoin:miter;"/>
   </g>
   <g id="patch_249">
    <path clip-path="url(#pbac07c8d3d)" d="M 3875.43985 232.88 
L 3890.9402 232.88 
L 3890.9402 232.88 
L 3875.43985 232.88 
z
" style="opacity:0.3;stroke:#000000;stroke-linejoin:miter;"/>
   </g>
   <g id="patch_250">
    <path clip-path="url(#pbac07c8d3d)" d="M 3890.9402 232.88 
L 3906.44055 232.88 
L 3906.44055 232.88 
L 3890.9402 232.88 
z
" style="opacity:0.3;stroke:#000000;stroke-linejoin:miter;"/>
   </g>
   <g id="patch_251">
    <path clip-path="url(#pbac07c8d3d)" d="M 3906.44055 232.88 
L 3921.9409 232.88 
L 3921.9409 232.88 
L 3906.44055 232.88 
z
" style="opacity:0.3;stroke:#000000;stroke-linejoin:miter;"/>
   </g>
   <g id="patch_252">
    <path clip-path="url(#pbac07c8d3d)" d="M 3921.9409 232.88 
L 3937.44125 232.88 
L 3937.44125 232.88 
L 3921.9409 232.88 
z
" style="opacity:0.3;stroke:#000000;stroke-linejoin:miter;"/>
   </g>
   <g id="patch_253">
    <path clip-path="url(#pbac07c8d3d)" d="M 3937.44125 232.88 
L 3952.9416 232.88 
L 3952.9416 232.701907 
L 3937.44125 232.701907 
z
" style="opacity:0.3;stroke:#000000;stroke-linejoin:miter;"/>
   </g>
   <g id="line2d_1">
    <path clip-path="url(#pbac07c8d3d)" d="M 62.35375 35.730568 
L 77.8541 218.988712 
L 93.35445 224.153422 
L 108.8548 219.344899 
L 124.35515 210.440227 
L 139.8555 186.397614 
L 155.35585 155.765543 
L 170.8562 118.900202 
L 186.35655 95.926149 
L 201.8569 52.115164 
L 217.35725 28.606831 
L 232.8576 27.716364 
L 248.35795 34.662008 
L 263.8583 62.26649 
L 279.35865 107.324129 
L 294.859 143.477096 
L 310.35935 155.765543 
L 325.8597 181.945278 
L 341.36005 194.589912 
L 356.8604 203.138396 
L 372.36075 206.165985 
L 387.8611 205.987891 
L 403.36145 202.604116 
L 418.8618 204.919331 
L 434.36215 200.645088 
L 449.8625 202.78221 
L 465.36285 199.398434 
L 480.8632 198.329874 
L 496.36355 202.960303 
L 511.8639 199.754621 
L 527.36425 199.398434 
L 542.8646 202.247929 
L 558.36495 204.385051 
L 573.8653 205.097424 
L 589.36565 204.741237 
L 604.866 208.125013 
L 620.36635 210.974508 
L 635.8667 214.002096 
L 651.36705 213.467816 
L 666.8674 215.24875 
L 682.36775 217.563965 
L 697.8681 218.632525 
L 713.36845 218.810619 
L 728.8688 221.303927 
L 744.36915 221.660114 
L 759.8695 218.810619 
L 775.36985 218.276338 
L 790.8702 220.057273 
L 806.37055 219.522992 
L 821.8709 220.235366 
L 837.37125 221.303927 
L 853.20625 222.539046 
L 853.20625 222.539046 
" style="fill:none;stroke:#000000;stroke-linecap:square;stroke-width:2.0;"/>
   </g>
   <g id="patch_254">
    <path d="M 62.35375 232.88 
L 837.37125 232.88 
" style="fill:none;stroke:#000000;stroke-linecap:square;stroke-linejoin:miter;"/>
   </g>
   <g id="patch_255">
    <path d="M 62.35375 232.88 
L 62.35375 7.2 
" style="fill:none;stroke:#000000;stroke-linecap:square;stroke-linejoin:miter;"/>
   </g>
   <g id="matplotlib.axis_1">
    <g id="xtick_1">
     <g id="line2d_2">
      <defs>
       <path d="M 0 0 
L 0 4 
" id="m4bb28e9af5" style="stroke:#000000;stroke-width:0.5;"/>
      </defs>
      <g>
       <use style="stroke:#000000;stroke-width:0.5;" x="62.35375" xlink:href="#m4bb28e9af5" y="232.88"/>
      </g>
     </g>
     <g id="text_1">
      <!-- 0 -->
      <defs>
       <path d="M 31.78125 66.40625 
Q 24.171875 66.40625 20.328125 58.90625 
Q 16.5 51.421875 16.5 36.375 
Q 16.5 21.390625 20.328125 13.890625 
Q 24.171875 6.390625 31.78125 6.390625 
Q 39.453125 6.390625 43.28125 13.890625 
Q 47.125 21.390625 47.125 36.375 
Q 47.125 51.421875 43.28125 58.90625 
Q 39.453125 66.40625 31.78125 66.40625 
M 31.78125 74.21875 
Q 44.046875 74.21875 50.515625 64.515625 
Q 56.984375 54.828125 56.984375 36.375 
Q 56.984375 17.96875 50.515625 8.265625 
Q 44.046875 -1.421875 31.78125 -1.421875 
Q 19.53125 -1.421875 13.0625 8.265625 
Q 6.59375 17.96875 6.59375 36.375 
Q 6.59375 54.828125 13.0625 64.515625 
Q 19.53125 74.21875 31.78125 74.21875 
" id="BitstreamVeraSans-Roman-30"/>
      </defs>
      <g transform="translate(58.53625 249.998125)scale(0.12 -0.12)">
       <use xlink:href="#BitstreamVeraSans-Roman-30"/>
      </g>
     </g>
    </g>
    <g id="xtick_2">
     <g id="line2d_3">
      <g>
       <use style="stroke:#000000;stroke-width:0.5;" x="217.35725" xlink:href="#m4bb28e9af5" y="232.88"/>
      </g>
     </g>
     <g id="text_2">
      <!-- 10 -->
      <defs>
       <path d="M 12.40625 8.296875 
L 28.515625 8.296875 
L 28.515625 63.921875 
L 10.984375 60.40625 
L 10.984375 69.390625 
L 28.421875 72.90625 
L 38.28125 72.90625 
L 38.28125 8.296875 
L 54.390625 8.296875 
L 54.390625 0 
L 12.40625 0 
z
" id="BitstreamVeraSans-Roman-31"/>
      </defs>
      <g transform="translate(209.72225 249.998125)scale(0.12 -0.12)">
       <use xlink:href="#BitstreamVeraSans-Roman-31"/>
       <use x="63.623046875" xlink:href="#BitstreamVeraSans-Roman-30"/>
      </g>
     </g>
    </g>
    <g id="xtick_3">
     <g id="line2d_4">
      <g>
       <use style="stroke:#000000;stroke-width:0.5;" x="372.36075" xlink:href="#m4bb28e9af5" y="232.88"/>
      </g>
     </g>
     <g id="text_3">
      <!-- 20 -->
      <defs>
       <path d="M 19.1875 8.296875 
L 53.609375 8.296875 
L 53.609375 0 
L 7.328125 0 
L 7.328125 8.296875 
Q 12.9375 14.109375 22.625 23.890625 
Q 32.328125 33.6875 34.8125 36.53125 
Q 39.546875 41.84375 41.421875 45.53125 
Q 43.3125 49.21875 43.3125 52.78125 
Q 43.3125 58.59375 39.234375 62.25 
Q 35.15625 65.921875 28.609375 65.921875 
Q 23.96875 65.921875 18.8125 64.3125 
Q 13.671875 62.703125 7.8125 59.421875 
L 7.8125 69.390625 
Q 13.765625 71.78125 18.9375 73 
Q 24.125 74.21875 28.421875 74.21875 
Q 39.75 74.21875 46.484375 68.546875 
Q 53.21875 62.890625 53.21875 53.421875 
Q 53.21875 48.921875 51.53125 44.890625 
Q 49.859375 40.875 45.40625 35.40625 
Q 44.1875 33.984375 37.640625 27.21875 
Q 31.109375 20.453125 19.1875 8.296875 
" id="BitstreamVeraSans-Roman-32"/>
      </defs>
      <g transform="translate(364.72575 249.998125)scale(0.12 -0.12)">
       <use xlink:href="#BitstreamVeraSans-Roman-32"/>
       <use x="63.623046875" xlink:href="#BitstreamVeraSans-Roman-30"/>
      </g>
     </g>
    </g>
    <g id="xtick_4">
     <g id="line2d_5">
      <g>
       <use style="stroke:#000000;stroke-width:0.5;" x="527.36425" xlink:href="#m4bb28e9af5" y="232.88"/>
      </g>
     </g>
     <g id="text_4">
      <!-- 30 -->
      <defs>
       <path d="M 40.578125 39.3125 
Q 47.65625 37.796875 51.625 33 
Q 55.609375 28.21875 55.609375 21.1875 
Q 55.609375 10.40625 48.1875 4.484375 
Q 40.765625 -1.421875 27.09375 -1.421875 
Q 22.515625 -1.421875 17.65625 -0.515625 
Q 12.796875 0.390625 7.625 2.203125 
L 7.625 11.71875 
Q 11.71875 9.328125 16.59375 8.109375 
Q 21.484375 6.890625 26.8125 6.890625 
Q 36.078125 6.890625 40.9375 10.546875 
Q 45.796875 14.203125 45.796875 21.1875 
Q 45.796875 27.640625 41.28125 31.265625 
Q 36.765625 34.90625 28.71875 34.90625 
L 20.21875 34.90625 
L 20.21875 43.015625 
L 29.109375 43.015625 
Q 36.375 43.015625 40.234375 45.921875 
Q 44.09375 48.828125 44.09375 54.296875 
Q 44.09375 59.90625 40.109375 62.90625 
Q 36.140625 65.921875 28.71875 65.921875 
Q 24.65625 65.921875 20.015625 65.03125 
Q 15.375 64.15625 9.8125 62.3125 
L 9.8125 71.09375 
Q 15.4375 72.65625 20.34375 73.4375 
Q 25.25 74.21875 29.59375 74.21875 
Q 40.828125 74.21875 47.359375 69.109375 
Q 53.90625 64.015625 53.90625 55.328125 
Q 53.90625 49.265625 50.4375 45.09375 
Q 46.96875 40.921875 40.578125 39.3125 
" id="BitstreamVeraSans-Roman-33"/>
      </defs>
      <g transform="translate(519.72925 249.998125)scale(0.12 -0.12)">
       <use xlink:href="#BitstreamVeraSans-Roman-33"/>
       <use x="63.623046875" xlink:href="#BitstreamVeraSans-Roman-30"/>
      </g>
     </g>
    </g>
    <g id="xtick_5">
     <g id="line2d_6">
      <g>
       <use style="stroke:#000000;stroke-width:0.5;" x="682.36775" xlink:href="#m4bb28e9af5" y="232.88"/>
      </g>
     </g>
     <g id="text_5">
      <!-- 40 -->
      <defs>
       <path d="M 37.796875 64.3125 
L 12.890625 25.390625 
L 37.796875 25.390625 
z
M 35.203125 72.90625 
L 47.609375 72.90625 
L 47.609375 25.390625 
L 58.015625 25.390625 
L 58.015625 17.1875 
L 47.609375 17.1875 
L 47.609375 0 
L 37.796875 0 
L 37.796875 17.1875 
L 4.890625 17.1875 
L 4.890625 26.703125 
z
" id="BitstreamVeraSans-Roman-34"/>
      </defs>
      <g transform="translate(674.73275 249.998125)scale(0.12 -0.12)">
       <use xlink:href="#BitstreamVeraSans-Roman-34"/>
       <use x="63.623046875" xlink:href="#BitstreamVeraSans-Roman-30"/>
      </g>
     </g>
    </g>
    <g id="xtick_6">
     <g id="line2d_7">
      <g>
       <use style="stroke:#000000;stroke-width:0.5;" x="837.37125" xlink:href="#m4bb28e9af5" y="232.88"/>
      </g>
     </g>
     <g id="text_6">
      <!-- 50 -->
      <defs>
       <path d="M 10.796875 72.90625 
L 49.515625 72.90625 
L 49.515625 64.59375 
L 19.828125 64.59375 
L 19.828125 46.734375 
Q 21.96875 47.46875 24.109375 47.828125 
Q 26.265625 48.1875 28.421875 48.1875 
Q 40.625 48.1875 47.75 41.5 
Q 54.890625 34.8125 54.890625 23.390625 
Q 54.890625 11.625 47.5625 5.09375 
Q 40.234375 -1.421875 26.90625 -1.421875 
Q 22.3125 -1.421875 17.546875 -0.640625 
Q 12.796875 0.140625 7.71875 1.703125 
L 7.71875 11.625 
Q 12.109375 9.234375 16.796875 8.0625 
Q 21.484375 6.890625 26.703125 6.890625 
Q 35.15625 6.890625 40.078125 11.328125 
Q 45.015625 15.765625 45.015625 23.390625 
Q 45.015625 31 40.078125 35.4375 
Q 35.15625 39.890625 26.703125 39.890625 
Q 22.75 39.890625 18.8125 39.015625 
Q 14.890625 38.140625 10.796875 36.28125 
z
" id="BitstreamVeraSans-Roman-35"/>
      </defs>
      <g transform="translate(829.73625 249.998125)scale(0.12 -0.12)">
       <use xlink:href="#BitstreamVeraSans-Roman-35"/>
       <use x="63.623046875" xlink:href="#BitstreamVeraSans-Roman-30"/>
      </g>
     </g>
    </g>
    <g id="text_7">
     <!-- contour area, pixels**2 -->
     <defs>
      <path id="BitstreamVeraSans-Roman-20"/>
      <path d="M 54.890625 33.015625 
L 54.890625 0 
L 45.90625 0 
L 45.90625 32.71875 
Q 45.90625 40.484375 42.875 44.328125 
Q 39.84375 48.1875 33.796875 48.1875 
Q 26.515625 48.1875 22.3125 43.546875 
Q 18.109375 38.921875 18.109375 30.90625 
L 18.109375 0 
L 9.078125 0 
L 9.078125 54.6875 
L 18.109375 54.6875 
L 18.109375 46.1875 
Q 21.34375 51.125 25.703125 53.5625 
Q 30.078125 56 35.796875 56 
Q 45.21875 56 50.046875 50.171875 
Q 54.890625 44.34375 54.890625 33.015625 
" id="BitstreamVeraSans-Roman-6e"/>
      <path d="M 34.28125 27.484375 
Q 23.390625 27.484375 19.1875 25 
Q 14.984375 22.515625 14.984375 16.5 
Q 14.984375 11.71875 18.140625 8.90625 
Q 21.296875 6.109375 26.703125 6.109375 
Q 34.1875 6.109375 38.703125 11.40625 
Q 43.21875 16.703125 43.21875 25.484375 
L 43.21875 27.484375 
z
M 52.203125 31.203125 
L 52.203125 0 
L 43.21875 0 
L 43.21875 8.296875 
Q 40.140625 3.328125 35.546875 0.953125 
Q 30.953125 -1.421875 24.3125 -1.421875 
Q 15.921875 -1.421875 10.953125 3.296875 
Q 6 8.015625 6 15.921875 
Q 6 25.140625 12.171875 29.828125 
Q 18.359375 34.515625 30.609375 34.515625 
L 43.21875 34.515625 
L 43.21875 35.40625 
Q 43.21875 41.609375 39.140625 45 
Q 35.0625 48.390625 27.6875 48.390625 
Q 23 48.390625 18.546875 47.265625 
Q 14.109375 46.140625 10.015625 43.890625 
L 10.015625 52.203125 
Q 14.9375 54.109375 19.578125 55.046875 
Q 24.21875 56 28.609375 56 
Q 40.484375 56 46.34375 49.84375 
Q 52.203125 43.703125 52.203125 31.203125 
" id="BitstreamVeraSans-Roman-61"/>
      <path d="M 30.609375 48.390625 
Q 23.390625 48.390625 19.1875 42.75 
Q 14.984375 37.109375 14.984375 27.296875 
Q 14.984375 17.484375 19.15625 11.84375 
Q 23.34375 6.203125 30.609375 6.203125 
Q 37.796875 6.203125 41.984375 11.859375 
Q 46.1875 17.53125 46.1875 27.296875 
Q 46.1875 37.015625 41.984375 42.703125 
Q 37.796875 48.390625 30.609375 48.390625 
M 30.609375 56 
Q 42.328125 56 49.015625 48.375 
Q 55.71875 40.765625 55.71875 27.296875 
Q 55.71875 13.875 49.015625 6.21875 
Q 42.328125 -1.421875 30.609375 -1.421875 
Q 18.84375 -1.421875 12.171875 6.21875 
Q 5.515625 13.875 5.515625 27.296875 
Q 5.515625 40.765625 12.171875 48.375 
Q 18.84375 56 30.609375 56 
" id="BitstreamVeraSans-Roman-6f"/>
      <path d="M 9.421875 75.984375 
L 18.40625 75.984375 
L 18.40625 0 
L 9.421875 0 
z
" id="BitstreamVeraSans-Roman-6c"/>
      <path d="M 47.015625 60.890625 
L 29.5 51.421875 
L 47.015625 41.890625 
L 44.1875 37.109375 
L 27.78125 47.015625 
L 27.78125 28.609375 
L 22.21875 28.609375 
L 22.21875 47.015625 
L 5.8125 37.109375 
L 2.984375 41.890625 
L 20.515625 51.421875 
L 2.984375 60.890625 
L 5.8125 65.71875 
L 22.21875 55.8125 
L 22.21875 74.21875 
L 27.78125 74.21875 
L 27.78125 55.8125 
L 44.1875 65.71875 
z
" id="BitstreamVeraSans-Roman-2a"/>
      <path d="M 11.71875 12.40625 
L 22.015625 12.40625 
L 22.015625 4 
L 14.015625 -11.625 
L 7.71875 -11.625 
L 11.71875 4 
z
" id="BitstreamVeraSans-Roman-2c"/>
      <path d="M 9.421875 54.6875 
L 18.40625 54.6875 
L 18.40625 0 
L 9.421875 0 
z
M 9.421875 75.984375 
L 18.40625 75.984375 
L 18.40625 64.59375 
L 9.421875 64.59375 
z
" id="BitstreamVeraSans-Roman-69"/>
      <path d="M 18.109375 8.203125 
L 18.109375 -20.796875 
L 9.078125 -20.796875 
L 9.078125 54.6875 
L 18.109375 54.6875 
L 18.109375 46.390625 
Q 20.953125 51.265625 25.265625 53.625 
Q 29.59375 56 35.59375 56 
Q 45.5625 56 51.78125 48.09375 
Q 58.015625 40.1875 58.015625 27.296875 
Q 58.015625 14.40625 51.78125 6.484375 
Q 45.5625 -1.421875 35.59375 -1.421875 
Q 29.59375 -1.421875 25.265625 0.953125 
Q 20.953125 3.328125 18.109375 8.203125 
M 48.6875 27.296875 
Q 48.6875 37.203125 44.609375 42.84375 
Q 40.53125 48.484375 33.40625 48.484375 
Q 26.265625 48.484375 22.1875 42.84375 
Q 18.109375 37.203125 18.109375 27.296875 
Q 18.109375 17.390625 22.1875 11.75 
Q 26.265625 6.109375 33.40625 6.109375 
Q 40.53125 6.109375 44.609375 11.75 
Q 48.6875 17.390625 48.6875 27.296875 
" id="BitstreamVeraSans-Roman-70"/>
      <path d="M 54.890625 54.6875 
L 35.109375 28.078125 
L 55.90625 0 
L 45.3125 0 
L 29.390625 21.484375 
L 13.484375 0 
L 2.875 0 
L 24.125 28.609375 
L 4.6875 54.6875 
L 15.28125 54.6875 
L 29.78125 35.203125 
L 44.28125 54.6875 
z
" id="BitstreamVeraSans-Roman-78"/>
      <path d="M 56.203125 29.59375 
L 56.203125 25.203125 
L 14.890625 25.203125 
Q 15.484375 15.921875 20.484375 11.0625 
Q 25.484375 6.203125 34.421875 6.203125 
Q 39.59375 6.203125 44.453125 7.46875 
Q 49.3125 8.734375 54.109375 11.28125 
L 54.109375 2.78125 
Q 49.265625 0.734375 44.1875 -0.34375 
Q 39.109375 -1.421875 33.890625 -1.421875 
Q 20.796875 -1.421875 13.15625 6.1875 
Q 5.515625 13.8125 5.515625 26.8125 
Q 5.515625 40.234375 12.765625 48.109375 
Q 20.015625 56 32.328125 56 
Q 43.359375 56 49.78125 48.890625 
Q 56.203125 41.796875 56.203125 29.59375 
M 47.21875 32.234375 
Q 47.125 39.59375 43.09375 43.984375 
Q 39.0625 48.390625 32.421875 48.390625 
Q 24.90625 48.390625 20.390625 44.140625 
Q 15.875 39.890625 15.1875 32.171875 
z
" id="BitstreamVeraSans-Roman-65"/>
      <path d="M 18.3125 70.21875 
L 18.3125 54.6875 
L 36.8125 54.6875 
L 36.8125 47.703125 
L 18.3125 47.703125 
L 18.3125 18.015625 
Q 18.3125 11.328125 20.140625 9.421875 
Q 21.96875 7.515625 27.59375 7.515625 
L 36.8125 7.515625 
L 36.8125 0 
L 27.59375 0 
Q 17.1875 0 13.234375 3.875 
Q 9.28125 7.765625 9.28125 18.015625 
L 9.28125 47.703125 
L 2.6875 47.703125 
L 2.6875 54.6875 
L 9.28125 54.6875 
L 9.28125 70.21875 
z
" id="BitstreamVeraSans-Roman-74"/>
      <path d="M 8.5 21.578125 
L 8.5 54.6875 
L 17.484375 54.6875 
L 17.484375 21.921875 
Q 17.484375 14.15625 20.5 10.265625 
Q 23.53125 6.390625 29.59375 6.390625 
Q 36.859375 6.390625 41.078125 11.03125 
Q 45.3125 15.671875 45.3125 23.6875 
L 45.3125 54.6875 
L 54.296875 54.6875 
L 54.296875 0 
L 45.3125 0 
L 45.3125 8.40625 
Q 42.046875 3.421875 37.71875 1 
Q 33.40625 -1.421875 27.6875 -1.421875 
Q 18.265625 -1.421875 13.375 4.4375 
Q 8.5 10.296875 8.5 21.578125 
" id="BitstreamVeraSans-Roman-75"/>
      <path d="M 41.109375 46.296875 
Q 39.59375 47.171875 37.8125 47.578125 
Q 36.03125 48 33.890625 48 
Q 26.265625 48 22.1875 43.046875 
Q 18.109375 38.09375 18.109375 28.8125 
L 18.109375 0 
L 9.078125 0 
L 9.078125 54.6875 
L 18.109375 54.6875 
L 18.109375 46.1875 
Q 20.953125 51.171875 25.484375 53.578125 
Q 30.03125 56 36.53125 56 
Q 37.453125 56 38.578125 55.875 
Q 39.703125 55.765625 41.0625 55.515625 
z
" id="BitstreamVeraSans-Roman-72"/>
      <path d="M 44.28125 53.078125 
L 44.28125 44.578125 
Q 40.484375 46.53125 36.375 47.5 
Q 32.28125 48.484375 27.875 48.484375 
Q 21.1875 48.484375 17.84375 46.4375 
Q 14.5 44.390625 14.5 40.28125 
Q 14.5 37.15625 16.890625 35.375 
Q 19.28125 33.59375 26.515625 31.984375 
L 29.59375 31.296875 
Q 39.15625 29.25 43.1875 25.515625 
Q 47.21875 21.78125 47.21875 15.09375 
Q 47.21875 7.46875 41.1875 3.015625 
Q 35.15625 -1.421875 24.609375 -1.421875 
Q 20.21875 -1.421875 15.453125 -0.5625 
Q 10.6875 0.296875 5.421875 2 
L 5.421875 11.28125 
Q 10.40625 8.6875 15.234375 7.390625 
Q 20.0625 6.109375 24.8125 6.109375 
Q 31.15625 6.109375 34.5625 8.28125 
Q 37.984375 10.453125 37.984375 14.40625 
Q 37.984375 18.0625 35.515625 20.015625 
Q 33.0625 21.96875 24.703125 23.78125 
L 21.578125 24.515625 
Q 13.234375 26.265625 9.515625 29.90625 
Q 5.8125 33.546875 5.8125 39.890625 
Q 5.8125 47.609375 11.28125 51.796875 
Q 16.75 56 26.8125 56 
Q 31.78125 56 36.171875 55.265625 
Q 40.578125 54.546875 44.28125 53.078125 
" id="BitstreamVeraSans-Roman-73"/>
      <path d="M 48.78125 52.59375 
L 48.78125 44.1875 
Q 44.96875 46.296875 41.140625 47.34375 
Q 37.3125 48.390625 33.40625 48.390625 
Q 24.65625 48.390625 19.8125 42.84375 
Q 14.984375 37.3125 14.984375 27.296875 
Q 14.984375 17.28125 19.8125 11.734375 
Q 24.65625 6.203125 33.40625 6.203125 
Q 37.3125 6.203125 41.140625 7.25 
Q 44.96875 8.296875 48.78125 10.40625 
L 48.78125 2.09375 
Q 45.015625 0.34375 40.984375 -0.53125 
Q 36.96875 -1.421875 32.421875 -1.421875 
Q 20.0625 -1.421875 12.78125 6.34375 
Q 5.515625 14.109375 5.515625 27.296875 
Q 5.515625 40.671875 12.859375 48.328125 
Q 20.21875 56 33.015625 56 
Q 37.15625 56 41.109375 55.140625 
Q 45.0625 54.296875 48.78125 52.59375 
" id="BitstreamVeraSans-Roman-63"/>
     </defs>
     <g transform="translate(380.24 266.611875)scale(0.12 -0.12)">
      <use xlink:href="#BitstreamVeraSans-Roman-63"/>
      <use x="54.98046875" xlink:href="#BitstreamVeraSans-Roman-6f"/>
      <use x="116.162109375" xlink:href="#BitstreamVeraSans-Roman-6e"/>
      <use x="179.541015625" xlink:href="#BitstreamVeraSans-Roman-74"/>
      <use x="218.75" xlink:href="#BitstreamVeraSans-Roman-6f"/>
      <use x="279.931640625" xlink:href="#BitstreamVeraSans-Roman-75"/>
      <use x="343.310546875" xlink:href="#BitstreamVeraSans-Roman-72"/>
      <use x="384.423828125" xlink:href="#BitstreamVeraSans-Roman-20"/>
      <use x="416.2109375" xlink:href="#BitstreamVeraSans-Roman-61"/>
      <use x="477.490234375" xlink:href="#BitstreamVeraSans-Roman-72"/>
      <use x="518.572265625" xlink:href="#BitstreamVeraSans-Roman-65"/>
      <use x="580.095703125" xlink:href="#BitstreamVeraSans-Roman-61"/>
      <use x="641.375" xlink:href="#BitstreamVeraSans-Roman-2c"/>
      <use x="673.162109375" xlink:href="#BitstreamVeraSans-Roman-20"/>
      <use x="704.94921875" xlink:href="#BitstreamVeraSans-Roman-70"/>
      <use x="768.42578125" xlink:href="#BitstreamVeraSans-Roman-69"/>
      <use x="796.208984375" xlink:href="#BitstreamVeraSans-Roman-78"/>
      <use x="855.341796875" xlink:href="#BitstreamVeraSans-Roman-65"/>
      <use x="916.865234375" xlink:href="#BitstreamVeraSans-Roman-6c"/>
      <use x="944.6484375" xlink:href="#BitstreamVeraSans-Roman-73"/>
      <use x="996.748046875" xlink:href="#BitstreamVeraSans-Roman-2a"/>
      <use x="1046.74804688" xlink:href="#BitstreamVeraSans-Roman-2a"/>
      <use x="1096.74804688" xlink:href="#BitstreamVeraSans-Roman-32"/>
     </g>
    </g>
   </g>
   <g id="matplotlib.axis_2">
    <g id="ytick_1">
     <g id="line2d_8">
      <defs>
       <path d="M 0 0 
L -4 0 
" id="m2aa1f6d052" style="stroke:#000000;stroke-width:0.5;"/>
      </defs>
      <g>
       <use style="stroke:#000000;stroke-width:0.5;" x="62.35375" xlink:href="#m2aa1f6d052" y="232.88"/>
      </g>
     </g>
     <g id="text_8">
      <!-- 0 -->
      <g transform="translate(46.71875 236.19125)scale(0.12 -0.12)">
       <use xlink:href="#BitstreamVeraSans-Roman-30"/>
      </g>
     </g>
    </g>
    <g id="ytick_2">
     <g id="line2d_9">
      <g>
       <use style="stroke:#000000;stroke-width:0.5;" x="62.35375" xlink:href="#m2aa1f6d052" y="197.261313131"/>
      </g>
     </g>
     <g id="text_9">
      <!-- 200 -->
      <g transform="translate(31.44875 200.572563131)scale(0.12 -0.12)">
       <use xlink:href="#BitstreamVeraSans-Roman-32"/>
       <use x="63.623046875" xlink:href="#BitstreamVeraSans-Roman-30"/>
       <use x="127.24609375" xlink:href="#BitstreamVeraSans-Roman-30"/>
      </g>
     </g>
    </g>
    <g id="ytick_3">
     <g id="line2d_10">
      <g>
       <use style="stroke:#000000;stroke-width:0.5;" x="62.35375" xlink:href="#m2aa1f6d052" y="161.642626263"/>
      </g>
     </g>
     <g id="text_10">
      <!-- 400 -->
      <g transform="translate(31.44875 164.953876263)scale(0.12 -0.12)">
       <use xlink:href="#BitstreamVeraSans-Roman-34"/>
       <use x="63.623046875" xlink:href="#BitstreamVeraSans-Roman-30"/>
       <use x="127.24609375" xlink:href="#BitstreamVeraSans-Roman-30"/>
      </g>
     </g>
    </g>
    <g id="ytick_4">
     <g id="line2d_11">
      <g>
       <use style="stroke:#000000;stroke-width:0.5;" x="62.35375" xlink:href="#m2aa1f6d052" y="126.023939394"/>
      </g>
     </g>
     <g id="text_11">
      <!-- 600 -->
      <defs>
       <path d="M 33.015625 40.375 
Q 26.375 40.375 22.484375 35.828125 
Q 18.609375 31.296875 18.609375 23.390625 
Q 18.609375 15.53125 22.484375 10.953125 
Q 26.375 6.390625 33.015625 6.390625 
Q 39.65625 6.390625 43.53125 10.953125 
Q 47.40625 15.53125 47.40625 23.390625 
Q 47.40625 31.296875 43.53125 35.828125 
Q 39.65625 40.375 33.015625 40.375 
M 52.59375 71.296875 
L 52.59375 62.3125 
Q 48.875 64.0625 45.09375 64.984375 
Q 41.3125 65.921875 37.59375 65.921875 
Q 27.828125 65.921875 22.671875 59.328125 
Q 17.53125 52.734375 16.796875 39.40625 
Q 19.671875 43.65625 24.015625 45.921875 
Q 28.375 48.1875 33.59375 48.1875 
Q 44.578125 48.1875 50.953125 41.515625 
Q 57.328125 34.859375 57.328125 23.390625 
Q 57.328125 12.15625 50.6875 5.359375 
Q 44.046875 -1.421875 33.015625 -1.421875 
Q 20.359375 -1.421875 13.671875 8.265625 
Q 6.984375 17.96875 6.984375 36.375 
Q 6.984375 53.65625 15.1875 63.9375 
Q 23.390625 74.21875 37.203125 74.21875 
Q 40.921875 74.21875 44.703125 73.484375 
Q 48.484375 72.75 52.59375 71.296875 
" id="BitstreamVeraSans-Roman-36"/>
      </defs>
      <g transform="translate(31.44875 129.335189394)scale(0.12 -0.12)">
       <use xlink:href="#BitstreamVeraSans-Roman-36"/>
       <use x="63.623046875" xlink:href="#BitstreamVeraSans-Roman-30"/>
       <use x="127.24609375" xlink:href="#BitstreamVeraSans-Roman-30"/>
      </g>
     </g>
    </g>
    <g id="ytick_5">
     <g id="line2d_12">
      <g>
       <use style="stroke:#000000;stroke-width:0.5;" x="62.35375" xlink:href="#m2aa1f6d052" y="90.4052525253"/>
      </g>
     </g>
     <g id="text_12">
      <!-- 800 -->
      <defs>
       <path d="M 31.78125 34.625 
Q 24.75 34.625 20.71875 30.859375 
Q 16.703125 27.09375 16.703125 20.515625 
Q 16.703125 13.921875 20.71875 10.15625 
Q 24.75 6.390625 31.78125 6.390625 
Q 38.8125 6.390625 42.859375 10.171875 
Q 46.921875 13.96875 46.921875 20.515625 
Q 46.921875 27.09375 42.890625 30.859375 
Q 38.875 34.625 31.78125 34.625 
M 21.921875 38.8125 
Q 15.578125 40.375 12.03125 44.71875 
Q 8.5 49.078125 8.5 55.328125 
Q 8.5 64.0625 14.71875 69.140625 
Q 20.953125 74.21875 31.78125 74.21875 
Q 42.671875 74.21875 48.875 69.140625 
Q 55.078125 64.0625 55.078125 55.328125 
Q 55.078125 49.078125 51.53125 44.71875 
Q 48 40.375 41.703125 38.8125 
Q 48.828125 37.15625 52.796875 32.3125 
Q 56.78125 27.484375 56.78125 20.515625 
Q 56.78125 9.90625 50.3125 4.234375 
Q 43.84375 -1.421875 31.78125 -1.421875 
Q 19.734375 -1.421875 13.25 4.234375 
Q 6.78125 9.90625 6.78125 20.515625 
Q 6.78125 27.484375 10.78125 32.3125 
Q 14.796875 37.15625 21.921875 38.8125 
M 18.3125 54.390625 
Q 18.3125 48.734375 21.84375 45.5625 
Q 25.390625 42.390625 31.78125 42.390625 
Q 38.140625 42.390625 41.71875 45.5625 
Q 45.3125 48.734375 45.3125 54.390625 
Q 45.3125 60.0625 41.71875 63.234375 
Q 38.140625 66.40625 31.78125 66.40625 
Q 25.390625 66.40625 21.84375 63.234375 
Q 18.3125 60.0625 18.3125 54.390625 
" id="BitstreamVeraSans-Roman-38"/>
      </defs>
      <g transform="translate(31.44875 93.7165025253)scale(0.12 -0.12)">
       <use xlink:href="#BitstreamVeraSans-Roman-38"/>
       <use x="63.623046875" xlink:href="#BitstreamVeraSans-Roman-30"/>
       <use x="127.24609375" xlink:href="#BitstreamVeraSans-Roman-30"/>
      </g>
     </g>
    </g>
    <g id="ytick_6">
     <g id="line2d_13">
      <g>
       <use style="stroke:#000000;stroke-width:0.5;" x="62.35375" xlink:href="#m2aa1f6d052" y="54.7865656566"/>
      </g>
     </g>
     <g id="text_13">
      <!-- 1000 -->
      <g transform="translate(23.81375 58.0978156566)scale(0.12 -0.12)">
       <use xlink:href="#BitstreamVeraSans-Roman-31"/>
       <use x="63.623046875" xlink:href="#BitstreamVeraSans-Roman-30"/>
       <use x="127.24609375" xlink:href="#BitstreamVeraSans-Roman-30"/>
       <use x="190.869140625" xlink:href="#BitstreamVeraSans-Roman-30"/>
      </g>
     </g>
    </g>
    <g id="ytick_7">
     <g id="line2d_14">
      <g>
       <use style="stroke:#000000;stroke-width:0.5;" x="62.35375" xlink:href="#m2aa1f6d052" y="19.1678787879"/>
      </g>
     </g>
     <g id="text_14">
      <!-- 1200 -->
      <g transform="translate(23.81375 22.4791287879)scale(0.12 -0.12)">
       <use xlink:href="#BitstreamVeraSans-Roman-31"/>
       <use x="63.623046875" xlink:href="#BitstreamVeraSans-Roman-32"/>
       <use x="127.24609375" xlink:href="#BitstreamVeraSans-Roman-30"/>
       <use x="190.869140625" xlink:href="#BitstreamVeraSans-Roman-30"/>
      </g>
     </g>
    </g>
    <g id="text_15">
     <!-- count -->
     <g transform="translate(16.318125 136.9675)rotate(-90.0)scale(0.12 -0.12)">
      <use xlink:href="#BitstreamVeraSans-Roman-63"/>
      <use x="54.98046875" xlink:href="#BitstreamVeraSans-Roman-6f"/>
      <use x="116.162109375" xlink:href="#BitstreamVeraSans-Roman-75"/>
      <use x="179.541015625" xlink:href="#BitstreamVeraSans-Roman-6e"/>
      <use x="242.919921875" xlink:href="#BitstreamVeraSans-Roman-74"/>
     </g>
    </g>
   </g>
   <g id="text_16">
    <!-- single pupa mode size: 11.0  -->
    <defs>
     <path d="M 52 44.1875 
Q 55.375 50.25 60.0625 53.125 
Q 64.75 56 71.09375 56 
Q 79.640625 56 84.28125 50.015625 
Q 88.921875 44.046875 88.921875 33.015625 
L 88.921875 0 
L 79.890625 0 
L 79.890625 32.71875 
Q 79.890625 40.578125 77.09375 44.375 
Q 74.3125 48.1875 68.609375 48.1875 
Q 61.625 48.1875 57.5625 43.546875 
Q 53.515625 38.921875 53.515625 30.90625 
L 53.515625 0 
L 44.484375 0 
L 44.484375 32.71875 
Q 44.484375 40.625 41.703125 44.40625 
Q 38.921875 48.1875 33.109375 48.1875 
Q 26.21875 48.1875 22.15625 43.53125 
Q 18.109375 38.875 18.109375 30.90625 
L 18.109375 0 
L 9.078125 0 
L 9.078125 54.6875 
L 18.109375 54.6875 
L 18.109375 46.1875 
Q 21.1875 51.21875 25.484375 53.609375 
Q 29.78125 56 35.6875 56 
Q 41.65625 56 45.828125 52.96875 
Q 50 49.953125 52 44.1875 
" id="BitstreamVeraSans-Roman-6d"/>
     <path d="M 5.515625 54.6875 
L 48.1875 54.6875 
L 48.1875 46.484375 
L 14.40625 7.171875 
L 48.1875 7.171875 
L 48.1875 0 
L 4.296875 0 
L 4.296875 8.203125 
L 38.09375 47.515625 
L 5.515625 47.515625 
z
" id="BitstreamVeraSans-Roman-7a"/>
     <path d="M 11.71875 12.40625 
L 22.015625 12.40625 
L 22.015625 0 
L 11.71875 0 
z
M 11.71875 51.703125 
L 22.015625 51.703125 
L 22.015625 39.3125 
L 11.71875 39.3125 
z
" id="BitstreamVeraSans-Roman-3a"/>
     <path d="M 10.6875 12.40625 
L 21 12.40625 
L 21 0 
L 10.6875 0 
z
" id="BitstreamVeraSans-Roman-2e"/>
     <path d="M 45.40625 46.390625 
L 45.40625 75.984375 
L 54.390625 75.984375 
L 54.390625 0 
L 45.40625 0 
L 45.40625 8.203125 
Q 42.578125 3.328125 38.25 0.953125 
Q 33.9375 -1.421875 27.875 -1.421875 
Q 17.96875 -1.421875 11.734375 6.484375 
Q 5.515625 14.40625 5.515625 27.296875 
Q 5.515625 40.1875 11.734375 48.09375 
Q 17.96875 56 27.875 56 
Q 33.9375 56 38.25 53.625 
Q 42.578125 51.265625 45.40625 46.390625 
M 14.796875 27.296875 
Q 14.796875 17.390625 18.875 11.75 
Q 22.953125 6.109375 30.078125 6.109375 
Q 37.203125 6.109375 41.296875 11.75 
Q 45.40625 17.390625 45.40625 27.296875 
Q 45.40625 37.203125 41.296875 42.84375 
Q 37.203125 48.484375 30.078125 48.484375 
Q 22.953125 48.484375 18.875 42.84375 
Q 14.796875 37.203125 14.796875 27.296875 
" id="BitstreamVeraSans-Roman-64"/>
     <path d="M 45.40625 27.984375 
Q 45.40625 37.75 41.375 43.109375 
Q 37.359375 48.484375 30.078125 48.484375 
Q 22.859375 48.484375 18.828125 43.109375 
Q 14.796875 37.75 14.796875 27.984375 
Q 14.796875 18.265625 18.828125 12.890625 
Q 22.859375 7.515625 30.078125 7.515625 
Q 37.359375 7.515625 41.375 12.890625 
Q 45.40625 18.265625 45.40625 27.984375 
M 54.390625 6.78125 
Q 54.390625 -7.171875 48.1875 -13.984375 
Q 42 -20.796875 29.203125 -20.796875 
Q 24.46875 -20.796875 20.265625 -20.09375 
Q 16.0625 -19.390625 12.109375 -17.921875 
L 12.109375 -9.1875 
Q 16.0625 -11.328125 19.921875 -12.34375 
Q 23.78125 -13.375 27.78125 -13.375 
Q 36.625 -13.375 41.015625 -8.765625 
Q 45.40625 -4.15625 45.40625 5.171875 
L 45.40625 9.625 
Q 42.625 4.78125 38.28125 2.390625 
Q 33.9375 0 27.875 0 
Q 17.828125 0 11.671875 7.65625 
Q 5.515625 15.328125 5.515625 27.984375 
Q 5.515625 40.671875 11.671875 48.328125 
Q 17.828125 56 27.875 56 
Q 33.9375 56 38.28125 53.609375 
Q 42.625 51.21875 45.40625 46.390625 
L 45.40625 54.6875 
L 54.390625 54.6875 
z
" id="BitstreamVeraSans-Roman-67"/>
    </defs>
    <g transform="translate(241.3827925 21.3579772727)scale(0.12 -0.12)">
     <use xlink:href="#BitstreamVeraSans-Roman-73"/>
     <use x="52.099609375" xlink:href="#BitstreamVeraSans-Roman-69"/>
     <use x="79.8828125" xlink:href="#BitstreamVeraSans-Roman-6e"/>
     <use x="143.26171875" xlink:href="#BitstreamVeraSans-Roman-67"/>
     <use x="206.73828125" xlink:href="#BitstreamVeraSans-Roman-6c"/>
     <use x="234.521484375" xlink:href="#BitstreamVeraSans-Roman-65"/>
     <use x="296.044921875" xlink:href="#BitstreamVeraSans-Roman-20"/>
     <use x="327.83203125" xlink:href="#BitstreamVeraSans-Roman-70"/>
     <use x="391.30859375" xlink:href="#BitstreamVeraSans-Roman-75"/>
     <use x="454.6875" xlink:href="#BitstreamVeraSans-Roman-70"/>
     <use x="518.1640625" xlink:href="#BitstreamVeraSans-Roman-61"/>
     <use x="579.443359375" xlink:href="#BitstreamVeraSans-Roman-20"/>
     <use x="611.23046875" xlink:href="#BitstreamVeraSans-Roman-6d"/>
     <use x="708.642578125" xlink:href="#BitstreamVeraSans-Roman-6f"/>
     <use x="769.82421875" xlink:href="#BitstreamVeraSans-Roman-64"/>
     <use x="833.30078125" xlink:href="#BitstreamVeraSans-Roman-65"/>
     <use x="894.82421875" xlink:href="#BitstreamVeraSans-Roman-20"/>
     <use x="926.611328125" xlink:href="#BitstreamVeraSans-Roman-73"/>
     <use x="978.7109375" xlink:href="#BitstreamVeraSans-Roman-69"/>
     <use x="1006.49414062" xlink:href="#BitstreamVeraSans-Roman-7a"/>
     <use x="1058.984375" xlink:href="#BitstreamVeraSans-Roman-65"/>
     <use x="1120.5078125" xlink:href="#BitstreamVeraSans-Roman-3a"/>
     <use x="1154.19921875" xlink:href="#BitstreamVeraSans-Roman-20"/>
     <use x="1185.98632812" xlink:href="#BitstreamVeraSans-Roman-31"/>
     <use x="1249.609375" xlink:href="#BitstreamVeraSans-Roman-31"/>
     <use x="1313.23242188" xlink:href="#BitstreamVeraSans-Roman-2e"/>
     <use x="1345.01953125" xlink:href="#BitstreamVeraSans-Roman-30"/>
     <use x="1408.64257812" xlink:href="#BitstreamVeraSans-Roman-20"/>
    </g>
    <!--       total contour area: 457476  -->
    <defs>
     <path d="M 8.203125 72.90625 
L 55.078125 72.90625 
L 55.078125 68.703125 
L 28.609375 0 
L 18.3125 0 
L 43.21875 64.59375 
L 8.203125 64.59375 
z
" id="BitstreamVeraSans-Roman-37"/>
    </defs>
    <g transform="translate(241.3827925 34.7953522727)scale(0.12 -0.12)">
     <use xlink:href="#BitstreamVeraSans-Roman-20"/>
     <use x="31.787109375" xlink:href="#BitstreamVeraSans-Roman-20"/>
     <use x="63.57421875" xlink:href="#BitstreamVeraSans-Roman-20"/>
     <use x="95.361328125" xlink:href="#BitstreamVeraSans-Roman-20"/>
     <use x="127.1484375" xlink:href="#BitstreamVeraSans-Roman-20"/>
     <use x="158.935546875" xlink:href="#BitstreamVeraSans-Roman-20"/>
     <use x="190.72265625" xlink:href="#BitstreamVeraSans-Roman-74"/>
     <use x="229.931640625" xlink:href="#BitstreamVeraSans-Roman-6f"/>
     <use x="291.11328125" xlink:href="#BitstreamVeraSans-Roman-74"/>
     <use x="330.322265625" xlink:href="#BitstreamVeraSans-Roman-61"/>
     <use x="391.6015625" xlink:href="#BitstreamVeraSans-Roman-6c"/>
     <use x="419.384765625" xlink:href="#BitstreamVeraSans-Roman-20"/>
     <use x="451.171875" xlink:href="#BitstreamVeraSans-Roman-63"/>
     <use x="506.15234375" xlink:href="#BitstreamVeraSans-Roman-6f"/>
     <use x="567.333984375" xlink:href="#BitstreamVeraSans-Roman-6e"/>
     <use x="630.712890625" xlink:href="#BitstreamVeraSans-Roman-74"/>
     <use x="669.921875" xlink:href="#BitstreamVeraSans-Roman-6f"/>
     <use x="731.103515625" xlink:href="#BitstreamVeraSans-Roman-75"/>
     <use x="794.482421875" xlink:href="#BitstreamVeraSans-Roman-72"/>
     <use x="835.595703125" xlink:href="#BitstreamVeraSans-Roman-20"/>
     <use x="867.3828125" xlink:href="#BitstreamVeraSans-Roman-61"/>
     <use x="928.662109375" xlink:href="#BitstreamVeraSans-Roman-72"/>
     <use x="969.744140625" xlink:href="#BitstreamVeraSans-Roman-65"/>
     <use x="1031.26757812" xlink:href="#BitstreamVeraSans-Roman-61"/>
     <use x="1092.546875" xlink:href="#BitstreamVeraSans-Roman-3a"/>
     <use x="1126.23828125" xlink:href="#BitstreamVeraSans-Roman-20"/>
     <use x="1158.02539062" xlink:href="#BitstreamVeraSans-Roman-34"/>
     <use x="1221.6484375" xlink:href="#BitstreamVeraSans-Roman-35"/>
     <use x="1285.27148438" xlink:href="#BitstreamVeraSans-Roman-37"/>
     <use x="1348.89453125" xlink:href="#BitstreamVeraSans-Roman-34"/>
     <use x="1412.51757812" xlink:href="#BitstreamVeraSans-Roman-37"/>
     <use x="1476.140625" xlink:href="#BitstreamVeraSans-Roman-36"/>
     <use x="1539.76367188" xlink:href="#BitstreamVeraSans-Roman-20"/>
    </g>
    <!--       estimated pupae: 41589 -->
    <defs>
     <path d="M 10.984375 1.515625 
L 10.984375 10.5 
Q 14.703125 8.734375 18.5 7.8125 
Q 22.3125 6.890625 25.984375 6.890625 
Q 35.75 6.890625 40.890625 13.453125 
Q 46.046875 20.015625 46.78125 33.40625 
Q 43.953125 29.203125 39.59375 26.953125 
Q 35.25 24.703125 29.984375 24.703125 
Q 19.046875 24.703125 12.671875 31.3125 
Q 6.296875 37.9375 6.296875 49.421875 
Q 6.296875 60.640625 12.9375 67.421875 
Q 19.578125 74.21875 30.609375 74.21875 
Q 43.265625 74.21875 49.921875 64.515625 
Q 56.59375 54.828125 56.59375 36.375 
Q 56.59375 19.140625 48.40625 8.859375 
Q 40.234375 -1.421875 26.421875 -1.421875 
Q 22.703125 -1.421875 18.890625 -0.6875 
Q 15.09375 0.046875 10.984375 1.515625 
M 30.609375 32.421875 
Q 37.25 32.421875 41.125 36.953125 
Q 45.015625 41.5 45.015625 49.421875 
Q 45.015625 57.28125 41.125 61.84375 
Q 37.25 66.40625 30.609375 66.40625 
Q 23.96875 66.40625 20.09375 61.84375 
Q 16.21875 57.28125 16.21875 49.421875 
Q 16.21875 41.5 20.09375 36.953125 
Q 23.96875 32.421875 30.609375 32.421875 
" id="BitstreamVeraSans-Roman-39"/>
    </defs>
    <g transform="translate(241.3827925 48.2327272727)scale(0.12 -0.12)">
     <use xlink:href="#BitstreamVeraSans-Roman-20"/>
     <use x="31.787109375" xlink:href="#BitstreamVeraSans-Roman-20"/>
     <use x="63.57421875" xlink:href="#BitstreamVeraSans-Roman-20"/>
     <use x="95.361328125" xlink:href="#BitstreamVeraSans-Roman-20"/>
     <use x="127.1484375" xlink:href="#BitstreamVeraSans-Roman-20"/>
     <use x="158.935546875" xlink:href="#BitstreamVeraSans-Roman-20"/>
     <use x="190.72265625" xlink:href="#BitstreamVeraSans-Roman-65"/>
     <use x="252.24609375" xlink:href="#BitstreamVeraSans-Roman-73"/>
     <use x="304.345703125" xlink:href="#BitstreamVeraSans-Roman-74"/>
     <use x="343.5546875" xlink:href="#BitstreamVeraSans-Roman-69"/>
     <use x="371.337890625" xlink:href="#BitstreamVeraSans-Roman-6d"/>
     <use x="468.75" xlink:href="#BitstreamVeraSans-Roman-61"/>
     <use x="530.029296875" xlink:href="#BitstreamVeraSans-Roman-74"/>
     <use x="569.23828125" xlink:href="#BitstreamVeraSans-Roman-65"/>
     <use x="630.76171875" xlink:href="#BitstreamVeraSans-Roman-64"/>
     <use x="694.23828125" xlink:href="#BitstreamVeraSans-Roman-20"/>
     <use x="726.025390625" xlink:href="#BitstreamVeraSans-Roman-70"/>
     <use x="789.501953125" xlink:href="#BitstreamVeraSans-Roman-75"/>
     <use x="852.880859375" xlink:href="#BitstreamVeraSans-Roman-70"/>
     <use x="916.357421875" xlink:href="#BitstreamVeraSans-Roman-61"/>
     <use x="977.63671875" xlink:href="#BitstreamVeraSans-Roman-65"/>
     <use x="1039.16015625" xlink:href="#BitstreamVeraSans-Roman-3a"/>
     <use x="1072.8515625" xlink:href="#BitstreamVeraSans-Roman-20"/>
     <use x="1104.63867188" xlink:href="#BitstreamVeraSans-Roman-34"/>
     <use x="1168.26171875" xlink:href="#BitstreamVeraSans-Roman-31"/>
     <use x="1231.88476562" xlink:href="#BitstreamVeraSans-Roman-35"/>
     <use x="1295.5078125" xlink:href="#BitstreamVeraSans-Roman-38"/>
     <use x="1359.13085938" xlink:href="#BitstreamVeraSans-Roman-39"/>
    </g>
   </g>
   <g id="PathCollection_1">
    <defs>
     <path d="M 0 3.162278 
C 0.838646 3.162278 1.643056 2.82908 2.236068 2.236068 
C 2.82908 1.643056 3.162278 0.838646 3.162278 0 
C 3.162278 -0.838646 2.82908 -1.643056 2.236068 -2.236068 
C 1.643056 -2.82908 0.838646 -3.162278 0 -3.162278 
C -0.838646 -3.162278 -1.643056 -2.82908 -2.236068 -2.236068 
C -2.82908 -1.643056 -3.162278 -0.838646 -3.162278 0 
C -3.162278 0.838646 -2.82908 1.643056 -2.236068 2.236068 
C -1.643056 2.82908 -0.838646 3.162278 0 3.162278 
z
" id="m9590050f8e" style="stroke:#000000;"/>
    </defs>
    <g clip-path="url(#pbac07c8d3d)">
     <use style="stroke:#000000;" x="232.8576" xlink:href="#m9590050f8e" y="27.7163636364"/>
    </g>
   </g>
  </g>
 </g>
 <defs>
  <clipPath id="pbac07c8d3d">
   <rect height="225.68" width="775.0175" x="62.35375" y="7.2"/>
  </clipPath>
 </defs>
</svg>
