<?xml version="1.0" encoding="utf-8" standalone="no"?>
<!DOCTYPE svg PUBLIC "-//W3C//DTD SVG 1.1//EN"
  "http://www.w3.org/Graphics/SVG/1.1/DTD/svg11.dtd">
<!-- Created with matplotlib (http://matplotlib.org/) -->
<svg height="720pt" version="1.1" viewBox="0 0 720 720" width="720pt" xmlns="http://www.w3.org/2000/svg" xmlns:xlink="http://www.w3.org/1999/xlink">
 <defs>
  <style type="text/css">
*{stroke-linecap:butt;stroke-linejoin:round;stroke-miterlimit:100000;}
  </style>
 </defs>
 <g id="figure_1">
  <g id="patch_1">
   <path d="M 0 720 
L 720 720 
L 720 0 
L 0 0 
z
" style="fill:#ffffff;"/>
  </g>
  <g id="axes_1">
   <g id="patch_2">
    <path d="M 90 648 
L 648 648 
L 648 72 
L 90 72 
z
" style="fill:#ffffff;"/>
   </g>
   <g id="patch_3">
    <path d="M 90 72 
L 648 72 
" style="fill:none;"/>
   </g>
   <g id="patch_4">
    <path d="M 648 648 
L 648 72 
" style="fill:none;"/>
   </g>
   <g id="patch_5">
    <path d="M 90 658 
L 648 658 
" style="fill:none;stroke:#000000;stroke-linecap:square;stroke-linejoin:miter;stroke-width:0.75;"/>
   </g>
   <g id="patch_6">
    <path d="M 80 648 
L 80 72 
" style="fill:none;stroke:#000000;stroke-linecap:square;stroke-linejoin:miter;stroke-width:0.75;"/>
   </g>
   <g id="matplotlib.axis_1">
    <g id="xtick_1">
     <g id="line2d_1">
      <defs>
       <path d="M 0 0 
L 0 -4 
" id="m0e3c174ed2" style="stroke:#000000;stroke-width:0.75;"/>
      </defs>
      <g>
       <use style="stroke:#000000;stroke-width:0.75;" x="90.0" xlink:href="#m0e3c174ed2" y="658.0"/>
      </g>
     </g>
     <g id="text_1">
      <text style="font-family:Arial;font-size:9.0px;font-style:normal;font-weight:400;text-anchor:middle;" transform="rotate(-0.000000, 90.000000, 668.442031)" x="90.0" y="668.44203125">−2</text>
     </g>
    </g>
    <g id="xtick_2">
     <g id="line2d_2">
      <g>
       <use style="stroke:#000000;stroke-width:0.75;" x="191.454545455" xlink:href="#m0e3c174ed2" y="658.0"/>
      </g>
     </g>
     <g id="text_2">
      <text style="font-family:Arial;font-size:9.0px;font-style:normal;font-weight:400;text-anchor:middle;" transform="rotate(-0.000000, 191.454545, 668.442031)" x="191.454545455" y="668.44203125">−1</text>
     </g>
    </g>
    <g id="xtick_3">
     <g id="line2d_3">
      <g>
       <use style="stroke:#000000;stroke-width:0.75;" x="292.909090909" xlink:href="#m0e3c174ed2" y="658.0"/>
      </g>
     </g>
     <g id="text_3">
      <text style="font-family:Arial;font-size:9.0px;font-style:normal;font-weight:400;text-anchor:middle;" transform="rotate(-0.000000, 292.909091, 668.442031)" x="292.909090909" y="668.44203125">0</text>
     </g>
    </g>
    <g id="xtick_4">
     <g id="line2d_4">
      <g>
       <use style="stroke:#000000;stroke-width:0.75;" x="394.363636364" xlink:href="#m0e3c174ed2" y="658.0"/>
      </g>
     </g>
     <g id="text_4">
      <text style="font-family:Arial;font-size:9.0px;font-style:normal;font-weight:400;text-anchor:middle;" transform="rotate(-0.000000, 394.363636, 668.442031)" x="394.363636364" y="668.44203125">1</text>
     </g>
    </g>
    <g id="xtick_5">
     <g id="line2d_5">
      <g>
       <use style="stroke:#000000;stroke-width:0.75;" x="495.818181818" xlink:href="#m0e3c174ed2" y="658.0"/>
      </g>
     </g>
     <g id="text_5">
      <text style="font-family:Arial;font-size:9.0px;font-style:normal;font-weight:400;text-anchor:middle;" transform="rotate(-0.000000, 495.818182, 668.442031)" x="495.818181818" y="668.44203125">2</text>
     </g>
    </g>
    <g id="xtick_6">
     <g id="line2d_6">
      <g>
       <use style="stroke:#000000;stroke-width:0.75;" x="597.272727273" xlink:href="#m0e3c174ed2" y="658.0"/>
      </g>
     </g>
     <g id="text_6">
      <text style="font-family:Arial;font-size:9.0px;font-style:normal;font-weight:400;text-anchor:middle;" transform="rotate(-0.000000, 597.272727, 668.442031)" x="597.272727273" y="668.44203125">3</text>
     </g>
    </g>
    <g id="text_7">
     <text style="font-family:Arial;font-size:9.0px;font-style:normal;font-weight:400;text-anchor:middle;" transform="rotate(-0.000000, 369.000000, 681.782500)" x="369.0" y="681.7825">windspeed along trajectory, m/s</text>
    </g>
   </g>
   <g id="matplotlib.axis_2">
    <g id="ytick_1">
     <g id="line2d_7">
      <defs>
       <path d="M 0 0 
L 4 0 
" id="m3fc3a39713" style="stroke:#000000;stroke-width:0.75;"/>
      </defs>
      <g>
       <use style="stroke:#000000;stroke-width:0.75;" x="80.0" xlink:href="#m3fc3a39713" y="595.636363636"/>
      </g>
     </g>
     <g id="text_8">
      <text style="font-family:Arial;font-size:9.0px;font-style:normal;font-weight:400;text-anchor:end;" transform="rotate(-0.000000, 76.000000, 597.963004)" x="76.0" y="597.963004261">0</text>
     </g>
    </g>
    <g id="ytick_2">
     <g id="line2d_8">
      <g>
       <use style="stroke:#000000;stroke-width:0.75;" x="80.0" xlink:href="#m3fc3a39713" y="490.909090909"/>
      </g>
     </g>
     <g id="text_9">
      <text style="font-family:Arial;font-size:9.0px;font-style:normal;font-weight:400;text-anchor:end;" transform="rotate(-0.000000, 76.000000, 493.235732)" x="76.0" y="493.235731534">1</text>
     </g>
    </g>
    <g id="ytick_3">
     <g id="line2d_9">
      <g>
       <use style="stroke:#000000;stroke-width:0.75;" x="80.0" xlink:href="#m3fc3a39713" y="386.181818182"/>
      </g>
     </g>
     <g id="text_10">
      <text style="font-family:Arial;font-size:9.0px;font-style:normal;font-weight:400;text-anchor:end;" transform="rotate(-0.000000, 76.000000, 388.508459)" x="76.0" y="388.508458807">2</text>
     </g>
    </g>
    <g id="ytick_4">
     <g id="line2d_10">
      <g>
       <use style="stroke:#000000;stroke-width:0.75;" x="80.0" xlink:href="#m3fc3a39713" y="281.454545455"/>
      </g>
     </g>
     <g id="text_11">
      <text style="font-family:Arial;font-size:9.0px;font-style:normal;font-weight:400;text-anchor:end;" transform="rotate(-0.000000, 76.000000, 283.781186)" x="76.0" y="283.78118608">3</text>
     </g>
    </g>
    <g id="ytick_5">
     <g id="line2d_11">
      <g>
       <use style="stroke:#000000;stroke-width:0.75;" x="80.0" xlink:href="#m3fc3a39713" y="176.727272727"/>
      </g>
     </g>
     <g id="text_12">
      <text style="font-family:Arial;font-size:9.0px;font-style:normal;font-weight:400;text-anchor:end;" transform="rotate(-0.000000, 76.000000, 179.053913)" x="76.0" y="179.053913352">4</text>
     </g>
    </g>
    <g id="ytick_6">
     <g id="line2d_12">
      <g>
       <use style="stroke:#000000;stroke-width:0.75;" x="80.0" xlink:href="#m3fc3a39713" y="72.0"/>
      </g>
     </g>
     <g id="text_13">
      <text style="font-family:Arial;font-size:9.0px;font-style:normal;font-weight:400;text-anchor:end;" transform="rotate(-0.000000, 76.000000, 74.326641)" x="76.0" y="74.326640625">5</text>
     </g>
    </g>
    <g id="text_14">
     <text style="font-family:Arial;font-size:9.0px;font-style:normal;font-weight:400;text-anchor:middle;" transform="rotate(-90.000000, 64.100937, 360.000000)" x="64.1009375" y="360.0">groundspeed along trajectory, m/s</text>
    </g>
   </g>
   <g id="LineCollection_1">
    <path clip-path="url(#p24ef5469c4)" d="M 328.418182 591.142352 
L 333.490909 591.863897 
L 338.563636 592.160872 
L 343.636364 591.560069 
L 346.877726 590.4 
L 348.709091 590.072553 
L 353.781818 588.419209 
L 358.854545 584.583656 
L 363.927273 579.815932 
L 369 577.51834 
L 374.072727 577.212346 
L 384.218182 577.025658 
L 389.290909 577.169543 
L 394.363636 576.894256 
L 399.436364 575.626825 
L 401.429723 574.690909 
L 404.509091 573.536994 
L 409.581818 570.838032 
L 411.771362 569.454545 
L 414.654545 567.917684 
L 422.433218 564.218182 
L 436.816725 558.981818 
L 440.018182 557.712678 
L 445.090909 553.527902 
L 450.163636 550.004724 
L 453.37427 548.509091 
L 455.236364 547.792594 
L 465.381818 545.057101 
L 468.914994 543.272727 
L 470.454545 542.727822 
L 475.527273 538.982017 
L 476.332961 538.036364 
L 479.941189 532.8 
L 480.6 531.505297 
L 483.372128 527.563636 
L 485.672727 523.436343 
L 490.745455 519.696059 
L 495.818182 518.322383 
L 498.758436 517.090909 
L 500.890909 516.072828 
L 503.810058 511.854545 
L 508.544391 501.381818 
L 510.282685 496.145455 
L 511.036364 493.144407 
L 512.321099 490.909091 
L 513.44551 485.672727 
L 514.114689 480.436364 
L 515.371725 475.2 
L 515.704019 469.963636 
L 515.338182 464.727273 
L 516.316667 454.254545 
L 516.042569 449.018182 
L 516.790379 443.781818 
L 517.895024 438.545455 
L 518.325533 433.309091 
L 518.543075 428.072727 
L 519.014491 422.836364 
L 519.661553 417.6 
L 520.16151 412.363636 
L 520.5001 407.127273 
L 521.751753 396.654545 
L 521.725466 391.418182 
L 521.181818 387.803788 
L 520.815312 386.181818 
L 516.109091 381.612545 
L 511.036364 383.110724 
L 505.963636 385.275643 
L 500.890909 385.343489 
L 498.05902 386.181818 
L 495.818182 386.621894 
L 490.745455 390.014402 
L 489.218702 391.418182 
L 485.459106 396.654545 
L 480.6 402.158825 
L 475.527273 406.192658 
L 473.780138 407.127273 
L 470.454545 408.606235 
L 465.381818 411.189812 
L 464.037294 412.363636 
L 460.309091 416.250745 
L 459.378069 417.6 
L 455.236364 425.702402 
L 453.63781 428.072727 
L 450.163636 432.233999 
L 447.79006 433.309091 
L 445.090909 434.732046 
L 440.018182 436.875968 
L 437.796028 438.545455 
L 434.945455 440.044687 
L 429.872727 444.053664 
L 424.8 447.767986 
L 423.673883 449.018182 
L 419.727273 452.536833 
L 414.654545 458.020309 
L 409.581818 460.256562 
L 404.249961 459.490909 
L 399.436364 460.628769 
L 394.363636 463.968089 
L 392.771553 464.727273 
L 389.290909 466.093155 
L 384.218182 467.642859 
L 379.813197 469.963636 
L 379.145455 470.512369 
L 372.227413 475.2 
L 369 478.700812 
L 368.083255 480.436364 
L 365.546093 485.672727 
L 363.927273 487.125874 
L 358.854545 487.518088 
L 353.781818 487.050496 
L 348.709091 486.708197 
L 343.636364 486.490357 
L 338.563636 486.852467 
L 333.490909 488.962635 
L 330.071774 490.909091 
L 328.418182 492.45841 
L 322.968912 496.145455 
L 318.272727 499.074203 
L 313.2 506.840086 
L 307.567295 511.854545 
L 303.054545 517.116546 
L 297.981818 521.73127 
L 297.155894 522.327273 
L 291.400911 527.563636 
L 287.836364 529.607977 
L 282.763636 532.852311 
L 277.690909 535.239086 
L 274.39576 538.036364 
L 272.618182 540.635822 
L 267.545455 542.426765 
L 261.803458 543.272727 
L 257.4 544.902446 
L 252.327273 547.824931 
L 251.446256 548.509091 
L 247.254545 553.035266 
L 246.825642 553.745455 
L 246.489081 558.981818 
L 247.254545 561.528892 
L 250.142655 569.454545 
L 252.327273 571.960453 
L 254.877681 574.690909 
L 257.4 576.028548 
L 262.472727 577.991356 
L 267.545455 579.113219 
L 282.763636 582.041734 
L 292.909091 584.09038 
L 298.38941 585.163636 
L 308.127273 587.986084 
L 313.2 588.918333 
L 323.345455 590.259806 
L 324.804403 590.4 
L 328.418182 591.142352 
L 328.418182 591.142352 
" style="fill:none;stroke:#808080;"/>
   </g>
   <g id="LineCollection_2">
    <path clip-path="url(#p24ef5469c4)" d="M 318.272727 586.334719 
L 323.345455 587.683864 
L 328.418182 588.646898 
L 333.490909 589.234103 
L 338.563636 589.425311 
L 343.636364 588.95461 
L 348.709091 587.538851 
L 353.781818 584.753848 
L 359.390864 579.927273 
L 363.927273 574.626769 
L 369 571.951007 
L 379.145455 571.837431 
L 384.218182 571.673868 
L 389.290909 572.108768 
L 394.363636 572.00112 
L 399.436364 570.624377 
L 401.813471 569.454545 
L 404.509091 568.259984 
L 409.581818 565.425879 
L 419.727273 558.788392 
L 424.8 557.058288 
L 429.872727 555.552067 
L 434.945455 553.211642 
L 440.018182 549.946743 
L 445.090909 545.352791 
L 450.163636 542.003132 
L 455.236364 539.26912 
L 460.309091 538.654979 
L 465.381818 538.438061 
L 466.399509 538.036364 
L 470.454545 536.718049 
L 475.527273 532.036099 
L 478.34838 527.563636 
L 480.640346 522.327273 
L 483.317399 517.090909 
L 485.672727 511.648912 
L 490.745455 508.664279 
L 495.818182 507.54051 
L 496.874891 506.618182 
L 500.890909 502.575165 
L 501.491029 501.381818 
L 503.814373 496.145455 
L 505.20577 490.909091 
L 505.24394 485.672727 
L 505.11309 480.436364 
L 505.528968 475.2 
L 506.203413 469.963636 
L 506.893208 464.727273 
L 507.906169 459.490909 
L 509.0511 454.254545 
L 509.825877 443.781818 
L 511.036364 434.374039 
L 512.558372 428.072727 
L 513.459217 422.836364 
L 514.019768 417.6 
L 514.314594 412.363636 
L 514.812601 407.127273 
L 515.787331 401.890909 
L 516.312883 396.654545 
L 516.109091 395.558106 
L 511.036364 392.18971 
L 505.963636 392.228865 
L 500.890909 391.8028 
L 495.818182 393.669221 
L 492.984413 396.654545 
L 489.337492 401.890909 
L 485.401235 407.127273 
L 480.6 413.314291 
L 475.527273 416.600366 
L 473.73367 417.6 
L 470.454545 419.665754 
L 465.381818 424.73568 
L 462.687378 428.072727 
L 459.569639 433.309091 
L 455.236364 439.486959 
L 445.090909 449.354142 
L 440.018182 452.12493 
L 434.945455 455.401897 
L 429.705747 459.490909 
L 424.8 462.132617 
L 422.073745 464.727273 
L 419.727273 466.56125 
L 414.654545 469.966634 
L 409.581818 471.378334 
L 404.509091 471.848709 
L 399.436364 473.486931 
L 397.080327 475.2 
L 394.363636 476.726639 
L 389.290909 481.057532 
L 384.218182 486.387266 
L 379.145455 489.92194 
L 378.112343 490.909091 
L 374.072727 494.966571 
L 373.05626 496.145455 
L 369 500.427392 
L 363.927273 502.966226 
L 358.854545 500.609077 
L 353.781818 497.468885 
L 348.709091 496.511928 
L 343.636364 497.271937 
L 338.563636 499.26102 
L 333.490909 503.577932 
L 330.531143 506.618182 
L 324.698025 511.854545 
L 320.432307 517.090909 
L 318.272727 520.012265 
L 316.179753 522.327273 
L 313.2 525.109383 
L 309.559201 527.563636 
L 308.127273 528.860334 
L 303.054545 535.389526 
L 300.431371 538.036364 
L 295.99991 543.272727 
L 292.909091 551.082811 
L 290.518074 553.745455 
L 287.836364 556.502815 
L 285.861578 558.981818 
L 282.543398 564.218182 
L 281.470101 569.454545 
L 282.763636 570.858539 
L 287.889802 574.690909 
L 297.981818 579.018017 
L 299.538782 579.927273 
L 308.127273 583.485909 
L 318.272727 586.334719 
L 318.272727 586.334719 
" style="fill:none;stroke:#808080;"/>
   </g>
   <g id="LineCollection_3">
    <path clip-path="url(#p24ef5469c4)" d="M 328.418182 586.620641 
L 333.490909 587.546053 
L 338.563636 587.811366 
L 343.636364 587.080551 
L 348.709091 585.065711 
L 353.781818 582.4595 
L 356.605263 579.927273 
L 358.854545 577.081081 
L 360.992414 574.690909 
L 363.927273 569.920943 
L 364.80905 569.454545 
L 369 567.06081 
L 374.072727 567.543446 
L 384.218182 567.168983 
L 389.290909 567.989073 
L 394.363636 568.066628 
L 399.436364 566.664533 
L 404.509091 564.068012 
L 409.581818 561.042012 
L 412.349932 558.981818 
L 414.654545 556.6379 
L 419.727273 552.742049 
L 429.872727 550.556341 
L 434.945455 547.964269 
L 440.242411 543.272727 
L 445.511113 538.036364 
L 450.163636 534.033357 
L 455.236364 531.048432 
L 465.381818 533.337993 
L 470.454545 531.824166 
L 474.459217 527.563636 
L 475.527273 526.169625 
L 477.569896 522.327273 
L 479.37246 517.090909 
L 480.848641 511.854545 
L 483.234241 506.618182 
L 484.802212 501.381818 
L 485.672727 497.976108 
L 487.149908 496.145455 
L 490.745455 491.938414 
L 495.841169 490.909091 
L 498.160834 485.672727 
L 499.477268 475.2 
L 500.890909 469.671511 
L 501.86976 464.727273 
L 503.26609 459.490909 
L 504.780931 454.254545 
L 505.539468 449.018182 
L 505.963636 443.005351 
L 506.627537 438.545455 
L 508.980052 428.072727 
L 509.712534 422.836364 
L 509.952006 417.6 
L 509.809221 407.127273 
L 509.344893 401.890909 
L 505.963636 397.779373 
L 502.683241 396.654545 
L 500.890909 396.237727 
L 500.081903 396.654545 
L 495.818182 399.235304 
L 493.801598 401.890909 
L 486.225735 412.363636 
L 485.672727 413.368024 
L 480.6 420.14969 
L 475.527273 423.105193 
L 470.454545 426.413675 
L 468.80332 428.072727 
L 464.555006 433.309091 
L 460.309091 440.193001 
L 457.417476 443.781818 
L 455.236364 446.775939 
L 453.083118 449.018182 
L 450.163636 452.572043 
L 448.511278 454.254545 
L 445.090909 457.230033 
L 434.945455 463.155654 
L 432.683504 464.727273 
L 429.872727 466.5031 
L 419.727273 474.544355 
L 414.654545 476.98303 
L 409.581818 478.297839 
L 404.509091 479.455152 
L 401.965393 480.436364 
L 399.436364 481.168577 
L 394.363636 483.771034 
L 392.296375 485.672727 
L 389.290909 489.17362 
L 387.640544 490.909091 
L 384.218182 495.027349 
L 382.918379 496.145455 
L 378.105374 501.381818 
L 372.999497 506.618182 
L 369 510.520786 
L 367.014541 511.854545 
L 363.927273 513.688656 
L 358.854545 510.513304 
L 353.781818 506.314977 
L 348.709091 504.754631 
L 343.636364 504.880267 
L 338.563636 506.893985 
L 333.490909 510.598047 
L 332.172172 511.854545 
L 327.268713 517.090909 
L 323.345455 522.818398 
L 319.289302 527.563636 
L 318.272727 528.942897 
L 314.906527 532.8 
L 313.2 535.418112 
L 305.939633 543.272727 
L 303.485428 548.509091 
L 302.623554 553.745455 
L 301.431787 558.981818 
L 299.408711 564.218182 
L 298.404112 569.454545 
L 300.983458 574.690909 
L 303.054545 576.097112 
L 308.424297 579.927273 
L 313.2 581.947228 
L 318.272727 583.606259 
L 328.418182 586.620641 
L 328.418182 586.620641 
" style="fill:none;stroke:#808080;"/>
   </g>
   <g id="LineCollection_4">
    <path clip-path="url(#p24ef5469c4)" d="M 333.490909 585.858002 
L 338.563636 586.197421 
L 343.74324 585.163636 
L 348.709091 583.500198 
L 354.047054 579.927273 
L 358.398831 574.690909 
L 358.854545 573.72477 
L 361.705899 569.454545 
L 363.717907 564.218182 
L 363.927273 563.340433 
L 369 560.459126 
L 374.072727 562.601636 
L 379.145455 562.234603 
L 384.218182 562.23295 
L 389.290909 564.050752 
L 394.363636 564.503226 
L 399.436364 563.066673 
L 404.509091 560.400748 
L 406.697133 558.981818 
L 409.581818 556.558958 
L 412.340986 553.745455 
L 414.654545 551.052228 
L 418.06444 548.509091 
L 419.727273 547.559772 
L 424.8 547.048747 
L 429.872727 546.39669 
L 435.047652 543.272727 
L 440.018182 537.671128 
L 445.090909 532.173802 
L 450.163636 526.330725 
L 455.236364 524.243196 
L 460.309091 526.140278 
L 465.381818 528.350298 
L 470.454545 527.114492 
L 474.223186 522.327273 
L 475.527273 519.919711 
L 476.603547 517.090909 
L 478.037464 511.854545 
L 479.649535 506.618182 
L 480.6 502.785542 
L 481.127023 501.381818 
L 482.694908 496.145455 
L 484.044396 490.909091 
L 485.672727 483.36285 
L 487.847903 480.436364 
L 489.778118 475.2 
L 491.423473 469.963636 
L 494.12083 464.727273 
L 495.818182 462.903778 
L 497.776345 459.490909 
L 500.890909 455.271341 
L 501.257593 454.254545 
L 502.44304 449.018182 
L 502.964138 443.781818 
L 503.766615 438.545455 
L 506.11318 428.072727 
L 507.047575 422.836364 
L 507.253842 417.6 
L 506.888475 412.363636 
L 506.197947 407.127273 
L 505.963636 406.348243 
L 503.093643 401.890909 
L 500.890909 400.638136 
L 495.818182 404.133754 
L 489.641042 412.363636 
L 486.665528 417.6 
L 485.672727 419.592451 
L 483.185029 422.836364 
L 480.6 425.260914 
L 475.527273 427.276253 
L 474.43358 428.072727 
L 470.454545 430.77051 
L 468.209875 433.309091 
L 464.555426 438.545455 
L 461.328413 443.781818 
L 460.309091 445.648604 
L 457.716939 449.018182 
L 455.236364 452.803757 
L 454.005145 454.254545 
L 449.982603 459.490909 
L 445.090909 462.852551 
L 440.018182 465.293147 
L 434.945455 468.148715 
L 429.872727 471.536968 
L 424.8 475.998389 
L 419.727273 480.978585 
L 414.654545 482.778088 
L 409.581818 483.522371 
L 404.509091 484.5252 
L 399.436364 486.215114 
L 394.363636 489.616981 
L 393.225366 490.909091 
L 389.290909 496.444558 
L 385.597179 501.381818 
L 384.218182 503.625388 
L 381.723235 506.618182 
L 379.145455 510.325933 
L 377.567345 511.854545 
L 374.072727 515.050004 
L 372.072545 517.090909 
L 369 520.688071 
L 363.927273 522.257815 
L 358.354516 517.090909 
L 353.781818 512.561043 
L 348.709091 510.518644 
L 343.636364 510.528077 
L 338.563636 512.135953 
L 333.490909 515.512231 
L 331.978478 517.090909 
L 324.282754 527.563636 
L 323.345455 528.901833 
L 320.241298 532.8 
L 318.272727 536.628243 
L 313.677438 543.272727 
L 313.2 544.296437 
L 310.713747 548.509091 
L 309.196534 553.745455 
L 304.799569 564.218182 
L 304.333062 569.454545 
L 307.25278 574.690909 
L 308.127273 575.367169 
L 315.147637 579.927273 
L 323.345455 583.257428 
L 328.418182 584.768741 
L 330.476775 585.163636 
L 333.490909 585.858002 
L 333.490909 585.858002 
" style="fill:none;stroke:#808080;"/>
   </g>
   <g id="LineCollection_5">
    <path clip-path="url(#p24ef5469c4)" d="M 323.345455 581.391576 
L 328.418182 583.363112 
L 333.490909 584.4921 
L 338.563636 584.774668 
L 343.636364 583.974036 
L 348.709091 581.934685 
L 351.694787 579.927273 
L 353.781818 578.08454 
L 356.657016 574.690909 
L 359.240143 569.454545 
L 361.432492 564.218182 
L 362.840578 558.981818 
L 363.927273 553.049144 
L 367.627386 548.509091 
L 369 545.584692 
L 374.072727 549.989897 
L 379.145455 552.461946 
L 380.383357 553.745455 
L 384.218182 555.717624 
L 388.178938 558.981818 
L 389.290909 559.557663 
L 394.363636 560.976508 
L 399.436364 559.703071 
L 400.750834 558.981818 
L 404.509091 556.47718 
L 407.660558 553.745455 
L 409.581818 551.736911 
L 412.38359 548.509091 
L 414.654545 546.268019 
L 419.727273 543.409048 
L 424.8 543.195508 
L 429.872727 542.723729 
L 434.945455 539.005224 
L 435.814461 538.036364 
L 440.103968 532.8 
L 444.198461 527.563636 
L 445.090909 525.979341 
L 448.038904 522.327273 
L 450.163636 520.102514 
L 455.236364 518.69532 
L 460.309091 520.347111 
L 465.381818 523.043808 
L 470.454545 522.02794 
L 473.207396 517.090909 
L 477.221973 506.618182 
L 478.81247 501.381818 
L 479.840176 496.145455 
L 480.6 490.875147 
L 482.941681 480.436364 
L 484.252229 469.963636 
L 485.672727 463.75762 
L 488.248918 459.490909 
L 490.745455 457.04003 
L 495.818182 453.687644 
L 498.255405 449.018182 
L 499.423834 443.781818 
L 500.890909 439.709164 
L 501.109545 438.545455 
L 502.459584 433.309091 
L 503.636107 428.072727 
L 504.539985 422.836364 
L 504.701429 417.6 
L 503.975501 412.363636 
L 502.042499 407.127273 
L 500.890909 405.67424 
L 498.644747 407.127273 
L 495.818182 408.669859 
L 493.027342 412.363636 
L 489.789988 417.6 
L 487.429745 422.836364 
L 485.672727 426.037113 
L 483.394613 428.072727 
L 480.6 429.960707 
L 475.527273 430.953273 
L 470.454545 434.576713 
L 467.455259 438.545455 
L 464.05155 443.781818 
L 460.309091 450.649084 
L 457.833436 454.254545 
L 455.236364 459.91964 
L 450.163636 465.20239 
L 445.090909 468.106195 
L 440.018182 469.982914 
L 434.945455 472.61223 
L 429.872727 475.818855 
L 424.8 480.885407 
L 419.727273 485.393243 
L 419.005183 485.672727 
L 414.654545 487.2297 
L 409.581818 487.773783 
L 404.509091 488.68658 
L 399.201627 490.909091 
L 394.363636 495.337726 
L 393.757218 496.145455 
L 390.262619 501.381818 
L 389.290909 503.211007 
L 387.081697 506.618182 
L 384.218182 512.200039 
L 379.145455 518.379698 
L 375.425919 522.327273 
L 371.807166 527.563636 
L 369.515244 532.8 
L 369 535.10454 
L 363.927273 536.172895 
L 363.463781 532.8 
L 361.780302 527.563636 
L 358.038314 522.327273 
L 353.781818 517.710049 
L 348.709091 515.307348 
L 343.636364 515.1378 
L 338.563636 516.326214 
L 333.490909 519.932386 
L 331.583022 522.327273 
L 327.875169 527.563636 
L 324.04374 532.8 
L 323.345455 534.069656 
L 320.926839 538.036364 
L 318.272727 544.137416 
L 315.829008 548.509091 
L 313.2 555.529518 
L 311.359256 558.981818 
L 309.060983 564.218182 
L 309.068343 569.454545 
L 312.773537 574.690909 
L 318.272727 578.46678 
L 320.199809 579.927273 
L 323.345455 581.391576 
L 323.345455 581.391576 
" style="fill:none;stroke:#808080;"/>
   </g>
   <g id="LineCollection_6">
    <path clip-path="url(#p24ef5469c4)" d="M 328.418182 581.957483 
L 333.490909 583.351309 
L 338.563636 583.6926 
L 343.636364 582.756594 
L 348.709091 580.369171 
L 349.366343 579.927273 
L 353.781818 576.028653 
L 354.9152 574.690909 
L 357.617777 569.454545 
L 358.854545 564.908011 
L 359.147077 564.218182 
L 360.846997 558.981818 
L 362.035297 553.745455 
L 362.65392 548.509091 
L 362.406417 543.272727 
L 361.409171 538.036364 
L 360.121724 532.8 
L 358.854545 529.986788 
L 357.801958 527.563636 
L 353.781818 522.446336 
L 353.554492 522.327273 
L 348.709091 519.698413 
L 343.636364 519.171477 
L 338.563636 520.093832 
L 335.632135 522.327273 
L 333.490909 524.005612 
L 330.823274 527.563636 
L 328.418182 530.850945 
L 326.953667 532.8 
L 323.918226 538.036364 
L 323.345455 539.418553 
L 321.391783 543.272727 
L 319.271179 548.509091 
L 318.272727 551.308163 
L 317.102462 553.745455 
L 314.836176 558.981818 
L 313.225752 564.218182 
L 313.677192 569.454545 
L 317.215093 574.690909 
L 318.272727 575.429007 
L 323.345455 579.4337 
L 324.003283 579.927273 
L 328.418182 581.957483 
" style="fill:none;stroke:#808080;"/>
    <path clip-path="url(#p24ef5469c4)" d="M 389.290909 554.834826 
L 394.363636 557.277278 
L 399.436364 555.966802 
L 402.66233 553.745455 
L 404.509091 552.321396 
L 408.161605 548.509091 
L 409.581818 547.059851 
L 413.418665 543.272727 
L 414.654545 541.97017 
L 419.727273 539.203539 
L 424.8 539.592857 
L 429.872727 539.249384 
L 431.444753 538.036364 
L 434.945455 534.627879 
L 436.458404 532.8 
L 440.018182 528.087572 
L 440.429289 527.563636 
L 443.401663 522.327273 
L 445.090909 519.117659 
L 447.019724 517.090909 
L 450.163636 513.651726 
L 455.236364 512.369573 
L 460.309091 514.22831 
L 465.381818 516.62051 
L 470.454545 514.816276 
L 471.72349 511.854545 
L 474.622202 506.618182 
L 475.527273 504.813983 
L 476.725697 501.381818 
L 477.872055 496.145455 
L 478.583454 490.909091 
L 479.211118 485.672727 
L 479.943719 480.436364 
L 480.352922 475.2 
L 480.6 472.703374 
L 481.018295 469.963636 
L 482.566612 464.727273 
L 483.501624 459.490909 
L 484.212506 454.254545 
L 485.672727 449.57877 
L 486.672799 449.018182 
L 490.745455 444.03706 
L 490.881086 443.781818 
L 495.818182 439.985867 
L 496.365076 438.545455 
L 499.014123 433.309091 
L 500.890909 429.361699 
L 501.180486 428.072727 
L 502.140286 422.836364 
L 502.282576 417.6 
L 501.090573 412.363636 
L 500.890909 411.907538 
L 499.438158 412.363636 
L 495.818182 413.416732 
L 493.298628 417.6 
L 491.202818 422.836364 
L 490.745455 424.035922 
L 489.212988 428.072727 
L 487.378511 433.309091 
L 485.672727 438.236682 
L 480.6 435.864939 
L 475.527273 434.779866 
L 470.454545 438.237396 
L 470.221738 438.545455 
L 466.775371 443.781818 
L 465.381818 446.164892 
L 463.777786 449.018182 
L 461.0431 454.254545 
L 460.309091 456.533438 
L 458.99945 459.490909 
L 456.845322 464.727273 
L 455.236364 467.586809 
L 452.242672 469.963636 
L 450.163636 472.286526 
L 445.090909 474.565352 
L 440.769132 475.2 
L 440.018182 475.294122 
L 434.945455 477.093994 
L 429.872727 480.042151 
L 429.479294 480.436364 
L 424.8 484.961426 
L 424.003352 485.672727 
L 419.727273 489.468935 
L 415.756375 490.909091 
L 414.654545 491.41066 
L 409.581818 491.784835 
L 404.509091 492.635777 
L 399.436364 495.092789 
L 398.320099 496.145455 
L 394.363636 500.808256 
L 393.972068 501.381818 
L 391.06616 506.618182 
L 389.290909 510.794366 
L 388.733284 511.854545 
L 385.195942 517.090909 
L 384.218182 518.891798 
L 381.617454 522.327273 
L 379.145455 526.801516 
L 378.604178 527.563636 
L 376.524531 532.8 
L 377.343602 538.036364 
L 379.145455 540.184542 
L 380.662211 543.272727 
L 383.926038 548.509091 
L 384.218182 548.811291 
L 388.072113 553.745455 
L 389.290909 554.834826 
" style="fill:none;stroke:#808080;"/>
   </g>
   <g id="LineCollection_7">
    <path clip-path="url(#p24ef5469c4)" d="M 328.418182 580.551854 
L 333.490909 582.210518 
L 338.563636 582.610532 
L 343.636364 581.539152 
L 346.925865 579.927273 
L 348.709091 578.897912 
L 353.242028 574.690909 
L 353.781818 573.760476 
L 356.151749 569.454545 
L 357.69097 564.218182 
L 358.853859 558.981818 
L 358.854545 558.977941 
L 360.232643 553.745455 
L 360.772837 548.509091 
L 360.199412 543.272727 
L 358.854545 538.528613 
L 358.748529 538.036364 
L 357.474187 532.8 
L 354.578989 527.563636 
L 353.781818 526.548905 
L 348.709091 523.552107 
L 343.636364 522.780833 
L 338.563636 523.535689 
L 333.708284 527.563636 
L 333.490909 527.734752 
L 329.548998 532.8 
L 328.418182 534.577745 
L 326.206686 538.036364 
L 323.907324 543.272727 
L 323.345455 544.81429 
L 321.634397 548.509091 
L 319.521601 553.745455 
L 318.272727 557.82831 
L 317.751999 558.981818 
L 316.479867 564.218182 
L 317.366851 569.454545 
L 318.272727 570.736902 
L 320.37694 574.690909 
L 323.345455 577.140253 
L 327.059967 579.927273 
L 328.418182 580.551854 
" style="fill:none;stroke:#808080;"/>
    <path clip-path="url(#p24ef5469c4)" d="M 389.290909 550.330036 
L 394.363636 553.360508 
L 399.436364 552.097951 
L 403.952872 548.509091 
L 404.509091 548.085903 
L 409.219929 543.272727 
L 409.581818 542.825655 
L 414.125088 538.036364 
L 414.654545 537.383316 
L 419.727273 534.11681 
L 424.8 535.207146 
L 429.872727 535.058018 
L 432.197965 532.8 
L 434.945455 529.540544 
L 436.386831 527.563636 
L 439.609745 522.327273 
L 440.018182 521.634517 
L 442.319227 517.090909 
L 444.438902 511.854545 
L 445.090909 509.963717 
L 447.761734 506.618182 
L 450.163636 504.039931 
L 455.236364 505.138728 
L 457.288728 506.618182 
L 460.309091 508.419381 
L 465.381818 510.532237 
L 470.454545 508.596661 
L 471.624207 506.618182 
L 474.41877 501.381818 
L 475.527273 497.769445 
L 475.903934 496.145455 
L 476.571165 490.909091 
L 477.155975 485.672727 
L 477.833871 480.436364 
L 478.256697 475.2 
L 478.807949 469.963636 
L 479.928255 464.727273 
L 480.438525 459.490909 
L 480.050592 454.254545 
L 479.694047 449.018182 
L 479.034279 443.781818 
L 475.527273 439.423723 
L 470.454545 442.332746 
L 469.499845 443.781818 
L 466.561656 449.018182 
L 465.381818 450.932551 
L 463.637149 454.254545 
L 461.972662 459.490909 
L 460.846584 464.727273 
L 460.309091 466.488504 
L 458.583198 469.963636 
L 456.823325 475.2 
L 455.440628 480.436364 
L 455.236364 480.917982 
L 450.163636 484.63818 
L 445.090909 483.58054 
L 440.018182 481.501824 
L 434.945455 482.072377 
L 429.872727 484.543041 
L 428.695706 485.672727 
L 424.8 489.173944 
L 422.830602 490.909091 
L 419.727273 494.454513 
L 415.586617 496.145455 
L 414.654545 496.501533 
L 410.077563 496.145455 
L 409.581818 496.11301 
L 409.24727 496.145455 
L 404.509091 496.59608 
L 399.436364 499.566667 
L 397.863141 501.381818 
L 394.548125 506.618182 
L 394.363636 506.936375 
L 392.006521 511.854545 
L 389.290909 516.692423 
L 389.017084 517.090909 
L 385.992145 522.327273 
L 384.435068 527.563636 
L 384.218182 528.665576 
L 382.717377 532.8 
L 383.257667 538.036364 
L 384.218182 539.958704 
L 385.158763 543.272727 
L 387.765226 548.509091 
L 389.290909 550.330036 
" style="fill:none;stroke:#808080;"/>
   </g>
   <g id="LineCollection_8">
    <path clip-path="url(#p24ef5469c4)" d="M 333.490909 581.069726 
L 338.563636 581.528463 
L 343.636364 580.32171 
L 344.441326 579.927273 
L 348.709091 577.463722 
L 351.696725 574.690909 
L 353.781818 571.096848 
L 354.685721 569.454545 
L 356.356597 564.218182 
L 357.641788 558.981818 
L 358.583877 553.745455 
L 358.854545 548.91481 
L 358.891755 548.509091 
L 358.854545 548.256716 
L 358.318773 543.272727 
L 357.071787 538.036364 
L 355.25081 532.8 
L 353.781818 530.352162 
L 349.97081 527.563636 
L 348.709091 526.763425 
L 343.636364 525.661102 
L 338.563636 526.618581 
L 337.424452 527.563636 
L 333.490909 530.660091 
L 331.825575 532.8 
L 328.477707 538.036364 
L 328.418182 538.157079 
L 325.767286 543.272727 
L 323.789979 548.509091 
L 323.345455 549.701975 
L 321.497322 553.745455 
L 319.834584 558.981818 
L 319.218909 564.218182 
L 320.070985 569.454545 
L 323.156514 574.690909 
L 323.345455 574.846805 
L 328.418182 578.998891 
L 330.228388 579.927273 
L 333.490909 581.069726 
" style="fill:none;stroke:#808080;"/>
    <path clip-path="url(#p24ef5469c4)" d="M 394.363636 549.547916 
L 398.258195 548.509091 
L 399.436364 548.229271 
L 404.509091 544.340915 
L 405.554567 543.272727 
L 409.581818 538.297517 
L 409.829556 538.036364 
L 414.059928 532.8 
L 414.654545 532.02438 
L 419.727273 527.640326 
L 424.8 528.543991 
L 429.872727 528.791022 
L 430.854327 527.563636 
L 434.945455 522.566406 
L 435.085396 522.327273 
L 438.222827 517.090909 
L 440.018182 512.772941 
L 440.371098 511.854545 
L 441.888345 506.618182 
L 443.049888 501.381818 
L 442.400652 496.145455 
L 440.136022 490.909091 
L 440.018182 490.747324 
L 434.945455 488.714455 
L 429.872727 489.786272 
L 428.566718 490.909091 
L 424.8 494.590811 
L 423.456435 496.145455 
L 419.727273 500.211454 
L 415.695085 501.381818 
L 414.654545 501.693945 
L 413.323378 501.381818 
L 409.581818 500.715976 
L 404.509091 500.840515 
L 403.617294 501.381818 
L 399.436364 504.8901 
L 398.32426 506.618182 
L 395.248705 511.854545 
L 394.363636 513.071584 
L 392.002096 517.090909 
L 389.427712 522.327273 
L 389.290909 522.727964 
L 387.505967 527.563636 
L 386.214227 532.8 
L 386.388941 538.036364 
L 388.083226 543.272727 
L 389.290909 545.431011 
L 392.759108 548.509091 
L 394.363636 549.547916 
" style="fill:none;stroke:#808080;"/>
    <path clip-path="url(#p24ef5469c4)" d="M 460.309091 502.916744 
L 465.381818 505.843339 
L 470.454545 503.79779 
L 471.814847 501.381818 
L 473.474909 496.145455 
L 474.194849 490.909091 
L 474.851798 485.672727 
L 475.527273 482.059988 
L 475.724024 480.436364 
L 476.160473 475.2 
L 476.749667 469.963636 
L 477.846514 464.727273 
L 478.251304 459.490909 
L 477.3849 454.254545 
L 475.975251 449.018182 
L 475.527273 447.636754 
L 470.454545 447.445563 
L 469.605767 449.018182 
L 466.461772 454.254545 
L 465.381818 457.001363 
L 464.60163 459.490909 
L 463.858578 464.727273 
L 462.572095 469.963636 
L 461.543104 475.2 
L 460.647767 480.436364 
L 460.309091 481.565944 
L 458.755506 485.672727 
L 456.770411 490.909091 
L 455.600893 496.145455 
L 458.317568 501.381818 
L 460.309091 502.916744 
" style="fill:none;stroke:#808080;"/>
   </g>
   <g id="LineCollection_9">
    <path clip-path="url(#p24ef5469c4)" d="M 333.490909 579.928935 
L 338.563636 580.446395 
L 340.669298 579.927273 
L 343.636364 579.136626 
L 348.709091 576.029531 
L 350.151422 574.690909 
L 353.281136 569.454545 
L 353.781818 567.925391 
L 355.022223 564.218182 
L 356.429717 558.981818 
L 357.434626 553.745455 
L 357.675458 548.509091 
L 356.947236 543.272727 
L 355.395044 538.036364 
L 353.781818 534.165191 
L 352.724993 532.8 
L 348.709091 529.490739 
L 343.636364 528.333009 
L 338.563636 529.199259 
L 334.249638 532.8 
L 333.490909 533.46919 
L 330.24763 538.036364 
L 328.418182 541.746399 
L 327.627249 543.272727 
L 325.400791 548.509091 
L 323.442105 553.745455 
L 323.345455 554.116636 
L 321.736011 558.981818 
L 321.325991 564.218182 
L 322.454419 569.454545 
L 323.345455 570.953615 
L 325.228748 574.690909 
L 328.418182 577.328109 
L 333.486162 579.927273 
L 333.490909 579.928935 
" style="fill:none;stroke:#808080;"/>
    <path clip-path="url(#p24ef5469c4)" d="M 394.363636 545.842151 
L 399.436364 544.834529 
L 401.422843 543.272727 
L 404.509091 540.118799 
L 406.201854 538.036364 
L 409.581818 532.888491 
L 409.6532 532.8 
L 413.610601 527.563636 
L 414.654545 525.561095 
L 417.195067 522.327273 
L 419.727273 518.748125 
L 424.8 520.237533 
L 429.872727 520.398105 
L 433.122364 517.090909 
L 434.945455 514.215117 
L 435.892465 511.854545 
L 436.534163 506.618182 
L 436.003942 501.381818 
L 434.945455 499.601532 
L 429.872727 497.745304 
L 425.581225 501.381818 
L 424.8 502.006423 
L 420.634073 506.618182 
L 419.727273 508.068013 
L 414.654545 508.521073 
L 409.581818 506.735739 
L 404.509091 507.064507 
L 399.436364 510.894031 
L 398.863493 511.854545 
L 395.067461 517.090909 
L 394.363636 518.169503 
L 392.268132 522.327273 
L 390.430263 527.563636 
L 389.290909 531.538202 
L 388.929885 532.8 
L 389.057567 538.036364 
L 389.290909 538.715202 
L 391.603001 543.272727 
L 394.363636 545.842151 
" style="fill:none;stroke:#808080;"/>
    <path clip-path="url(#p24ef5469c4)" d="M 465.381818 500.622612 
L 470.454545 497.63577 
L 470.936799 496.145455 
L 471.426126 490.909091 
L 471.596485 485.672727 
L 472.005212 480.436364 
L 472.687928 475.2 
L 473.607236 469.963636 
L 475.527273 465.875686 
L 475.764772 464.727273 
L 476.064084 459.490909 
L 475.527273 457.148138 
L 472.533933 454.254545 
L 470.454545 453.071109 
L 469.760005 454.254545 
L 467.698013 459.490909 
L 467.31397 464.727273 
L 466.532237 469.963636 
L 465.547572 475.2 
L 465.381818 476.683319 
L 465.169652 480.436364 
L 464.104578 485.672727 
L 462.680734 490.909091 
L 462.272615 496.145455 
L 465.381818 500.622612 
" style="fill:none;stroke:#808080;"/>
   </g>
   <g id="LineCollection_10">
    <path clip-path="url(#p24ef5469c4)" d="M 328.418182 575.657328 
L 333.490909 578.645716 
L 338.563636 579.335945 
L 343.636364 577.967049 
L 348.591221 574.690909 
L 348.709091 574.555034 
L 351.975351 569.454545 
L 353.69181 564.218182 
L 353.781818 563.924361 
L 355.217646 558.981818 
L 356.285375 553.745455 
L 356.472576 548.509091 
L 355.5757 543.272727 
L 353.781818 538.183752 
L 353.698214 538.036364 
L 349.610239 532.8 
L 348.709091 532.057418 
L 343.636364 530.599472 
L 338.563636 531.557927 
L 337.075526 532.8 
L 333.490909 535.961588 
L 332.017552 538.036364 
L 329.274735 543.272727 
L 328.418182 545.351255 
L 327.011603 548.509091 
L 324.938759 553.745455 
L 323.57397 558.981818 
L 323.410053 564.218182 
L 324.408031 569.454545 
L 327.249393 574.690909 
L 328.418182 575.657328 
" style="fill:none;stroke:#808080;"/>
    <path clip-path="url(#p24ef5469c4)" d="M 394.363636 541.832926 
L 399.436364 541.001701 
L 402.336696 538.036364 
L 404.509091 534.510221 
L 405.556908 532.8 
L 408.822767 527.563636 
L 409.581818 526.044859 
L 411.317729 522.327273 
L 410.395268 517.090909 
L 409.581818 516.223744 
L 404.509091 514.266146 
L 399.436364 516.13476 
L 398.745033 517.090909 
L 395.494788 522.327273 
L 394.363636 524.267134 
L 393.151071 527.563636 
L 391.614157 532.8 
L 392.012065 538.036364 
L 394.363636 541.832926 
" style="fill:none;stroke:#808080;"/>
   </g>
   <g id="LineCollection_11">
    <path clip-path="url(#p24ef5469c4)" d="M 333.490909 577.36229 
L 338.563636 578.199322 
L 343.636364 576.797472 
L 346.822344 574.690909 
L 348.709091 572.515962 
L 350.669567 569.454545 
L 352.413679 564.218182 
L 353.781818 559.752055 
L 354.005575 558.981818 
L 355.136123 553.745455 
L 355.269695 548.509091 
L 354.204163 543.272727 
L 353.781818 542.074596 
L 351.491169 538.036364 
L 348.709091 534.687858 
L 343.636364 532.863819 
L 338.563636 533.785299 
L 333.875507 538.036364 
L 333.490909 538.475794 
L 330.765017 543.272727 
L 328.592353 548.509091 
L 328.418182 548.96646 
L 326.435413 553.745455 
L 325.062086 558.981818 
L 324.963525 564.218182 
L 326.10502 569.454545 
L 328.418182 573.453973 
L 329.272567 574.690909 
L 333.490909 577.36229 
" style="fill:none;stroke:#808080;"/>
    <path clip-path="url(#p24ef5469c4)" d="M 394.363636 533.376128 
L 399.436364 535.190406 
L 400.703824 532.8 
L 401.708496 527.563636 
L 399.436364 523.986116 
L 398.162925 527.563636 
L 394.363636 532.564262 
L 394.293616 532.8 
L 394.363636 533.376128 
" style="fill:none;stroke:#808080;"/>
   </g>
   <g id="LineCollection_12">
    <path clip-path="url(#p24ef5469c4)" d="M 333.490909 576.078863 
L 338.563636 577.062699 
L 343.636364 575.627895 
L 345.053468 574.690909 
L 348.709091 570.47689 
L 349.363782 569.454545 
L 351.135547 564.218182 
L 352.729752 558.981818 
L 353.781818 554.68556 
L 353.986872 553.745455 
L 354.066813 548.509091 
L 353.781818 547.173626 
L 352.494749 543.272727 
L 349.284124 538.036364 
L 348.709091 537.344255 
L 343.636364 535.057584 
L 338.563636 535.866619 
L 336.170814 538.036364 
L 333.490909 541.098344 
L 332.2553 543.272727 
L 329.966066 548.509091 
L 328.418182 552.57379 
L 327.932067 553.745455 
L 326.550202 558.981818 
L 326.516997 564.218182 
L 327.802008 569.454545 
L 328.418182 570.519902 
L 331.299209 574.690909 
L 333.490909 576.078863 
" style="fill:none;stroke:#808080;"/>
   </g>
   <g id="LineCollection_13">
    <path clip-path="url(#p24ef5469c4)" d="M 333.490909 574.795437 
L 338.563636 575.926076 
L 342.851649 574.690909 
L 343.636364 574.335061 
L 347.925062 569.454545 
L 348.709091 567.585647 
L 349.857416 564.218182 
L 351.439496 558.981818 
L 352.644052 553.745455 
L 352.554082 548.509091 
L 350.634994 543.272727 
L 348.709091 540.217776 
L 345.290632 538.036364 
L 343.636364 537.251349 
L 338.563636 537.94794 
L 338.466121 538.036364 
L 333.86251 543.272727 
L 333.490909 543.787946 
L 331.339779 548.509091 
L 329.33115 553.745455 
L 328.418182 557.545266 
L 328.038318 558.981818 
L 328.07047 564.218182 
L 328.418182 565.579874 
L 329.447924 569.454545 
L 333.32585 574.690909 
L 333.490909 574.795437 
" style="fill:none;stroke:#808080;"/>
   </g>
   <g id="LineCollection_14">
    <path clip-path="url(#p24ef5469c4)" d="M 338.563636 574.789453 
L 338.905741 574.690909 
L 343.636364 572.545689 
L 346.352672 569.454545 
L 348.546855 564.218182 
L 348.709091 563.781468 
L 350.14924 558.981818 
L 351.259194 553.745455 
L 350.945147 548.509091 
L 348.77524 543.272727 
L 348.709091 543.167799 
L 343.636364 539.765309 
L 338.563636 540.402035 
L 336.03702 543.272727 
L 333.490909 546.802871 
L 332.713491 548.509091 
L 330.683296 553.745455 
L 329.46698 558.981818 
L 329.57436 564.218182 
L 331.064723 569.454545 
L 333.490909 572.702666 
L 338.126137 574.690909 
L 338.563636 574.789453 
" style="fill:none;stroke:#808080;"/>
   </g>
   <g id="LineCollection_15">
    <path clip-path="url(#p24ef5469c4)" d="M 333.490909 570.538135 
L 338.563636 573.016086 
L 343.636364 570.756318 
L 344.780282 569.454545 
L 346.949399 564.218182 
L 348.709091 559.481375 
L 348.858984 558.981818 
L 349.874335 553.745455 
L 349.336211 548.509091 
L 348.709091 547.001938 
L 344.848219 543.272727 
L 343.636364 542.457696 
L 338.563636 542.87267 
L 338.211529 543.272727 
L 334.426229 548.509091 
L 333.490909 550.013888 
L 332.035443 553.745455 
L 330.875263 558.981818 
L 331.063952 564.218182 
L 332.681521 569.454545 
L 333.490909 570.538135 
" style="fill:none;stroke:#808080;"/>
   </g>
   <g id="LineCollection_16">
    <path clip-path="url(#p24ef5469c4)" d="M 338.563636 571.182275 
L 342.498336 569.454545 
L 343.636364 568.394794 
L 345.351944 564.218182 
L 347.146512 558.981818 
L 348.348409 553.745455 
L 346.688861 548.509091 
L 343.636364 545.527526 
L 338.563636 545.768702 
L 336.580969 548.509091 
L 333.490909 553.48056 
L 333.387589 553.745455 
L 332.283546 558.981818 
L 332.553545 564.218182 
L 333.490909 567.137665 
L 335.248239 569.454545 
L 338.563636 571.182275 
" style="fill:none;stroke:#808080;"/>
   </g>
   <g id="LineCollection_17">
    <path clip-path="url(#p24ef5469c4)" d="M 338.563636 569.225468 
L 343.636364 564.505759 
L 343.754488 564.218182 
L 345.378542 558.981818 
L 346.073993 553.745455 
L 343.636364 548.864194 
L 338.563636 548.789904 
L 335.499237 553.745455 
L 333.852639 558.981818 
L 334.640978 564.218182 
L 338.563636 569.225468 
" style="fill:none;stroke:#808080;"/>
   </g>
   <g id="LineCollection_18">
    <path clip-path="url(#p24ef5469c4)" d="M 338.563636 565.265472 
L 339.690513 564.218182 
L 343.551563 558.981818 
L 343.636364 558.097158 
L 343.799577 553.745455 
L 343.636364 553.418625 
L 338.563636 552.306339 
L 337.67372 553.745455 
L 336.388065 558.981818 
L 337.7432 564.218182 
L 338.563636 565.265472 
" style="fill:none;stroke:#808080;"/>
   </g>
   <g id="PathCollection_1">
    <defs>
     <path d="M 0 2.236068 
C 0.593012 2.236068 1.161816 2.000462 1.581139 1.581139 
C 2.000462 1.161816 2.236068 0.593012 2.236068 0 
C 2.236068 -0.593012 2.000462 -1.161816 1.581139 -1.581139 
C 1.161816 -2.000462 0.593012 -2.236068 0 -2.236068 
C -0.593012 -2.236068 -1.161816 -2.000462 -1.581139 -1.581139 
C -2.000462 -1.161816 -2.236068 -0.593012 -2.236068 0 
C -2.236068 0.593012 -2.000462 1.161816 -1.581139 1.581139 
C -1.161816 2.000462 -0.593012 2.236068 0 2.236068 
z
" id="ma64fb308ef" style="stroke:#000000;"/>
    </defs>
    <g clip-path="url(#p24ef5469c4)">
     <use style="stroke:#000000;" x="449.045383031" xlink:href="#ma64fb308ef" y="321.481199429"/>
    </g>
   </g>
   <g id="PathCollection_2">
    <g clip-path="url(#p24ef5469c4)">
     <use style="stroke:#000000;" x="401.345462024" xlink:href="#ma64fb308ef" y="531.817184644"/>
    </g>
   </g>
   <g id="PathCollection_3">
    <g clip-path="url(#p24ef5469c4)">
     <use style="stroke:#000000;" x="477.280223981" xlink:href="#ma64fb308ef" y="412.866254165"/>
    </g>
   </g>
   <g id="PathCollection_4">
    <g clip-path="url(#p24ef5469c4)">
     <use style="stroke:#000000;" x="454.785794381" xlink:href="#ma64fb308ef" y="498.756370364"/>
    </g>
   </g>
   <g id="PathCollection_5">
    <g clip-path="url(#p24ef5469c4)">
     <use style="stroke:#000000;" x="354.933036281" xlink:href="#ma64fb308ef" y="394.237762238"/>
    </g>
   </g>
   <g id="PathCollection_6">
    <g clip-path="url(#p24ef5469c4)">
     <use style="stroke:#000000;" x="504.550471032" xlink:href="#ma64fb308ef" y="373.756548536"/>
    </g>
   </g>
   <g id="PathCollection_7">
    <g clip-path="url(#p24ef5469c4)">
     <use style="stroke:#000000;" x="462.292697846" xlink:href="#ma64fb308ef" y="371.86013986"/>
    </g>
   </g>
   <g id="PathCollection_8">
    <g clip-path="url(#p24ef5469c4)">
     <use style="stroke:#000000;" x="272.506051018" xlink:href="#ma64fb308ef" y="571.910203073"/>
    </g>
   </g>
   <g id="PathCollection_9">
    <g clip-path="url(#p24ef5469c4)">
     <use style="stroke:#000000;" x="442.838957567" xlink:href="#ma64fb308ef" y="330.504027618"/>
    </g>
   </g>
   <g id="PathCollection_10">
    <g clip-path="url(#p24ef5469c4)">
     <use style="stroke:#000000;" x="254.657264159" xlink:href="#ma64fb308ef" y="566.865134865"/>
    </g>
   </g>
   <g id="PathCollection_11">
    <g clip-path="url(#p24ef5469c4)">
     <use style="stroke:#000000;" x="451.455034539" xlink:href="#ma64fb308ef" y="471.551917277"/>
    </g>
   </g>
   <g id="PathCollection_12">
    <g clip-path="url(#p24ef5469c4)">
     <use style="stroke:#000000;" x="382.309186779" xlink:href="#ma64fb308ef" y="503.931221143"/>
    </g>
   </g>
   <g id="PathCollection_13">
    <g clip-path="url(#p24ef5469c4)">
     <use style="stroke:#000000;" x="303.185889172" xlink:href="#ma64fb308ef" y="473.291418862"/>
    </g>
   </g>
   <g id="PathCollection_14">
    <g clip-path="url(#p24ef5469c4)">
     <use style="stroke:#000000;" x="329.613174372" xlink:href="#ma64fb308ef" y="487.447032307"/>
    </g>
   </g>
   <g id="PathCollection_15">
    <g clip-path="url(#p24ef5469c4)">
     <use style="stroke:#000000;" x="274.013996008" xlink:href="#ma64fb308ef" y="440.254653359"/>
    </g>
   </g>
   <g id="PathCollection_16">
    <g clip-path="url(#p24ef5469c4)">
     <use style="stroke:#000000;" x="306.540018409" xlink:href="#ma64fb308ef" y="417.225336844"/>
    </g>
   </g>
   <g id="PathCollection_17">
    <g clip-path="url(#p24ef5469c4)">
     <use style="stroke:#000000;" x="282.632292646" xlink:href="#ma64fb308ef" y="470.812439051"/>
    </g>
   </g>
   <g id="PathCollection_18">
    <g clip-path="url(#p24ef5469c4)">
     <use style="stroke:#000000;" x="342.020747215" xlink:href="#ma64fb308ef" y="471.551917277"/>
    </g>
   </g>
   <g id="PathCollection_19">
    <g clip-path="url(#p24ef5469c4)">
     <use style="stroke:#000000;" x="335.669336593" xlink:href="#ma64fb308ef" y="443.637419185"/>
    </g>
   </g>
   <g id="PathCollection_20">
    <g clip-path="url(#p24ef5469c4)">
     <use style="stroke:#000000;" x="250.148845225" xlink:href="#ma64fb308ef" y="482.905176632"/>
    </g>
   </g>
   <g id="PathCollection_21">
    <g clip-path="url(#p24ef5469c4)">
     <use style="stroke:#000000;" x="256.205007446" xlink:href="#ma64fb308ef" y="487.447032307"/>
    </g>
   </g>
   <g id="PathCollection_22">
    <g clip-path="url(#p24ef5469c4)">
     <use style="stroke:#000000;" x="231.052767604" xlink:href="#ma64fb308ef" y="349.797695262"/>
    </g>
   </g>
   <g id="PathCollection_23">
    <g clip-path="url(#p24ef5469c4)">
     <use style="stroke:#000000;" x="190.865685697" xlink:href="#ma64fb308ef" y="498.666666667"/>
    </g>
   </g>
   <g id="PathCollection_24">
    <g clip-path="url(#p24ef5469c4)">
     <use style="stroke:#000000;" x="213.122372476" xlink:href="#ma64fb308ef" y="503.770334928"/>
    </g>
   </g>
   <g id="PathCollection_25">
    <g clip-path="url(#p24ef5469c4)">
     <use style="stroke:#000000;" x="228.219755017" xlink:href="#ma64fb308ef" y="498.666666667"/>
    </g>
   </g>
   <g id="PathCollection_26">
    <g clip-path="url(#p24ef5469c4)">
     <use style="stroke:#000000;" x="419.276817378" xlink:href="#ma64fb308ef" y="403.122994652"/>
    </g>
   </g>
   <g id="PathCollection_27">
    <g clip-path="url(#p24ef5469c4)">
     <use style="stroke:#000000;" x="357.871426252" xlink:href="#ma64fb308ef" y="438.151742994"/>
    </g>
   </g>
   <g id="PathCollection_28">
    <g clip-path="url(#p24ef5469c4)">
     <use style="stroke:#000000;" x="276.193565552" xlink:href="#ma64fb308ef" y="523.009960913"/>
    </g>
   </g>
   <g id="PathCollection_29">
    <g clip-path="url(#p24ef5469c4)">
     <use style="stroke:#000000;" x="407.562902753" xlink:href="#ma64fb308ef" y="435.747397641"/>
    </g>
   </g>
   <g id="PathCollection_30">
    <g clip-path="url(#p24ef5469c4)">
     <use style="stroke:#000000;" x="223.698869379" xlink:href="#ma64fb308ef" y="327.791676354"/>
    </g>
   </g>
   <g id="text_15">
    <text style="font-family:Arial;font-size:9.0px;font-style:normal;font-weight:400;text-anchor:start;" transform="rotate(-0.000000, 452.089019, 318.339381)" x="452.089019394" y="318.339381247">4E-15</text>
   </g>
   <g id="text_16">
    <text style="font-family:Arial;font-size:9.0px;font-style:normal;font-weight:400;text-anchor:start;" transform="rotate(-0.000000, 404.389098, 528.675366)" x="404.389098388" y="528.675366462">2E-03</text>
   </g>
   <g id="text_17">
    <text style="font-family:Arial;font-size:9.0px;font-style:normal;font-weight:400;text-anchor:start;" transform="rotate(-0.000000, 480.323860, 409.724436)" x="480.323860344" y="409.724435983">3E-04</text>
   </g>
   <g id="text_18">
    <text style="font-family:Arial;font-size:9.0px;font-style:normal;font-weight:400;text-anchor:start;" transform="rotate(-0.000000, 457.829431, 495.614552)" x="457.829430744" y="495.614552182">2E-03</text>
   </g>
   <g id="text_19">
    <text style="font-family:Arial;font-size:9.0px;font-style:normal;font-weight:400;text-anchor:start;" transform="rotate(-0.000000, 357.976673, 391.095944)" x="357.976672644" y="391.095944056">2E-11</text>
   </g>
   <g id="text_20">
    <text style="font-family:Arial;font-size:9.0px;font-style:normal;font-weight:400;text-anchor:start;" transform="rotate(-0.000000, 507.594107, 370.614730)" x="507.594107396" y="370.614730354">7E-05</text>
   </g>
   <g id="text_21">
    <text style="font-family:Arial;font-size:9.0px;font-style:normal;font-weight:400;text-anchor:start;" transform="rotate(-0.000000, 465.336334, 368.718322)" x="465.336334209" y="368.718321678">1E-05</text>
   </g>
   <g id="text_22">
    <text style="font-family:Arial;font-size:9.0px;font-style:normal;font-weight:400;text-anchor:start;" transform="rotate(-0.000000, 275.549687, 568.768385)" x="275.549687381" y="568.768384891">3E-04</text>
   </g>
   <g id="text_23">
    <text style="font-family:Arial;font-size:9.0px;font-style:normal;font-weight:400;text-anchor:start;" transform="rotate(-0.000000, 445.882594, 327.362209)" x="445.882593931" y="327.362209436">1E-12</text>
   </g>
   <g id="text_24">
    <text style="font-family:Arial;font-size:9.0px;font-style:normal;font-weight:400;text-anchor:start;" transform="rotate(-0.000000, 257.700901, 563.723317)" x="257.700900522" y="563.723316683">2E-04</text>
   </g>
   <g id="text_25">
    <text style="font-family:Arial;font-size:9.0px;font-style:normal;font-weight:400;text-anchor:start;" transform="rotate(-0.000000, 454.498671, 468.410099)" x="454.498670902" y="468.410099095">1E-03</text>
   </g>
   <g id="text_26">
    <text style="font-family:Arial;font-size:9.0px;font-style:normal;font-weight:400;text-anchor:start;" transform="rotate(-0.000000, 385.352823, 500.789403)" x="385.352823142" y="500.789402961">7E-04</text>
   </g>
   <g id="text_27">
    <text style="font-family:Arial;font-size:9.0px;font-style:normal;font-weight:400;text-anchor:start;" transform="rotate(-0.000000, 306.229526, 470.149601)" x="306.229525535" y="470.14960068">2E-05</text>
   </g>
   <g id="text_28">
    <text style="font-family:Arial;font-size:9.0px;font-style:normal;font-weight:400;text-anchor:start;" transform="rotate(-0.000000, 332.656811, 484.305214)" x="332.656810736" y="484.305214125">1E-04</text>
   </g>
   <g id="text_29">
    <text style="font-family:Arial;font-size:9.0px;font-style:normal;font-weight:400;text-anchor:start;" transform="rotate(-0.000000, 277.057632, 437.112835)" x="277.057632372" y="437.112835177">2E-12</text>
   </g>
   <g id="text_30">
    <text style="font-family:Arial;font-size:9.0px;font-style:normal;font-weight:400;text-anchor:start;" transform="rotate(-0.000000, 309.583655, 414.083519)" x="309.583654772" y="414.083518662">3E-13</text>
   </g>
   <g id="text_31">
    <text style="font-family:Arial;font-size:9.0px;font-style:normal;font-weight:400;text-anchor:start;" transform="rotate(-0.000000, 285.675929, 467.670621)" x="285.67592901" y="467.670620869">6E-06</text>
   </g>
   <g id="text_32">
    <text style="font-family:Arial;font-size:9.0px;font-style:normal;font-weight:400;text-anchor:start;" transform="rotate(-0.000000, 345.064384, 468.410099)" x="345.064383579" y="468.410099095">6E-05</text>
   </g>
   <g id="text_33">
    <text style="font-family:Arial;font-size:9.0px;font-style:normal;font-weight:400;text-anchor:start;" transform="rotate(-0.000000, 338.712973, 440.495601)" x="338.712972957" y="440.495601003">3E-06</text>
   </g>
   <g id="text_34">
    <text style="font-family:Arial;font-size:9.0px;font-style:normal;font-weight:400;text-anchor:start;" transform="rotate(-0.000000, 253.192482, 479.763358)" x="253.192481588" y="479.76335845">3E-06</text>
   </g>
   <g id="text_35">
    <text style="font-family:Arial;font-size:9.0px;font-style:normal;font-weight:400;text-anchor:start;" transform="rotate(-0.000000, 259.248644, 484.305214)" x="259.24864381" y="484.305214125">1E-05</text>
   </g>
   <g id="text_36">
    <text style="font-family:Arial;font-size:9.0px;font-style:normal;font-weight:400;text-anchor:start;" transform="rotate(-0.000000, 234.096404, 346.655877)" x="234.096403968" y="346.655877081">2E-129</text>
   </g>
   <g id="text_37">
    <text style="font-family:Arial;font-size:9.0px;font-style:normal;font-weight:400;text-anchor:start;" transform="rotate(-0.000000, 193.909322, 495.524848)" x="193.909322061" y="495.524848485">1E-14</text>
   </g>
   <g id="text_38">
    <text style="font-family:Arial;font-size:9.0px;font-style:normal;font-weight:400;text-anchor:start;" transform="rotate(-0.000000, 216.166009, 500.628517)" x="216.16600884" y="500.628516746">5E-09</text>
   </g>
   <g id="text_39">
    <text style="font-family:Arial;font-size:9.0px;font-style:normal;font-weight:400;text-anchor:start;" transform="rotate(-0.000000, 231.263391, 495.524848)" x="231.263391381" y="495.524848485">1E-06</text>
   </g>
   <g id="text_40">
    <text style="font-family:Arial;font-size:9.0px;font-style:normal;font-weight:400;text-anchor:start;" transform="rotate(-0.000000, 422.320454, 399.981176)" x="422.320453742" y="399.981176471">2E-05</text>
   </g>
   <g id="text_41">
    <text style="font-family:Arial;font-size:9.0px;font-style:normal;font-weight:400;text-anchor:start;" transform="rotate(-0.000000, 360.915063, 435.009925)" x="360.915062616" y="435.009924812">1E-05</text>
   </g>
   <g id="text_42">
    <text style="font-family:Arial;font-size:9.0px;font-style:normal;font-weight:400;text-anchor:start;" transform="rotate(-0.000000, 279.237202, 519.868143)" x="279.237201916" y="519.868142731">1E-04</text>
   </g>
   <g id="text_43">
    <text style="font-family:Arial;font-size:9.0px;font-style:normal;font-weight:400;text-anchor:start;" transform="rotate(-0.000000, 410.606539, 432.605579)" x="410.606539116" y="432.605579459">5E-05</text>
   </g>
   <g id="text_44">
    <text style="font-family:Arial;font-size:9.0px;font-style:normal;font-weight:400;text-anchor:start;" transform="rotate(-0.000000, 226.742506, 324.649858)" x="226.742505743" y="324.649858173">7E-180</text>
   </g>
  </g>
 </g>
 <defs>
  <clipPath id="p24ef5469c4">
   <rect height="576.0" width="558.0" x="90.0" y="72.0"/>
  </clipPath>
 </defs>
</svg>
