<?xml version="1.0" encoding="utf-8" standalone="no"?>
<!DOCTYPE svg PUBLIC "-//W3C//DTD SVG 1.1//EN"
  "http://www.w3.org/Graphics/SVG/1.1/DTD/svg11.dtd">
<!-- Created with matplotlib (http://matplotlib.org/) -->
<svg height="720pt" version="1.1" viewBox="0 0 720 720" width="720pt" xmlns="http://www.w3.org/2000/svg" xmlns:xlink="http://www.w3.org/1999/xlink">
 <defs>
  <style type="text/css">
*{stroke-linecap:butt;stroke-linejoin:round;stroke-miterlimit:100000;}
  </style>
 </defs>
 <g id="figure_1">
  <g id="patch_1">
   <path d="M 0 720 
L 720 720 
L 720 0 
L 0 0 
z
" style="fill:#ffffff;"/>
  </g>
  <g id="axes_1">
   <g id="patch_2">
    <path d="M 90 648 
L 648 648 
L 648 72 
L 90 72 
z
" style="fill:#ffffff;"/>
   </g>
   <g id="patch_3">
    <path d="M 90 72 
L 648 72 
" style="fill:none;"/>
   </g>
   <g id="patch_4">
    <path d="M 648 648 
L 648 72 
" style="fill:none;"/>
   </g>
   <g id="patch_5">
    <path d="M 90 658 
L 648 658 
" style="fill:none;stroke:#000000;stroke-linecap:square;stroke-linejoin:miter;stroke-width:0.75;"/>
   </g>
   <g id="patch_6">
    <path d="M 80 648 
L 80 72 
" style="fill:none;stroke:#000000;stroke-linecap:square;stroke-linejoin:miter;stroke-width:0.75;"/>
   </g>
   <g id="matplotlib.axis_1">
    <g id="xtick_1">
     <g id="line2d_1">
      <defs>
       <path d="M 0 0 
L 0 -4 
" id="m70c98b7a43" style="stroke:#000000;stroke-width:0.75;"/>
      </defs>
      <g>
       <use style="stroke:#000000;stroke-width:0.75;" x="90.0" xlink:href="#m70c98b7a43" y="658.0"/>
      </g>
     </g>
     <g id="text_1">
      <text style="font-family:Arial;font-size:9.0px;font-style:normal;font-weight:400;text-anchor:middle;" transform="rotate(-0.000000, 90.000000, 668.442031)" x="90.0" y="668.44203125">−2</text>
     </g>
    </g>
    <g id="xtick_2">
     <g id="line2d_2">
      <g>
       <use style="stroke:#000000;stroke-width:0.75;" x="191.454545455" xlink:href="#m70c98b7a43" y="658.0"/>
      </g>
     </g>
     <g id="text_2">
      <text style="font-family:Arial;font-size:9.0px;font-style:normal;font-weight:400;text-anchor:middle;" transform="rotate(-0.000000, 191.454545, 668.442031)" x="191.454545455" y="668.44203125">−1</text>
     </g>
    </g>
    <g id="xtick_3">
     <g id="line2d_3">
      <g>
       <use style="stroke:#000000;stroke-width:0.75;" x="292.909090909" xlink:href="#m70c98b7a43" y="658.0"/>
      </g>
     </g>
     <g id="text_3">
      <text style="font-family:Arial;font-size:9.0px;font-style:normal;font-weight:400;text-anchor:middle;" transform="rotate(-0.000000, 292.909091, 668.442031)" x="292.909090909" y="668.44203125">0</text>
     </g>
    </g>
    <g id="xtick_4">
     <g id="line2d_4">
      <g>
       <use style="stroke:#000000;stroke-width:0.75;" x="394.363636364" xlink:href="#m70c98b7a43" y="658.0"/>
      </g>
     </g>
     <g id="text_4">
      <text style="font-family:Arial;font-size:9.0px;font-style:normal;font-weight:400;text-anchor:middle;" transform="rotate(-0.000000, 394.363636, 668.442031)" x="394.363636364" y="668.44203125">1</text>
     </g>
    </g>
    <g id="xtick_5">
     <g id="line2d_5">
      <g>
       <use style="stroke:#000000;stroke-width:0.75;" x="495.818181818" xlink:href="#m70c98b7a43" y="658.0"/>
      </g>
     </g>
     <g id="text_5">
      <text style="font-family:Arial;font-size:9.0px;font-style:normal;font-weight:400;text-anchor:middle;" transform="rotate(-0.000000, 495.818182, 668.442031)" x="495.818181818" y="668.44203125">2</text>
     </g>
    </g>
    <g id="xtick_6">
     <g id="line2d_6">
      <g>
       <use style="stroke:#000000;stroke-width:0.75;" x="597.272727273" xlink:href="#m70c98b7a43" y="658.0"/>
      </g>
     </g>
     <g id="text_6">
      <text style="font-family:Arial;font-size:9.0px;font-style:normal;font-weight:400;text-anchor:middle;" transform="rotate(-0.000000, 597.272727, 668.442031)" x="597.272727273" y="668.44203125">3</text>
     </g>
    </g>
    <g id="text_7">
     <text style="font-family:Arial;font-size:9.0px;font-style:normal;font-weight:400;text-anchor:middle;" transform="rotate(-0.000000, 369.000000, 681.782500)" x="369.0" y="681.7825">windspeed along trajectory, m/s</text>
    </g>
   </g>
   <g id="matplotlib.axis_2">
    <g id="ytick_1">
     <g id="line2d_7">
      <defs>
       <path d="M 0 0 
L 4 0 
" id="m924132b3fd" style="stroke:#000000;stroke-width:0.75;"/>
      </defs>
      <g>
       <use style="stroke:#000000;stroke-width:0.75;" x="80.0" xlink:href="#m924132b3fd" y="595.636363636"/>
      </g>
     </g>
     <g id="text_8">
      <text style="font-family:Arial;font-size:9.0px;font-style:normal;font-weight:400;text-anchor:end;" transform="rotate(-0.000000, 76.000000, 597.963004)" x="76.0" y="597.963004261">0</text>
     </g>
    </g>
    <g id="ytick_2">
     <g id="line2d_8">
      <g>
       <use style="stroke:#000000;stroke-width:0.75;" x="80.0" xlink:href="#m924132b3fd" y="490.909090909"/>
      </g>
     </g>
     <g id="text_9">
      <text style="font-family:Arial;font-size:9.0px;font-style:normal;font-weight:400;text-anchor:end;" transform="rotate(-0.000000, 76.000000, 493.235732)" x="76.0" y="493.235731534">1</text>
     </g>
    </g>
    <g id="ytick_3">
     <g id="line2d_9">
      <g>
       <use style="stroke:#000000;stroke-width:0.75;" x="80.0" xlink:href="#m924132b3fd" y="386.181818182"/>
      </g>
     </g>
     <g id="text_10">
      <text style="font-family:Arial;font-size:9.0px;font-style:normal;font-weight:400;text-anchor:end;" transform="rotate(-0.000000, 76.000000, 388.508459)" x="76.0" y="388.508458807">2</text>
     </g>
    </g>
    <g id="ytick_4">
     <g id="line2d_10">
      <g>
       <use style="stroke:#000000;stroke-width:0.75;" x="80.0" xlink:href="#m924132b3fd" y="281.454545455"/>
      </g>
     </g>
     <g id="text_11">
      <text style="font-family:Arial;font-size:9.0px;font-style:normal;font-weight:400;text-anchor:end;" transform="rotate(-0.000000, 76.000000, 283.781186)" x="76.0" y="283.78118608">3</text>
     </g>
    </g>
    <g id="ytick_5">
     <g id="line2d_11">
      <g>
       <use style="stroke:#000000;stroke-width:0.75;" x="80.0" xlink:href="#m924132b3fd" y="176.727272727"/>
      </g>
     </g>
     <g id="text_12">
      <text style="font-family:Arial;font-size:9.0px;font-style:normal;font-weight:400;text-anchor:end;" transform="rotate(-0.000000, 76.000000, 179.053913)" x="76.0" y="179.053913352">4</text>
     </g>
    </g>
    <g id="ytick_6">
     <g id="line2d_12">
      <g>
       <use style="stroke:#000000;stroke-width:0.75;" x="80.0" xlink:href="#m924132b3fd" y="72.0"/>
      </g>
     </g>
     <g id="text_13">
      <text style="font-family:Arial;font-size:9.0px;font-style:normal;font-weight:400;text-anchor:end;" transform="rotate(-0.000000, 76.000000, 74.326641)" x="76.0" y="74.326640625">5</text>
     </g>
    </g>
    <g id="text_14">
     <text style="font-family:Arial;font-size:9.0px;font-style:normal;font-weight:400;text-anchor:middle;" transform="rotate(-90.000000, 64.100937, 360.000000)" x="64.1009375" y="360.0">groundspeed along trajectory, m/s</text>
    </g>
   </g>
   <g id="LineCollection_1">
    <path clip-path="url(#pcba29c851f)" d="M 374.072727 560.392173 
L 379.145455 561.183136 
L 384.218182 561.417363 
L 389.290909 561.09036 
L 394.363636 560.379971 
L 399.436364 559.733378 
L 402.566148 558.981818 
L 404.509091 558.69232 
L 409.581818 557.068854 
L 414.654545 555.043856 
L 418.029206 553.745455 
L 419.727273 553.292985 
L 424.8 551.725752 
L 429.872727 548.818804 
L 430.34338 548.509091 
L 434.945455 545.521086 
L 438.704099 543.272727 
L 440.018182 542.135979 
L 445.090909 539.722446 
L 450.163636 539.513518 
L 455.236364 540.181144 
L 460.309091 539.22421 
L 462.520159 538.036364 
L 465.381818 536.9229 
L 470.454545 535.030784 
L 474.085258 532.8 
L 475.527273 530.157427 
L 477.181593 527.563636 
L 475.527273 525.896581 
L 470.454545 522.758598 
L 467.668692 522.327273 
L 465.381818 521.992685 
L 460.309091 521.804561 
L 455.236364 521.378634 
L 450.163636 521.465022 
L 445.496776 522.327273 
L 445.090909 522.450413 
L 440.018182 522.531411 
L 434.945455 523.446958 
L 429.872727 524.683236 
L 424.8 524.248814 
L 419.727273 523.807027 
L 414.832643 527.563636 
L 414.654545 527.604317 
L 409.581818 528.950102 
L 404.509091 531.033631 
L 399.436364 531.522026 
L 394.363636 531.307352 
L 389.290909 530.83321 
L 384.218182 530.815365 
L 379.145455 531.340056 
L 374.072727 532.487843 
L 372.821003 532.8 
L 369 534.566567 
L 363.927273 533.378031 
L 360.845605 532.8 
L 358.854545 532.612725 
L 353.781818 531.841405 
L 348.709091 528.660914 
L 343.636364 529.856556 
L 342.875641 532.8 
L 343.636364 533.497984 
L 348.709091 537.099503 
L 349.759631 538.036364 
L 353.781818 540.289403 
L 357.492271 543.272727 
L 358.854545 546.540522 
L 359.976192 548.509091 
L 359.458067 553.745455 
L 363.927273 555.634995 
L 369 558.708335 
L 369.512004 558.981818 
L 374.072727 560.392173 
" style="fill:none;stroke:#808080;"/>
    <path clip-path="url(#pcba29c851f)" d="M 242.181818 501.843132 
L 247.254545 502.181684 
L 257.4 501.766567 
L 260.342946 501.381818 
L 262.472727 501.324522 
L 267.545455 500.966663 
L 272.618182 500.300509 
L 277.690909 499.384649 
L 282.763636 498.270084 
L 287.836364 497.00547 
L 292.909091 496.140619 
L 303.054545 496.08697 
L 303.955039 496.145455 
L 308.127273 497.086269 
L 313.2 499.058923 
L 318.272727 500.576602 
L 323.345455 501.291894 
L 325.326819 501.381818 
L 328.418182 502.037338 
L 333.490909 502.113159 
L 338.563636 502.55359 
L 343.636364 502.844722 
L 348.709091 502.251086 
L 351.916943 501.381818 
L 353.781818 501.249895 
L 358.854545 500.646956 
L 363.927273 499.037132 
L 369 496.901567 
L 374.072727 497.580199 
L 379.145455 498.547229 
L 384.218182 499.793552 
L 389.290909 500.510702 
L 394.363636 500.227961 
L 399.436364 499.66014 
L 404.509091 499.789578 
L 409.581818 499.269027 
L 414.654545 496.807821 
L 415.51616 496.145455 
L 419.727273 494.310405 
L 424.8 490.812935 
L 429.872727 488.465829 
L 433.028424 485.672727 
L 434.945455 484.213274 
L 438.497837 480.436364 
L 440.018182 477.971201 
L 442.311635 475.2 
L 445.440748 469.963636 
L 450.163636 464.709397 
L 455.236364 459.39145 
L 460.309091 455.61156 
L 461.795539 454.254545 
L 465.381818 451.457488 
L 472.889688 443.781818 
L 475.527273 441.681337 
L 478.589277 438.545455 
L 480.6 435.991972 
L 483.111576 433.309091 
L 485.672727 431.138451 
L 488.914973 428.072727 
L 490.745455 426.572038 
L 499.447729 417.6 
L 500.890909 416.032292 
L 509.537692 407.127273 
L 511.036364 405.010131 
L 513.670616 401.890909 
L 516.109091 397.774009 
L 517.146886 396.654545 
L 521.646002 391.418182 
L 524.971559 386.181818 
L 526.254545 381.529148 
L 526.602654 380.945455 
L 528.027631 375.709091 
L 526.176336 370.472727 
L 520.428052 365.236364 
L 518.576531 360 
L 517.599887 354.763636 
L 515.521051 349.527273 
L 511.036364 344.095389 
L 505.963636 340.924898 
L 500.890909 339.504299 
L 495.818182 339.460594 
L 485.672727 341.69587 
L 480.6 342.559146 
L 470.454545 345.549836 
L 465.381818 346.811122 
L 460.309091 348.512154 
L 457.699885 349.527273 
L 455.236364 350.325423 
L 450.163636 351.83723 
L 445.090909 354.230693 
L 444.316751 354.763636 
L 440.018182 357.042704 
L 434.945455 360.735977 
L 429.872727 363.714396 
L 427.62137 365.236364 
L 424.8 366.59302 
L 419.370075 370.472727 
L 414.654545 373.485479 
L 404.509091 381.666632 
L 399.436364 384.778242 
L 397.66924 386.181818 
L 394.363636 388.481096 
L 389.290909 392.892382 
L 384.218182 397.146817 
L 379.145455 400.37936 
L 377.075687 401.890909 
L 374.072727 403.688391 
L 358.854545 414.480834 
L 353.781818 418.841013 
L 348.20607 422.836364 
L 343.636364 424.512225 
L 338.563636 426.567222 
L 335.914687 428.072727 
L 328.418182 431.285552 
L 325.019315 433.309091 
L 318.272727 436.460557 
L 314.685327 438.545455 
L 313.2 439.136419 
L 308.127273 441.756513 
L 305.434386 443.781818 
L 297.981818 448.161948 
L 296.646044 449.018182 
L 287.836364 452.862193 
L 285.237687 454.254545 
L 282.763636 455.149237 
L 277.690909 457.402792 
L 274.332707 459.490909 
L 272.618182 460.266731 
L 267.545455 462.400098 
L 263.507507 464.727273 
L 262.472727 465.152848 
L 257.4 466.82196 
L 252.327273 468.979354 
L 250.601118 469.963636 
L 247.254545 471.086091 
L 242.181818 472.913316 
L 237.109091 475.302165 
L 232.036364 476.659165 
L 226.963636 479.037054 
L 224.641444 480.436364 
L 221.890909 481.739173 
L 215.918713 485.672727 
L 213.718808 490.909091 
L 216.818182 494.030894 
L 219.625769 496.145455 
L 221.890909 497.384138 
L 226.963636 499.574812 
L 232.036364 500.575364 
L 237.109091 501.165026 
L 240.278312 501.381818 
L 242.181818 501.843132 
L 242.181818 501.843132 
" style="fill:none;stroke:#808080;"/>
   </g>
   <g id="LineCollection_2">
    <path clip-path="url(#pcba29c851f)" d="M 384.218182 554.826547 
L 389.290909 554.990731 
L 394.363636 554.46716 
L 399.436364 554.461024 
L 404.509091 553.819847 
L 404.679159 553.745455 
L 409.581818 551.039026 
L 414.654545 549.135819 
L 416.899248 548.509091 
L 419.727273 547.363561 
L 424.8 545.264142 
L 427.838052 543.272727 
L 427.710766 538.036364 
L 424.8 536.929321 
L 419.727273 537.108952 
L 416.298731 538.036364 
L 414.654545 538.639427 
L 409.581818 540.506678 
L 404.509091 541.639474 
L 399.436364 543.113733 
L 399.072201 543.272727 
L 394.363636 545.651411 
L 389.290909 547.408644 
L 386.64604 548.509091 
L 384.218182 550.368755 
L 380.343015 553.745455 
L 384.218182 554.826547 
" style="fill:none;stroke:#808080;"/>
    <path clip-path="url(#pcba29c851f)" d="M 226.963636 496.383529 
L 232.036364 498.399789 
L 237.109091 499.633198 
L 242.181818 500.320138 
L 247.254545 500.496461 
L 257.4 500.363685 
L 262.472727 500.138139 
L 267.545455 499.468291 
L 272.618182 498.223679 
L 278.740409 496.145455 
L 287.836364 495.000524 
L 292.909091 494.661943 
L 297.981818 494.542984 
L 303.054545 494.607123 
L 308.127273 495.062968 
L 313.553287 496.145455 
L 318.272727 498.707217 
L 323.345455 500.045363 
L 328.418182 500.435181 
L 333.490909 500.468791 
L 343.636364 500.719837 
L 348.709091 500.425805 
L 353.781818 499.718698 
L 358.854545 498.347561 
L 363.927273 495.347023 
L 369 492.799845 
L 374.072727 493.52193 
L 379.145455 494.691818 
L 389.290909 497.57966 
L 394.363636 496.927636 
L 399.436364 496.009439 
L 405.094861 496.145455 
L 409.581818 495.545804 
L 414.654545 493.373787 
L 419.727273 490.39813 
L 424.8 488.421433 
L 428.961782 485.672727 
L 429.872727 485.269109 
L 435.478636 480.436364 
L 439.326369 475.2 
L 440.018182 473.734831 
L 442.766931 469.963636 
L 445.090909 466.380066 
L 446.624506 464.727273 
L 455.236364 456.026691 
L 457.343324 454.254545 
L 460.309091 452.657525 
L 465.381818 447.947922 
L 469.390697 443.781818 
L 470.454545 442.887225 
L 475.527273 438.260647 
L 480.6 432.441659 
L 485.672727 427.847171 
L 491.343909 422.836364 
L 496.398504 417.6 
L 501.234727 412.363636 
L 506.508203 407.127273 
L 510.666214 401.890909 
L 511.036364 401.128405 
L 516.109091 394.314948 
L 518.765106 391.418182 
L 521.936832 386.181818 
L 523.490547 380.945455 
L 522.818284 375.709091 
L 521.181818 373.583066 
L 516.109091 370.963472 
L 511.036364 370.65232 
L 510.126914 370.472727 
L 505.963636 365.210648 
L 505.612902 360 
L 504.113366 354.763636 
L 500.890909 350.63609 
L 498.808964 349.527273 
L 495.818182 348.464376 
L 490.745455 348.323984 
L 485.672727 348.544991 
L 480.6 348.990011 
L 475.527273 350.179131 
L 470.454545 351.509484 
L 465.381818 353.098006 
L 461.597223 354.763636 
L 460.309091 355.61927 
L 455.236364 356.897188 
L 450.163636 357.390132 
L 445.090909 359.028744 
L 440.018182 362.213977 
L 434.945455 365.537566 
L 424.8 370.795099 
L 419.727273 374.131543 
L 417.618211 375.709091 
L 411.18832 380.945455 
L 409.581818 382.786595 
L 404.509091 386.532194 
L 399.436364 389.429472 
L 396.833499 391.418182 
L 394.363636 393.50768 
L 390.831203 396.654545 
L 389.290909 398.542292 
L 384.218182 402.972528 
L 376.999138 407.127273 
L 369 412.535844 
L 358.854545 420.049797 
L 355.420003 422.836364 
L 353.781818 424.020861 
L 348.709091 426.784124 
L 343.636364 428.898098 
L 338.563636 430.89645 
L 333.331171 433.309091 
L 318.272727 440.610065 
L 313.2 442.66944 
L 311.463219 443.781818 
L 308.127273 445.780598 
L 303.054545 449.102619 
L 292.909091 454.545698 
L 282.763636 458.801872 
L 281.521717 459.490909 
L 277.690909 461.480549 
L 267.545455 466.337246 
L 259.149482 469.963636 
L 252.327273 472.27506 
L 245.593716 475.2 
L 242.181818 475.973981 
L 237.109091 477.344455 
L 232.036364 479.620824 
L 230.62907 480.436364 
L 226.963636 482.132596 
L 221.827892 485.672727 
L 219.552253 490.909091 
L 221.890909 492.955525 
L 226.963636 496.383529 
L 226.963636 496.383529 
" style="fill:none;stroke:#808080;"/>
    <path clip-path="url(#pcba29c851f)" d="M 440.018182 446.701428 
L 438.473647 443.781818 
L 437.518483 438.545455 
L 436.833565 433.309091 
L 435.453059 428.072727 
L 434.945455 426.999103 
L 433.637245 422.836364 
L 431.398379 417.6 
L 430.919429 412.363636 
L 434.844876 407.127273 
L 434.945455 407.049532 
L 440.018182 402.081736 
L 440.72889 401.890909 
L 445.090909 400.645988 
L 450.163636 399.587724 
L 453.194377 396.654545 
L 455.236364 393.978617 
L 460.309091 394.020777 
L 462.011918 396.654545 
L 465.381818 400.394328 
L 466.617401 401.890909 
L 468.012939 407.127273 
L 466.048421 412.363636 
L 465.381818 413.384382 
L 462.252987 417.6 
L 460.309091 420.919507 
L 459.290592 422.836364 
L 456.216011 428.072727 
L 455.236364 429.427887 
L 451.820385 433.309091 
L 450.163636 435.565172 
L 447.579778 438.545455 
L 445.313059 443.781818 
L 445.090909 444.174815 
L 440.018182 446.701428 
" style="fill:none;stroke:#808080;"/>
    <path clip-path="url(#pcba29c851f)" d="M 470.454545 391.497918 
L 470.324381 391.418182 
L 465.381818 388.897777 
L 460.470994 386.181818 
L 465.381818 382.275676 
L 470.454545 385.756448 
L 470.805808 386.181818 
L 470.517729 391.418182 
L 470.454545 391.497918 
" style="fill:none;stroke:#808080;"/>
   </g>
   <g id="LineCollection_3">
    <path clip-path="url(#pcba29c851f)" d="M 232.036364 496.224215 
L 237.109091 498.101371 
L 242.181818 499.159828 
L 247.254545 499.446628 
L 257.4 499.272749 
L 262.472727 498.951755 
L 267.545455 497.969919 
L 272.622061 496.145455 
L 287.836364 493.6397 
L 292.909091 493.183266 
L 297.981818 493.027363 
L 303.054545 493.127276 
L 308.127273 493.737838 
L 313.2 494.980043 
L 316.997186 496.145455 
L 318.272727 496.837832 
L 323.345455 498.798833 
L 328.418182 499.368482 
L 333.490909 499.422094 
L 338.563636 499.659832 
L 343.636364 499.780054 
L 348.709091 499.303458 
L 353.781818 498.187501 
L 358.854545 496.088778 
L 367.066123 490.909091 
L 369 486.238322 
L 374.072727 489.032361 
L 376.010833 490.909091 
L 379.145455 491.936157 
L 384.218182 494.23237 
L 389.290909 495.346391 
L 394.363636 494.805651 
L 399.436364 493.977353 
L 404.509091 494.276283 
L 409.581818 493.31403 
L 413.891837 490.909091 
L 414.654545 490.056902 
L 419.727273 487.645684 
L 424.8 486.029932 
L 425.34084 485.672727 
L 429.872727 483.664753 
L 433.472468 480.436364 
L 434.945455 478.759497 
L 437.732059 475.2 
L 440.30584 469.963636 
L 443.494922 464.727273 
L 445.090909 462.629653 
L 448.224589 459.490909 
L 450.163636 457.343023 
L 453.276098 454.254545 
L 455.236364 453.167653 
L 460.309091 450.503334 
L 461.939351 449.018182 
L 467.131189 443.781818 
L 470.454545 440.987197 
L 475.527273 436.287063 
L 478.149929 433.309091 
L 480.6 430.32401 
L 483.037091 428.072727 
L 485.672727 426.340582 
L 490.745455 421.622251 
L 505.963636 405.811848 
L 509.301144 401.890909 
L 511.036364 398.316377 
L 516.137991 391.418182 
L 519.686912 386.181818 
L 520.638908 380.945455 
L 517.312502 375.709091 
L 516.109091 374.898987 
L 511.036364 375.41019 
L 505.963636 377.026985 
L 500.890909 376.90737 
L 495.818182 378.48436 
L 493.851887 380.945455 
L 490.745455 385.19345 
L 486.188509 380.945455 
L 486.552761 375.709091 
L 487.609531 370.472727 
L 490.745455 369.44124 
L 495.818182 369.011147 
L 497.744878 365.236364 
L 498.159068 360 
L 495.818182 357.131359 
L 490.745455 356.023492 
L 485.672727 357.382859 
L 480.6 358.075561 
L 475.527273 358.212389 
L 470.454545 358.959378 
L 468.526494 360 
L 465.381818 363.521475 
L 463.10285 365.236364 
L 460.309091 368.065056 
L 455.084152 365.236364 
L 450.163636 363.838024 
L 445.090909 364.759792 
L 444.222072 365.236364 
L 440.018182 368.514907 
L 434.691082 370.472727 
L 429.872727 372.368597 
L 424.8 374.492473 
L 422.978715 375.709091 
L 419.727273 378.387656 
L 416.406369 380.945455 
L 414.654545 383.450395 
L 412.384036 386.181818 
L 409.581818 391.059049 
L 404.509091 392.205767 
L 399.436364 394.759723 
L 397.010543 396.654545 
L 393.277465 401.890909 
L 394.363636 407.046499 
L 399.436364 407.008561 
L 404.509091 404.435495 
L 406.944757 401.890909 
L 409.581818 398.86785 
L 414.654545 397.831972 
L 419.727273 397.507397 
L 424.8 395.946442 
L 429.872727 393.64331 
L 434.945455 388.485055 
L 436.765166 386.181818 
L 440.018182 382.349576 
L 445.090909 377.152766 
L 450.163636 375.035362 
L 455.236364 373.217224 
L 460.309091 371.56017 
L 465.381818 371.535869 
L 470.454545 374.891805 
L 475.527273 378.836612 
L 478.98579 380.945455 
L 480.6 384.225264 
L 482.555465 386.181818 
L 482.574908 391.418182 
L 482.016765 396.654545 
L 480.166218 401.890909 
L 475.527273 408.275427 
L 472.12927 412.363636 
L 470.454545 415.063162 
L 468.376219 417.6 
L 465.381818 420.71704 
L 463.621289 422.836364 
L 460.17642 428.072727 
L 455.236364 434.114615 
L 451.452237 438.545455 
L 450.163636 441.315315 
L 448.576584 443.781818 
L 445.78432 449.018182 
L 445.090909 449.763952 
L 440.018182 453.287221 
L 434.945455 452.402231 
L 433.700518 449.018182 
L 432.978329 443.781818 
L 432.142631 438.545455 
L 431.546158 433.309091 
L 429.872727 427.665479 
L 426.743146 422.836364 
L 424.8 420.649186 
L 414.654545 413.36178 
L 412.064566 412.363636 
L 409.581818 410.4529 
L 404.509091 408.976623 
L 399.436364 407.272914 
L 394.363636 407.183224 
L 389.290909 410.88315 
L 384.218182 412.402519 
L 379.145455 413.659912 
L 374.072727 416.158966 
L 363.927273 422.158303 
L 358.854545 425.676181 
L 354.853371 428.072727 
L 353.781818 428.883857 
L 348.709091 431.529095 
L 342.679748 433.309091 
L 338.563636 435.587539 
L 331.49821 438.545455 
L 328.418182 440.30564 
L 323.345455 442.744832 
L 318.272727 444.241384 
L 313.2 446.311941 
L 308.127273 449.112982 
L 303.054545 452.357286 
L 299.46387 454.254545 
L 297.981818 455.248777 
L 292.909091 457.937135 
L 289.016551 459.490909 
L 287.836364 460.173154 
L 272.618182 467.392241 
L 266.528426 469.963636 
L 262.472727 471.463873 
L 257.4 473.106196 
L 252.041364 475.2 
L 247.254545 476.300862 
L 242.181818 477.588849 
L 237.109091 479.386746 
L 235.004186 480.436364 
L 232.036364 481.628299 
L 226.963636 484.497612 
L 225.266995 485.672727 
L 223.402337 490.909091 
L 226.963636 493.859727 
L 232.036364 496.224215 
L 232.036364 496.224215 
" style="fill:none;stroke:#808080;"/>
    <path clip-path="url(#pcba29c851f)" d="M 369 484.70582 
L 366.490152 480.436364 
L 363.927273 478.660174 
L 360.09685 475.2 
L 358.854545 474.278738 
L 353.781818 470.868045 
L 352.024123 469.963636 
L 348.709091 467.16318 
L 343.636364 465.662422 
L 338.563636 464.99222 
L 335.986735 464.727273 
L 338.116392 459.490909 
L 338.563636 459.403019 
L 343.636364 458.255487 
L 348.709091 458.402367 
L 353.781818 459.24517 
L 358.854545 459.224569 
L 363.927273 459.401354 
L 364.135464 459.490909 
L 369 463.174057 
L 370.866718 464.727273 
L 374.072727 468.419187 
L 374.966215 469.963636 
L 376.677362 475.2 
L 374.072727 479.71947 
L 373.487643 480.436364 
L 369 484.70582 
" style="fill:none;stroke:#808080;"/>
    <path clip-path="url(#pcba29c851f)" d="M 414.654545 467.307617 
L 413.938656 464.727273 
L 412.533177 459.490909 
L 410.811662 454.254545 
L 409.581818 451.015011 
L 409.010728 449.018182 
L 408.088624 443.781818 
L 408.711578 438.545455 
L 409.581818 437.926872 
L 413.526898 438.545455 
L 414.654545 438.760955 
L 417.501554 443.781818 
L 419.555406 449.018182 
L 419.727273 449.432025 
L 420.852206 454.254545 
L 420.585182 459.490909 
L 419.727273 462.15355 
L 416.674531 464.727273 
L 414.654545 467.307617 
" style="fill:none;stroke:#808080;"/>
   </g>
   <g id="LineCollection_4">
    <path clip-path="url(#pcba29c851f)" d="M 237.109091 496.569543 
L 242.181818 497.999518 
L 247.254545 498.396794 
L 252.327273 498.293592 
L 257.4 498.181814 
L 262.472727 497.765371 
L 267.545455 496.471548 
L 268.452622 496.145455 
L 272.618182 495.289563 
L 277.690909 494.287997 
L 282.763636 493.269184 
L 287.836364 492.278876 
L 292.909091 491.704589 
L 297.981818 491.511741 
L 303.054545 491.647429 
L 308.127273 492.412707 
L 313.2 493.923059 
L 318.272727 495.641293 
L 320.089269 496.145455 
L 323.345455 497.552302 
L 328.418182 498.301783 
L 333.490909 498.375396 
L 338.563636 498.691314 
L 343.636364 498.840271 
L 348.709091 498.181112 
L 353.781818 496.656303 
L 355.011815 496.145455 
L 358.854545 494.749243 
L 363.604689 490.909091 
L 363.927273 489.021453 
L 365.290381 485.672727 
L 363.927273 483.989569 
L 362.187903 480.436364 
L 358.854545 477.149649 
L 355.901979 475.2 
L 353.781818 473.583716 
L 348.709091 470.694546 
L 346.483068 469.963636 
L 343.636364 468.57733 
L 338.563636 467.509104 
L 333.490909 466.724001 
L 328.418182 466.357084 
L 323.345455 466.240924 
L 318.272727 466.21715 
L 313.2 466.177997 
L 308.127273 465.81968 
L 303.054545 464.819181 
L 302.58379 464.727273 
L 303.054545 464.401907 
L 308.127273 460.512362 
L 309.113128 459.490909 
L 313.2 455.780023 
L 315.567208 454.254545 
L 313.2 452.49805 
L 308.127273 453.753578 
L 307.084228 454.254545 
L 303.054545 457.49265 
L 297.981818 459.380966 
L 297.744392 459.490909 
L 292.909091 463.889503 
L 289.93413 464.727273 
L 287.836364 465.212599 
L 282.763636 467.259679 
L 277.690909 469.432513 
L 276.078473 469.963636 
L 272.618182 470.679543 
L 267.545455 472.347159 
L 262.472727 474.075182 
L 258.92113 475.2 
L 257.4 475.447168 
L 252.327273 476.522708 
L 247.254545 477.736714 
L 242.181818 479.203716 
L 239.0826 480.436364 
L 237.109091 481.025317 
L 232.036364 483.273179 
L 228.264513 485.672727 
L 226.963636 489.448676 
L 226.383519 490.909091 
L 226.963636 491.389734 
L 232.036364 494.568397 
L 235.97711 496.145455 
L 237.109091 496.569543 
" style="fill:none;stroke:#808080;"/>
    <path clip-path="url(#pcba29c851f)" d="M 384.218182 492.299351 
L 389.290909 493.781697 
L 394.363636 493.04968 
L 399.436364 491.945266 
L 404.509091 492.339163 
L 409.581818 491.082256 
L 409.892156 490.909091 
L 414.558057 485.672727 
L 413.578486 480.436364 
L 409.581818 476.910831 
L 407.373617 475.2 
L 404.509091 470.116726 
L 399.957234 475.2 
L 399.436364 475.355144 
L 399.226484 475.2 
L 396.050906 469.963636 
L 394.363636 465.004663 
L 394.322162 464.727273 
L 392.6749 459.490909 
L 389.290909 456.025712 
L 387.187727 454.254545 
L 384.218182 450.981128 
L 381.658296 449.018182 
L 381.973696 443.781818 
L 384.218182 442.574341 
L 388.158227 438.545455 
L 384.218182 435.817888 
L 379.145455 435.962664 
L 376.731352 438.545455 
L 377.224087 443.781818 
L 374.072727 444.941525 
L 369 446.31892 
L 363.927273 444.376331 
L 362.312201 443.781818 
L 358.854545 442.27236 
L 355.046475 443.781818 
L 353.781818 444.28261 
L 348.709091 444.777952 
L 343.636364 446.255831 
L 338.563636 447.608628 
L 333.490909 447.861185 
L 331.520099 449.018182 
L 333.490909 452.341663 
L 338.563636 450.898142 
L 343.636364 449.954528 
L 348.709091 450.547392 
L 353.781818 452.965644 
L 358.854545 453.704899 
L 363.927273 452.957029 
L 365.594405 454.254545 
L 369 455.530014 
L 373.827719 459.490909 
L 374.072727 459.710556 
L 378.11419 464.727273 
L 379.145455 466.195307 
L 381.215788 469.963636 
L 382.379772 475.2 
L 380.649042 480.436364 
L 379.145455 484.523 
L 378.283965 485.672727 
L 379.145455 486.514634 
L 381.508656 490.909091 
L 384.218182 492.299351 
" style="fill:none;stroke:#808080;"/>
    <path clip-path="url(#pcba29c851f)" d="M 419.727273 484.571803 
L 424.8 484.261966 
L 429.872727 482.060396 
L 431.683568 480.436364 
L 434.945455 476.72299 
L 436.13775 475.2 
L 438.571763 469.963636 
L 440.018182 465.808052 
L 440.667569 464.727273 
L 442.501004 459.490909 
L 440.018182 458.685082 
L 434.945455 458.679602 
L 429.872727 456.7756 
L 427.710071 459.490909 
L 424.8 461.674481 
L 423.040913 464.727273 
L 420.153006 469.963636 
L 419.727273 470.976981 
L 416.627827 475.2 
L 415.021715 480.436364 
L 419.727273 484.571803 
" style="fill:none;stroke:#808080;"/>
    <path clip-path="url(#pcba29c851f)" d="M 399.436364 454.381006 
L 399.683497 454.254545 
L 399.436364 453.997153 
L 399.383721 454.254545 
L 399.436364 454.381006 
" style="fill:none;stroke:#808080;"/>
    <path clip-path="url(#pcba29c851f)" d="M 450.163636 449.359882 
L 455.236364 450.871344 
L 458.899397 449.018182 
L 460.309091 448.361708 
L 464.90312 443.781818 
L 465.381818 443.288648 
L 470.454545 439.08717 
L 471.049865 438.545455 
L 475.527273 434.313479 
L 476.411822 433.309091 
L 480.6 428.20636 
L 480.744663 428.072727 
L 485.672727 424.833993 
L 487.820986 422.836364 
L 490.745455 420.114059 
L 493.177678 417.6 
L 495.818182 414.771167 
L 498.094256 412.363636 
L 500.890909 409.444545 
L 503.184536 407.127273 
L 505.963636 404.208149 
L 507.936074 401.890909 
L 510.557194 396.654545 
L 511.036364 395.409885 
L 513.928555 391.418182 
L 516.109091 388.519997 
L 517.69691 386.181818 
L 518.041444 380.945455 
L 516.109091 378.412753 
L 511.036364 378.591529 
L 507.10916 380.945455 
L 505.963636 381.636268 
L 500.890909 383.390624 
L 497.610022 386.181818 
L 495.818182 387.327761 
L 491.658547 391.418182 
L 490.745455 392.391189 
L 486.563033 396.654545 
L 485.672727 397.715424 
L 482.863951 401.890909 
L 480.6 404.988179 
L 478.919382 407.127273 
L 475.527273 412.191175 
L 475.383928 412.363636 
L 471.513484 417.6 
L 470.454545 418.946553 
L 466.704705 422.836364 
L 465.381818 424.089419 
L 462.16651 428.072727 
L 460.309091 431.040673 
L 458.463396 433.309091 
L 455.236364 436.877469 
L 453.811833 438.545455 
L 451.235652 443.781818 
L 450.163636 448.847142 
L 450.088968 449.018182 
L 450.163636 449.359882 
" style="fill:none;stroke:#808080;"/>
    <path clip-path="url(#pcba29c851f)" d="M 424.8 437.409521 
L 425.99543 433.309091 
L 424.8 428.248146 
L 424.615143 428.072727 
L 419.727273 425.442507 
L 417.189269 422.836364 
L 414.654545 421.206694 
L 409.581818 418.10159 
L 405.842426 417.6 
L 404.509091 417.506217 
L 403.106337 417.6 
L 399.436364 419.302681 
L 394.363636 421.986039 
L 389.290909 421.483994 
L 384.218182 422.088716 
L 382.904948 422.836364 
L 384.218182 424.623818 
L 389.290909 424.25954 
L 394.363636 423.176219 
L 399.436364 423.565408 
L 404.509091 425.287429 
L 409.581818 427.001505 
L 414.654545 427.488202 
L 415.215549 428.072727 
L 419.727273 432.651214 
L 420.317563 433.309091 
L 424.8 437.409521 
" style="fill:none;stroke:#808080;"/>
   </g>
   <g id="LineCollection_5">
    <path clip-path="url(#pcba29c851f)" d="M 242.181818 496.839208 
L 247.254545 497.34696 
L 252.327273 497.224708 
L 257.4 497.090879 
L 262.472727 496.578987 
L 264.087737 496.145455 
L 267.545455 495.557362 
L 272.618182 494.433096 
L 277.690909 493.298793 
L 282.763636 492.104099 
L 287.836364 490.918052 
L 287.90765 490.909091 
L 292.909091 490.46793 
L 297.981818 490.341651 
L 303.054545 490.44296 
L 307.052568 490.909091 
L 308.127273 491.087576 
L 313.2 492.866076 
L 318.272727 494.840558 
L 322.974397 496.145455 
L 323.345455 496.305771 
L 328.418182 497.235085 
L 333.490909 497.328699 
L 338.563636 497.722796 
L 343.636364 497.900488 
L 348.709091 497.058765 
L 351.498003 496.145455 
L 353.781818 495.5452 
L 358.854545 493.409709 
L 361.947728 490.909091 
L 362.953407 485.672727 
L 359.802262 480.436364 
L 358.854545 479.501908 
L 353.781818 475.832684 
L 352.571873 475.2 
L 348.709091 472.659905 
L 343.636364 470.758113 
L 338.563636 469.994195 
L 338.302821 469.963636 
L 333.490909 468.94742 
L 328.418182 468.337305 
L 323.345455 468.150152 
L 318.272727 468.261603 
L 313.2 468.65283 
L 308.127273 469.16522 
L 303.867554 469.963636 
L 303.054545 470.026621 
L 297.981818 470.259421 
L 292.909091 470.304664 
L 287.836364 470.505514 
L 282.763636 471.131 
L 277.690909 472.206775 
L 272.618182 473.492904 
L 267.545455 475.131871 
L 267.336422 475.2 
L 262.472727 475.936483 
L 257.4 476.786921 
L 252.327273 477.908893 
L 247.254545 479.172566 
L 243.256845 480.436364 
L 242.181818 480.659716 
L 237.109091 482.237007 
L 232.036364 484.918059 
L 230.8501 485.672727 
L 228.964675 490.909091 
L 232.036364 492.932103 
L 237.109091 495.313834 
L 239.885921 496.145455 
L 242.181818 496.839208 
" style="fill:none;stroke:#808080;"/>
    <path clip-path="url(#pcba29c851f)" d="M 389.290909 492.217004 
L 394.363636 491.293709 
L 395.930495 490.909091 
L 399.436364 488.353263 
L 404.509091 489.473261 
L 409.425992 485.672727 
L 404.509091 481.418596 
L 399.436364 482.251243 
L 397.491929 480.436364 
L 394.363636 477.950776 
L 390.610812 475.2 
L 389.42874 469.963636 
L 389.40811 464.727273 
L 389.290909 464.483024 
L 384.461863 459.490909 
L 384.218182 459.294173 
L 383.783424 459.490909 
L 383.537555 464.727273 
L 384.218182 466.268479 
L 388.921401 469.963636 
L 388.087619 475.2 
L 384.218182 480.306284 
L 384.168951 480.436364 
L 381.80894 485.672727 
L 384.218182 489.543447 
L 385.493697 490.909091 
L 389.290909 492.217004 
" style="fill:none;stroke:#808080;"/>
    <path clip-path="url(#pcba29c851f)" d="M 419.727273 480.684347 
L 424.8 482.603486 
L 429.872727 480.45604 
L 429.894667 480.436364 
L 434.558934 475.2 
L 434.945455 474.299464 
L 436.933907 469.963636 
L 437.21102 464.727273 
L 434.945455 462.502799 
L 429.872727 462.101021 
L 426.905689 464.727273 
L 424.8 466.344016 
L 422.2585 469.963636 
L 420.013389 475.2 
L 419.727273 478.925848 
L 419.445103 480.436364 
L 419.727273 480.684347 
" style="fill:none;stroke:#808080;"/>
    <path clip-path="url(#pcba29c851f)" d="M 455.236364 448.10787 
L 460.309091 446.247973 
L 462.782859 443.781818 
L 465.381818 441.10429 
L 468.532054 438.545455 
L 470.454545 437.377234 
L 474.691483 433.309091 
L 475.527273 432.102108 
L 478.755275 428.072727 
L 480.6 426.65721 
L 485.672727 423.327403 
L 486.200794 422.836364 
L 490.745455 418.605868 
L 491.71858 417.6 
L 495.818182 413.208001 
L 496.616442 412.363636 
L 500.890909 407.902032 
L 501.657763 407.127273 
L 505.963636 402.604451 
L 506.571004 401.890909 
L 509.385709 396.654545 
L 511.036364 392.36691 
L 511.723765 391.418182 
L 515.143814 386.181818 
L 511.036364 382.067977 
L 505.963636 384.730734 
L 502.732782 386.181818 
L 500.890909 386.649803 
L 495.818182 390.191588 
L 494.570833 391.418182 
L 490.745455 395.494569 
L 489.607499 396.654545 
L 485.672727 401.343178 
L 485.304278 401.890909 
L 481.152964 407.127273 
L 480.6 407.803938 
L 476.963278 412.363636 
L 475.527273 414.979654 
L 473.56391 417.6 
L 470.454545 421.553886 
L 469.218217 422.836364 
L 465.381818 426.470252 
L 464.088307 428.072727 
L 460.867861 433.309091 
L 460.309091 434.138517 
L 456.362784 438.545455 
L 455.236364 440.125398 
L 453.322503 443.781818 
L 455.236364 448.10787 
" style="fill:none;stroke:#808080;"/>
   </g>
   <g id="LineCollection_6">
    <path clip-path="url(#pcba29c851f)" d="M 247.254545 496.297126 
L 252.327273 496.155824 
L 252.67121 496.145455 
L 257.4 496.054234 
L 262.472727 495.708809 
L 267.545455 494.805679 
L 272.618182 493.57663 
L 277.690909 492.309589 
L 282.763636 490.939013 
L 282.891474 490.909091 
L 287.836364 489.940928 
L 292.909091 489.513076 
L 297.981818 489.399645 
L 303.054545 489.512692 
L 308.127273 490.116236 
L 310.684062 490.909091 
L 313.2 491.809093 
L 318.272727 494.039823 
L 323.345455 495.57803 
L 328.296047 496.145455 
L 328.418182 496.168386 
L 333.490909 496.282001 
L 338.563636 496.754278 
L 343.636364 496.960704 
L 347.81248 496.145455 
L 348.709091 496.020556 
L 353.781818 494.64442 
L 358.854545 492.070174 
L 360.290767 490.909091 
L 361.465737 485.672727 
L 358.854545 481.77488 
L 357.654787 480.436364 
L 353.781818 477.395518 
L 349.583105 475.2 
L 348.709091 474.625264 
L 343.636364 472.273109 
L 338.563636 471.227747 
L 333.490909 470.557285 
L 328.418182 470.149716 
L 323.345455 470.015017 
L 318.272727 470.138606 
L 313.2 470.493211 
L 308.127273 470.903785 
L 303.054545 471.40941 
L 297.981818 471.822731 
L 292.909091 472.008687 
L 287.836364 472.389641 
L 282.763636 473.293667 
L 277.690909 474.751681 
L 276.121437 475.2 
L 272.618182 475.688286 
L 267.545455 476.4387 
L 262.472727 477.230258 
L 257.4 478.126675 
L 252.327273 479.295079 
L 247.899032 480.436364 
L 247.254545 480.53748 
L 242.181818 481.603369 
L 237.109091 483.448697 
L 233.191491 485.672727 
L 232.036364 489.317466 
L 231.449181 490.909091 
L 232.036364 491.295809 
L 237.109091 494.163836 
L 242.181818 495.797032 
L 245.913693 496.145455 
L 247.254545 496.297126 
" style="fill:none;stroke:#808080;"/>
    <path clip-path="url(#pcba29c851f)" d="M 389.290909 490.252603 
L 394.363636 487.450059 
L 396.657832 485.672727 
L 394.363636 483.489918 
L 389.918237 480.436364 
L 389.290909 479.979766 
L 388.913669 480.436364 
L 384.985883 485.672727 
L 389.290909 490.252603 
" style="fill:none;stroke:#808080;"/>
    <path clip-path="url(#pcba29c851f)" d="M 424.8 480.945007 
L 426.001896 480.436364 
L 429.872727 478.737733 
L 433.026068 475.2 
L 434.945455 470.728115 
L 435.296052 469.963636 
L 434.945455 468.071391 
L 429.872727 465.327046 
L 424.8 469.342673 
L 424.363994 469.963636 
L 421.831778 475.2 
L 423.548278 480.436364 
L 424.8 480.945007 
" style="fill:none;stroke:#808080;"/>
    <path clip-path="url(#pcba29c851f)" d="M 460.309091 444.134238 
L 460.662599 443.781818 
L 465.381818 438.919932 
L 465.842845 438.545455 
L 470.454545 435.74311 
L 472.989556 433.309091 
L 475.527273 429.644317 
L 476.786299 428.072727 
L 480.6 425.14635 
L 484.120575 422.836364 
L 485.672727 421.927224 
L 490.268376 417.6 
L 490.745455 417.126112 
L 495.205471 412.363636 
L 495.818182 411.687375 
L 500.189263 407.127273 
L 500.890909 406.471745 
L 505.265508 401.890909 
L 505.963636 400.717129 
L 508.214224 396.654545 
L 509.413527 391.418182 
L 505.963636 387.576356 
L 500.890909 388.400386 
L 497.081503 391.418182 
L 495.818182 392.43212 
L 491.801882 396.654545 
L 490.745455 397.86867 
L 487.145848 401.890909 
L 485.672727 403.48686 
L 482.692062 407.127273 
L 480.6 409.687343 
L 478.465443 412.363636 
L 475.593901 417.6 
L 475.527273 417.797084 
L 472.071781 422.836364 
L 470.454545 423.99333 
L 466.16462 428.072727 
L 465.381818 429.26338 
L 463.006304 433.309091 
L 460.309091 437.312776 
L 459.205256 438.545455 
L 456.920928 443.781818 
L 460.309091 444.134238 
" style="fill:none;stroke:#808080;"/>
   </g>
   <g id="LineCollection_7">
    <path clip-path="url(#pcba29c851f)" d="M 237.109091 493.013837 
L 242.181818 494.930518 
L 247.254545 495.509555 
L 252.327273 495.444951 
L 257.4 495.370333 
L 262.472727 495.02072 
L 267.545455 494.053996 
L 272.618182 492.720163 
L 277.690909 491.320386 
L 279.208177 490.909091 
L 282.763636 489.92696 
L 287.836364 488.966347 
L 292.909091 488.558223 
L 297.981818 488.457639 
L 303.054545 488.582423 
L 308.127273 489.199967 
L 313.2 490.773376 
L 313.44634 490.909091 
L 318.272727 493.239088 
L 323.345455 494.926859 
L 328.418182 495.554699 
L 333.490909 495.634116 
L 338.563636 495.941646 
L 343.636364 496.071989 
L 348.709091 495.349959 
L 353.781818 493.743641 
L 358.648513 490.909091 
L 358.854545 490.123914 
L 359.978067 485.672727 
L 358.854545 483.995595 
L 355.664285 480.436364 
L 353.781818 478.958353 
L 348.709091 476.073929 
L 346.519847 475.2 
L 343.636364 473.788105 
L 338.563636 472.461299 
L 333.490909 471.650664 
L 328.418182 471.190942 
L 323.345455 471.039614 
L 318.272727 471.18328 
L 313.2 471.619138 
L 308.127273 472.13863 
L 303.054545 472.792198 
L 297.981818 473.386041 
L 292.909091 473.71271 
L 287.836364 474.273769 
L 283.7491 475.2 
L 282.763636 475.35351 
L 277.690909 476.212444 
L 272.618182 476.930054 
L 267.545455 477.708466 
L 262.472727 478.524033 
L 257.4 479.466428 
L 253.32236 480.436364 
L 252.327273 480.586296 
L 247.254545 481.381336 
L 242.181818 482.547022 
L 237.109091 484.660388 
L 235.325868 485.672727 
L 233.529822 490.909091 
L 237.109091 493.013837 
" style="fill:none;stroke:#808080;"/>
    <path clip-path="url(#pcba29c851f)" d="M 389.290909 486.252282 
L 390.279241 485.672727 
L 389.290909 484.960841 
L 388.746135 485.672727 
L 389.290909 486.252282 
" style="fill:none;stroke:#808080;"/>
    <path clip-path="url(#pcba29c851f)" d="M 424.8 477.697762 
L 429.872727 477.018011 
L 431.493202 475.2 
L 432.519748 469.963636 
L 429.872727 467.822993 
L 427.236899 469.963636 
L 424.8 472.876808 
L 423.650167 475.2 
L 424.8 477.697762 
" style="fill:none;stroke:#808080;"/>
    <path clip-path="url(#pcba29c851f)" d="M 465.381818 433.927033 
L 470.454545 434.108986 
L 471.28763 433.309091 
L 473.939813 428.072727 
L 470.454545 426.270253 
L 468.55905 428.072727 
L 465.381818 432.905338 
L 465.144747 433.309091 
L 465.381818 433.927033 
" style="fill:none;stroke:#808080;"/>
    <path clip-path="url(#pcba29c851f)" d="M 475.527273 423.841914 
L 480.6 423.63549 
L 481.817923 422.836364 
L 485.672727 420.578495 
L 488.835984 417.6 
L 490.745455 415.703297 
L 493.873017 412.363636 
L 495.818182 410.216721 
L 498.779569 407.127273 
L 500.890909 405.154707 
L 504.007765 401.890909 
L 505.963636 398.602456 
L 507.042739 396.654545 
L 507.055519 391.418182 
L 505.963636 390.202252 
L 500.890909 390.150968 
L 499.291288 391.418182 
L 495.818182 394.205687 
L 493.488869 396.654545 
L 490.745455 399.80748 
L 488.88094 401.890909 
L 485.672727 405.366626 
L 484.23116 407.127273 
L 480.6 411.570747 
L 479.967608 412.363636 
L 477.163048 417.6 
L 475.527273 422.438598 
L 475.254521 422.836364 
L 475.527273 423.841914 
" style="fill:none;stroke:#808080;"/>
   </g>
   <g id="LineCollection_8">
    <path clip-path="url(#pcba29c851f)" d="M 237.109091 491.863838 
L 242.181818 494.064004 
L 247.254545 494.766272 
L 252.327273 494.737586 
L 257.4 494.686431 
L 262.472727 494.33263 
L 267.545455 493.302314 
L 272.618182 491.863696 
L 275.946403 490.909091 
L 277.690909 490.261007 
L 282.763636 488.918941 
L 287.836364 487.991766 
L 292.909091 487.60337 
L 297.981818 487.515633 
L 303.054545 487.652154 
L 308.127273 488.283698 
L 313.2 489.859581 
L 315.104994 490.909091 
L 318.272727 492.438352 
L 323.345455 494.275687 
L 328.418182 494.950964 
L 333.490909 495.046064 
L 338.563636 495.392866 
L 343.636364 495.517588 
L 348.709091 494.679363 
L 353.781818 492.842862 
L 357.101948 490.909091 
L 358.517139 485.672727 
L 353.781818 480.517808 
L 353.675361 480.436364 
L 348.709091 477.309046 
L 343.636364 475.267515 
L 343.368384 475.2 
L 338.563636 473.694852 
L 333.490909 472.744042 
L 328.418182 472.232168 
L 323.345455 472.064211 
L 318.272727 472.227954 
L 313.2 472.745065 
L 308.127273 473.373476 
L 303.054545 474.174987 
L 297.981818 474.94935 
L 295.153081 475.2 
L 292.909091 475.386768 
L 287.836364 475.919766 
L 282.763636 476.648659 
L 277.690909 477.441382 
L 272.618182 478.171821 
L 267.545455 478.978232 
L 262.472727 479.817808 
L 259.256757 480.436364 
L 257.4 480.674481 
L 252.327273 481.434938 
L 247.254545 482.225192 
L 242.181818 483.490676 
L 237.446041 485.672727 
L 237.109091 486.538786 
L 235.485476 490.909091 
L 237.109091 491.863838 
" style="fill:none;stroke:#808080;"/>
    <path clip-path="url(#pcba29c851f)" d="M 429.872727 475.298289 
L 429.960336 475.2 
L 429.872727 473.699906 
L 429.190256 475.2 
L 429.872727 475.298289 
" style="fill:none;stroke:#808080;"/>
    <path clip-path="url(#pcba29c851f)" d="M 480.6 421.351637 
L 485.672727 419.229766 
L 487.403591 417.6 
L 490.745455 414.280483 
L 492.540564 412.363636 
L 495.818182 408.746066 
L 497.369875 407.127273 
L 500.890909 403.837669 
L 502.750022 401.890909 
L 505.805476 396.654545 
L 500.890909 391.948471 
L 495.818182 395.979253 
L 495.175855 396.654545 
L 490.745455 401.74629 
L 490.616032 401.890909 
L 485.813793 407.127273 
L 485.672727 407.273648 
L 481.655567 412.363636 
L 480.6 414.077223 
L 478.732196 417.6 
L 480.6 421.351637 
" style="fill:none;stroke:#808080;"/>
   </g>
   <g id="LineCollection_9">
    <path clip-path="url(#pcba29c851f)" d="M 242.181818 493.197489 
L 247.254545 494.022989 
L 252.327273 494.030221 
L 257.4 494.002529 
L 262.472727 493.644541 
L 267.545455 492.550631 
L 272.618182 491.007229 
L 272.96034 490.909091 
L 277.690909 489.151684 
L 282.763636 487.910923 
L 287.836364 487.017185 
L 292.909091 486.648517 
L 297.981818 486.573627 
L 303.054545 486.721885 
L 308.127273 487.367429 
L 313.2 488.945787 
L 316.763648 490.909091 
L 318.272727 491.637617 
L 323.345455 493.624516 
L 328.418182 494.347229 
L 333.490909 494.458011 
L 338.563636 494.844087 
L 343.636364 494.963187 
L 348.709091 494.008766 
L 353.781818 491.942083 
L 355.555382 490.909091 
L 357.138718 485.672727 
L 353.781818 482.018371 
L 351.713958 480.436364 
L 348.709091 478.544164 
L 343.636364 476.259597 
L 339.430628 475.2 
L 338.563636 474.928404 
L 333.490909 473.83742 
L 328.418182 473.273393 
L 323.345455 473.088808 
L 318.272727 473.272629 
L 313.2 473.870992 
L 308.127273 474.608321 
L 304.833263 475.2 
L 303.054545 475.607858 
L 297.981818 476.454105 
L 292.909091 476.85519 
L 287.836364 477.335504 
L 282.763636 477.943808 
L 277.690909 478.670319 
L 272.618182 479.413589 
L 267.545455 480.247998 
L 266.422695 480.436364 
L 262.472727 480.917521 
L 257.4 481.537117 
L 252.327273 482.283581 
L 247.254545 483.069048 
L 242.181818 484.434329 
L 239.494082 485.672727 
L 237.415515 490.909091 
L 242.181818 493.197489 
" style="fill:none;stroke:#808080;"/>
    <path clip-path="url(#pcba29c851f)" d="M 480.6 418.199875 
L 485.672727 417.881038 
L 485.971198 417.6 
L 490.745455 412.857668 
L 491.208111 412.363636 
L 495.818182 407.275412 
L 495.960181 407.127273 
L 500.890909 402.52063 
L 501.492279 401.890909 
L 503.799883 396.654545 
L 500.890909 393.86898 
L 497.335939 396.654545 
L 495.818182 398.3571 
L 492.868909 401.890909 
L 490.745455 404.154468 
L 488.039906 407.127273 
L 485.672727 409.58356 
L 483.478613 412.363636 
L 480.6 417.036719 
L 480.301344 417.6 
L 480.6 418.199875 
" style="fill:none;stroke:#808080;"/>
   </g>
   <g id="LineCollection_10">
    <path clip-path="url(#pcba29c851f)" d="M 242.181818 492.330975 
L 247.254545 493.279705 
L 252.327273 493.322855 
L 257.4 493.318627 
L 262.472727 492.956451 
L 267.545455 491.798948 
L 270.447588 490.909091 
L 272.618182 489.698408 
L 277.690909 488.042362 
L 282.763636 486.902904 
L 287.836364 486.042604 
L 292.909091 485.693664 
L 294.605571 485.672727 
L 297.981818 485.539095 
L 299.272996 485.672727 
L 303.054545 485.791617 
L 308.127273 486.451159 
L 313.2 488.031992 
L 318.272727 490.819306 
L 318.413039 490.909091 
L 323.345455 492.973344 
L 328.418182 493.743494 
L 333.490909 493.869959 
L 338.563636 494.295308 
L 343.636364 494.408786 
L 348.709091 493.338169 
L 353.781818 491.041304 
L 354.008817 490.909091 
L 355.760297 485.672727 
L 353.781818 483.518934 
L 349.752556 480.436364 
L 348.709091 479.779282 
L 343.636364 477.251679 
L 338.563636 475.900793 
L 334.708174 475.2 
L 333.490909 474.930799 
L 328.418182 474.314619 
L 323.345455 474.113405 
L 318.272727 474.317303 
L 313.2 474.996919 
L 311.895187 475.2 
L 308.127273 476.045256 
L 303.054545 477.184211 
L 297.981818 477.947679 
L 292.909091 478.323613 
L 287.836364 478.751242 
L 282.763636 479.238956 
L 277.690909 479.899257 
L 274.076607 480.436364 
L 272.618182 480.7323 
L 267.545455 481.415848 
L 262.472727 481.839458 
L 257.4 482.399752 
L 252.327273 483.132223 
L 247.254545 483.912904 
L 242.181818 485.377982 
L 241.542123 485.672727 
L 239.220301 490.909091 
L 242.181818 492.330975 
" style="fill:none;stroke:#808080;"/>
    <path clip-path="url(#pcba29c851f)" d="M 485.672727 413.434632 
L 486.878485 412.363636 
L 485.672727 411.893471 
L 485.30166 412.363636 
L 485.672727 413.434632 
" style="fill:none;stroke:#808080;"/>
    <path clip-path="url(#pcba29c851f)" d="M 490.745455 408.426303 
L 491.7256 407.127273 
L 490.745455 406.600478 
L 490.266019 407.127273 
L 490.745455 408.426303 
" style="fill:none;stroke:#808080;"/>
    <path clip-path="url(#pcba29c851f)" d="M 495.818182 403.152081 
L 497.611195 401.890909 
L 495.818182 401.106498 
L 495.163522 401.890909 
L 495.818182 403.152081 
" style="fill:none;stroke:#808080;"/>
    <path clip-path="url(#pcba29c851f)" d="M 500.890909 399.080369 
L 501.79429 396.654545 
L 500.890909 395.789489 
L 499.786914 396.654545 
L 500.890909 399.080369 
" style="fill:none;stroke:#808080;"/>
   </g>
   <g id="LineCollection_11">
    <path clip-path="url(#pcba29c851f)" d="M 242.181818 491.464461 
L 247.254545 492.536422 
L 252.327273 492.61549 
L 257.4 492.634726 
L 262.472727 492.268362 
L 267.545455 491.047265 
L 267.99609 490.909091 
L 272.618182 488.331047 
L 277.690909 486.93304 
L 282.763636 485.894885 
L 284.093194 485.672727 
L 282.763636 481.772054 
L 277.690909 482.17133 
L 272.618182 482.410365 
L 267.545455 482.565945 
L 262.472727 482.761394 
L 257.4 483.262388 
L 252.327273 483.980865 
L 247.254545 484.75676 
L 244.149145 485.672727 
L 242.181818 488.383 
L 241.025087 490.909091 
L 242.181818 491.464461 
" style="fill:none;stroke:#808080;"/>
    <path clip-path="url(#pcba29c851f)" d="M 323.345455 492.322173 
L 328.418182 493.139759 
L 333.490909 493.281906 
L 338.563636 493.746529 
L 343.636364 493.854385 
L 348.709091 492.667572 
L 352.536475 490.909091 
L 353.781818 487.441781 
L 354.381876 485.672727 
L 353.781818 485.019498 
L 348.709091 480.957195 
L 347.822628 480.436364 
L 343.636364 478.243761 
L 338.563636 476.799446 
L 333.490909 475.906393 
L 328.418182 475.353269 
L 324.805842 475.2 
L 323.345455 475.138002 
L 321.92149 475.2 
L 318.272727 475.397217 
L 313.2 476.408498 
L 308.127273 477.6681 
L 303.054545 478.760564 
L 297.981818 479.441253 
L 292.909091 479.792036 
L 287.836364 480.166981 
L 284.204213 480.436364 
L 287.836364 481.665295 
L 292.909091 482.058015 
L 297.981818 482.476711 
L 303.054545 483.312791 
L 308.127273 485.248364 
L 308.567797 485.672727 
L 313.2 487.118198 
L 318.272727 489.823664 
L 319.968976 490.909091 
L 323.345455 492.322173 
" style="fill:none;stroke:#808080;"/>
   </g>
   <g id="LineCollection_12">
    <path clip-path="url(#pcba29c851f)" d="M 247.254545 491.793139 
L 252.327273 491.908124 
L 257.4 491.950824 
L 262.472727 491.580272 
L 265.234536 490.909091 
L 267.545455 489.211449 
L 272.618182 486.963685 
L 277.690909 485.823718 
L 278.444907 485.672727 
L 277.690909 485.253246 
L 272.618182 484.088429 
L 267.545455 483.716043 
L 262.472727 483.683331 
L 257.4 484.125024 
L 252.327273 484.829508 
L 247.254545 485.600615 
L 247.010065 485.672727 
L 243.358145 490.909091 
L 247.254545 491.793139 
" style="fill:none;stroke:#808080;"/>
    <path clip-path="url(#pcba29c851f)" d="M 323.345455 491.671001 
L 328.418182 492.536024 
L 333.490909 492.693854 
L 338.563636 493.19775 
L 343.636364 493.299984 
L 348.709091 491.996975 
L 351.076902 490.909091 
L 353.028389 485.672727 
L 348.709091 482.070081 
L 345.928479 480.436364 
L 343.636364 479.235842 
L 338.563636 477.698099 
L 333.490909 476.843516 
L 328.418182 476.377286 
L 323.345455 476.257556 
L 318.272727 476.66917 
L 313.2 477.882938 
L 308.127273 479.290944 
L 303.054545 480.336917 
L 302.248094 480.436364 
L 303.054545 480.607059 
L 308.127273 482.427416 
L 311.496173 485.672727 
L 313.2 486.204403 
L 318.272727 488.828022 
L 321.524913 490.909091 
L 323.345455 491.671001 
" style="fill:none;stroke:#808080;"/>
   </g>
   <g id="LineCollection_13">
    <path clip-path="url(#pcba29c851f)" d="M 247.254545 491.049856 
L 252.327273 491.200759 
L 257.4 491.266922 
L 262.245175 490.909091 
L 262.472727 490.800269 
L 267.545455 487.131463 
L 272.24384 485.672727 
L 267.545455 484.866141 
L 262.472727 484.605268 
L 257.4 484.98766 
L 252.367764 485.672727 
L 252.327273 485.75264 
L 247.254545 490.010775 
L 246.634131 490.909091 
L 247.254545 491.049856 
" style="fill:none;stroke:#808080;"/>
    <path clip-path="url(#pcba29c851f)" d="M 323.345455 491.01983 
L 328.418182 491.932289 
L 333.490909 492.105801 
L 338.563636 492.648971 
L 343.636364 492.745583 
L 348.709091 491.326378 
L 349.617329 490.909091 
L 351.694124 485.672727 
L 348.709091 483.182967 
L 344.03433 480.436364 
L 343.636364 480.227924 
L 338.563636 478.596751 
L 333.490909 477.780639 
L 328.418182 477.401303 
L 323.345455 477.383227 
L 318.272727 477.941123 
L 313.2 479.357377 
L 309.581824 480.436364 
L 313.2 483.768599 
L 314.019877 485.672727 
L 318.272727 487.83238 
L 323.08085 490.909091 
L 323.345455 491.01983 
" style="fill:none;stroke:#808080;"/>
   </g>
   <g id="LineCollection_14">
    <path clip-path="url(#pcba29c851f)" d="M 328.418182 491.328554 
L 333.490909 491.517748 
L 338.563636 492.100192 
L 343.636364 492.191182 
L 347.996846 490.909091 
L 348.709091 489.684303 
L 350.359859 485.672727 
L 348.709091 484.295852 
L 343.636364 481.197675 
L 341.455097 480.436364 
L 338.563636 479.495404 
L 333.490909 478.717762 
L 328.418182 478.425319 
L 323.345455 478.508897 
L 318.272727 479.213076 
L 314.306174 480.436364 
L 315.980523 485.672727 
L 318.272727 486.836739 
L 323.345455 489.899912 
L 326.106655 490.909091 
L 328.418182 491.328554 
" style="fill:none;stroke:#808080;"/>
    <path clip-path="url(#pcba29c851f)" d="M 262.472727 486.371746 
L 264.226636 485.672727 
L 262.472727 485.527205 
L 260.271112 485.672727 
L 262.472727 486.371746 
" style="fill:none;stroke:#808080;"/>
   </g>
   <g id="LineCollection_15">
    <path clip-path="url(#pcba29c851f)" d="M 333.490909 490.929696 
L 338.563636 491.551412 
L 343.636364 491.636781 
L 346.111288 490.909091 
L 348.709091 486.44187 
L 349.025594 485.672727 
L 348.709091 485.408738 
L 343.636364 482.161485 
L 338.693639 480.436364 
L 338.563636 480.394057 
L 333.490909 479.654885 
L 328.418182 479.449336 
L 323.345455 479.634567 
L 318.531316 480.436364 
L 318.272727 481.402491 
L 317.941169 485.672727 
L 318.272727 485.841097 
L 323.345455 488.683945 
L 328.418182 490.49102 
L 332.968529 490.909091 
L 333.490909 490.929696 
" style="fill:none;stroke:#808080;"/>
   </g>
   <g id="LineCollection_16">
    <path clip-path="url(#pcba29c851f)" d="M 338.563636 491.002633 
L 343.636364 491.08238 
L 344.225731 490.909091 
L 347.572989 485.672727 
L 343.636364 483.125296 
L 338.563636 481.534923 
L 333.490909 480.715469 
L 328.418182 480.510428 
L 323.345455 481.290384 
L 320.0995 485.672727 
L 323.345455 487.467978 
L 328.418182 489.121284 
L 333.490909 489.618401 
L 337.802089 490.909091 
L 338.563636 491.002633 
" style="fill:none;stroke:#808080;"/>
   </g>
   <g id="LineCollection_17">
    <path clip-path="url(#pcba29c851f)" d="M 323.345455 486.252011 
L 328.418182 487.751547 
L 333.490909 488.280844 
L 338.563636 489.638528 
L 343.636364 489.364523 
L 346.083583 485.672727 
L 343.636364 484.089106 
L 338.563636 482.687754 
L 333.490909 482.395946 
L 328.418182 482.560848 
L 323.345455 484.258652 
L 322.298064 485.672727 
L 323.345455 486.252011 
" style="fill:none;stroke:#808080;"/>
   </g>
   <g id="LineCollection_18">
    <path clip-path="url(#pcba29c851f)" d="M 328.418182 486.381811 
L 333.490909 486.943288 
L 338.563636 488.10689 
L 343.636364 487.117653 
L 344.594176 485.672727 
L 343.636364 485.052917 
L 338.563636 483.840585 
L 333.490909 484.076423 
L 328.418182 484.611268 
L 325.896246 485.672727 
L 328.418182 486.381811 
" style="fill:none;stroke:#808080;"/>
   </g>
   <g id="LineCollection_19">
    <path clip-path="url(#pcba29c851f)" d="M 338.563636 486.575251 
L 341.722819 485.672727 
L 338.563636 484.993417 
L 333.888326 485.672727 
L 338.563636 486.575251 
" style="fill:none;stroke:#808080;"/>
   </g>
   <g id="PathCollection_1">
    <defs>
     <path d="M 0 2.236068 
C 0.593012 2.236068 1.161816 2.000462 1.581139 1.581139 
C 2.000462 1.161816 2.236068 0.593012 2.236068 0 
C 2.236068 -0.593012 2.000462 -1.161816 1.581139 -1.581139 
C 1.161816 -2.000462 0.593012 -2.236068 0 -2.236068 
C -0.593012 -2.236068 -1.161816 -2.000462 -1.581139 -1.581139 
C -2.000462 -1.161816 -2.236068 -0.593012 -2.236068 0 
C -2.236068 0.593012 -2.000462 1.161816 -1.581139 1.581139 
C -1.161816 2.000462 -0.593012 2.236068 0 2.236068 
z
" id="m5cd17cc95b" style="stroke:#000000;"/>
    </defs>
    <g clip-path="url(#pcba29c851f)">
     <use style="stroke:#000000;" x="449.045383031" xlink:href="#m5cd17cc95b" y="321.481199429"/>
    </g>
   </g>
   <g id="PathCollection_2">
    <g clip-path="url(#pcba29c851f)">
     <use style="stroke:#000000;" x="401.345462024" xlink:href="#m5cd17cc95b" y="531.817184644"/>
    </g>
   </g>
   <g id="PathCollection_3">
    <g clip-path="url(#pcba29c851f)">
     <use style="stroke:#000000;" x="477.280223981" xlink:href="#m5cd17cc95b" y="412.866254165"/>
    </g>
   </g>
   <g id="PathCollection_4">
    <g clip-path="url(#pcba29c851f)">
     <use style="stroke:#000000;" x="454.785794381" xlink:href="#m5cd17cc95b" y="498.756370364"/>
    </g>
   </g>
   <g id="PathCollection_5">
    <g clip-path="url(#pcba29c851f)">
     <use style="stroke:#000000;" x="354.933036281" xlink:href="#m5cd17cc95b" y="394.237762238"/>
    </g>
   </g>
   <g id="PathCollection_6">
    <g clip-path="url(#pcba29c851f)">
     <use style="stroke:#000000;" x="504.550471032" xlink:href="#m5cd17cc95b" y="373.756548536"/>
    </g>
   </g>
   <g id="PathCollection_7">
    <g clip-path="url(#pcba29c851f)">
     <use style="stroke:#000000;" x="462.292697846" xlink:href="#m5cd17cc95b" y="371.86013986"/>
    </g>
   </g>
   <g id="PathCollection_8">
    <g clip-path="url(#pcba29c851f)">
     <use style="stroke:#000000;" x="272.506051018" xlink:href="#m5cd17cc95b" y="571.910203073"/>
    </g>
   </g>
   <g id="PathCollection_9">
    <g clip-path="url(#pcba29c851f)">
     <use style="stroke:#000000;" x="442.838957567" xlink:href="#m5cd17cc95b" y="330.504027618"/>
    </g>
   </g>
   <g id="PathCollection_10">
    <g clip-path="url(#pcba29c851f)">
     <use style="stroke:#000000;" x="254.657264159" xlink:href="#m5cd17cc95b" y="566.865134865"/>
    </g>
   </g>
   <g id="PathCollection_11">
    <g clip-path="url(#pcba29c851f)">
     <use style="stroke:#000000;" x="451.455034539" xlink:href="#m5cd17cc95b" y="471.551917277"/>
    </g>
   </g>
   <g id="PathCollection_12">
    <g clip-path="url(#pcba29c851f)">
     <use style="stroke:#000000;" x="382.309186779" xlink:href="#m5cd17cc95b" y="503.931221143"/>
    </g>
   </g>
   <g id="PathCollection_13">
    <g clip-path="url(#pcba29c851f)">
     <use style="stroke:#000000;" x="303.185889172" xlink:href="#m5cd17cc95b" y="473.291418862"/>
    </g>
   </g>
   <g id="PathCollection_14">
    <g clip-path="url(#pcba29c851f)">
     <use style="stroke:#000000;" x="329.613174372" xlink:href="#m5cd17cc95b" y="487.447032307"/>
    </g>
   </g>
   <g id="PathCollection_15">
    <g clip-path="url(#pcba29c851f)">
     <use style="stroke:#000000;" x="274.013996008" xlink:href="#m5cd17cc95b" y="440.254653359"/>
    </g>
   </g>
   <g id="PathCollection_16">
    <g clip-path="url(#pcba29c851f)">
     <use style="stroke:#000000;" x="306.540018409" xlink:href="#m5cd17cc95b" y="417.225336844"/>
    </g>
   </g>
   <g id="PathCollection_17">
    <g clip-path="url(#pcba29c851f)">
     <use style="stroke:#000000;" x="282.632292646" xlink:href="#m5cd17cc95b" y="470.812439051"/>
    </g>
   </g>
   <g id="PathCollection_18">
    <g clip-path="url(#pcba29c851f)">
     <use style="stroke:#000000;" x="342.020747215" xlink:href="#m5cd17cc95b" y="471.551917277"/>
    </g>
   </g>
   <g id="PathCollection_19">
    <g clip-path="url(#pcba29c851f)">
     <use style="stroke:#000000;" x="335.669336593" xlink:href="#m5cd17cc95b" y="443.637419185"/>
    </g>
   </g>
   <g id="PathCollection_20">
    <g clip-path="url(#pcba29c851f)">
     <use style="stroke:#000000;" x="250.148845225" xlink:href="#m5cd17cc95b" y="482.905176632"/>
    </g>
   </g>
   <g id="PathCollection_21">
    <g clip-path="url(#pcba29c851f)">
     <use style="stroke:#000000;" x="256.205007446" xlink:href="#m5cd17cc95b" y="487.447032307"/>
    </g>
   </g>
   <g id="PathCollection_22">
    <g clip-path="url(#pcba29c851f)">
     <use style="stroke:#000000;" x="231.052767604" xlink:href="#m5cd17cc95b" y="349.797695262"/>
    </g>
   </g>
   <g id="PathCollection_23">
    <g clip-path="url(#pcba29c851f)">
     <use style="stroke:#000000;" x="190.865685697" xlink:href="#m5cd17cc95b" y="498.666666667"/>
    </g>
   </g>
   <g id="PathCollection_24">
    <g clip-path="url(#pcba29c851f)">
     <use style="stroke:#000000;" x="213.122372476" xlink:href="#m5cd17cc95b" y="503.770334928"/>
    </g>
   </g>
   <g id="PathCollection_25">
    <g clip-path="url(#pcba29c851f)">
     <use style="stroke:#000000;" x="228.219755017" xlink:href="#m5cd17cc95b" y="498.666666667"/>
    </g>
   </g>
   <g id="PathCollection_26">
    <g clip-path="url(#pcba29c851f)">
     <use style="stroke:#000000;" x="419.276817378" xlink:href="#m5cd17cc95b" y="403.122994652"/>
    </g>
   </g>
   <g id="PathCollection_27">
    <g clip-path="url(#pcba29c851f)">
     <use style="stroke:#000000;" x="357.871426252" xlink:href="#m5cd17cc95b" y="438.151742994"/>
    </g>
   </g>
   <g id="PathCollection_28">
    <g clip-path="url(#pcba29c851f)">
     <use style="stroke:#000000;" x="276.193565552" xlink:href="#m5cd17cc95b" y="523.009960913"/>
    </g>
   </g>
   <g id="PathCollection_29">
    <g clip-path="url(#pcba29c851f)">
     <use style="stroke:#000000;" x="407.562902753" xlink:href="#m5cd17cc95b" y="435.747397641"/>
    </g>
   </g>
   <g id="PathCollection_30">
    <g clip-path="url(#pcba29c851f)">
     <use style="stroke:#000000;" x="223.698869379" xlink:href="#m5cd17cc95b" y="327.791676354"/>
    </g>
   </g>
   <g id="text_15">
    <text style="font-family:Arial;font-size:9.0px;font-style:normal;font-weight:400;text-anchor:start;" transform="rotate(-0.000000, 452.089019, 318.339381)" x="452.089019394" y="318.339381247">2E-10</text>
   </g>
   <g id="text_16">
    <text style="font-family:Arial;font-size:9.0px;font-style:normal;font-weight:400;text-anchor:start;" transform="rotate(-0.000000, 404.389098, 528.675366)" x="404.389098388" y="528.675366462">3E-04</text>
   </g>
   <g id="text_17">
    <text style="font-family:Arial;font-size:9.0px;font-style:normal;font-weight:400;text-anchor:start;" transform="rotate(-0.000000, 480.323860, 409.724436)" x="480.323860344" y="409.724435983">1E-03</text>
   </g>
   <g id="text_18">
    <text style="font-family:Arial;font-size:9.0px;font-style:normal;font-weight:400;text-anchor:start;" transform="rotate(-0.000000, 457.829431, 495.614552)" x="457.829430744" y="495.614552182">8E-08</text>
   </g>
   <g id="text_19">
    <text style="font-family:Arial;font-size:9.0px;font-style:normal;font-weight:400;text-anchor:start;" transform="rotate(-0.000000, 357.976673, 391.095944)" x="357.976672644" y="391.095944056">6E-08</text>
   </g>
   <g id="text_20">
    <text style="font-family:Arial;font-size:9.0px;font-style:normal;font-weight:400;text-anchor:start;" transform="rotate(-0.000000, 507.594107, 370.614730)" x="507.594107396" y="370.614730354">7E-04</text>
   </g>
   <g id="text_21">
    <text style="font-family:Arial;font-size:9.0px;font-style:normal;font-weight:400;text-anchor:start;" transform="rotate(-0.000000, 465.336334, 368.718322)" x="465.336334209" y="368.718321678">8E-04</text>
   </g>
   <g id="text_22">
    <text style="font-family:Arial;font-size:9.0px;font-style:normal;font-weight:400;text-anchor:start;" transform="rotate(-0.000000, 275.549687, 568.768385)" x="275.549687381" y="568.768384891">7E-07</text>
   </g>
   <g id="text_23">
    <text style="font-family:Arial;font-size:9.0px;font-style:normal;font-weight:400;text-anchor:start;" transform="rotate(-0.000000, 445.882594, 327.362209)" x="445.882593931" y="327.362209436">1E-09</text>
   </g>
   <g id="text_24">
    <text style="font-family:Arial;font-size:9.0px;font-style:normal;font-weight:400;text-anchor:start;" transform="rotate(-0.000000, 257.700901, 563.723317)" x="257.700900522" y="563.723316683">2E-09</text>
   </g>
   <g id="text_25">
    <text style="font-family:Arial;font-size:9.0px;font-style:normal;font-weight:400;text-anchor:start;" transform="rotate(-0.000000, 454.498671, 468.410099)" x="454.498670902" y="468.410099095">6E-05</text>
   </g>
   <g id="text_26">
    <text style="font-family:Arial;font-size:9.0px;font-style:normal;font-weight:400;text-anchor:start;" transform="rotate(-0.000000, 385.352823, 500.789403)" x="385.352823142" y="500.789402961">1E-04</text>
   </g>
   <g id="text_27">
    <text style="font-family:Arial;font-size:9.0px;font-style:normal;font-weight:400;text-anchor:start;" transform="rotate(-0.000000, 306.229526, 470.149601)" x="306.229525535" y="470.14960068">2E-03</text>
   </g>
   <g id="text_28">
    <text style="font-family:Arial;font-size:9.0px;font-style:normal;font-weight:400;text-anchor:start;" transform="rotate(-0.000000, 332.656811, 484.305214)" x="332.656810736" y="484.305214125">5E-03</text>
   </g>
   <g id="text_29">
    <text style="font-family:Arial;font-size:9.0px;font-style:normal;font-weight:400;text-anchor:start;" transform="rotate(-0.000000, 277.057632, 437.112835)" x="277.057632372" y="437.112835177">3E-09</text>
   </g>
   <g id="text_30">
    <text style="font-family:Arial;font-size:9.0px;font-style:normal;font-weight:400;text-anchor:start;" transform="rotate(-0.000000, 309.583655, 414.083519)" x="309.583654772" y="414.083518662">4E-10</text>
   </g>
   <g id="text_31">
    <text style="font-family:Arial;font-size:9.0px;font-style:normal;font-weight:400;text-anchor:start;" transform="rotate(-0.000000, 285.675929, 467.670621)" x="285.67592901" y="467.670620869">1E-03</text>
   </g>
   <g id="text_32">
    <text style="font-family:Arial;font-size:9.0px;font-style:normal;font-weight:400;text-anchor:start;" transform="rotate(-0.000000, 345.064384, 468.410099)" x="345.064383579" y="468.410099095">1E-03</text>
   </g>
   <g id="text_33">
    <text style="font-family:Arial;font-size:9.0px;font-style:normal;font-weight:400;text-anchor:start;" transform="rotate(-0.000000, 338.712973, 440.495601)" x="338.712972957" y="440.495601003">9E-04</text>
   </g>
   <g id="text_34">
    <text style="font-family:Arial;font-size:9.0px;font-style:normal;font-weight:400;text-anchor:start;" transform="rotate(-0.000000, 253.192482, 479.763358)" x="253.192481588" y="479.76335845">2E-03</text>
   </g>
   <g id="text_35">
    <text style="font-family:Arial;font-size:9.0px;font-style:normal;font-weight:400;text-anchor:start;" transform="rotate(-0.000000, 259.248644, 484.305214)" x="259.24864381" y="484.305214125">3E-03</text>
   </g>
   <g id="text_36">
    <text style="font-family:Arial;font-size:9.0px;font-style:normal;font-weight:400;text-anchor:start;" transform="rotate(-0.000000, 234.096404, 346.655877)" x="234.096403968" y="346.655877081">3E-124</text>
   </g>
   <g id="text_37">
    <text style="font-family:Arial;font-size:9.0px;font-style:normal;font-weight:400;text-anchor:start;" transform="rotate(-0.000000, 193.909322, 495.524848)" x="193.909322061" y="495.524848485">3E-08</text>
   </g>
   <g id="text_38">
    <text style="font-family:Arial;font-size:9.0px;font-style:normal;font-weight:400;text-anchor:start;" transform="rotate(-0.000000, 216.166009, 500.628517)" x="216.16600884" y="500.628516746">2E-05</text>
   </g>
   <g id="text_39">
    <text style="font-family:Arial;font-size:9.0px;font-style:normal;font-weight:400;text-anchor:start;" transform="rotate(-0.000000, 231.263391, 495.524848)" x="231.263391381" y="495.524848485">5E-04</text>
   </g>
   <g id="text_40">
    <text style="font-family:Arial;font-size:9.0px;font-style:normal;font-weight:400;text-anchor:start;" transform="rotate(-0.000000, 422.320454, 399.981176)" x="422.320453742" y="399.981176471">7E-04</text>
   </g>
   <g id="text_41">
    <text style="font-family:Arial;font-size:9.0px;font-style:normal;font-weight:400;text-anchor:start;" transform="rotate(-0.000000, 360.915063, 435.009925)" x="360.915062616" y="435.009924812">9E-04</text>
   </g>
   <g id="text_42">
    <text style="font-family:Arial;font-size:9.0px;font-style:normal;font-weight:400;text-anchor:start;" transform="rotate(-0.000000, 279.237202, 519.868143)" x="279.237201916" y="519.868142731">7E-05</text>
   </g>
   <g id="text_43">
    <text style="font-family:Arial;font-size:9.0px;font-style:normal;font-weight:400;text-anchor:start;" transform="rotate(-0.000000, 410.606539, 432.605579)" x="410.606539116" y="432.605579459">8E-04</text>
   </g>
   <g id="text_44">
    <text style="font-family:Arial;font-size:9.0px;font-style:normal;font-weight:400;text-anchor:start;" transform="rotate(-0.000000, 226.742506, 324.649858)" x="226.742505743" y="324.649858173">5E-174</text>
   </g>
  </g>
 </g>
 <defs>
  <clipPath id="pcba29c851f">
   <rect height="576.0" width="558.0" x="90.0" y="72.0"/>
  </clipPath>
 </defs>
</svg>
